G04 #@! TF.FileFunction,Legend,Top*
%FSLAX46Y46*%
G04 Gerber Fmt 4.6, Leading zero omitted, Abs format (unit mm)*
G04 Created by KiCad (PCBNEW 0.201506122246+5743~23~ubuntu14.04.1-product) date Mon 22 Jun 2015 14:25:25 BST*
%MOMM*%
G01*
G04 APERTURE LIST*
%ADD10C,0.100000*%
%ADD11C,0.250000*%
%ADD12C,0.150000*%
G04 APERTURE END LIST*
D10*
D11*
X39656666Y-33742381D02*
X39180475Y-33742381D01*
X39132856Y-34218571D01*
X39180475Y-34170952D01*
X39275713Y-34123333D01*
X39513809Y-34123333D01*
X39609047Y-34170952D01*
X39656666Y-34218571D01*
X39704285Y-34313810D01*
X39704285Y-34551905D01*
X39656666Y-34647143D01*
X39609047Y-34694762D01*
X39513809Y-34742381D01*
X39275713Y-34742381D01*
X39180475Y-34694762D01*
X39132856Y-34647143D01*
X40656666Y-34742381D02*
X40085237Y-34742381D01*
X40370951Y-34742381D02*
X40370951Y-33742381D01*
X40275713Y-33885238D01*
X40180475Y-33980476D01*
X40085237Y-34028095D01*
X41513809Y-33742381D02*
X41323332Y-33742381D01*
X41228094Y-33790000D01*
X41180475Y-33837619D01*
X41085237Y-33980476D01*
X41037618Y-34170952D01*
X41037618Y-34551905D01*
X41085237Y-34647143D01*
X41132856Y-34694762D01*
X41228094Y-34742381D01*
X41418571Y-34742381D01*
X41513809Y-34694762D01*
X41561428Y-34647143D01*
X41609047Y-34551905D01*
X41609047Y-34313810D01*
X41561428Y-34218571D01*
X41513809Y-34170952D01*
X41418571Y-34123333D01*
X41228094Y-34123333D01*
X41132856Y-34170952D01*
X41085237Y-34218571D01*
X41037618Y-34313810D01*
X42228094Y-33742381D02*
X42323333Y-33742381D01*
X42418571Y-33790000D01*
X42466190Y-33837619D01*
X42513809Y-33932857D01*
X42561428Y-34123333D01*
X42561428Y-34361429D01*
X42513809Y-34551905D01*
X42466190Y-34647143D01*
X42418571Y-34694762D01*
X42323333Y-34742381D01*
X42228094Y-34742381D01*
X42132856Y-34694762D01*
X42085237Y-34647143D01*
X42037618Y-34551905D01*
X41989999Y-34361429D01*
X41989999Y-34123333D01*
X42037618Y-33932857D01*
X42085237Y-33837619D01*
X42132856Y-33790000D01*
X42228094Y-33742381D01*
X43418571Y-34075714D02*
X43418571Y-34742381D01*
X43180475Y-33694762D02*
X42942380Y-34409048D01*
X43561428Y-34409048D01*
X43894761Y-34456667D02*
X44370952Y-34456667D01*
X43799523Y-34742381D02*
X44132856Y-33742381D01*
X44466190Y-34742381D01*
X45894762Y-34218571D02*
X46037619Y-34266190D01*
X46085238Y-34313810D01*
X46132857Y-34409048D01*
X46132857Y-34551905D01*
X46085238Y-34647143D01*
X46037619Y-34694762D01*
X45942381Y-34742381D01*
X45561428Y-34742381D01*
X45561428Y-33742381D01*
X45894762Y-33742381D01*
X45990000Y-33790000D01*
X46037619Y-33837619D01*
X46085238Y-33932857D01*
X46085238Y-34028095D01*
X46037619Y-34123333D01*
X45990000Y-34170952D01*
X45894762Y-34218571D01*
X45561428Y-34218571D01*
X46561428Y-34742381D02*
X46561428Y-34075714D01*
X46561428Y-34266190D02*
X46609047Y-34170952D01*
X46656666Y-34123333D01*
X46751904Y-34075714D01*
X46847143Y-34075714D01*
X47561429Y-34694762D02*
X47466191Y-34742381D01*
X47275714Y-34742381D01*
X47180476Y-34694762D01*
X47132857Y-34599524D01*
X47132857Y-34218571D01*
X47180476Y-34123333D01*
X47275714Y-34075714D01*
X47466191Y-34075714D01*
X47561429Y-34123333D01*
X47609048Y-34218571D01*
X47609048Y-34313810D01*
X47132857Y-34409048D01*
X48466191Y-34742381D02*
X48466191Y-34218571D01*
X48418572Y-34123333D01*
X48323334Y-34075714D01*
X48132857Y-34075714D01*
X48037619Y-34123333D01*
X48466191Y-34694762D02*
X48370953Y-34742381D01*
X48132857Y-34742381D01*
X48037619Y-34694762D01*
X47990000Y-34599524D01*
X47990000Y-34504286D01*
X48037619Y-34409048D01*
X48132857Y-34361429D01*
X48370953Y-34361429D01*
X48466191Y-34313810D01*
X48942381Y-34742381D02*
X48942381Y-33742381D01*
X49037619Y-34361429D02*
X49323334Y-34742381D01*
X49323334Y-34075714D02*
X48942381Y-34456667D01*
X49894762Y-34742381D02*
X49799524Y-34694762D01*
X49751905Y-34647143D01*
X49704286Y-34551905D01*
X49704286Y-34266190D01*
X49751905Y-34170952D01*
X49799524Y-34123333D01*
X49894762Y-34075714D01*
X50037620Y-34075714D01*
X50132858Y-34123333D01*
X50180477Y-34170952D01*
X50228096Y-34266190D01*
X50228096Y-34551905D01*
X50180477Y-34647143D01*
X50132858Y-34694762D01*
X50037620Y-34742381D01*
X49894762Y-34742381D01*
X51085239Y-34075714D02*
X51085239Y-34742381D01*
X50656667Y-34075714D02*
X50656667Y-34599524D01*
X50704286Y-34694762D01*
X50799524Y-34742381D01*
X50942382Y-34742381D01*
X51037620Y-34694762D01*
X51085239Y-34647143D01*
X51418572Y-34075714D02*
X51799524Y-34075714D01*
X51561429Y-33742381D02*
X51561429Y-34599524D01*
X51609048Y-34694762D01*
X51704286Y-34742381D01*
X51799524Y-34742381D01*
X53418573Y-34742381D02*
X52847144Y-34742381D01*
X53132858Y-34742381D02*
X53132858Y-33742381D01*
X53037620Y-33885238D01*
X52942382Y-33980476D01*
X52847144Y-34028095D01*
X53847144Y-34647143D02*
X53894763Y-34694762D01*
X53847144Y-34742381D01*
X53799525Y-34694762D01*
X53847144Y-34647143D01*
X53847144Y-34742381D01*
X54513810Y-33742381D02*
X54609049Y-33742381D01*
X54704287Y-33790000D01*
X54751906Y-33837619D01*
X54799525Y-33932857D01*
X54847144Y-34123333D01*
X54847144Y-34361429D01*
X54799525Y-34551905D01*
X54751906Y-34647143D01*
X54704287Y-34694762D01*
X54609049Y-34742381D01*
X54513810Y-34742381D01*
X54418572Y-34694762D01*
X54370953Y-34647143D01*
X54323334Y-34551905D01*
X54275715Y-34361429D01*
X54275715Y-34123333D01*
X54323334Y-33932857D01*
X54370953Y-33837619D01*
X54418572Y-33790000D01*
X54513810Y-33742381D01*
D12*
X55880000Y-55880000D02*
X38100000Y-55880000D01*
X40640000Y-60960000D02*
X55880000Y-60960000D01*
X55880000Y-55880000D02*
X55880000Y-60960000D01*
X38100000Y-55880000D02*
X38100000Y-58420000D01*
X37820000Y-59690000D02*
X37820000Y-61240000D01*
X38100000Y-58420000D02*
X40640000Y-58420000D01*
X40640000Y-58420000D02*
X40640000Y-60960000D01*
X37820000Y-61240000D02*
X39370000Y-61240000D01*
X45616905Y-55062381D02*
X45616905Y-54062381D01*
X45997858Y-54062381D01*
X46093096Y-54110000D01*
X46140715Y-54157619D01*
X46188334Y-54252857D01*
X46188334Y-54395714D01*
X46140715Y-54490952D01*
X46093096Y-54538571D01*
X45997858Y-54586190D01*
X45616905Y-54586190D01*
X47140715Y-55062381D02*
X46569286Y-55062381D01*
X46855000Y-55062381D02*
X46855000Y-54062381D01*
X46759762Y-54205238D01*
X46664524Y-54300476D01*
X46569286Y-54348095D01*
X45616905Y-37282381D02*
X45616905Y-36282381D01*
X45997858Y-36282381D01*
X46093096Y-36330000D01*
X46140715Y-36377619D01*
X46188334Y-36472857D01*
X46188334Y-36615714D01*
X46140715Y-36710952D01*
X46093096Y-36758571D01*
X45997858Y-36806190D01*
X45616905Y-36806190D01*
X46569286Y-36377619D02*
X46616905Y-36330000D01*
X46712143Y-36282381D01*
X46950239Y-36282381D01*
X47045477Y-36330000D01*
X47093096Y-36377619D01*
X47140715Y-36472857D01*
X47140715Y-36568095D01*
X47093096Y-36710952D01*
X46521667Y-37282381D01*
X47140715Y-37282381D01*
M02*
