G04 #@! TF.FileFunction,Legend,Top*
%FSLAX46Y46*%
G04 Gerber Fmt 4.6, Leading zero omitted, Abs format (unit mm)*
G04 Created by KiCad (PCBNEW 0.201506122246+5743~23~ubuntu14.04.1-product) date Mon 13 Jul 2015 15:09:56 BST*
%MOMM*%
G01*
G04 APERTURE LIST*
%ADD10C,0.100000*%
%ADD11C,0.150000*%
%ADD12C,0.200000*%
G04 APERTURE END LIST*
D10*
D11*
X100726905Y-50887381D02*
X100250714Y-50887381D01*
X100203095Y-51363571D01*
X100250714Y-51315952D01*
X100345952Y-51268333D01*
X100584048Y-51268333D01*
X100679286Y-51315952D01*
X100726905Y-51363571D01*
X100774524Y-51458810D01*
X100774524Y-51696905D01*
X100726905Y-51792143D01*
X100679286Y-51839762D01*
X100584048Y-51887381D01*
X100345952Y-51887381D01*
X100250714Y-51839762D01*
X100203095Y-51792143D01*
X101393571Y-50887381D02*
X101488810Y-50887381D01*
X101584048Y-50935000D01*
X101631667Y-50982619D01*
X101679286Y-51077857D01*
X101726905Y-51268333D01*
X101726905Y-51506429D01*
X101679286Y-51696905D01*
X101631667Y-51792143D01*
X101584048Y-51839762D01*
X101488810Y-51887381D01*
X101393571Y-51887381D01*
X101298333Y-51839762D01*
X101250714Y-51792143D01*
X101203095Y-51696905D01*
X101155476Y-51506429D01*
X101155476Y-51268333D01*
X101203095Y-51077857D01*
X101250714Y-50982619D01*
X101298333Y-50935000D01*
X101393571Y-50887381D01*
X104489286Y-51220714D02*
X104489286Y-51887381D01*
X104251190Y-50839762D02*
X104013095Y-51554048D01*
X104632143Y-51554048D01*
X105060714Y-51887381D02*
X105251190Y-51887381D01*
X105346429Y-51839762D01*
X105394048Y-51792143D01*
X105489286Y-51649286D01*
X105536905Y-51458810D01*
X105536905Y-51077857D01*
X105489286Y-50982619D01*
X105441667Y-50935000D01*
X105346429Y-50887381D01*
X105155952Y-50887381D01*
X105060714Y-50935000D01*
X105013095Y-50982619D01*
X104965476Y-51077857D01*
X104965476Y-51315952D01*
X105013095Y-51411190D01*
X105060714Y-51458810D01*
X105155952Y-51506429D01*
X105346429Y-51506429D01*
X105441667Y-51458810D01*
X105489286Y-51411190D01*
X105536905Y-51315952D01*
X99409286Y-115117619D02*
X99456905Y-115070000D01*
X99552143Y-115022381D01*
X99790239Y-115022381D01*
X99885477Y-115070000D01*
X99933096Y-115117619D01*
X99980715Y-115212857D01*
X99980715Y-115308095D01*
X99933096Y-115450952D01*
X99361667Y-116022381D01*
X99980715Y-116022381D01*
X106330715Y-116022381D02*
X105759286Y-116022381D01*
X106045000Y-116022381D02*
X106045000Y-115022381D01*
X105949762Y-115165238D01*
X105854524Y-115260476D01*
X105759286Y-115308095D01*
X117475000Y-46990000D02*
G75*
G03X117475000Y-46990000I-635000J0D01*
G01*
X117475000Y-67310000D02*
G75*
G03X117475000Y-67310000I-635000J0D01*
G01*
X116078096Y-29980000D02*
X115982858Y-29932381D01*
X115840001Y-29932381D01*
X115697143Y-29980000D01*
X115601905Y-30075238D01*
X115554286Y-30170476D01*
X115506667Y-30360952D01*
X115506667Y-30503810D01*
X115554286Y-30694286D01*
X115601905Y-30789524D01*
X115697143Y-30884762D01*
X115840001Y-30932381D01*
X115935239Y-30932381D01*
X116078096Y-30884762D01*
X116125715Y-30837143D01*
X116125715Y-30503810D01*
X115935239Y-30503810D01*
X116554286Y-30932381D02*
X116554286Y-29932381D01*
X117125715Y-30932381D01*
X117125715Y-29932381D01*
X117601905Y-30932381D02*
X117601905Y-29932381D01*
X117840000Y-29932381D01*
X117982858Y-29980000D01*
X118078096Y-30075238D01*
X118125715Y-30170476D01*
X118173334Y-30360952D01*
X118173334Y-30503810D01*
X118125715Y-30694286D01*
X118078096Y-30789524D01*
X117982858Y-30884762D01*
X117840000Y-30932381D01*
X117601905Y-30932381D01*
X123825000Y-31750000D02*
X123825000Y-34290000D01*
X118745000Y-31750000D02*
X128905000Y-31750000D01*
X125745953Y-36012381D02*
X125174524Y-36012381D01*
X125460238Y-36012381D02*
X125460238Y-35012381D01*
X125365000Y-35155238D01*
X125269762Y-35250476D01*
X125174524Y-35298095D01*
X126222143Y-36012381D02*
X126412619Y-36012381D01*
X126507858Y-35964762D01*
X126555477Y-35917143D01*
X126650715Y-35774286D01*
X126698334Y-35583810D01*
X126698334Y-35202857D01*
X126650715Y-35107619D01*
X126603096Y-35060000D01*
X126507858Y-35012381D01*
X126317381Y-35012381D01*
X126222143Y-35060000D01*
X126174524Y-35107619D01*
X126126905Y-35202857D01*
X126126905Y-35440952D01*
X126174524Y-35536190D01*
X126222143Y-35583810D01*
X126317381Y-35631429D01*
X126507858Y-35631429D01*
X126603096Y-35583810D01*
X126650715Y-35536190D01*
X126698334Y-35440952D01*
X126984048Y-35012381D02*
X127317381Y-36012381D01*
X127650715Y-35012381D01*
X120665953Y-36012381D02*
X120094524Y-36012381D01*
X120380238Y-36012381D02*
X120380238Y-35012381D01*
X120285000Y-35155238D01*
X120189762Y-35250476D01*
X120094524Y-35298095D01*
X121046905Y-35107619D02*
X121094524Y-35060000D01*
X121189762Y-35012381D01*
X121427858Y-35012381D01*
X121523096Y-35060000D01*
X121570715Y-35107619D01*
X121618334Y-35202857D01*
X121618334Y-35298095D01*
X121570715Y-35440952D01*
X120999286Y-36012381D01*
X121618334Y-36012381D01*
X121904048Y-35012381D02*
X122237381Y-36012381D01*
X122570715Y-35012381D01*
X133437381Y-50052620D02*
X133437381Y-50528811D01*
X133913571Y-50576430D01*
X133865952Y-50528811D01*
X133818333Y-50433573D01*
X133818333Y-50195477D01*
X133865952Y-50100239D01*
X133913571Y-50052620D01*
X134008810Y-50005001D01*
X134246905Y-50005001D01*
X134342143Y-50052620D01*
X134389762Y-50100239D01*
X134437381Y-50195477D01*
X134437381Y-50433573D01*
X134389762Y-50528811D01*
X134342143Y-50576430D01*
X134437381Y-49052620D02*
X134437381Y-49624049D01*
X134437381Y-49338335D02*
X133437381Y-49338335D01*
X133580238Y-49433573D01*
X133675476Y-49528811D01*
X133723095Y-49624049D01*
X133437381Y-48195477D02*
X133437381Y-48385954D01*
X133485000Y-48481192D01*
X133532619Y-48528811D01*
X133675476Y-48624049D01*
X133865952Y-48671668D01*
X134246905Y-48671668D01*
X134342143Y-48624049D01*
X134389762Y-48576430D01*
X134437381Y-48481192D01*
X134437381Y-48290715D01*
X134389762Y-48195477D01*
X134342143Y-48147858D01*
X134246905Y-48100239D01*
X134008810Y-48100239D01*
X133913571Y-48147858D01*
X133865952Y-48195477D01*
X133818333Y-48290715D01*
X133818333Y-48481192D01*
X133865952Y-48576430D01*
X133913571Y-48624049D01*
X134008810Y-48671668D01*
X133437381Y-47481192D02*
X133437381Y-47385953D01*
X133485000Y-47290715D01*
X133532619Y-47243096D01*
X133627857Y-47195477D01*
X133818333Y-47147858D01*
X134056429Y-47147858D01*
X134246905Y-47195477D01*
X134342143Y-47243096D01*
X134389762Y-47290715D01*
X134437381Y-47385953D01*
X134437381Y-47481192D01*
X134389762Y-47576430D01*
X134342143Y-47624049D01*
X134246905Y-47671668D01*
X134056429Y-47719287D01*
X133818333Y-47719287D01*
X133627857Y-47671668D01*
X133532619Y-47624049D01*
X133485000Y-47576430D01*
X133437381Y-47481192D01*
X133770714Y-46290715D02*
X134437381Y-46290715D01*
X133389762Y-46528811D02*
X134104048Y-46766906D01*
X134104048Y-46147858D01*
X134437381Y-45005001D02*
X133437381Y-45005001D01*
X133770714Y-44528811D02*
X134437381Y-44528811D01*
X133865952Y-44528811D02*
X133818333Y-44481192D01*
X133770714Y-44385954D01*
X133770714Y-44243096D01*
X133818333Y-44147858D01*
X133913571Y-44100239D01*
X134437381Y-44100239D01*
X134437381Y-43624049D02*
X133437381Y-43624049D01*
X134056429Y-43528811D02*
X134437381Y-43243096D01*
X133770714Y-43243096D02*
X134151667Y-43624049D01*
X133770714Y-42814525D02*
X134627857Y-42814525D01*
X134723095Y-42862144D01*
X134770714Y-42957382D01*
X134770714Y-43005001D01*
X133437381Y-42814525D02*
X133485000Y-42862144D01*
X133532619Y-42814525D01*
X133485000Y-42766906D01*
X133437381Y-42814525D01*
X133532619Y-42814525D01*
X134389762Y-41957382D02*
X134437381Y-42052620D01*
X134437381Y-42243097D01*
X134389762Y-42338335D01*
X134294524Y-42385954D01*
X133913571Y-42385954D01*
X133818333Y-42338335D01*
X133770714Y-42243097D01*
X133770714Y-42052620D01*
X133818333Y-41957382D01*
X133913571Y-41909763D01*
X134008810Y-41909763D01*
X134104048Y-42385954D01*
X133770714Y-41624049D02*
X133770714Y-41243097D01*
X133437381Y-41481192D02*
X134294524Y-41481192D01*
X134389762Y-41433573D01*
X134437381Y-41338335D01*
X134437381Y-41243097D01*
X134437381Y-40147858D02*
X133437381Y-40147858D01*
X133437381Y-39909763D01*
X133485000Y-39766905D01*
X133580238Y-39671667D01*
X133675476Y-39624048D01*
X133865952Y-39576429D01*
X134008810Y-39576429D01*
X134199286Y-39624048D01*
X134294524Y-39671667D01*
X134389762Y-39766905D01*
X134437381Y-39909763D01*
X134437381Y-40147858D01*
X134437381Y-39147858D02*
X133770714Y-39147858D01*
X133961190Y-39147858D02*
X133865952Y-39100239D01*
X133818333Y-39052620D01*
X133770714Y-38957382D01*
X133770714Y-38862143D01*
X134437381Y-38528810D02*
X133770714Y-38528810D01*
X133437381Y-38528810D02*
X133485000Y-38576429D01*
X133532619Y-38528810D01*
X133485000Y-38481191D01*
X133437381Y-38528810D01*
X133532619Y-38528810D01*
X133770714Y-38147858D02*
X134437381Y-37909763D01*
X133770714Y-37671667D01*
X134389762Y-36909762D02*
X134437381Y-37005000D01*
X134437381Y-37195477D01*
X134389762Y-37290715D01*
X134294524Y-37338334D01*
X133913571Y-37338334D01*
X133818333Y-37290715D01*
X133770714Y-37195477D01*
X133770714Y-37005000D01*
X133818333Y-36909762D01*
X133913571Y-36862143D01*
X134008810Y-36862143D01*
X134104048Y-37338334D01*
X134437381Y-36433572D02*
X133770714Y-36433572D01*
X133961190Y-36433572D02*
X133865952Y-36385953D01*
X133818333Y-36338334D01*
X133770714Y-36243096D01*
X133770714Y-36147857D01*
X134437381Y-34481190D02*
X133961190Y-34814524D01*
X134437381Y-35052619D02*
X133437381Y-35052619D01*
X133437381Y-34671666D01*
X133485000Y-34576428D01*
X133532619Y-34528809D01*
X133627857Y-34481190D01*
X133770714Y-34481190D01*
X133865952Y-34528809D01*
X133913571Y-34576428D01*
X133961190Y-34671666D01*
X133961190Y-35052619D01*
X134389762Y-33671666D02*
X134437381Y-33766904D01*
X134437381Y-33957381D01*
X134389762Y-34052619D01*
X134294524Y-34100238D01*
X133913571Y-34100238D01*
X133818333Y-34052619D01*
X133770714Y-33957381D01*
X133770714Y-33766904D01*
X133818333Y-33671666D01*
X133913571Y-33624047D01*
X134008810Y-33624047D01*
X134104048Y-34100238D01*
X133770714Y-33290714D02*
X134437381Y-33052619D01*
X133770714Y-32814523D01*
X133437381Y-31481190D02*
X133437381Y-31385951D01*
X133485000Y-31290713D01*
X133532619Y-31243094D01*
X133627857Y-31195475D01*
X133818333Y-31147856D01*
X134056429Y-31147856D01*
X134246905Y-31195475D01*
X134342143Y-31243094D01*
X134389762Y-31290713D01*
X134437381Y-31385951D01*
X134437381Y-31481190D01*
X134389762Y-31576428D01*
X134342143Y-31624047D01*
X134246905Y-31671666D01*
X134056429Y-31719285D01*
X133818333Y-31719285D01*
X133627857Y-31671666D01*
X133532619Y-31624047D01*
X133485000Y-31576428D01*
X133437381Y-31481190D01*
X134532619Y-30957380D02*
X134532619Y-30195475D01*
X134437381Y-29433570D02*
X134437381Y-30004999D01*
X134437381Y-29719285D02*
X133437381Y-29719285D01*
X133580238Y-29814523D01*
X133675476Y-29909761D01*
X133723095Y-30004999D01*
D12*
X133350000Y-83820000D02*
X109220000Y-83820000D01*
X133350000Y-83820000D02*
X133350000Y-86360000D01*
X109220000Y-109220000D02*
X109220000Y-83820000D01*
X110490000Y-109220000D02*
X109220000Y-109220000D01*
X133350000Y-109220000D02*
X110490000Y-109220000D01*
X133350000Y-86360000D02*
X133350000Y-109220000D01*
D11*
X115345000Y-68645000D02*
X115680000Y-68645000D01*
X115345000Y-60895000D02*
X115680000Y-60895000D01*
X128495000Y-60895000D02*
X128160000Y-60895000D01*
X128495000Y-68645000D02*
X128160000Y-68645000D01*
X115345000Y-68645000D02*
X115345000Y-60895000D01*
X128495000Y-68645000D02*
X128495000Y-60895000D01*
X115680000Y-68645000D02*
X115680000Y-70445000D01*
X115345000Y-48325000D02*
X115680000Y-48325000D01*
X115345000Y-40575000D02*
X115680000Y-40575000D01*
X128495000Y-40575000D02*
X128160000Y-40575000D01*
X128495000Y-48325000D02*
X128160000Y-48325000D01*
X115345000Y-48325000D02*
X115345000Y-40575000D01*
X128495000Y-48325000D02*
X128495000Y-40575000D01*
X115680000Y-48325000D02*
X115680000Y-50125000D01*
X118075000Y-51720000D02*
X118075000Y-52420000D01*
X116875000Y-52420000D02*
X116875000Y-51720000D01*
X118075000Y-72040000D02*
X118075000Y-72740000D01*
X116875000Y-72740000D02*
X116875000Y-72040000D01*
X113310000Y-112750000D02*
X111760000Y-112750000D01*
X107950000Y-113030000D02*
X110490000Y-113030000D01*
X110490000Y-113030000D02*
X110490000Y-115570000D01*
X111760000Y-115850000D02*
X113310000Y-115850000D01*
X113310000Y-115850000D02*
X113310000Y-112750000D01*
X110490000Y-115570000D02*
X107950000Y-115570000D01*
X107950000Y-115570000D02*
X107950000Y-113030000D01*
X129084000Y-91030000D02*
X122884000Y-91030000D01*
X122884000Y-96930000D02*
X122884000Y-91030000D01*
X129084000Y-96930000D02*
X122884000Y-96930000D01*
X129084000Y-91030000D02*
X129084000Y-96930000D01*
X100330000Y-30480000D02*
X100330000Y-48260000D01*
X105410000Y-45720000D02*
X105410000Y-30480000D01*
X100330000Y-30480000D02*
X105410000Y-30480000D01*
X100330000Y-48260000D02*
X102870000Y-48260000D01*
X104140000Y-48540000D02*
X105690000Y-48540000D01*
X102870000Y-48260000D02*
X102870000Y-45720000D01*
X102870000Y-45720000D02*
X105410000Y-45720000D01*
X105690000Y-48540000D02*
X105690000Y-46990000D01*
X120610000Y-105402000D02*
X120610000Y-104402000D01*
X121960000Y-104402000D02*
X121960000Y-105402000D01*
X124595000Y-98385000D02*
X125595000Y-98385000D01*
X125595000Y-99735000D02*
X124595000Y-99735000D01*
X124595000Y-100290000D02*
X125595000Y-100290000D01*
X125595000Y-101640000D02*
X124595000Y-101640000D01*
X128651000Y-102235000D02*
X128651000Y-107315000D01*
X128651000Y-107315000D02*
X124079000Y-107315000D01*
X124079000Y-107315000D02*
X124079000Y-102235000D01*
X124079000Y-102235000D02*
X128651000Y-102235000D01*
X127127000Y-102235000D02*
X127127000Y-102743000D01*
X127127000Y-102743000D02*
X125857000Y-102743000D01*
X125857000Y-102743000D02*
X125857000Y-102235000D01*
X127570000Y-98425000D02*
X127570000Y-100965000D01*
X129602000Y-98425000D02*
X130110000Y-98425000D01*
X130110000Y-98425000D02*
X130110000Y-100965000D01*
X130110000Y-100965000D02*
X129602000Y-100965000D01*
X127189000Y-98425000D02*
X129729000Y-98425000D01*
X127189000Y-98425000D02*
X127189000Y-100965000D01*
X127189000Y-100965000D02*
X129729000Y-100965000D01*
X105410000Y-113030000D02*
X105410000Y-52070000D01*
X100330000Y-52070000D02*
X100330000Y-115570000D01*
X100330000Y-52070000D02*
X105410000Y-52070000D01*
X100330000Y-115570000D02*
X102870000Y-115570000D01*
X104140000Y-115850000D02*
X105690000Y-115850000D01*
X102870000Y-115570000D02*
X102870000Y-113030000D01*
X102870000Y-113030000D02*
X105410000Y-113030000D01*
X105690000Y-115850000D02*
X105690000Y-114300000D01*
X117895000Y-104910000D02*
X117895000Y-105910000D01*
X119595000Y-105910000D02*
X119595000Y-104910000D01*
X113411000Y-90678000D02*
X113411000Y-92202000D01*
X113538000Y-92583000D02*
X113538000Y-90297000D01*
X113665000Y-90043000D02*
X113665000Y-92837000D01*
X113792000Y-93091000D02*
X113792000Y-89789000D01*
X113919000Y-89662000D02*
X113919000Y-93218000D01*
X119380000Y-91440000D02*
G75*
G03X119380000Y-91440000I-3048000J0D01*
G01*
X113030000Y-88138000D02*
X113030000Y-94742000D01*
X113030000Y-94742000D02*
X118872000Y-94742000D01*
X118872000Y-94742000D02*
X119634000Y-93980000D01*
X119634000Y-93980000D02*
X119634000Y-88900000D01*
X119634000Y-88900000D02*
X118872000Y-88138000D01*
X118872000Y-88138000D02*
X113030000Y-88138000D01*
X118491000Y-91440000D02*
X117729000Y-91440000D01*
X118110000Y-91059000D02*
X118110000Y-91821000D01*
X113411000Y-98298000D02*
X113411000Y-99822000D01*
X113538000Y-100203000D02*
X113538000Y-97917000D01*
X113665000Y-97663000D02*
X113665000Y-100457000D01*
X113792000Y-100711000D02*
X113792000Y-97409000D01*
X113919000Y-97282000D02*
X113919000Y-100838000D01*
X119380000Y-99060000D02*
G75*
G03X119380000Y-99060000I-3048000J0D01*
G01*
X113030000Y-95758000D02*
X113030000Y-102362000D01*
X113030000Y-102362000D02*
X118872000Y-102362000D01*
X118872000Y-102362000D02*
X119634000Y-101600000D01*
X119634000Y-101600000D02*
X119634000Y-96520000D01*
X119634000Y-96520000D02*
X118872000Y-95758000D01*
X118872000Y-95758000D02*
X113030000Y-95758000D01*
X118491000Y-99060000D02*
X117729000Y-99060000D01*
X118110000Y-98679000D02*
X118110000Y-99441000D01*
X126365000Y-29210000D02*
X118745000Y-29210000D01*
X118745000Y-29210000D02*
X118745000Y-34290000D01*
X118745000Y-34290000D02*
X128905000Y-34290000D01*
X128905000Y-34290000D02*
X128905000Y-31750000D01*
X129185000Y-30480000D02*
X129185000Y-28930000D01*
X129185000Y-28930000D02*
X127635000Y-28930000D01*
X113872381Y-65531905D02*
X114681905Y-65531905D01*
X114777143Y-65484286D01*
X114824762Y-65436667D01*
X114872381Y-65341429D01*
X114872381Y-65150952D01*
X114824762Y-65055714D01*
X114777143Y-65008095D01*
X114681905Y-64960476D01*
X113872381Y-64960476D01*
X114872381Y-63960476D02*
X114872381Y-64531905D01*
X114872381Y-64246191D02*
X113872381Y-64246191D01*
X114015238Y-64341429D01*
X114110476Y-64436667D01*
X114158095Y-64531905D01*
X113872381Y-45211905D02*
X114681905Y-45211905D01*
X114777143Y-45164286D01*
X114824762Y-45116667D01*
X114872381Y-45021429D01*
X114872381Y-44830952D01*
X114824762Y-44735714D01*
X114777143Y-44688095D01*
X114681905Y-44640476D01*
X113872381Y-44640476D01*
X113967619Y-44211905D02*
X113920000Y-44164286D01*
X113872381Y-44069048D01*
X113872381Y-43830952D01*
X113920000Y-43735714D01*
X113967619Y-43688095D01*
X114062857Y-43640476D01*
X114158095Y-43640476D01*
X114300952Y-43688095D01*
X114872381Y-44259524D01*
X114872381Y-43640476D01*
X109768095Y-85494762D02*
X109910952Y-85542381D01*
X110149048Y-85542381D01*
X110244286Y-85494762D01*
X110291905Y-85447143D01*
X110339524Y-85351905D01*
X110339524Y-85256667D01*
X110291905Y-85161429D01*
X110244286Y-85113810D01*
X110149048Y-85066190D01*
X109958571Y-85018571D01*
X109863333Y-84970952D01*
X109815714Y-84923333D01*
X109768095Y-84828095D01*
X109768095Y-84732857D01*
X109815714Y-84637619D01*
X109863333Y-84590000D01*
X109958571Y-84542381D01*
X110196667Y-84542381D01*
X110339524Y-84590000D01*
X110768095Y-85542381D02*
X110768095Y-84542381D01*
X111196667Y-85542381D02*
X111196667Y-85018571D01*
X111149048Y-84923333D01*
X111053810Y-84875714D01*
X110910952Y-84875714D01*
X110815714Y-84923333D01*
X110768095Y-84970952D01*
X111672857Y-85542381D02*
X111672857Y-84875714D01*
X111672857Y-84542381D02*
X111625238Y-84590000D01*
X111672857Y-84637619D01*
X111720476Y-84590000D01*
X111672857Y-84542381D01*
X111672857Y-84637619D01*
X112530000Y-85494762D02*
X112434762Y-85542381D01*
X112244285Y-85542381D01*
X112149047Y-85494762D01*
X112101428Y-85399524D01*
X112101428Y-85018571D01*
X112149047Y-84923333D01*
X112244285Y-84875714D01*
X112434762Y-84875714D01*
X112530000Y-84923333D01*
X112577619Y-85018571D01*
X112577619Y-85113810D01*
X112101428Y-85209048D01*
X113149047Y-85542381D02*
X113053809Y-85494762D01*
X113006190Y-85399524D01*
X113006190Y-84542381D01*
X113958572Y-85542381D02*
X113958572Y-84542381D01*
X113958572Y-85494762D02*
X113863334Y-85542381D01*
X113672857Y-85542381D01*
X113577619Y-85494762D01*
X113530000Y-85447143D01*
X113482381Y-85351905D01*
X113482381Y-85066190D01*
X113530000Y-84970952D01*
X113577619Y-84923333D01*
X113672857Y-84875714D01*
X113863334Y-84875714D01*
X113958572Y-84923333D01*
X114434762Y-85542381D02*
X114434762Y-84875714D01*
X114434762Y-84542381D02*
X114387143Y-84590000D01*
X114434762Y-84637619D01*
X114482381Y-84590000D01*
X114434762Y-84542381D01*
X114434762Y-84637619D01*
X114910952Y-84875714D02*
X114910952Y-85542381D01*
X114910952Y-84970952D02*
X114958571Y-84923333D01*
X115053809Y-84875714D01*
X115196667Y-84875714D01*
X115291905Y-84923333D01*
X115339524Y-85018571D01*
X115339524Y-85542381D01*
X116244286Y-84875714D02*
X116244286Y-85685238D01*
X116196667Y-85780476D01*
X116149048Y-85828095D01*
X116053809Y-85875714D01*
X115910952Y-85875714D01*
X115815714Y-85828095D01*
X116244286Y-85494762D02*
X116149048Y-85542381D01*
X115958571Y-85542381D01*
X115863333Y-85494762D01*
X115815714Y-85447143D01*
X115768095Y-85351905D01*
X115768095Y-85066190D01*
X115815714Y-84970952D01*
X115863333Y-84923333D01*
X115958571Y-84875714D01*
X116149048Y-84875714D01*
X116244286Y-84923333D01*
X116562143Y-52236666D02*
X116609762Y-52284285D01*
X116657381Y-52427142D01*
X116657381Y-52522380D01*
X116609762Y-52665238D01*
X116514524Y-52760476D01*
X116419286Y-52808095D01*
X116228810Y-52855714D01*
X116085952Y-52855714D01*
X115895476Y-52808095D01*
X115800238Y-52760476D01*
X115705000Y-52665238D01*
X115657381Y-52522380D01*
X115657381Y-52427142D01*
X115705000Y-52284285D01*
X115752619Y-52236666D01*
X116657381Y-51284285D02*
X116657381Y-51855714D01*
X116657381Y-51570000D02*
X115657381Y-51570000D01*
X115800238Y-51665238D01*
X115895476Y-51760476D01*
X115943095Y-51855714D01*
X116562143Y-72556666D02*
X116609762Y-72604285D01*
X116657381Y-72747142D01*
X116657381Y-72842380D01*
X116609762Y-72985238D01*
X116514524Y-73080476D01*
X116419286Y-73128095D01*
X116228810Y-73175714D01*
X116085952Y-73175714D01*
X115895476Y-73128095D01*
X115800238Y-73080476D01*
X115705000Y-72985238D01*
X115657381Y-72842380D01*
X115657381Y-72747142D01*
X115705000Y-72604285D01*
X115752619Y-72556666D01*
X115657381Y-72223333D02*
X115657381Y-71604285D01*
X116038333Y-71937619D01*
X116038333Y-71794761D01*
X116085952Y-71699523D01*
X116133571Y-71651904D01*
X116228810Y-71604285D01*
X116466905Y-71604285D01*
X116562143Y-71651904D01*
X116609762Y-71699523D01*
X116657381Y-71794761D01*
X116657381Y-72080476D01*
X116609762Y-72175714D01*
X116562143Y-72223333D01*
X109656667Y-111212381D02*
X109656667Y-111926667D01*
X109609047Y-112069524D01*
X109513809Y-112164762D01*
X109370952Y-112212381D01*
X109275714Y-112212381D01*
X110132857Y-112212381D02*
X110132857Y-111212381D01*
X110513810Y-111212381D01*
X110609048Y-111260000D01*
X110656667Y-111307619D01*
X110704286Y-111402857D01*
X110704286Y-111545714D01*
X110656667Y-111640952D01*
X110609048Y-111688571D01*
X110513810Y-111736190D01*
X110132857Y-111736190D01*
X111656667Y-112212381D02*
X111085238Y-112212381D01*
X111370952Y-112212381D02*
X111370952Y-111212381D01*
X111275714Y-111355238D01*
X111180476Y-111450476D01*
X111085238Y-111498095D01*
X125817334Y-90749381D02*
X125341143Y-90749381D01*
X125341143Y-89749381D01*
X126674477Y-90749381D02*
X126103048Y-90749381D01*
X126388762Y-90749381D02*
X126388762Y-89749381D01*
X126293524Y-89892238D01*
X126198286Y-89987476D01*
X126103048Y-90035095D01*
X102131905Y-49347381D02*
X102131905Y-48347381D01*
X102512858Y-48347381D01*
X102608096Y-48395000D01*
X102655715Y-48442619D01*
X102703334Y-48537857D01*
X102703334Y-48680714D01*
X102655715Y-48775952D01*
X102608096Y-48823571D01*
X102512858Y-48871190D01*
X102131905Y-48871190D01*
X103036667Y-48347381D02*
X103655715Y-48347381D01*
X103322381Y-48728333D01*
X103465239Y-48728333D01*
X103560477Y-48775952D01*
X103608096Y-48823571D01*
X103655715Y-48918810D01*
X103655715Y-49156905D01*
X103608096Y-49252143D01*
X103560477Y-49299762D01*
X103465239Y-49347381D01*
X103179524Y-49347381D01*
X103084286Y-49299762D01*
X103036667Y-49252143D01*
X107132381Y-39703095D02*
X106132381Y-39703095D01*
X107132381Y-39226905D02*
X106132381Y-39226905D01*
X107132381Y-38655476D01*
X106132381Y-38655476D01*
X107132381Y-38179286D02*
X106132381Y-38179286D01*
X107132381Y-37607857D02*
X106560952Y-38036429D01*
X106132381Y-37607857D02*
X106703810Y-38179286D01*
X106132381Y-36893571D02*
X106846667Y-36893571D01*
X106989524Y-36941191D01*
X107084762Y-37036429D01*
X107132381Y-37179286D01*
X107132381Y-37274524D01*
X106608571Y-36417381D02*
X106608571Y-36084047D01*
X107132381Y-35941190D02*
X107132381Y-36417381D01*
X106132381Y-36417381D01*
X106132381Y-35941190D01*
X106132381Y-35655476D02*
X106132381Y-35084047D01*
X107132381Y-35369762D02*
X106132381Y-35369762D01*
X120483334Y-103322381D02*
X120150000Y-102846190D01*
X119911905Y-103322381D02*
X119911905Y-102322381D01*
X120292858Y-102322381D01*
X120388096Y-102370000D01*
X120435715Y-102417619D01*
X120483334Y-102512857D01*
X120483334Y-102655714D01*
X120435715Y-102750952D01*
X120388096Y-102798571D01*
X120292858Y-102846190D01*
X119911905Y-102846190D01*
X121435715Y-103322381D02*
X120864286Y-103322381D01*
X121150000Y-103322381D02*
X121150000Y-102322381D01*
X121054762Y-102465238D01*
X120959524Y-102560476D01*
X120864286Y-102608095D01*
X122388334Y-99258381D02*
X122055000Y-98782190D01*
X121816905Y-99258381D02*
X121816905Y-98258381D01*
X122197858Y-98258381D01*
X122293096Y-98306000D01*
X122340715Y-98353619D01*
X122388334Y-98448857D01*
X122388334Y-98591714D01*
X122340715Y-98686952D01*
X122293096Y-98734571D01*
X122197858Y-98782190D01*
X121816905Y-98782190D01*
X122769286Y-98353619D02*
X122816905Y-98306000D01*
X122912143Y-98258381D01*
X123150239Y-98258381D01*
X123245477Y-98306000D01*
X123293096Y-98353619D01*
X123340715Y-98448857D01*
X123340715Y-98544095D01*
X123293096Y-98686952D01*
X122721667Y-99258381D01*
X123340715Y-99258381D01*
X122388334Y-101417381D02*
X122055000Y-100941190D01*
X121816905Y-101417381D02*
X121816905Y-100417381D01*
X122197858Y-100417381D01*
X122293096Y-100465000D01*
X122340715Y-100512619D01*
X122388334Y-100607857D01*
X122388334Y-100750714D01*
X122340715Y-100845952D01*
X122293096Y-100893571D01*
X122197858Y-100941190D01*
X121816905Y-100941190D01*
X122721667Y-100417381D02*
X123340715Y-100417381D01*
X123007381Y-100798333D01*
X123150239Y-100798333D01*
X123245477Y-100845952D01*
X123293096Y-100893571D01*
X123340715Y-100988810D01*
X123340715Y-101226905D01*
X123293096Y-101322143D01*
X123245477Y-101369762D01*
X123150239Y-101417381D01*
X122864524Y-101417381D01*
X122769286Y-101369762D01*
X122721667Y-101322143D01*
X125730095Y-107529381D02*
X125730095Y-108338905D01*
X125777714Y-108434143D01*
X125825333Y-108481762D01*
X125920571Y-108529381D01*
X126111048Y-108529381D01*
X126206286Y-108481762D01*
X126253905Y-108434143D01*
X126301524Y-108338905D01*
X126301524Y-107529381D01*
X126682476Y-107529381D02*
X127301524Y-107529381D01*
X126968190Y-107910333D01*
X127111048Y-107910333D01*
X127206286Y-107957952D01*
X127253905Y-108005571D01*
X127301524Y-108100810D01*
X127301524Y-108338905D01*
X127253905Y-108434143D01*
X127206286Y-108481762D01*
X127111048Y-108529381D01*
X126825333Y-108529381D01*
X126730095Y-108481762D01*
X126682476Y-108434143D01*
X130706905Y-100147381D02*
X130706905Y-99147381D01*
X130945000Y-99147381D01*
X131087858Y-99195000D01*
X131183096Y-99290238D01*
X131230715Y-99385476D01*
X131278334Y-99575952D01*
X131278334Y-99718810D01*
X131230715Y-99909286D01*
X131183096Y-100004524D01*
X131087858Y-100099762D01*
X130945000Y-100147381D01*
X130706905Y-100147381D01*
X132230715Y-100147381D02*
X131659286Y-100147381D01*
X131945000Y-100147381D02*
X131945000Y-99147381D01*
X131849762Y-99290238D01*
X131754524Y-99385476D01*
X131659286Y-99433095D01*
X105941905Y-54427381D02*
X105941905Y-53427381D01*
X106322858Y-53427381D01*
X106418096Y-53475000D01*
X106465715Y-53522619D01*
X106513334Y-53617857D01*
X106513334Y-53760714D01*
X106465715Y-53855952D01*
X106418096Y-53903571D01*
X106322858Y-53951190D01*
X105941905Y-53951190D01*
X107465715Y-54427381D02*
X106894286Y-54427381D01*
X107180000Y-54427381D02*
X107180000Y-53427381D01*
X107084762Y-53570238D01*
X106989524Y-53665476D01*
X106894286Y-53713095D01*
X106608571Y-89692857D02*
X106608571Y-89359523D01*
X107132381Y-89216666D02*
X107132381Y-89692857D01*
X106132381Y-89692857D01*
X106132381Y-89216666D01*
X106132381Y-88883333D02*
X107132381Y-88216666D01*
X106132381Y-88216666D02*
X107132381Y-88883333D01*
X107132381Y-87835714D02*
X106132381Y-87835714D01*
X106132381Y-87454761D01*
X106180000Y-87359523D01*
X106227619Y-87311904D01*
X106322857Y-87264285D01*
X106465714Y-87264285D01*
X106560952Y-87311904D01*
X106608571Y-87359523D01*
X106656190Y-87454761D01*
X106656190Y-87835714D01*
X106846667Y-86883333D02*
X106846667Y-86407142D01*
X107132381Y-86978571D02*
X106132381Y-86645238D01*
X107132381Y-86311904D01*
X107132381Y-85978571D02*
X106132381Y-85978571D01*
X107132381Y-85407142D01*
X106132381Y-85407142D01*
X107084762Y-84978571D02*
X107132381Y-84835714D01*
X107132381Y-84597618D01*
X107084762Y-84502380D01*
X107037143Y-84454761D01*
X106941905Y-84407142D01*
X106846667Y-84407142D01*
X106751429Y-84454761D01*
X106703810Y-84502380D01*
X106656190Y-84597618D01*
X106608571Y-84788095D01*
X106560952Y-84883333D01*
X106513333Y-84930952D01*
X106418095Y-84978571D01*
X106322857Y-84978571D01*
X106227619Y-84930952D01*
X106180000Y-84883333D01*
X106132381Y-84788095D01*
X106132381Y-84549999D01*
X106180000Y-84407142D01*
X107132381Y-83978571D02*
X106132381Y-83978571D01*
X106132381Y-83311905D02*
X106132381Y-83121428D01*
X106180000Y-83026190D01*
X106275238Y-82930952D01*
X106465714Y-82883333D01*
X106799048Y-82883333D01*
X106989524Y-82930952D01*
X107084762Y-83026190D01*
X107132381Y-83121428D01*
X107132381Y-83311905D01*
X107084762Y-83407143D01*
X106989524Y-83502381D01*
X106799048Y-83550000D01*
X106465714Y-83550000D01*
X106275238Y-83502381D01*
X106180000Y-83407143D01*
X106132381Y-83311905D01*
X107132381Y-82454762D02*
X106132381Y-82454762D01*
X107132381Y-81883333D01*
X106132381Y-81883333D01*
X107227619Y-81645238D02*
X107227619Y-80883333D01*
X107132381Y-80645238D02*
X106132381Y-80645238D01*
X106608571Y-80645238D02*
X106608571Y-80073809D01*
X107132381Y-80073809D02*
X106132381Y-80073809D01*
X106608571Y-79597619D02*
X106608571Y-79264285D01*
X107132381Y-79121428D02*
X107132381Y-79597619D01*
X106132381Y-79597619D01*
X106132381Y-79121428D01*
X106846667Y-78740476D02*
X106846667Y-78264285D01*
X107132381Y-78835714D02*
X106132381Y-78502381D01*
X107132381Y-78169047D01*
X107132381Y-77835714D02*
X106132381Y-77835714D01*
X106132381Y-77597619D01*
X106180000Y-77454761D01*
X106275238Y-77359523D01*
X106370476Y-77311904D01*
X106560952Y-77264285D01*
X106703810Y-77264285D01*
X106894286Y-77311904D01*
X106989524Y-77359523D01*
X107084762Y-77454761D01*
X107132381Y-77597619D01*
X107132381Y-77835714D01*
X106608571Y-76835714D02*
X106608571Y-76502380D01*
X107132381Y-76359523D02*
X107132381Y-76835714D01*
X106132381Y-76835714D01*
X106132381Y-76359523D01*
X107132381Y-75359523D02*
X106656190Y-75692857D01*
X107132381Y-75930952D02*
X106132381Y-75930952D01*
X106132381Y-75549999D01*
X106180000Y-75454761D01*
X106227619Y-75407142D01*
X106322857Y-75359523D01*
X106465714Y-75359523D01*
X106560952Y-75407142D01*
X106608571Y-75454761D01*
X106656190Y-75549999D01*
X106656190Y-75930952D01*
X116673334Y-105640143D02*
X116625715Y-105687762D01*
X116482858Y-105735381D01*
X116387620Y-105735381D01*
X116244762Y-105687762D01*
X116149524Y-105592524D01*
X116101905Y-105497286D01*
X116054286Y-105306810D01*
X116054286Y-105163952D01*
X116101905Y-104973476D01*
X116149524Y-104878238D01*
X116244762Y-104783000D01*
X116387620Y-104735381D01*
X116482858Y-104735381D01*
X116625715Y-104783000D01*
X116673334Y-104830619D01*
X117054286Y-104830619D02*
X117101905Y-104783000D01*
X117197143Y-104735381D01*
X117435239Y-104735381D01*
X117530477Y-104783000D01*
X117578096Y-104830619D01*
X117625715Y-104925857D01*
X117625715Y-105021095D01*
X117578096Y-105163952D01*
X117006667Y-105735381D01*
X117625715Y-105735381D01*
X111593334Y-93829143D02*
X111545715Y-93876762D01*
X111402858Y-93924381D01*
X111307620Y-93924381D01*
X111164762Y-93876762D01*
X111069524Y-93781524D01*
X111021905Y-93686286D01*
X110974286Y-93495810D01*
X110974286Y-93352952D01*
X111021905Y-93162476D01*
X111069524Y-93067238D01*
X111164762Y-92972000D01*
X111307620Y-92924381D01*
X111402858Y-92924381D01*
X111545715Y-92972000D01*
X111593334Y-93019619D01*
X112450477Y-93257714D02*
X112450477Y-93924381D01*
X112212381Y-92876762D02*
X111974286Y-93591048D01*
X112593334Y-93591048D01*
X111593334Y-101449143D02*
X111545715Y-101496762D01*
X111402858Y-101544381D01*
X111307620Y-101544381D01*
X111164762Y-101496762D01*
X111069524Y-101401524D01*
X111021905Y-101306286D01*
X110974286Y-101115810D01*
X110974286Y-100972952D01*
X111021905Y-100782476D01*
X111069524Y-100687238D01*
X111164762Y-100592000D01*
X111307620Y-100544381D01*
X111402858Y-100544381D01*
X111545715Y-100592000D01*
X111593334Y-100639619D01*
X112498096Y-100544381D02*
X112021905Y-100544381D01*
X111974286Y-101020571D01*
X112021905Y-100972952D01*
X112117143Y-100925333D01*
X112355239Y-100925333D01*
X112450477Y-100972952D01*
X112498096Y-101020571D01*
X112545715Y-101115810D01*
X112545715Y-101353905D01*
X112498096Y-101449143D01*
X112450477Y-101496762D01*
X112355239Y-101544381D01*
X112117143Y-101544381D01*
X112021905Y-101496762D01*
X111974286Y-101449143D01*
X129436905Y-32202381D02*
X129436905Y-31202381D01*
X129817858Y-31202381D01*
X129913096Y-31250000D01*
X129960715Y-31297619D01*
X130008334Y-31392857D01*
X130008334Y-31535714D01*
X129960715Y-31630952D01*
X129913096Y-31678571D01*
X129817858Y-31726190D01*
X129436905Y-31726190D01*
X130389286Y-31297619D02*
X130436905Y-31250000D01*
X130532143Y-31202381D01*
X130770239Y-31202381D01*
X130865477Y-31250000D01*
X130913096Y-31297619D01*
X130960715Y-31392857D01*
X130960715Y-31488095D01*
X130913096Y-31630952D01*
X130341667Y-32202381D01*
X130960715Y-32202381D01*
M02*
