G04 #@! TF.FileFunction,Copper,L1,Top,Signal*
%FSLAX46Y46*%
G04 Gerber Fmt 4.6, Leading zero omitted, Abs format (unit mm)*
G04 Created by KiCad (PCBNEW 0.201506122246+5743~23~ubuntu14.04.1-product) date Mon 13 Jul 2015 15:09:56 BST*
%MOMM*%
G01*
G04 APERTURE LIST*
%ADD10C,0.100000*%
%ADD11R,0.600000X1.950000*%
%ADD12C,3.500000*%
%ADD13R,0.750000X0.800000*%
%ADD14R,2.032000X2.032000*%
%ADD15O,2.032000X2.032000*%
%ADD16R,1.700000X2.200000*%
%ADD17R,1.727200X1.727200*%
%ADD18O,1.727200X1.727200*%
%ADD19R,0.900000X0.500000*%
%ADD20R,0.500000X0.900000*%
%ADD21R,1.143000X0.508000*%
%ADD22R,2.670000X2.540000*%
%ADD23R,0.762000X1.270000*%
%ADD24R,1.250000X1.000000*%
%ADD25R,3.599180X1.600200*%
%ADD26C,0.600000*%
%ADD27C,0.250000*%
%ADD28C,0.750000*%
%ADD29C,0.500000*%
%ADD30C,0.254000*%
G04 APERTURE END LIST*
D10*
D11*
X116205000Y-69470000D03*
X117475000Y-69470000D03*
X118745000Y-69470000D03*
X120015000Y-69470000D03*
X121285000Y-69470000D03*
X122555000Y-69470000D03*
X123825000Y-69470000D03*
X125095000Y-69470000D03*
X126365000Y-69470000D03*
X127635000Y-69470000D03*
X127635000Y-60070000D03*
X126365000Y-60070000D03*
X125095000Y-60070000D03*
X123825000Y-60070000D03*
X122555000Y-60070000D03*
X121285000Y-60070000D03*
X120015000Y-60070000D03*
X118745000Y-60070000D03*
X117475000Y-60070000D03*
X116205000Y-60070000D03*
X116205000Y-49150000D03*
X117475000Y-49150000D03*
X118745000Y-49150000D03*
X120015000Y-49150000D03*
X121285000Y-49150000D03*
X122555000Y-49150000D03*
X123825000Y-49150000D03*
X125095000Y-49150000D03*
X126365000Y-49150000D03*
X127635000Y-49150000D03*
X127635000Y-39750000D03*
X126365000Y-39750000D03*
X125095000Y-39750000D03*
X123825000Y-39750000D03*
X122555000Y-39750000D03*
X121285000Y-39750000D03*
X120015000Y-39750000D03*
X118745000Y-39750000D03*
X117475000Y-39750000D03*
X116205000Y-39750000D03*
D12*
X121285000Y-83820000D03*
D13*
X117475000Y-51320000D03*
X117475000Y-52820000D03*
X117475000Y-71640000D03*
X117475000Y-73140000D03*
D14*
X111760000Y-114300000D03*
D15*
X109220000Y-114300000D03*
D16*
X128634000Y-93980000D03*
X123334000Y-93980000D03*
D17*
X104140000Y-46990000D03*
D18*
X101600000Y-46990000D03*
X104140000Y-44450000D03*
X101600000Y-44450000D03*
X104140000Y-41910000D03*
X101600000Y-41910000D03*
X104140000Y-39370000D03*
X101600000Y-39370000D03*
X104140000Y-36830000D03*
X101600000Y-36830000D03*
X104140000Y-34290000D03*
X101600000Y-34290000D03*
X104140000Y-31750000D03*
X101600000Y-31750000D03*
D19*
X121285000Y-104152000D03*
X121285000Y-105652000D03*
D20*
X125845000Y-99060000D03*
X124345000Y-99060000D03*
X125845000Y-100965000D03*
X124345000Y-100965000D03*
D21*
X129540000Y-102870000D03*
X129540000Y-104140000D03*
X129540000Y-105410000D03*
X129540000Y-106680000D03*
X123190000Y-106680000D03*
X123190000Y-105410000D03*
X123190000Y-104140000D03*
X123190000Y-102870000D03*
D22*
X127824000Y-99695000D03*
D23*
X130175000Y-99695000D03*
D17*
X104140000Y-114300000D03*
D18*
X101600000Y-114300000D03*
X104140000Y-111760000D03*
X101600000Y-111760000D03*
X104140000Y-109220000D03*
X101600000Y-109220000D03*
X104140000Y-106680000D03*
X101600000Y-106680000D03*
X104140000Y-104140000D03*
X101600000Y-104140000D03*
X104140000Y-101600000D03*
X101600000Y-101600000D03*
X104140000Y-99060000D03*
X101600000Y-99060000D03*
X104140000Y-96520000D03*
X101600000Y-96520000D03*
X104140000Y-93980000D03*
X101600000Y-93980000D03*
X104140000Y-91440000D03*
X101600000Y-91440000D03*
X104140000Y-88900000D03*
X101600000Y-88900000D03*
X104140000Y-86360000D03*
X101600000Y-86360000D03*
X104140000Y-83820000D03*
X101600000Y-83820000D03*
X104140000Y-81280000D03*
X101600000Y-81280000D03*
X104140000Y-78740000D03*
X101600000Y-78740000D03*
X104140000Y-76200000D03*
X101600000Y-76200000D03*
X104140000Y-73660000D03*
X101600000Y-73660000D03*
X104140000Y-71120000D03*
X101600000Y-71120000D03*
X104140000Y-68580000D03*
X101600000Y-68580000D03*
X104140000Y-66040000D03*
X101600000Y-66040000D03*
X104140000Y-63500000D03*
X101600000Y-63500000D03*
X104140000Y-60960000D03*
X101600000Y-60960000D03*
X104140000Y-58420000D03*
X101600000Y-58420000D03*
X104140000Y-55880000D03*
X101600000Y-55880000D03*
X104140000Y-53340000D03*
X101600000Y-53340000D03*
D24*
X118745000Y-106410000D03*
X118745000Y-104410000D03*
D25*
X119082820Y-91440000D03*
X113581180Y-91440000D03*
X119082820Y-99060000D03*
X113581180Y-99060000D03*
D12*
X121285000Y-109220000D03*
D17*
X127635000Y-30480000D03*
D18*
X127635000Y-33020000D03*
X125095000Y-30480000D03*
X125095000Y-33020000D03*
X122555000Y-30480000D03*
X122555000Y-33020000D03*
X120015000Y-30480000D03*
X120015000Y-33020000D03*
D26*
X130810000Y-102870000D03*
X110490000Y-99060000D03*
X110490000Y-91440000D03*
X130810000Y-105410000D03*
X118745000Y-103505000D03*
X121920000Y-102870000D03*
X123190000Y-100965000D03*
X129540000Y-39751000D03*
X118745000Y-52832000D03*
X118745000Y-73025000D03*
X117475000Y-58420000D03*
X117475000Y-38100000D03*
X127635000Y-50800000D03*
X127635000Y-71120000D03*
X127635000Y-62230000D03*
X130810000Y-30480000D03*
X116840000Y-30480000D03*
X132080000Y-55245000D03*
X128905000Y-55245000D03*
X112395000Y-50800000D03*
X105410000Y-50800000D03*
X133350000Y-40005000D03*
X133350000Y-34925000D03*
X120015000Y-56515000D03*
X120015000Y-52070000D03*
X127635000Y-53975000D03*
X130810000Y-59055000D03*
X125095000Y-75565000D03*
X121920000Y-72390000D03*
X118110000Y-110490000D03*
X124460000Y-110490000D03*
X133350000Y-107950000D03*
X133350000Y-105410000D03*
X133350000Y-95250000D03*
X133350000Y-92710000D03*
X133350000Y-88900000D03*
X131445000Y-86995000D03*
X125095000Y-52070000D03*
X129540000Y-60960000D03*
X125095000Y-71120000D03*
X125095000Y-73660000D03*
X130810000Y-60325000D03*
X126365000Y-52070000D03*
X122555000Y-66040000D03*
X114300000Y-68580000D03*
X122555000Y-64770000D03*
X113030000Y-67945000D03*
D27*
X129540000Y-102870000D02*
X130810000Y-102870000D01*
D28*
X113581180Y-99060000D02*
X110490000Y-99060000D01*
X113581180Y-91440000D02*
X110490000Y-91440000D01*
D27*
X129540000Y-105410000D02*
X130810000Y-105410000D01*
D29*
X118745000Y-104410000D02*
X118745000Y-103505000D01*
D27*
X123190000Y-102870000D02*
X121920000Y-102870000D01*
X124345000Y-100965000D02*
X123190000Y-100965000D01*
D28*
X113581180Y-91440000D02*
X114580670Y-91440000D01*
D29*
X129539000Y-39750000D02*
X129540000Y-39751000D01*
X127635000Y-39750000D02*
X129539000Y-39750000D01*
X118733000Y-52820000D02*
X118745000Y-52832000D01*
X117475000Y-52820000D02*
X118733000Y-52820000D01*
X118630000Y-73140000D02*
X118745000Y-73025000D01*
X117475000Y-73140000D02*
X118630000Y-73140000D01*
X117475000Y-60070000D02*
X117475000Y-58420000D01*
X117475000Y-39750000D02*
X117475000Y-38100000D01*
X127635000Y-49150000D02*
X127635000Y-50800000D01*
X127635000Y-69470000D02*
X127635000Y-71120000D01*
X127635000Y-60070000D02*
X127635000Y-62230000D01*
D28*
X120015000Y-30480000D02*
X130810000Y-30480000D01*
X120015000Y-30480000D02*
X116840000Y-30480000D01*
X128905000Y-55245000D02*
X114935000Y-55245000D01*
X114935000Y-55245000D02*
X112395000Y-52705000D01*
X112395000Y-52705000D02*
X112395000Y-50800000D01*
X133350000Y-55885607D02*
X133350000Y-55193109D01*
X133350000Y-55193109D02*
X133350000Y-40399990D01*
X132080000Y-55245000D02*
X133298109Y-55245000D01*
X133298109Y-55245000D02*
X133350000Y-55193109D01*
X133350000Y-86995000D02*
X133350000Y-55885607D01*
X133344393Y-55880000D02*
X133350000Y-55885607D01*
X101600000Y-46990000D02*
X101600000Y-48211314D01*
X101600000Y-48211314D02*
X104188686Y-50800000D01*
X104188686Y-50800000D02*
X105410000Y-50800000D01*
X119082820Y-91440000D02*
X119082820Y-99060000D01*
X127824000Y-97675000D02*
X127304000Y-97155000D01*
X127824000Y-99695000D02*
X127824000Y-97675000D01*
X121632410Y-99060000D02*
X119082820Y-99060000D01*
X123537410Y-97155000D02*
X121632410Y-99060000D01*
X127304000Y-97155000D02*
X123537410Y-97155000D01*
D27*
X127189000Y-99060000D02*
X127824000Y-99695000D01*
X125845000Y-99060000D02*
X127189000Y-99060000D01*
D28*
X119082820Y-89889900D02*
X120072720Y-88900000D01*
X119082820Y-91440000D02*
X119082820Y-89889900D01*
X120072720Y-88900000D02*
X131445000Y-88900000D01*
X131445000Y-88900000D02*
X133350000Y-86995000D01*
X133350000Y-40399990D02*
X133350000Y-40005000D01*
X133350000Y-34925000D02*
X131445000Y-33020000D01*
X131445000Y-33020000D02*
X127635000Y-33020000D01*
X127635000Y-33020000D02*
X125095000Y-33020000D01*
D27*
X107315000Y-60826230D02*
X107315000Y-63500000D01*
X107315000Y-63500000D02*
X109220000Y-65405000D01*
X121285000Y-68795000D02*
X121285000Y-69470000D01*
X109220000Y-65405000D02*
X117895000Y-65405000D01*
X117895000Y-65405000D02*
X121285000Y-68795000D01*
X107315000Y-46355000D02*
X105410000Y-44450000D01*
X105410000Y-44450000D02*
X104140000Y-44450000D01*
X107315000Y-60826230D02*
X107315000Y-46355000D01*
X107315000Y-60960000D02*
X107315000Y-60826230D01*
X120015000Y-69470000D02*
X120015000Y-68795000D01*
X117260000Y-66040000D02*
X108585000Y-66040000D01*
X120015000Y-68795000D02*
X117260000Y-66040000D01*
X108585000Y-66040000D02*
X106680000Y-64135000D01*
X106680000Y-64135000D02*
X106680000Y-50165000D01*
X102870000Y-45720000D02*
X101600000Y-44450000D01*
X106680000Y-50165000D02*
X105410000Y-48895000D01*
X105410000Y-48895000D02*
X103732798Y-48895000D01*
X103732798Y-48895000D02*
X102870000Y-48032202D01*
X102870000Y-48032202D02*
X102870000Y-45720000D01*
X123825000Y-68580000D02*
X123825000Y-69470000D01*
X122885474Y-67640474D02*
X123190000Y-67945000D01*
X119380000Y-64135000D02*
X122885474Y-67640474D01*
X122885474Y-67640474D02*
X123825000Y-68580000D01*
X123825000Y-69470000D02*
X123825000Y-68795000D01*
X104140000Y-41910000D02*
X105361314Y-41910000D01*
X105361314Y-41910000D02*
X108585000Y-45133686D01*
X108585000Y-45133686D02*
X108585000Y-62230000D01*
X110490000Y-64135000D02*
X119380000Y-64135000D01*
X108585000Y-62230000D02*
X110490000Y-64135000D01*
X101600000Y-41910000D02*
X102870000Y-43180000D01*
X102870000Y-43180000D02*
X105410000Y-43180000D01*
X105410000Y-43180000D02*
X107950000Y-45720000D01*
X107950000Y-62865000D02*
X109855000Y-64770000D01*
X107950000Y-45720000D02*
X107950000Y-62865000D01*
X109855000Y-64770000D02*
X118530000Y-64770000D01*
X118530000Y-64770000D02*
X122555000Y-68795000D01*
X122555000Y-68795000D02*
X122555000Y-69470000D01*
X104140000Y-39370000D02*
X105410000Y-39370000D01*
X105410000Y-39370000D02*
X109855000Y-43815000D01*
X120650000Y-62865000D02*
X122555000Y-60960000D01*
X109855000Y-43815000D02*
X109855000Y-60960000D01*
X109855000Y-60960000D02*
X111760000Y-62865000D01*
X111760000Y-62865000D02*
X120650000Y-62865000D01*
X122555000Y-60960000D02*
X122555000Y-60070000D01*
X122555000Y-60070000D02*
X122555000Y-60745000D01*
X101600000Y-39370000D02*
X102870000Y-40640000D01*
X102870000Y-40640000D02*
X105410000Y-40640000D01*
X105410000Y-40640000D02*
X109220000Y-44450000D01*
X109220000Y-61595000D02*
X111125000Y-63500000D01*
X109220000Y-44450000D02*
X109220000Y-61595000D01*
X111125000Y-63500000D02*
X121285000Y-63500000D01*
X121285000Y-63500000D02*
X123825000Y-60960000D01*
X123825000Y-60960000D02*
X123825000Y-60070000D01*
X123825000Y-60745000D02*
X123825000Y-60070000D01*
X104140000Y-36830000D02*
X105410000Y-36830000D01*
X105410000Y-36830000D02*
X111125000Y-42545000D01*
X111125000Y-42545000D02*
X111125000Y-59690000D01*
X111125000Y-59690000D02*
X113030000Y-61595000D01*
X120015000Y-60960000D02*
X120015000Y-60070000D01*
X113030000Y-61595000D02*
X119380000Y-61595000D01*
X119380000Y-61595000D02*
X120015000Y-60960000D01*
X120015000Y-60070000D02*
X120015000Y-60745000D01*
X101600000Y-36830000D02*
X102870000Y-38100000D01*
X102870000Y-38100000D02*
X105410000Y-38100000D01*
X105410000Y-38100000D02*
X110490000Y-43180000D01*
X110490000Y-43180000D02*
X110490000Y-60325000D01*
X110490000Y-60325000D02*
X112395000Y-62230000D01*
X112395000Y-62230000D02*
X120015000Y-62230000D01*
X120015000Y-62230000D02*
X121285000Y-60960000D01*
X121285000Y-60960000D02*
X121285000Y-60070000D01*
X121285000Y-60070000D02*
X121285000Y-60745000D01*
X104140000Y-34290000D02*
X105410000Y-34290000D01*
X105410000Y-34290000D02*
X115570000Y-44450000D01*
X115570000Y-44450000D02*
X120015000Y-44450000D01*
X120015000Y-44450000D02*
X121285000Y-45720000D01*
X121285000Y-45720000D02*
X121285000Y-49150000D01*
X120015000Y-49150000D02*
X120015000Y-45720000D01*
X120015000Y-45720000D02*
X119380000Y-45085000D01*
X119380000Y-45085000D02*
X114935000Y-45085000D01*
X114935000Y-45085000D02*
X105410000Y-35560000D01*
X105410000Y-35560000D02*
X102870000Y-35560000D01*
X102870000Y-35560000D02*
X102463599Y-35153599D01*
X102463599Y-35153599D02*
X101600000Y-34290000D01*
X104140000Y-31750000D02*
X105410000Y-31750000D01*
X105410000Y-31750000D02*
X116840000Y-43180000D01*
X116840000Y-43180000D02*
X121285000Y-43180000D01*
X121285000Y-43180000D02*
X123825000Y-45720000D01*
X123825000Y-45720000D02*
X123825000Y-49150000D01*
X122555000Y-45720000D02*
X122555000Y-46355000D01*
X120650000Y-43815000D02*
X122555000Y-45720000D01*
X116205000Y-43815000D02*
X120650000Y-43815000D01*
X105410000Y-33020000D02*
X116205000Y-43815000D01*
X101600000Y-31750000D02*
X102870000Y-33020000D01*
X102870000Y-33020000D02*
X105410000Y-33020000D01*
X122555000Y-46355000D02*
X122555000Y-49150000D01*
X118745000Y-57785000D02*
X118745000Y-60070000D01*
X120015000Y-56515000D02*
X118745000Y-57785000D01*
X118745000Y-49825000D02*
X118745000Y-50800000D01*
X118745000Y-50800000D02*
X120015000Y-52070000D01*
X118745000Y-49150000D02*
X118745000Y-49825000D01*
D29*
X117475000Y-51320000D02*
X116320000Y-51320000D01*
X116320000Y-51320000D02*
X115570000Y-52070000D01*
X115570000Y-52070000D02*
X115570000Y-53340000D01*
X115570000Y-53340000D02*
X116205000Y-53975000D01*
X116205000Y-53975000D02*
X124460000Y-53975000D01*
X124460000Y-53975000D02*
X127635000Y-53975000D01*
X132080000Y-75535562D02*
X132080000Y-60325000D01*
X132080000Y-60325000D02*
X130810000Y-59055000D01*
X132080000Y-86360000D02*
X132080000Y-75535562D01*
X132050562Y-75565000D02*
X132080000Y-75535562D01*
X125095000Y-75565000D02*
X132050562Y-75565000D01*
X117475000Y-71640000D02*
X121170000Y-71640000D01*
X121170000Y-71640000D02*
X121920000Y-72390000D01*
X109313600Y-110490000D02*
X118110000Y-110490000D01*
X105503600Y-114300000D02*
X109313600Y-110490000D01*
X104140000Y-114300000D02*
X105503600Y-114300000D01*
X124460000Y-110490000D02*
X131445000Y-110490000D01*
X131445000Y-110490000D02*
X133350000Y-108585000D01*
X133350000Y-108585000D02*
X133350000Y-107950000D01*
X133350000Y-105410000D02*
X133350000Y-95250000D01*
X133350000Y-92710000D02*
X133350000Y-88900000D01*
X131445000Y-86995000D02*
X132080000Y-86360000D01*
X117475000Y-69470000D02*
X117475000Y-71640000D01*
X117475000Y-49150000D02*
X117475000Y-51320000D01*
D27*
X121285000Y-106152000D02*
X121285000Y-105652000D01*
X121027000Y-106410000D02*
X121285000Y-106152000D01*
X118745000Y-106410000D02*
X121027000Y-106410000D01*
D29*
X129540000Y-104140000D02*
X131445000Y-104140000D01*
X131445000Y-104140000D02*
X132080000Y-103505000D01*
X132080000Y-103505000D02*
X132080000Y-100330000D01*
X131445000Y-99695000D02*
X130175000Y-99695000D01*
X132080000Y-100330000D02*
X131445000Y-99695000D01*
D28*
X123334000Y-94230000D02*
X123334000Y-93980000D01*
X124989000Y-95885000D02*
X123334000Y-94230000D01*
X127750000Y-95885000D02*
X124989000Y-95885000D01*
X130175000Y-98310000D02*
X127750000Y-95885000D01*
X130175000Y-99695000D02*
X130175000Y-98310000D01*
X111760000Y-112534000D02*
X112534000Y-111760000D01*
X111760000Y-114300000D02*
X111760000Y-112534000D01*
X132080000Y-111760000D02*
X134620000Y-109220000D01*
X134620000Y-38735000D02*
X132080000Y-36195000D01*
X132080000Y-36195000D02*
X123825000Y-36195000D01*
X123825000Y-36195000D02*
X122555000Y-34925000D01*
X122555000Y-34925000D02*
X122555000Y-33020000D01*
D29*
X134593215Y-106680000D02*
X134620000Y-106653215D01*
X129540000Y-106680000D02*
X134593215Y-106680000D01*
D28*
X134620000Y-109220000D02*
X134620000Y-106653215D01*
X120015000Y-33020000D02*
X122555000Y-33020000D01*
X134596528Y-93980000D02*
X134620000Y-93956528D01*
X128634000Y-93980000D02*
X134596528Y-93980000D01*
X134620000Y-93956528D02*
X134620000Y-38735000D01*
X134620000Y-106653215D02*
X134620000Y-93956528D01*
X112534000Y-111760000D02*
X122322952Y-111760000D01*
X122322952Y-111760000D02*
X132080000Y-111760000D01*
X101600000Y-111760000D02*
X99949000Y-113411000D01*
X99949000Y-113411000D02*
X99949000Y-115062000D01*
X99949000Y-115062000D02*
X100838000Y-115951000D01*
X100838000Y-115951000D02*
X107569000Y-115951000D01*
X107569000Y-115951000D02*
X109220000Y-114300000D01*
D27*
X121297000Y-104140000D02*
X121285000Y-104152000D01*
X123190000Y-104140000D02*
X121297000Y-104140000D01*
X125845000Y-100765000D02*
X125845000Y-100965000D01*
X124345000Y-99265000D02*
X125845000Y-100765000D01*
X124345000Y-99060000D02*
X124345000Y-99265000D01*
X125845000Y-104660000D02*
X125845000Y-100965000D01*
X125095000Y-105410000D02*
X125845000Y-104660000D01*
X123190000Y-105410000D02*
X125095000Y-105410000D01*
X101600000Y-66040000D02*
X102870000Y-67310000D01*
X102870000Y-67310000D02*
X117260000Y-67310000D01*
X117260000Y-67310000D02*
X118745000Y-68795000D01*
X118745000Y-68795000D02*
X118745000Y-69470000D01*
X125095000Y-69470000D02*
X125095000Y-68580000D01*
X125095000Y-68580000D02*
X129540000Y-64135000D01*
X129540000Y-64135000D02*
X129540000Y-60960000D01*
X125095000Y-52070000D02*
X125095000Y-49150000D01*
X104140000Y-83820000D02*
X105410000Y-83820000D01*
X105410000Y-83820000D02*
X107950000Y-81280000D01*
X107950000Y-81280000D02*
X107950000Y-76835000D01*
X107950000Y-76835000D02*
X109855000Y-74930000D01*
X125095000Y-71120000D02*
X125095000Y-69470000D01*
X123825000Y-74930000D02*
X123045407Y-74930000D01*
X123045407Y-74930000D02*
X123190000Y-74930000D01*
X109855000Y-74930000D02*
X123045407Y-74930000D01*
X123825000Y-74930000D02*
X125095000Y-73660000D01*
X130810000Y-60325000D02*
X130810000Y-64135000D01*
X126365000Y-68580000D02*
X126365000Y-69470000D01*
X130810000Y-64135000D02*
X126365000Y-68580000D01*
X126365000Y-49150000D02*
X126365000Y-52070000D01*
X126365000Y-71120000D02*
X126365000Y-69470000D01*
X126365000Y-71755000D02*
X126365000Y-71120000D01*
X125730000Y-72390000D02*
X126365000Y-71755000D01*
X123825000Y-72390000D02*
X125730000Y-72390000D01*
X121920000Y-74295000D02*
X123825000Y-72390000D01*
X109220000Y-74295000D02*
X121920000Y-74295000D01*
X107315000Y-76200000D02*
X109220000Y-74295000D01*
X104140000Y-76200000D02*
X107315000Y-76200000D01*
X122555000Y-66040000D02*
X126365000Y-62230000D01*
X126365000Y-62230000D02*
X126365000Y-60070000D01*
X109220000Y-73025000D02*
X113665000Y-68580000D01*
X113665000Y-68580000D02*
X114300000Y-68580000D01*
X107315000Y-74930000D02*
X109220000Y-73025000D01*
X106045000Y-74930000D02*
X107315000Y-74930000D01*
X104629130Y-74930000D02*
X106045000Y-74930000D01*
X101600000Y-76200000D02*
X102463599Y-75336401D01*
X102463599Y-75336401D02*
X102870000Y-74930000D01*
X102870000Y-74930000D02*
X104629130Y-74930000D01*
X127340000Y-58420000D02*
X126365000Y-59395000D01*
X130810000Y-43180000D02*
X130810000Y-57150000D01*
X129540000Y-58420000D02*
X127340000Y-58420000D01*
X129540000Y-41910000D02*
X130810000Y-43180000D01*
X130810000Y-57150000D02*
X129540000Y-58420000D01*
X127000000Y-41910000D02*
X129540000Y-41910000D01*
X126365000Y-41275000D02*
X127000000Y-41910000D01*
X126365000Y-59395000D02*
X126365000Y-60070000D01*
X126365000Y-39750000D02*
X126365000Y-41275000D01*
X125095000Y-39750000D02*
X125095000Y-41275000D01*
X128905000Y-57785000D02*
X126365000Y-57785000D01*
X125095000Y-41275000D02*
X126365000Y-42545000D01*
X126365000Y-42545000D02*
X128905000Y-42545000D01*
X126365000Y-57785000D02*
X125095000Y-59055000D01*
X128905000Y-42545000D02*
X130175000Y-43815000D01*
X130175000Y-43815000D02*
X130175000Y-56515000D01*
X130175000Y-56515000D02*
X128905000Y-57785000D01*
X125095000Y-59055000D02*
X125095000Y-60070000D01*
X125095000Y-62230000D02*
X122555000Y-64770000D01*
X113030000Y-67945000D02*
X108585000Y-67945000D01*
X108585000Y-67945000D02*
X105410000Y-71120000D01*
X105410000Y-71120000D02*
X104140000Y-71120000D01*
X125095000Y-60070000D02*
X125095000Y-62230000D01*
X125095000Y-60745000D02*
X125095000Y-60960000D01*
X125095000Y-60070000D02*
X125095000Y-60745000D01*
D30*
G36*
X101727000Y-114173000D02*
X101747000Y-114173000D01*
X101747000Y-114427000D01*
X101727000Y-114427000D01*
X101727000Y-114447000D01*
X101473000Y-114447000D01*
X101473000Y-114427000D01*
X101453000Y-114427000D01*
X101453000Y-114173000D01*
X101473000Y-114173000D01*
X101473000Y-114153000D01*
X101727000Y-114153000D01*
X101727000Y-114173000D01*
X101727000Y-114173000D01*
G37*
X101727000Y-114173000D02*
X101747000Y-114173000D01*
X101747000Y-114427000D01*
X101727000Y-114427000D01*
X101727000Y-114447000D01*
X101473000Y-114447000D01*
X101473000Y-114427000D01*
X101453000Y-114427000D01*
X101453000Y-114173000D01*
X101473000Y-114173000D01*
X101473000Y-114153000D01*
X101727000Y-114153000D01*
X101727000Y-114173000D01*
G36*
X124159838Y-75750167D02*
X124159838Y-75750167D01*
X124301883Y-76093943D01*
X124564673Y-76357192D01*
X124908201Y-76499838D01*
X125280167Y-76500162D01*
X125401569Y-76450000D01*
X131195000Y-76450000D01*
X131195000Y-85993421D01*
X131036165Y-86152256D01*
X130916057Y-86201883D01*
X130652808Y-86464673D01*
X130510162Y-86808201D01*
X130509838Y-87180167D01*
X130651883Y-87523943D01*
X130914673Y-87787192D01*
X131066435Y-87850209D01*
X131026644Y-87890000D01*
X120072720Y-87890000D01*
X119686210Y-87966882D01*
X119358542Y-88185822D01*
X118368642Y-89175722D01*
X118149702Y-89503390D01*
X118072820Y-89889900D01*
X118072820Y-89992460D01*
X117283230Y-89992460D01*
X117041107Y-90039437D01*
X116828303Y-90179227D01*
X116685853Y-90390260D01*
X116635790Y-90639900D01*
X116635790Y-92240100D01*
X116682767Y-92482223D01*
X116822557Y-92695027D01*
X117033590Y-92837477D01*
X117283230Y-92887540D01*
X118072820Y-92887540D01*
X118072820Y-97612460D01*
X117283230Y-97612460D01*
X117041107Y-97659437D01*
X116828303Y-97799227D01*
X116685853Y-98010260D01*
X116635790Y-98259900D01*
X116635790Y-99860100D01*
X116682767Y-100102223D01*
X116822557Y-100315027D01*
X117033590Y-100457477D01*
X117283230Y-100507540D01*
X120882410Y-100507540D01*
X121124533Y-100460563D01*
X121337337Y-100320773D01*
X121479787Y-100109740D01*
X121487756Y-100070000D01*
X121632410Y-100070000D01*
X122018920Y-99993118D01*
X122346588Y-99774178D01*
X123447560Y-98673206D01*
X123447560Y-99510000D01*
X123494537Y-99752123D01*
X123634327Y-99964927D01*
X123701622Y-100010352D01*
X123556673Y-100155301D01*
X123460000Y-100388690D01*
X123460000Y-100679250D01*
X123618750Y-100838000D01*
X124220000Y-100838000D01*
X124220000Y-100818000D01*
X124470000Y-100818000D01*
X124470000Y-100838000D01*
X124492000Y-100838000D01*
X124492000Y-101092000D01*
X124470000Y-101092000D01*
X124470000Y-101891250D01*
X124628750Y-102050000D01*
X124721309Y-102050000D01*
X124954698Y-101953327D01*
X125085000Y-101823026D01*
X125085000Y-104345198D01*
X124780198Y-104650000D01*
X124354584Y-104650000D01*
X124358877Y-104643640D01*
X124408940Y-104394000D01*
X124408940Y-103886000D01*
X124361963Y-103643877D01*
X124273824Y-103509701D01*
X124299827Y-103483698D01*
X124396500Y-103250309D01*
X124396500Y-103155750D01*
X124237750Y-102997000D01*
X123317000Y-102997000D01*
X123317000Y-103017000D01*
X123063000Y-103017000D01*
X123063000Y-102997000D01*
X122142250Y-102997000D01*
X121983500Y-103155750D01*
X121983500Y-103250309D01*
X122014287Y-103324635D01*
X121984640Y-103304623D01*
X121735000Y-103254560D01*
X120835000Y-103254560D01*
X120592877Y-103301537D01*
X120380073Y-103441327D01*
X120237623Y-103652360D01*
X120187560Y-103902000D01*
X120187560Y-104402000D01*
X120234537Y-104644123D01*
X120374327Y-104856927D01*
X120440529Y-104901614D01*
X120380073Y-104941327D01*
X120237623Y-105152360D01*
X120187560Y-105402000D01*
X120187560Y-105650000D01*
X119958720Y-105650000D01*
X119830673Y-105455073D01*
X119766363Y-105411663D01*
X119908327Y-105269698D01*
X120005000Y-105036309D01*
X120005000Y-104695750D01*
X119846250Y-104537000D01*
X118872000Y-104537000D01*
X118872000Y-104557000D01*
X118618000Y-104557000D01*
X118618000Y-104537000D01*
X117643750Y-104537000D01*
X117485000Y-104695750D01*
X117485000Y-105036309D01*
X117581673Y-105269698D01*
X117723150Y-105411176D01*
X117665073Y-105449327D01*
X117522623Y-105660360D01*
X117472560Y-105910000D01*
X117472560Y-106910000D01*
X117519537Y-107152123D01*
X117659327Y-107364927D01*
X117870360Y-107507377D01*
X118120000Y-107557440D01*
X119370000Y-107557440D01*
X119546307Y-107523233D01*
X119477466Y-107592074D01*
X119590470Y-107705078D01*
X119245729Y-107895364D01*
X118894044Y-108776591D01*
X118906359Y-109725323D01*
X119245729Y-110544636D01*
X119590470Y-110734922D01*
X119575392Y-110750000D01*
X119014442Y-110750000D01*
X119044838Y-110676799D01*
X119045162Y-110304833D01*
X118903117Y-109961057D01*
X118640327Y-109697808D01*
X118296799Y-109555162D01*
X117924833Y-109554838D01*
X117803431Y-109605000D01*
X109313605Y-109605000D01*
X109313600Y-109604999D01*
X109031116Y-109661190D01*
X108974925Y-109672367D01*
X108687810Y-109864210D01*
X108687808Y-109864213D01*
X105506407Y-113045614D01*
X105464273Y-112981473D01*
X105253240Y-112839023D01*
X105212340Y-112830821D01*
X105229029Y-112819670D01*
X105553885Y-112333489D01*
X105667959Y-111760000D01*
X105553885Y-111186511D01*
X105229029Y-110700330D01*
X104914248Y-110490000D01*
X105229029Y-110279670D01*
X105553885Y-109793489D01*
X105667959Y-109220000D01*
X105553885Y-108646511D01*
X105229029Y-108160330D01*
X104914248Y-107950000D01*
X105229029Y-107739670D01*
X105553885Y-107253489D01*
X105667959Y-106680000D01*
X105553885Y-106106511D01*
X105229029Y-105620330D01*
X104914248Y-105410000D01*
X105229029Y-105199670D01*
X105553885Y-104713489D01*
X105667959Y-104140000D01*
X105553885Y-103566511D01*
X105359104Y-103275000D01*
X117993690Y-103275000D01*
X117760301Y-103371673D01*
X117581673Y-103550302D01*
X117485000Y-103783691D01*
X117485000Y-104124250D01*
X117643750Y-104283000D01*
X118618000Y-104283000D01*
X118618000Y-103433750D01*
X118459250Y-103275000D01*
X119030750Y-103275000D01*
X118872000Y-103433750D01*
X118872000Y-104283000D01*
X119846250Y-104283000D01*
X120005000Y-104124250D01*
X120005000Y-103783691D01*
X119908327Y-103550302D01*
X119729699Y-103371673D01*
X119496310Y-103275000D01*
X119030750Y-103275000D01*
X118459250Y-103275000D01*
X118459250Y-103275000D01*
X117993690Y-103275000D01*
X105359104Y-103275000D01*
X105229029Y-103080330D01*
X104914248Y-102870000D01*
X105229029Y-102659670D01*
X105553885Y-102173489D01*
X105592173Y-101981000D01*
X122492190Y-101981000D01*
X122258801Y-102077673D01*
X122080173Y-102256302D01*
X121983500Y-102489691D01*
X121983500Y-102584250D01*
X122142250Y-102743000D01*
X123063000Y-102743000D01*
X123063000Y-102139750D01*
X122904250Y-101981000D01*
X122492190Y-101981000D01*
X105592173Y-101981000D01*
X105667959Y-101600000D01*
X105566912Y-101092000D01*
X123618750Y-101092000D01*
X123460000Y-101250750D01*
X123460000Y-101541310D01*
X123556673Y-101774699D01*
X123735302Y-101953327D01*
X123802110Y-101981000D01*
X123475750Y-101981000D01*
X123317000Y-102139750D01*
X123317000Y-102743000D01*
X124237750Y-102743000D01*
X124396500Y-102584250D01*
X124396500Y-102489691D01*
X124299827Y-102256302D01*
X124121199Y-102077673D01*
X124054391Y-102050000D01*
X124061250Y-102050000D01*
X124220000Y-101891250D01*
X124220000Y-101092000D01*
X123618750Y-101092000D01*
X105566912Y-101092000D01*
X105553885Y-101026511D01*
X105229029Y-100540330D01*
X104914248Y-100330000D01*
X105229029Y-100119670D01*
X105553885Y-99633489D01*
X105642697Y-99187000D01*
X111305340Y-99187000D01*
X111146590Y-99345750D01*
X111146590Y-99986410D01*
X111243263Y-100219799D01*
X111421892Y-100398427D01*
X111655281Y-100495100D01*
X113295430Y-100495100D01*
X113454180Y-100336350D01*
X113454180Y-99187000D01*
X113708180Y-99187000D01*
X113708180Y-100336350D01*
X113866930Y-100495100D01*
X115507079Y-100495100D01*
X115740468Y-100398427D01*
X115919097Y-100219799D01*
X116015770Y-99986410D01*
X116015770Y-99345750D01*
X115857020Y-99187000D01*
X113708180Y-99187000D01*
X113454180Y-99187000D01*
X113454180Y-99187000D01*
X111305340Y-99187000D01*
X105642697Y-99187000D01*
X105667959Y-99060000D01*
X105553885Y-98486511D01*
X105229029Y-98000330D01*
X104914248Y-97790000D01*
X105161337Y-97624900D01*
X111655281Y-97624900D01*
X111421892Y-97721573D01*
X111243263Y-97900201D01*
X111146590Y-98133590D01*
X111146590Y-98774250D01*
X111305340Y-98933000D01*
X113454180Y-98933000D01*
X113454180Y-97783650D01*
X113295430Y-97624900D01*
X113866930Y-97624900D01*
X113708180Y-97783650D01*
X113708180Y-98933000D01*
X115857020Y-98933000D01*
X116015770Y-98774250D01*
X116015770Y-98133590D01*
X115919097Y-97900201D01*
X115740468Y-97721573D01*
X115507079Y-97624900D01*
X113866930Y-97624900D01*
X113295430Y-97624900D01*
X113295430Y-97624900D01*
X111655281Y-97624900D01*
X105161337Y-97624900D01*
X105229029Y-97579670D01*
X105553885Y-97093489D01*
X105667959Y-96520000D01*
X105553885Y-95946511D01*
X105229029Y-95460330D01*
X104914248Y-95250000D01*
X105229029Y-95039670D01*
X105553885Y-94553489D01*
X105667959Y-93980000D01*
X105553885Y-93406511D01*
X105229029Y-92920330D01*
X104914248Y-92710000D01*
X105229029Y-92499670D01*
X105553885Y-92013489D01*
X105642697Y-91567000D01*
X111305340Y-91567000D01*
X111146590Y-91725750D01*
X111146590Y-92366410D01*
X111243263Y-92599799D01*
X111421892Y-92778427D01*
X111655281Y-92875100D01*
X113295430Y-92875100D01*
X113454180Y-92716350D01*
X113454180Y-91567000D01*
X113708180Y-91567000D01*
X113708180Y-92716350D01*
X113866930Y-92875100D01*
X115507079Y-92875100D01*
X115740468Y-92778427D01*
X115919097Y-92599799D01*
X116015770Y-92366410D01*
X116015770Y-91725750D01*
X115857020Y-91567000D01*
X113708180Y-91567000D01*
X113454180Y-91567000D01*
X113454180Y-91567000D01*
X111305340Y-91567000D01*
X105642697Y-91567000D01*
X105667959Y-91440000D01*
X105553885Y-90866511D01*
X105229029Y-90380330D01*
X104914248Y-90170000D01*
X105161337Y-90004900D01*
X111655281Y-90004900D01*
X111421892Y-90101573D01*
X111243263Y-90280201D01*
X111146590Y-90513590D01*
X111146590Y-91154250D01*
X111305340Y-91313000D01*
X113454180Y-91313000D01*
X113454180Y-90163650D01*
X113295430Y-90004900D01*
X113866930Y-90004900D01*
X113708180Y-90163650D01*
X113708180Y-91313000D01*
X115857020Y-91313000D01*
X116015770Y-91154250D01*
X116015770Y-90513590D01*
X115919097Y-90280201D01*
X115740468Y-90101573D01*
X115507079Y-90004900D01*
X113866930Y-90004900D01*
X113295430Y-90004900D01*
X113295430Y-90004900D01*
X111655281Y-90004900D01*
X105161337Y-90004900D01*
X105229029Y-89959670D01*
X105553885Y-89473489D01*
X105667959Y-88900000D01*
X105553885Y-88326511D01*
X105229029Y-87840330D01*
X104914248Y-87630000D01*
X105229029Y-87419670D01*
X105553885Y-86933489D01*
X105667959Y-86360000D01*
X105553885Y-85786511D01*
X105229029Y-85300330D01*
X104914248Y-85090000D01*
X105229029Y-84879670D01*
X105432215Y-84575581D01*
X105700839Y-84522148D01*
X105947401Y-84357401D01*
X107999725Y-82305077D01*
X119590472Y-82305077D01*
X119245729Y-82495364D01*
X118894044Y-83376591D01*
X118906359Y-84325323D01*
X119245729Y-85144636D01*
X119590472Y-85334923D01*
X120925790Y-83999605D01*
X121285000Y-83999605D01*
X119770077Y-85514528D01*
X119960364Y-85859271D01*
X120841591Y-86210956D01*
X121790323Y-86198641D01*
X122609636Y-85859271D01*
X122799923Y-85514528D01*
X121285000Y-83999605D01*
X120925790Y-83999605D01*
X121105395Y-83820000D01*
X119590472Y-82305077D01*
X107999725Y-82305077D01*
X108487401Y-81817401D01*
X108652148Y-81570840D01*
X108680353Y-81429044D01*
X108680353Y-81429044D01*
X121728409Y-81429044D01*
X120779677Y-81441359D01*
X119960364Y-81780729D01*
X119770077Y-82125472D01*
X121285000Y-83640395D01*
X122620318Y-82305077D01*
X122979528Y-82305077D01*
X121464605Y-83820000D01*
X122979528Y-85334923D01*
X123324271Y-85144636D01*
X123675956Y-84263409D01*
X123663641Y-83314677D01*
X123324271Y-82495364D01*
X122979528Y-82305077D01*
X122620318Y-82305077D01*
X122799923Y-82125472D01*
X122609636Y-81780729D01*
X121728409Y-81429044D01*
X108680353Y-81429044D01*
X108710000Y-81280000D01*
X108710000Y-77149802D01*
X110169802Y-75690000D01*
X123825000Y-75690000D01*
X124115839Y-75632148D01*
X124159966Y-75602663D01*
X124159838Y-75750167D01*
X124159838Y-75750167D01*
G37*
X124159838Y-75750167D02*
X124159838Y-75750167D01*
X124301883Y-76093943D01*
X124564673Y-76357192D01*
X124908201Y-76499838D01*
X125280167Y-76500162D01*
X125401569Y-76450000D01*
X131195000Y-76450000D01*
X131195000Y-85993421D01*
X131036165Y-86152256D01*
X130916057Y-86201883D01*
X130652808Y-86464673D01*
X130510162Y-86808201D01*
X130509838Y-87180167D01*
X130651883Y-87523943D01*
X130914673Y-87787192D01*
X131066435Y-87850209D01*
X131026644Y-87890000D01*
X120072720Y-87890000D01*
X119686210Y-87966882D01*
X119358542Y-88185822D01*
X118368642Y-89175722D01*
X118149702Y-89503390D01*
X118072820Y-89889900D01*
X118072820Y-89992460D01*
X117283230Y-89992460D01*
X117041107Y-90039437D01*
X116828303Y-90179227D01*
X116685853Y-90390260D01*
X116635790Y-90639900D01*
X116635790Y-92240100D01*
X116682767Y-92482223D01*
X116822557Y-92695027D01*
X117033590Y-92837477D01*
X117283230Y-92887540D01*
X118072820Y-92887540D01*
X118072820Y-97612460D01*
X117283230Y-97612460D01*
X117041107Y-97659437D01*
X116828303Y-97799227D01*
X116685853Y-98010260D01*
X116635790Y-98259900D01*
X116635790Y-99860100D01*
X116682767Y-100102223D01*
X116822557Y-100315027D01*
X117033590Y-100457477D01*
X117283230Y-100507540D01*
X120882410Y-100507540D01*
X121124533Y-100460563D01*
X121337337Y-100320773D01*
X121479787Y-100109740D01*
X121487756Y-100070000D01*
X121632410Y-100070000D01*
X122018920Y-99993118D01*
X122346588Y-99774178D01*
X123447560Y-98673206D01*
X123447560Y-99510000D01*
X123494537Y-99752123D01*
X123634327Y-99964927D01*
X123701622Y-100010352D01*
X123556673Y-100155301D01*
X123460000Y-100388690D01*
X123460000Y-100679250D01*
X123618750Y-100838000D01*
X124220000Y-100838000D01*
X124220000Y-100818000D01*
X124470000Y-100818000D01*
X124470000Y-100838000D01*
X124492000Y-100838000D01*
X124492000Y-101092000D01*
X124470000Y-101092000D01*
X124470000Y-101891250D01*
X124628750Y-102050000D01*
X124721309Y-102050000D01*
X124954698Y-101953327D01*
X125085000Y-101823026D01*
X125085000Y-104345198D01*
X124780198Y-104650000D01*
X124354584Y-104650000D01*
X124358877Y-104643640D01*
X124408940Y-104394000D01*
X124408940Y-103886000D01*
X124361963Y-103643877D01*
X124273824Y-103509701D01*
X124299827Y-103483698D01*
X124396500Y-103250309D01*
X124396500Y-103155750D01*
X124237750Y-102997000D01*
X123317000Y-102997000D01*
X123317000Y-103017000D01*
X123063000Y-103017000D01*
X123063000Y-102997000D01*
X122142250Y-102997000D01*
X121983500Y-103155750D01*
X121983500Y-103250309D01*
X122014287Y-103324635D01*
X121984640Y-103304623D01*
X121735000Y-103254560D01*
X120835000Y-103254560D01*
X120592877Y-103301537D01*
X120380073Y-103441327D01*
X120237623Y-103652360D01*
X120187560Y-103902000D01*
X120187560Y-104402000D01*
X120234537Y-104644123D01*
X120374327Y-104856927D01*
X120440529Y-104901614D01*
X120380073Y-104941327D01*
X120237623Y-105152360D01*
X120187560Y-105402000D01*
X120187560Y-105650000D01*
X119958720Y-105650000D01*
X119830673Y-105455073D01*
X119766363Y-105411663D01*
X119908327Y-105269698D01*
X120005000Y-105036309D01*
X120005000Y-104695750D01*
X119846250Y-104537000D01*
X118872000Y-104537000D01*
X118872000Y-104557000D01*
X118618000Y-104557000D01*
X118618000Y-104537000D01*
X117643750Y-104537000D01*
X117485000Y-104695750D01*
X117485000Y-105036309D01*
X117581673Y-105269698D01*
X117723150Y-105411176D01*
X117665073Y-105449327D01*
X117522623Y-105660360D01*
X117472560Y-105910000D01*
X117472560Y-106910000D01*
X117519537Y-107152123D01*
X117659327Y-107364927D01*
X117870360Y-107507377D01*
X118120000Y-107557440D01*
X119370000Y-107557440D01*
X119546307Y-107523233D01*
X119477466Y-107592074D01*
X119590470Y-107705078D01*
X119245729Y-107895364D01*
X118894044Y-108776591D01*
X118906359Y-109725323D01*
X119245729Y-110544636D01*
X119590470Y-110734922D01*
X119575392Y-110750000D01*
X119014442Y-110750000D01*
X119044838Y-110676799D01*
X119045162Y-110304833D01*
X118903117Y-109961057D01*
X118640327Y-109697808D01*
X118296799Y-109555162D01*
X117924833Y-109554838D01*
X117803431Y-109605000D01*
X109313605Y-109605000D01*
X109313600Y-109604999D01*
X109031116Y-109661190D01*
X108974925Y-109672367D01*
X108687810Y-109864210D01*
X108687808Y-109864213D01*
X105506407Y-113045614D01*
X105464273Y-112981473D01*
X105253240Y-112839023D01*
X105212340Y-112830821D01*
X105229029Y-112819670D01*
X105553885Y-112333489D01*
X105667959Y-111760000D01*
X105553885Y-111186511D01*
X105229029Y-110700330D01*
X104914248Y-110490000D01*
X105229029Y-110279670D01*
X105553885Y-109793489D01*
X105667959Y-109220000D01*
X105553885Y-108646511D01*
X105229029Y-108160330D01*
X104914248Y-107950000D01*
X105229029Y-107739670D01*
X105553885Y-107253489D01*
X105667959Y-106680000D01*
X105553885Y-106106511D01*
X105229029Y-105620330D01*
X104914248Y-105410000D01*
X105229029Y-105199670D01*
X105553885Y-104713489D01*
X105667959Y-104140000D01*
X105553885Y-103566511D01*
X105359104Y-103275000D01*
X117993690Y-103275000D01*
X117760301Y-103371673D01*
X117581673Y-103550302D01*
X117485000Y-103783691D01*
X117485000Y-104124250D01*
X117643750Y-104283000D01*
X118618000Y-104283000D01*
X118618000Y-103433750D01*
X118459250Y-103275000D01*
X119030750Y-103275000D01*
X118872000Y-103433750D01*
X118872000Y-104283000D01*
X119846250Y-104283000D01*
X120005000Y-104124250D01*
X120005000Y-103783691D01*
X119908327Y-103550302D01*
X119729699Y-103371673D01*
X119496310Y-103275000D01*
X119030750Y-103275000D01*
X118459250Y-103275000D01*
X118459250Y-103275000D01*
X117993690Y-103275000D01*
X105359104Y-103275000D01*
X105229029Y-103080330D01*
X104914248Y-102870000D01*
X105229029Y-102659670D01*
X105553885Y-102173489D01*
X105592173Y-101981000D01*
X122492190Y-101981000D01*
X122258801Y-102077673D01*
X122080173Y-102256302D01*
X121983500Y-102489691D01*
X121983500Y-102584250D01*
X122142250Y-102743000D01*
X123063000Y-102743000D01*
X123063000Y-102139750D01*
X122904250Y-101981000D01*
X122492190Y-101981000D01*
X105592173Y-101981000D01*
X105667959Y-101600000D01*
X105566912Y-101092000D01*
X123618750Y-101092000D01*
X123460000Y-101250750D01*
X123460000Y-101541310D01*
X123556673Y-101774699D01*
X123735302Y-101953327D01*
X123802110Y-101981000D01*
X123475750Y-101981000D01*
X123317000Y-102139750D01*
X123317000Y-102743000D01*
X124237750Y-102743000D01*
X124396500Y-102584250D01*
X124396500Y-102489691D01*
X124299827Y-102256302D01*
X124121199Y-102077673D01*
X124054391Y-102050000D01*
X124061250Y-102050000D01*
X124220000Y-101891250D01*
X124220000Y-101092000D01*
X123618750Y-101092000D01*
X105566912Y-101092000D01*
X105553885Y-101026511D01*
X105229029Y-100540330D01*
X104914248Y-100330000D01*
X105229029Y-100119670D01*
X105553885Y-99633489D01*
X105642697Y-99187000D01*
X111305340Y-99187000D01*
X111146590Y-99345750D01*
X111146590Y-99986410D01*
X111243263Y-100219799D01*
X111421892Y-100398427D01*
X111655281Y-100495100D01*
X113295430Y-100495100D01*
X113454180Y-100336350D01*
X113454180Y-99187000D01*
X113708180Y-99187000D01*
X113708180Y-100336350D01*
X113866930Y-100495100D01*
X115507079Y-100495100D01*
X115740468Y-100398427D01*
X115919097Y-100219799D01*
X116015770Y-99986410D01*
X116015770Y-99345750D01*
X115857020Y-99187000D01*
X113708180Y-99187000D01*
X113454180Y-99187000D01*
X113454180Y-99187000D01*
X111305340Y-99187000D01*
X105642697Y-99187000D01*
X105667959Y-99060000D01*
X105553885Y-98486511D01*
X105229029Y-98000330D01*
X104914248Y-97790000D01*
X105161337Y-97624900D01*
X111655281Y-97624900D01*
X111421892Y-97721573D01*
X111243263Y-97900201D01*
X111146590Y-98133590D01*
X111146590Y-98774250D01*
X111305340Y-98933000D01*
X113454180Y-98933000D01*
X113454180Y-97783650D01*
X113295430Y-97624900D01*
X113866930Y-97624900D01*
X113708180Y-97783650D01*
X113708180Y-98933000D01*
X115857020Y-98933000D01*
X116015770Y-98774250D01*
X116015770Y-98133590D01*
X115919097Y-97900201D01*
X115740468Y-97721573D01*
X115507079Y-97624900D01*
X113866930Y-97624900D01*
X113295430Y-97624900D01*
X113295430Y-97624900D01*
X111655281Y-97624900D01*
X105161337Y-97624900D01*
X105229029Y-97579670D01*
X105553885Y-97093489D01*
X105667959Y-96520000D01*
X105553885Y-95946511D01*
X105229029Y-95460330D01*
X104914248Y-95250000D01*
X105229029Y-95039670D01*
X105553885Y-94553489D01*
X105667959Y-93980000D01*
X105553885Y-93406511D01*
X105229029Y-92920330D01*
X104914248Y-92710000D01*
X105229029Y-92499670D01*
X105553885Y-92013489D01*
X105642697Y-91567000D01*
X111305340Y-91567000D01*
X111146590Y-91725750D01*
X111146590Y-92366410D01*
X111243263Y-92599799D01*
X111421892Y-92778427D01*
X111655281Y-92875100D01*
X113295430Y-92875100D01*
X113454180Y-92716350D01*
X113454180Y-91567000D01*
X113708180Y-91567000D01*
X113708180Y-92716350D01*
X113866930Y-92875100D01*
X115507079Y-92875100D01*
X115740468Y-92778427D01*
X115919097Y-92599799D01*
X116015770Y-92366410D01*
X116015770Y-91725750D01*
X115857020Y-91567000D01*
X113708180Y-91567000D01*
X113454180Y-91567000D01*
X113454180Y-91567000D01*
X111305340Y-91567000D01*
X105642697Y-91567000D01*
X105667959Y-91440000D01*
X105553885Y-90866511D01*
X105229029Y-90380330D01*
X104914248Y-90170000D01*
X105161337Y-90004900D01*
X111655281Y-90004900D01*
X111421892Y-90101573D01*
X111243263Y-90280201D01*
X111146590Y-90513590D01*
X111146590Y-91154250D01*
X111305340Y-91313000D01*
X113454180Y-91313000D01*
X113454180Y-90163650D01*
X113295430Y-90004900D01*
X113866930Y-90004900D01*
X113708180Y-90163650D01*
X113708180Y-91313000D01*
X115857020Y-91313000D01*
X116015770Y-91154250D01*
X116015770Y-90513590D01*
X115919097Y-90280201D01*
X115740468Y-90101573D01*
X115507079Y-90004900D01*
X113866930Y-90004900D01*
X113295430Y-90004900D01*
X113295430Y-90004900D01*
X111655281Y-90004900D01*
X105161337Y-90004900D01*
X105229029Y-89959670D01*
X105553885Y-89473489D01*
X105667959Y-88900000D01*
X105553885Y-88326511D01*
X105229029Y-87840330D01*
X104914248Y-87630000D01*
X105229029Y-87419670D01*
X105553885Y-86933489D01*
X105667959Y-86360000D01*
X105553885Y-85786511D01*
X105229029Y-85300330D01*
X104914248Y-85090000D01*
X105229029Y-84879670D01*
X105432215Y-84575581D01*
X105700839Y-84522148D01*
X105947401Y-84357401D01*
X107999725Y-82305077D01*
X119590472Y-82305077D01*
X119245729Y-82495364D01*
X118894044Y-83376591D01*
X118906359Y-84325323D01*
X119245729Y-85144636D01*
X119590472Y-85334923D01*
X120925790Y-83999605D01*
X121285000Y-83999605D01*
X119770077Y-85514528D01*
X119960364Y-85859271D01*
X120841591Y-86210956D01*
X121790323Y-86198641D01*
X122609636Y-85859271D01*
X122799923Y-85514528D01*
X121285000Y-83999605D01*
X120925790Y-83999605D01*
X121105395Y-83820000D01*
X119590472Y-82305077D01*
X107999725Y-82305077D01*
X108487401Y-81817401D01*
X108652148Y-81570840D01*
X108680353Y-81429044D01*
X108680353Y-81429044D01*
X121728409Y-81429044D01*
X120779677Y-81441359D01*
X119960364Y-81780729D01*
X119770077Y-82125472D01*
X121285000Y-83640395D01*
X122620318Y-82305077D01*
X122979528Y-82305077D01*
X121464605Y-83820000D01*
X122979528Y-85334923D01*
X123324271Y-85144636D01*
X123675956Y-84263409D01*
X123663641Y-83314677D01*
X123324271Y-82495364D01*
X122979528Y-82305077D01*
X122620318Y-82305077D01*
X122799923Y-82125472D01*
X122609636Y-81780729D01*
X121728409Y-81429044D01*
X108680353Y-81429044D01*
X108710000Y-81280000D01*
X108710000Y-77149802D01*
X110169802Y-75690000D01*
X123825000Y-75690000D01*
X124115839Y-75632148D01*
X124159966Y-75602663D01*
X124159838Y-75750167D01*
G36*
X135205000Y-37891644D02*
X135205000Y-37891644D01*
X133223117Y-35909761D01*
X133350000Y-35935000D01*
X133736510Y-35858118D01*
X134064178Y-35639178D01*
X134283118Y-35311510D01*
X134360000Y-34925000D01*
X134283118Y-34538490D01*
X134064178Y-34210822D01*
X132159178Y-32305822D01*
X131831510Y-32086882D01*
X131445000Y-32010000D01*
X128747476Y-32010000D01*
X128704474Y-31945644D01*
X128858299Y-31881927D01*
X129036927Y-31703298D01*
X129133600Y-31469909D01*
X129133600Y-30765750D01*
X128974850Y-30607000D01*
X127762000Y-30607000D01*
X127762000Y-30627000D01*
X127508000Y-30627000D01*
X127508000Y-30607000D01*
X125222000Y-30607000D01*
X125222000Y-30627000D01*
X124968000Y-30627000D01*
X124968000Y-30607000D01*
X122682000Y-30607000D01*
X122682000Y-30627000D01*
X122428000Y-30627000D01*
X122428000Y-30607000D01*
X120142000Y-30607000D01*
X120142000Y-30627000D01*
X119888000Y-30627000D01*
X119888000Y-30607000D01*
X118680531Y-30607000D01*
X118560032Y-30839027D01*
X118808179Y-31368490D01*
X119226161Y-31750008D01*
X118955330Y-31930971D01*
X118630474Y-32417152D01*
X118516400Y-32990641D01*
X118516400Y-33049359D01*
X118630474Y-33622848D01*
X118955330Y-34109029D01*
X119441511Y-34433885D01*
X120015000Y-34547959D01*
X120588489Y-34433885D01*
X121074670Y-34109029D01*
X121127476Y-34030000D01*
X121442524Y-34030000D01*
X121495330Y-34109029D01*
X121545000Y-34142217D01*
X121545000Y-34925000D01*
X121621882Y-35311510D01*
X121840822Y-35639178D01*
X123110822Y-36909178D01*
X123438490Y-37128118D01*
X123825000Y-37205000D01*
X131661644Y-37205000D01*
X133476883Y-39020239D01*
X133350000Y-38995000D01*
X132963490Y-39071882D01*
X132635822Y-39290822D01*
X132416882Y-39618490D01*
X132340000Y-40005000D01*
X132340000Y-54235000D01*
X132080000Y-54235000D01*
X131693490Y-54311882D01*
X131570000Y-54394395D01*
X131570000Y-43180000D01*
X131545136Y-43055000D01*
X131512148Y-42889160D01*
X131347401Y-42642599D01*
X130077401Y-41372599D01*
X129830839Y-41207852D01*
X129540000Y-41150000D01*
X128408025Y-41150000D01*
X128473327Y-41084698D01*
X128570000Y-40851309D01*
X128570000Y-40035750D01*
X128411250Y-39877000D01*
X127762000Y-39877000D01*
X127762000Y-39897000D01*
X127508000Y-39897000D01*
X127508000Y-39877000D01*
X127488000Y-39877000D01*
X127488000Y-39623000D01*
X127508000Y-39623000D01*
X127508000Y-38298750D01*
X127349250Y-38140000D01*
X127920750Y-38140000D01*
X127762000Y-38298750D01*
X127762000Y-39623000D01*
X128411250Y-39623000D01*
X128570000Y-39464250D01*
X128570000Y-38648691D01*
X128473327Y-38415302D01*
X128294699Y-38236673D01*
X128061310Y-38140000D01*
X127920750Y-38140000D01*
X127349250Y-38140000D01*
X127349250Y-38140000D01*
X127208690Y-38140000D01*
X126991921Y-38229789D01*
X126914640Y-38177623D01*
X126665000Y-38127560D01*
X126065000Y-38127560D01*
X125822877Y-38174537D01*
X125730229Y-38235397D01*
X125644640Y-38177623D01*
X125395000Y-38127560D01*
X124795000Y-38127560D01*
X124552877Y-38174537D01*
X124460229Y-38235397D01*
X124374640Y-38177623D01*
X124125000Y-38127560D01*
X123525000Y-38127560D01*
X123282877Y-38174537D01*
X123190229Y-38235397D01*
X123104640Y-38177623D01*
X122855000Y-38127560D01*
X122255000Y-38127560D01*
X122012877Y-38174537D01*
X121920229Y-38235397D01*
X121834640Y-38177623D01*
X121585000Y-38127560D01*
X120985000Y-38127560D01*
X120742877Y-38174537D01*
X120650229Y-38235397D01*
X120564640Y-38177623D01*
X120315000Y-38127560D01*
X119715000Y-38127560D01*
X119472877Y-38174537D01*
X119380229Y-38235397D01*
X119294640Y-38177623D01*
X119045000Y-38127560D01*
X118445000Y-38127560D01*
X118202877Y-38174537D01*
X118118501Y-38229963D01*
X117901310Y-38140000D01*
X117760750Y-38140000D01*
X117602000Y-38298750D01*
X117602000Y-39623000D01*
X117622000Y-39623000D01*
X117622000Y-39877000D01*
X117602000Y-39877000D01*
X117602000Y-41201250D01*
X117760750Y-41360000D01*
X117901310Y-41360000D01*
X118118079Y-41270211D01*
X118195360Y-41322377D01*
X118445000Y-41372440D01*
X119045000Y-41372440D01*
X119287123Y-41325463D01*
X119379771Y-41264603D01*
X119465360Y-41322377D01*
X119715000Y-41372440D01*
X120315000Y-41372440D01*
X120557123Y-41325463D01*
X120649771Y-41264603D01*
X120735360Y-41322377D01*
X120985000Y-41372440D01*
X121585000Y-41372440D01*
X121827123Y-41325463D01*
X121919771Y-41264603D01*
X122005360Y-41322377D01*
X122255000Y-41372440D01*
X122855000Y-41372440D01*
X123097123Y-41325463D01*
X123189771Y-41264603D01*
X123275360Y-41322377D01*
X123525000Y-41372440D01*
X124125000Y-41372440D01*
X124345858Y-41329589D01*
X124392852Y-41565839D01*
X124557599Y-41812401D01*
X125827599Y-43082401D01*
X126074160Y-43247148D01*
X126365000Y-43305000D01*
X128590198Y-43305000D01*
X129415000Y-44129802D01*
X129415000Y-54394395D01*
X129291510Y-54311882D01*
X128905000Y-54235000D01*
X128539442Y-54235000D01*
X128569838Y-54161799D01*
X128570162Y-53789833D01*
X128428117Y-53446057D01*
X128165327Y-53182808D01*
X127821799Y-53040162D01*
X127449833Y-53039838D01*
X127328431Y-53090000D01*
X118469250Y-53090000D01*
X118326250Y-52947000D01*
X117602000Y-52947000D01*
X117602000Y-52967000D01*
X117348000Y-52967000D01*
X117348000Y-52947000D01*
X116623750Y-52947000D01*
X116526165Y-53044585D01*
X116455000Y-52973420D01*
X116455000Y-52436580D01*
X116465000Y-52426580D01*
X116465000Y-52534250D01*
X116623750Y-52693000D01*
X117348000Y-52693000D01*
X117348000Y-52673000D01*
X117602000Y-52673000D01*
X117602000Y-52693000D01*
X118326250Y-52693000D01*
X118485000Y-52534250D01*
X118485000Y-52293691D01*
X118388327Y-52060302D01*
X118387045Y-52059020D01*
X118447377Y-51969640D01*
X118497440Y-51720000D01*
X118497440Y-51627242D01*
X119079878Y-52209680D01*
X119079838Y-52255167D01*
X119221883Y-52598943D01*
X119484673Y-52862192D01*
X119828201Y-53004838D01*
X120200167Y-53005162D01*
X120543943Y-52863117D01*
X120807192Y-52600327D01*
X120949838Y-52256799D01*
X120950162Y-51884833D01*
X120808117Y-51541057D01*
X120545327Y-51277808D01*
X120201799Y-51135162D01*
X120154923Y-51135121D01*
X119792242Y-50772440D01*
X120315000Y-50772440D01*
X120557123Y-50725463D01*
X120649771Y-50664603D01*
X120735360Y-50722377D01*
X120985000Y-50772440D01*
X121585000Y-50772440D01*
X121827123Y-50725463D01*
X121919771Y-50664603D01*
X122005360Y-50722377D01*
X122255000Y-50772440D01*
X122855000Y-50772440D01*
X123097123Y-50725463D01*
X123189771Y-50664603D01*
X123275360Y-50722377D01*
X123525000Y-50772440D01*
X124125000Y-50772440D01*
X124335000Y-50731696D01*
X124335000Y-51507537D01*
X124302808Y-51539673D01*
X124160162Y-51883201D01*
X124159838Y-52255167D01*
X124301883Y-52598943D01*
X124564673Y-52862192D01*
X124908201Y-53004838D01*
X125280167Y-53005162D01*
X125623943Y-52863117D01*
X125729954Y-52757290D01*
X125834673Y-52862192D01*
X126178201Y-53004838D01*
X126550167Y-53005162D01*
X126893943Y-52863117D01*
X127157192Y-52600327D01*
X127299838Y-52256799D01*
X127300162Y-51884833D01*
X127158117Y-51541057D01*
X127125000Y-51507882D01*
X127125000Y-50725334D01*
X127208690Y-50760000D01*
X127349250Y-50760000D01*
X127508000Y-50601250D01*
X127508000Y-49277000D01*
X127762000Y-49277000D01*
X127762000Y-50601250D01*
X127920750Y-50760000D01*
X128061310Y-50760000D01*
X128294699Y-50663327D01*
X128473327Y-50484698D01*
X128570000Y-50251309D01*
X128570000Y-49435750D01*
X128411250Y-49277000D01*
X127762000Y-49277000D01*
X127508000Y-49277000D01*
X127508000Y-49277000D01*
X127488000Y-49277000D01*
X127488000Y-49023000D01*
X127508000Y-49023000D01*
X127508000Y-47698750D01*
X127349250Y-47540000D01*
X127920750Y-47540000D01*
X127762000Y-47698750D01*
X127762000Y-49023000D01*
X128411250Y-49023000D01*
X128570000Y-48864250D01*
X128570000Y-48048691D01*
X128473327Y-47815302D01*
X128294699Y-47636673D01*
X128061310Y-47540000D01*
X127920750Y-47540000D01*
X127349250Y-47540000D01*
X127349250Y-47540000D01*
X127208690Y-47540000D01*
X126991921Y-47629789D01*
X126914640Y-47577623D01*
X126665000Y-47527560D01*
X126065000Y-47527560D01*
X125822877Y-47574537D01*
X125730229Y-47635397D01*
X125644640Y-47577623D01*
X125395000Y-47527560D01*
X124795000Y-47527560D01*
X124585000Y-47568304D01*
X124585000Y-45720000D01*
X124527148Y-45429161D01*
X124527148Y-45429160D01*
X124362401Y-45182599D01*
X121822401Y-42642599D01*
X121575839Y-42477852D01*
X121285000Y-42420000D01*
X117154802Y-42420000D01*
X116107242Y-41372440D01*
X116505000Y-41372440D01*
X116747123Y-41325463D01*
X116831499Y-41270037D01*
X117048690Y-41360000D01*
X117189250Y-41360000D01*
X117348000Y-41201250D01*
X117348000Y-39877000D01*
X117328000Y-39877000D01*
X117328000Y-39623000D01*
X117348000Y-39623000D01*
X117348000Y-38298750D01*
X117189250Y-38140000D01*
X117048690Y-38140000D01*
X116831921Y-38229789D01*
X116754640Y-38177623D01*
X116505000Y-38127560D01*
X115905000Y-38127560D01*
X115662877Y-38174537D01*
X115450073Y-38314327D01*
X115307623Y-38525360D01*
X115257560Y-38775000D01*
X115257560Y-40522758D01*
X105947401Y-31212599D01*
X105700839Y-31047852D01*
X105432215Y-30994419D01*
X105229029Y-30690330D01*
X104742848Y-30365474D01*
X104169359Y-30251400D01*
X104110641Y-30251400D01*
X103537152Y-30365474D01*
X103050971Y-30690330D01*
X102870000Y-30961172D01*
X102689029Y-30690330D01*
X102202848Y-30365474D01*
X101629359Y-30251400D01*
X101570641Y-30251400D01*
X100997152Y-30365474D01*
X100510971Y-30690330D01*
X100186115Y-31176511D01*
X100072041Y-31750000D01*
X100186115Y-32323489D01*
X100510971Y-32809670D01*
X100825752Y-33020000D01*
X100510971Y-33230330D01*
X100186115Y-33716511D01*
X100072041Y-34290000D01*
X100186115Y-34863489D01*
X100510971Y-35349670D01*
X100825752Y-35560000D01*
X100510971Y-35770330D01*
X100186115Y-36256511D01*
X100072041Y-36830000D01*
X100186115Y-37403489D01*
X100510971Y-37889670D01*
X100825752Y-38100000D01*
X100510971Y-38310330D01*
X100186115Y-38796511D01*
X100072041Y-39370000D01*
X100186115Y-39943489D01*
X100510971Y-40429670D01*
X100825752Y-40640000D01*
X100510971Y-40850330D01*
X100186115Y-41336511D01*
X100072041Y-41910000D01*
X100186115Y-42483489D01*
X100510971Y-42969670D01*
X100825752Y-43180000D01*
X100510971Y-43390330D01*
X100186115Y-43876511D01*
X100072041Y-44450000D01*
X100186115Y-45023489D01*
X100510971Y-45509670D01*
X100825752Y-45720000D01*
X100510971Y-45930330D01*
X100186115Y-46416511D01*
X100072041Y-46990000D01*
X100186115Y-47563489D01*
X100510971Y-48049670D01*
X100590000Y-48102476D01*
X100590000Y-48211314D01*
X100666882Y-48597824D01*
X100885822Y-48925492D01*
X103474508Y-51514178D01*
X103802176Y-51733118D01*
X104188686Y-51810000D01*
X105410000Y-51810000D01*
X105796510Y-51733118D01*
X105920000Y-51650605D01*
X105920000Y-64135000D01*
X105977852Y-64425839D01*
X106142599Y-64672401D01*
X108020198Y-66550000D01*
X105566514Y-66550000D01*
X105667959Y-66040000D01*
X105553885Y-65466511D01*
X105229029Y-64980330D01*
X104914248Y-64770000D01*
X105229029Y-64559670D01*
X105553885Y-64073489D01*
X105667959Y-63500000D01*
X105553885Y-62926511D01*
X105229029Y-62440330D01*
X104914248Y-62230000D01*
X105229029Y-62019670D01*
X105553885Y-61533489D01*
X105667959Y-60960000D01*
X105553885Y-60386511D01*
X105229029Y-59900330D01*
X104914248Y-59690000D01*
X105229029Y-59479670D01*
X105553885Y-58993489D01*
X105667959Y-58420000D01*
X105553885Y-57846511D01*
X105229029Y-57360330D01*
X104914248Y-57150000D01*
X105229029Y-56939670D01*
X105553885Y-56453489D01*
X105667959Y-55880000D01*
X105553885Y-55306511D01*
X105229029Y-54820330D01*
X104914248Y-54610000D01*
X105229029Y-54399670D01*
X105553885Y-53913489D01*
X105667959Y-53340000D01*
X105553885Y-52766511D01*
X105229029Y-52280330D01*
X104742848Y-51955474D01*
X104169359Y-51841400D01*
X104110641Y-51841400D01*
X103537152Y-51955474D01*
X103050971Y-52280330D01*
X102870000Y-52551172D01*
X102689029Y-52280330D01*
X102202848Y-51955474D01*
X101629359Y-51841400D01*
X101570641Y-51841400D01*
X100997152Y-51955474D01*
X100510971Y-52280330D01*
X100186115Y-52766511D01*
X100072041Y-53340000D01*
X100186115Y-53913489D01*
X100510971Y-54399670D01*
X100825752Y-54610000D01*
X100510971Y-54820330D01*
X100186115Y-55306511D01*
X100072041Y-55880000D01*
X100186115Y-56453489D01*
X100510971Y-56939670D01*
X100825752Y-57150000D01*
X100510971Y-57360330D01*
X100186115Y-57846511D01*
X100072041Y-58420000D01*
X100186115Y-58993489D01*
X100510971Y-59479670D01*
X100825752Y-59690000D01*
X100510971Y-59900330D01*
X100186115Y-60386511D01*
X100072041Y-60960000D01*
X100186115Y-61533489D01*
X100510971Y-62019670D01*
X100825752Y-62230000D01*
X100510971Y-62440330D01*
X100186115Y-62926511D01*
X100072041Y-63500000D01*
X100186115Y-64073489D01*
X100510971Y-64559670D01*
X100825752Y-64770000D01*
X100510971Y-64980330D01*
X100186115Y-65466511D01*
X100072041Y-66040000D01*
X100186115Y-66613489D01*
X100510971Y-67099670D01*
X100825752Y-67310000D01*
X100510971Y-67520330D01*
X100186115Y-68006511D01*
X100072041Y-68580000D01*
X100186115Y-69153489D01*
X100510971Y-69639670D01*
X100825752Y-69850000D01*
X100510971Y-70060330D01*
X100186115Y-70546511D01*
X100072041Y-71120000D01*
X100186115Y-71693489D01*
X100510971Y-72179670D01*
X100825752Y-72390000D01*
X100510971Y-72600330D01*
X100186115Y-73086511D01*
X100072041Y-73660000D01*
X100186115Y-74233489D01*
X100510971Y-74719670D01*
X100825752Y-74930000D01*
X100510971Y-75140330D01*
X100186115Y-75626511D01*
X100072041Y-76200000D01*
X100186115Y-76773489D01*
X100510971Y-77259670D01*
X100825752Y-77470000D01*
X100510971Y-77680330D01*
X100186115Y-78166511D01*
X100072041Y-78740000D01*
X100186115Y-79313489D01*
X100510971Y-79799670D01*
X100825752Y-80010000D01*
X100510971Y-80220330D01*
X100186115Y-80706511D01*
X100072041Y-81280000D01*
X100186115Y-81853489D01*
X100510971Y-82339670D01*
X100825752Y-82550000D01*
X100510971Y-82760330D01*
X100186115Y-83246511D01*
X100072041Y-83820000D01*
X100186115Y-84393489D01*
X100510971Y-84879670D01*
X100825752Y-85090000D01*
X100510971Y-85300330D01*
X100186115Y-85786511D01*
X100072041Y-86360000D01*
X100186115Y-86933489D01*
X100510971Y-87419670D01*
X100825752Y-87630000D01*
X100510971Y-87840330D01*
X100186115Y-88326511D01*
X100072041Y-88900000D01*
X100186115Y-89473489D01*
X100510971Y-89959670D01*
X100825752Y-90170000D01*
X100510971Y-90380330D01*
X100186115Y-90866511D01*
X100072041Y-91440000D01*
X100186115Y-92013489D01*
X100510971Y-92499670D01*
X100825752Y-92710000D01*
X100510971Y-92920330D01*
X100186115Y-93406511D01*
X100072041Y-93980000D01*
X100186115Y-94553489D01*
X100510971Y-95039670D01*
X100825752Y-95250000D01*
X100510971Y-95460330D01*
X100186115Y-95946511D01*
X100072041Y-96520000D01*
X100186115Y-97093489D01*
X100510971Y-97579670D01*
X100825752Y-97790000D01*
X100510971Y-98000330D01*
X100186115Y-98486511D01*
X100072041Y-99060000D01*
X100186115Y-99633489D01*
X100510971Y-100119670D01*
X100825752Y-100330000D01*
X100510971Y-100540330D01*
X100186115Y-101026511D01*
X100072041Y-101600000D01*
X100186115Y-102173489D01*
X100510971Y-102659670D01*
X100825752Y-102870000D01*
X100510971Y-103080330D01*
X100186115Y-103566511D01*
X100072041Y-104140000D01*
X100186115Y-104713489D01*
X100510971Y-105199670D01*
X100825752Y-105410000D01*
X100510971Y-105620330D01*
X100186115Y-106106511D01*
X100072041Y-106680000D01*
X100186115Y-107253489D01*
X100510971Y-107739670D01*
X100825752Y-107950000D01*
X100510971Y-108160330D01*
X100186115Y-108646511D01*
X100072041Y-109220000D01*
X100186115Y-109793489D01*
X100510971Y-110279670D01*
X100825752Y-110490000D01*
X100510971Y-110700330D01*
X100186115Y-111186511D01*
X100072041Y-111760000D01*
X100088566Y-111843078D01*
X99745000Y-112186644D01*
X99745000Y-29025042D01*
X119655974Y-29025042D01*
X119240053Y-29197312D01*
X118808179Y-29591510D01*
X118560032Y-30120973D01*
X118680531Y-30353000D01*
X119888000Y-30353000D01*
X119888000Y-29146183D01*
X119655974Y-29025042D01*
X120374026Y-29025042D01*
X120142000Y-29146183D01*
X120142000Y-30353000D01*
X122428000Y-30353000D01*
X122428000Y-29146183D01*
X122195974Y-29025042D01*
X122914026Y-29025042D01*
X122682000Y-29146183D01*
X122682000Y-30353000D01*
X124968000Y-30353000D01*
X124968000Y-29146183D01*
X124735974Y-29025042D01*
X124320053Y-29197312D01*
X123888179Y-29591510D01*
X123825000Y-29726313D01*
X123761821Y-29591510D01*
X123329947Y-29197312D01*
X122914026Y-29025042D01*
X122195974Y-29025042D01*
X122195974Y-29025042D01*
X121780053Y-29197312D01*
X121348179Y-29591510D01*
X121285000Y-29726313D01*
X121221821Y-29591510D01*
X120789947Y-29197312D01*
X120374026Y-29025042D01*
X119655974Y-29025042D01*
X119655974Y-29025042D01*
X99745000Y-29025042D01*
X99745000Y-28981400D01*
X126645090Y-28981400D01*
X126411701Y-29078073D01*
X126233073Y-29256702D01*
X126151300Y-29454120D01*
X125869947Y-29197312D01*
X125454026Y-29025042D01*
X125222000Y-29146183D01*
X125222000Y-30353000D01*
X127508000Y-30353000D01*
X127508000Y-29140150D01*
X127349250Y-28981400D01*
X127920750Y-28981400D01*
X127762000Y-29140150D01*
X127762000Y-30353000D01*
X128974850Y-30353000D01*
X129133600Y-30194250D01*
X129133600Y-29490091D01*
X129036927Y-29256702D01*
X128858299Y-29078073D01*
X128624910Y-28981400D01*
X127920750Y-28981400D01*
X127349250Y-28981400D01*
X127349250Y-28981400D01*
X126645090Y-28981400D01*
X99745000Y-28981400D01*
X99745000Y-28625000D01*
X135205000Y-28625000D01*
X135205000Y-37891644D01*
X135205000Y-37891644D01*
G37*
X135205000Y-37891644D02*
X135205000Y-37891644D01*
X133223117Y-35909761D01*
X133350000Y-35935000D01*
X133736510Y-35858118D01*
X134064178Y-35639178D01*
X134283118Y-35311510D01*
X134360000Y-34925000D01*
X134283118Y-34538490D01*
X134064178Y-34210822D01*
X132159178Y-32305822D01*
X131831510Y-32086882D01*
X131445000Y-32010000D01*
X128747476Y-32010000D01*
X128704474Y-31945644D01*
X128858299Y-31881927D01*
X129036927Y-31703298D01*
X129133600Y-31469909D01*
X129133600Y-30765750D01*
X128974850Y-30607000D01*
X127762000Y-30607000D01*
X127762000Y-30627000D01*
X127508000Y-30627000D01*
X127508000Y-30607000D01*
X125222000Y-30607000D01*
X125222000Y-30627000D01*
X124968000Y-30627000D01*
X124968000Y-30607000D01*
X122682000Y-30607000D01*
X122682000Y-30627000D01*
X122428000Y-30627000D01*
X122428000Y-30607000D01*
X120142000Y-30607000D01*
X120142000Y-30627000D01*
X119888000Y-30627000D01*
X119888000Y-30607000D01*
X118680531Y-30607000D01*
X118560032Y-30839027D01*
X118808179Y-31368490D01*
X119226161Y-31750008D01*
X118955330Y-31930971D01*
X118630474Y-32417152D01*
X118516400Y-32990641D01*
X118516400Y-33049359D01*
X118630474Y-33622848D01*
X118955330Y-34109029D01*
X119441511Y-34433885D01*
X120015000Y-34547959D01*
X120588489Y-34433885D01*
X121074670Y-34109029D01*
X121127476Y-34030000D01*
X121442524Y-34030000D01*
X121495330Y-34109029D01*
X121545000Y-34142217D01*
X121545000Y-34925000D01*
X121621882Y-35311510D01*
X121840822Y-35639178D01*
X123110822Y-36909178D01*
X123438490Y-37128118D01*
X123825000Y-37205000D01*
X131661644Y-37205000D01*
X133476883Y-39020239D01*
X133350000Y-38995000D01*
X132963490Y-39071882D01*
X132635822Y-39290822D01*
X132416882Y-39618490D01*
X132340000Y-40005000D01*
X132340000Y-54235000D01*
X132080000Y-54235000D01*
X131693490Y-54311882D01*
X131570000Y-54394395D01*
X131570000Y-43180000D01*
X131545136Y-43055000D01*
X131512148Y-42889160D01*
X131347401Y-42642599D01*
X130077401Y-41372599D01*
X129830839Y-41207852D01*
X129540000Y-41150000D01*
X128408025Y-41150000D01*
X128473327Y-41084698D01*
X128570000Y-40851309D01*
X128570000Y-40035750D01*
X128411250Y-39877000D01*
X127762000Y-39877000D01*
X127762000Y-39897000D01*
X127508000Y-39897000D01*
X127508000Y-39877000D01*
X127488000Y-39877000D01*
X127488000Y-39623000D01*
X127508000Y-39623000D01*
X127508000Y-38298750D01*
X127349250Y-38140000D01*
X127920750Y-38140000D01*
X127762000Y-38298750D01*
X127762000Y-39623000D01*
X128411250Y-39623000D01*
X128570000Y-39464250D01*
X128570000Y-38648691D01*
X128473327Y-38415302D01*
X128294699Y-38236673D01*
X128061310Y-38140000D01*
X127920750Y-38140000D01*
X127349250Y-38140000D01*
X127349250Y-38140000D01*
X127208690Y-38140000D01*
X126991921Y-38229789D01*
X126914640Y-38177623D01*
X126665000Y-38127560D01*
X126065000Y-38127560D01*
X125822877Y-38174537D01*
X125730229Y-38235397D01*
X125644640Y-38177623D01*
X125395000Y-38127560D01*
X124795000Y-38127560D01*
X124552877Y-38174537D01*
X124460229Y-38235397D01*
X124374640Y-38177623D01*
X124125000Y-38127560D01*
X123525000Y-38127560D01*
X123282877Y-38174537D01*
X123190229Y-38235397D01*
X123104640Y-38177623D01*
X122855000Y-38127560D01*
X122255000Y-38127560D01*
X122012877Y-38174537D01*
X121920229Y-38235397D01*
X121834640Y-38177623D01*
X121585000Y-38127560D01*
X120985000Y-38127560D01*
X120742877Y-38174537D01*
X120650229Y-38235397D01*
X120564640Y-38177623D01*
X120315000Y-38127560D01*
X119715000Y-38127560D01*
X119472877Y-38174537D01*
X119380229Y-38235397D01*
X119294640Y-38177623D01*
X119045000Y-38127560D01*
X118445000Y-38127560D01*
X118202877Y-38174537D01*
X118118501Y-38229963D01*
X117901310Y-38140000D01*
X117760750Y-38140000D01*
X117602000Y-38298750D01*
X117602000Y-39623000D01*
X117622000Y-39623000D01*
X117622000Y-39877000D01*
X117602000Y-39877000D01*
X117602000Y-41201250D01*
X117760750Y-41360000D01*
X117901310Y-41360000D01*
X118118079Y-41270211D01*
X118195360Y-41322377D01*
X118445000Y-41372440D01*
X119045000Y-41372440D01*
X119287123Y-41325463D01*
X119379771Y-41264603D01*
X119465360Y-41322377D01*
X119715000Y-41372440D01*
X120315000Y-41372440D01*
X120557123Y-41325463D01*
X120649771Y-41264603D01*
X120735360Y-41322377D01*
X120985000Y-41372440D01*
X121585000Y-41372440D01*
X121827123Y-41325463D01*
X121919771Y-41264603D01*
X122005360Y-41322377D01*
X122255000Y-41372440D01*
X122855000Y-41372440D01*
X123097123Y-41325463D01*
X123189771Y-41264603D01*
X123275360Y-41322377D01*
X123525000Y-41372440D01*
X124125000Y-41372440D01*
X124345858Y-41329589D01*
X124392852Y-41565839D01*
X124557599Y-41812401D01*
X125827599Y-43082401D01*
X126074160Y-43247148D01*
X126365000Y-43305000D01*
X128590198Y-43305000D01*
X129415000Y-44129802D01*
X129415000Y-54394395D01*
X129291510Y-54311882D01*
X128905000Y-54235000D01*
X128539442Y-54235000D01*
X128569838Y-54161799D01*
X128570162Y-53789833D01*
X128428117Y-53446057D01*
X128165327Y-53182808D01*
X127821799Y-53040162D01*
X127449833Y-53039838D01*
X127328431Y-53090000D01*
X118469250Y-53090000D01*
X118326250Y-52947000D01*
X117602000Y-52947000D01*
X117602000Y-52967000D01*
X117348000Y-52967000D01*
X117348000Y-52947000D01*
X116623750Y-52947000D01*
X116526165Y-53044585D01*
X116455000Y-52973420D01*
X116455000Y-52436580D01*
X116465000Y-52426580D01*
X116465000Y-52534250D01*
X116623750Y-52693000D01*
X117348000Y-52693000D01*
X117348000Y-52673000D01*
X117602000Y-52673000D01*
X117602000Y-52693000D01*
X118326250Y-52693000D01*
X118485000Y-52534250D01*
X118485000Y-52293691D01*
X118388327Y-52060302D01*
X118387045Y-52059020D01*
X118447377Y-51969640D01*
X118497440Y-51720000D01*
X118497440Y-51627242D01*
X119079878Y-52209680D01*
X119079838Y-52255167D01*
X119221883Y-52598943D01*
X119484673Y-52862192D01*
X119828201Y-53004838D01*
X120200167Y-53005162D01*
X120543943Y-52863117D01*
X120807192Y-52600327D01*
X120949838Y-52256799D01*
X120950162Y-51884833D01*
X120808117Y-51541057D01*
X120545327Y-51277808D01*
X120201799Y-51135162D01*
X120154923Y-51135121D01*
X119792242Y-50772440D01*
X120315000Y-50772440D01*
X120557123Y-50725463D01*
X120649771Y-50664603D01*
X120735360Y-50722377D01*
X120985000Y-50772440D01*
X121585000Y-50772440D01*
X121827123Y-50725463D01*
X121919771Y-50664603D01*
X122005360Y-50722377D01*
X122255000Y-50772440D01*
X122855000Y-50772440D01*
X123097123Y-50725463D01*
X123189771Y-50664603D01*
X123275360Y-50722377D01*
X123525000Y-50772440D01*
X124125000Y-50772440D01*
X124335000Y-50731696D01*
X124335000Y-51507537D01*
X124302808Y-51539673D01*
X124160162Y-51883201D01*
X124159838Y-52255167D01*
X124301883Y-52598943D01*
X124564673Y-52862192D01*
X124908201Y-53004838D01*
X125280167Y-53005162D01*
X125623943Y-52863117D01*
X125729954Y-52757290D01*
X125834673Y-52862192D01*
X126178201Y-53004838D01*
X126550167Y-53005162D01*
X126893943Y-52863117D01*
X127157192Y-52600327D01*
X127299838Y-52256799D01*
X127300162Y-51884833D01*
X127158117Y-51541057D01*
X127125000Y-51507882D01*
X127125000Y-50725334D01*
X127208690Y-50760000D01*
X127349250Y-50760000D01*
X127508000Y-50601250D01*
X127508000Y-49277000D01*
X127762000Y-49277000D01*
X127762000Y-50601250D01*
X127920750Y-50760000D01*
X128061310Y-50760000D01*
X128294699Y-50663327D01*
X128473327Y-50484698D01*
X128570000Y-50251309D01*
X128570000Y-49435750D01*
X128411250Y-49277000D01*
X127762000Y-49277000D01*
X127508000Y-49277000D01*
X127508000Y-49277000D01*
X127488000Y-49277000D01*
X127488000Y-49023000D01*
X127508000Y-49023000D01*
X127508000Y-47698750D01*
X127349250Y-47540000D01*
X127920750Y-47540000D01*
X127762000Y-47698750D01*
X127762000Y-49023000D01*
X128411250Y-49023000D01*
X128570000Y-48864250D01*
X128570000Y-48048691D01*
X128473327Y-47815302D01*
X128294699Y-47636673D01*
X128061310Y-47540000D01*
X127920750Y-47540000D01*
X127349250Y-47540000D01*
X127349250Y-47540000D01*
X127208690Y-47540000D01*
X126991921Y-47629789D01*
X126914640Y-47577623D01*
X126665000Y-47527560D01*
X126065000Y-47527560D01*
X125822877Y-47574537D01*
X125730229Y-47635397D01*
X125644640Y-47577623D01*
X125395000Y-47527560D01*
X124795000Y-47527560D01*
X124585000Y-47568304D01*
X124585000Y-45720000D01*
X124527148Y-45429161D01*
X124527148Y-45429160D01*
X124362401Y-45182599D01*
X121822401Y-42642599D01*
X121575839Y-42477852D01*
X121285000Y-42420000D01*
X117154802Y-42420000D01*
X116107242Y-41372440D01*
X116505000Y-41372440D01*
X116747123Y-41325463D01*
X116831499Y-41270037D01*
X117048690Y-41360000D01*
X117189250Y-41360000D01*
X117348000Y-41201250D01*
X117348000Y-39877000D01*
X117328000Y-39877000D01*
X117328000Y-39623000D01*
X117348000Y-39623000D01*
X117348000Y-38298750D01*
X117189250Y-38140000D01*
X117048690Y-38140000D01*
X116831921Y-38229789D01*
X116754640Y-38177623D01*
X116505000Y-38127560D01*
X115905000Y-38127560D01*
X115662877Y-38174537D01*
X115450073Y-38314327D01*
X115307623Y-38525360D01*
X115257560Y-38775000D01*
X115257560Y-40522758D01*
X105947401Y-31212599D01*
X105700839Y-31047852D01*
X105432215Y-30994419D01*
X105229029Y-30690330D01*
X104742848Y-30365474D01*
X104169359Y-30251400D01*
X104110641Y-30251400D01*
X103537152Y-30365474D01*
X103050971Y-30690330D01*
X102870000Y-30961172D01*
X102689029Y-30690330D01*
X102202848Y-30365474D01*
X101629359Y-30251400D01*
X101570641Y-30251400D01*
X100997152Y-30365474D01*
X100510971Y-30690330D01*
X100186115Y-31176511D01*
X100072041Y-31750000D01*
X100186115Y-32323489D01*
X100510971Y-32809670D01*
X100825752Y-33020000D01*
X100510971Y-33230330D01*
X100186115Y-33716511D01*
X100072041Y-34290000D01*
X100186115Y-34863489D01*
X100510971Y-35349670D01*
X100825752Y-35560000D01*
X100510971Y-35770330D01*
X100186115Y-36256511D01*
X100072041Y-36830000D01*
X100186115Y-37403489D01*
X100510971Y-37889670D01*
X100825752Y-38100000D01*
X100510971Y-38310330D01*
X100186115Y-38796511D01*
X100072041Y-39370000D01*
X100186115Y-39943489D01*
X100510971Y-40429670D01*
X100825752Y-40640000D01*
X100510971Y-40850330D01*
X100186115Y-41336511D01*
X100072041Y-41910000D01*
X100186115Y-42483489D01*
X100510971Y-42969670D01*
X100825752Y-43180000D01*
X100510971Y-43390330D01*
X100186115Y-43876511D01*
X100072041Y-44450000D01*
X100186115Y-45023489D01*
X100510971Y-45509670D01*
X100825752Y-45720000D01*
X100510971Y-45930330D01*
X100186115Y-46416511D01*
X100072041Y-46990000D01*
X100186115Y-47563489D01*
X100510971Y-48049670D01*
X100590000Y-48102476D01*
X100590000Y-48211314D01*
X100666882Y-48597824D01*
X100885822Y-48925492D01*
X103474508Y-51514178D01*
X103802176Y-51733118D01*
X104188686Y-51810000D01*
X105410000Y-51810000D01*
X105796510Y-51733118D01*
X105920000Y-51650605D01*
X105920000Y-64135000D01*
X105977852Y-64425839D01*
X106142599Y-64672401D01*
X108020198Y-66550000D01*
X105566514Y-66550000D01*
X105667959Y-66040000D01*
X105553885Y-65466511D01*
X105229029Y-64980330D01*
X104914248Y-64770000D01*
X105229029Y-64559670D01*
X105553885Y-64073489D01*
X105667959Y-63500000D01*
X105553885Y-62926511D01*
X105229029Y-62440330D01*
X104914248Y-62230000D01*
X105229029Y-62019670D01*
X105553885Y-61533489D01*
X105667959Y-60960000D01*
X105553885Y-60386511D01*
X105229029Y-59900330D01*
X104914248Y-59690000D01*
X105229029Y-59479670D01*
X105553885Y-58993489D01*
X105667959Y-58420000D01*
X105553885Y-57846511D01*
X105229029Y-57360330D01*
X104914248Y-57150000D01*
X105229029Y-56939670D01*
X105553885Y-56453489D01*
X105667959Y-55880000D01*
X105553885Y-55306511D01*
X105229029Y-54820330D01*
X104914248Y-54610000D01*
X105229029Y-54399670D01*
X105553885Y-53913489D01*
X105667959Y-53340000D01*
X105553885Y-52766511D01*
X105229029Y-52280330D01*
X104742848Y-51955474D01*
X104169359Y-51841400D01*
X104110641Y-51841400D01*
X103537152Y-51955474D01*
X103050971Y-52280330D01*
X102870000Y-52551172D01*
X102689029Y-52280330D01*
X102202848Y-51955474D01*
X101629359Y-51841400D01*
X101570641Y-51841400D01*
X100997152Y-51955474D01*
X100510971Y-52280330D01*
X100186115Y-52766511D01*
X100072041Y-53340000D01*
X100186115Y-53913489D01*
X100510971Y-54399670D01*
X100825752Y-54610000D01*
X100510971Y-54820330D01*
X100186115Y-55306511D01*
X100072041Y-55880000D01*
X100186115Y-56453489D01*
X100510971Y-56939670D01*
X100825752Y-57150000D01*
X100510971Y-57360330D01*
X100186115Y-57846511D01*
X100072041Y-58420000D01*
X100186115Y-58993489D01*
X100510971Y-59479670D01*
X100825752Y-59690000D01*
X100510971Y-59900330D01*
X100186115Y-60386511D01*
X100072041Y-60960000D01*
X100186115Y-61533489D01*
X100510971Y-62019670D01*
X100825752Y-62230000D01*
X100510971Y-62440330D01*
X100186115Y-62926511D01*
X100072041Y-63500000D01*
X100186115Y-64073489D01*
X100510971Y-64559670D01*
X100825752Y-64770000D01*
X100510971Y-64980330D01*
X100186115Y-65466511D01*
X100072041Y-66040000D01*
X100186115Y-66613489D01*
X100510971Y-67099670D01*
X100825752Y-67310000D01*
X100510971Y-67520330D01*
X100186115Y-68006511D01*
X100072041Y-68580000D01*
X100186115Y-69153489D01*
X100510971Y-69639670D01*
X100825752Y-69850000D01*
X100510971Y-70060330D01*
X100186115Y-70546511D01*
X100072041Y-71120000D01*
X100186115Y-71693489D01*
X100510971Y-72179670D01*
X100825752Y-72390000D01*
X100510971Y-72600330D01*
X100186115Y-73086511D01*
X100072041Y-73660000D01*
X100186115Y-74233489D01*
X100510971Y-74719670D01*
X100825752Y-74930000D01*
X100510971Y-75140330D01*
X100186115Y-75626511D01*
X100072041Y-76200000D01*
X100186115Y-76773489D01*
X100510971Y-77259670D01*
X100825752Y-77470000D01*
X100510971Y-77680330D01*
X100186115Y-78166511D01*
X100072041Y-78740000D01*
X100186115Y-79313489D01*
X100510971Y-79799670D01*
X100825752Y-80010000D01*
X100510971Y-80220330D01*
X100186115Y-80706511D01*
X100072041Y-81280000D01*
X100186115Y-81853489D01*
X100510971Y-82339670D01*
X100825752Y-82550000D01*
X100510971Y-82760330D01*
X100186115Y-83246511D01*
X100072041Y-83820000D01*
X100186115Y-84393489D01*
X100510971Y-84879670D01*
X100825752Y-85090000D01*
X100510971Y-85300330D01*
X100186115Y-85786511D01*
X100072041Y-86360000D01*
X100186115Y-86933489D01*
X100510971Y-87419670D01*
X100825752Y-87630000D01*
X100510971Y-87840330D01*
X100186115Y-88326511D01*
X100072041Y-88900000D01*
X100186115Y-89473489D01*
X100510971Y-89959670D01*
X100825752Y-90170000D01*
X100510971Y-90380330D01*
X100186115Y-90866511D01*
X100072041Y-91440000D01*
X100186115Y-92013489D01*
X100510971Y-92499670D01*
X100825752Y-92710000D01*
X100510971Y-92920330D01*
X100186115Y-93406511D01*
X100072041Y-93980000D01*
X100186115Y-94553489D01*
X100510971Y-95039670D01*
X100825752Y-95250000D01*
X100510971Y-95460330D01*
X100186115Y-95946511D01*
X100072041Y-96520000D01*
X100186115Y-97093489D01*
X100510971Y-97579670D01*
X100825752Y-97790000D01*
X100510971Y-98000330D01*
X100186115Y-98486511D01*
X100072041Y-99060000D01*
X100186115Y-99633489D01*
X100510971Y-100119670D01*
X100825752Y-100330000D01*
X100510971Y-100540330D01*
X100186115Y-101026511D01*
X100072041Y-101600000D01*
X100186115Y-102173489D01*
X100510971Y-102659670D01*
X100825752Y-102870000D01*
X100510971Y-103080330D01*
X100186115Y-103566511D01*
X100072041Y-104140000D01*
X100186115Y-104713489D01*
X100510971Y-105199670D01*
X100825752Y-105410000D01*
X100510971Y-105620330D01*
X100186115Y-106106511D01*
X100072041Y-106680000D01*
X100186115Y-107253489D01*
X100510971Y-107739670D01*
X100825752Y-107950000D01*
X100510971Y-108160330D01*
X100186115Y-108646511D01*
X100072041Y-109220000D01*
X100186115Y-109793489D01*
X100510971Y-110279670D01*
X100825752Y-110490000D01*
X100510971Y-110700330D01*
X100186115Y-111186511D01*
X100072041Y-111760000D01*
X100088566Y-111843078D01*
X99745000Y-112186644D01*
X99745000Y-29025042D01*
X119655974Y-29025042D01*
X119240053Y-29197312D01*
X118808179Y-29591510D01*
X118560032Y-30120973D01*
X118680531Y-30353000D01*
X119888000Y-30353000D01*
X119888000Y-29146183D01*
X119655974Y-29025042D01*
X120374026Y-29025042D01*
X120142000Y-29146183D01*
X120142000Y-30353000D01*
X122428000Y-30353000D01*
X122428000Y-29146183D01*
X122195974Y-29025042D01*
X122914026Y-29025042D01*
X122682000Y-29146183D01*
X122682000Y-30353000D01*
X124968000Y-30353000D01*
X124968000Y-29146183D01*
X124735974Y-29025042D01*
X124320053Y-29197312D01*
X123888179Y-29591510D01*
X123825000Y-29726313D01*
X123761821Y-29591510D01*
X123329947Y-29197312D01*
X122914026Y-29025042D01*
X122195974Y-29025042D01*
X122195974Y-29025042D01*
X121780053Y-29197312D01*
X121348179Y-29591510D01*
X121285000Y-29726313D01*
X121221821Y-29591510D01*
X120789947Y-29197312D01*
X120374026Y-29025042D01*
X119655974Y-29025042D01*
X119655974Y-29025042D01*
X99745000Y-29025042D01*
X99745000Y-28981400D01*
X126645090Y-28981400D01*
X126411701Y-29078073D01*
X126233073Y-29256702D01*
X126151300Y-29454120D01*
X125869947Y-29197312D01*
X125454026Y-29025042D01*
X125222000Y-29146183D01*
X125222000Y-30353000D01*
X127508000Y-30353000D01*
X127508000Y-29140150D01*
X127349250Y-28981400D01*
X127920750Y-28981400D01*
X127762000Y-29140150D01*
X127762000Y-30353000D01*
X128974850Y-30353000D01*
X129133600Y-30194250D01*
X129133600Y-29490091D01*
X129036927Y-29256702D01*
X128858299Y-29078073D01*
X128624910Y-28981400D01*
X127920750Y-28981400D01*
X127349250Y-28981400D01*
X127349250Y-28981400D01*
X126645090Y-28981400D01*
X99745000Y-28981400D01*
X99745000Y-28625000D01*
X135205000Y-28625000D01*
X135205000Y-37891644D01*
G36*
X131195000Y-100696579D02*
X131195000Y-100696579D01*
X131195000Y-103138421D01*
X131078420Y-103255000D01*
X130744557Y-103255000D01*
X130746500Y-103250309D01*
X130746500Y-103155750D01*
X130587750Y-102997000D01*
X129667000Y-102997000D01*
X129667000Y-103017000D01*
X129413000Y-103017000D01*
X129413000Y-102997000D01*
X128492250Y-102997000D01*
X128333500Y-103155750D01*
X128333500Y-103250309D01*
X128430173Y-103483698D01*
X128456441Y-103509966D01*
X128371123Y-103636360D01*
X128321060Y-103886000D01*
X128321060Y-104394000D01*
X128368037Y-104636123D01*
X128456176Y-104770299D01*
X128430173Y-104796302D01*
X128333500Y-105029691D01*
X128333500Y-105124250D01*
X128492250Y-105283000D01*
X129413000Y-105283000D01*
X129413000Y-105263000D01*
X129667000Y-105263000D01*
X129667000Y-105283000D01*
X130587750Y-105283000D01*
X130746500Y-105124250D01*
X130746500Y-105029691D01*
X130744557Y-105025000D01*
X131444995Y-105025000D01*
X131445000Y-105025001D01*
X131727484Y-104968810D01*
X131783675Y-104957633D01*
X132070790Y-104765790D01*
X132465000Y-104371579D01*
X132465000Y-105103178D01*
X132415162Y-105223201D01*
X132414838Y-105595167D01*
X132497407Y-105795000D01*
X130744557Y-105795000D01*
X130746500Y-105790309D01*
X130746500Y-105695750D01*
X130587750Y-105537000D01*
X129667000Y-105537000D01*
X129667000Y-105557000D01*
X129413000Y-105557000D01*
X129413000Y-105537000D01*
X128492250Y-105537000D01*
X128333500Y-105695750D01*
X128333500Y-105790309D01*
X128430173Y-106023698D01*
X128456441Y-106049966D01*
X128371123Y-106176360D01*
X128321060Y-106426000D01*
X128321060Y-106934000D01*
X128368037Y-107176123D01*
X128507827Y-107388927D01*
X128718860Y-107531377D01*
X128968500Y-107581440D01*
X130111500Y-107581440D01*
X130196233Y-107565000D01*
X132497463Y-107565000D01*
X132415162Y-107763201D01*
X132414838Y-108135167D01*
X132453846Y-108229575D01*
X131078420Y-109605000D01*
X124766822Y-109605000D01*
X124646799Y-109555162D01*
X124274833Y-109554838D01*
X123931057Y-109696883D01*
X123667808Y-109959673D01*
X123525162Y-110303201D01*
X123524838Y-110675167D01*
X123555758Y-110750000D01*
X122994608Y-110750000D01*
X122979530Y-110734922D01*
X123324271Y-110544636D01*
X123675956Y-109663409D01*
X123663641Y-108714677D01*
X123324271Y-107895364D01*
X122979530Y-107705078D01*
X123092534Y-107592074D01*
X123081900Y-107581440D01*
X123761500Y-107581440D01*
X124003623Y-107534463D01*
X124216427Y-107394673D01*
X124358877Y-107183640D01*
X124408940Y-106934000D01*
X124408940Y-106426000D01*
X124361963Y-106183877D01*
X124352847Y-106170000D01*
X125095000Y-106170000D01*
X125385839Y-106112148D01*
X125632401Y-105947401D01*
X126382401Y-105197401D01*
X126547148Y-104950840D01*
X126605000Y-104660000D01*
X126605000Y-101981000D01*
X128842190Y-101981000D01*
X128608801Y-102077673D01*
X128430173Y-102256302D01*
X128333500Y-102489691D01*
X128333500Y-102584250D01*
X128492250Y-102743000D01*
X129413000Y-102743000D01*
X129413000Y-102139750D01*
X129254250Y-101981000D01*
X129825750Y-101981000D01*
X129667000Y-102139750D01*
X129667000Y-102743000D01*
X130587750Y-102743000D01*
X130746500Y-102584250D01*
X130746500Y-102489691D01*
X130649827Y-102256302D01*
X130471199Y-102077673D01*
X130237810Y-101981000D01*
X129825750Y-101981000D01*
X129254250Y-101981000D01*
X129254250Y-101981000D01*
X128842190Y-101981000D01*
X126605000Y-101981000D01*
X126605000Y-101794085D01*
X126692377Y-101664640D01*
X126702845Y-101612440D01*
X129159000Y-101612440D01*
X129401123Y-101565463D01*
X129613927Y-101425673D01*
X129756377Y-101214640D01*
X129803945Y-100977440D01*
X130556000Y-100977440D01*
X130798123Y-100930463D01*
X131010927Y-100790673D01*
X131123025Y-100624605D01*
X131195000Y-100696579D01*
X131195000Y-100696579D01*
G37*
X131195000Y-100696579D02*
X131195000Y-100696579D01*
X131195000Y-103138421D01*
X131078420Y-103255000D01*
X130744557Y-103255000D01*
X130746500Y-103250309D01*
X130746500Y-103155750D01*
X130587750Y-102997000D01*
X129667000Y-102997000D01*
X129667000Y-103017000D01*
X129413000Y-103017000D01*
X129413000Y-102997000D01*
X128492250Y-102997000D01*
X128333500Y-103155750D01*
X128333500Y-103250309D01*
X128430173Y-103483698D01*
X128456441Y-103509966D01*
X128371123Y-103636360D01*
X128321060Y-103886000D01*
X128321060Y-104394000D01*
X128368037Y-104636123D01*
X128456176Y-104770299D01*
X128430173Y-104796302D01*
X128333500Y-105029691D01*
X128333500Y-105124250D01*
X128492250Y-105283000D01*
X129413000Y-105283000D01*
X129413000Y-105263000D01*
X129667000Y-105263000D01*
X129667000Y-105283000D01*
X130587750Y-105283000D01*
X130746500Y-105124250D01*
X130746500Y-105029691D01*
X130744557Y-105025000D01*
X131444995Y-105025000D01*
X131445000Y-105025001D01*
X131727484Y-104968810D01*
X131783675Y-104957633D01*
X132070790Y-104765790D01*
X132465000Y-104371579D01*
X132465000Y-105103178D01*
X132415162Y-105223201D01*
X132414838Y-105595167D01*
X132497407Y-105795000D01*
X130744557Y-105795000D01*
X130746500Y-105790309D01*
X130746500Y-105695750D01*
X130587750Y-105537000D01*
X129667000Y-105537000D01*
X129667000Y-105557000D01*
X129413000Y-105557000D01*
X129413000Y-105537000D01*
X128492250Y-105537000D01*
X128333500Y-105695750D01*
X128333500Y-105790309D01*
X128430173Y-106023698D01*
X128456441Y-106049966D01*
X128371123Y-106176360D01*
X128321060Y-106426000D01*
X128321060Y-106934000D01*
X128368037Y-107176123D01*
X128507827Y-107388927D01*
X128718860Y-107531377D01*
X128968500Y-107581440D01*
X130111500Y-107581440D01*
X130196233Y-107565000D01*
X132497463Y-107565000D01*
X132415162Y-107763201D01*
X132414838Y-108135167D01*
X132453846Y-108229575D01*
X131078420Y-109605000D01*
X124766822Y-109605000D01*
X124646799Y-109555162D01*
X124274833Y-109554838D01*
X123931057Y-109696883D01*
X123667808Y-109959673D01*
X123525162Y-110303201D01*
X123524838Y-110675167D01*
X123555758Y-110750000D01*
X122994608Y-110750000D01*
X122979530Y-110734922D01*
X123324271Y-110544636D01*
X123675956Y-109663409D01*
X123663641Y-108714677D01*
X123324271Y-107895364D01*
X122979530Y-107705078D01*
X123092534Y-107592074D01*
X123081900Y-107581440D01*
X123761500Y-107581440D01*
X124003623Y-107534463D01*
X124216427Y-107394673D01*
X124358877Y-107183640D01*
X124408940Y-106934000D01*
X124408940Y-106426000D01*
X124361963Y-106183877D01*
X124352847Y-106170000D01*
X125095000Y-106170000D01*
X125385839Y-106112148D01*
X125632401Y-105947401D01*
X126382401Y-105197401D01*
X126547148Y-104950840D01*
X126605000Y-104660000D01*
X126605000Y-101981000D01*
X128842190Y-101981000D01*
X128608801Y-102077673D01*
X128430173Y-102256302D01*
X128333500Y-102489691D01*
X128333500Y-102584250D01*
X128492250Y-102743000D01*
X129413000Y-102743000D01*
X129413000Y-102139750D01*
X129254250Y-101981000D01*
X129825750Y-101981000D01*
X129667000Y-102139750D01*
X129667000Y-102743000D01*
X130587750Y-102743000D01*
X130746500Y-102584250D01*
X130746500Y-102489691D01*
X130649827Y-102256302D01*
X130471199Y-102077673D01*
X130237810Y-101981000D01*
X129825750Y-101981000D01*
X129254250Y-101981000D01*
X129254250Y-101981000D01*
X128842190Y-101981000D01*
X126605000Y-101981000D01*
X126605000Y-101794085D01*
X126692377Y-101664640D01*
X126702845Y-101612440D01*
X129159000Y-101612440D01*
X129401123Y-101565463D01*
X129613927Y-101425673D01*
X129756377Y-101214640D01*
X129803945Y-100977440D01*
X130556000Y-100977440D01*
X130798123Y-100930463D01*
X131010927Y-100790673D01*
X131123025Y-100624605D01*
X131195000Y-100696579D01*
G36*
X121478748Y-109205858D02*
X121464605Y-109220000D01*
X121478748Y-109234143D01*
X121299143Y-109413748D01*
X121285000Y-109399605D01*
X121270858Y-109413748D01*
X121091253Y-109234143D01*
X121105395Y-109220000D01*
X121091253Y-109205858D01*
X121270858Y-109026253D01*
X121285000Y-109040395D01*
X121299143Y-109026253D01*
X121478748Y-109205858D01*
X121478748Y-109205858D01*
G37*
X121478748Y-109205858D02*
X121464605Y-109220000D01*
X121478748Y-109234143D01*
X121299143Y-109413748D01*
X121285000Y-109399605D01*
X121270858Y-109413748D01*
X121091253Y-109234143D01*
X121105395Y-109220000D01*
X121091253Y-109205858D01*
X121270858Y-109026253D01*
X121285000Y-109040395D01*
X121299143Y-109026253D01*
X121478748Y-109205858D01*
G36*
X131195000Y-74680000D02*
X131195000Y-74680000D01*
X125401822Y-74680000D01*
X125281799Y-74630162D01*
X125199712Y-74630090D01*
X125234680Y-74595122D01*
X125280167Y-74595162D01*
X125623943Y-74453117D01*
X125887192Y-74190327D01*
X126029838Y-73846799D01*
X126030162Y-73474833D01*
X125888117Y-73131057D01*
X125877699Y-73120621D01*
X126020839Y-73092148D01*
X126267401Y-72927401D01*
X126902401Y-72292401D01*
X127067148Y-72045839D01*
X127125000Y-71755000D01*
X127125000Y-71045334D01*
X127208690Y-71080000D01*
X127349250Y-71080000D01*
X127508000Y-70921250D01*
X127508000Y-69597000D01*
X127762000Y-69597000D01*
X127762000Y-70921250D01*
X127920750Y-71080000D01*
X128061310Y-71080000D01*
X128294699Y-70983327D01*
X128473327Y-70804698D01*
X128570000Y-70571309D01*
X128570000Y-69755750D01*
X128411250Y-69597000D01*
X127762000Y-69597000D01*
X127508000Y-69597000D01*
X127508000Y-69597000D01*
X127488000Y-69597000D01*
X127488000Y-69343000D01*
X127508000Y-69343000D01*
X127508000Y-69323000D01*
X127762000Y-69323000D01*
X127762000Y-69343000D01*
X128411250Y-69343000D01*
X128570000Y-69184250D01*
X128570000Y-68368691D01*
X128473327Y-68135302D01*
X128294699Y-67956673D01*
X128130954Y-67888848D01*
X131195000Y-64824802D01*
X131195000Y-74680000D01*
X131195000Y-74680000D01*
G37*
X131195000Y-74680000D02*
X131195000Y-74680000D01*
X125401822Y-74680000D01*
X125281799Y-74630162D01*
X125199712Y-74630090D01*
X125234680Y-74595122D01*
X125280167Y-74595162D01*
X125623943Y-74453117D01*
X125887192Y-74190327D01*
X126029838Y-73846799D01*
X126030162Y-73474833D01*
X125888117Y-73131057D01*
X125877699Y-73120621D01*
X126020839Y-73092148D01*
X126267401Y-72927401D01*
X126902401Y-72292401D01*
X127067148Y-72045839D01*
X127125000Y-71755000D01*
X127125000Y-71045334D01*
X127208690Y-71080000D01*
X127349250Y-71080000D01*
X127508000Y-70921250D01*
X127508000Y-69597000D01*
X127762000Y-69597000D01*
X127762000Y-70921250D01*
X127920750Y-71080000D01*
X128061310Y-71080000D01*
X128294699Y-70983327D01*
X128473327Y-70804698D01*
X128570000Y-70571309D01*
X128570000Y-69755750D01*
X128411250Y-69597000D01*
X127762000Y-69597000D01*
X127508000Y-69597000D01*
X127508000Y-69597000D01*
X127488000Y-69597000D01*
X127488000Y-69343000D01*
X127508000Y-69343000D01*
X127508000Y-69323000D01*
X127762000Y-69323000D01*
X127762000Y-69343000D01*
X128411250Y-69343000D01*
X128570000Y-69184250D01*
X128570000Y-68368691D01*
X128473327Y-68135302D01*
X128294699Y-67956673D01*
X128130954Y-67888848D01*
X131195000Y-64824802D01*
X131195000Y-74680000D01*
G36*
X115307623Y-68245360D02*
X115257560Y-68495000D01*
X115257560Y-70445000D01*
X115304537Y-70687123D01*
X115444327Y-70899927D01*
X115655360Y-71042377D01*
X115905000Y-71092440D01*
X116482152Y-71092440D01*
X116452560Y-71240000D01*
X116452560Y-72040000D01*
X116499537Y-72282123D01*
X116563096Y-72378879D01*
X116561673Y-72380302D01*
X116465000Y-72613691D01*
X116465000Y-72854250D01*
X116623750Y-73013000D01*
X117348000Y-73013000D01*
X117348000Y-72993000D01*
X117602000Y-72993000D01*
X117602000Y-73013000D01*
X118326250Y-73013000D01*
X118485000Y-72854250D01*
X118485000Y-72613691D01*
X118448263Y-72525000D01*
X120803420Y-72525000D01*
X121077255Y-72798835D01*
X121126883Y-72918943D01*
X121389673Y-73182192D01*
X121733201Y-73324838D01*
X121815288Y-73324910D01*
X121605198Y-73535000D01*
X118485000Y-73535000D01*
X118485000Y-73425750D01*
X118326250Y-73267000D01*
X117602000Y-73267000D01*
X117602000Y-73287000D01*
X117348000Y-73287000D01*
X117348000Y-73267000D01*
X116623750Y-73267000D01*
X116465000Y-73425750D01*
X116465000Y-73535000D01*
X109784802Y-73535000D01*
X113895402Y-69424400D01*
X114113201Y-69514838D01*
X114485167Y-69515162D01*
X114828943Y-69373117D01*
X115092192Y-69110327D01*
X115234838Y-68766799D01*
X115235162Y-68394833D01*
X115100944Y-68070000D01*
X115425993Y-68070000D01*
X115307623Y-68245360D01*
X115307623Y-68245360D01*
G37*
X115307623Y-68245360D02*
X115257560Y-68495000D01*
X115257560Y-70445000D01*
X115304537Y-70687123D01*
X115444327Y-70899927D01*
X115655360Y-71042377D01*
X115905000Y-71092440D01*
X116482152Y-71092440D01*
X116452560Y-71240000D01*
X116452560Y-72040000D01*
X116499537Y-72282123D01*
X116563096Y-72378879D01*
X116561673Y-72380302D01*
X116465000Y-72613691D01*
X116465000Y-72854250D01*
X116623750Y-73013000D01*
X117348000Y-73013000D01*
X117348000Y-72993000D01*
X117602000Y-72993000D01*
X117602000Y-73013000D01*
X118326250Y-73013000D01*
X118485000Y-72854250D01*
X118485000Y-72613691D01*
X118448263Y-72525000D01*
X120803420Y-72525000D01*
X121077255Y-72798835D01*
X121126883Y-72918943D01*
X121389673Y-73182192D01*
X121733201Y-73324838D01*
X121815288Y-73324910D01*
X121605198Y-73535000D01*
X118485000Y-73535000D01*
X118485000Y-73425750D01*
X118326250Y-73267000D01*
X117602000Y-73267000D01*
X117602000Y-73287000D01*
X117348000Y-73287000D01*
X117348000Y-73267000D01*
X116623750Y-73267000D01*
X116465000Y-73425750D01*
X116465000Y-73535000D01*
X109784802Y-73535000D01*
X113895402Y-69424400D01*
X114113201Y-69514838D01*
X114485167Y-69515162D01*
X114828943Y-69373117D01*
X115092192Y-69110327D01*
X115234838Y-68766799D01*
X115235162Y-68394833D01*
X115100944Y-68070000D01*
X115425993Y-68070000D01*
X115307623Y-68245360D01*
G36*
X129874838Y-59240167D02*
X129874838Y-59240167D01*
X130016883Y-59583943D01*
X130122710Y-59689954D01*
X130017808Y-59794673D01*
X129893378Y-60094332D01*
X129726799Y-60025162D01*
X129354833Y-60024838D01*
X129011057Y-60166883D01*
X128747808Y-60429673D01*
X128605162Y-60773201D01*
X128604838Y-61145167D01*
X128746883Y-61488943D01*
X128780000Y-61522118D01*
X128780000Y-63820198D01*
X124742440Y-67857758D01*
X124552877Y-67894537D01*
X124460229Y-67955397D01*
X124374640Y-67897623D01*
X124177988Y-67858186D01*
X123118461Y-66798659D01*
X123347192Y-66570327D01*
X123489838Y-66226799D01*
X123489879Y-66179923D01*
X126902401Y-62767401D01*
X127067148Y-62520839D01*
X127125000Y-62230000D01*
X127125000Y-61645334D01*
X127208690Y-61680000D01*
X127349250Y-61680000D01*
X127508000Y-61521250D01*
X127508000Y-60197000D01*
X127762000Y-60197000D01*
X127762000Y-61521250D01*
X127920750Y-61680000D01*
X128061310Y-61680000D01*
X128294699Y-61583327D01*
X128473327Y-61404698D01*
X128570000Y-61171309D01*
X128570000Y-60355750D01*
X128411250Y-60197000D01*
X127762000Y-60197000D01*
X127508000Y-60197000D01*
X127508000Y-60197000D01*
X127488000Y-60197000D01*
X127488000Y-59943000D01*
X127508000Y-59943000D01*
X127508000Y-59923000D01*
X127762000Y-59923000D01*
X127762000Y-59943000D01*
X128411250Y-59943000D01*
X128570000Y-59784250D01*
X128570000Y-59180000D01*
X129540000Y-59180000D01*
X129830839Y-59122148D01*
X129874966Y-59092663D01*
X129874838Y-59240167D01*
X129874838Y-59240167D01*
G37*
X129874838Y-59240167D02*
X129874838Y-59240167D01*
X130016883Y-59583943D01*
X130122710Y-59689954D01*
X130017808Y-59794673D01*
X129893378Y-60094332D01*
X129726799Y-60025162D01*
X129354833Y-60024838D01*
X129011057Y-60166883D01*
X128747808Y-60429673D01*
X128605162Y-60773201D01*
X128604838Y-61145167D01*
X128746883Y-61488943D01*
X128780000Y-61522118D01*
X128780000Y-63820198D01*
X124742440Y-67857758D01*
X124552877Y-67894537D01*
X124460229Y-67955397D01*
X124374640Y-67897623D01*
X124177988Y-67858186D01*
X123118461Y-66798659D01*
X123347192Y-66570327D01*
X123489838Y-66226799D01*
X123489879Y-66179923D01*
X126902401Y-62767401D01*
X127067148Y-62520839D01*
X127125000Y-62230000D01*
X127125000Y-61645334D01*
X127208690Y-61680000D01*
X127349250Y-61680000D01*
X127508000Y-61521250D01*
X127508000Y-60197000D01*
X127762000Y-60197000D01*
X127762000Y-61521250D01*
X127920750Y-61680000D01*
X128061310Y-61680000D01*
X128294699Y-61583327D01*
X128473327Y-61404698D01*
X128570000Y-61171309D01*
X128570000Y-60355750D01*
X128411250Y-60197000D01*
X127762000Y-60197000D01*
X127508000Y-60197000D01*
X127508000Y-60197000D01*
X127488000Y-60197000D01*
X127488000Y-59943000D01*
X127508000Y-59943000D01*
X127508000Y-59923000D01*
X127762000Y-59923000D01*
X127762000Y-59943000D01*
X128411250Y-59943000D01*
X128570000Y-59784250D01*
X128570000Y-59180000D01*
X129540000Y-59180000D01*
X129830839Y-59122148D01*
X129874966Y-59092663D01*
X129874838Y-59240167D01*
G36*
X114220822Y-55959178D02*
X114548489Y-56178118D01*
X114935000Y-56255000D01*
X119110558Y-56255000D01*
X119080162Y-56328201D01*
X119080121Y-56375077D01*
X118207599Y-57247599D01*
X118042852Y-57494161D01*
X117985000Y-57785000D01*
X117985000Y-58494666D01*
X117901310Y-58460000D01*
X117760750Y-58460000D01*
X117602000Y-58618750D01*
X117602000Y-59943000D01*
X117622000Y-59943000D01*
X117622000Y-60197000D01*
X117602000Y-60197000D01*
X117602000Y-60217000D01*
X117348000Y-60217000D01*
X117348000Y-60197000D01*
X117328000Y-60197000D01*
X117328000Y-59943000D01*
X117348000Y-59943000D01*
X117348000Y-58618750D01*
X117189250Y-58460000D01*
X117048690Y-58460000D01*
X116831921Y-58549789D01*
X116754640Y-58497623D01*
X116505000Y-58447560D01*
X115905000Y-58447560D01*
X115662877Y-58494537D01*
X115450073Y-58634327D01*
X115307623Y-58845360D01*
X115257560Y-59095000D01*
X115257560Y-60835000D01*
X113344802Y-60835000D01*
X111885000Y-59375198D01*
X111885000Y-53623356D01*
X114220822Y-55959178D01*
X114220822Y-55959178D01*
G37*
X114220822Y-55959178D02*
X114548489Y-56178118D01*
X114935000Y-56255000D01*
X119110558Y-56255000D01*
X119080162Y-56328201D01*
X119080121Y-56375077D01*
X118207599Y-57247599D01*
X118042852Y-57494161D01*
X117985000Y-57785000D01*
X117985000Y-58494666D01*
X117901310Y-58460000D01*
X117760750Y-58460000D01*
X117602000Y-58618750D01*
X117602000Y-59943000D01*
X117622000Y-59943000D01*
X117622000Y-60197000D01*
X117602000Y-60197000D01*
X117602000Y-60217000D01*
X117348000Y-60217000D01*
X117348000Y-60197000D01*
X117328000Y-60197000D01*
X117328000Y-59943000D01*
X117348000Y-59943000D01*
X117348000Y-58618750D01*
X117189250Y-58460000D01*
X117048690Y-58460000D01*
X116831921Y-58549789D01*
X116754640Y-58497623D01*
X116505000Y-58447560D01*
X115905000Y-58447560D01*
X115662877Y-58494537D01*
X115450073Y-58634327D01*
X115307623Y-58845360D01*
X115257560Y-59095000D01*
X115257560Y-60835000D01*
X113344802Y-60835000D01*
X111885000Y-59375198D01*
X111885000Y-53623356D01*
X114220822Y-55959178D01*
G36*
X108793356Y-116155000D02*
X109028929Y-115919427D01*
X109187655Y-115951000D01*
X109252345Y-115951000D01*
X109884155Y-115825325D01*
X110186399Y-115623372D01*
X110283327Y-115770927D01*
X110494360Y-115913377D01*
X110744000Y-115963440D01*
X112776000Y-115963440D01*
X113018123Y-115916463D01*
X113230927Y-115776673D01*
X113373377Y-115565640D01*
X113423440Y-115316000D01*
X113423440Y-113284000D01*
X113376463Y-113041877D01*
X113236673Y-112829073D01*
X113149159Y-112770000D01*
X113666718Y-112770000D01*
X113615000Y-113030000D01*
X113615000Y-116155000D01*
X108793356Y-116155000D01*
X108793356Y-116155000D01*
G37*
X108793356Y-116155000D02*
X109028929Y-115919427D01*
X109187655Y-115951000D01*
X109252345Y-115951000D01*
X109884155Y-115825325D01*
X110186399Y-115623372D01*
X110283327Y-115770927D01*
X110494360Y-115913377D01*
X110744000Y-115963440D01*
X112776000Y-115963440D01*
X113018123Y-115916463D01*
X113230927Y-115776673D01*
X113373377Y-115565640D01*
X113423440Y-115316000D01*
X113423440Y-113284000D01*
X113376463Y-113041877D01*
X113236673Y-112829073D01*
X113149159Y-112770000D01*
X113666718Y-112770000D01*
X113615000Y-113030000D01*
X113615000Y-116155000D01*
X108793356Y-116155000D01*
G36*
X111045822Y-111819822D02*
X110826882Y-112147490D01*
X110750000Y-112534000D01*
X110750000Y-112636560D01*
X110744000Y-112636560D01*
X110501877Y-112683537D01*
X110289073Y-112823327D01*
X110185843Y-112976257D01*
X109884155Y-112774675D01*
X109252345Y-112649000D01*
X109187655Y-112649000D01*
X108555845Y-112774675D01*
X108020222Y-113132567D01*
X107662330Y-113668190D01*
X107536655Y-114300000D01*
X107578960Y-114512684D01*
X107150644Y-114941000D01*
X106106626Y-114941000D01*
X106129390Y-114925790D01*
X109680179Y-111375000D01*
X111490644Y-111375000D01*
X111045822Y-111819822D01*
X111045822Y-111819822D01*
G37*
X111045822Y-111819822D02*
X110826882Y-112147490D01*
X110750000Y-112534000D01*
X110750000Y-112636560D01*
X110744000Y-112636560D01*
X110501877Y-112683537D01*
X110289073Y-112823327D01*
X110185843Y-112976257D01*
X109884155Y-112774675D01*
X109252345Y-112649000D01*
X109187655Y-112649000D01*
X108555845Y-112774675D01*
X108020222Y-113132567D01*
X107662330Y-113668190D01*
X107536655Y-114300000D01*
X107578960Y-114512684D01*
X107150644Y-114941000D01*
X106106626Y-114941000D01*
X106129390Y-114925790D01*
X109680179Y-111375000D01*
X111490644Y-111375000D01*
X111045822Y-111819822D01*
G36*
X103050971Y-112819670D02*
X103066081Y-112829766D01*
X103034277Y-112835937D01*
X102821473Y-112975727D01*
X102679023Y-113186760D01*
X102670732Y-113228104D01*
X102374248Y-113030000D01*
X102689029Y-112819670D01*
X102870000Y-112548828D01*
X103050971Y-112819670D01*
X103050971Y-112819670D01*
G37*
X103050971Y-112819670D02*
X103066081Y-112829766D01*
X103034277Y-112835937D01*
X102821473Y-112975727D01*
X102679023Y-113186760D01*
X102670732Y-113228104D01*
X102374248Y-113030000D01*
X102689029Y-112819670D01*
X102870000Y-112548828D01*
X103050971Y-112819670D01*
G36*
X122346588Y-99774178D02*
X122346588Y-99774178D01*
X123447560Y-98673206D01*
X123447560Y-99510000D01*
X123494537Y-99752123D01*
X123634327Y-99964927D01*
X123704283Y-100012148D01*
X123640073Y-100054327D01*
X123595176Y-100120840D01*
X123376799Y-100030162D01*
X123004833Y-100029838D01*
X122661057Y-100171883D01*
X122397808Y-100434673D01*
X122255162Y-100778201D01*
X122254838Y-101150167D01*
X122396883Y-101493943D01*
X122659673Y-101757192D01*
X123003201Y-101899838D01*
X123375167Y-101900162D01*
X123594623Y-101809485D01*
X123634327Y-101869927D01*
X123788455Y-101973966D01*
X123761500Y-101968560D01*
X122618500Y-101968560D01*
X122376377Y-102015537D01*
X122346937Y-102034876D01*
X122106799Y-101935162D01*
X121734833Y-101934838D01*
X121391057Y-102076883D01*
X121127808Y-102339673D01*
X120985162Y-102683201D01*
X120984838Y-103055167D01*
X121067225Y-103254560D01*
X120835000Y-103254560D01*
X120592877Y-103301537D01*
X120380073Y-103441327D01*
X120237623Y-103652360D01*
X120187560Y-103902000D01*
X120187560Y-104402000D01*
X120234537Y-104644123D01*
X120374327Y-104856927D01*
X120440529Y-104901614D01*
X120380073Y-104941327D01*
X120237623Y-105152360D01*
X120187560Y-105402000D01*
X120187560Y-105650000D01*
X119958720Y-105650000D01*
X119830673Y-105455073D01*
X119764471Y-105410386D01*
X119824927Y-105370673D01*
X119967377Y-105159640D01*
X120017440Y-104910000D01*
X120017440Y-103910000D01*
X119970463Y-103667877D01*
X119830673Y-103455073D01*
X119680133Y-103353456D01*
X119680162Y-103319833D01*
X119538117Y-102976057D01*
X119275327Y-102712808D01*
X118931799Y-102570162D01*
X118559833Y-102569838D01*
X118216057Y-102711883D01*
X117952808Y-102974673D01*
X117810162Y-103318201D01*
X117810131Y-103354039D01*
X117665073Y-103449327D01*
X117522623Y-103660360D01*
X117472560Y-103910000D01*
X117472560Y-104910000D01*
X117519537Y-105152123D01*
X117659327Y-105364927D01*
X117725529Y-105409614D01*
X117665073Y-105449327D01*
X117522623Y-105660360D01*
X117472560Y-105910000D01*
X117472560Y-106910000D01*
X117519537Y-107152123D01*
X117659327Y-107364927D01*
X117870360Y-107507377D01*
X118120000Y-107557440D01*
X119370000Y-107557440D01*
X119612123Y-107510463D01*
X119640060Y-107492111D01*
X119264274Y-107867242D01*
X118900415Y-108743513D01*
X118899587Y-109692325D01*
X119261916Y-110569229D01*
X119442372Y-110750000D01*
X119014442Y-110750000D01*
X119044838Y-110676799D01*
X119045162Y-110304833D01*
X118903117Y-109961057D01*
X118640327Y-109697808D01*
X118296799Y-109555162D01*
X117924833Y-109554838D01*
X117803431Y-109605000D01*
X109313605Y-109605000D01*
X109313600Y-109604999D01*
X109031116Y-109661190D01*
X108974925Y-109672367D01*
X108687810Y-109864210D01*
X108687808Y-109864213D01*
X105506407Y-113045614D01*
X105464273Y-112981473D01*
X105253240Y-112839023D01*
X105212340Y-112830821D01*
X105229029Y-112819670D01*
X105553885Y-112333489D01*
X105667959Y-111760000D01*
X105553885Y-111186511D01*
X105229029Y-110700330D01*
X104914248Y-110490000D01*
X105229029Y-110279670D01*
X105553885Y-109793489D01*
X105667959Y-109220000D01*
X105553885Y-108646511D01*
X105229029Y-108160330D01*
X104914248Y-107950000D01*
X105229029Y-107739670D01*
X105553885Y-107253489D01*
X105667959Y-106680000D01*
X105553885Y-106106511D01*
X105229029Y-105620330D01*
X104914248Y-105410000D01*
X105229029Y-105199670D01*
X105553885Y-104713489D01*
X105667959Y-104140000D01*
X105553885Y-103566511D01*
X105229029Y-103080330D01*
X104914248Y-102870000D01*
X105229029Y-102659670D01*
X105553885Y-102173489D01*
X105667959Y-101600000D01*
X105553885Y-101026511D01*
X105229029Y-100540330D01*
X104914248Y-100330000D01*
X105229029Y-100119670D01*
X105553885Y-99633489D01*
X105667959Y-99060000D01*
X105553885Y-98486511D01*
X105229029Y-98000330D01*
X104914248Y-97790000D01*
X105179955Y-97612460D01*
X111781590Y-97612460D01*
X111539467Y-97659437D01*
X111326663Y-97799227D01*
X111184213Y-98010260D01*
X111176244Y-98050000D01*
X110490000Y-98050000D01*
X110103490Y-98126882D01*
X109775822Y-98345822D01*
X109556882Y-98673490D01*
X109480000Y-99060000D01*
X109556882Y-99446510D01*
X109775822Y-99774178D01*
X110103490Y-99993118D01*
X110490000Y-100070000D01*
X111174875Y-100070000D01*
X111181127Y-100102223D01*
X111320917Y-100315027D01*
X111531950Y-100457477D01*
X111781590Y-100507540D01*
X115380770Y-100507540D01*
X115622893Y-100460563D01*
X115835697Y-100320773D01*
X115978147Y-100109740D01*
X116028210Y-99860100D01*
X116028210Y-98259900D01*
X115981233Y-98017777D01*
X115841443Y-97804973D01*
X115630410Y-97662523D01*
X115380770Y-97612460D01*
X111781590Y-97612460D01*
X105179955Y-97612460D01*
X105229029Y-97579670D01*
X105553885Y-97093489D01*
X105667959Y-96520000D01*
X105553885Y-95946511D01*
X105229029Y-95460330D01*
X104914248Y-95250000D01*
X105229029Y-95039670D01*
X105553885Y-94553489D01*
X105667959Y-93980000D01*
X105553885Y-93406511D01*
X105229029Y-92920330D01*
X104914248Y-92710000D01*
X105229029Y-92499670D01*
X105553885Y-92013489D01*
X105667959Y-91440000D01*
X105553885Y-90866511D01*
X105229029Y-90380330D01*
X104914248Y-90170000D01*
X105179955Y-89992460D01*
X111781590Y-89992460D01*
X111539467Y-90039437D01*
X111326663Y-90179227D01*
X111184213Y-90390260D01*
X111176244Y-90430000D01*
X110490000Y-90430000D01*
X110103490Y-90506882D01*
X109775822Y-90725822D01*
X109556882Y-91053490D01*
X109480000Y-91440000D01*
X109556882Y-91826510D01*
X109775822Y-92154178D01*
X110103490Y-92373118D01*
X110490000Y-92450000D01*
X111174875Y-92450000D01*
X111181127Y-92482223D01*
X111320917Y-92695027D01*
X111531950Y-92837477D01*
X111781590Y-92887540D01*
X115380770Y-92887540D01*
X115622893Y-92840563D01*
X115835697Y-92700773D01*
X115978147Y-92489740D01*
X116028210Y-92240100D01*
X116028210Y-90639900D01*
X115981233Y-90397777D01*
X115841443Y-90184973D01*
X115630410Y-90042523D01*
X115380770Y-89992460D01*
X111781590Y-89992460D01*
X105179955Y-89992460D01*
X105229029Y-89959670D01*
X105553885Y-89473489D01*
X105667959Y-88900000D01*
X105553885Y-88326511D01*
X105229029Y-87840330D01*
X104914248Y-87630000D01*
X105229029Y-87419670D01*
X105553885Y-86933489D01*
X105667959Y-86360000D01*
X105553885Y-85786511D01*
X105229029Y-85300330D01*
X104914248Y-85090000D01*
X105229029Y-84879670D01*
X105432215Y-84575581D01*
X105700839Y-84522148D01*
X105947401Y-84357401D01*
X108487401Y-81817401D01*
X108652148Y-81570840D01*
X108661746Y-81522586D01*
X108679250Y-81434587D01*
X120812675Y-81434587D01*
X119935771Y-81796916D01*
X119264274Y-82467242D01*
X118900415Y-83343513D01*
X118899587Y-84292325D01*
X119261916Y-85169229D01*
X119932242Y-85840726D01*
X120808513Y-86204585D01*
X121757325Y-86205413D01*
X122634229Y-85843084D01*
X123305726Y-85172758D01*
X123669585Y-84296487D01*
X123670413Y-83347675D01*
X123308084Y-82470771D01*
X122637758Y-81799274D01*
X121761487Y-81435415D01*
X120812675Y-81434587D01*
X108679250Y-81434587D01*
X108710000Y-81280000D01*
X108710000Y-77149802D01*
X110169802Y-75690000D01*
X123825000Y-75690000D01*
X124115839Y-75632148D01*
X124159966Y-75602663D01*
X124159838Y-75750167D01*
X124301883Y-76093943D01*
X124564673Y-76357192D01*
X124908201Y-76499838D01*
X125280167Y-76500162D01*
X125401569Y-76450000D01*
X131195000Y-76450000D01*
X131195000Y-85993421D01*
X131036165Y-86152256D01*
X130916057Y-86201883D01*
X130652808Y-86464673D01*
X130510162Y-86808201D01*
X130509838Y-87180167D01*
X130651883Y-87523943D01*
X130914673Y-87787192D01*
X131066435Y-87850209D01*
X131026644Y-87890000D01*
X120072720Y-87890000D01*
X119686210Y-87966882D01*
X119358542Y-88185822D01*
X118368642Y-89175722D01*
X118149702Y-89503390D01*
X118072820Y-89889900D01*
X118072820Y-89992460D01*
X117283230Y-89992460D01*
X117041107Y-90039437D01*
X116828303Y-90179227D01*
X116685853Y-90390260D01*
X116635790Y-90639900D01*
X116635790Y-92240100D01*
X116682767Y-92482223D01*
X116822557Y-92695027D01*
X117033590Y-92837477D01*
X117283230Y-92887540D01*
X118072820Y-92887540D01*
X118072820Y-97612460D01*
X117283230Y-97612460D01*
X117041107Y-97659437D01*
X116828303Y-97799227D01*
X116685853Y-98010260D01*
X116635790Y-98259900D01*
X116635790Y-99860100D01*
X116682767Y-100102223D01*
X116822557Y-100315027D01*
X117033590Y-100457477D01*
X117283230Y-100507540D01*
X120882410Y-100507540D01*
X121124533Y-100460563D01*
X121337337Y-100320773D01*
X121479787Y-100109740D01*
X121487756Y-100070000D01*
X121632410Y-100070000D01*
X122018920Y-99993118D01*
X122346588Y-99774178D01*
X122346588Y-99774178D01*
G37*
X122346588Y-99774178D02*
X122346588Y-99774178D01*
X123447560Y-98673206D01*
X123447560Y-99510000D01*
X123494537Y-99752123D01*
X123634327Y-99964927D01*
X123704283Y-100012148D01*
X123640073Y-100054327D01*
X123595176Y-100120840D01*
X123376799Y-100030162D01*
X123004833Y-100029838D01*
X122661057Y-100171883D01*
X122397808Y-100434673D01*
X122255162Y-100778201D01*
X122254838Y-101150167D01*
X122396883Y-101493943D01*
X122659673Y-101757192D01*
X123003201Y-101899838D01*
X123375167Y-101900162D01*
X123594623Y-101809485D01*
X123634327Y-101869927D01*
X123788455Y-101973966D01*
X123761500Y-101968560D01*
X122618500Y-101968560D01*
X122376377Y-102015537D01*
X122346937Y-102034876D01*
X122106799Y-101935162D01*
X121734833Y-101934838D01*
X121391057Y-102076883D01*
X121127808Y-102339673D01*
X120985162Y-102683201D01*
X120984838Y-103055167D01*
X121067225Y-103254560D01*
X120835000Y-103254560D01*
X120592877Y-103301537D01*
X120380073Y-103441327D01*
X120237623Y-103652360D01*
X120187560Y-103902000D01*
X120187560Y-104402000D01*
X120234537Y-104644123D01*
X120374327Y-104856927D01*
X120440529Y-104901614D01*
X120380073Y-104941327D01*
X120237623Y-105152360D01*
X120187560Y-105402000D01*
X120187560Y-105650000D01*
X119958720Y-105650000D01*
X119830673Y-105455073D01*
X119764471Y-105410386D01*
X119824927Y-105370673D01*
X119967377Y-105159640D01*
X120017440Y-104910000D01*
X120017440Y-103910000D01*
X119970463Y-103667877D01*
X119830673Y-103455073D01*
X119680133Y-103353456D01*
X119680162Y-103319833D01*
X119538117Y-102976057D01*
X119275327Y-102712808D01*
X118931799Y-102570162D01*
X118559833Y-102569838D01*
X118216057Y-102711883D01*
X117952808Y-102974673D01*
X117810162Y-103318201D01*
X117810131Y-103354039D01*
X117665073Y-103449327D01*
X117522623Y-103660360D01*
X117472560Y-103910000D01*
X117472560Y-104910000D01*
X117519537Y-105152123D01*
X117659327Y-105364927D01*
X117725529Y-105409614D01*
X117665073Y-105449327D01*
X117522623Y-105660360D01*
X117472560Y-105910000D01*
X117472560Y-106910000D01*
X117519537Y-107152123D01*
X117659327Y-107364927D01*
X117870360Y-107507377D01*
X118120000Y-107557440D01*
X119370000Y-107557440D01*
X119612123Y-107510463D01*
X119640060Y-107492111D01*
X119264274Y-107867242D01*
X118900415Y-108743513D01*
X118899587Y-109692325D01*
X119261916Y-110569229D01*
X119442372Y-110750000D01*
X119014442Y-110750000D01*
X119044838Y-110676799D01*
X119045162Y-110304833D01*
X118903117Y-109961057D01*
X118640327Y-109697808D01*
X118296799Y-109555162D01*
X117924833Y-109554838D01*
X117803431Y-109605000D01*
X109313605Y-109605000D01*
X109313600Y-109604999D01*
X109031116Y-109661190D01*
X108974925Y-109672367D01*
X108687810Y-109864210D01*
X108687808Y-109864213D01*
X105506407Y-113045614D01*
X105464273Y-112981473D01*
X105253240Y-112839023D01*
X105212340Y-112830821D01*
X105229029Y-112819670D01*
X105553885Y-112333489D01*
X105667959Y-111760000D01*
X105553885Y-111186511D01*
X105229029Y-110700330D01*
X104914248Y-110490000D01*
X105229029Y-110279670D01*
X105553885Y-109793489D01*
X105667959Y-109220000D01*
X105553885Y-108646511D01*
X105229029Y-108160330D01*
X104914248Y-107950000D01*
X105229029Y-107739670D01*
X105553885Y-107253489D01*
X105667959Y-106680000D01*
X105553885Y-106106511D01*
X105229029Y-105620330D01*
X104914248Y-105410000D01*
X105229029Y-105199670D01*
X105553885Y-104713489D01*
X105667959Y-104140000D01*
X105553885Y-103566511D01*
X105229029Y-103080330D01*
X104914248Y-102870000D01*
X105229029Y-102659670D01*
X105553885Y-102173489D01*
X105667959Y-101600000D01*
X105553885Y-101026511D01*
X105229029Y-100540330D01*
X104914248Y-100330000D01*
X105229029Y-100119670D01*
X105553885Y-99633489D01*
X105667959Y-99060000D01*
X105553885Y-98486511D01*
X105229029Y-98000330D01*
X104914248Y-97790000D01*
X105179955Y-97612460D01*
X111781590Y-97612460D01*
X111539467Y-97659437D01*
X111326663Y-97799227D01*
X111184213Y-98010260D01*
X111176244Y-98050000D01*
X110490000Y-98050000D01*
X110103490Y-98126882D01*
X109775822Y-98345822D01*
X109556882Y-98673490D01*
X109480000Y-99060000D01*
X109556882Y-99446510D01*
X109775822Y-99774178D01*
X110103490Y-99993118D01*
X110490000Y-100070000D01*
X111174875Y-100070000D01*
X111181127Y-100102223D01*
X111320917Y-100315027D01*
X111531950Y-100457477D01*
X111781590Y-100507540D01*
X115380770Y-100507540D01*
X115622893Y-100460563D01*
X115835697Y-100320773D01*
X115978147Y-100109740D01*
X116028210Y-99860100D01*
X116028210Y-98259900D01*
X115981233Y-98017777D01*
X115841443Y-97804973D01*
X115630410Y-97662523D01*
X115380770Y-97612460D01*
X111781590Y-97612460D01*
X105179955Y-97612460D01*
X105229029Y-97579670D01*
X105553885Y-97093489D01*
X105667959Y-96520000D01*
X105553885Y-95946511D01*
X105229029Y-95460330D01*
X104914248Y-95250000D01*
X105229029Y-95039670D01*
X105553885Y-94553489D01*
X105667959Y-93980000D01*
X105553885Y-93406511D01*
X105229029Y-92920330D01*
X104914248Y-92710000D01*
X105229029Y-92499670D01*
X105553885Y-92013489D01*
X105667959Y-91440000D01*
X105553885Y-90866511D01*
X105229029Y-90380330D01*
X104914248Y-90170000D01*
X105179955Y-89992460D01*
X111781590Y-89992460D01*
X111539467Y-90039437D01*
X111326663Y-90179227D01*
X111184213Y-90390260D01*
X111176244Y-90430000D01*
X110490000Y-90430000D01*
X110103490Y-90506882D01*
X109775822Y-90725822D01*
X109556882Y-91053490D01*
X109480000Y-91440000D01*
X109556882Y-91826510D01*
X109775822Y-92154178D01*
X110103490Y-92373118D01*
X110490000Y-92450000D01*
X111174875Y-92450000D01*
X111181127Y-92482223D01*
X111320917Y-92695027D01*
X111531950Y-92837477D01*
X111781590Y-92887540D01*
X115380770Y-92887540D01*
X115622893Y-92840563D01*
X115835697Y-92700773D01*
X115978147Y-92489740D01*
X116028210Y-92240100D01*
X116028210Y-90639900D01*
X115981233Y-90397777D01*
X115841443Y-90184973D01*
X115630410Y-90042523D01*
X115380770Y-89992460D01*
X111781590Y-89992460D01*
X105179955Y-89992460D01*
X105229029Y-89959670D01*
X105553885Y-89473489D01*
X105667959Y-88900000D01*
X105553885Y-88326511D01*
X105229029Y-87840330D01*
X104914248Y-87630000D01*
X105229029Y-87419670D01*
X105553885Y-86933489D01*
X105667959Y-86360000D01*
X105553885Y-85786511D01*
X105229029Y-85300330D01*
X104914248Y-85090000D01*
X105229029Y-84879670D01*
X105432215Y-84575581D01*
X105700839Y-84522148D01*
X105947401Y-84357401D01*
X108487401Y-81817401D01*
X108652148Y-81570840D01*
X108661746Y-81522586D01*
X108679250Y-81434587D01*
X120812675Y-81434587D01*
X119935771Y-81796916D01*
X119264274Y-82467242D01*
X118900415Y-83343513D01*
X118899587Y-84292325D01*
X119261916Y-85169229D01*
X119932242Y-85840726D01*
X120808513Y-86204585D01*
X121757325Y-86205413D01*
X122634229Y-85843084D01*
X123305726Y-85172758D01*
X123669585Y-84296487D01*
X123670413Y-83347675D01*
X123308084Y-82470771D01*
X122637758Y-81799274D01*
X121761487Y-81435415D01*
X120812675Y-81434587D01*
X108679250Y-81434587D01*
X108710000Y-81280000D01*
X108710000Y-77149802D01*
X110169802Y-75690000D01*
X123825000Y-75690000D01*
X124115839Y-75632148D01*
X124159966Y-75602663D01*
X124159838Y-75750167D01*
X124301883Y-76093943D01*
X124564673Y-76357192D01*
X124908201Y-76499838D01*
X125280167Y-76500162D01*
X125401569Y-76450000D01*
X131195000Y-76450000D01*
X131195000Y-85993421D01*
X131036165Y-86152256D01*
X130916057Y-86201883D01*
X130652808Y-86464673D01*
X130510162Y-86808201D01*
X130509838Y-87180167D01*
X130651883Y-87523943D01*
X130914673Y-87787192D01*
X131066435Y-87850209D01*
X131026644Y-87890000D01*
X120072720Y-87890000D01*
X119686210Y-87966882D01*
X119358542Y-88185822D01*
X118368642Y-89175722D01*
X118149702Y-89503390D01*
X118072820Y-89889900D01*
X118072820Y-89992460D01*
X117283230Y-89992460D01*
X117041107Y-90039437D01*
X116828303Y-90179227D01*
X116685853Y-90390260D01*
X116635790Y-90639900D01*
X116635790Y-92240100D01*
X116682767Y-92482223D01*
X116822557Y-92695027D01*
X117033590Y-92837477D01*
X117283230Y-92887540D01*
X118072820Y-92887540D01*
X118072820Y-97612460D01*
X117283230Y-97612460D01*
X117041107Y-97659437D01*
X116828303Y-97799227D01*
X116685853Y-98010260D01*
X116635790Y-98259900D01*
X116635790Y-99860100D01*
X116682767Y-100102223D01*
X116822557Y-100315027D01*
X117033590Y-100457477D01*
X117283230Y-100507540D01*
X120882410Y-100507540D01*
X121124533Y-100460563D01*
X121337337Y-100320773D01*
X121479787Y-100109740D01*
X121487756Y-100070000D01*
X121632410Y-100070000D01*
X122018920Y-99993118D01*
X122346588Y-99774178D01*
G36*
X135205000Y-112345000D02*
X132923356Y-112345000D01*
X135205000Y-110063356D01*
X135205000Y-112345000D01*
X135205000Y-112345000D01*
G37*
X135205000Y-112345000D02*
X132923356Y-112345000D01*
X135205000Y-110063356D01*
X135205000Y-112345000D01*
G36*
X128707699Y-31950470D02*
X128740723Y-31944063D01*
X128953527Y-31804273D01*
X129095977Y-31593240D01*
X129116681Y-31490000D01*
X130810000Y-31490000D01*
X131196510Y-31413118D01*
X131524178Y-31194178D01*
X131743118Y-30866510D01*
X131820000Y-30480000D01*
X131743118Y-30093490D01*
X131524178Y-29765822D01*
X131196510Y-29546882D01*
X130810000Y-29470000D01*
X129117635Y-29470000D01*
X129099063Y-29374277D01*
X128959273Y-29161473D01*
X128748240Y-29019023D01*
X128498600Y-28968960D01*
X126771400Y-28968960D01*
X126529277Y-29015937D01*
X126316473Y-29155727D01*
X126174023Y-29366760D01*
X126165821Y-29407660D01*
X126154670Y-29390971D01*
X125668489Y-29066115D01*
X125095000Y-28952041D01*
X124521511Y-29066115D01*
X124035330Y-29390971D01*
X123982524Y-29470000D01*
X123667476Y-29470000D01*
X123614670Y-29390971D01*
X123128489Y-29066115D01*
X122555000Y-28952041D01*
X121981511Y-29066115D01*
X121495330Y-29390971D01*
X121442524Y-29470000D01*
X121127476Y-29470000D01*
X121074670Y-29390971D01*
X120588489Y-29066115D01*
X120015000Y-28952041D01*
X119441511Y-29066115D01*
X118955330Y-29390971D01*
X118902524Y-29470000D01*
X116840000Y-29470000D01*
X116453490Y-29546882D01*
X116125822Y-29765822D01*
X115906882Y-30093490D01*
X115830000Y-30480000D01*
X115906882Y-30866510D01*
X116125822Y-31194178D01*
X116453490Y-31413118D01*
X116840000Y-31490000D01*
X118902524Y-31490000D01*
X118955330Y-31569029D01*
X119226172Y-31750000D01*
X118955330Y-31930971D01*
X118630474Y-32417152D01*
X118516400Y-32990641D01*
X118516400Y-33049359D01*
X118630474Y-33622848D01*
X118955330Y-34109029D01*
X119441511Y-34433885D01*
X120015000Y-34547959D01*
X120588489Y-34433885D01*
X121074670Y-34109029D01*
X121127476Y-34030000D01*
X121442524Y-34030000D01*
X121495330Y-34109029D01*
X121545000Y-34142217D01*
X121545000Y-34925000D01*
X121621882Y-35311510D01*
X121840822Y-35639178D01*
X123110822Y-36909178D01*
X123438490Y-37128118D01*
X123825000Y-37205000D01*
X131661644Y-37205000D01*
X133476883Y-39020239D01*
X133350000Y-38995000D01*
X132963490Y-39071882D01*
X132635822Y-39290822D01*
X132416882Y-39618490D01*
X132340000Y-40005000D01*
X132340000Y-54235000D01*
X132080000Y-54235000D01*
X131693490Y-54311882D01*
X131570000Y-54394395D01*
X131570000Y-43180000D01*
X131545136Y-43055000D01*
X131512148Y-42889160D01*
X131347401Y-42642599D01*
X130077401Y-41372599D01*
X129830839Y-41207852D01*
X129540000Y-41150000D01*
X128414007Y-41150000D01*
X128532377Y-40974640D01*
X128582440Y-40725000D01*
X128582440Y-40635000D01*
X129230770Y-40635000D01*
X129353201Y-40685838D01*
X129725167Y-40686162D01*
X130068943Y-40544117D01*
X130332192Y-40281327D01*
X130474838Y-39937799D01*
X130475162Y-39565833D01*
X130333117Y-39222057D01*
X130070327Y-38958808D01*
X129726799Y-38816162D01*
X129354833Y-38815838D01*
X129235852Y-38865000D01*
X128582440Y-38865000D01*
X128582440Y-38775000D01*
X128535463Y-38532877D01*
X128395673Y-38320073D01*
X128184640Y-38177623D01*
X127935000Y-38127560D01*
X127335000Y-38127560D01*
X127092877Y-38174537D01*
X127000229Y-38235397D01*
X126914640Y-38177623D01*
X126665000Y-38127560D01*
X126065000Y-38127560D01*
X125822877Y-38174537D01*
X125730229Y-38235397D01*
X125644640Y-38177623D01*
X125395000Y-38127560D01*
X124795000Y-38127560D01*
X124552877Y-38174537D01*
X124460229Y-38235397D01*
X124374640Y-38177623D01*
X124125000Y-38127560D01*
X123525000Y-38127560D01*
X123282877Y-38174537D01*
X123190229Y-38235397D01*
X123104640Y-38177623D01*
X122855000Y-38127560D01*
X122255000Y-38127560D01*
X122012877Y-38174537D01*
X121920229Y-38235397D01*
X121834640Y-38177623D01*
X121585000Y-38127560D01*
X120985000Y-38127560D01*
X120742877Y-38174537D01*
X120650229Y-38235397D01*
X120564640Y-38177623D01*
X120315000Y-38127560D01*
X119715000Y-38127560D01*
X119472877Y-38174537D01*
X119380229Y-38235397D01*
X119294640Y-38177623D01*
X119045000Y-38127560D01*
X118445000Y-38127560D01*
X118409971Y-38134356D01*
X118410162Y-37914833D01*
X118268117Y-37571057D01*
X118005327Y-37307808D01*
X117661799Y-37165162D01*
X117289833Y-37164838D01*
X116946057Y-37306883D01*
X116682808Y-37569673D01*
X116540162Y-37913201D01*
X116539969Y-38134573D01*
X116505000Y-38127560D01*
X115905000Y-38127560D01*
X115662877Y-38174537D01*
X115450073Y-38314327D01*
X115307623Y-38525360D01*
X115257560Y-38775000D01*
X115257560Y-40522758D01*
X105947401Y-31212599D01*
X105700839Y-31047852D01*
X105432215Y-30994419D01*
X105229029Y-30690330D01*
X104742848Y-30365474D01*
X104169359Y-30251400D01*
X104110641Y-30251400D01*
X103537152Y-30365474D01*
X103050971Y-30690330D01*
X102870000Y-30961172D01*
X102689029Y-30690330D01*
X102202848Y-30365474D01*
X101629359Y-30251400D01*
X101570641Y-30251400D01*
X100997152Y-30365474D01*
X100510971Y-30690330D01*
X100186115Y-31176511D01*
X100072041Y-31750000D01*
X100186115Y-32323489D01*
X100510971Y-32809670D01*
X100825752Y-33020000D01*
X100510971Y-33230330D01*
X100186115Y-33716511D01*
X100072041Y-34290000D01*
X100186115Y-34863489D01*
X100510971Y-35349670D01*
X100825752Y-35560000D01*
X100510971Y-35770330D01*
X100186115Y-36256511D01*
X100072041Y-36830000D01*
X100186115Y-37403489D01*
X100510971Y-37889670D01*
X100825752Y-38100000D01*
X100510971Y-38310330D01*
X100186115Y-38796511D01*
X100072041Y-39370000D01*
X100186115Y-39943489D01*
X100510971Y-40429670D01*
X100825752Y-40640000D01*
X100510971Y-40850330D01*
X100186115Y-41336511D01*
X100072041Y-41910000D01*
X100186115Y-42483489D01*
X100510971Y-42969670D01*
X100825752Y-43180000D01*
X100510971Y-43390330D01*
X100186115Y-43876511D01*
X100072041Y-44450000D01*
X100186115Y-45023489D01*
X100510971Y-45509670D01*
X100825752Y-45720000D01*
X100510971Y-45930330D01*
X100186115Y-46416511D01*
X100072041Y-46990000D01*
X100186115Y-47563489D01*
X100510971Y-48049670D01*
X100590000Y-48102476D01*
X100590000Y-48211314D01*
X100666882Y-48597824D01*
X100885822Y-48925492D01*
X103474508Y-51514178D01*
X103802176Y-51733118D01*
X104188686Y-51810000D01*
X105410000Y-51810000D01*
X105796510Y-51733118D01*
X105920000Y-51650605D01*
X105920000Y-64135000D01*
X105977852Y-64425839D01*
X106142599Y-64672401D01*
X108020198Y-66550000D01*
X105566514Y-66550000D01*
X105667959Y-66040000D01*
X105553885Y-65466511D01*
X105229029Y-64980330D01*
X104914248Y-64770000D01*
X105229029Y-64559670D01*
X105553885Y-64073489D01*
X105667959Y-63500000D01*
X105553885Y-62926511D01*
X105229029Y-62440330D01*
X104914248Y-62230000D01*
X105229029Y-62019670D01*
X105553885Y-61533489D01*
X105667959Y-60960000D01*
X105553885Y-60386511D01*
X105229029Y-59900330D01*
X104914248Y-59690000D01*
X105229029Y-59479670D01*
X105553885Y-58993489D01*
X105667959Y-58420000D01*
X105553885Y-57846511D01*
X105229029Y-57360330D01*
X104914248Y-57150000D01*
X105229029Y-56939670D01*
X105553885Y-56453489D01*
X105667959Y-55880000D01*
X105553885Y-55306511D01*
X105229029Y-54820330D01*
X104914248Y-54610000D01*
X105229029Y-54399670D01*
X105553885Y-53913489D01*
X105667959Y-53340000D01*
X105553885Y-52766511D01*
X105229029Y-52280330D01*
X104742848Y-51955474D01*
X104169359Y-51841400D01*
X104110641Y-51841400D01*
X103537152Y-51955474D01*
X103050971Y-52280330D01*
X102870000Y-52551172D01*
X102689029Y-52280330D01*
X102202848Y-51955474D01*
X101629359Y-51841400D01*
X101570641Y-51841400D01*
X100997152Y-51955474D01*
X100510971Y-52280330D01*
X100186115Y-52766511D01*
X100072041Y-53340000D01*
X100186115Y-53913489D01*
X100510971Y-54399670D01*
X100825752Y-54610000D01*
X100510971Y-54820330D01*
X100186115Y-55306511D01*
X100072041Y-55880000D01*
X100186115Y-56453489D01*
X100510971Y-56939670D01*
X100825752Y-57150000D01*
X100510971Y-57360330D01*
X100186115Y-57846511D01*
X100072041Y-58420000D01*
X100186115Y-58993489D01*
X100510971Y-59479670D01*
X100825752Y-59690000D01*
X100510971Y-59900330D01*
X100186115Y-60386511D01*
X100072041Y-60960000D01*
X100186115Y-61533489D01*
X100510971Y-62019670D01*
X100825752Y-62230000D01*
X100510971Y-62440330D01*
X100186115Y-62926511D01*
X100072041Y-63500000D01*
X100186115Y-64073489D01*
X100510971Y-64559670D01*
X100825752Y-64770000D01*
X100510971Y-64980330D01*
X100186115Y-65466511D01*
X100072041Y-66040000D01*
X100186115Y-66613489D01*
X100510971Y-67099670D01*
X100825752Y-67310000D01*
X100510971Y-67520330D01*
X100186115Y-68006511D01*
X100072041Y-68580000D01*
X100186115Y-69153489D01*
X100510971Y-69639670D01*
X100825752Y-69850000D01*
X100510971Y-70060330D01*
X100186115Y-70546511D01*
X100072041Y-71120000D01*
X100186115Y-71693489D01*
X100510971Y-72179670D01*
X100825752Y-72390000D01*
X100510971Y-72600330D01*
X100186115Y-73086511D01*
X100072041Y-73660000D01*
X100186115Y-74233489D01*
X100510971Y-74719670D01*
X100825752Y-74930000D01*
X100510971Y-75140330D01*
X100186115Y-75626511D01*
X100072041Y-76200000D01*
X100186115Y-76773489D01*
X100510971Y-77259670D01*
X100825752Y-77470000D01*
X100510971Y-77680330D01*
X100186115Y-78166511D01*
X100072041Y-78740000D01*
X100186115Y-79313489D01*
X100510971Y-79799670D01*
X100825752Y-80010000D01*
X100510971Y-80220330D01*
X100186115Y-80706511D01*
X100072041Y-81280000D01*
X100186115Y-81853489D01*
X100510971Y-82339670D01*
X100825752Y-82550000D01*
X100510971Y-82760330D01*
X100186115Y-83246511D01*
X100072041Y-83820000D01*
X100186115Y-84393489D01*
X100510971Y-84879670D01*
X100825752Y-85090000D01*
X100510971Y-85300330D01*
X100186115Y-85786511D01*
X100072041Y-86360000D01*
X100186115Y-86933489D01*
X100510971Y-87419670D01*
X100825752Y-87630000D01*
X100510971Y-87840330D01*
X100186115Y-88326511D01*
X100072041Y-88900000D01*
X100186115Y-89473489D01*
X100510971Y-89959670D01*
X100825752Y-90170000D01*
X100510971Y-90380330D01*
X100186115Y-90866511D01*
X100072041Y-91440000D01*
X100186115Y-92013489D01*
X100510971Y-92499670D01*
X100825752Y-92710000D01*
X100510971Y-92920330D01*
X100186115Y-93406511D01*
X100072041Y-93980000D01*
X100186115Y-94553489D01*
X100510971Y-95039670D01*
X100825752Y-95250000D01*
X100510971Y-95460330D01*
X100186115Y-95946511D01*
X100072041Y-96520000D01*
X100186115Y-97093489D01*
X100510971Y-97579670D01*
X100825752Y-97790000D01*
X100510971Y-98000330D01*
X100186115Y-98486511D01*
X100072041Y-99060000D01*
X100186115Y-99633489D01*
X100510971Y-100119670D01*
X100825752Y-100330000D01*
X100510971Y-100540330D01*
X100186115Y-101026511D01*
X100072041Y-101600000D01*
X100186115Y-102173489D01*
X100510971Y-102659670D01*
X100825752Y-102870000D01*
X100510971Y-103080330D01*
X100186115Y-103566511D01*
X100072041Y-104140000D01*
X100186115Y-104713489D01*
X100510971Y-105199670D01*
X100825752Y-105410000D01*
X100510971Y-105620330D01*
X100186115Y-106106511D01*
X100072041Y-106680000D01*
X100186115Y-107253489D01*
X100510971Y-107739670D01*
X100825752Y-107950000D01*
X100510971Y-108160330D01*
X100186115Y-108646511D01*
X100072041Y-109220000D01*
X100186115Y-109793489D01*
X100510971Y-110279670D01*
X100825752Y-110490000D01*
X100510971Y-110700330D01*
X100186115Y-111186511D01*
X100072041Y-111760000D01*
X100088566Y-111843078D01*
X99745000Y-112186644D01*
X99745000Y-28625000D01*
X135205000Y-28625000D01*
X135205000Y-37891644D01*
X133223117Y-35909761D01*
X133350000Y-35935000D01*
X133736510Y-35858118D01*
X134064178Y-35639178D01*
X134283118Y-35311510D01*
X134360000Y-34925000D01*
X134283118Y-34538490D01*
X134064178Y-34210822D01*
X132159178Y-32305822D01*
X131831510Y-32086882D01*
X131445000Y-32010000D01*
X128747476Y-32010000D01*
X128707699Y-31950470D01*
X128707699Y-31950470D01*
G37*
X128707699Y-31950470D02*
X128740723Y-31944063D01*
X128953527Y-31804273D01*
X129095977Y-31593240D01*
X129116681Y-31490000D01*
X130810000Y-31490000D01*
X131196510Y-31413118D01*
X131524178Y-31194178D01*
X131743118Y-30866510D01*
X131820000Y-30480000D01*
X131743118Y-30093490D01*
X131524178Y-29765822D01*
X131196510Y-29546882D01*
X130810000Y-29470000D01*
X129117635Y-29470000D01*
X129099063Y-29374277D01*
X128959273Y-29161473D01*
X128748240Y-29019023D01*
X128498600Y-28968960D01*
X126771400Y-28968960D01*
X126529277Y-29015937D01*
X126316473Y-29155727D01*
X126174023Y-29366760D01*
X126165821Y-29407660D01*
X126154670Y-29390971D01*
X125668489Y-29066115D01*
X125095000Y-28952041D01*
X124521511Y-29066115D01*
X124035330Y-29390971D01*
X123982524Y-29470000D01*
X123667476Y-29470000D01*
X123614670Y-29390971D01*
X123128489Y-29066115D01*
X122555000Y-28952041D01*
X121981511Y-29066115D01*
X121495330Y-29390971D01*
X121442524Y-29470000D01*
X121127476Y-29470000D01*
X121074670Y-29390971D01*
X120588489Y-29066115D01*
X120015000Y-28952041D01*
X119441511Y-29066115D01*
X118955330Y-29390971D01*
X118902524Y-29470000D01*
X116840000Y-29470000D01*
X116453490Y-29546882D01*
X116125822Y-29765822D01*
X115906882Y-30093490D01*
X115830000Y-30480000D01*
X115906882Y-30866510D01*
X116125822Y-31194178D01*
X116453490Y-31413118D01*
X116840000Y-31490000D01*
X118902524Y-31490000D01*
X118955330Y-31569029D01*
X119226172Y-31750000D01*
X118955330Y-31930971D01*
X118630474Y-32417152D01*
X118516400Y-32990641D01*
X118516400Y-33049359D01*
X118630474Y-33622848D01*
X118955330Y-34109029D01*
X119441511Y-34433885D01*
X120015000Y-34547959D01*
X120588489Y-34433885D01*
X121074670Y-34109029D01*
X121127476Y-34030000D01*
X121442524Y-34030000D01*
X121495330Y-34109029D01*
X121545000Y-34142217D01*
X121545000Y-34925000D01*
X121621882Y-35311510D01*
X121840822Y-35639178D01*
X123110822Y-36909178D01*
X123438490Y-37128118D01*
X123825000Y-37205000D01*
X131661644Y-37205000D01*
X133476883Y-39020239D01*
X133350000Y-38995000D01*
X132963490Y-39071882D01*
X132635822Y-39290822D01*
X132416882Y-39618490D01*
X132340000Y-40005000D01*
X132340000Y-54235000D01*
X132080000Y-54235000D01*
X131693490Y-54311882D01*
X131570000Y-54394395D01*
X131570000Y-43180000D01*
X131545136Y-43055000D01*
X131512148Y-42889160D01*
X131347401Y-42642599D01*
X130077401Y-41372599D01*
X129830839Y-41207852D01*
X129540000Y-41150000D01*
X128414007Y-41150000D01*
X128532377Y-40974640D01*
X128582440Y-40725000D01*
X128582440Y-40635000D01*
X129230770Y-40635000D01*
X129353201Y-40685838D01*
X129725167Y-40686162D01*
X130068943Y-40544117D01*
X130332192Y-40281327D01*
X130474838Y-39937799D01*
X130475162Y-39565833D01*
X130333117Y-39222057D01*
X130070327Y-38958808D01*
X129726799Y-38816162D01*
X129354833Y-38815838D01*
X129235852Y-38865000D01*
X128582440Y-38865000D01*
X128582440Y-38775000D01*
X128535463Y-38532877D01*
X128395673Y-38320073D01*
X128184640Y-38177623D01*
X127935000Y-38127560D01*
X127335000Y-38127560D01*
X127092877Y-38174537D01*
X127000229Y-38235397D01*
X126914640Y-38177623D01*
X126665000Y-38127560D01*
X126065000Y-38127560D01*
X125822877Y-38174537D01*
X125730229Y-38235397D01*
X125644640Y-38177623D01*
X125395000Y-38127560D01*
X124795000Y-38127560D01*
X124552877Y-38174537D01*
X124460229Y-38235397D01*
X124374640Y-38177623D01*
X124125000Y-38127560D01*
X123525000Y-38127560D01*
X123282877Y-38174537D01*
X123190229Y-38235397D01*
X123104640Y-38177623D01*
X122855000Y-38127560D01*
X122255000Y-38127560D01*
X122012877Y-38174537D01*
X121920229Y-38235397D01*
X121834640Y-38177623D01*
X121585000Y-38127560D01*
X120985000Y-38127560D01*
X120742877Y-38174537D01*
X120650229Y-38235397D01*
X120564640Y-38177623D01*
X120315000Y-38127560D01*
X119715000Y-38127560D01*
X119472877Y-38174537D01*
X119380229Y-38235397D01*
X119294640Y-38177623D01*
X119045000Y-38127560D01*
X118445000Y-38127560D01*
X118409971Y-38134356D01*
X118410162Y-37914833D01*
X118268117Y-37571057D01*
X118005327Y-37307808D01*
X117661799Y-37165162D01*
X117289833Y-37164838D01*
X116946057Y-37306883D01*
X116682808Y-37569673D01*
X116540162Y-37913201D01*
X116539969Y-38134573D01*
X116505000Y-38127560D01*
X115905000Y-38127560D01*
X115662877Y-38174537D01*
X115450073Y-38314327D01*
X115307623Y-38525360D01*
X115257560Y-38775000D01*
X115257560Y-40522758D01*
X105947401Y-31212599D01*
X105700839Y-31047852D01*
X105432215Y-30994419D01*
X105229029Y-30690330D01*
X104742848Y-30365474D01*
X104169359Y-30251400D01*
X104110641Y-30251400D01*
X103537152Y-30365474D01*
X103050971Y-30690330D01*
X102870000Y-30961172D01*
X102689029Y-30690330D01*
X102202848Y-30365474D01*
X101629359Y-30251400D01*
X101570641Y-30251400D01*
X100997152Y-30365474D01*
X100510971Y-30690330D01*
X100186115Y-31176511D01*
X100072041Y-31750000D01*
X100186115Y-32323489D01*
X100510971Y-32809670D01*
X100825752Y-33020000D01*
X100510971Y-33230330D01*
X100186115Y-33716511D01*
X100072041Y-34290000D01*
X100186115Y-34863489D01*
X100510971Y-35349670D01*
X100825752Y-35560000D01*
X100510971Y-35770330D01*
X100186115Y-36256511D01*
X100072041Y-36830000D01*
X100186115Y-37403489D01*
X100510971Y-37889670D01*
X100825752Y-38100000D01*
X100510971Y-38310330D01*
X100186115Y-38796511D01*
X100072041Y-39370000D01*
X100186115Y-39943489D01*
X100510971Y-40429670D01*
X100825752Y-40640000D01*
X100510971Y-40850330D01*
X100186115Y-41336511D01*
X100072041Y-41910000D01*
X100186115Y-42483489D01*
X100510971Y-42969670D01*
X100825752Y-43180000D01*
X100510971Y-43390330D01*
X100186115Y-43876511D01*
X100072041Y-44450000D01*
X100186115Y-45023489D01*
X100510971Y-45509670D01*
X100825752Y-45720000D01*
X100510971Y-45930330D01*
X100186115Y-46416511D01*
X100072041Y-46990000D01*
X100186115Y-47563489D01*
X100510971Y-48049670D01*
X100590000Y-48102476D01*
X100590000Y-48211314D01*
X100666882Y-48597824D01*
X100885822Y-48925492D01*
X103474508Y-51514178D01*
X103802176Y-51733118D01*
X104188686Y-51810000D01*
X105410000Y-51810000D01*
X105796510Y-51733118D01*
X105920000Y-51650605D01*
X105920000Y-64135000D01*
X105977852Y-64425839D01*
X106142599Y-64672401D01*
X108020198Y-66550000D01*
X105566514Y-66550000D01*
X105667959Y-66040000D01*
X105553885Y-65466511D01*
X105229029Y-64980330D01*
X104914248Y-64770000D01*
X105229029Y-64559670D01*
X105553885Y-64073489D01*
X105667959Y-63500000D01*
X105553885Y-62926511D01*
X105229029Y-62440330D01*
X104914248Y-62230000D01*
X105229029Y-62019670D01*
X105553885Y-61533489D01*
X105667959Y-60960000D01*
X105553885Y-60386511D01*
X105229029Y-59900330D01*
X104914248Y-59690000D01*
X105229029Y-59479670D01*
X105553885Y-58993489D01*
X105667959Y-58420000D01*
X105553885Y-57846511D01*
X105229029Y-57360330D01*
X104914248Y-57150000D01*
X105229029Y-56939670D01*
X105553885Y-56453489D01*
X105667959Y-55880000D01*
X105553885Y-55306511D01*
X105229029Y-54820330D01*
X104914248Y-54610000D01*
X105229029Y-54399670D01*
X105553885Y-53913489D01*
X105667959Y-53340000D01*
X105553885Y-52766511D01*
X105229029Y-52280330D01*
X104742848Y-51955474D01*
X104169359Y-51841400D01*
X104110641Y-51841400D01*
X103537152Y-51955474D01*
X103050971Y-52280330D01*
X102870000Y-52551172D01*
X102689029Y-52280330D01*
X102202848Y-51955474D01*
X101629359Y-51841400D01*
X101570641Y-51841400D01*
X100997152Y-51955474D01*
X100510971Y-52280330D01*
X100186115Y-52766511D01*
X100072041Y-53340000D01*
X100186115Y-53913489D01*
X100510971Y-54399670D01*
X100825752Y-54610000D01*
X100510971Y-54820330D01*
X100186115Y-55306511D01*
X100072041Y-55880000D01*
X100186115Y-56453489D01*
X100510971Y-56939670D01*
X100825752Y-57150000D01*
X100510971Y-57360330D01*
X100186115Y-57846511D01*
X100072041Y-58420000D01*
X100186115Y-58993489D01*
X100510971Y-59479670D01*
X100825752Y-59690000D01*
X100510971Y-59900330D01*
X100186115Y-60386511D01*
X100072041Y-60960000D01*
X100186115Y-61533489D01*
X100510971Y-62019670D01*
X100825752Y-62230000D01*
X100510971Y-62440330D01*
X100186115Y-62926511D01*
X100072041Y-63500000D01*
X100186115Y-64073489D01*
X100510971Y-64559670D01*
X100825752Y-64770000D01*
X100510971Y-64980330D01*
X100186115Y-65466511D01*
X100072041Y-66040000D01*
X100186115Y-66613489D01*
X100510971Y-67099670D01*
X100825752Y-67310000D01*
X100510971Y-67520330D01*
X100186115Y-68006511D01*
X100072041Y-68580000D01*
X100186115Y-69153489D01*
X100510971Y-69639670D01*
X100825752Y-69850000D01*
X100510971Y-70060330D01*
X100186115Y-70546511D01*
X100072041Y-71120000D01*
X100186115Y-71693489D01*
X100510971Y-72179670D01*
X100825752Y-72390000D01*
X100510971Y-72600330D01*
X100186115Y-73086511D01*
X100072041Y-73660000D01*
X100186115Y-74233489D01*
X100510971Y-74719670D01*
X100825752Y-74930000D01*
X100510971Y-75140330D01*
X100186115Y-75626511D01*
X100072041Y-76200000D01*
X100186115Y-76773489D01*
X100510971Y-77259670D01*
X100825752Y-77470000D01*
X100510971Y-77680330D01*
X100186115Y-78166511D01*
X100072041Y-78740000D01*
X100186115Y-79313489D01*
X100510971Y-79799670D01*
X100825752Y-80010000D01*
X100510971Y-80220330D01*
X100186115Y-80706511D01*
X100072041Y-81280000D01*
X100186115Y-81853489D01*
X100510971Y-82339670D01*
X100825752Y-82550000D01*
X100510971Y-82760330D01*
X100186115Y-83246511D01*
X100072041Y-83820000D01*
X100186115Y-84393489D01*
X100510971Y-84879670D01*
X100825752Y-85090000D01*
X100510971Y-85300330D01*
X100186115Y-85786511D01*
X100072041Y-86360000D01*
X100186115Y-86933489D01*
X100510971Y-87419670D01*
X100825752Y-87630000D01*
X100510971Y-87840330D01*
X100186115Y-88326511D01*
X100072041Y-88900000D01*
X100186115Y-89473489D01*
X100510971Y-89959670D01*
X100825752Y-90170000D01*
X100510971Y-90380330D01*
X100186115Y-90866511D01*
X100072041Y-91440000D01*
X100186115Y-92013489D01*
X100510971Y-92499670D01*
X100825752Y-92710000D01*
X100510971Y-92920330D01*
X100186115Y-93406511D01*
X100072041Y-93980000D01*
X100186115Y-94553489D01*
X100510971Y-95039670D01*
X100825752Y-95250000D01*
X100510971Y-95460330D01*
X100186115Y-95946511D01*
X100072041Y-96520000D01*
X100186115Y-97093489D01*
X100510971Y-97579670D01*
X100825752Y-97790000D01*
X100510971Y-98000330D01*
X100186115Y-98486511D01*
X100072041Y-99060000D01*
X100186115Y-99633489D01*
X100510971Y-100119670D01*
X100825752Y-100330000D01*
X100510971Y-100540330D01*
X100186115Y-101026511D01*
X100072041Y-101600000D01*
X100186115Y-102173489D01*
X100510971Y-102659670D01*
X100825752Y-102870000D01*
X100510971Y-103080330D01*
X100186115Y-103566511D01*
X100072041Y-104140000D01*
X100186115Y-104713489D01*
X100510971Y-105199670D01*
X100825752Y-105410000D01*
X100510971Y-105620330D01*
X100186115Y-106106511D01*
X100072041Y-106680000D01*
X100186115Y-107253489D01*
X100510971Y-107739670D01*
X100825752Y-107950000D01*
X100510971Y-108160330D01*
X100186115Y-108646511D01*
X100072041Y-109220000D01*
X100186115Y-109793489D01*
X100510971Y-110279670D01*
X100825752Y-110490000D01*
X100510971Y-110700330D01*
X100186115Y-111186511D01*
X100072041Y-111760000D01*
X100088566Y-111843078D01*
X99745000Y-112186644D01*
X99745000Y-28625000D01*
X135205000Y-28625000D01*
X135205000Y-37891644D01*
X133223117Y-35909761D01*
X133350000Y-35935000D01*
X133736510Y-35858118D01*
X134064178Y-35639178D01*
X134283118Y-35311510D01*
X134360000Y-34925000D01*
X134283118Y-34538490D01*
X134064178Y-34210822D01*
X132159178Y-32305822D01*
X131831510Y-32086882D01*
X131445000Y-32010000D01*
X128747476Y-32010000D01*
X128707699Y-31950470D01*
G36*
X103050971Y-110279670D02*
X103365752Y-110490000D01*
X103050971Y-110700330D01*
X102870000Y-110971172D01*
X102689029Y-110700330D01*
X102374248Y-110490000D01*
X102689029Y-110279670D01*
X102870000Y-110008828D01*
X103050971Y-110279670D01*
X103050971Y-110279670D01*
G37*
X103050971Y-110279670D02*
X103365752Y-110490000D01*
X103050971Y-110700330D01*
X102870000Y-110971172D01*
X102689029Y-110700330D01*
X102374248Y-110490000D01*
X102689029Y-110279670D01*
X102870000Y-110008828D01*
X103050971Y-110279670D01*
G36*
X125632401Y-105947401D02*
X126382401Y-105197401D01*
X126547148Y-104950840D01*
X126605000Y-104660000D01*
X126605000Y-101794085D01*
X126692377Y-101664640D01*
X126702845Y-101612440D01*
X129159000Y-101612440D01*
X129401123Y-101565463D01*
X129613927Y-101425673D01*
X129756377Y-101214640D01*
X129803945Y-100977440D01*
X130556000Y-100977440D01*
X130798123Y-100930463D01*
X131010927Y-100790673D01*
X131123025Y-100624605D01*
X131195000Y-100696579D01*
X131195000Y-102017463D01*
X130996799Y-101935162D01*
X130624833Y-101934838D01*
X130384270Y-102034236D01*
X130361140Y-102018623D01*
X130111500Y-101968560D01*
X128968500Y-101968560D01*
X128726377Y-102015537D01*
X128513573Y-102155327D01*
X128371123Y-102366360D01*
X128321060Y-102616000D01*
X128321060Y-103124000D01*
X128368037Y-103366123D01*
X128459525Y-103505396D01*
X128371123Y-103636360D01*
X128321060Y-103886000D01*
X128321060Y-104394000D01*
X128368037Y-104636123D01*
X128459525Y-104775396D01*
X128371123Y-104906360D01*
X128321060Y-105156000D01*
X128321060Y-105664000D01*
X128368037Y-105906123D01*
X128459525Y-106045396D01*
X128371123Y-106176360D01*
X128321060Y-106426000D01*
X128321060Y-106934000D01*
X128368037Y-107176123D01*
X128507827Y-107388927D01*
X128718860Y-107531377D01*
X128968500Y-107581440D01*
X130111500Y-107581440D01*
X130196233Y-107565000D01*
X132497463Y-107565000D01*
X132415162Y-107763201D01*
X132414838Y-108135167D01*
X132453846Y-108229575D01*
X131078420Y-109605000D01*
X124766822Y-109605000D01*
X124646799Y-109555162D01*
X124274833Y-109554838D01*
X123931057Y-109696883D01*
X123667808Y-109959673D01*
X123525162Y-110303201D01*
X123524838Y-110675167D01*
X123555758Y-110750000D01*
X123128174Y-110750000D01*
X123305726Y-110572758D01*
X123669585Y-109696487D01*
X123670413Y-108747675D01*
X123308084Y-107870771D01*
X123019258Y-107581440D01*
X123761500Y-107581440D01*
X124003623Y-107534463D01*
X124216427Y-107394673D01*
X124358877Y-107183640D01*
X124408940Y-106934000D01*
X124408940Y-106426000D01*
X124361963Y-106183877D01*
X124352847Y-106170000D01*
X125095000Y-106170000D01*
X125385839Y-106112148D01*
X125632401Y-105947401D01*
X125632401Y-105947401D01*
G37*
X125632401Y-105947401D02*
X126382401Y-105197401D01*
X126547148Y-104950840D01*
X126605000Y-104660000D01*
X126605000Y-101794085D01*
X126692377Y-101664640D01*
X126702845Y-101612440D01*
X129159000Y-101612440D01*
X129401123Y-101565463D01*
X129613927Y-101425673D01*
X129756377Y-101214640D01*
X129803945Y-100977440D01*
X130556000Y-100977440D01*
X130798123Y-100930463D01*
X131010927Y-100790673D01*
X131123025Y-100624605D01*
X131195000Y-100696579D01*
X131195000Y-102017463D01*
X130996799Y-101935162D01*
X130624833Y-101934838D01*
X130384270Y-102034236D01*
X130361140Y-102018623D01*
X130111500Y-101968560D01*
X128968500Y-101968560D01*
X128726377Y-102015537D01*
X128513573Y-102155327D01*
X128371123Y-102366360D01*
X128321060Y-102616000D01*
X128321060Y-103124000D01*
X128368037Y-103366123D01*
X128459525Y-103505396D01*
X128371123Y-103636360D01*
X128321060Y-103886000D01*
X128321060Y-104394000D01*
X128368037Y-104636123D01*
X128459525Y-104775396D01*
X128371123Y-104906360D01*
X128321060Y-105156000D01*
X128321060Y-105664000D01*
X128368037Y-105906123D01*
X128459525Y-106045396D01*
X128371123Y-106176360D01*
X128321060Y-106426000D01*
X128321060Y-106934000D01*
X128368037Y-107176123D01*
X128507827Y-107388927D01*
X128718860Y-107531377D01*
X128968500Y-107581440D01*
X130111500Y-107581440D01*
X130196233Y-107565000D01*
X132497463Y-107565000D01*
X132415162Y-107763201D01*
X132414838Y-108135167D01*
X132453846Y-108229575D01*
X131078420Y-109605000D01*
X124766822Y-109605000D01*
X124646799Y-109555162D01*
X124274833Y-109554838D01*
X123931057Y-109696883D01*
X123667808Y-109959673D01*
X123525162Y-110303201D01*
X123524838Y-110675167D01*
X123555758Y-110750000D01*
X123128174Y-110750000D01*
X123305726Y-110572758D01*
X123669585Y-109696487D01*
X123670413Y-108747675D01*
X123308084Y-107870771D01*
X123019258Y-107581440D01*
X123761500Y-107581440D01*
X124003623Y-107534463D01*
X124216427Y-107394673D01*
X124358877Y-107183640D01*
X124408940Y-106934000D01*
X124408940Y-106426000D01*
X124361963Y-106183877D01*
X124352847Y-106170000D01*
X125095000Y-106170000D01*
X125385839Y-106112148D01*
X125632401Y-105947401D01*
G36*
X103050971Y-107739670D02*
X103365752Y-107950000D01*
X103050971Y-108160330D01*
X102870000Y-108431172D01*
X102689029Y-108160330D01*
X102374248Y-107950000D01*
X102689029Y-107739670D01*
X102870000Y-107468828D01*
X103050971Y-107739670D01*
X103050971Y-107739670D01*
G37*
X103050971Y-107739670D02*
X103365752Y-107950000D01*
X103050971Y-108160330D01*
X102870000Y-108431172D01*
X102689029Y-108160330D01*
X102374248Y-107950000D01*
X102689029Y-107739670D01*
X102870000Y-107468828D01*
X103050971Y-107739670D01*
G36*
X119944708Y-107193223D02*
X119960384Y-107170000D01*
X120000913Y-107170000D01*
X119944708Y-107193223D01*
X119944708Y-107193223D01*
G37*
X119944708Y-107193223D02*
X119960384Y-107170000D01*
X120000913Y-107170000D01*
X119944708Y-107193223D01*
G36*
X121971060Y-106922437D02*
X121761487Y-106835415D01*
X121676461Y-106835341D01*
X121822401Y-106689401D01*
X121942868Y-106509109D01*
X121971060Y-106503639D01*
X121971060Y-106922437D01*
X121971060Y-106922437D01*
G37*
X121971060Y-106922437D02*
X121761487Y-106835415D01*
X121676461Y-106835341D01*
X121822401Y-106689401D01*
X121942868Y-106509109D01*
X121971060Y-106503639D01*
X121971060Y-106922437D01*
G36*
X103050971Y-105199670D02*
X103365752Y-105410000D01*
X103050971Y-105620330D01*
X102870000Y-105891172D01*
X102689029Y-105620330D01*
X102374248Y-105410000D01*
X102689029Y-105199670D01*
X102870000Y-104928828D01*
X103050971Y-105199670D01*
X103050971Y-105199670D01*
G37*
X103050971Y-105199670D02*
X103365752Y-105410000D01*
X103050971Y-105620330D01*
X102870000Y-105891172D01*
X102689029Y-105620330D01*
X102374248Y-105410000D01*
X102689029Y-105199670D01*
X102870000Y-104928828D01*
X103050971Y-105199670D01*
G36*
X132465000Y-105103178D02*
X132415162Y-105223201D01*
X132414838Y-105595167D01*
X132497407Y-105795000D01*
X131662537Y-105795000D01*
X131744838Y-105596799D01*
X131745162Y-105224833D01*
X131646067Y-104985005D01*
X131727484Y-104968810D01*
X131783675Y-104957633D01*
X132070790Y-104765790D01*
X132465000Y-104371579D01*
X132465000Y-105103178D01*
X132465000Y-105103178D01*
G37*
X132465000Y-105103178D02*
X132415162Y-105223201D01*
X132414838Y-105595167D01*
X132497407Y-105795000D01*
X131662537Y-105795000D01*
X131744838Y-105596799D01*
X131745162Y-105224833D01*
X131646067Y-104985005D01*
X131727484Y-104968810D01*
X131783675Y-104957633D01*
X132070790Y-104765790D01*
X132465000Y-104371579D01*
X132465000Y-105103178D01*
G36*
X125085000Y-104345198D02*
X124780198Y-104650000D01*
X124354584Y-104650000D01*
X124358877Y-104643640D01*
X124408940Y-104394000D01*
X124408940Y-103886000D01*
X124361963Y-103643877D01*
X124270475Y-103504604D01*
X124358877Y-103373640D01*
X124408940Y-103124000D01*
X124408940Y-102616000D01*
X124361963Y-102373877D01*
X124222173Y-102161073D01*
X124068045Y-102057034D01*
X124095000Y-102062440D01*
X124595000Y-102062440D01*
X124837123Y-102015463D01*
X125049927Y-101875673D01*
X125085000Y-101823714D01*
X125085000Y-104345198D01*
X125085000Y-104345198D01*
G37*
X125085000Y-104345198D02*
X124780198Y-104650000D01*
X124354584Y-104650000D01*
X124358877Y-104643640D01*
X124408940Y-104394000D01*
X124408940Y-103886000D01*
X124361963Y-103643877D01*
X124270475Y-103504604D01*
X124358877Y-103373640D01*
X124408940Y-103124000D01*
X124408940Y-102616000D01*
X124361963Y-102373877D01*
X124222173Y-102161073D01*
X124068045Y-102057034D01*
X124095000Y-102062440D01*
X124595000Y-102062440D01*
X124837123Y-102015463D01*
X125049927Y-101875673D01*
X125085000Y-101823714D01*
X125085000Y-104345198D01*
G36*
X103050971Y-102659670D02*
X103365752Y-102870000D01*
X103050971Y-103080330D01*
X102870000Y-103351172D01*
X102689029Y-103080330D01*
X102374248Y-102870000D01*
X102689029Y-102659670D01*
X102870000Y-102388828D01*
X103050971Y-102659670D01*
X103050971Y-102659670D01*
G37*
X103050971Y-102659670D02*
X103365752Y-102870000D01*
X103050971Y-103080330D01*
X102870000Y-103351172D01*
X102689029Y-103080330D01*
X102374248Y-102870000D01*
X102689029Y-102659670D01*
X102870000Y-102388828D01*
X103050971Y-102659670D01*
G36*
X103050971Y-100119670D02*
X103365752Y-100330000D01*
X103050971Y-100540330D01*
X102870000Y-100811172D01*
X102689029Y-100540330D01*
X102374248Y-100330000D01*
X102689029Y-100119670D01*
X102870000Y-99848828D01*
X103050971Y-100119670D01*
X103050971Y-100119670D01*
G37*
X103050971Y-100119670D02*
X103365752Y-100330000D01*
X103050971Y-100540330D01*
X102870000Y-100811172D01*
X102689029Y-100540330D01*
X102374248Y-100330000D01*
X102689029Y-100119670D01*
X102870000Y-99848828D01*
X103050971Y-100119670D01*
G36*
X132415162Y-95063201D02*
X132414838Y-95435167D01*
X132465000Y-95556569D01*
X132465000Y-99463421D01*
X132070790Y-99069210D01*
X131928538Y-98974161D01*
X131783675Y-98877367D01*
X131727484Y-98866190D01*
X131445000Y-98809999D01*
X131444995Y-98810000D01*
X131185000Y-98810000D01*
X131185000Y-98310000D01*
X131108118Y-97923490D01*
X130889178Y-97595822D01*
X129020796Y-95727440D01*
X129484000Y-95727440D01*
X129726123Y-95680463D01*
X129938927Y-95540673D01*
X130081377Y-95329640D01*
X130131440Y-95080000D01*
X130131440Y-94990000D01*
X132445558Y-94990000D01*
X132415162Y-95063201D01*
X132415162Y-95063201D01*
G37*
X132415162Y-95063201D02*
X132414838Y-95435167D01*
X132465000Y-95556569D01*
X132465000Y-99463421D01*
X132070790Y-99069210D01*
X131928538Y-98974161D01*
X131783675Y-98877367D01*
X131727484Y-98866190D01*
X131445000Y-98809999D01*
X131444995Y-98810000D01*
X131185000Y-98810000D01*
X131185000Y-98310000D01*
X131108118Y-97923490D01*
X130889178Y-97595822D01*
X129020796Y-95727440D01*
X129484000Y-95727440D01*
X129726123Y-95680463D01*
X129938927Y-95540673D01*
X130081377Y-95329640D01*
X130131440Y-95080000D01*
X130131440Y-94990000D01*
X132445558Y-94990000D01*
X132415162Y-95063201D01*
G36*
X103050971Y-97579670D02*
X103365752Y-97790000D01*
X103050971Y-98000330D01*
X102870000Y-98271172D01*
X102689029Y-98000330D01*
X102374248Y-97790000D01*
X102689029Y-97579670D01*
X102870000Y-97308828D01*
X103050971Y-97579670D01*
X103050971Y-97579670D01*
G37*
X103050971Y-97579670D02*
X103365752Y-97790000D01*
X103050971Y-98000330D01*
X102870000Y-98271172D01*
X102689029Y-98000330D01*
X102374248Y-97790000D01*
X102689029Y-97579670D01*
X102870000Y-97308828D01*
X103050971Y-97579670D01*
G36*
X125095386Y-98215529D02*
X125062194Y-98165000D01*
X125129494Y-98165000D01*
X125095386Y-98215529D01*
X125095386Y-98215529D01*
G37*
X125095386Y-98215529D02*
X125062194Y-98165000D01*
X125129494Y-98165000D01*
X125095386Y-98215529D01*
G36*
X132159178Y-89614178D02*
X132465000Y-89308356D01*
X132465000Y-92403178D01*
X132415162Y-92523201D01*
X132414838Y-92895167D01*
X132445758Y-92970000D01*
X130131440Y-92970000D01*
X130131440Y-92880000D01*
X130084463Y-92637877D01*
X129944673Y-92425073D01*
X129733640Y-92282623D01*
X129484000Y-92232560D01*
X127784000Y-92232560D01*
X127541877Y-92279537D01*
X127329073Y-92419327D01*
X127186623Y-92630360D01*
X127136560Y-92880000D01*
X127136560Y-94875000D01*
X125407356Y-94875000D01*
X124831440Y-94299084D01*
X124831440Y-92880000D01*
X124784463Y-92637877D01*
X124644673Y-92425073D01*
X124433640Y-92282623D01*
X124184000Y-92232560D01*
X122484000Y-92232560D01*
X122241877Y-92279537D01*
X122029073Y-92419327D01*
X121886623Y-92630360D01*
X121836560Y-92880000D01*
X121836560Y-95080000D01*
X121883537Y-95322123D01*
X122023327Y-95534927D01*
X122234360Y-95677377D01*
X122484000Y-95727440D01*
X123403084Y-95727440D01*
X123820644Y-96145000D01*
X123537410Y-96145000D01*
X123150900Y-96221882D01*
X122823232Y-96440822D01*
X121389072Y-97874982D01*
X121343083Y-97804973D01*
X121132050Y-97662523D01*
X120882410Y-97612460D01*
X120092820Y-97612460D01*
X120092820Y-92887540D01*
X120882410Y-92887540D01*
X121124533Y-92840563D01*
X121337337Y-92700773D01*
X121479787Y-92489740D01*
X121529850Y-92240100D01*
X121529850Y-90639900D01*
X121482873Y-90397777D01*
X121343083Y-90184973D01*
X121132050Y-90042523D01*
X120882410Y-89992460D01*
X120408616Y-89992460D01*
X120491076Y-89910000D01*
X131445000Y-89910000D01*
X131831510Y-89833118D01*
X132159178Y-89614178D01*
X132159178Y-89614178D01*
G37*
X132159178Y-89614178D02*
X132465000Y-89308356D01*
X132465000Y-92403178D01*
X132415162Y-92523201D01*
X132414838Y-92895167D01*
X132445758Y-92970000D01*
X130131440Y-92970000D01*
X130131440Y-92880000D01*
X130084463Y-92637877D01*
X129944673Y-92425073D01*
X129733640Y-92282623D01*
X129484000Y-92232560D01*
X127784000Y-92232560D01*
X127541877Y-92279537D01*
X127329073Y-92419327D01*
X127186623Y-92630360D01*
X127136560Y-92880000D01*
X127136560Y-94875000D01*
X125407356Y-94875000D01*
X124831440Y-94299084D01*
X124831440Y-92880000D01*
X124784463Y-92637877D01*
X124644673Y-92425073D01*
X124433640Y-92282623D01*
X124184000Y-92232560D01*
X122484000Y-92232560D01*
X122241877Y-92279537D01*
X122029073Y-92419327D01*
X121886623Y-92630360D01*
X121836560Y-92880000D01*
X121836560Y-95080000D01*
X121883537Y-95322123D01*
X122023327Y-95534927D01*
X122234360Y-95677377D01*
X122484000Y-95727440D01*
X123403084Y-95727440D01*
X123820644Y-96145000D01*
X123537410Y-96145000D01*
X123150900Y-96221882D01*
X122823232Y-96440822D01*
X121389072Y-97874982D01*
X121343083Y-97804973D01*
X121132050Y-97662523D01*
X120882410Y-97612460D01*
X120092820Y-97612460D01*
X120092820Y-92887540D01*
X120882410Y-92887540D01*
X121124533Y-92840563D01*
X121337337Y-92700773D01*
X121479787Y-92489740D01*
X121529850Y-92240100D01*
X121529850Y-90639900D01*
X121482873Y-90397777D01*
X121343083Y-90184973D01*
X121132050Y-90042523D01*
X120882410Y-89992460D01*
X120408616Y-89992460D01*
X120491076Y-89910000D01*
X131445000Y-89910000D01*
X131831510Y-89833118D01*
X132159178Y-89614178D01*
G36*
X103050971Y-95039670D02*
X103365752Y-95250000D01*
X103050971Y-95460330D01*
X102870000Y-95731172D01*
X102689029Y-95460330D01*
X102374248Y-95250000D01*
X102689029Y-95039670D01*
X102870000Y-94768828D01*
X103050971Y-95039670D01*
X103050971Y-95039670D01*
G37*
X103050971Y-95039670D02*
X103365752Y-95250000D01*
X103050971Y-95460330D01*
X102870000Y-95731172D01*
X102689029Y-95460330D01*
X102374248Y-95250000D01*
X102689029Y-95039670D01*
X102870000Y-94768828D01*
X103050971Y-95039670D01*
G36*
X103050971Y-92499670D02*
X103365752Y-92710000D01*
X103050971Y-92920330D01*
X102870000Y-93191172D01*
X102689029Y-92920330D01*
X102374248Y-92710000D01*
X102689029Y-92499670D01*
X102870000Y-92228828D01*
X103050971Y-92499670D01*
X103050971Y-92499670D01*
G37*
X103050971Y-92499670D02*
X103365752Y-92710000D01*
X103050971Y-92920330D01*
X102870000Y-93191172D01*
X102689029Y-92920330D01*
X102374248Y-92710000D01*
X102689029Y-92499670D01*
X102870000Y-92228828D01*
X103050971Y-92499670D01*
G36*
X103050971Y-89959670D02*
X103365752Y-90170000D01*
X103050971Y-90380330D01*
X102870000Y-90651172D01*
X102689029Y-90380330D01*
X102374248Y-90170000D01*
X102689029Y-89959670D01*
X102870000Y-89688828D01*
X103050971Y-89959670D01*
X103050971Y-89959670D01*
G37*
X103050971Y-89959670D02*
X103365752Y-90170000D01*
X103050971Y-90380330D01*
X102870000Y-90651172D01*
X102689029Y-90380330D01*
X102374248Y-90170000D01*
X102689029Y-89959670D01*
X102870000Y-89688828D01*
X103050971Y-89959670D01*
G36*
X103050971Y-87419670D02*
X103365752Y-87630000D01*
X103050971Y-87840330D01*
X102870000Y-88111172D01*
X102689029Y-87840330D01*
X102374248Y-87630000D01*
X102689029Y-87419670D01*
X102870000Y-87148828D01*
X103050971Y-87419670D01*
X103050971Y-87419670D01*
G37*
X103050971Y-87419670D02*
X103365752Y-87630000D01*
X103050971Y-87840330D01*
X102870000Y-88111172D01*
X102689029Y-87840330D01*
X102374248Y-87630000D01*
X102689029Y-87419670D01*
X102870000Y-87148828D01*
X103050971Y-87419670D01*
G36*
X103050971Y-84879670D02*
X103365752Y-85090000D01*
X103050971Y-85300330D01*
X102870000Y-85571172D01*
X102689029Y-85300330D01*
X102374248Y-85090000D01*
X102689029Y-84879670D01*
X102870000Y-84608828D01*
X103050971Y-84879670D01*
X103050971Y-84879670D01*
G37*
X103050971Y-84879670D02*
X103365752Y-85090000D01*
X103050971Y-85300330D01*
X102870000Y-85571172D01*
X102689029Y-85300330D01*
X102374248Y-85090000D01*
X102689029Y-84879670D01*
X102870000Y-84608828D01*
X103050971Y-84879670D01*
G36*
X103050971Y-82339670D02*
X103365752Y-82550000D01*
X103050971Y-82760330D01*
X102870000Y-83031172D01*
X102689029Y-82760330D01*
X102374248Y-82550000D01*
X102689029Y-82339670D01*
X102870000Y-82068828D01*
X103050971Y-82339670D01*
X103050971Y-82339670D01*
G37*
X103050971Y-82339670D02*
X103365752Y-82550000D01*
X103050971Y-82760330D01*
X102870000Y-83031172D01*
X102689029Y-82760330D01*
X102374248Y-82550000D01*
X102689029Y-82339670D01*
X102870000Y-82068828D01*
X103050971Y-82339670D01*
G36*
X107190000Y-80965198D02*
X105295455Y-82859743D01*
X105229029Y-82760330D01*
X104914248Y-82550000D01*
X105229029Y-82339670D01*
X105553885Y-81853489D01*
X105667959Y-81280000D01*
X105553885Y-80706511D01*
X105229029Y-80220330D01*
X104914248Y-80010000D01*
X105229029Y-79799670D01*
X105553885Y-79313489D01*
X105667959Y-78740000D01*
X105553885Y-78166511D01*
X105229029Y-77680330D01*
X104914248Y-77470000D01*
X105229029Y-77259670D01*
X105429262Y-76960000D01*
X107190000Y-76960000D01*
X107190000Y-80965198D01*
X107190000Y-80965198D01*
G37*
X107190000Y-80965198D02*
X105295455Y-82859743D01*
X105229029Y-82760330D01*
X104914248Y-82550000D01*
X105229029Y-82339670D01*
X105553885Y-81853489D01*
X105667959Y-81280000D01*
X105553885Y-80706511D01*
X105229029Y-80220330D01*
X104914248Y-80010000D01*
X105229029Y-79799670D01*
X105553885Y-79313489D01*
X105667959Y-78740000D01*
X105553885Y-78166511D01*
X105229029Y-77680330D01*
X104914248Y-77470000D01*
X105229029Y-77259670D01*
X105429262Y-76960000D01*
X107190000Y-76960000D01*
X107190000Y-80965198D01*
G36*
X103050971Y-79799670D02*
X103365752Y-80010000D01*
X103050971Y-80220330D01*
X102870000Y-80491172D01*
X102689029Y-80220330D01*
X102374248Y-80010000D01*
X102689029Y-79799670D01*
X102870000Y-79528828D01*
X103050971Y-79799670D01*
X103050971Y-79799670D01*
G37*
X103050971Y-79799670D02*
X103365752Y-80010000D01*
X103050971Y-80220330D01*
X102870000Y-80491172D01*
X102689029Y-80220330D01*
X102374248Y-80010000D01*
X102689029Y-79799670D01*
X102870000Y-79528828D01*
X103050971Y-79799670D01*
G36*
X103050971Y-77259670D02*
X103365752Y-77470000D01*
X103050971Y-77680330D01*
X102870000Y-77951172D01*
X102689029Y-77680330D01*
X102374248Y-77470000D01*
X102689029Y-77259670D01*
X102870000Y-76988828D01*
X103050971Y-77259670D01*
X103050971Y-77259670D01*
G37*
X103050971Y-77259670D02*
X103365752Y-77470000D01*
X103050971Y-77680330D01*
X102870000Y-77951172D01*
X102689029Y-77680330D01*
X102374248Y-77470000D01*
X102689029Y-77259670D01*
X102870000Y-76988828D01*
X103050971Y-77259670D01*
G36*
X131195000Y-74680000D02*
X125401822Y-74680000D01*
X125281799Y-74630162D01*
X125199712Y-74630090D01*
X125234680Y-74595122D01*
X125280167Y-74595162D01*
X125623943Y-74453117D01*
X125887192Y-74190327D01*
X126029838Y-73846799D01*
X126030162Y-73474833D01*
X125888117Y-73131057D01*
X125877699Y-73120621D01*
X126020839Y-73092148D01*
X126267401Y-72927401D01*
X126902401Y-72292401D01*
X127067148Y-72045839D01*
X127095550Y-71903053D01*
X127104673Y-71912192D01*
X127448201Y-72054838D01*
X127820167Y-72055162D01*
X128163943Y-71913117D01*
X128427192Y-71650327D01*
X128569838Y-71306799D01*
X128570162Y-70934833D01*
X128520000Y-70813431D01*
X128520000Y-70712976D01*
X128532377Y-70694640D01*
X128582440Y-70445000D01*
X128582440Y-68495000D01*
X128535463Y-68252877D01*
X128395673Y-68040073D01*
X128184640Y-67897623D01*
X128132613Y-67887189D01*
X131195000Y-64824802D01*
X131195000Y-74680000D01*
X131195000Y-74680000D01*
G37*
X131195000Y-74680000D02*
X125401822Y-74680000D01*
X125281799Y-74630162D01*
X125199712Y-74630090D01*
X125234680Y-74595122D01*
X125280167Y-74595162D01*
X125623943Y-74453117D01*
X125887192Y-74190327D01*
X126029838Y-73846799D01*
X126030162Y-73474833D01*
X125888117Y-73131057D01*
X125877699Y-73120621D01*
X126020839Y-73092148D01*
X126267401Y-72927401D01*
X126902401Y-72292401D01*
X127067148Y-72045839D01*
X127095550Y-71903053D01*
X127104673Y-71912192D01*
X127448201Y-72054838D01*
X127820167Y-72055162D01*
X128163943Y-71913117D01*
X128427192Y-71650327D01*
X128569838Y-71306799D01*
X128570162Y-70934833D01*
X128520000Y-70813431D01*
X128520000Y-70712976D01*
X128532377Y-70694640D01*
X128582440Y-70445000D01*
X128582440Y-68495000D01*
X128535463Y-68252877D01*
X128395673Y-68040073D01*
X128184640Y-67897623D01*
X128132613Y-67887189D01*
X131195000Y-64824802D01*
X131195000Y-74680000D01*
G36*
X124139802Y-73150000D02*
X124294367Y-73150000D01*
X124160162Y-73473201D01*
X124160121Y-73520077D01*
X123510198Y-74170000D01*
X123119802Y-74170000D01*
X124139802Y-73150000D01*
X124139802Y-73150000D01*
G37*
X124139802Y-73150000D02*
X124294367Y-73150000D01*
X124160162Y-73473201D01*
X124160121Y-73520077D01*
X123510198Y-74170000D01*
X123119802Y-74170000D01*
X124139802Y-73150000D01*
G36*
X105566514Y-74170000D02*
X105667959Y-73660000D01*
X105553885Y-73086511D01*
X105229029Y-72600330D01*
X104914248Y-72390000D01*
X105229029Y-72179670D01*
X105432215Y-71875581D01*
X105700839Y-71822148D01*
X105947401Y-71657401D01*
X108899802Y-68705000D01*
X112465198Y-68705000D01*
X107000198Y-74170000D01*
X105566514Y-74170000D01*
X105566514Y-74170000D01*
G37*
X105566514Y-74170000D02*
X105667959Y-73660000D01*
X105553885Y-73086511D01*
X105229029Y-72600330D01*
X104914248Y-72390000D01*
X105229029Y-72179670D01*
X105432215Y-71875581D01*
X105700839Y-71822148D01*
X105947401Y-71657401D01*
X108899802Y-68705000D01*
X112465198Y-68705000D01*
X107000198Y-74170000D01*
X105566514Y-74170000D01*
G36*
X115307623Y-68245360D02*
X115257560Y-68495000D01*
X115257560Y-70445000D01*
X115304537Y-70687123D01*
X115444327Y-70899927D01*
X115655360Y-71042377D01*
X115905000Y-71092440D01*
X116482152Y-71092440D01*
X116452560Y-71240000D01*
X116452560Y-72040000D01*
X116499537Y-72282123D01*
X116570384Y-72389975D01*
X116502623Y-72490360D01*
X116452560Y-72740000D01*
X116452560Y-73535000D01*
X109784802Y-73535000D01*
X113895402Y-69424400D01*
X114113201Y-69514838D01*
X114485167Y-69515162D01*
X114828943Y-69373117D01*
X115092192Y-69110327D01*
X115234838Y-68766799D01*
X115235162Y-68394833D01*
X115100944Y-68070000D01*
X115425993Y-68070000D01*
X115307623Y-68245360D01*
X115307623Y-68245360D01*
G37*
X115307623Y-68245360D02*
X115257560Y-68495000D01*
X115257560Y-70445000D01*
X115304537Y-70687123D01*
X115444327Y-70899927D01*
X115655360Y-71042377D01*
X115905000Y-71092440D01*
X116482152Y-71092440D01*
X116452560Y-71240000D01*
X116452560Y-72040000D01*
X116499537Y-72282123D01*
X116570384Y-72389975D01*
X116502623Y-72490360D01*
X116452560Y-72740000D01*
X116452560Y-73535000D01*
X109784802Y-73535000D01*
X113895402Y-69424400D01*
X114113201Y-69514838D01*
X114485167Y-69515162D01*
X114828943Y-69373117D01*
X115092192Y-69110327D01*
X115234838Y-68766799D01*
X115235162Y-68394833D01*
X115100944Y-68070000D01*
X115425993Y-68070000D01*
X115307623Y-68245360D01*
G36*
X121077255Y-72798835D02*
X121126883Y-72918943D01*
X121389673Y-73182192D01*
X121733201Y-73324838D01*
X121815288Y-73324910D01*
X121605198Y-73535000D01*
X119545633Y-73535000D01*
X119679838Y-73211799D01*
X119680162Y-72839833D01*
X119550076Y-72525000D01*
X120803420Y-72525000D01*
X121077255Y-72798835D01*
X121077255Y-72798835D01*
G37*
X121077255Y-72798835D02*
X121126883Y-72918943D01*
X121389673Y-73182192D01*
X121733201Y-73324838D01*
X121815288Y-73324910D01*
X121605198Y-73535000D01*
X119545633Y-73535000D01*
X119679838Y-73211799D01*
X119680162Y-72839833D01*
X119550076Y-72525000D01*
X120803420Y-72525000D01*
X121077255Y-72798835D01*
G36*
X103050971Y-72179670D02*
X103365752Y-72390000D01*
X103050971Y-72600330D01*
X102870000Y-72871172D01*
X102689029Y-72600330D01*
X102374248Y-72390000D01*
X102689029Y-72179670D01*
X102870000Y-71908828D01*
X103050971Y-72179670D01*
X103050971Y-72179670D01*
G37*
X103050971Y-72179670D02*
X103365752Y-72390000D01*
X103050971Y-72600330D01*
X102870000Y-72871172D01*
X102689029Y-72600330D01*
X102374248Y-72390000D01*
X102689029Y-72179670D01*
X102870000Y-71908828D01*
X103050971Y-72179670D01*
G36*
X123275360Y-71042377D02*
X123525000Y-71092440D01*
X124125000Y-71092440D01*
X124160029Y-71085644D01*
X124159838Y-71305167D01*
X124294056Y-71630000D01*
X123825000Y-71630000D01*
X123534161Y-71687852D01*
X123287599Y-71852599D01*
X122855092Y-72285106D01*
X122855162Y-72204833D01*
X122713117Y-71861057D01*
X122450327Y-71597808D01*
X122329013Y-71547434D01*
X121827056Y-71045476D01*
X121827123Y-71045463D01*
X121919771Y-70984603D01*
X122005360Y-71042377D01*
X122255000Y-71092440D01*
X122855000Y-71092440D01*
X123097123Y-71045463D01*
X123189771Y-70984603D01*
X123275360Y-71042377D01*
X123275360Y-71042377D01*
G37*
X123275360Y-71042377D02*
X123525000Y-71092440D01*
X124125000Y-71092440D01*
X124160029Y-71085644D01*
X124159838Y-71305167D01*
X124294056Y-71630000D01*
X123825000Y-71630000D01*
X123534161Y-71687852D01*
X123287599Y-71852599D01*
X122855092Y-72285106D01*
X122855162Y-72204833D01*
X122713117Y-71861057D01*
X122450327Y-71597808D01*
X122329013Y-71547434D01*
X121827056Y-71045476D01*
X121827123Y-71045463D01*
X121919771Y-70984603D01*
X122005360Y-71042377D01*
X122255000Y-71092440D01*
X122855000Y-71092440D01*
X123097123Y-71045463D01*
X123189771Y-70984603D01*
X123275360Y-71042377D01*
G36*
X103050971Y-69639670D02*
X103365752Y-69850000D01*
X103050971Y-70060330D01*
X102870000Y-70331172D01*
X102689029Y-70060330D01*
X102374248Y-69850000D01*
X102689029Y-69639670D01*
X102870000Y-69368828D01*
X103050971Y-69639670D01*
X103050971Y-69639670D01*
G37*
X103050971Y-69639670D02*
X103365752Y-69850000D01*
X103050971Y-70060330D01*
X102870000Y-70331172D01*
X102689029Y-70060330D01*
X102374248Y-69850000D01*
X102689029Y-69639670D01*
X102870000Y-69368828D01*
X103050971Y-69639670D01*
G36*
X105295455Y-70159743D02*
X105229029Y-70060330D01*
X104914248Y-69850000D01*
X105229029Y-69639670D01*
X105553885Y-69153489D01*
X105667959Y-68580000D01*
X105566514Y-68070000D01*
X107385198Y-68070000D01*
X105295455Y-70159743D01*
X105295455Y-70159743D01*
G37*
X105295455Y-70159743D02*
X105229029Y-70060330D01*
X104914248Y-69850000D01*
X105229029Y-69639670D01*
X105553885Y-69153489D01*
X105667959Y-68580000D01*
X105566514Y-68070000D01*
X107385198Y-68070000D01*
X105295455Y-70159743D01*
G36*
X123347192Y-66570327D02*
X123489838Y-66226799D01*
X123489879Y-66179923D01*
X126876341Y-62793461D01*
X127104673Y-63022192D01*
X127448201Y-63164838D01*
X127820167Y-63165162D01*
X128163943Y-63023117D01*
X128427192Y-62760327D01*
X128569838Y-62416799D01*
X128570162Y-62044833D01*
X128520000Y-61923431D01*
X128520000Y-61312976D01*
X128532377Y-61294640D01*
X128582440Y-61045000D01*
X128582440Y-59180000D01*
X129540000Y-59180000D01*
X129830839Y-59122148D01*
X129874966Y-59092663D01*
X129874838Y-59240167D01*
X130016883Y-59583943D01*
X130122710Y-59689954D01*
X130017808Y-59794673D01*
X129893378Y-60094332D01*
X129726799Y-60025162D01*
X129354833Y-60024838D01*
X129011057Y-60166883D01*
X128747808Y-60429673D01*
X128605162Y-60773201D01*
X128604838Y-61145167D01*
X128746883Y-61488943D01*
X128780000Y-61522118D01*
X128780000Y-63820198D01*
X124742440Y-67857758D01*
X124552877Y-67894537D01*
X124460229Y-67955397D01*
X124374640Y-67897623D01*
X124177988Y-67858186D01*
X123118461Y-66798659D01*
X123347192Y-66570327D01*
X123347192Y-66570327D01*
G37*
X123347192Y-66570327D02*
X123489838Y-66226799D01*
X123489879Y-66179923D01*
X126876341Y-62793461D01*
X127104673Y-63022192D01*
X127448201Y-63164838D01*
X127820167Y-63165162D01*
X128163943Y-63023117D01*
X128427192Y-62760327D01*
X128569838Y-62416799D01*
X128570162Y-62044833D01*
X128520000Y-61923431D01*
X128520000Y-61312976D01*
X128532377Y-61294640D01*
X128582440Y-61045000D01*
X128582440Y-59180000D01*
X129540000Y-59180000D01*
X129830839Y-59122148D01*
X129874966Y-59092663D01*
X129874838Y-59240167D01*
X130016883Y-59583943D01*
X130122710Y-59689954D01*
X130017808Y-59794673D01*
X129893378Y-60094332D01*
X129726799Y-60025162D01*
X129354833Y-60024838D01*
X129011057Y-60166883D01*
X128747808Y-60429673D01*
X128605162Y-60773201D01*
X128604838Y-61145167D01*
X128746883Y-61488943D01*
X128780000Y-61522118D01*
X128780000Y-63820198D01*
X124742440Y-67857758D01*
X124552877Y-67894537D01*
X124460229Y-67955397D01*
X124374640Y-67897623D01*
X124177988Y-67858186D01*
X123118461Y-66798659D01*
X123347192Y-66570327D01*
G36*
X121822401Y-64037401D02*
X124177560Y-61682242D01*
X124335000Y-61651696D01*
X124335000Y-61915198D01*
X122415320Y-63834878D01*
X122369833Y-63834838D01*
X122026057Y-63976883D01*
X121762808Y-64239673D01*
X121620162Y-64583201D01*
X121619838Y-64955167D01*
X121761883Y-65298943D01*
X121867710Y-65404954D01*
X121796171Y-65476369D01*
X120579802Y-64260000D01*
X121285000Y-64260000D01*
X121575839Y-64202148D01*
X121822401Y-64037401D01*
X121822401Y-64037401D01*
G37*
X121822401Y-64037401D02*
X124177560Y-61682242D01*
X124335000Y-61651696D01*
X124335000Y-61915198D01*
X122415320Y-63834878D01*
X122369833Y-63834838D01*
X122026057Y-63976883D01*
X121762808Y-64239673D01*
X121620162Y-64583201D01*
X121619838Y-64955167D01*
X121761883Y-65298943D01*
X121867710Y-65404954D01*
X121796171Y-65476369D01*
X120579802Y-64260000D01*
X121285000Y-64260000D01*
X121575839Y-64202148D01*
X121822401Y-64037401D01*
G36*
X103050971Y-64559670D02*
X103365752Y-64770000D01*
X103050971Y-64980330D01*
X102870000Y-65251172D01*
X102689029Y-64980330D01*
X102374248Y-64770000D01*
X102689029Y-64559670D01*
X102870000Y-64288828D01*
X103050971Y-64559670D01*
X103050971Y-64559670D01*
G37*
X103050971Y-64559670D02*
X103365752Y-64770000D01*
X103050971Y-64980330D01*
X102870000Y-65251172D01*
X102689029Y-64980330D01*
X102374248Y-64770000D01*
X102689029Y-64559670D01*
X102870000Y-64288828D01*
X103050971Y-64559670D01*
G36*
X103050971Y-62019670D02*
X103365752Y-62230000D01*
X103050971Y-62440330D01*
X102870000Y-62711172D01*
X102689029Y-62440330D01*
X102374248Y-62230000D01*
X102689029Y-62019670D01*
X102870000Y-61748828D01*
X103050971Y-62019670D01*
X103050971Y-62019670D01*
G37*
X103050971Y-62019670D02*
X103365752Y-62230000D01*
X103050971Y-62440330D01*
X102870000Y-62711172D01*
X102689029Y-62440330D01*
X102374248Y-62230000D01*
X102689029Y-62019670D01*
X102870000Y-61748828D01*
X103050971Y-62019670D01*
G36*
X119080162Y-56328201D02*
X119080121Y-56375077D01*
X118207599Y-57247599D01*
X118042852Y-57494161D01*
X118014450Y-57636947D01*
X118005327Y-57627808D01*
X117661799Y-57485162D01*
X117289833Y-57484838D01*
X116946057Y-57626883D01*
X116682808Y-57889673D01*
X116540162Y-58233201D01*
X116539969Y-58454573D01*
X116505000Y-58447560D01*
X115905000Y-58447560D01*
X115662877Y-58494537D01*
X115450073Y-58634327D01*
X115307623Y-58845360D01*
X115257560Y-59095000D01*
X115257560Y-60835000D01*
X113344802Y-60835000D01*
X111885000Y-59375198D01*
X111885000Y-53623356D01*
X114220822Y-55959178D01*
X114548489Y-56178118D01*
X114935000Y-56255000D01*
X119110558Y-56255000D01*
X119080162Y-56328201D01*
X119080162Y-56328201D01*
G37*
X119080162Y-56328201D02*
X119080121Y-56375077D01*
X118207599Y-57247599D01*
X118042852Y-57494161D01*
X118014450Y-57636947D01*
X118005327Y-57627808D01*
X117661799Y-57485162D01*
X117289833Y-57484838D01*
X116946057Y-57626883D01*
X116682808Y-57889673D01*
X116540162Y-58233201D01*
X116539969Y-58454573D01*
X116505000Y-58447560D01*
X115905000Y-58447560D01*
X115662877Y-58494537D01*
X115450073Y-58634327D01*
X115307623Y-58845360D01*
X115257560Y-59095000D01*
X115257560Y-60835000D01*
X113344802Y-60835000D01*
X111885000Y-59375198D01*
X111885000Y-53623356D01*
X114220822Y-55959178D01*
X114548489Y-56178118D01*
X114935000Y-56255000D01*
X119110558Y-56255000D01*
X119080162Y-56328201D01*
G36*
X103050971Y-59479670D02*
X103365752Y-59690000D01*
X103050971Y-59900330D01*
X102870000Y-60171172D01*
X102689029Y-59900330D01*
X102374248Y-59690000D01*
X102689029Y-59479670D01*
X102870000Y-59208828D01*
X103050971Y-59479670D01*
X103050971Y-59479670D01*
G37*
X103050971Y-59479670D02*
X103365752Y-59690000D01*
X103050971Y-59900330D01*
X102870000Y-60171172D01*
X102689029Y-59900330D01*
X102374248Y-59690000D01*
X102689029Y-59479670D01*
X102870000Y-59208828D01*
X103050971Y-59479670D01*
G36*
X131693490Y-56178118D02*
X132080000Y-56255000D01*
X132340000Y-56255000D01*
X132340000Y-59333421D01*
X131652744Y-58646164D01*
X131603117Y-58526057D01*
X131340327Y-58262808D01*
X130996799Y-58120162D01*
X130914712Y-58120090D01*
X131347401Y-57687401D01*
X131512148Y-57440840D01*
X131570000Y-57150000D01*
X131570000Y-56095605D01*
X131693490Y-56178118D01*
X131693490Y-56178118D01*
G37*
X131693490Y-56178118D02*
X132080000Y-56255000D01*
X132340000Y-56255000D01*
X132340000Y-59333421D01*
X131652744Y-58646164D01*
X131603117Y-58526057D01*
X131340327Y-58262808D01*
X130996799Y-58120162D01*
X130914712Y-58120090D01*
X131347401Y-57687401D01*
X131512148Y-57440840D01*
X131570000Y-57150000D01*
X131570000Y-56095605D01*
X131693490Y-56178118D01*
G36*
X129415000Y-56200198D02*
X128590198Y-57025000D01*
X126365000Y-57025000D01*
X126074160Y-57082852D01*
X125827599Y-57247599D01*
X124587349Y-58487849D01*
X124552877Y-58494537D01*
X124460229Y-58555397D01*
X124374640Y-58497623D01*
X124125000Y-58447560D01*
X123525000Y-58447560D01*
X123282877Y-58494537D01*
X123190229Y-58555397D01*
X123104640Y-58497623D01*
X122855000Y-58447560D01*
X122255000Y-58447560D01*
X122012877Y-58494537D01*
X121920229Y-58555397D01*
X121834640Y-58497623D01*
X121585000Y-58447560D01*
X120985000Y-58447560D01*
X120742877Y-58494537D01*
X120650229Y-58555397D01*
X120564640Y-58497623D01*
X120315000Y-58447560D01*
X119715000Y-58447560D01*
X119505000Y-58488304D01*
X119505000Y-58099802D01*
X120154680Y-57450122D01*
X120200167Y-57450162D01*
X120543943Y-57308117D01*
X120807192Y-57045327D01*
X120949838Y-56701799D01*
X120950162Y-56329833D01*
X120919242Y-56255000D01*
X128905000Y-56255000D01*
X129291510Y-56178118D01*
X129415000Y-56095605D01*
X129415000Y-56200198D01*
X129415000Y-56200198D01*
G37*
X129415000Y-56200198D02*
X128590198Y-57025000D01*
X126365000Y-57025000D01*
X126074160Y-57082852D01*
X125827599Y-57247599D01*
X124587349Y-58487849D01*
X124552877Y-58494537D01*
X124460229Y-58555397D01*
X124374640Y-58497623D01*
X124125000Y-58447560D01*
X123525000Y-58447560D01*
X123282877Y-58494537D01*
X123190229Y-58555397D01*
X123104640Y-58497623D01*
X122855000Y-58447560D01*
X122255000Y-58447560D01*
X122012877Y-58494537D01*
X121920229Y-58555397D01*
X121834640Y-58497623D01*
X121585000Y-58447560D01*
X120985000Y-58447560D01*
X120742877Y-58494537D01*
X120650229Y-58555397D01*
X120564640Y-58497623D01*
X120315000Y-58447560D01*
X119715000Y-58447560D01*
X119505000Y-58488304D01*
X119505000Y-58099802D01*
X120154680Y-57450122D01*
X120200167Y-57450162D01*
X120543943Y-57308117D01*
X120807192Y-57045327D01*
X120949838Y-56701799D01*
X120950162Y-56329833D01*
X120919242Y-56255000D01*
X128905000Y-56255000D01*
X129291510Y-56178118D01*
X129415000Y-56095605D01*
X129415000Y-56200198D01*
G36*
X103050971Y-56939670D02*
X103365752Y-57150000D01*
X103050971Y-57360330D01*
X102870000Y-57631172D01*
X102689029Y-57360330D01*
X102374248Y-57150000D01*
X102689029Y-56939670D01*
X102870000Y-56668828D01*
X103050971Y-56939670D01*
X103050971Y-56939670D01*
G37*
X103050971Y-56939670D02*
X103365752Y-57150000D01*
X103050971Y-57360330D01*
X102870000Y-57631172D01*
X102689029Y-57360330D01*
X102374248Y-57150000D01*
X102689029Y-56939670D01*
X102870000Y-56668828D01*
X103050971Y-56939670D01*
G36*
X103050971Y-54399670D02*
X103365752Y-54610000D01*
X103050971Y-54820330D01*
X102870000Y-55091172D01*
X102689029Y-54820330D01*
X102374248Y-54610000D01*
X102689029Y-54399670D01*
X102870000Y-54128828D01*
X103050971Y-54399670D01*
X103050971Y-54399670D01*
G37*
X103050971Y-54399670D02*
X103365752Y-54610000D01*
X103050971Y-54820330D01*
X102870000Y-55091172D01*
X102689029Y-54820330D01*
X102374248Y-54610000D01*
X102689029Y-54399670D01*
X102870000Y-54128828D01*
X103050971Y-54399670D01*
G36*
X129415000Y-44129802D02*
X129415000Y-54394395D01*
X129291510Y-54311882D01*
X128905000Y-54235000D01*
X128539442Y-54235000D01*
X128569838Y-54161799D01*
X128570162Y-53789833D01*
X128428117Y-53446057D01*
X128165327Y-53182808D01*
X127821799Y-53040162D01*
X127449833Y-53039838D01*
X127328431Y-53090000D01*
X119650273Y-53090000D01*
X119679838Y-53018799D01*
X119679904Y-52943259D01*
X119828201Y-53004838D01*
X120200167Y-53005162D01*
X120543943Y-52863117D01*
X120807192Y-52600327D01*
X120949838Y-52256799D01*
X120950162Y-51884833D01*
X120808117Y-51541057D01*
X120545327Y-51277808D01*
X120201799Y-51135162D01*
X120154923Y-51135121D01*
X119792242Y-50772440D01*
X120315000Y-50772440D01*
X120557123Y-50725463D01*
X120649771Y-50664603D01*
X120735360Y-50722377D01*
X120985000Y-50772440D01*
X121585000Y-50772440D01*
X121827123Y-50725463D01*
X121919771Y-50664603D01*
X122005360Y-50722377D01*
X122255000Y-50772440D01*
X122855000Y-50772440D01*
X123097123Y-50725463D01*
X123189771Y-50664603D01*
X123275360Y-50722377D01*
X123525000Y-50772440D01*
X124125000Y-50772440D01*
X124335000Y-50731696D01*
X124335000Y-51507537D01*
X124302808Y-51539673D01*
X124160162Y-51883201D01*
X124159838Y-52255167D01*
X124301883Y-52598943D01*
X124564673Y-52862192D01*
X124908201Y-53004838D01*
X125280167Y-53005162D01*
X125623943Y-52863117D01*
X125729954Y-52757290D01*
X125834673Y-52862192D01*
X126178201Y-53004838D01*
X126550167Y-53005162D01*
X126893943Y-52863117D01*
X127157192Y-52600327D01*
X127299838Y-52256799D01*
X127300162Y-51884833D01*
X127194690Y-51629570D01*
X127448201Y-51734838D01*
X127820167Y-51735162D01*
X128163943Y-51593117D01*
X128427192Y-51330327D01*
X128569838Y-50986799D01*
X128570162Y-50614833D01*
X128520000Y-50493431D01*
X128520000Y-50392976D01*
X128532377Y-50374640D01*
X128582440Y-50125000D01*
X128582440Y-48175000D01*
X128535463Y-47932877D01*
X128395673Y-47720073D01*
X128184640Y-47577623D01*
X127935000Y-47527560D01*
X127335000Y-47527560D01*
X127092877Y-47574537D01*
X127000229Y-47635397D01*
X126914640Y-47577623D01*
X126665000Y-47527560D01*
X126065000Y-47527560D01*
X125822877Y-47574537D01*
X125730229Y-47635397D01*
X125644640Y-47577623D01*
X125395000Y-47527560D01*
X124795000Y-47527560D01*
X124585000Y-47568304D01*
X124585000Y-45720000D01*
X124527148Y-45429161D01*
X124527148Y-45429160D01*
X124362401Y-45182599D01*
X121822401Y-42642599D01*
X121575839Y-42477852D01*
X121285000Y-42420000D01*
X117154802Y-42420000D01*
X116107242Y-41372440D01*
X116505000Y-41372440D01*
X116747123Y-41325463D01*
X116839771Y-41264603D01*
X116925360Y-41322377D01*
X117175000Y-41372440D01*
X117775000Y-41372440D01*
X118017123Y-41325463D01*
X118109771Y-41264603D01*
X118195360Y-41322377D01*
X118445000Y-41372440D01*
X119045000Y-41372440D01*
X119287123Y-41325463D01*
X119379771Y-41264603D01*
X119465360Y-41322377D01*
X119715000Y-41372440D01*
X120315000Y-41372440D01*
X120557123Y-41325463D01*
X120649771Y-41264603D01*
X120735360Y-41322377D01*
X120985000Y-41372440D01*
X121585000Y-41372440D01*
X121827123Y-41325463D01*
X121919771Y-41264603D01*
X122005360Y-41322377D01*
X122255000Y-41372440D01*
X122855000Y-41372440D01*
X123097123Y-41325463D01*
X123189771Y-41264603D01*
X123275360Y-41322377D01*
X123525000Y-41372440D01*
X124125000Y-41372440D01*
X124345858Y-41329589D01*
X124392852Y-41565839D01*
X124557599Y-41812401D01*
X125827599Y-43082401D01*
X126074160Y-43247148D01*
X126365000Y-43305000D01*
X128590198Y-43305000D01*
X129415000Y-44129802D01*
X129415000Y-44129802D01*
G37*
X129415000Y-44129802D02*
X129415000Y-54394395D01*
X129291510Y-54311882D01*
X128905000Y-54235000D01*
X128539442Y-54235000D01*
X128569838Y-54161799D01*
X128570162Y-53789833D01*
X128428117Y-53446057D01*
X128165327Y-53182808D01*
X127821799Y-53040162D01*
X127449833Y-53039838D01*
X127328431Y-53090000D01*
X119650273Y-53090000D01*
X119679838Y-53018799D01*
X119679904Y-52943259D01*
X119828201Y-53004838D01*
X120200167Y-53005162D01*
X120543943Y-52863117D01*
X120807192Y-52600327D01*
X120949838Y-52256799D01*
X120950162Y-51884833D01*
X120808117Y-51541057D01*
X120545327Y-51277808D01*
X120201799Y-51135162D01*
X120154923Y-51135121D01*
X119792242Y-50772440D01*
X120315000Y-50772440D01*
X120557123Y-50725463D01*
X120649771Y-50664603D01*
X120735360Y-50722377D01*
X120985000Y-50772440D01*
X121585000Y-50772440D01*
X121827123Y-50725463D01*
X121919771Y-50664603D01*
X122005360Y-50722377D01*
X122255000Y-50772440D01*
X122855000Y-50772440D01*
X123097123Y-50725463D01*
X123189771Y-50664603D01*
X123275360Y-50722377D01*
X123525000Y-50772440D01*
X124125000Y-50772440D01*
X124335000Y-50731696D01*
X124335000Y-51507537D01*
X124302808Y-51539673D01*
X124160162Y-51883201D01*
X124159838Y-52255167D01*
X124301883Y-52598943D01*
X124564673Y-52862192D01*
X124908201Y-53004838D01*
X125280167Y-53005162D01*
X125623943Y-52863117D01*
X125729954Y-52757290D01*
X125834673Y-52862192D01*
X126178201Y-53004838D01*
X126550167Y-53005162D01*
X126893943Y-52863117D01*
X127157192Y-52600327D01*
X127299838Y-52256799D01*
X127300162Y-51884833D01*
X127194690Y-51629570D01*
X127448201Y-51734838D01*
X127820167Y-51735162D01*
X128163943Y-51593117D01*
X128427192Y-51330327D01*
X128569838Y-50986799D01*
X128570162Y-50614833D01*
X128520000Y-50493431D01*
X128520000Y-50392976D01*
X128532377Y-50374640D01*
X128582440Y-50125000D01*
X128582440Y-48175000D01*
X128535463Y-47932877D01*
X128395673Y-47720073D01*
X128184640Y-47577623D01*
X127935000Y-47527560D01*
X127335000Y-47527560D01*
X127092877Y-47574537D01*
X127000229Y-47635397D01*
X126914640Y-47577623D01*
X126665000Y-47527560D01*
X126065000Y-47527560D01*
X125822877Y-47574537D01*
X125730229Y-47635397D01*
X125644640Y-47577623D01*
X125395000Y-47527560D01*
X124795000Y-47527560D01*
X124585000Y-47568304D01*
X124585000Y-45720000D01*
X124527148Y-45429161D01*
X124527148Y-45429160D01*
X124362401Y-45182599D01*
X121822401Y-42642599D01*
X121575839Y-42477852D01*
X121285000Y-42420000D01*
X117154802Y-42420000D01*
X116107242Y-41372440D01*
X116505000Y-41372440D01*
X116747123Y-41325463D01*
X116839771Y-41264603D01*
X116925360Y-41322377D01*
X117175000Y-41372440D01*
X117775000Y-41372440D01*
X118017123Y-41325463D01*
X118109771Y-41264603D01*
X118195360Y-41322377D01*
X118445000Y-41372440D01*
X119045000Y-41372440D01*
X119287123Y-41325463D01*
X119379771Y-41264603D01*
X119465360Y-41322377D01*
X119715000Y-41372440D01*
X120315000Y-41372440D01*
X120557123Y-41325463D01*
X120649771Y-41264603D01*
X120735360Y-41322377D01*
X120985000Y-41372440D01*
X121585000Y-41372440D01*
X121827123Y-41325463D01*
X121919771Y-41264603D01*
X122005360Y-41322377D01*
X122255000Y-41372440D01*
X122855000Y-41372440D01*
X123097123Y-41325463D01*
X123189771Y-41264603D01*
X123275360Y-41322377D01*
X123525000Y-41372440D01*
X124125000Y-41372440D01*
X124345858Y-41329589D01*
X124392852Y-41565839D01*
X124557599Y-41812401D01*
X125827599Y-43082401D01*
X126074160Y-43247148D01*
X126365000Y-43305000D01*
X128590198Y-43305000D01*
X129415000Y-44129802D01*
G36*
X119255000Y-46034802D02*
X119255000Y-47569674D01*
X119045000Y-47527560D01*
X118445000Y-47527560D01*
X118202877Y-47574537D01*
X118110229Y-47635397D01*
X118024640Y-47577623D01*
X117775000Y-47527560D01*
X117175000Y-47527560D01*
X116932877Y-47574537D01*
X116840229Y-47635397D01*
X116754640Y-47577623D01*
X116505000Y-47527560D01*
X115905000Y-47527560D01*
X115662877Y-47574537D01*
X115450073Y-47714327D01*
X115307623Y-47925360D01*
X115257560Y-48175000D01*
X115257560Y-50125000D01*
X115304537Y-50367123D01*
X115444327Y-50579927D01*
X115655360Y-50722377D01*
X115664259Y-50724162D01*
X114944210Y-51444210D01*
X114752367Y-51731325D01*
X114751668Y-51734838D01*
X114684999Y-52070000D01*
X114685000Y-52070005D01*
X114685000Y-53339995D01*
X114684999Y-53340000D01*
X114710787Y-53469640D01*
X114741277Y-53622921D01*
X113405000Y-52286644D01*
X113405000Y-50800000D01*
X113328118Y-50413490D01*
X113109178Y-50085822D01*
X112781510Y-49866882D01*
X112395000Y-49790000D01*
X112008490Y-49866882D01*
X111885000Y-49949395D01*
X111885000Y-43109802D01*
X114397599Y-45622401D01*
X114644160Y-45787148D01*
X114935000Y-45845000D01*
X119065198Y-45845000D01*
X119255000Y-46034802D01*
X119255000Y-46034802D01*
G37*
X119255000Y-46034802D02*
X119255000Y-47569674D01*
X119045000Y-47527560D01*
X118445000Y-47527560D01*
X118202877Y-47574537D01*
X118110229Y-47635397D01*
X118024640Y-47577623D01*
X117775000Y-47527560D01*
X117175000Y-47527560D01*
X116932877Y-47574537D01*
X116840229Y-47635397D01*
X116754640Y-47577623D01*
X116505000Y-47527560D01*
X115905000Y-47527560D01*
X115662877Y-47574537D01*
X115450073Y-47714327D01*
X115307623Y-47925360D01*
X115257560Y-48175000D01*
X115257560Y-50125000D01*
X115304537Y-50367123D01*
X115444327Y-50579927D01*
X115655360Y-50722377D01*
X115664259Y-50724162D01*
X114944210Y-51444210D01*
X114752367Y-51731325D01*
X114751668Y-51734838D01*
X114684999Y-52070000D01*
X114685000Y-52070005D01*
X114685000Y-53339995D01*
X114684999Y-53340000D01*
X114710787Y-53469640D01*
X114741277Y-53622921D01*
X113405000Y-52286644D01*
X113405000Y-50800000D01*
X113328118Y-50413490D01*
X113109178Y-50085822D01*
X112781510Y-49866882D01*
X112395000Y-49790000D01*
X112008490Y-49866882D01*
X111885000Y-49949395D01*
X111885000Y-43109802D01*
X114397599Y-45622401D01*
X114644160Y-45787148D01*
X114935000Y-45845000D01*
X119065198Y-45845000D01*
X119255000Y-46034802D01*
G36*
X118767217Y-51897019D02*
X118559833Y-51896838D01*
X118467474Y-51935000D01*
X118454324Y-51935000D01*
X118497440Y-51720000D01*
X118497440Y-51627242D01*
X118767217Y-51897019D01*
X118767217Y-51897019D01*
G37*
X118767217Y-51897019D02*
X118559833Y-51896838D01*
X118467474Y-51935000D01*
X118454324Y-51935000D01*
X118497440Y-51720000D01*
X118497440Y-51627242D01*
X118767217Y-51897019D01*
G36*
X105230198Y-49790000D02*
X104607042Y-49790000D01*
X104472042Y-49655000D01*
X105095198Y-49655000D01*
X105230198Y-49790000D01*
X105230198Y-49790000D01*
G37*
X105230198Y-49790000D02*
X104607042Y-49790000D01*
X104472042Y-49655000D01*
X105095198Y-49655000D01*
X105230198Y-49790000D01*
G36*
X106555000Y-46669802D02*
X106555000Y-48965198D01*
X105947401Y-48357599D01*
X105700839Y-48192852D01*
X105559469Y-48164732D01*
X105600977Y-48103240D01*
X105651040Y-47853600D01*
X105651040Y-46126400D01*
X105604063Y-45884277D01*
X105464273Y-45671473D01*
X105253240Y-45529023D01*
X105212340Y-45520821D01*
X105229029Y-45509670D01*
X105295455Y-45410257D01*
X106555000Y-46669802D01*
X106555000Y-46669802D01*
G37*
X106555000Y-46669802D02*
X106555000Y-48965198D01*
X105947401Y-48357599D01*
X105700839Y-48192852D01*
X105559469Y-48164732D01*
X105600977Y-48103240D01*
X105651040Y-47853600D01*
X105651040Y-46126400D01*
X105604063Y-45884277D01*
X105464273Y-45671473D01*
X105253240Y-45529023D01*
X105212340Y-45520821D01*
X105229029Y-45509670D01*
X105295455Y-45410257D01*
X106555000Y-46669802D01*
G36*
X123565000Y-34506644D02*
X123565000Y-34142217D01*
X123614670Y-34109029D01*
X123825000Y-33794248D01*
X124035330Y-34109029D01*
X124521511Y-34433885D01*
X125095000Y-34547959D01*
X125668489Y-34433885D01*
X126154670Y-34109029D01*
X126207476Y-34030000D01*
X126522524Y-34030000D01*
X126575330Y-34109029D01*
X127061511Y-34433885D01*
X127635000Y-34547959D01*
X128208489Y-34433885D01*
X128694670Y-34109029D01*
X128747476Y-34030000D01*
X131026644Y-34030000D01*
X132206883Y-35210239D01*
X132080000Y-35185000D01*
X124243356Y-35185000D01*
X123565000Y-34506644D01*
X123565000Y-34506644D01*
G37*
X123565000Y-34506644D02*
X123565000Y-34142217D01*
X123614670Y-34109029D01*
X123825000Y-33794248D01*
X124035330Y-34109029D01*
X124521511Y-34433885D01*
X125095000Y-34547959D01*
X125668489Y-34433885D01*
X126154670Y-34109029D01*
X126207476Y-34030000D01*
X126522524Y-34030000D01*
X126575330Y-34109029D01*
X127061511Y-34433885D01*
X127635000Y-34547959D01*
X128208489Y-34433885D01*
X128694670Y-34109029D01*
X128747476Y-34030000D01*
X131026644Y-34030000D01*
X132206883Y-35210239D01*
X132080000Y-35185000D01*
X124243356Y-35185000D01*
X123565000Y-34506644D01*
G36*
X124035330Y-31569029D02*
X124306172Y-31750000D01*
X124035330Y-31930971D01*
X123825000Y-32245752D01*
X123614670Y-31930971D01*
X123343828Y-31750000D01*
X123614670Y-31569029D01*
X123667476Y-31490000D01*
X123982524Y-31490000D01*
X124035330Y-31569029D01*
X124035330Y-31569029D01*
G37*
X124035330Y-31569029D02*
X124306172Y-31750000D01*
X124035330Y-31930971D01*
X123825000Y-32245752D01*
X123614670Y-31930971D01*
X123343828Y-31750000D01*
X123614670Y-31569029D01*
X123667476Y-31490000D01*
X123982524Y-31490000D01*
X124035330Y-31569029D01*
G36*
X126170937Y-31585723D02*
X126310727Y-31798527D01*
X126521760Y-31940977D01*
X126563104Y-31949268D01*
X126522524Y-32010000D01*
X126207476Y-32010000D01*
X126154670Y-31930971D01*
X125883828Y-31750000D01*
X126154670Y-31569029D01*
X126164766Y-31553919D01*
X126170937Y-31585723D01*
X126170937Y-31585723D01*
G37*
X126170937Y-31585723D02*
X126310727Y-31798527D01*
X126521760Y-31940977D01*
X126563104Y-31949268D01*
X126522524Y-32010000D01*
X126207476Y-32010000D01*
X126154670Y-31930971D01*
X125883828Y-31750000D01*
X126154670Y-31569029D01*
X126164766Y-31553919D01*
X126170937Y-31585723D01*
G36*
X121495330Y-31569029D02*
X121766172Y-31750000D01*
X121495330Y-31930971D01*
X121442524Y-32010000D01*
X121127476Y-32010000D01*
X121074670Y-31930971D01*
X120803828Y-31750000D01*
X121074670Y-31569029D01*
X121127476Y-31490000D01*
X121442524Y-31490000D01*
X121495330Y-31569029D01*
X121495330Y-31569029D01*
G37*
X121495330Y-31569029D02*
X121766172Y-31750000D01*
X121495330Y-31930971D01*
X121442524Y-32010000D01*
X121127476Y-32010000D01*
X121074670Y-31930971D01*
X120803828Y-31750000D01*
X121074670Y-31569029D01*
X121127476Y-31490000D01*
X121442524Y-31490000D01*
X121495330Y-31569029D01*
M02*
