G04 #@! TF.FileFunction,Copper,L2,Bot,Signal*
%FSLAX46Y46*%
G04 Gerber Fmt 4.6, Leading zero omitted, Abs format (unit mm)*
G04 Created by KiCad (PCBNEW 0.201506122246+5743~23~ubuntu14.04.1-product) date Mon 13 Jul 2015 16:56:03 BST*
%MOMM*%
G01*
G04 APERTURE LIST*
%ADD10C,0.100000*%
%ADD11C,3.500000*%
%ADD12R,1.727200X1.727200*%
%ADD13O,1.727200X1.727200*%
%ADD14R,2.032000X1.727200*%
%ADD15O,2.032000X1.727200*%
%ADD16C,0.600000*%
%ADD17C,0.750000*%
%ADD18C,0.250000*%
%ADD19C,0.500000*%
%ADD20C,0.254000*%
G04 APERTURE END LIST*
D10*
D11*
X121285000Y-83820000D03*
D12*
X104140000Y-46990000D03*
D13*
X101600000Y-46990000D03*
X104140000Y-44450000D03*
X101600000Y-44450000D03*
X104140000Y-41910000D03*
X101600000Y-41910000D03*
X104140000Y-39370000D03*
X101600000Y-39370000D03*
X104140000Y-36830000D03*
X101600000Y-36830000D03*
X104140000Y-34290000D03*
X101600000Y-34290000D03*
X104140000Y-31750000D03*
X101600000Y-31750000D03*
D12*
X104140000Y-114300000D03*
D13*
X101600000Y-114300000D03*
X104140000Y-111760000D03*
X101600000Y-111760000D03*
X104140000Y-109220000D03*
X101600000Y-109220000D03*
X104140000Y-106680000D03*
X101600000Y-106680000D03*
X104140000Y-104140000D03*
X101600000Y-104140000D03*
X104140000Y-101600000D03*
X101600000Y-101600000D03*
X104140000Y-99060000D03*
X101600000Y-99060000D03*
X104140000Y-96520000D03*
X101600000Y-96520000D03*
X104140000Y-93980000D03*
X101600000Y-93980000D03*
X104140000Y-91440000D03*
X101600000Y-91440000D03*
X104140000Y-88900000D03*
X101600000Y-88900000D03*
X104140000Y-86360000D03*
X101600000Y-86360000D03*
X104140000Y-83820000D03*
X101600000Y-83820000D03*
X104140000Y-81280000D03*
X101600000Y-81280000D03*
X104140000Y-78740000D03*
X101600000Y-78740000D03*
X104140000Y-76200000D03*
X101600000Y-76200000D03*
X104140000Y-73660000D03*
X101600000Y-73660000D03*
X104140000Y-71120000D03*
X101600000Y-71120000D03*
X104140000Y-68580000D03*
X101600000Y-68580000D03*
X104140000Y-66040000D03*
X101600000Y-66040000D03*
X104140000Y-63500000D03*
X101600000Y-63500000D03*
X104140000Y-60960000D03*
X101600000Y-60960000D03*
X104140000Y-58420000D03*
X101600000Y-58420000D03*
X104140000Y-55880000D03*
X101600000Y-55880000D03*
X104140000Y-53340000D03*
X101600000Y-53340000D03*
D11*
X121285000Y-109220000D03*
D12*
X127635000Y-30480000D03*
D13*
X127635000Y-33020000D03*
X125095000Y-30480000D03*
X125095000Y-33020000D03*
X122555000Y-30480000D03*
X122555000Y-33020000D03*
X120015000Y-30480000D03*
X120015000Y-33020000D03*
D14*
X107315000Y-106680000D03*
D15*
X107315000Y-104140000D03*
X107315000Y-101600000D03*
D16*
X130810000Y-102870000D03*
X110490000Y-99060000D03*
X110490000Y-91440000D03*
X130810000Y-105410000D03*
X118745000Y-103505000D03*
X121920000Y-102870000D03*
X123190000Y-100965000D03*
X129540000Y-39751000D03*
X118745000Y-52832000D03*
X118745000Y-73025000D03*
X117475000Y-58420000D03*
X117475000Y-38100000D03*
X127635000Y-50800000D03*
X127635000Y-71120000D03*
X127635000Y-62230000D03*
X130810000Y-30480000D03*
X116840000Y-30480000D03*
X132080000Y-55245000D03*
X128905000Y-55245000D03*
X112395000Y-50800000D03*
X105410000Y-50800000D03*
X133350000Y-40005000D03*
X133350000Y-34925000D03*
X120015000Y-56515000D03*
X120015000Y-52070000D03*
X116840000Y-111760000D03*
X127635000Y-53975000D03*
X130810000Y-59055000D03*
X125095000Y-75565000D03*
X121920000Y-72390000D03*
X124460000Y-110490000D03*
X133350000Y-107950000D03*
X133350000Y-105410000D03*
X133350000Y-95250000D03*
X133350000Y-92710000D03*
X133350000Y-88900000D03*
X131445000Y-86995000D03*
X112395000Y-107950000D03*
X112395000Y-113665000D03*
X125095000Y-52070000D03*
X129540000Y-60960000D03*
X125095000Y-71120000D03*
X125095000Y-73660000D03*
X130810000Y-60325000D03*
X126365000Y-52070000D03*
X122555000Y-66040000D03*
X114300000Y-68580000D03*
X122555000Y-64770000D03*
X113030000Y-67945000D03*
D17*
X128905000Y-55245000D02*
X132080000Y-55245000D01*
X105410000Y-50800000D02*
X112395000Y-50800000D01*
X133350000Y-40005000D02*
X133350000Y-34925000D01*
D18*
X120015000Y-52070000D02*
X120015000Y-56515000D01*
D19*
X119380000Y-111760000D02*
X116840000Y-111760000D01*
X127635000Y-55880000D02*
X127635000Y-53975000D01*
X130810000Y-59055000D02*
X127635000Y-55880000D01*
X121920000Y-72390000D02*
X125095000Y-75565000D01*
X123190000Y-111760000D02*
X124460000Y-110490000D01*
X119380000Y-111760000D02*
X123190000Y-111760000D01*
X133350000Y-107950000D02*
X133350000Y-105410000D01*
X133350000Y-95250000D02*
X133350000Y-92710000D01*
X133350000Y-88900000D02*
X131445000Y-86995000D01*
D17*
X112395000Y-113665000D02*
X112395000Y-107950000D01*
D18*
X129540000Y-60325000D02*
X125095000Y-55880000D01*
X125095000Y-55880000D02*
X125095000Y-52070000D01*
X129540000Y-60960000D02*
X129540000Y-60325000D01*
X125095000Y-73025000D02*
X125095000Y-71120000D01*
X125095000Y-73025000D02*
X125095000Y-73660000D01*
X126365000Y-55423186D02*
X126365000Y-55880000D01*
X126365000Y-55880000D02*
X130810000Y-60325000D01*
X126365000Y-52070000D02*
X126365000Y-55423186D01*
X114300000Y-68580000D02*
X120015000Y-68580000D01*
X120015000Y-68580000D02*
X122555000Y-66040000D01*
X122555000Y-64770000D02*
X119380000Y-67945000D01*
X119380000Y-67945000D02*
X113030000Y-67945000D01*
D20*
G36*
X135205000Y-112345000D02*
X135205000Y-112345000D01*
X123856580Y-112345000D01*
X124868834Y-111332745D01*
X124988943Y-111283117D01*
X125252192Y-111020327D01*
X125394838Y-110676799D01*
X125395162Y-110304833D01*
X125253117Y-109961057D01*
X124990327Y-109697808D01*
X124646799Y-109555162D01*
X124274833Y-109554838D01*
X123931057Y-109696883D01*
X123667808Y-109959673D01*
X123617434Y-110080987D01*
X123437496Y-110260925D01*
X123675956Y-109663409D01*
X123663641Y-108714677D01*
X123324271Y-107895364D01*
X122979528Y-107705077D01*
X121464605Y-109220000D01*
X121478748Y-109234143D01*
X121299143Y-109413748D01*
X121285000Y-109399605D01*
X121270858Y-109413748D01*
X121091253Y-109234143D01*
X121105395Y-109220000D01*
X119590472Y-107705077D01*
X119245729Y-107895364D01*
X118894044Y-108776591D01*
X118906359Y-109725323D01*
X119245729Y-110544636D01*
X119590470Y-110734922D01*
X119477466Y-110847926D01*
X119504540Y-110875000D01*
X117146822Y-110875000D01*
X117026799Y-110825162D01*
X116654833Y-110824838D01*
X116311057Y-110966883D01*
X116047808Y-111229673D01*
X115905162Y-111573201D01*
X115904838Y-111945167D01*
X116046883Y-112288943D01*
X116102842Y-112345000D01*
X114300000Y-112345000D01*
X114037862Y-112397143D01*
X113815632Y-112545632D01*
X113667143Y-112767862D01*
X113615000Y-113030000D01*
X113615000Y-116155000D01*
X99745000Y-116155000D01*
X99745000Y-114427000D01*
X100266183Y-114427000D01*
X100145042Y-114659026D01*
X100317312Y-115074947D01*
X100711510Y-115506821D01*
X101240973Y-115754968D01*
X101473000Y-115634469D01*
X101473000Y-114427000D01*
X100266183Y-114427000D01*
X99745000Y-114427000D01*
X99745000Y-51841400D01*
X101570641Y-51841400D01*
X100997152Y-51955474D01*
X100510971Y-52280330D01*
X100186115Y-52766511D01*
X100072041Y-53340000D01*
X100186115Y-53913489D01*
X100510971Y-54399670D01*
X100825752Y-54610000D01*
X100510971Y-54820330D01*
X100186115Y-55306511D01*
X100072041Y-55880000D01*
X100186115Y-56453489D01*
X100510971Y-56939670D01*
X100825752Y-57150000D01*
X100510971Y-57360330D01*
X100186115Y-57846511D01*
X100072041Y-58420000D01*
X100186115Y-58993489D01*
X100510971Y-59479670D01*
X100825752Y-59690000D01*
X100510971Y-59900330D01*
X100186115Y-60386511D01*
X100072041Y-60960000D01*
X100186115Y-61533489D01*
X100510971Y-62019670D01*
X100825752Y-62230000D01*
X100510971Y-62440330D01*
X100186115Y-62926511D01*
X100072041Y-63500000D01*
X100186115Y-64073489D01*
X100510971Y-64559670D01*
X100825752Y-64770000D01*
X100510971Y-64980330D01*
X100186115Y-65466511D01*
X100072041Y-66040000D01*
X100186115Y-66613489D01*
X100510971Y-67099670D01*
X100825752Y-67310000D01*
X100510971Y-67520330D01*
X100186115Y-68006511D01*
X100072041Y-68580000D01*
X100186115Y-69153489D01*
X100510971Y-69639670D01*
X100825752Y-69850000D01*
X100510971Y-70060330D01*
X100186115Y-70546511D01*
X100072041Y-71120000D01*
X100186115Y-71693489D01*
X100510971Y-72179670D01*
X100825752Y-72390000D01*
X100510971Y-72600330D01*
X100186115Y-73086511D01*
X100072041Y-73660000D01*
X100186115Y-74233489D01*
X100510971Y-74719670D01*
X100825752Y-74930000D01*
X100510971Y-75140330D01*
X100186115Y-75626511D01*
X100072041Y-76200000D01*
X100186115Y-76773489D01*
X100510971Y-77259670D01*
X100825752Y-77470000D01*
X100510971Y-77680330D01*
X100186115Y-78166511D01*
X100072041Y-78740000D01*
X100186115Y-79313489D01*
X100510971Y-79799670D01*
X100825752Y-80010000D01*
X100510971Y-80220330D01*
X100186115Y-80706511D01*
X100072041Y-81280000D01*
X100186115Y-81853489D01*
X100510971Y-82339670D01*
X100825752Y-82550000D01*
X100510971Y-82760330D01*
X100186115Y-83246511D01*
X100072041Y-83820000D01*
X100186115Y-84393489D01*
X100510971Y-84879670D01*
X100825752Y-85090000D01*
X100510971Y-85300330D01*
X100186115Y-85786511D01*
X100072041Y-86360000D01*
X100186115Y-86933489D01*
X100510971Y-87419670D01*
X100825752Y-87630000D01*
X100510971Y-87840330D01*
X100186115Y-88326511D01*
X100072041Y-88900000D01*
X100186115Y-89473489D01*
X100510971Y-89959670D01*
X100825752Y-90170000D01*
X100510971Y-90380330D01*
X100186115Y-90866511D01*
X100072041Y-91440000D01*
X100186115Y-92013489D01*
X100510971Y-92499670D01*
X100825752Y-92710000D01*
X100510971Y-92920330D01*
X100186115Y-93406511D01*
X100072041Y-93980000D01*
X100186115Y-94553489D01*
X100510971Y-95039670D01*
X100825752Y-95250000D01*
X100510971Y-95460330D01*
X100186115Y-95946511D01*
X100072041Y-96520000D01*
X100186115Y-97093489D01*
X100510971Y-97579670D01*
X100825752Y-97790000D01*
X100510971Y-98000330D01*
X100186115Y-98486511D01*
X100072041Y-99060000D01*
X100186115Y-99633489D01*
X100510971Y-100119670D01*
X100825752Y-100330000D01*
X100510971Y-100540330D01*
X100186115Y-101026511D01*
X100072041Y-101600000D01*
X100186115Y-102173489D01*
X100510971Y-102659670D01*
X100825752Y-102870000D01*
X100510971Y-103080330D01*
X100186115Y-103566511D01*
X100072041Y-104140000D01*
X100186115Y-104713489D01*
X100510971Y-105199670D01*
X100825752Y-105410000D01*
X100510971Y-105620330D01*
X100186115Y-106106511D01*
X100072041Y-106680000D01*
X100186115Y-107253489D01*
X100510971Y-107739670D01*
X100825752Y-107950000D01*
X100510971Y-108160330D01*
X100186115Y-108646511D01*
X100072041Y-109220000D01*
X100186115Y-109793489D01*
X100510971Y-110279670D01*
X100825752Y-110490000D01*
X100510971Y-110700330D01*
X100186115Y-111186511D01*
X100072041Y-111760000D01*
X100186115Y-112333489D01*
X100510971Y-112819670D01*
X100834228Y-113035664D01*
X100711510Y-113093179D01*
X100317312Y-113525053D01*
X100145042Y-113940974D01*
X100266183Y-114173000D01*
X101473000Y-114173000D01*
X101473000Y-114153000D01*
X101727000Y-114153000D01*
X101727000Y-114173000D01*
X101747000Y-114173000D01*
X101747000Y-114427000D01*
X101727000Y-114427000D01*
X101727000Y-115634469D01*
X101959027Y-115754968D01*
X102488490Y-115506821D01*
X102659254Y-115319736D01*
X102675937Y-115405723D01*
X102815727Y-115618527D01*
X103026760Y-115760977D01*
X103276400Y-115811040D01*
X105003600Y-115811040D01*
X105245723Y-115764063D01*
X105458527Y-115624273D01*
X105600977Y-115413240D01*
X105651040Y-115163600D01*
X105651040Y-113436400D01*
X105604063Y-113194277D01*
X105464273Y-112981473D01*
X105253240Y-112839023D01*
X105212340Y-112830821D01*
X105229029Y-112819670D01*
X105553885Y-112333489D01*
X105667959Y-111760000D01*
X105553885Y-111186511D01*
X105229029Y-110700330D01*
X104914248Y-110490000D01*
X105229029Y-110279670D01*
X105553885Y-109793489D01*
X105667959Y-109220000D01*
X105553885Y-108646511D01*
X105229029Y-108160330D01*
X104914248Y-107950000D01*
X105229029Y-107739670D01*
X105553885Y-107253489D01*
X105651560Y-106762443D01*
X105651560Y-107543600D01*
X105698537Y-107785723D01*
X105838327Y-107998527D01*
X106049360Y-108140977D01*
X106299000Y-108191040D01*
X108331000Y-108191040D01*
X108573123Y-108144063D01*
X108785927Y-108004273D01*
X108928377Y-107793240D01*
X108978440Y-107543600D01*
X108978440Y-106940000D01*
X112395000Y-106940000D01*
X112008490Y-107016882D01*
X111680822Y-107235822D01*
X111461882Y-107563490D01*
X111385000Y-107950000D01*
X111385000Y-113665000D01*
X111461882Y-114051510D01*
X111680822Y-114379178D01*
X112008490Y-114598118D01*
X112395000Y-114675000D01*
X112781510Y-114598118D01*
X113109178Y-114379178D01*
X113328118Y-114051510D01*
X113405000Y-113665000D01*
X113405000Y-107950000D01*
X113328118Y-107563490D01*
X113109178Y-107235822D01*
X112781510Y-107016882D01*
X112395000Y-106940000D01*
X108978440Y-106940000D01*
X108978440Y-106829044D01*
X121728409Y-106829044D01*
X120779677Y-106841359D01*
X119960364Y-107180729D01*
X119770077Y-107525472D01*
X121285000Y-109040395D01*
X122799923Y-107525472D01*
X122609636Y-107180729D01*
X121728409Y-106829044D01*
X108978440Y-106829044D01*
X108978440Y-105816400D01*
X108931463Y-105574277D01*
X108791673Y-105361473D01*
X108580640Y-105219023D01*
X108542037Y-105211282D01*
X108559415Y-105199670D01*
X108884271Y-104713489D01*
X108931741Y-104474838D01*
X133164833Y-104474838D01*
X132821057Y-104616883D01*
X132557808Y-104879673D01*
X132415162Y-105223201D01*
X132414838Y-105595167D01*
X132465000Y-105716569D01*
X132465000Y-107643178D01*
X132415162Y-107763201D01*
X132414838Y-108135167D01*
X132556883Y-108478943D01*
X132819673Y-108742192D01*
X133163201Y-108884838D01*
X133535167Y-108885162D01*
X133878943Y-108743117D01*
X134142192Y-108480327D01*
X134284838Y-108136799D01*
X134285162Y-107764833D01*
X134235000Y-107643431D01*
X134235000Y-105716822D01*
X134284838Y-105596799D01*
X134285162Y-105224833D01*
X134143117Y-104881057D01*
X133880327Y-104617808D01*
X133536799Y-104475162D01*
X133164833Y-104474838D01*
X108931741Y-104474838D01*
X108998345Y-104140000D01*
X108884271Y-103566511D01*
X108559415Y-103080330D01*
X108244634Y-102870000D01*
X108559415Y-102659670D01*
X108884271Y-102173489D01*
X108998345Y-101600000D01*
X108884271Y-101026511D01*
X108559415Y-100540330D01*
X108073234Y-100215474D01*
X107499745Y-100101400D01*
X107130255Y-100101400D01*
X106556766Y-100215474D01*
X106070585Y-100540330D01*
X105745729Y-101026511D01*
X105649807Y-101508744D01*
X105553885Y-101026511D01*
X105229029Y-100540330D01*
X104914248Y-100330000D01*
X105229029Y-100119670D01*
X105553885Y-99633489D01*
X105667959Y-99060000D01*
X105553885Y-98486511D01*
X105229029Y-98000330D01*
X104914248Y-97790000D01*
X105229029Y-97579670D01*
X105553885Y-97093489D01*
X105667959Y-96520000D01*
X105553885Y-95946511D01*
X105229029Y-95460330D01*
X104914248Y-95250000D01*
X105229029Y-95039670D01*
X105553885Y-94553489D01*
X105667959Y-93980000D01*
X105553885Y-93406511D01*
X105229029Y-92920330D01*
X104914248Y-92710000D01*
X105229029Y-92499670D01*
X105553885Y-92013489D01*
X105601355Y-91774838D01*
X133164833Y-91774838D01*
X132821057Y-91916883D01*
X132557808Y-92179673D01*
X132415162Y-92523201D01*
X132414838Y-92895167D01*
X132465000Y-93016569D01*
X132465000Y-94943178D01*
X132415162Y-95063201D01*
X132414838Y-95435167D01*
X132556883Y-95778943D01*
X132819673Y-96042192D01*
X133163201Y-96184838D01*
X133535167Y-96185162D01*
X133878943Y-96043117D01*
X134142192Y-95780327D01*
X134284838Y-95436799D01*
X134285162Y-95064833D01*
X134235000Y-94943431D01*
X134235000Y-93016822D01*
X134284838Y-92896799D01*
X134285162Y-92524833D01*
X134143117Y-92181057D01*
X133880327Y-91917808D01*
X133536799Y-91775162D01*
X133164833Y-91774838D01*
X105601355Y-91774838D01*
X105667959Y-91440000D01*
X105553885Y-90866511D01*
X105229029Y-90380330D01*
X104914248Y-90170000D01*
X105229029Y-89959670D01*
X105553885Y-89473489D01*
X105667959Y-88900000D01*
X105553885Y-88326511D01*
X105229029Y-87840330D01*
X104914248Y-87630000D01*
X105229029Y-87419670D01*
X105553885Y-86933489D01*
X105667959Y-86360000D01*
X105553885Y-85786511D01*
X105229029Y-85300330D01*
X104914248Y-85090000D01*
X105229029Y-84879670D01*
X105553885Y-84393489D01*
X105667959Y-83820000D01*
X105553885Y-83246511D01*
X105229029Y-82760330D01*
X104914248Y-82550000D01*
X105229029Y-82339670D01*
X105252143Y-82305077D01*
X119590472Y-82305077D01*
X119245729Y-82495364D01*
X118894044Y-83376591D01*
X118906359Y-84325323D01*
X119245729Y-85144636D01*
X119590472Y-85334923D01*
X120925790Y-83999605D01*
X121285000Y-83999605D01*
X119770077Y-85514528D01*
X119960364Y-85859271D01*
X120841591Y-86210956D01*
X121790323Y-86198641D01*
X122125423Y-86059838D01*
X131259833Y-86059838D01*
X130916057Y-86201883D01*
X130652808Y-86464673D01*
X130510162Y-86808201D01*
X130509838Y-87180167D01*
X130651883Y-87523943D01*
X130914673Y-87787192D01*
X131035986Y-87837566D01*
X132507255Y-89308834D01*
X132556883Y-89428943D01*
X132819673Y-89692192D01*
X133163201Y-89834838D01*
X133535167Y-89835162D01*
X133878943Y-89693117D01*
X134142192Y-89430327D01*
X134284838Y-89086799D01*
X134285162Y-88714833D01*
X134143117Y-88371057D01*
X133880327Y-88107808D01*
X133759013Y-88057434D01*
X132287744Y-86586164D01*
X132238117Y-86466057D01*
X131975327Y-86202808D01*
X131631799Y-86060162D01*
X131259833Y-86059838D01*
X122125423Y-86059838D01*
X122609636Y-85859271D01*
X122799923Y-85514528D01*
X121285000Y-83999605D01*
X120925790Y-83999605D01*
X121105395Y-83820000D01*
X119590472Y-82305077D01*
X105252143Y-82305077D01*
X105553885Y-81853489D01*
X105638312Y-81429044D01*
X121728409Y-81429044D01*
X120779677Y-81441359D01*
X119960364Y-81780729D01*
X119770077Y-82125472D01*
X121285000Y-83640395D01*
X122620318Y-82305077D01*
X122979528Y-82305077D01*
X121464605Y-83820000D01*
X122979528Y-85334923D01*
X123324271Y-85144636D01*
X123675956Y-84263409D01*
X123663641Y-83314677D01*
X123324271Y-82495364D01*
X122979528Y-82305077D01*
X122620318Y-82305077D01*
X122799923Y-82125472D01*
X122609636Y-81780729D01*
X121728409Y-81429044D01*
X105638312Y-81429044D01*
X105667959Y-81280000D01*
X105553885Y-80706511D01*
X105229029Y-80220330D01*
X104914248Y-80010000D01*
X105229029Y-79799670D01*
X105553885Y-79313489D01*
X105667959Y-78740000D01*
X105553885Y-78166511D01*
X105229029Y-77680330D01*
X104914248Y-77470000D01*
X105229029Y-77259670D01*
X105553885Y-76773489D01*
X105667959Y-76200000D01*
X105553885Y-75626511D01*
X105229029Y-75140330D01*
X104914248Y-74930000D01*
X105229029Y-74719670D01*
X105553885Y-74233489D01*
X105667959Y-73660000D01*
X105553885Y-73086511D01*
X105229029Y-72600330D01*
X104914248Y-72390000D01*
X105229029Y-72179670D01*
X105553885Y-71693489D01*
X105667959Y-71120000D01*
X105553885Y-70546511D01*
X105312223Y-70184838D01*
X124909833Y-70184838D01*
X124566057Y-70326883D01*
X124302808Y-70589673D01*
X124160162Y-70933201D01*
X124159838Y-71305167D01*
X124301883Y-71648943D01*
X124335000Y-71682118D01*
X124335000Y-73097537D01*
X124302808Y-73129673D01*
X124187924Y-73406344D01*
X122762744Y-71981164D01*
X122713117Y-71861057D01*
X122450327Y-71597808D01*
X122106799Y-71455162D01*
X121734833Y-71454838D01*
X121391057Y-71596883D01*
X121127808Y-71859673D01*
X120985162Y-72203201D01*
X120984838Y-72575167D01*
X121126883Y-72918943D01*
X121389673Y-73182192D01*
X121510986Y-73232566D01*
X124252255Y-75973834D01*
X124301883Y-76093943D01*
X124564673Y-76357192D01*
X124908201Y-76499838D01*
X125280167Y-76500162D01*
X125623943Y-76358117D01*
X125887192Y-76095327D01*
X126029838Y-75751799D01*
X126030162Y-75379833D01*
X125888117Y-75036057D01*
X125625327Y-74772808D01*
X125504013Y-74722434D01*
X125348505Y-74566926D01*
X125623943Y-74453117D01*
X125887192Y-74190327D01*
X126029838Y-73846799D01*
X126030162Y-73474833D01*
X125888117Y-73131057D01*
X125855000Y-73097882D01*
X125855000Y-71682463D01*
X125887192Y-71650327D01*
X126029838Y-71306799D01*
X126030162Y-70934833D01*
X125888117Y-70591057D01*
X125625327Y-70327808D01*
X125281799Y-70185162D01*
X124909833Y-70184838D01*
X105312223Y-70184838D01*
X105229029Y-70060330D01*
X104914248Y-69850000D01*
X105229029Y-69639670D01*
X105553885Y-69153489D01*
X105667959Y-68580000D01*
X105553885Y-68006511D01*
X105229029Y-67520330D01*
X104914248Y-67310000D01*
X105229029Y-67099670D01*
X105553885Y-66613489D01*
X105667959Y-66040000D01*
X105553885Y-65466511D01*
X105229029Y-64980330D01*
X104914248Y-64770000D01*
X105229029Y-64559670D01*
X105553885Y-64073489D01*
X105601355Y-63834838D01*
X122369833Y-63834838D01*
X122026057Y-63976883D01*
X121762808Y-64239673D01*
X121620162Y-64583201D01*
X121620121Y-64630077D01*
X119065198Y-67185000D01*
X113592463Y-67185000D01*
X113560327Y-67152808D01*
X113216799Y-67010162D01*
X112844833Y-67009838D01*
X112501057Y-67151883D01*
X112237808Y-67414673D01*
X112095162Y-67758201D01*
X112094838Y-68130167D01*
X112236883Y-68473943D01*
X112499673Y-68737192D01*
X112843201Y-68879838D01*
X113215167Y-68880162D01*
X113383597Y-68810568D01*
X113506883Y-69108943D01*
X113769673Y-69372192D01*
X114113201Y-69514838D01*
X114485167Y-69515162D01*
X114828943Y-69373117D01*
X114862118Y-69340000D01*
X120015000Y-69340000D01*
X120305839Y-69282148D01*
X120552401Y-69117401D01*
X122694680Y-66975122D01*
X122740167Y-66975162D01*
X123083943Y-66833117D01*
X123347192Y-66570327D01*
X123489838Y-66226799D01*
X123490162Y-65854833D01*
X123348117Y-65511057D01*
X123242290Y-65405046D01*
X123347192Y-65300327D01*
X123489838Y-64956799D01*
X123490162Y-64584833D01*
X123348117Y-64241057D01*
X123085327Y-63977808D01*
X122741799Y-63835162D01*
X122369833Y-63834838D01*
X105601355Y-63834838D01*
X105667959Y-63500000D01*
X105553885Y-62926511D01*
X105229029Y-62440330D01*
X104914248Y-62230000D01*
X105229029Y-62019670D01*
X105553885Y-61533489D01*
X105667959Y-60960000D01*
X105553885Y-60386511D01*
X105229029Y-59900330D01*
X104914248Y-59690000D01*
X105229029Y-59479670D01*
X105553885Y-58993489D01*
X105667959Y-58420000D01*
X105553885Y-57846511D01*
X105229029Y-57360330D01*
X104914248Y-57150000D01*
X105229029Y-56939670D01*
X105553885Y-56453489D01*
X105667959Y-55880000D01*
X105553885Y-55306511D01*
X105229029Y-54820330D01*
X104914248Y-54610000D01*
X105229029Y-54399670D01*
X105553885Y-53913489D01*
X105667959Y-53340000D01*
X105553885Y-52766511D01*
X105229029Y-52280330D01*
X104742848Y-51955474D01*
X104169359Y-51841400D01*
X104110641Y-51841400D01*
X103537152Y-51955474D01*
X103050971Y-52280330D01*
X102870000Y-52551172D01*
X102689029Y-52280330D01*
X102202848Y-51955474D01*
X101629359Y-51841400D01*
X101570641Y-51841400D01*
X99745000Y-51841400D01*
X99745000Y-49790000D01*
X105410000Y-49790000D01*
X105023490Y-49866882D01*
X104695822Y-50085822D01*
X104476882Y-50413490D01*
X104400000Y-50800000D01*
X104476882Y-51186510D01*
X104695822Y-51514178D01*
X105023490Y-51733118D01*
X105410000Y-51810000D01*
X112395000Y-51810000D01*
X112781510Y-51733118D01*
X113109178Y-51514178D01*
X113328118Y-51186510D01*
X113338396Y-51134838D01*
X119829833Y-51134838D01*
X119486057Y-51276883D01*
X119222808Y-51539673D01*
X119080162Y-51883201D01*
X119079838Y-52255167D01*
X119221883Y-52598943D01*
X119255000Y-52632118D01*
X119255000Y-55952537D01*
X119222808Y-55984673D01*
X119080162Y-56328201D01*
X119079838Y-56700167D01*
X119221883Y-57043943D01*
X119484673Y-57307192D01*
X119828201Y-57449838D01*
X120200167Y-57450162D01*
X120543943Y-57308117D01*
X120807192Y-57045327D01*
X120949838Y-56701799D01*
X120950162Y-56329833D01*
X120808117Y-55986057D01*
X120775000Y-55952882D01*
X120775000Y-52632463D01*
X120807192Y-52600327D01*
X120949838Y-52256799D01*
X120950162Y-51884833D01*
X120808117Y-51541057D01*
X120545327Y-51277808D01*
X120201799Y-51135162D01*
X119829833Y-51134838D01*
X124909833Y-51134838D01*
X124566057Y-51276883D01*
X124302808Y-51539673D01*
X124160162Y-51883201D01*
X124159838Y-52255167D01*
X124301883Y-52598943D01*
X124335000Y-52632118D01*
X124335000Y-55880000D01*
X124392852Y-56170839D01*
X124557599Y-56417401D01*
X128695600Y-60555402D01*
X128605162Y-60773201D01*
X128604838Y-61145167D01*
X128746883Y-61488943D01*
X129009673Y-61752192D01*
X129353201Y-61894838D01*
X129725167Y-61895162D01*
X130068943Y-61753117D01*
X130332192Y-61490327D01*
X130456622Y-61190668D01*
X130623201Y-61259838D01*
X130995167Y-61260162D01*
X131338943Y-61118117D01*
X131602192Y-60855327D01*
X131744838Y-60511799D01*
X131745162Y-60139833D01*
X131603117Y-59796057D01*
X131497290Y-59690046D01*
X131602192Y-59585327D01*
X131744838Y-59241799D01*
X131745162Y-58869833D01*
X131603117Y-58526057D01*
X131340327Y-58262808D01*
X131219013Y-58212434D01*
X129261580Y-56255000D01*
X132080000Y-56255000D01*
X132466510Y-56178118D01*
X132794178Y-55959178D01*
X133013118Y-55631510D01*
X133090000Y-55245000D01*
X133013118Y-54858490D01*
X132794178Y-54530822D01*
X132466510Y-54311882D01*
X132080000Y-54235000D01*
X128905000Y-54235000D01*
X128520000Y-54311582D01*
X128520000Y-54281822D01*
X128569838Y-54161799D01*
X128570162Y-53789833D01*
X128428117Y-53446057D01*
X128165327Y-53182808D01*
X127821799Y-53040162D01*
X127449833Y-53039838D01*
X127125000Y-53174056D01*
X127125000Y-52632463D01*
X127157192Y-52600327D01*
X127299838Y-52256799D01*
X127300162Y-51884833D01*
X127158117Y-51541057D01*
X126895327Y-51277808D01*
X126551799Y-51135162D01*
X126179833Y-51134838D01*
X125836057Y-51276883D01*
X125730046Y-51382710D01*
X125625327Y-51277808D01*
X125281799Y-51135162D01*
X124909833Y-51134838D01*
X119829833Y-51134838D01*
X119829833Y-51134838D01*
X113338396Y-51134838D01*
X113405000Y-50800000D01*
X113328118Y-50413490D01*
X113109178Y-50085822D01*
X112781510Y-49866882D01*
X112395000Y-49790000D01*
X105410000Y-49790000D01*
X99745000Y-49790000D01*
X99745000Y-30251400D01*
X101570641Y-30251400D01*
X100997152Y-30365474D01*
X100510971Y-30690330D01*
X100186115Y-31176511D01*
X100072041Y-31750000D01*
X100186115Y-32323489D01*
X100510971Y-32809670D01*
X100825752Y-33020000D01*
X100510971Y-33230330D01*
X100186115Y-33716511D01*
X100072041Y-34290000D01*
X100186115Y-34863489D01*
X100510971Y-35349670D01*
X100825752Y-35560000D01*
X100510971Y-35770330D01*
X100186115Y-36256511D01*
X100072041Y-36830000D01*
X100186115Y-37403489D01*
X100510971Y-37889670D01*
X100825752Y-38100000D01*
X100510971Y-38310330D01*
X100186115Y-38796511D01*
X100072041Y-39370000D01*
X100186115Y-39943489D01*
X100510971Y-40429670D01*
X100825752Y-40640000D01*
X100510971Y-40850330D01*
X100186115Y-41336511D01*
X100072041Y-41910000D01*
X100186115Y-42483489D01*
X100510971Y-42969670D01*
X100825752Y-43180000D01*
X100510971Y-43390330D01*
X100186115Y-43876511D01*
X100072041Y-44450000D01*
X100186115Y-45023489D01*
X100510971Y-45509670D01*
X100825752Y-45720000D01*
X100510971Y-45930330D01*
X100186115Y-46416511D01*
X100072041Y-46990000D01*
X100186115Y-47563489D01*
X100510971Y-48049670D01*
X100997152Y-48374526D01*
X101570641Y-48488600D01*
X101629359Y-48488600D01*
X102202848Y-48374526D01*
X102669530Y-48062699D01*
X102675937Y-48095723D01*
X102815727Y-48308527D01*
X103026760Y-48450977D01*
X103276400Y-48501040D01*
X105003600Y-48501040D01*
X105245723Y-48454063D01*
X105458527Y-48314273D01*
X105600977Y-48103240D01*
X105651040Y-47853600D01*
X105651040Y-46126400D01*
X105604063Y-45884277D01*
X105464273Y-45671473D01*
X105253240Y-45529023D01*
X105212340Y-45520821D01*
X105229029Y-45509670D01*
X105553885Y-45023489D01*
X105667959Y-44450000D01*
X105553885Y-43876511D01*
X105229029Y-43390330D01*
X104914248Y-43180000D01*
X105229029Y-42969670D01*
X105553885Y-42483489D01*
X105667959Y-41910000D01*
X105553885Y-41336511D01*
X105229029Y-40850330D01*
X104914248Y-40640000D01*
X105229029Y-40429670D01*
X105553885Y-39943489D01*
X105667959Y-39370000D01*
X105553885Y-38796511D01*
X105229029Y-38310330D01*
X104914248Y-38100000D01*
X105229029Y-37889670D01*
X105553885Y-37403489D01*
X105667959Y-36830000D01*
X105553885Y-36256511D01*
X105229029Y-35770330D01*
X104914248Y-35560000D01*
X105229029Y-35349670D01*
X105553885Y-34863489D01*
X105667959Y-34290000D01*
X105553885Y-33716511D01*
X105229029Y-33230330D01*
X104914248Y-33020000D01*
X105229029Y-32809670D01*
X105553885Y-32323489D01*
X105667959Y-31750000D01*
X105553885Y-31176511D01*
X105229029Y-30690330D01*
X105104317Y-30607000D01*
X118680531Y-30607000D01*
X118560032Y-30839027D01*
X118808179Y-31368490D01*
X119226161Y-31750008D01*
X118955330Y-31930971D01*
X118630474Y-32417152D01*
X118516400Y-32990641D01*
X118516400Y-33049359D01*
X118630474Y-33622848D01*
X118955330Y-34109029D01*
X119441511Y-34433885D01*
X120015000Y-34547959D01*
X120588489Y-34433885D01*
X121074670Y-34109029D01*
X121285000Y-33794248D01*
X121495330Y-34109029D01*
X121981511Y-34433885D01*
X122555000Y-34547959D01*
X123128489Y-34433885D01*
X123614670Y-34109029D01*
X123825000Y-33794248D01*
X124035330Y-34109029D01*
X124521511Y-34433885D01*
X125095000Y-34547959D01*
X125668489Y-34433885D01*
X126154670Y-34109029D01*
X126365000Y-33794248D01*
X126575330Y-34109029D01*
X127061511Y-34433885D01*
X127635000Y-34547959D01*
X128208489Y-34433885D01*
X128694670Y-34109029D01*
X128824316Y-33915000D01*
X133350000Y-33915000D01*
X132963490Y-33991882D01*
X132635822Y-34210822D01*
X132416882Y-34538490D01*
X132340000Y-34925000D01*
X132340000Y-40005000D01*
X132416882Y-40391510D01*
X132635822Y-40719178D01*
X132963490Y-40938118D01*
X133350000Y-41015000D01*
X133736510Y-40938118D01*
X134064178Y-40719178D01*
X134283118Y-40391510D01*
X134360000Y-40005000D01*
X134360000Y-34925000D01*
X134283118Y-34538490D01*
X134064178Y-34210822D01*
X133736510Y-33991882D01*
X133350000Y-33915000D01*
X128824316Y-33915000D01*
X129019526Y-33622848D01*
X129133600Y-33049359D01*
X129133600Y-32990641D01*
X129019526Y-32417152D01*
X128704474Y-31945644D01*
X128858299Y-31881927D01*
X129036927Y-31703298D01*
X129133600Y-31469909D01*
X129133600Y-30765750D01*
X128974850Y-30607000D01*
X127762000Y-30607000D01*
X127762000Y-30627000D01*
X127508000Y-30627000D01*
X127508000Y-30607000D01*
X125222000Y-30607000D01*
X125222000Y-30627000D01*
X124968000Y-30627000D01*
X124968000Y-30607000D01*
X122682000Y-30607000D01*
X122682000Y-30627000D01*
X122428000Y-30627000D01*
X122428000Y-30607000D01*
X120142000Y-30607000D01*
X120142000Y-30627000D01*
X119888000Y-30627000D01*
X119888000Y-30607000D01*
X118680531Y-30607000D01*
X105104317Y-30607000D01*
X104742848Y-30365474D01*
X104169359Y-30251400D01*
X104110641Y-30251400D01*
X103537152Y-30365474D01*
X103050971Y-30690330D01*
X102870000Y-30961172D01*
X102689029Y-30690330D01*
X102202848Y-30365474D01*
X101629359Y-30251400D01*
X101570641Y-30251400D01*
X99745000Y-30251400D01*
X99745000Y-29025042D01*
X119655974Y-29025042D01*
X119240053Y-29197312D01*
X118808179Y-29591510D01*
X118560032Y-30120973D01*
X118680531Y-30353000D01*
X119888000Y-30353000D01*
X119888000Y-29146183D01*
X119655974Y-29025042D01*
X120374026Y-29025042D01*
X120142000Y-29146183D01*
X120142000Y-30353000D01*
X122428000Y-30353000D01*
X122428000Y-29146183D01*
X122195974Y-29025042D01*
X122914026Y-29025042D01*
X122682000Y-29146183D01*
X122682000Y-30353000D01*
X124968000Y-30353000D01*
X124968000Y-29146183D01*
X124735974Y-29025042D01*
X124320053Y-29197312D01*
X123888179Y-29591510D01*
X123825000Y-29726313D01*
X123761821Y-29591510D01*
X123329947Y-29197312D01*
X122914026Y-29025042D01*
X122195974Y-29025042D01*
X122195974Y-29025042D01*
X121780053Y-29197312D01*
X121348179Y-29591510D01*
X121285000Y-29726313D01*
X121221821Y-29591510D01*
X120789947Y-29197312D01*
X120374026Y-29025042D01*
X119655974Y-29025042D01*
X119655974Y-29025042D01*
X99745000Y-29025042D01*
X99745000Y-28981400D01*
X126645090Y-28981400D01*
X126411701Y-29078073D01*
X126233073Y-29256702D01*
X126151300Y-29454120D01*
X125869947Y-29197312D01*
X125454026Y-29025042D01*
X125222000Y-29146183D01*
X125222000Y-30353000D01*
X127508000Y-30353000D01*
X127508000Y-29140150D01*
X127349250Y-28981400D01*
X127920750Y-28981400D01*
X127762000Y-29140150D01*
X127762000Y-30353000D01*
X128974850Y-30353000D01*
X129133600Y-30194250D01*
X129133600Y-29490091D01*
X129036927Y-29256702D01*
X128858299Y-29078073D01*
X128624910Y-28981400D01*
X127920750Y-28981400D01*
X127349250Y-28981400D01*
X127349250Y-28981400D01*
X126645090Y-28981400D01*
X99745000Y-28981400D01*
X99745000Y-28625000D01*
X135205000Y-28625000D01*
X135205000Y-112345000D01*
X135205000Y-112345000D01*
G37*
X135205000Y-112345000D02*
X135205000Y-112345000D01*
X123856580Y-112345000D01*
X124868834Y-111332745D01*
X124988943Y-111283117D01*
X125252192Y-111020327D01*
X125394838Y-110676799D01*
X125395162Y-110304833D01*
X125253117Y-109961057D01*
X124990327Y-109697808D01*
X124646799Y-109555162D01*
X124274833Y-109554838D01*
X123931057Y-109696883D01*
X123667808Y-109959673D01*
X123617434Y-110080987D01*
X123437496Y-110260925D01*
X123675956Y-109663409D01*
X123663641Y-108714677D01*
X123324271Y-107895364D01*
X122979528Y-107705077D01*
X121464605Y-109220000D01*
X121478748Y-109234143D01*
X121299143Y-109413748D01*
X121285000Y-109399605D01*
X121270858Y-109413748D01*
X121091253Y-109234143D01*
X121105395Y-109220000D01*
X119590472Y-107705077D01*
X119245729Y-107895364D01*
X118894044Y-108776591D01*
X118906359Y-109725323D01*
X119245729Y-110544636D01*
X119590470Y-110734922D01*
X119477466Y-110847926D01*
X119504540Y-110875000D01*
X117146822Y-110875000D01*
X117026799Y-110825162D01*
X116654833Y-110824838D01*
X116311057Y-110966883D01*
X116047808Y-111229673D01*
X115905162Y-111573201D01*
X115904838Y-111945167D01*
X116046883Y-112288943D01*
X116102842Y-112345000D01*
X114300000Y-112345000D01*
X114037862Y-112397143D01*
X113815632Y-112545632D01*
X113667143Y-112767862D01*
X113615000Y-113030000D01*
X113615000Y-116155000D01*
X99745000Y-116155000D01*
X99745000Y-114427000D01*
X100266183Y-114427000D01*
X100145042Y-114659026D01*
X100317312Y-115074947D01*
X100711510Y-115506821D01*
X101240973Y-115754968D01*
X101473000Y-115634469D01*
X101473000Y-114427000D01*
X100266183Y-114427000D01*
X99745000Y-114427000D01*
X99745000Y-51841400D01*
X101570641Y-51841400D01*
X100997152Y-51955474D01*
X100510971Y-52280330D01*
X100186115Y-52766511D01*
X100072041Y-53340000D01*
X100186115Y-53913489D01*
X100510971Y-54399670D01*
X100825752Y-54610000D01*
X100510971Y-54820330D01*
X100186115Y-55306511D01*
X100072041Y-55880000D01*
X100186115Y-56453489D01*
X100510971Y-56939670D01*
X100825752Y-57150000D01*
X100510971Y-57360330D01*
X100186115Y-57846511D01*
X100072041Y-58420000D01*
X100186115Y-58993489D01*
X100510971Y-59479670D01*
X100825752Y-59690000D01*
X100510971Y-59900330D01*
X100186115Y-60386511D01*
X100072041Y-60960000D01*
X100186115Y-61533489D01*
X100510971Y-62019670D01*
X100825752Y-62230000D01*
X100510971Y-62440330D01*
X100186115Y-62926511D01*
X100072041Y-63500000D01*
X100186115Y-64073489D01*
X100510971Y-64559670D01*
X100825752Y-64770000D01*
X100510971Y-64980330D01*
X100186115Y-65466511D01*
X100072041Y-66040000D01*
X100186115Y-66613489D01*
X100510971Y-67099670D01*
X100825752Y-67310000D01*
X100510971Y-67520330D01*
X100186115Y-68006511D01*
X100072041Y-68580000D01*
X100186115Y-69153489D01*
X100510971Y-69639670D01*
X100825752Y-69850000D01*
X100510971Y-70060330D01*
X100186115Y-70546511D01*
X100072041Y-71120000D01*
X100186115Y-71693489D01*
X100510971Y-72179670D01*
X100825752Y-72390000D01*
X100510971Y-72600330D01*
X100186115Y-73086511D01*
X100072041Y-73660000D01*
X100186115Y-74233489D01*
X100510971Y-74719670D01*
X100825752Y-74930000D01*
X100510971Y-75140330D01*
X100186115Y-75626511D01*
X100072041Y-76200000D01*
X100186115Y-76773489D01*
X100510971Y-77259670D01*
X100825752Y-77470000D01*
X100510971Y-77680330D01*
X100186115Y-78166511D01*
X100072041Y-78740000D01*
X100186115Y-79313489D01*
X100510971Y-79799670D01*
X100825752Y-80010000D01*
X100510971Y-80220330D01*
X100186115Y-80706511D01*
X100072041Y-81280000D01*
X100186115Y-81853489D01*
X100510971Y-82339670D01*
X100825752Y-82550000D01*
X100510971Y-82760330D01*
X100186115Y-83246511D01*
X100072041Y-83820000D01*
X100186115Y-84393489D01*
X100510971Y-84879670D01*
X100825752Y-85090000D01*
X100510971Y-85300330D01*
X100186115Y-85786511D01*
X100072041Y-86360000D01*
X100186115Y-86933489D01*
X100510971Y-87419670D01*
X100825752Y-87630000D01*
X100510971Y-87840330D01*
X100186115Y-88326511D01*
X100072041Y-88900000D01*
X100186115Y-89473489D01*
X100510971Y-89959670D01*
X100825752Y-90170000D01*
X100510971Y-90380330D01*
X100186115Y-90866511D01*
X100072041Y-91440000D01*
X100186115Y-92013489D01*
X100510971Y-92499670D01*
X100825752Y-92710000D01*
X100510971Y-92920330D01*
X100186115Y-93406511D01*
X100072041Y-93980000D01*
X100186115Y-94553489D01*
X100510971Y-95039670D01*
X100825752Y-95250000D01*
X100510971Y-95460330D01*
X100186115Y-95946511D01*
X100072041Y-96520000D01*
X100186115Y-97093489D01*
X100510971Y-97579670D01*
X100825752Y-97790000D01*
X100510971Y-98000330D01*
X100186115Y-98486511D01*
X100072041Y-99060000D01*
X100186115Y-99633489D01*
X100510971Y-100119670D01*
X100825752Y-100330000D01*
X100510971Y-100540330D01*
X100186115Y-101026511D01*
X100072041Y-101600000D01*
X100186115Y-102173489D01*
X100510971Y-102659670D01*
X100825752Y-102870000D01*
X100510971Y-103080330D01*
X100186115Y-103566511D01*
X100072041Y-104140000D01*
X100186115Y-104713489D01*
X100510971Y-105199670D01*
X100825752Y-105410000D01*
X100510971Y-105620330D01*
X100186115Y-106106511D01*
X100072041Y-106680000D01*
X100186115Y-107253489D01*
X100510971Y-107739670D01*
X100825752Y-107950000D01*
X100510971Y-108160330D01*
X100186115Y-108646511D01*
X100072041Y-109220000D01*
X100186115Y-109793489D01*
X100510971Y-110279670D01*
X100825752Y-110490000D01*
X100510971Y-110700330D01*
X100186115Y-111186511D01*
X100072041Y-111760000D01*
X100186115Y-112333489D01*
X100510971Y-112819670D01*
X100834228Y-113035664D01*
X100711510Y-113093179D01*
X100317312Y-113525053D01*
X100145042Y-113940974D01*
X100266183Y-114173000D01*
X101473000Y-114173000D01*
X101473000Y-114153000D01*
X101727000Y-114153000D01*
X101727000Y-114173000D01*
X101747000Y-114173000D01*
X101747000Y-114427000D01*
X101727000Y-114427000D01*
X101727000Y-115634469D01*
X101959027Y-115754968D01*
X102488490Y-115506821D01*
X102659254Y-115319736D01*
X102675937Y-115405723D01*
X102815727Y-115618527D01*
X103026760Y-115760977D01*
X103276400Y-115811040D01*
X105003600Y-115811040D01*
X105245723Y-115764063D01*
X105458527Y-115624273D01*
X105600977Y-115413240D01*
X105651040Y-115163600D01*
X105651040Y-113436400D01*
X105604063Y-113194277D01*
X105464273Y-112981473D01*
X105253240Y-112839023D01*
X105212340Y-112830821D01*
X105229029Y-112819670D01*
X105553885Y-112333489D01*
X105667959Y-111760000D01*
X105553885Y-111186511D01*
X105229029Y-110700330D01*
X104914248Y-110490000D01*
X105229029Y-110279670D01*
X105553885Y-109793489D01*
X105667959Y-109220000D01*
X105553885Y-108646511D01*
X105229029Y-108160330D01*
X104914248Y-107950000D01*
X105229029Y-107739670D01*
X105553885Y-107253489D01*
X105651560Y-106762443D01*
X105651560Y-107543600D01*
X105698537Y-107785723D01*
X105838327Y-107998527D01*
X106049360Y-108140977D01*
X106299000Y-108191040D01*
X108331000Y-108191040D01*
X108573123Y-108144063D01*
X108785927Y-108004273D01*
X108928377Y-107793240D01*
X108978440Y-107543600D01*
X108978440Y-106940000D01*
X112395000Y-106940000D01*
X112008490Y-107016882D01*
X111680822Y-107235822D01*
X111461882Y-107563490D01*
X111385000Y-107950000D01*
X111385000Y-113665000D01*
X111461882Y-114051510D01*
X111680822Y-114379178D01*
X112008490Y-114598118D01*
X112395000Y-114675000D01*
X112781510Y-114598118D01*
X113109178Y-114379178D01*
X113328118Y-114051510D01*
X113405000Y-113665000D01*
X113405000Y-107950000D01*
X113328118Y-107563490D01*
X113109178Y-107235822D01*
X112781510Y-107016882D01*
X112395000Y-106940000D01*
X108978440Y-106940000D01*
X108978440Y-106829044D01*
X121728409Y-106829044D01*
X120779677Y-106841359D01*
X119960364Y-107180729D01*
X119770077Y-107525472D01*
X121285000Y-109040395D01*
X122799923Y-107525472D01*
X122609636Y-107180729D01*
X121728409Y-106829044D01*
X108978440Y-106829044D01*
X108978440Y-105816400D01*
X108931463Y-105574277D01*
X108791673Y-105361473D01*
X108580640Y-105219023D01*
X108542037Y-105211282D01*
X108559415Y-105199670D01*
X108884271Y-104713489D01*
X108931741Y-104474838D01*
X133164833Y-104474838D01*
X132821057Y-104616883D01*
X132557808Y-104879673D01*
X132415162Y-105223201D01*
X132414838Y-105595167D01*
X132465000Y-105716569D01*
X132465000Y-107643178D01*
X132415162Y-107763201D01*
X132414838Y-108135167D01*
X132556883Y-108478943D01*
X132819673Y-108742192D01*
X133163201Y-108884838D01*
X133535167Y-108885162D01*
X133878943Y-108743117D01*
X134142192Y-108480327D01*
X134284838Y-108136799D01*
X134285162Y-107764833D01*
X134235000Y-107643431D01*
X134235000Y-105716822D01*
X134284838Y-105596799D01*
X134285162Y-105224833D01*
X134143117Y-104881057D01*
X133880327Y-104617808D01*
X133536799Y-104475162D01*
X133164833Y-104474838D01*
X108931741Y-104474838D01*
X108998345Y-104140000D01*
X108884271Y-103566511D01*
X108559415Y-103080330D01*
X108244634Y-102870000D01*
X108559415Y-102659670D01*
X108884271Y-102173489D01*
X108998345Y-101600000D01*
X108884271Y-101026511D01*
X108559415Y-100540330D01*
X108073234Y-100215474D01*
X107499745Y-100101400D01*
X107130255Y-100101400D01*
X106556766Y-100215474D01*
X106070585Y-100540330D01*
X105745729Y-101026511D01*
X105649807Y-101508744D01*
X105553885Y-101026511D01*
X105229029Y-100540330D01*
X104914248Y-100330000D01*
X105229029Y-100119670D01*
X105553885Y-99633489D01*
X105667959Y-99060000D01*
X105553885Y-98486511D01*
X105229029Y-98000330D01*
X104914248Y-97790000D01*
X105229029Y-97579670D01*
X105553885Y-97093489D01*
X105667959Y-96520000D01*
X105553885Y-95946511D01*
X105229029Y-95460330D01*
X104914248Y-95250000D01*
X105229029Y-95039670D01*
X105553885Y-94553489D01*
X105667959Y-93980000D01*
X105553885Y-93406511D01*
X105229029Y-92920330D01*
X104914248Y-92710000D01*
X105229029Y-92499670D01*
X105553885Y-92013489D01*
X105601355Y-91774838D01*
X133164833Y-91774838D01*
X132821057Y-91916883D01*
X132557808Y-92179673D01*
X132415162Y-92523201D01*
X132414838Y-92895167D01*
X132465000Y-93016569D01*
X132465000Y-94943178D01*
X132415162Y-95063201D01*
X132414838Y-95435167D01*
X132556883Y-95778943D01*
X132819673Y-96042192D01*
X133163201Y-96184838D01*
X133535167Y-96185162D01*
X133878943Y-96043117D01*
X134142192Y-95780327D01*
X134284838Y-95436799D01*
X134285162Y-95064833D01*
X134235000Y-94943431D01*
X134235000Y-93016822D01*
X134284838Y-92896799D01*
X134285162Y-92524833D01*
X134143117Y-92181057D01*
X133880327Y-91917808D01*
X133536799Y-91775162D01*
X133164833Y-91774838D01*
X105601355Y-91774838D01*
X105667959Y-91440000D01*
X105553885Y-90866511D01*
X105229029Y-90380330D01*
X104914248Y-90170000D01*
X105229029Y-89959670D01*
X105553885Y-89473489D01*
X105667959Y-88900000D01*
X105553885Y-88326511D01*
X105229029Y-87840330D01*
X104914248Y-87630000D01*
X105229029Y-87419670D01*
X105553885Y-86933489D01*
X105667959Y-86360000D01*
X105553885Y-85786511D01*
X105229029Y-85300330D01*
X104914248Y-85090000D01*
X105229029Y-84879670D01*
X105553885Y-84393489D01*
X105667959Y-83820000D01*
X105553885Y-83246511D01*
X105229029Y-82760330D01*
X104914248Y-82550000D01*
X105229029Y-82339670D01*
X105252143Y-82305077D01*
X119590472Y-82305077D01*
X119245729Y-82495364D01*
X118894044Y-83376591D01*
X118906359Y-84325323D01*
X119245729Y-85144636D01*
X119590472Y-85334923D01*
X120925790Y-83999605D01*
X121285000Y-83999605D01*
X119770077Y-85514528D01*
X119960364Y-85859271D01*
X120841591Y-86210956D01*
X121790323Y-86198641D01*
X122125423Y-86059838D01*
X131259833Y-86059838D01*
X130916057Y-86201883D01*
X130652808Y-86464673D01*
X130510162Y-86808201D01*
X130509838Y-87180167D01*
X130651883Y-87523943D01*
X130914673Y-87787192D01*
X131035986Y-87837566D01*
X132507255Y-89308834D01*
X132556883Y-89428943D01*
X132819673Y-89692192D01*
X133163201Y-89834838D01*
X133535167Y-89835162D01*
X133878943Y-89693117D01*
X134142192Y-89430327D01*
X134284838Y-89086799D01*
X134285162Y-88714833D01*
X134143117Y-88371057D01*
X133880327Y-88107808D01*
X133759013Y-88057434D01*
X132287744Y-86586164D01*
X132238117Y-86466057D01*
X131975327Y-86202808D01*
X131631799Y-86060162D01*
X131259833Y-86059838D01*
X122125423Y-86059838D01*
X122609636Y-85859271D01*
X122799923Y-85514528D01*
X121285000Y-83999605D01*
X120925790Y-83999605D01*
X121105395Y-83820000D01*
X119590472Y-82305077D01*
X105252143Y-82305077D01*
X105553885Y-81853489D01*
X105638312Y-81429044D01*
X121728409Y-81429044D01*
X120779677Y-81441359D01*
X119960364Y-81780729D01*
X119770077Y-82125472D01*
X121285000Y-83640395D01*
X122620318Y-82305077D01*
X122979528Y-82305077D01*
X121464605Y-83820000D01*
X122979528Y-85334923D01*
X123324271Y-85144636D01*
X123675956Y-84263409D01*
X123663641Y-83314677D01*
X123324271Y-82495364D01*
X122979528Y-82305077D01*
X122620318Y-82305077D01*
X122799923Y-82125472D01*
X122609636Y-81780729D01*
X121728409Y-81429044D01*
X105638312Y-81429044D01*
X105667959Y-81280000D01*
X105553885Y-80706511D01*
X105229029Y-80220330D01*
X104914248Y-80010000D01*
X105229029Y-79799670D01*
X105553885Y-79313489D01*
X105667959Y-78740000D01*
X105553885Y-78166511D01*
X105229029Y-77680330D01*
X104914248Y-77470000D01*
X105229029Y-77259670D01*
X105553885Y-76773489D01*
X105667959Y-76200000D01*
X105553885Y-75626511D01*
X105229029Y-75140330D01*
X104914248Y-74930000D01*
X105229029Y-74719670D01*
X105553885Y-74233489D01*
X105667959Y-73660000D01*
X105553885Y-73086511D01*
X105229029Y-72600330D01*
X104914248Y-72390000D01*
X105229029Y-72179670D01*
X105553885Y-71693489D01*
X105667959Y-71120000D01*
X105553885Y-70546511D01*
X105312223Y-70184838D01*
X124909833Y-70184838D01*
X124566057Y-70326883D01*
X124302808Y-70589673D01*
X124160162Y-70933201D01*
X124159838Y-71305167D01*
X124301883Y-71648943D01*
X124335000Y-71682118D01*
X124335000Y-73097537D01*
X124302808Y-73129673D01*
X124187924Y-73406344D01*
X122762744Y-71981164D01*
X122713117Y-71861057D01*
X122450327Y-71597808D01*
X122106799Y-71455162D01*
X121734833Y-71454838D01*
X121391057Y-71596883D01*
X121127808Y-71859673D01*
X120985162Y-72203201D01*
X120984838Y-72575167D01*
X121126883Y-72918943D01*
X121389673Y-73182192D01*
X121510986Y-73232566D01*
X124252255Y-75973834D01*
X124301883Y-76093943D01*
X124564673Y-76357192D01*
X124908201Y-76499838D01*
X125280167Y-76500162D01*
X125623943Y-76358117D01*
X125887192Y-76095327D01*
X126029838Y-75751799D01*
X126030162Y-75379833D01*
X125888117Y-75036057D01*
X125625327Y-74772808D01*
X125504013Y-74722434D01*
X125348505Y-74566926D01*
X125623943Y-74453117D01*
X125887192Y-74190327D01*
X126029838Y-73846799D01*
X126030162Y-73474833D01*
X125888117Y-73131057D01*
X125855000Y-73097882D01*
X125855000Y-71682463D01*
X125887192Y-71650327D01*
X126029838Y-71306799D01*
X126030162Y-70934833D01*
X125888117Y-70591057D01*
X125625327Y-70327808D01*
X125281799Y-70185162D01*
X124909833Y-70184838D01*
X105312223Y-70184838D01*
X105229029Y-70060330D01*
X104914248Y-69850000D01*
X105229029Y-69639670D01*
X105553885Y-69153489D01*
X105667959Y-68580000D01*
X105553885Y-68006511D01*
X105229029Y-67520330D01*
X104914248Y-67310000D01*
X105229029Y-67099670D01*
X105553885Y-66613489D01*
X105667959Y-66040000D01*
X105553885Y-65466511D01*
X105229029Y-64980330D01*
X104914248Y-64770000D01*
X105229029Y-64559670D01*
X105553885Y-64073489D01*
X105601355Y-63834838D01*
X122369833Y-63834838D01*
X122026057Y-63976883D01*
X121762808Y-64239673D01*
X121620162Y-64583201D01*
X121620121Y-64630077D01*
X119065198Y-67185000D01*
X113592463Y-67185000D01*
X113560327Y-67152808D01*
X113216799Y-67010162D01*
X112844833Y-67009838D01*
X112501057Y-67151883D01*
X112237808Y-67414673D01*
X112095162Y-67758201D01*
X112094838Y-68130167D01*
X112236883Y-68473943D01*
X112499673Y-68737192D01*
X112843201Y-68879838D01*
X113215167Y-68880162D01*
X113383597Y-68810568D01*
X113506883Y-69108943D01*
X113769673Y-69372192D01*
X114113201Y-69514838D01*
X114485167Y-69515162D01*
X114828943Y-69373117D01*
X114862118Y-69340000D01*
X120015000Y-69340000D01*
X120305839Y-69282148D01*
X120552401Y-69117401D01*
X122694680Y-66975122D01*
X122740167Y-66975162D01*
X123083943Y-66833117D01*
X123347192Y-66570327D01*
X123489838Y-66226799D01*
X123490162Y-65854833D01*
X123348117Y-65511057D01*
X123242290Y-65405046D01*
X123347192Y-65300327D01*
X123489838Y-64956799D01*
X123490162Y-64584833D01*
X123348117Y-64241057D01*
X123085327Y-63977808D01*
X122741799Y-63835162D01*
X122369833Y-63834838D01*
X105601355Y-63834838D01*
X105667959Y-63500000D01*
X105553885Y-62926511D01*
X105229029Y-62440330D01*
X104914248Y-62230000D01*
X105229029Y-62019670D01*
X105553885Y-61533489D01*
X105667959Y-60960000D01*
X105553885Y-60386511D01*
X105229029Y-59900330D01*
X104914248Y-59690000D01*
X105229029Y-59479670D01*
X105553885Y-58993489D01*
X105667959Y-58420000D01*
X105553885Y-57846511D01*
X105229029Y-57360330D01*
X104914248Y-57150000D01*
X105229029Y-56939670D01*
X105553885Y-56453489D01*
X105667959Y-55880000D01*
X105553885Y-55306511D01*
X105229029Y-54820330D01*
X104914248Y-54610000D01*
X105229029Y-54399670D01*
X105553885Y-53913489D01*
X105667959Y-53340000D01*
X105553885Y-52766511D01*
X105229029Y-52280330D01*
X104742848Y-51955474D01*
X104169359Y-51841400D01*
X104110641Y-51841400D01*
X103537152Y-51955474D01*
X103050971Y-52280330D01*
X102870000Y-52551172D01*
X102689029Y-52280330D01*
X102202848Y-51955474D01*
X101629359Y-51841400D01*
X101570641Y-51841400D01*
X99745000Y-51841400D01*
X99745000Y-49790000D01*
X105410000Y-49790000D01*
X105023490Y-49866882D01*
X104695822Y-50085822D01*
X104476882Y-50413490D01*
X104400000Y-50800000D01*
X104476882Y-51186510D01*
X104695822Y-51514178D01*
X105023490Y-51733118D01*
X105410000Y-51810000D01*
X112395000Y-51810000D01*
X112781510Y-51733118D01*
X113109178Y-51514178D01*
X113328118Y-51186510D01*
X113338396Y-51134838D01*
X119829833Y-51134838D01*
X119486057Y-51276883D01*
X119222808Y-51539673D01*
X119080162Y-51883201D01*
X119079838Y-52255167D01*
X119221883Y-52598943D01*
X119255000Y-52632118D01*
X119255000Y-55952537D01*
X119222808Y-55984673D01*
X119080162Y-56328201D01*
X119079838Y-56700167D01*
X119221883Y-57043943D01*
X119484673Y-57307192D01*
X119828201Y-57449838D01*
X120200167Y-57450162D01*
X120543943Y-57308117D01*
X120807192Y-57045327D01*
X120949838Y-56701799D01*
X120950162Y-56329833D01*
X120808117Y-55986057D01*
X120775000Y-55952882D01*
X120775000Y-52632463D01*
X120807192Y-52600327D01*
X120949838Y-52256799D01*
X120950162Y-51884833D01*
X120808117Y-51541057D01*
X120545327Y-51277808D01*
X120201799Y-51135162D01*
X119829833Y-51134838D01*
X124909833Y-51134838D01*
X124566057Y-51276883D01*
X124302808Y-51539673D01*
X124160162Y-51883201D01*
X124159838Y-52255167D01*
X124301883Y-52598943D01*
X124335000Y-52632118D01*
X124335000Y-55880000D01*
X124392852Y-56170839D01*
X124557599Y-56417401D01*
X128695600Y-60555402D01*
X128605162Y-60773201D01*
X128604838Y-61145167D01*
X128746883Y-61488943D01*
X129009673Y-61752192D01*
X129353201Y-61894838D01*
X129725167Y-61895162D01*
X130068943Y-61753117D01*
X130332192Y-61490327D01*
X130456622Y-61190668D01*
X130623201Y-61259838D01*
X130995167Y-61260162D01*
X131338943Y-61118117D01*
X131602192Y-60855327D01*
X131744838Y-60511799D01*
X131745162Y-60139833D01*
X131603117Y-59796057D01*
X131497290Y-59690046D01*
X131602192Y-59585327D01*
X131744838Y-59241799D01*
X131745162Y-58869833D01*
X131603117Y-58526057D01*
X131340327Y-58262808D01*
X131219013Y-58212434D01*
X129261580Y-56255000D01*
X132080000Y-56255000D01*
X132466510Y-56178118D01*
X132794178Y-55959178D01*
X133013118Y-55631510D01*
X133090000Y-55245000D01*
X133013118Y-54858490D01*
X132794178Y-54530822D01*
X132466510Y-54311882D01*
X132080000Y-54235000D01*
X128905000Y-54235000D01*
X128520000Y-54311582D01*
X128520000Y-54281822D01*
X128569838Y-54161799D01*
X128570162Y-53789833D01*
X128428117Y-53446057D01*
X128165327Y-53182808D01*
X127821799Y-53040162D01*
X127449833Y-53039838D01*
X127125000Y-53174056D01*
X127125000Y-52632463D01*
X127157192Y-52600327D01*
X127299838Y-52256799D01*
X127300162Y-51884833D01*
X127158117Y-51541057D01*
X126895327Y-51277808D01*
X126551799Y-51135162D01*
X126179833Y-51134838D01*
X125836057Y-51276883D01*
X125730046Y-51382710D01*
X125625327Y-51277808D01*
X125281799Y-51135162D01*
X124909833Y-51134838D01*
X119829833Y-51134838D01*
X119829833Y-51134838D01*
X113338396Y-51134838D01*
X113405000Y-50800000D01*
X113328118Y-50413490D01*
X113109178Y-50085822D01*
X112781510Y-49866882D01*
X112395000Y-49790000D01*
X105410000Y-49790000D01*
X99745000Y-49790000D01*
X99745000Y-30251400D01*
X101570641Y-30251400D01*
X100997152Y-30365474D01*
X100510971Y-30690330D01*
X100186115Y-31176511D01*
X100072041Y-31750000D01*
X100186115Y-32323489D01*
X100510971Y-32809670D01*
X100825752Y-33020000D01*
X100510971Y-33230330D01*
X100186115Y-33716511D01*
X100072041Y-34290000D01*
X100186115Y-34863489D01*
X100510971Y-35349670D01*
X100825752Y-35560000D01*
X100510971Y-35770330D01*
X100186115Y-36256511D01*
X100072041Y-36830000D01*
X100186115Y-37403489D01*
X100510971Y-37889670D01*
X100825752Y-38100000D01*
X100510971Y-38310330D01*
X100186115Y-38796511D01*
X100072041Y-39370000D01*
X100186115Y-39943489D01*
X100510971Y-40429670D01*
X100825752Y-40640000D01*
X100510971Y-40850330D01*
X100186115Y-41336511D01*
X100072041Y-41910000D01*
X100186115Y-42483489D01*
X100510971Y-42969670D01*
X100825752Y-43180000D01*
X100510971Y-43390330D01*
X100186115Y-43876511D01*
X100072041Y-44450000D01*
X100186115Y-45023489D01*
X100510971Y-45509670D01*
X100825752Y-45720000D01*
X100510971Y-45930330D01*
X100186115Y-46416511D01*
X100072041Y-46990000D01*
X100186115Y-47563489D01*
X100510971Y-48049670D01*
X100997152Y-48374526D01*
X101570641Y-48488600D01*
X101629359Y-48488600D01*
X102202848Y-48374526D01*
X102669530Y-48062699D01*
X102675937Y-48095723D01*
X102815727Y-48308527D01*
X103026760Y-48450977D01*
X103276400Y-48501040D01*
X105003600Y-48501040D01*
X105245723Y-48454063D01*
X105458527Y-48314273D01*
X105600977Y-48103240D01*
X105651040Y-47853600D01*
X105651040Y-46126400D01*
X105604063Y-45884277D01*
X105464273Y-45671473D01*
X105253240Y-45529023D01*
X105212340Y-45520821D01*
X105229029Y-45509670D01*
X105553885Y-45023489D01*
X105667959Y-44450000D01*
X105553885Y-43876511D01*
X105229029Y-43390330D01*
X104914248Y-43180000D01*
X105229029Y-42969670D01*
X105553885Y-42483489D01*
X105667959Y-41910000D01*
X105553885Y-41336511D01*
X105229029Y-40850330D01*
X104914248Y-40640000D01*
X105229029Y-40429670D01*
X105553885Y-39943489D01*
X105667959Y-39370000D01*
X105553885Y-38796511D01*
X105229029Y-38310330D01*
X104914248Y-38100000D01*
X105229029Y-37889670D01*
X105553885Y-37403489D01*
X105667959Y-36830000D01*
X105553885Y-36256511D01*
X105229029Y-35770330D01*
X104914248Y-35560000D01*
X105229029Y-35349670D01*
X105553885Y-34863489D01*
X105667959Y-34290000D01*
X105553885Y-33716511D01*
X105229029Y-33230330D01*
X104914248Y-33020000D01*
X105229029Y-32809670D01*
X105553885Y-32323489D01*
X105667959Y-31750000D01*
X105553885Y-31176511D01*
X105229029Y-30690330D01*
X105104317Y-30607000D01*
X118680531Y-30607000D01*
X118560032Y-30839027D01*
X118808179Y-31368490D01*
X119226161Y-31750008D01*
X118955330Y-31930971D01*
X118630474Y-32417152D01*
X118516400Y-32990641D01*
X118516400Y-33049359D01*
X118630474Y-33622848D01*
X118955330Y-34109029D01*
X119441511Y-34433885D01*
X120015000Y-34547959D01*
X120588489Y-34433885D01*
X121074670Y-34109029D01*
X121285000Y-33794248D01*
X121495330Y-34109029D01*
X121981511Y-34433885D01*
X122555000Y-34547959D01*
X123128489Y-34433885D01*
X123614670Y-34109029D01*
X123825000Y-33794248D01*
X124035330Y-34109029D01*
X124521511Y-34433885D01*
X125095000Y-34547959D01*
X125668489Y-34433885D01*
X126154670Y-34109029D01*
X126365000Y-33794248D01*
X126575330Y-34109029D01*
X127061511Y-34433885D01*
X127635000Y-34547959D01*
X128208489Y-34433885D01*
X128694670Y-34109029D01*
X128824316Y-33915000D01*
X133350000Y-33915000D01*
X132963490Y-33991882D01*
X132635822Y-34210822D01*
X132416882Y-34538490D01*
X132340000Y-34925000D01*
X132340000Y-40005000D01*
X132416882Y-40391510D01*
X132635822Y-40719178D01*
X132963490Y-40938118D01*
X133350000Y-41015000D01*
X133736510Y-40938118D01*
X134064178Y-40719178D01*
X134283118Y-40391510D01*
X134360000Y-40005000D01*
X134360000Y-34925000D01*
X134283118Y-34538490D01*
X134064178Y-34210822D01*
X133736510Y-33991882D01*
X133350000Y-33915000D01*
X128824316Y-33915000D01*
X129019526Y-33622848D01*
X129133600Y-33049359D01*
X129133600Y-32990641D01*
X129019526Y-32417152D01*
X128704474Y-31945644D01*
X128858299Y-31881927D01*
X129036927Y-31703298D01*
X129133600Y-31469909D01*
X129133600Y-30765750D01*
X128974850Y-30607000D01*
X127762000Y-30607000D01*
X127762000Y-30627000D01*
X127508000Y-30627000D01*
X127508000Y-30607000D01*
X125222000Y-30607000D01*
X125222000Y-30627000D01*
X124968000Y-30627000D01*
X124968000Y-30607000D01*
X122682000Y-30607000D01*
X122682000Y-30627000D01*
X122428000Y-30627000D01*
X122428000Y-30607000D01*
X120142000Y-30607000D01*
X120142000Y-30627000D01*
X119888000Y-30627000D01*
X119888000Y-30607000D01*
X118680531Y-30607000D01*
X105104317Y-30607000D01*
X104742848Y-30365474D01*
X104169359Y-30251400D01*
X104110641Y-30251400D01*
X103537152Y-30365474D01*
X103050971Y-30690330D01*
X102870000Y-30961172D01*
X102689029Y-30690330D01*
X102202848Y-30365474D01*
X101629359Y-30251400D01*
X101570641Y-30251400D01*
X99745000Y-30251400D01*
X99745000Y-29025042D01*
X119655974Y-29025042D01*
X119240053Y-29197312D01*
X118808179Y-29591510D01*
X118560032Y-30120973D01*
X118680531Y-30353000D01*
X119888000Y-30353000D01*
X119888000Y-29146183D01*
X119655974Y-29025042D01*
X120374026Y-29025042D01*
X120142000Y-29146183D01*
X120142000Y-30353000D01*
X122428000Y-30353000D01*
X122428000Y-29146183D01*
X122195974Y-29025042D01*
X122914026Y-29025042D01*
X122682000Y-29146183D01*
X122682000Y-30353000D01*
X124968000Y-30353000D01*
X124968000Y-29146183D01*
X124735974Y-29025042D01*
X124320053Y-29197312D01*
X123888179Y-29591510D01*
X123825000Y-29726313D01*
X123761821Y-29591510D01*
X123329947Y-29197312D01*
X122914026Y-29025042D01*
X122195974Y-29025042D01*
X122195974Y-29025042D01*
X121780053Y-29197312D01*
X121348179Y-29591510D01*
X121285000Y-29726313D01*
X121221821Y-29591510D01*
X120789947Y-29197312D01*
X120374026Y-29025042D01*
X119655974Y-29025042D01*
X119655974Y-29025042D01*
X99745000Y-29025042D01*
X99745000Y-28981400D01*
X126645090Y-28981400D01*
X126411701Y-29078073D01*
X126233073Y-29256702D01*
X126151300Y-29454120D01*
X125869947Y-29197312D01*
X125454026Y-29025042D01*
X125222000Y-29146183D01*
X125222000Y-30353000D01*
X127508000Y-30353000D01*
X127508000Y-29140150D01*
X127349250Y-28981400D01*
X127920750Y-28981400D01*
X127762000Y-29140150D01*
X127762000Y-30353000D01*
X128974850Y-30353000D01*
X129133600Y-30194250D01*
X129133600Y-29490091D01*
X129036927Y-29256702D01*
X128858299Y-29078073D01*
X128624910Y-28981400D01*
X127920750Y-28981400D01*
X127349250Y-28981400D01*
X127349250Y-28981400D01*
X126645090Y-28981400D01*
X99745000Y-28981400D01*
X99745000Y-28625000D01*
X135205000Y-28625000D01*
X135205000Y-112345000D01*
M02*
