M48
;DRILL file {KiCad 0.201506122246+5743~23~ubuntu14.04.1-product} date Mon 22 Jun 2015 14:25:27 BST
;FORMAT={-:-/ absolute / inch / decimal}
FMAT,2
INCH,TZ
T1C0.016
T2C0.040
%
G90
G05
M72
T1
X1.725Y-2.05
X1.775Y-1.9
X1.825Y-1.625
X1.9Y-1.9
X2.025Y-1.575
X2.2Y-2.15
T2
X1.55Y-2.25
X1.55Y-2.35
X1.65Y-2.25
X1.65Y-2.35
X1.75Y-2.25
X1.75Y-2.35
X1.85Y-2.25
X1.85Y-2.35
X1.95Y-2.25
X1.95Y-2.35
X2.05Y-2.25
X2.05Y-2.35
X2.15Y-2.25
X2.15Y-2.35
T0
M30
