<?xml version="1.0" standalone="no"?>
 <!DOCTYPE svg PUBLIC "-//W3C//DTD SVG 1.1//EN" 
 "http://www.w3.org/Graphics/SVG/1.1/DTD/svg11.dtd"> 
<svg xmlns="http://www.w3.org/2000/svg" version="1.1" 
    width="2.42062cm" height="3.05562cm" viewBox="0 0 9530 12030 ">
<title>SVG Picture created as InkjetBreakout-F.Mask.svg date 2015/11/16 14:47:58 </title>
  <desc>Picture generated by PCBNEW </desc>
<g style="fill:#000000; fill-opacity:1;stroke:#000000; stroke-opacity:1;
stroke-linecap:round; stroke-linejoin:round; "
 transform="translate(0 0) scale(1 1)">
</g>
<g style="fill:#000000; fill-opacity:0.0; 
stroke:#000000; stroke-width:-0.000393701; stroke-opacity:1; 
stroke-linecap:round; stroke-linejoin:round;">
</g>
<g style="fill:#000000; fill-opacity:0.0; 
stroke:#000000; stroke-width:0; stroke-opacity:1; 
stroke-linecap:round; stroke-linejoin:round;">
</g>
<g style="fill:#000000; fill-opacity:1.0; 
stroke:#000000; stroke-width:0; stroke-opacity:1; 
stroke-linecap:round; stroke-linejoin:round;">
<polyline style="fill-rule:evenodd;"
points="2359,10859
1679,10859
1679,10179
2359,10179
2359,10859
" /> 
</g>
<g style="fill:#000000; fill-opacity:1.0; 
stroke:#000000; stroke-width:680; stroke-opacity:1; 
stroke-linecap:round; stroke-linejoin:round;">
</g>
<g style="fill:#000000; fill-opacity:0.0; 
stroke:#000000; stroke-width:680; stroke-opacity:1; 
stroke-linecap:round; stroke-linejoin:round;">
<path d="M2019 9519
L2019 9519
" />
<path d="M3019 10519
L3019 10519
" />
<path d="M3019 9519
L3019 9519
" />
<path d="M4019 10519
L4019 10519
" />
<path d="M4019 9519
L4019 9519
" />
<path d="M5019 10519
L5019 10519
" />
<path d="M5019 9519
L5019 9519
" />
<path d="M6019 10519
L6019 10519
" />
<path d="M6019 9519
L6019 9519
" />
<path d="M7019 10519
L7019 10519
" />
<path d="M7019 9519
L7019 9519
" />
<path d="M8019 10519
L8019 10519
" />
<path d="M8019 9519
L8019 9519
" />
</g>
<g style="fill:#000000; fill-opacity:0.0; 
stroke:#000000; stroke-width:0; stroke-opacity:1; 
stroke-linecap:round; stroke-linejoin:round;">
</g>
<g style="fill:#000000; fill-opacity:1.0; 
stroke:#000000; stroke-width:0; stroke-opacity:1; 
stroke-linecap:round; stroke-linejoin:round;">
<polyline style="fill-rule:evenodd;"
points="3192,5019
3192,4724
4019,4724
4019,5019
3192,5019
" /> 
<polyline style="fill-rule:evenodd;"
points="3192,4468
3192,4173
4019,4173
4019,4468
3192,4468
" /> 
<polyline style="fill-rule:evenodd;"
points="3192,3917
3192,3622
4019,3622
4019,3917
3192,3917
" /> 
<polyline style="fill-rule:evenodd;"
points="3192,3366
3192,3070
4019,3070
4019,3366
3192,3366
" /> 
<polyline style="fill-rule:evenodd;"
points="3192,2814
3192,2519
4019,2519
4019,2814
3192,2814
" /> 
<polyline style="fill-rule:evenodd;"
points="3192,2185
3192,1889
4019,1889
4019,2185
3192,2185
" /> 
<polyline style="fill-rule:evenodd;"
points="5519,1712
5519,1417
6346,1417
6346,1712
5519,1712
" /> 
<polyline style="fill-rule:evenodd;"
points="5519,5019
5519,4724
6346,4724
6346,5019
5519,5019
" /> 
<polyline style="fill-rule:evenodd;"
points="5519,4468
5519,4173
6346,4173
6346,4468
5519,4468
" /> 
<polyline style="fill-rule:evenodd;"
points="5519,3917
5519,3622
6346,3622
6346,3917
5519,3917
" /> 
<polyline style="fill-rule:evenodd;"
points="5519,3366
5519,3070
6346,3070
6346,3366
5519,3366
" /> 
<polyline style="fill-rule:evenodd;"
points="5519,2814
5519,2519
6346,2519
6346,2814
5519,2814
" /> 
<polyline style="fill-rule:evenodd;"
points="5519,2263
5519,1968
6346,1968
6346,2263
5519,2263
" /> 
</g> 
</svg>
