G04 #@! TF.FileFunction,Copper,L1,Top,Signal*
%FSLAX46Y46*%
G04 Gerber Fmt 4.6, Leading zero omitted, Abs format (unit mm)*
G04 Created by KiCad (PCBNEW 0.201506122246+5743~23~ubuntu14.04.1-product) date Mon 22 Jun 2015 14:25:25 BST*
%MOMM*%
G01*
G04 APERTURE LIST*
%ADD10C,0.100000*%
%ADD11R,1.727200X1.727200*%
%ADD12O,1.727200X1.727200*%
%ADD13R,2.100000X0.750000*%
%ADD14C,0.600000*%
%ADD15C,0.250000*%
%ADD16C,0.254000*%
G04 APERTURE END LIST*
D10*
D11*
X39370000Y-59690000D03*
D12*
X39370000Y-57150000D03*
X41910000Y-59690000D03*
X41910000Y-57150000D03*
X44450000Y-59690000D03*
X44450000Y-57150000D03*
X46990000Y-59690000D03*
X46990000Y-57150000D03*
X49530000Y-59690000D03*
X49530000Y-57150000D03*
X52070000Y-59690000D03*
X52070000Y-57150000D03*
X54610000Y-59690000D03*
X54610000Y-57150000D03*
D13*
X43400000Y-45345000D03*
X43400000Y-43945000D03*
X43400000Y-42545000D03*
X43400000Y-41145000D03*
X43400000Y-39745000D03*
X43400000Y-38145000D03*
X49310000Y-36945000D03*
X49310000Y-45345000D03*
X49310000Y-43945000D03*
X49310000Y-42545000D03*
X49310000Y-41145000D03*
X49310000Y-39745000D03*
X49310000Y-38345000D03*
D14*
X46355000Y-41275000D03*
X45085000Y-48260000D03*
X43815000Y-52070000D03*
X55880000Y-54610000D03*
X48260000Y-48260000D03*
X51435000Y-40005000D03*
D15*
X43400000Y-41145000D02*
X43530000Y-41275000D01*
X46225000Y-41145000D02*
X43400000Y-41145000D01*
X46355000Y-41275000D02*
X46225000Y-41145000D01*
X43660000Y-40005000D02*
X43400000Y-39745000D01*
X40012502Y-53347502D02*
X40012502Y-41267498D01*
X40012502Y-41267498D02*
X40640000Y-40640000D01*
X41275000Y-40005000D02*
X41535000Y-39745000D01*
X41910000Y-55245000D02*
X40640000Y-53975000D01*
X40640000Y-40640000D02*
X41275000Y-40005000D01*
X41910000Y-55245000D02*
X41910000Y-57150000D01*
X43400000Y-39745000D02*
X41535000Y-39745000D01*
X40640000Y-53975000D02*
X40012502Y-53347502D01*
X43945000Y-43945000D02*
X43400000Y-43945000D01*
X44580000Y-43945000D02*
X43400000Y-43945000D01*
X45085000Y-44450000D02*
X45085000Y-45085000D01*
X45085000Y-48260000D02*
X45085000Y-45085000D01*
X45085000Y-44450000D02*
X44580000Y-43945000D01*
X42545000Y-42545000D02*
X43400000Y-42545000D01*
X43180000Y-55245000D02*
X40640000Y-52705000D01*
X40640000Y-52705000D02*
X40640000Y-43815000D01*
X41275000Y-43180000D02*
X40640000Y-43815000D01*
X41910000Y-42545000D02*
X43400000Y-42545000D01*
X44450000Y-56515000D02*
X44450000Y-56515000D01*
X41275000Y-43180000D02*
X41910000Y-42545000D01*
X44450000Y-56515000D02*
X43180000Y-55245000D01*
X44450000Y-57150000D02*
X44450000Y-56515000D01*
X49310000Y-50385000D02*
X49310000Y-45345000D01*
X43815000Y-52070000D02*
X47625000Y-52070000D01*
X47625000Y-52070000D02*
X49310000Y-50385000D01*
X46990000Y-57150000D02*
X46990000Y-57150000D01*
X45085000Y-55245000D02*
X44450000Y-55245000D01*
X41275000Y-52070000D02*
X44450000Y-55245000D01*
X42285000Y-45345000D02*
X43400000Y-45345000D01*
X41275000Y-52070000D02*
X41275000Y-46355000D01*
X41275000Y-46355000D02*
X42285000Y-45345000D01*
X46990000Y-57150000D02*
X45085000Y-55245000D01*
X49310000Y-42545000D02*
X48260000Y-42545000D01*
X55880000Y-54610000D02*
X57150000Y-55880000D01*
X57150000Y-55880000D02*
X57150000Y-60325000D01*
X57150000Y-60325000D02*
X55880000Y-61595000D01*
X55880000Y-61595000D02*
X50165000Y-61595000D01*
X50165000Y-61595000D02*
X49530000Y-60960000D01*
X49530000Y-60960000D02*
X49530000Y-59690000D01*
X47625000Y-47625000D02*
X48260000Y-48260000D01*
X47625000Y-43180000D02*
X47625000Y-47625000D01*
X48260000Y-42545000D02*
X47625000Y-43180000D01*
X50295000Y-43945000D02*
X49310000Y-43945000D01*
X50165000Y-56515000D02*
X51435000Y-55245000D01*
X51435000Y-55245000D02*
X51435000Y-45085000D01*
X51435000Y-45085000D02*
X50295000Y-43945000D01*
X49530000Y-57150000D02*
X50165000Y-56515000D01*
X51435000Y-40005000D02*
X51175000Y-39745000D01*
X51175000Y-39745000D02*
X49310000Y-39745000D01*
X52070000Y-54610000D02*
X52070000Y-53975000D01*
X52070000Y-53975000D02*
X52036671Y-42543246D01*
X52036671Y-42543246D02*
X50670000Y-41145000D01*
X50670000Y-41145000D02*
X49310000Y-41145000D01*
X52070000Y-57150000D02*
X52070000Y-54610000D01*
X56515000Y-56515000D02*
X56515000Y-57785000D01*
X53340000Y-54610000D02*
X53975000Y-55245000D01*
X51550000Y-36945000D02*
X53340000Y-38735000D01*
X53340000Y-38735000D02*
X53340000Y-54610000D01*
X51550000Y-36945000D02*
X49310000Y-36945000D01*
X53975000Y-55245000D02*
X55245000Y-55245000D01*
X54610000Y-59690000D02*
X55880000Y-59690000D01*
X56515000Y-59055000D02*
X55880000Y-59690000D01*
X56515000Y-57785000D02*
X56515000Y-59055000D01*
X55245000Y-55245000D02*
X56515000Y-56515000D01*
X51680000Y-38345000D02*
X49310000Y-38345000D01*
X54610000Y-57150000D02*
X52705000Y-55245000D01*
X52705000Y-39370000D02*
X52070000Y-38735000D01*
X52705000Y-40005000D02*
X52705000Y-39370000D01*
X52705000Y-42545000D02*
X52705000Y-40005000D01*
X52705000Y-53340000D02*
X52705000Y-42545000D01*
X52705000Y-55245000D02*
X52705000Y-53340000D01*
X52070000Y-38735000D02*
X51680000Y-38345000D01*
D16*
G36*
X56465000Y-34875000D02*
X56465000Y-34875000D01*
X54610000Y-34875000D01*
X54347862Y-34927143D01*
X54125632Y-35075632D01*
X53977143Y-35297862D01*
X53925000Y-35560000D01*
X53925000Y-38268836D01*
X53877401Y-38197599D01*
X52087401Y-36407599D01*
X51840839Y-36242852D01*
X51550000Y-36185000D01*
X50866608Y-36185000D01*
X50820673Y-36115073D01*
X50609640Y-35972623D01*
X50360000Y-35922560D01*
X48260000Y-35922560D01*
X48017877Y-35969537D01*
X47805073Y-36109327D01*
X47662623Y-36320360D01*
X47612560Y-36570000D01*
X47612560Y-37320000D01*
X47659537Y-37562123D01*
X47713739Y-37644635D01*
X47662623Y-37720360D01*
X47612560Y-37970000D01*
X47612560Y-38720000D01*
X47659537Y-38962123D01*
X47713739Y-39044635D01*
X47662623Y-39120360D01*
X47612560Y-39370000D01*
X47612560Y-40120000D01*
X47659537Y-40362123D01*
X47713739Y-40444635D01*
X47662623Y-40520360D01*
X47612560Y-40770000D01*
X47612560Y-41520000D01*
X47659537Y-41762123D01*
X47713739Y-41844635D01*
X47662623Y-41920360D01*
X47625695Y-42104503D01*
X47087599Y-42642599D01*
X46922852Y-42889161D01*
X46865000Y-43180000D01*
X46865000Y-47625000D01*
X46922852Y-47915839D01*
X47087599Y-48162401D01*
X47324878Y-48399680D01*
X47324838Y-48445167D01*
X47466883Y-48788943D01*
X47729673Y-49052192D01*
X48073201Y-49194838D01*
X48445167Y-49195162D01*
X48550000Y-49151846D01*
X48550000Y-50070198D01*
X47310198Y-51310000D01*
X44377463Y-51310000D01*
X44345327Y-51277808D01*
X44001799Y-51135162D01*
X43629833Y-51134838D01*
X43286057Y-51276883D01*
X43022808Y-51539673D01*
X42880162Y-51883201D01*
X42879838Y-52255167D01*
X43021883Y-52598943D01*
X43284673Y-52862192D01*
X43628201Y-53004838D01*
X44000167Y-53005162D01*
X44343943Y-52863117D01*
X44377118Y-52830000D01*
X47625000Y-52830000D01*
X47915839Y-52772148D01*
X48162401Y-52607401D01*
X49847401Y-50922401D01*
X50012148Y-50675839D01*
X50070000Y-50385000D01*
X50070000Y-46367440D01*
X50360000Y-46367440D01*
X50602123Y-46320463D01*
X50675000Y-46272590D01*
X50675000Y-54930198D01*
X49907973Y-55697225D01*
X49530000Y-55622041D01*
X48956511Y-55736115D01*
X48470330Y-56060971D01*
X48260000Y-56375752D01*
X48049670Y-56060971D01*
X47563489Y-55736115D01*
X46990000Y-55622041D01*
X46612027Y-55697225D01*
X45622401Y-54707599D01*
X45375839Y-54542852D01*
X45085000Y-54485000D01*
X44764802Y-54485000D01*
X42035000Y-51755198D01*
X42035000Y-46669802D01*
X42339473Y-46365329D01*
X42350000Y-46367440D01*
X44325000Y-46367440D01*
X44325000Y-47697537D01*
X44292808Y-47729673D01*
X44150162Y-48073201D01*
X44149838Y-48445167D01*
X44291883Y-48788943D01*
X44554673Y-49052192D01*
X44898201Y-49194838D01*
X45270167Y-49195162D01*
X45613943Y-49053117D01*
X45877192Y-48790327D01*
X46019838Y-48446799D01*
X46020162Y-48074833D01*
X45878117Y-47731057D01*
X45845000Y-47697882D01*
X45845000Y-44450000D01*
X45787148Y-44159161D01*
X45622401Y-43912599D01*
X45117401Y-43407599D01*
X45058264Y-43368085D01*
X45050463Y-43327877D01*
X44996261Y-43245365D01*
X45047377Y-43169640D01*
X45097440Y-42920000D01*
X45097440Y-42170000D01*
X45050463Y-41927877D01*
X45035435Y-41905000D01*
X45662764Y-41905000D01*
X45824673Y-42067192D01*
X46168201Y-42209838D01*
X46540167Y-42210162D01*
X46883943Y-42068117D01*
X47147192Y-41805327D01*
X47289838Y-41461799D01*
X47290162Y-41089833D01*
X47148117Y-40746057D01*
X46885327Y-40482808D01*
X46541799Y-40340162D01*
X46169833Y-40339838D01*
X46060532Y-40385000D01*
X45037009Y-40385000D01*
X45047377Y-40369640D01*
X45097440Y-40120000D01*
X45097440Y-39370000D01*
X45050463Y-39127877D01*
X44927435Y-38940590D01*
X44988327Y-38879699D01*
X45085000Y-38646310D01*
X45085000Y-38430750D01*
X44926250Y-38272000D01*
X43527000Y-38272000D01*
X43527000Y-38292000D01*
X43273000Y-38292000D01*
X43273000Y-38272000D01*
X41873750Y-38272000D01*
X41715000Y-38430750D01*
X41715000Y-38646310D01*
X41811673Y-38879699D01*
X41873404Y-38941429D01*
X41843993Y-38985000D01*
X41535000Y-38985000D01*
X41244161Y-39042852D01*
X40997599Y-39207599D01*
X39475101Y-40730097D01*
X39310354Y-40976659D01*
X39252502Y-41267498D01*
X39252502Y-53347502D01*
X39310354Y-53638341D01*
X39475101Y-53884903D01*
X41150000Y-55559802D01*
X41150000Y-55860738D01*
X40850330Y-56060971D01*
X40634336Y-56384228D01*
X40576821Y-56261510D01*
X40144947Y-55867312D01*
X39729026Y-55695042D01*
X39497000Y-55816183D01*
X39497000Y-57023000D01*
X39517000Y-57023000D01*
X39517000Y-57277000D01*
X39497000Y-57277000D01*
X39497000Y-57297000D01*
X39243000Y-57297000D01*
X39243000Y-57277000D01*
X38035531Y-57277000D01*
X37915032Y-57509027D01*
X38163179Y-58038490D01*
X38350264Y-58209254D01*
X38264277Y-58225937D01*
X38051473Y-58365727D01*
X37909023Y-58576760D01*
X37858960Y-58826400D01*
X37858960Y-60553600D01*
X37905937Y-60795723D01*
X38045727Y-61008527D01*
X38256760Y-61150977D01*
X38506400Y-61201040D01*
X40233600Y-61201040D01*
X40475723Y-61154063D01*
X40688527Y-61014273D01*
X40830977Y-60803240D01*
X40839179Y-60762340D01*
X40850330Y-60779029D01*
X41336511Y-61103885D01*
X41910000Y-61217959D01*
X42483489Y-61103885D01*
X42969670Y-60779029D01*
X43180000Y-60464248D01*
X43390330Y-60779029D01*
X43876511Y-61103885D01*
X44450000Y-61217959D01*
X45023489Y-61103885D01*
X45509670Y-60779029D01*
X45720000Y-60464248D01*
X45930330Y-60779029D01*
X46416511Y-61103885D01*
X46990000Y-61217959D01*
X47563489Y-61103885D01*
X48049670Y-60779029D01*
X48260000Y-60464248D01*
X48470330Y-60779029D01*
X48774419Y-60982215D01*
X48827852Y-61250839D01*
X48992599Y-61497401D01*
X49627599Y-62132401D01*
X49874161Y-62297148D01*
X50165000Y-62355000D01*
X55880000Y-62355000D01*
X56170839Y-62297148D01*
X56417401Y-62132401D01*
X57687401Y-60862401D01*
X57735000Y-60791164D01*
X57735000Y-62815000D01*
X34975000Y-62815000D01*
X34975000Y-55695042D01*
X39010974Y-55695042D01*
X38595053Y-55867312D01*
X38163179Y-56261510D01*
X37915032Y-56790973D01*
X38035531Y-57023000D01*
X39243000Y-57023000D01*
X39243000Y-55816183D01*
X39010974Y-55695042D01*
X34975000Y-55695042D01*
X34975000Y-52755000D01*
X38100000Y-52755000D01*
X38362138Y-52702857D01*
X38584368Y-52554368D01*
X38732857Y-52332138D01*
X38785000Y-52070000D01*
X38785000Y-37135000D01*
X42223691Y-37135000D01*
X41990302Y-37231673D01*
X41811673Y-37410301D01*
X41715000Y-37643690D01*
X41715000Y-37859250D01*
X41873750Y-38018000D01*
X43273000Y-38018000D01*
X43273000Y-37293750D01*
X43114250Y-37135000D01*
X43685750Y-37135000D01*
X43527000Y-37293750D01*
X43527000Y-38018000D01*
X44926250Y-38018000D01*
X45085000Y-37859250D01*
X45085000Y-37643690D01*
X44988327Y-37410301D01*
X44809698Y-37231673D01*
X44576309Y-37135000D01*
X43685750Y-37135000D01*
X43114250Y-37135000D01*
X43114250Y-37135000D01*
X42223691Y-37135000D01*
X38785000Y-37135000D01*
X38785000Y-35560000D01*
X38732857Y-35297862D01*
X38584368Y-35075632D01*
X38362138Y-34927143D01*
X38100000Y-34875000D01*
X36245000Y-34875000D01*
X36245000Y-33705000D01*
X56465000Y-33705000D01*
X56465000Y-34875000D01*
X56465000Y-34875000D01*
G37*
X56465000Y-34875000D02*
X56465000Y-34875000D01*
X54610000Y-34875000D01*
X54347862Y-34927143D01*
X54125632Y-35075632D01*
X53977143Y-35297862D01*
X53925000Y-35560000D01*
X53925000Y-38268836D01*
X53877401Y-38197599D01*
X52087401Y-36407599D01*
X51840839Y-36242852D01*
X51550000Y-36185000D01*
X50866608Y-36185000D01*
X50820673Y-36115073D01*
X50609640Y-35972623D01*
X50360000Y-35922560D01*
X48260000Y-35922560D01*
X48017877Y-35969537D01*
X47805073Y-36109327D01*
X47662623Y-36320360D01*
X47612560Y-36570000D01*
X47612560Y-37320000D01*
X47659537Y-37562123D01*
X47713739Y-37644635D01*
X47662623Y-37720360D01*
X47612560Y-37970000D01*
X47612560Y-38720000D01*
X47659537Y-38962123D01*
X47713739Y-39044635D01*
X47662623Y-39120360D01*
X47612560Y-39370000D01*
X47612560Y-40120000D01*
X47659537Y-40362123D01*
X47713739Y-40444635D01*
X47662623Y-40520360D01*
X47612560Y-40770000D01*
X47612560Y-41520000D01*
X47659537Y-41762123D01*
X47713739Y-41844635D01*
X47662623Y-41920360D01*
X47625695Y-42104503D01*
X47087599Y-42642599D01*
X46922852Y-42889161D01*
X46865000Y-43180000D01*
X46865000Y-47625000D01*
X46922852Y-47915839D01*
X47087599Y-48162401D01*
X47324878Y-48399680D01*
X47324838Y-48445167D01*
X47466883Y-48788943D01*
X47729673Y-49052192D01*
X48073201Y-49194838D01*
X48445167Y-49195162D01*
X48550000Y-49151846D01*
X48550000Y-50070198D01*
X47310198Y-51310000D01*
X44377463Y-51310000D01*
X44345327Y-51277808D01*
X44001799Y-51135162D01*
X43629833Y-51134838D01*
X43286057Y-51276883D01*
X43022808Y-51539673D01*
X42880162Y-51883201D01*
X42879838Y-52255167D01*
X43021883Y-52598943D01*
X43284673Y-52862192D01*
X43628201Y-53004838D01*
X44000167Y-53005162D01*
X44343943Y-52863117D01*
X44377118Y-52830000D01*
X47625000Y-52830000D01*
X47915839Y-52772148D01*
X48162401Y-52607401D01*
X49847401Y-50922401D01*
X50012148Y-50675839D01*
X50070000Y-50385000D01*
X50070000Y-46367440D01*
X50360000Y-46367440D01*
X50602123Y-46320463D01*
X50675000Y-46272590D01*
X50675000Y-54930198D01*
X49907973Y-55697225D01*
X49530000Y-55622041D01*
X48956511Y-55736115D01*
X48470330Y-56060971D01*
X48260000Y-56375752D01*
X48049670Y-56060971D01*
X47563489Y-55736115D01*
X46990000Y-55622041D01*
X46612027Y-55697225D01*
X45622401Y-54707599D01*
X45375839Y-54542852D01*
X45085000Y-54485000D01*
X44764802Y-54485000D01*
X42035000Y-51755198D01*
X42035000Y-46669802D01*
X42339473Y-46365329D01*
X42350000Y-46367440D01*
X44325000Y-46367440D01*
X44325000Y-47697537D01*
X44292808Y-47729673D01*
X44150162Y-48073201D01*
X44149838Y-48445167D01*
X44291883Y-48788943D01*
X44554673Y-49052192D01*
X44898201Y-49194838D01*
X45270167Y-49195162D01*
X45613943Y-49053117D01*
X45877192Y-48790327D01*
X46019838Y-48446799D01*
X46020162Y-48074833D01*
X45878117Y-47731057D01*
X45845000Y-47697882D01*
X45845000Y-44450000D01*
X45787148Y-44159161D01*
X45622401Y-43912599D01*
X45117401Y-43407599D01*
X45058264Y-43368085D01*
X45050463Y-43327877D01*
X44996261Y-43245365D01*
X45047377Y-43169640D01*
X45097440Y-42920000D01*
X45097440Y-42170000D01*
X45050463Y-41927877D01*
X45035435Y-41905000D01*
X45662764Y-41905000D01*
X45824673Y-42067192D01*
X46168201Y-42209838D01*
X46540167Y-42210162D01*
X46883943Y-42068117D01*
X47147192Y-41805327D01*
X47289838Y-41461799D01*
X47290162Y-41089833D01*
X47148117Y-40746057D01*
X46885327Y-40482808D01*
X46541799Y-40340162D01*
X46169833Y-40339838D01*
X46060532Y-40385000D01*
X45037009Y-40385000D01*
X45047377Y-40369640D01*
X45097440Y-40120000D01*
X45097440Y-39370000D01*
X45050463Y-39127877D01*
X44927435Y-38940590D01*
X44988327Y-38879699D01*
X45085000Y-38646310D01*
X45085000Y-38430750D01*
X44926250Y-38272000D01*
X43527000Y-38272000D01*
X43527000Y-38292000D01*
X43273000Y-38292000D01*
X43273000Y-38272000D01*
X41873750Y-38272000D01*
X41715000Y-38430750D01*
X41715000Y-38646310D01*
X41811673Y-38879699D01*
X41873404Y-38941429D01*
X41843993Y-38985000D01*
X41535000Y-38985000D01*
X41244161Y-39042852D01*
X40997599Y-39207599D01*
X39475101Y-40730097D01*
X39310354Y-40976659D01*
X39252502Y-41267498D01*
X39252502Y-53347502D01*
X39310354Y-53638341D01*
X39475101Y-53884903D01*
X41150000Y-55559802D01*
X41150000Y-55860738D01*
X40850330Y-56060971D01*
X40634336Y-56384228D01*
X40576821Y-56261510D01*
X40144947Y-55867312D01*
X39729026Y-55695042D01*
X39497000Y-55816183D01*
X39497000Y-57023000D01*
X39517000Y-57023000D01*
X39517000Y-57277000D01*
X39497000Y-57277000D01*
X39497000Y-57297000D01*
X39243000Y-57297000D01*
X39243000Y-57277000D01*
X38035531Y-57277000D01*
X37915032Y-57509027D01*
X38163179Y-58038490D01*
X38350264Y-58209254D01*
X38264277Y-58225937D01*
X38051473Y-58365727D01*
X37909023Y-58576760D01*
X37858960Y-58826400D01*
X37858960Y-60553600D01*
X37905937Y-60795723D01*
X38045727Y-61008527D01*
X38256760Y-61150977D01*
X38506400Y-61201040D01*
X40233600Y-61201040D01*
X40475723Y-61154063D01*
X40688527Y-61014273D01*
X40830977Y-60803240D01*
X40839179Y-60762340D01*
X40850330Y-60779029D01*
X41336511Y-61103885D01*
X41910000Y-61217959D01*
X42483489Y-61103885D01*
X42969670Y-60779029D01*
X43180000Y-60464248D01*
X43390330Y-60779029D01*
X43876511Y-61103885D01*
X44450000Y-61217959D01*
X45023489Y-61103885D01*
X45509670Y-60779029D01*
X45720000Y-60464248D01*
X45930330Y-60779029D01*
X46416511Y-61103885D01*
X46990000Y-61217959D01*
X47563489Y-61103885D01*
X48049670Y-60779029D01*
X48260000Y-60464248D01*
X48470330Y-60779029D01*
X48774419Y-60982215D01*
X48827852Y-61250839D01*
X48992599Y-61497401D01*
X49627599Y-62132401D01*
X49874161Y-62297148D01*
X50165000Y-62355000D01*
X55880000Y-62355000D01*
X56170839Y-62297148D01*
X56417401Y-62132401D01*
X57687401Y-60862401D01*
X57735000Y-60791164D01*
X57735000Y-62815000D01*
X34975000Y-62815000D01*
X34975000Y-55695042D01*
X39010974Y-55695042D01*
X38595053Y-55867312D01*
X38163179Y-56261510D01*
X37915032Y-56790973D01*
X38035531Y-57023000D01*
X39243000Y-57023000D01*
X39243000Y-55816183D01*
X39010974Y-55695042D01*
X34975000Y-55695042D01*
X34975000Y-52755000D01*
X38100000Y-52755000D01*
X38362138Y-52702857D01*
X38584368Y-52554368D01*
X38732857Y-52332138D01*
X38785000Y-52070000D01*
X38785000Y-37135000D01*
X42223691Y-37135000D01*
X41990302Y-37231673D01*
X41811673Y-37410301D01*
X41715000Y-37643690D01*
X41715000Y-37859250D01*
X41873750Y-38018000D01*
X43273000Y-38018000D01*
X43273000Y-37293750D01*
X43114250Y-37135000D01*
X43685750Y-37135000D01*
X43527000Y-37293750D01*
X43527000Y-38018000D01*
X44926250Y-38018000D01*
X45085000Y-37859250D01*
X45085000Y-37643690D01*
X44988327Y-37410301D01*
X44809698Y-37231673D01*
X44576309Y-37135000D01*
X43685750Y-37135000D01*
X43114250Y-37135000D01*
X43114250Y-37135000D01*
X42223691Y-37135000D01*
X38785000Y-37135000D01*
X38785000Y-35560000D01*
X38732857Y-35297862D01*
X38584368Y-35075632D01*
X38362138Y-34927143D01*
X38100000Y-34875000D01*
X36245000Y-34875000D01*
X36245000Y-33705000D01*
X56465000Y-33705000D01*
X56465000Y-34875000D01*
M02*
