G04 #@! TF.FileFunction,Copper,L2,Bot,Signal*
%FSLAX46Y46*%
G04 Gerber Fmt 4.6, Leading zero omitted, Abs format (unit mm)*
G04 Created by KiCad (PCBNEW 0.201506122246+5743~23~ubuntu14.04.1-product) date Mon 22 Jun 2015 14:25:25 BST*
%MOMM*%
G01*
G04 APERTURE LIST*
%ADD10C,0.100000*%
%ADD11R,1.727200X1.727200*%
%ADD12O,1.727200X1.727200*%
%ADD13C,0.600000*%
%ADD14C,0.250000*%
%ADD15C,0.254000*%
G04 APERTURE END LIST*
D10*
D11*
X39370000Y-59690000D03*
D12*
X39370000Y-57150000D03*
X41910000Y-59690000D03*
X41910000Y-57150000D03*
X44450000Y-59690000D03*
X44450000Y-57150000D03*
X46990000Y-59690000D03*
X46990000Y-57150000D03*
X49530000Y-59690000D03*
X49530000Y-57150000D03*
X52070000Y-59690000D03*
X52070000Y-57150000D03*
X54610000Y-59690000D03*
X54610000Y-57150000D03*
D13*
X46355000Y-41275000D03*
X45085000Y-48260000D03*
X43815000Y-52070000D03*
X55880000Y-54610000D03*
X48260000Y-48260000D03*
X51435000Y-40005000D03*
D14*
X45720000Y-54610000D02*
X46355000Y-53975000D01*
X43815000Y-54610000D02*
X45720000Y-54610000D01*
X41910000Y-59690000D02*
X41910000Y-60960000D01*
X36830000Y-56515000D02*
X38735000Y-54610000D01*
X36830000Y-60960000D02*
X36830000Y-56515000D01*
X37465000Y-61595000D02*
X36830000Y-60960000D01*
X38100000Y-61595000D02*
X37465000Y-61595000D01*
X41275000Y-61595000D02*
X38100000Y-61595000D01*
X41910000Y-60960000D02*
X41275000Y-61595000D01*
X38735000Y-54610000D02*
X43815000Y-54610000D01*
X46355000Y-53975000D02*
X46355000Y-41275000D01*
X45085000Y-53340000D02*
X45085000Y-48260000D01*
X36195000Y-55880000D02*
X38100000Y-53975000D01*
X44450000Y-60960000D02*
X43180000Y-62230000D01*
X43180000Y-62230000D02*
X37465000Y-62230000D01*
X37465000Y-62230000D02*
X36830000Y-62230000D01*
X36830000Y-62230000D02*
X36195000Y-61595000D01*
X36195000Y-61595000D02*
X36195000Y-55880000D01*
X44450000Y-59690000D02*
X44450000Y-60960000D01*
X42995002Y-53975000D02*
X44450000Y-53975000D01*
X38100000Y-53975000D02*
X42995002Y-53975000D01*
X44450000Y-53975000D02*
X45085000Y-53340000D01*
X42545000Y-53340000D02*
X37465000Y-53340000D01*
X46990000Y-59690000D02*
X46990000Y-60960000D01*
X35560000Y-62230000D02*
X35560000Y-55245000D01*
X36195000Y-62865000D02*
X35560000Y-62230000D01*
X36830000Y-62865000D02*
X36195000Y-62865000D01*
X45085000Y-62865000D02*
X36830000Y-62865000D01*
X46990000Y-60960000D02*
X45085000Y-62865000D01*
X35560000Y-55245000D02*
X37465000Y-53340000D01*
X43815000Y-52070000D02*
X42545000Y-53340000D01*
X55245000Y-54610000D02*
X48895000Y-54610000D01*
X48260000Y-48260000D02*
X48260000Y-53975000D01*
X48895000Y-54610000D02*
X48260000Y-53975000D01*
X55245000Y-54610000D02*
X55880000Y-54610000D01*
X57150000Y-60325000D02*
X57150000Y-53975000D01*
X57150000Y-53975000D02*
X56515000Y-53340000D01*
X56515000Y-53340000D02*
X55880000Y-53340000D01*
X53340000Y-52070000D02*
X54610000Y-53340000D01*
X52070000Y-60960000D02*
X52705000Y-61595000D01*
X52705000Y-61595000D02*
X55880000Y-61595000D01*
X55880000Y-61595000D02*
X57150000Y-60325000D01*
X53340000Y-52070000D02*
X53340000Y-41910000D01*
X53340000Y-41910000D02*
X51435000Y-40005000D01*
X52070000Y-59690000D02*
X52070000Y-60960000D01*
X54610000Y-53340000D02*
X55880000Y-53340000D01*
X57150000Y-60325000D02*
X57150000Y-60325000D01*
D15*
G36*
X56465000Y-34875000D02*
X56465000Y-34875000D01*
X54610000Y-34875000D01*
X54347862Y-34927143D01*
X54125632Y-35075632D01*
X53977143Y-35297862D01*
X53925000Y-35560000D01*
X53925000Y-41443836D01*
X53877401Y-41372599D01*
X52370122Y-39865320D01*
X52370162Y-39819833D01*
X52228117Y-39476057D01*
X51965327Y-39212808D01*
X51621799Y-39070162D01*
X51249833Y-39069838D01*
X50906057Y-39211883D01*
X50642808Y-39474673D01*
X50500162Y-39818201D01*
X50499838Y-40190167D01*
X50641883Y-40533943D01*
X50904673Y-40797192D01*
X51248201Y-40939838D01*
X51295077Y-40939879D01*
X52580000Y-42224802D01*
X52580000Y-52070000D01*
X52637852Y-52360839D01*
X52802599Y-52607401D01*
X54045198Y-53850000D01*
X49209802Y-53850000D01*
X49020000Y-53660198D01*
X49020000Y-48822463D01*
X49052192Y-48790327D01*
X49194838Y-48446799D01*
X49195162Y-48074833D01*
X49053117Y-47731057D01*
X48790327Y-47467808D01*
X48446799Y-47325162D01*
X48074833Y-47324838D01*
X47731057Y-47466883D01*
X47467808Y-47729673D01*
X47325162Y-48073201D01*
X47324838Y-48445167D01*
X47466883Y-48788943D01*
X47500000Y-48822118D01*
X47500000Y-53975000D01*
X47557852Y-54265839D01*
X47722599Y-54512401D01*
X48357599Y-55147401D01*
X48604161Y-55312148D01*
X48895000Y-55370000D01*
X55317537Y-55370000D01*
X55349673Y-55402192D01*
X55693201Y-55544838D01*
X56065167Y-55545162D01*
X56390000Y-55410944D01*
X56390000Y-60010198D01*
X55767335Y-60632863D01*
X55994526Y-60292848D01*
X56108600Y-59719359D01*
X56108600Y-59660641D01*
X55994526Y-59087152D01*
X55669670Y-58600971D01*
X55398828Y-58420000D01*
X55669670Y-58239029D01*
X55994526Y-57752848D01*
X56108600Y-57179359D01*
X56108600Y-57120641D01*
X55994526Y-56547152D01*
X55669670Y-56060971D01*
X55183489Y-55736115D01*
X54610000Y-55622041D01*
X54036511Y-55736115D01*
X53550330Y-56060971D01*
X53340000Y-56375752D01*
X53129670Y-56060971D01*
X52643489Y-55736115D01*
X52070000Y-55622041D01*
X51496511Y-55736115D01*
X51010330Y-56060971D01*
X50800000Y-56375752D01*
X50589670Y-56060971D01*
X50103489Y-55736115D01*
X49530000Y-55622041D01*
X48956511Y-55736115D01*
X48470330Y-56060971D01*
X48260000Y-56375752D01*
X48049670Y-56060971D01*
X47563489Y-55736115D01*
X46990000Y-55622041D01*
X46416511Y-55736115D01*
X45930330Y-56060971D01*
X45720000Y-56375752D01*
X45509670Y-56060971D01*
X45023489Y-55736115D01*
X44450000Y-55622041D01*
X43876511Y-55736115D01*
X43390330Y-56060971D01*
X43180000Y-56375752D01*
X42969670Y-56060971D01*
X42483489Y-55736115D01*
X41910000Y-55622041D01*
X41336511Y-55736115D01*
X40850330Y-56060971D01*
X40634336Y-56384228D01*
X40576821Y-56261510D01*
X40144947Y-55867312D01*
X39729026Y-55695042D01*
X39497000Y-55816183D01*
X39497000Y-57023000D01*
X39517000Y-57023000D01*
X39517000Y-57277000D01*
X39497000Y-57277000D01*
X39497000Y-57297000D01*
X39243000Y-57297000D01*
X39243000Y-57277000D01*
X38035531Y-57277000D01*
X37915032Y-57509027D01*
X38163179Y-58038490D01*
X38350264Y-58209254D01*
X38264277Y-58225937D01*
X38051473Y-58365727D01*
X37909023Y-58576760D01*
X37858960Y-58826400D01*
X37858960Y-60553600D01*
X37905937Y-60795723D01*
X37931738Y-60835000D01*
X37779802Y-60835000D01*
X37590000Y-60645198D01*
X37590000Y-56829802D01*
X38724760Y-55695042D01*
X39010974Y-55695042D01*
X38595053Y-55867312D01*
X38163179Y-56261510D01*
X37915032Y-56790973D01*
X38035531Y-57023000D01*
X39243000Y-57023000D01*
X39243000Y-55816183D01*
X39010974Y-55695042D01*
X38724760Y-55695042D01*
X39049802Y-55370000D01*
X45720000Y-55370000D01*
X46010839Y-55312148D01*
X46257401Y-55147401D01*
X46892401Y-54512401D01*
X47057148Y-54265839D01*
X47115000Y-53975000D01*
X47115000Y-41837463D01*
X47147192Y-41805327D01*
X47289838Y-41461799D01*
X47290162Y-41089833D01*
X47148117Y-40746057D01*
X46885327Y-40482808D01*
X46541799Y-40340162D01*
X46169833Y-40339838D01*
X45826057Y-40481883D01*
X45562808Y-40744673D01*
X45420162Y-41088201D01*
X45419838Y-41460167D01*
X45561883Y-41803943D01*
X45595000Y-41837118D01*
X45595000Y-47459367D01*
X45271799Y-47325162D01*
X44899833Y-47324838D01*
X44556057Y-47466883D01*
X44292808Y-47729673D01*
X44150162Y-48073201D01*
X44149838Y-48445167D01*
X44291883Y-48788943D01*
X44325000Y-48822118D01*
X44325000Y-51269367D01*
X44001799Y-51135162D01*
X43629833Y-51134838D01*
X43286057Y-51276883D01*
X43022808Y-51539673D01*
X42880162Y-51883201D01*
X42880121Y-51930077D01*
X42230198Y-52580000D01*
X38546007Y-52580000D01*
X38584368Y-52554368D01*
X38732857Y-52332138D01*
X38785000Y-52070000D01*
X38785000Y-35560000D01*
X38732857Y-35297862D01*
X38584368Y-35075632D01*
X38362138Y-34927143D01*
X38100000Y-34875000D01*
X36245000Y-34875000D01*
X36245000Y-33705000D01*
X56465000Y-33705000D01*
X56465000Y-34875000D01*
X56465000Y-34875000D01*
G37*
X56465000Y-34875000D02*
X56465000Y-34875000D01*
X54610000Y-34875000D01*
X54347862Y-34927143D01*
X54125632Y-35075632D01*
X53977143Y-35297862D01*
X53925000Y-35560000D01*
X53925000Y-41443836D01*
X53877401Y-41372599D01*
X52370122Y-39865320D01*
X52370162Y-39819833D01*
X52228117Y-39476057D01*
X51965327Y-39212808D01*
X51621799Y-39070162D01*
X51249833Y-39069838D01*
X50906057Y-39211883D01*
X50642808Y-39474673D01*
X50500162Y-39818201D01*
X50499838Y-40190167D01*
X50641883Y-40533943D01*
X50904673Y-40797192D01*
X51248201Y-40939838D01*
X51295077Y-40939879D01*
X52580000Y-42224802D01*
X52580000Y-52070000D01*
X52637852Y-52360839D01*
X52802599Y-52607401D01*
X54045198Y-53850000D01*
X49209802Y-53850000D01*
X49020000Y-53660198D01*
X49020000Y-48822463D01*
X49052192Y-48790327D01*
X49194838Y-48446799D01*
X49195162Y-48074833D01*
X49053117Y-47731057D01*
X48790327Y-47467808D01*
X48446799Y-47325162D01*
X48074833Y-47324838D01*
X47731057Y-47466883D01*
X47467808Y-47729673D01*
X47325162Y-48073201D01*
X47324838Y-48445167D01*
X47466883Y-48788943D01*
X47500000Y-48822118D01*
X47500000Y-53975000D01*
X47557852Y-54265839D01*
X47722599Y-54512401D01*
X48357599Y-55147401D01*
X48604161Y-55312148D01*
X48895000Y-55370000D01*
X55317537Y-55370000D01*
X55349673Y-55402192D01*
X55693201Y-55544838D01*
X56065167Y-55545162D01*
X56390000Y-55410944D01*
X56390000Y-60010198D01*
X55767335Y-60632863D01*
X55994526Y-60292848D01*
X56108600Y-59719359D01*
X56108600Y-59660641D01*
X55994526Y-59087152D01*
X55669670Y-58600971D01*
X55398828Y-58420000D01*
X55669670Y-58239029D01*
X55994526Y-57752848D01*
X56108600Y-57179359D01*
X56108600Y-57120641D01*
X55994526Y-56547152D01*
X55669670Y-56060971D01*
X55183489Y-55736115D01*
X54610000Y-55622041D01*
X54036511Y-55736115D01*
X53550330Y-56060971D01*
X53340000Y-56375752D01*
X53129670Y-56060971D01*
X52643489Y-55736115D01*
X52070000Y-55622041D01*
X51496511Y-55736115D01*
X51010330Y-56060971D01*
X50800000Y-56375752D01*
X50589670Y-56060971D01*
X50103489Y-55736115D01*
X49530000Y-55622041D01*
X48956511Y-55736115D01*
X48470330Y-56060971D01*
X48260000Y-56375752D01*
X48049670Y-56060971D01*
X47563489Y-55736115D01*
X46990000Y-55622041D01*
X46416511Y-55736115D01*
X45930330Y-56060971D01*
X45720000Y-56375752D01*
X45509670Y-56060971D01*
X45023489Y-55736115D01*
X44450000Y-55622041D01*
X43876511Y-55736115D01*
X43390330Y-56060971D01*
X43180000Y-56375752D01*
X42969670Y-56060971D01*
X42483489Y-55736115D01*
X41910000Y-55622041D01*
X41336511Y-55736115D01*
X40850330Y-56060971D01*
X40634336Y-56384228D01*
X40576821Y-56261510D01*
X40144947Y-55867312D01*
X39729026Y-55695042D01*
X39497000Y-55816183D01*
X39497000Y-57023000D01*
X39517000Y-57023000D01*
X39517000Y-57277000D01*
X39497000Y-57277000D01*
X39497000Y-57297000D01*
X39243000Y-57297000D01*
X39243000Y-57277000D01*
X38035531Y-57277000D01*
X37915032Y-57509027D01*
X38163179Y-58038490D01*
X38350264Y-58209254D01*
X38264277Y-58225937D01*
X38051473Y-58365727D01*
X37909023Y-58576760D01*
X37858960Y-58826400D01*
X37858960Y-60553600D01*
X37905937Y-60795723D01*
X37931738Y-60835000D01*
X37779802Y-60835000D01*
X37590000Y-60645198D01*
X37590000Y-56829802D01*
X38724760Y-55695042D01*
X39010974Y-55695042D01*
X38595053Y-55867312D01*
X38163179Y-56261510D01*
X37915032Y-56790973D01*
X38035531Y-57023000D01*
X39243000Y-57023000D01*
X39243000Y-55816183D01*
X39010974Y-55695042D01*
X38724760Y-55695042D01*
X39049802Y-55370000D01*
X45720000Y-55370000D01*
X46010839Y-55312148D01*
X46257401Y-55147401D01*
X46892401Y-54512401D01*
X47057148Y-54265839D01*
X47115000Y-53975000D01*
X47115000Y-41837463D01*
X47147192Y-41805327D01*
X47289838Y-41461799D01*
X47290162Y-41089833D01*
X47148117Y-40746057D01*
X46885327Y-40482808D01*
X46541799Y-40340162D01*
X46169833Y-40339838D01*
X45826057Y-40481883D01*
X45562808Y-40744673D01*
X45420162Y-41088201D01*
X45419838Y-41460167D01*
X45561883Y-41803943D01*
X45595000Y-41837118D01*
X45595000Y-47459367D01*
X45271799Y-47325162D01*
X44899833Y-47324838D01*
X44556057Y-47466883D01*
X44292808Y-47729673D01*
X44150162Y-48073201D01*
X44149838Y-48445167D01*
X44291883Y-48788943D01*
X44325000Y-48822118D01*
X44325000Y-51269367D01*
X44001799Y-51135162D01*
X43629833Y-51134838D01*
X43286057Y-51276883D01*
X43022808Y-51539673D01*
X42880162Y-51883201D01*
X42880121Y-51930077D01*
X42230198Y-52580000D01*
X38546007Y-52580000D01*
X38584368Y-52554368D01*
X38732857Y-52332138D01*
X38785000Y-52070000D01*
X38785000Y-35560000D01*
X38732857Y-35297862D01*
X38584368Y-35075632D01*
X38362138Y-34927143D01*
X38100000Y-34875000D01*
X36245000Y-34875000D01*
X36245000Y-33705000D01*
X56465000Y-33705000D01*
X56465000Y-34875000D01*
M02*
