999
dxflib 2.2.0.0
  0
SECTION
  2
HEADER
  9
$ACADVER
  1
AC1015
  9
$HANDSEED
  5
FFFF
  9
$DIMASZ
 40
2.5
  9
$PLIMMIN
 10
0.0
 20
0.0
  9
$DIMEXE
 40
1.25
  9
$DIMGAP
 40
0.625
  9
$PLIMMAX
 10
210.0
 20
297.0
  9
$INSUNITS
 70
4
  9
$DIMEXO
 40
0.625
  9
$DIMTXT
 40
2.5
  0
ENDSEC
  0
SECTION
  2
TABLES
  0
TABLE
  2
VPORT
  5
8
100
AcDbSymbolTable
 70
1
  0
VPORT
  5
30
100
AcDbSymbolTableRecord
100
AcDbViewportTableRecord
  2
*Active
 70
0
 10
0.0
 20
0.0
 11
1.0
 21
1.0
 12
286.3055555555554861
 22
148.5
 13
0.0
 23
0.0
 14
10.0
 24
10.0
 15
10.0
 25
10.0
 16
0.0
 26
0.0
 36
1.0
 17
0.0
 27
0.0
 37
0.0
 40
297.0
 41
1.92798353909465
 42
50.0
 43
0.0
 44
0.0
 50
0.0
 51
0.0
 71
0
 72
100
 73
1
 74
3
 75
1
 76
1
 77
0
 78
0
281
0
 65
1
110
0.0
120
0.0
130
0.0
111
1.0
121
0.0
131
0.0
112
0.0
122
1.0
132
0.0
 79
0
146
0.0
  0
ENDTAB
  0
TABLE
  2
LTYPE
  5
5
100
AcDbSymbolTable
 70
21
  0
LTYPE
  5
14
100
AcDbSymbolTableRecord
100
AcDbLinetypeTableRecord
  2
ByBlock
 70
0
  3

 72
65
 73
0
 40
0.0
  0
LTYPE
  5
15
100
AcDbSymbolTableRecord
100
AcDbLinetypeTableRecord
  2
ByLayer
 70
0
  3

 72
65
 73
0
 40
0.0
  0
LTYPE
  5
16
100
AcDbSymbolTableRecord
100
AcDbLinetypeTableRecord
  2
CONTINUOUS
 70
0
  3
Solid line
 72
65
 73
0
 40
0.0
  0
LTYPE
  5
31
100
AcDbSymbolTableRecord
100
AcDbLinetypeTableRecord
  2
DOT
 70
0
  3
Dot . . . . . . . . . . . . . . . . . . . . . .
 72
65
 73
2
 40
6.3499999999999996
 49
0.0
 74
0
 49
-6.3499999999999996
 74
0
  0
LTYPE
  5
32
100
AcDbSymbolTableRecord
100
AcDbLinetypeTableRecord
  2
DOT2
 70
0
  3
Dot (.5x) .....................................
 72
65
 73
2
 40
3.1749999999999998
 49
0.0
 74
0
 49
-3.1749999999999998
 74
0
  0
LTYPE
  5
33
100
AcDbSymbolTableRecord
100
AcDbLinetypeTableRecord
  2
DOTX2
 70
0
  3
Dot (2x) .  .  .  .  .  .  .  .  .  .  .  .  .
 72
65
 73
2
 40
12.6999999999999993
 49
0.0
 74
0
 49
-12.6999999999999993
 74
0
  0
LTYPE
  5
34
100
AcDbSymbolTableRecord
100
AcDbLinetypeTableRecord
  2
DASHED
 70
0
  3
Dashed __ __ __ __ __ __ __ __ __ __ __ __ __ _
 72
65
 73
2
 40
19.0500000000000007
 49
12.6999999999999993
 74
0
 49
-6.3499999999999996
 74
0
  0
LTYPE
  5
35
100
AcDbSymbolTableRecord
100
AcDbLinetypeTableRecord
  2
DASHED2
 70
0
  3
Dashed (.5x) _ _ _ _ _ _ _ _ _ _ _ _ _ _ _ _ _
 72
65
 73
2
 40
9.5250000000000004
 49
6.3499999999999996
 74
0
 49
-3.1749999999999998
 74
0
  0
LTYPE
  5
36
100
AcDbSymbolTableRecord
100
AcDbLinetypeTableRecord
  2
DASHEDX2
 70
0
  3
Dashed (2x) ____  ____  ____  ____  ____  ___
 72
65
 73
2
 40
38.1000000000000014
 49
25.3999999999999986
 74
0
 49
-12.6999999999999993
 74
0
  0
LTYPE
  5
37
100
AcDbSymbolTableRecord
100
AcDbLinetypeTableRecord
  2
DASHDOT
 70
0
  3
Dash dot __ . __ . __ . __ . __ . __ . __ . __
 72
65
 73
4
 40
25.3999999999999986
 49
12.6999999999999993
 74
0
 49
-6.3499999999999996
 74
0
 49
0.0
 74
0
 49
-6.3499999999999996
 74
0
  0
LTYPE
  5
38
100
AcDbSymbolTableRecord
100
AcDbLinetypeTableRecord
  2
DASHDOT2
 70
0
  3
Dash dot (.5x) _._._._._._._._._._._._._._._.
 72
65
 73
4
 40
12.6999999999999993
 49
6.3499999999999996
 74
0
 49
-3.1749999999999998
 74
0
 49
0.0
 74
0
 49
-3.1749999999999998
 74
0
  0
LTYPE
  5
39
100
AcDbSymbolTableRecord
100
AcDbLinetypeTableRecord
  2
DASHDOTX2
 70
0
  3
Dash dot (2x) ____  .  ____  .  ____  .  ___
 72
65
 73
4
 40
50.7999999999999972
 49
25.3999999999999986
 74
0
 49
-12.6999999999999993
 74
0
 49
0.0
 74
0
 49
-12.6999999999999993
 74
0
  0
LTYPE
  5
3A
100
AcDbSymbolTableRecord
100
AcDbLinetypeTableRecord
  2
DIVIDE
 70
0
  3
Divide ____ . . ____ . . ____ . . ____ . . ____
 72
65
 73
6
 40
31.75
 49
12.6999999999999993
 74
0
 49
-6.3499999999999996
 74
0
 49
0.0
 74
0
 49
-6.3499999999999996
 74
0
 49
0.0
 74
0
 49
-6.3499999999999996
 74
0
  0
LTYPE
  5
3B
100
AcDbSymbolTableRecord
100
AcDbLinetypeTableRecord
  2
DIVIDE2
 70
0
  3
Divide (.5x) __..__..__..__..__..__..__..__.._
 72
65
 73
6
 40
15.875
 49
6.3499999999999996
 74
0
 49
-3.1749999999999998
 74
0
 49
0.0
 74
0
 49
-3.1749999999999998
 74
0
 49
0.0
 74
0
 49
-3.1749999999999998
 74
0
  0
LTYPE
  5
3C
100
AcDbSymbolTableRecord
100
AcDbLinetypeTableRecord
  2
DIVIDEX2
 70
0
  3
Divide (2x) ________  .  .  ________  .  .  _
 72
65
 73
6
 40
63.5
 49
25.3999999999999986
 74
0
 49
-12.6999999999999993
 74
0
 49
0.0
 74
0
 49
-12.6999999999999993
 74
0
 49
0.0
 74
0
 49
-12.6999999999999993
 74
0
  0
LTYPE
  5
3D
100
AcDbSymbolTableRecord
100
AcDbLinetypeTableRecord
  2
CENTER
 70
0
  3
Center ____ _ ____ _ ____ _ ____ _ ____ _ ____
 72
65
 73
4
 40
50.7999999999999972
 49
31.75
 74
0
 49
-6.3499999999999996
 74
0
 49
6.3499999999999996
 74
0
 49
-6.3499999999999996
 74
0
  0
LTYPE
  5
3E
100
AcDbSymbolTableRecord
100
AcDbLinetypeTableRecord
  2
CENTER2
 70
0
  3
Center (.5x) ___ _ ___ _ ___ _ ___ _ ___ _ ___
 72
65
 73
4
 40
28.5749999999999993
 49
19.0500000000000007
 74
0
 49
-3.1749999999999998
 74
0
 49
3.1749999999999998
 74
0
 49
-3.1749999999999998
 74
0
  0
LTYPE
  5
3F
100
AcDbSymbolTableRecord
100
AcDbLinetypeTableRecord
  2
CENTERX2
 70
0
  3
Center (2x) ________  __  ________  __  _____
 72
65
 73
4
 40
101.5999999999999943
 49
63.5
 74
0
 49
-12.6999999999999993
 74
0
 49
12.6999999999999993
 74
0
 49
-12.6999999999999993
 74
0
  0
LTYPE
  5
40
100
AcDbSymbolTableRecord
100
AcDbLinetypeTableRecord
  2
BORDER
 70
0
  3
Border __ __ . __ __ . __ __ . __ __ . __ __ .
 72
65
 73
6
 40
44.4500000000000028
 49
12.6999999999999993
 74
0
 49
-6.3499999999999996
 74
0
 49
12.6999999999999993
 74
0
 49
-6.3499999999999996
 74
0
 49
0.0
 74
0
 49
-6.3499999999999996
 74
0
  0
LTYPE
  5
41
100
AcDbSymbolTableRecord
100
AcDbLinetypeTableRecord
  2
BORDER2
 70
0
  3
Border (.5x) __.__.__.__.__.__.__.__.__.__.__.
 72
65
 73
6
 40
22.2250000000000014
 49
6.3499999999999996
 74
0
 49
-3.1749999999999998
 74
0
 49
6.3499999999999996
 74
0
 49
-3.1749999999999998
 74
0
 49
0.0
 74
0
 49
-3.1749999999999998
 74
0
  0
LTYPE
  5
42
100
AcDbSymbolTableRecord
100
AcDbLinetypeTableRecord
  2
BORDERX2
 70
0
  3
Border (2x) ____  ____  .  ____  ____  .  ___
 72
65
 73
6
 40
88.9000000000000057
 49
25.3999999999999986
 74
0
 49
-12.6999999999999993
 74
0
 49
25.3999999999999986
 74
0
 49
-12.6999999999999993
 74
0
 49
0.0
 74
0
 49
-12.6999999999999993
 74
0
  0
ENDTAB
  0
TABLE
  2
LAYER
  5
2
100
AcDbSymbolTable
 70
3
  0
LAYER
  5
10
100
AcDbSymbolTableRecord
100
AcDbLayerTableRecord
  2
0
 70
1
 62
7
  6
CONTINUOUS
370
0
390
F
  0
LAYER
  5
43
100
AcDbSymbolTableRecord
100
AcDbLayerTableRecord
  2
cons
 70
1
 62
7
  6
CONTINUOUS
370
0
390
F
  0
LAYER
  5
44
100
AcDbSymbolTableRecord
100
AcDbLayerTableRecord
  2
chans
 70
0
 62
7
  6
CONTINUOUS
370
0
390
F
  0
ENDTAB
  0
TABLE
  2
STYLE
  5
3
100
AcDbSymbolTable
 70
1
  0
STYLE
  5
11
100
AcDbSymbolTableRecord
100
AcDbTextStyleTableRecord
  2
Standard
 70
0
 40
0.0
 41
0.75
 50
0.0
 71
0
 42
2.5
  3
txt
  4

  0
ENDTAB
  0
TABLE
  2
VIEW
  5
6
100
AcDbSymbolTable
 70
0
  0
ENDTAB
  0
TABLE
  2
UCS
  5
7
100
AcDbSymbolTable
 70
0
  0
ENDTAB
  0
TABLE
  2
APPID
  5
9
100
AcDbSymbolTable
 70
1
  0
APPID
  5
12
100
AcDbSymbolTableRecord
100
AcDbRegAppTableRecord
  2
ACAD
 70
0
  0
ENDTAB
  0
TABLE
  2
DIMSTYLE
  5
A
100
AcDbSymbolTable
 70
1
100
AcDbDimStyleTable
 71
0
  0
DIMSTYLE
105
27
100
AcDbSymbolTableRecord
100
AcDbDimStyleTableRecord
  2
Standard
 41
2.5
 42
0.625
 43
3.75
 44
1.25
 70
0
 73
0
 74
0
 77
1
 78
8
140
2.5
141
2.5
143
0.03937007874016
147
0.625
171
3
172
1
271
2
272
2
274
3
278
44
283
0
284
8
340
11
  0
ENDTAB
  0
TABLE
  2
BLOCK_RECORD
  5
1
100
AcDbSymbolTable
 70
1
  0
BLOCK_RECORD
  5
1F
100
AcDbSymbolTableRecord
100
AcDbBlockTableRecord
  2
*Model_Space
340
22
  0
BLOCK_RECORD
  5
1B
100
AcDbSymbolTableRecord
100
AcDbBlockTableRecord
  2
*Paper_Space
340
1E
  0
BLOCK_RECORD
  5
23
100
AcDbSymbolTableRecord
100
AcDbBlockTableRecord
  2
*Paper_Space0
340
26
  0
ENDTAB
  0
ENDSEC
  0
SECTION
  2
BLOCKS
  0
BLOCK
  5
20
100
AcDbEntity
  8
0
100
AcDbBlockBegin
  2
*Model_Space
 70
0
 10
0.0
 20
0.0
 30
0.0
  3
*Model_Space
  1

  0
ENDBLK
  5
21
100
AcDbEntity
  8
0
100
AcDbBlockEnd
  0
BLOCK
  5
1C
100
AcDbEntity
 67
1
  8
0
100
AcDbBlockBegin
  2
*Paper_Space
 70
0
 10
0.0
 20
0.0
 30
0.0
  3
*Paper_Space
  1

  0
ENDBLK
  5
1D
100
AcDbEntity
 67
1
  8
0
100
AcDbBlockEnd
  0
BLOCK
  5
24
100
AcDbEntity
  8
0
100
AcDbBlockBegin
  2
*Paper_Space0
 70
0
 10
0.0
 20
0.0
 30
0.0
  3
*Paper_Space0
  1

  0
ENDBLK
  5
25
100
AcDbEntity
  8
0
100
AcDbBlockEnd
  0
ENDSEC
  0
SECTION
  2
ENTITIES
  0
LINE
  5
45
100
AcDbEntity
100
AcDbLine
  8
chans
 62
256
370
-1
  6
ByLayer
 10
-4.139999999999997
 20
6.4450000000000003
 30
0.0
 11
-4.139999999999997
 21
5.9450000000000003
 31
0.0
  0
LINE
  5
46
100
AcDbEntity
100
AcDbLine
  8
chans
 62
256
370
-1
  6
ByLayer
 10
-4.139999999999997
 20
5.0150000000000006
 30
0.0
 11
-4.139999999999997
 21
4.5150000000000006
 31
0.0
  0
LINE
  5
47
100
AcDbEntity
100
AcDbLine
  8
chans
 62
256
370
-1
  6
ByLayer
 10
-4.139999999999997
 20
3.585
 30
0.0
 11
-4.139999999999997
 21
3.085
 31
0.0
  0
LINE
  5
48
100
AcDbEntity
100
AcDbLine
  8
chans
 62
256
370
-1
  6
ByLayer
 10
-4.139999999999997
 20
2.1550000000000002
 30
0.0
 11
-4.139999999999997
 21
1.6550000000000005
 31
0.0
  0
LINE
  5
49
100
AcDbEntity
100
AcDbLine
  8
chans
 62
256
370
-1
  6
ByLayer
 10
-4.139999999999997
 20
0.7250000000000006
 30
0.0
 11
-4.139999999999997
 21
0.2250000000000006
 31
0.0
  0
LINE
  5
4A
100
AcDbEntity
100
AcDbLine
  8
chans
 62
256
370
-1
  6
ByLayer
 10
0.0
 20
7.875
 30
0.0
 11
-0.0
 21
7.375
 31
0.0
  0
LINE
  5
4B
100
AcDbEntity
100
AcDbLine
  8
chans
 62
256
370
-1
  6
ByLayer
 10
0.0
 20
6.4449999999999994
 30
0.0
 11
-0.0
 21
5.9449999999999994
 31
0.0
  0
LINE
  5
4C
100
AcDbEntity
100
AcDbLine
  8
chans
 62
256
370
-1
  6
ByLayer
 10
0.0
 20
5.0149999999999997
 30
0.0
 11
-0.0
 21
4.5149999999999997
 31
0.0
  0
LINE
  5
4D
100
AcDbEntity
100
AcDbLine
  8
chans
 62
256
370
-1
  6
ByLayer
 10
0.0
 20
3.585
 30
0.0
 11
-0.0
 21
3.085
 31
0.0
  0
LINE
  5
4E
100
AcDbEntity
100
AcDbLine
  8
chans
 62
256
370
-1
  6
ByLayer
 10
0.0
 20
2.1549999999999998
 30
0.0
 11
-0.0
 21
1.6549999999999998
 31
0.0
  0
LINE
  5
4F
100
AcDbEntity
100
AcDbLine
  8
chans
 62
256
370
-1
  6
ByLayer
 10
0.0
 20
0.7250000000000001
 30
0.0
 11
-0.0
 21
0.225
 31
0.0
  0
LINE
  5
50
100
AcDbEntity
100
AcDbLine
  8
chans
 62
256
370
-1
  6
ByLayer
 10
-5.8399999999999999
 20
0.2250000000000011
 30
0.0
 11
-4.139999999999997
 21
0.2250000000000006
 31
0.0
  0
ARC
  5
51
100
AcDbEntity
  8
chans
 62
256
370
-1
  6
ByLayer
100
AcDbCircle
 10
-5.8399999999999999
 20
-0.7749999999999986
 30
0.0
 40
1.0
100
AcDbArc
 50
90.0
 51
180.000000000000199
  0
LINE
  5
52
100
AcDbEntity
100
AcDbLine
  8
chans
 62
256
370
-1
  6
ByLayer
 10
-5.8399999999999999
 20
0.7250000000000011
 30
0.0
 11
-4.139999999999997
 21
0.7250000000000008
 31
0.0
  0
ARC
  5
53
100
AcDbEntity
  8
chans
 62
256
370
-1
  6
ByLayer
100
AcDbCircle
 10
-5.8399999999999999
 20
-0.7749999999999989
 30
0.0
 40
1.5
100
AcDbArc
 50
90.0
 51
180.0
  0
LINE
  5
54
100
AcDbEntity
100
AcDbLine
  8
chans
 62
256
370
-1
  6
ByLayer
 10
-7.339999999999999
 20
1.6550000000000034
 30
0.0
 11
-4.139999999999997
 21
1.6550000000000005
 31
0.0
  0
ARC
  5
55
100
AcDbEntity
  8
chans
 62
256
370
-1
  6
ByLayer
100
AcDbCircle
 10
-7.3399999999999999
 20
0.1550000000000033
 30
0.0
 40
1.5
100
AcDbArc
 50
90.0
 51
180.0
  0
LINE
  5
56
100
AcDbEntity
100
AcDbLine
  8
chans
 62
256
370
-1
  6
ByLayer
 10
-7.3399999999999999
 20
2.1550000000000007
 30
0.0
 11
-4.139999999999997
 21
2.1550000000000002
 31
0.0
  0
ARC
  5
57
100
AcDbEntity
  8
chans
 62
256
370
-1
  6
ByLayer
100
AcDbCircle
 10
-7.3399999999999999
 20
0.1550000000000008
 30
0.0
 40
2.0
100
AcDbArc
 50
90.0
 51
180.0
  0
LINE
  5
58
100
AcDbEntity
100
AcDbLine
  8
chans
 62
256
370
-1
  6
ByLayer
 10
0.0
 20
2.1549999999999998
 30
0.0
 11
3.2000000000000002
 21
2.1549999999999998
 31
0.0
  0
ARC
  5
59
100
AcDbEntity
  8
chans
 62
256
370
-1
  6
ByLayer
100
AcDbCircle
 10
3.2000000000000002
 20
0.1549999999999998
 30
0.0
 40
2.0
100
AcDbArc
 50
0.0
 51
90.0
  0
LINE
  5
5A
100
AcDbEntity
100
AcDbLine
  8
chans
 62
256
370
-1
  6
ByLayer
 10
-0.0
 20
1.6549999999999998
 30
0.0
 11
3.1999999999999997
 21
1.6549999999999998
 31
0.0
  0
ARC
  5
5B
100
AcDbEntity
  8
chans
 62
256
370
-1
  6
ByLayer
100
AcDbCircle
 10
3.2000000000000002
 20
0.1549999999999998
 30
0.0
 40
1.5
100
AcDbArc
 50
0.0
 51
90.0
  0
LINE
  5
5C
100
AcDbEntity
100
AcDbLine
  8
chans
 62
256
370
-1
  6
ByLayer
 10
0.0
 20
0.7250000000000001
 30
0.0
 11
1.6999999999999995
 21
0.7250000000000008
 31
0.0
  0
ARC
  5
5D
100
AcDbEntity
  8
chans
 62
256
370
-1
  6
ByLayer
100
AcDbCircle
 10
1.7000000000000002
 20
-0.7749999999999992
 30
0.0
 40
1.5
100
AcDbArc
 50
0.0
 51
90.0
  0
LINE
  5
5E
100
AcDbEntity
100
AcDbLine
  8
chans
 62
256
370
-1
  6
ByLayer
 10
-0.0
 20
0.225
 30
0.0
 11
1.6999999999999982
 21
0.2250000000000031
 31
0.0
  0
ARC
  5
5F
100
AcDbEntity
  8
chans
 62
256
370
-1
  6
ByLayer
100
AcDbCircle
 10
1.7000000000000002
 20
-0.7749999999999968
 30
0.0
 40
1.0
100
AcDbArc
 50
359.9999999999998863
 51
90.0000000000000995
  0
LINE
  5
60
100
AcDbEntity
100
AcDbLine
  8
chans
 62
256
370
-1
  6
ByLayer
 10
-8.2730194846605478
 20
3.085
 30
0.0
 11
-4.139999999999997
 21
3.085
 31
0.0
  0
ARC
  5
61
100
AcDbEntity
  8
chans
 62
256
370
-1
  6
ByLayer
100
AcDbCircle
 10
-8.2730194846605478
 20
1.085
 30
0.0
 40
2.0
100
AcDbArc
 50
90.0
 51
134.9999999999998579
  0
LINE
  5
62
100
AcDbEntity
100
AcDbLine
  8
chans
 62
256
370
-1
  6
ByLayer
 10
-9.6872330470336383
 20
2.499213562373098
 30
0.0
 11
-10.5042135623730903
 21
1.6822330470336495
 31
0.0
  0
ARC
  5
63
100
AcDbEntity
  8
chans
 62
256
370
-1
  6
ByLayer
100
AcDbCircle
 10
-9.0899999999999999
 20
0.2680194846605511
 30
0.0
 40
2.0
100
AcDbArc
 50
134.9999999999998579
 51
180.0
  0
LINE
  5
64
100
AcDbEntity
100
AcDbLine
  8
chans
 62
256
370
-1
  6
ByLayer
 10
-0.0
 20
3.085
 30
0.0
 11
4.1330194846605366
 21
3.085
 31
0.0
  0
ARC
  5
65
100
AcDbEntity
  8
chans
 62
256
370
-1
  6
ByLayer
100
AcDbCircle
 10
4.1330194846605366
 20
1.085
 30
0.0
 40
2.0
100
AcDbArc
 50
45.0
 51
90.0
  0
LINE
  5
66
100
AcDbEntity
100
AcDbLine
  8
chans
 62
256
370
-1
  6
ByLayer
 10
5.5472330470336315
 20
2.4992135623730949
 30
0.0
 11
6.3642135623730951
 21
1.6822330470336315
 31
0.0
  0
ARC
  5
67
100
AcDbEntity
  8
chans
 62
256
370
-1
  6
ByLayer
100
AcDbCircle
 10
4.9500000000000011
 20
0.268019484660536
 30
0.0
 40
2.0
100
AcDbArc
 50
0.0
 51
45.0000000000000497
  0
LINE
  5
68
100
AcDbEntity
100
AcDbLine
  8
chans
 62
256
370
-1
  6
ByLayer
 10
0.0
 20
3.585
 30
0.0
 11
4.3401262658470845
 21
3.585
 31
0.0
  0
ARC
  5
69
100
AcDbEntity
  8
chans
 62
256
370
-1
  6
ByLayer
100
AcDbCircle
 10
4.3401262658470845
 20
1.585
 30
0.0
 40
2.0
100
AcDbArc
 50
45.0
 51
90.0
  0
LINE
  5
6A
100
AcDbEntity
100
AcDbLine
  8
chans
 62
256
370
-1
  6
ByLayer
 10
5.7543398282201785
 20
2.9992135623730944
 30
0.0
 11
6.864213562373096
 21
1.8893398282201774
 31
0.0
  0
ARC
  5
6B
100
AcDbEntity
  8
chans
 62
256
370
-1
  6
ByLayer
100
AcDbCircle
 10
5.4500000000000011
 20
0.4751262658470825
 30
0.0
 40
2.0
100
AcDbArc
 50
0.0
 51
45.0
  0
LINE
  5
6C
100
AcDbEntity
100
AcDbLine
  8
chans
 62
256
370
-1
  6
ByLayer
 10
-8.2730194846605478
 20
3.585
 30
0.0
 11
-4.139999999999997
 21
3.585
 31
0.0
  0
ARC
  5
6D
100
AcDbEntity
  8
chans
 62
256
370
-1
  6
ByLayer
100
AcDbCircle
 10
-8.2730194846605478
 20
1.085
 30
0.0
 40
2.5
100
AcDbArc
 50
90.0
 51
134.9999999999999432
  0
LINE
  5
6E
100
AcDbEntity
100
AcDbLine
  8
chans
 62
256
370
-1
  6
ByLayer
 10
-10.0407864376269131
 20
2.8527669529663715
 30
0.0
 11
-10.8577669529663652
 21
2.0357864376269221
 31
0.0
  0
ARC
  5
6F
100
AcDbEntity
  8
chans
 62
256
370
-1
  6
ByLayer
100
AcDbCircle
 10
-9.0899999999999999
 20
0.2680194846605497
 30
0.0
 40
2.5
100
AcDbArc
 50
134.9999999999999432
 51
180.0
  0
ARC
  5
70
100
AcDbEntity
  8
chans
 62
256
370
-1
  6
ByLayer
100
AcDbCircle
 10
-14.1899999999999977
 20
4.6500000000000004
 30
0.0
 40
1.5
100
AcDbArc
 50
90.0
 51
180.0
  0
ARC
  5
71
100
AcDbEntity
  8
chans
 62
256
370
-1
  6
ByLayer
100
AcDbCircle
 10
10.0499999999999972
 20
4.6500000000000004
 30
0.0
 40
1.5
100
AcDbArc
 50
0.0
 51
90.0
  0
ARC
  5
72
100
AcDbEntity
  8
chans
 62
256
370
-1
  6
ByLayer
100
AcDbCircle
 10
-14.1899999999999977
 20
4.6500000000000004
 30
0.0
 40
2.0
100
AcDbArc
 50
90.0
 51
180.0
  0
ARC
  5
73
100
AcDbEntity
  8
chans
 62
256
370
-1
  6
ByLayer
100
AcDbCircle
 10
10.0499999999999972
 20
4.6500000000000004
 30
0.0
 40
2.0
100
AcDbArc
 50
0.0
 51
90.0
  0
LINE
  5
74
100
AcDbEntity
100
AcDbLine
  8
chans
 62
256
370
-1
  6
ByLayer
 10
-8.4601262658470944
 20
4.5150000000000006
 30
0.0
 11
-4.139999999999997
 21
4.5150000000000006
 31
0.0
  0
ARC
  5
75
100
AcDbEntity
  8
chans
 62
256
370
-1
  6
ByLayer
100
AcDbCircle
 10
-8.4601262658470944
 20
6.5150000000000006
 30
0.0
 40
2.0
100
AcDbArc
 50
225.0000000000001137
 51
270.0
  0
LINE
  5
76
100
AcDbEntity
100
AcDbLine
  8
chans
 62
256
370
-1
  6
ByLayer
 10
-11.5448737341529313
 20
6.6500000000000004
 30
0.0
 11
-14.1899999999999977
 21
6.6500000000000004
 31
0.0
  0
ARC
  5
77
100
AcDbEntity
  8
chans
 62
256
370
-1
  6
ByLayer
100
AcDbCircle
 10
-11.5448737341529313
 20
4.6500000000000004
 30
0.0
 40
2.0
100
AcDbArc
 50
45.0000000000001492
 51
90.0
  0
LINE
  5
78
100
AcDbEntity
100
AcDbLine
  8
chans
 62
256
370
-1
  6
ByLayer
 10
-0.0
 20
4.5149999999999997
 30
0.0
 11
4.3201262658470805
 21
4.5149999999999997
 31
0.0
  0
ARC
  5
79
100
AcDbEntity
  8
chans
 62
256
370
-1
  6
ByLayer
100
AcDbCircle
 10
4.3201262658470796
 20
6.5149999999999997
 30
0.0
 40
2.0
100
AcDbArc
 50
270.0
 51
315.0
  0
LINE
  5
7A
100
AcDbEntity
100
AcDbLine
  8
chans
 62
256
370
-1
  6
ByLayer
 10
7.4048737341529112
 20
6.6500000000000004
 30
0.0
 11
10.0499999999999972
 21
6.6500000000000004
 31
0.0
  0
ARC
  5
7B
100
AcDbEntity
  8
chans
 62
256
370
-1
  6
ByLayer
100
AcDbCircle
 10
7.4048737341529112
 20
4.6500000000000004
 30
0.0
 40
2.0
100
AcDbArc
 50
90.0
 51
135.0000000000000568
  0
LINE
  5
7C
100
AcDbEntity
100
AcDbLine
  8
chans
 62
256
370
-1
  6
ByLayer
 10
-8.4601262658470961
 20
5.0150000000000006
 30
0.0
 11
-4.139999999999997
 21
5.0150000000000006
 31
0.0
  0
LINE
  5
7D
100
AcDbEntity
100
AcDbLine
  8
chans
 62
256
370
-1
  6
ByLayer
 10
-9.5207864376269153
 20
5.4543398282201769
 30
0.0
 11
-10.130660171779839
 21
6.0642135623730988
 31
0.0
  0
ARC
  5
7E
100
AcDbEntity
  8
chans
 62
256
370
-1
  6
ByLayer
100
AcDbCircle
 10
-8.4601262658470961
 20
6.5150000000000006
 30
0.0
 40
1.5
100
AcDbArc
 50
225.0000000000001137
 51
270.0
  0
LINE
  5
7F
100
AcDbEntity
100
AcDbLine
  8
chans
 62
256
370
-1
  6
ByLayer
 10
-9.8743398282201866
 20
5.1007864376269021
 30
0.0
 11
-10.4842135623731121
 21
5.7106601717798249
 31
0.0
  0
LINE
  5
80
100
AcDbEntity
100
AcDbLine
  8
chans
 62
256
370
-1
  6
ByLayer
 10
-11.5448737341529313
 20
6.1500000000000004
 30
0.0
 11
-14.1899999999999977
 21
6.1500000000000004
 31
0.0
  0
ARC
  5
81
100
AcDbEntity
  8
chans
 62
256
370
-1
  6
ByLayer
100
AcDbCircle
 10
-11.5448737341529313
 20
4.6500000000000004
 30
0.0
 40
1.5
100
AcDbArc
 50
45.0000000000001492
 51
90.0
  0
LINE
  5
82
100
AcDbEntity
100
AcDbLine
  8
chans
 62
256
370
-1
  6
ByLayer
 10
5.7343398282201754
 20
5.1007864376269048
 30
0.0
 11
6.3442135623730902
 21
5.7106601717798213
 31
0.0
  0
LINE
  5
83
100
AcDbEntity
100
AcDbLine
  8
chans
 62
256
370
-1
  6
ByLayer
 10
7.4048737341529129
 20
6.1500000000000004
 30
0.0
 11
10.0499999999999972
 21
6.1500000000000004
 31
0.0
  0
ARC
  5
84
100
AcDbEntity
  8
chans
 62
256
370
-1
  6
ByLayer
100
AcDbCircle
 10
7.4048737341529129
 20
4.6500000000000004
 30
0.0
 40
1.5
100
AcDbArc
 50
90.0
 51
135.0000000000000568
  0
LINE
  5
85
100
AcDbEntity
100
AcDbLine
  8
chans
 62
256
370
-1
  6
ByLayer
 10
5.3807864376269006
 20
5.4543398282201787
 30
0.0
 11
5.9906601717798154
 21
6.0642135623730944
 31
0.0
  0
LINE
  5
86
100
AcDbEntity
100
AcDbLine
  8
chans
 62
256
370
-1
  6
ByLayer
 10
0.0
 20
5.0149999999999997
 30
0.0
 11
4.3201262658470787
 21
5.0149999999999997
 31
0.0
  0
ARC
  5
87
100
AcDbEntity
  8
chans
 62
256
370
-1
  6
ByLayer
100
AcDbCircle
 10
4.3201262658470787
 20
6.5149999999999997
 30
0.0
 40
1.5
100
AcDbArc
 50
270.0
 51
315.0
  0
LINE
  5
88
100
AcDbEntity
100
AcDbLine
  8
chans
 62
256
370
-1
  6
ByLayer
 10
-7.268805922287453
 20
5.9450000000000003
 30
0.0
 11
-4.139999999999997
 21
5.9450000000000003
 31
0.0
  0
ARC
  5
89
100
AcDbEntity
  8
chans
 62
256
370
-1
  6
ByLayer
100
AcDbCircle
 10
-7.268805922287453
 20
7.4450000000000003
 30
0.0
 40
1.5
100
AcDbArc
 50
225.0000000000001137
 51
270.0
  0
ARC
  5
8A
100
AcDbEntity
  8
chans
 62
256
370
-1
  6
ByLayer
100
AcDbCircle
 10
-10.5093398282201971
 20
7.1499999999999986
 30
0.0
 40
1.5
100
AcDbArc
 50
45.0000000000001492
 51
90.0
  0
ARC
  5
8B
100
AcDbEntity
  8
chans
 62
256
370
-1
  6
ByLayer
100
AcDbCircle
 10
-16.1899999999999977
 20
6.6499999999999959
 30
0.0
 40
1.5
100
AcDbArc
 50
90.0
 51
180.0
  0
ARC
  5
8C
100
AcDbEntity
  8
chans
 62
256
370
-1
  6
ByLayer
100
AcDbCircle
 10
12.0499999999999989
 20
6.6499999999999986
 30
0.0
 40
1.5
100
AcDbArc
 50
0.0
 51
90.0
  0
ARC
  5
8D
100
AcDbEntity
  8
chans
 62
256
370
-1
  6
ByLayer
100
AcDbCircle
 10
6.3693398282201725
 20
7.1500000000000004
 30
0.0
 40
1.5
100
AcDbArc
 50
90.0
 51
135.0000000000000568
  0
LINE
  5
8E
100
AcDbEntity
100
AcDbLine
  8
chans
 62
256
370
-1
  6
ByLayer
 10
-0.0
 20
5.9449999999999994
 30
0.0
 11
3.1288059222874365
 21
5.9449999999999994
 31
0.0
  0
ARC
  5
8F
100
AcDbEntity
  8
chans
 62
256
370
-1
  6
ByLayer
100
AcDbCircle
 10
3.128805922287436
 20
7.4449999999999994
 30
0.0
 40
1.5
100
AcDbArc
 50
270.0
 51
315.0000000000000568
  0
LINE
  5
90
100
AcDbEntity
100
AcDbLine
  8
chans
 62
256
370
-1
  6
ByLayer
 10
6.3693398282201725
 20
8.1500000000000004
 30
0.0
 11
12.0499999999999989
 21
8.1499999999999986
 31
0.0
  0
LINE
  5
91
100
AcDbEntity
100
AcDbLine
  8
chans
 62
256
370
-1
  6
ByLayer
 10
4.1894660940672583
 20
6.3843398282201784
 30
0.0
 11
5.6622330470336246
 21
7.8571067811865465
 31
0.0
  0
ARC
  5
92
100
AcDbEntity
  8
chans
 62
256
370
-1
  6
ByLayer
100
AcDbCircle
 10
6.3693398282201725
 20
7.1500000000000004
 30
0.0
 40
1.0
100
AcDbArc
 50
90.0
 51
135.0000000000000568
  0
LINE
  5
93
100
AcDbEntity
100
AcDbLine
  8
chans
 62
256
370
-1
  6
ByLayer
 10
3.8359127034739839
 20
6.7378932188134524
 30
0.0
 11
5.3086796564403507
 21
8.2106601717798213
 31
0.0
  0
LINE
  5
94
100
AcDbEntity
100
AcDbLine
  8
chans
 62
256
370
-1
  6
ByLayer
 10
0.0
 20
6.4449999999999994
 30
0.0
 11
3.1288059222874356
 21
6.4449999999999994
 31
0.0
  0
ARC
  5
95
100
AcDbEntity
  8
chans
 62
256
370
-1
  6
ByLayer
100
AcDbCircle
 10
3.128805922287436
 20
7.4449999999999994
 30
0.0
 40
1.0
100
AcDbArc
 50
270.0
 51
315.0000000000000568
  0
LINE
  5
96
100
AcDbEntity
100
AcDbLine
  8
chans
 62
256
370
-1
  6
ByLayer
 10
-7.2688059222874521
 20
6.4450000000000003
 30
0.0
 11
-4.139999999999997
 21
6.4450000000000003
 31
0.0
  0
LINE
  5
97
100
AcDbEntity
100
AcDbLine
  8
chans
 62
256
370
-1
  6
ByLayer
 10
-7.9759127034739983
 20
6.7378932188134506
 30
0.0
 11
-9.4486796564403779
 21
8.2106601717798231
 31
0.0
  0
ARC
  5
98
100
AcDbEntity
  8
chans
 62
256
370
-1
  6
ByLayer
100
AcDbCircle
 10
-7.2688059222874521
 20
7.4450000000000003
 30
0.0
 40
1.0
100
AcDbArc
 50
225.0000000000001137
 51
270.0
  0
LINE
  5
99
100
AcDbEntity
100
AcDbLine
  8
chans
 62
256
370
-1
  6
ByLayer
 10
-8.3294660940672713
 20
6.3843398282201766
 30
0.0
 11
-9.8022330470336509
 21
7.8571067811865483
 31
0.0
  0
LINE
  5
9A
100
AcDbEntity
100
AcDbLine
  8
chans
 62
256
370
-1
  6
ByLayer
 10
-10.5093398282201971
 20
8.1499999999999986
 30
0.0
 11
-16.1899999999999977
 21
8.149999999999995
 31
0.0
  0
ARC
  5
9B
100
AcDbEntity
  8
chans
 62
256
370
-1
  6
ByLayer
100
AcDbCircle
 10
-10.5093398282201971
 20
7.1499999999999986
 30
0.0
 40
1.0
100
AcDbArc
 50
45.0000000000001492
 51
90.0
  0
LINE
  5
9C
100
AcDbEntity
100
AcDbLine
  8
chans
 62
256
370
-1
  6
ByLayer
 10
-10.5093398282201971
 20
8.6499999999999986
 30
0.0
 11
-16.1899999999999942
 21
8.6500000000000004
 31
0.0
  0
ARC
  5
9D
100
AcDbEntity
  8
chans
 62
256
370
-1
  6
ByLayer
100
AcDbCircle
 10
-16.1899999999999942
 20
6.6500000000000012
 30
0.0
 40
2.0
100
AcDbArc
 50
90.0
 51
180.0
  0
LINE
  5
9E
100
AcDbEntity
100
AcDbLine
  8
chans
 62
256
370
-1
  6
ByLayer
 10
6.3693398282201725
 20
8.6500000000000004
 30
0.0
 11
12.0500000000000007
 21
8.6500000000000004
 31
0.0
  0
ARC
  5
9F
100
AcDbEntity
  8
chans
 62
256
370
-1
  6
ByLayer
100
AcDbCircle
 10
12.0499999999999989
 20
6.6500000000000004
 30
0.0
 40
2.0
100
AcDbArc
 50
0.0
 51
89.9999999999999432
  0
LINE
  5
A0
100
AcDbEntity
100
AcDbLine
  8
chans
 62
256
370
-1
  6
ByLayer
 10
-4.8650000000000002
 20
9.3399999999999999
 30
0.0
 11
-4.3650000000000002
 21
9.3399999999999999
 31
0.0
  0
ARC
  5
A1
100
AcDbEntity
  8
chans
 62
256
370
-1
  6
ByLayer
100
AcDbCircle
 10
-4.0199999999999978
 20
6.405970093397146
 30
0.0
 40
1.0
100
AcDbArc
 50
359.9999999999998863
 51
69.9999999999999147
  0
LINE
  5
A2
100
AcDbEntity
100
AcDbLine
  8
chans
 62
256
370
-1
  6
ByLayer
 10
-4.3650000000000002
 20
8.8280140211425646
 30
0.0
 11
-4.3650000000000002
 21
9.3399999999999999
 31
0.0
  0
ARC
  5
A3
100
AcDbEntity
  8
chans
 62
256
370
-1
  6
ByLayer
100
AcDbCircle
 10
-3.3650000000000002
 20
8.8280140211425646
 30
0.0
 40
1.0
100
AcDbArc
 50
180.0
 51
249.9999999999999716
  0
LINE
  5
A4
100
AcDbEntity
100
AcDbLine
  8
chans
 62
256
370
-1
  6
ByLayer
 10
-3.8780302149885055
 20
7.4184750899637031
 30
0.0
 11
-3.6779798566743276
 21
7.3456627141830539
 31
0.0
  0
LINE
  5
A5
100
AcDbEntity
100
AcDbLine
  8
chans
 62
256
370
-1
  6
ByLayer
 10
-4.8650000000000002
 20
8.8280140211425646
 30
0.0
 11
-4.8650000000000002
 21
9.3399999999999999
 31
0.0
  0
ARC
  5
A6
100
AcDbEntity
  8
chans
 62
256
370
-1
  6
ByLayer
100
AcDbCircle
 10
-3.3650000000000002
 20
8.8280140211425646
 30
0.0
 40
1.5
100
AcDbArc
 50
180.0
 51
249.9999999999999147
  0
LINE
  5
A7
100
AcDbEntity
100
AcDbLine
  8
chans
 62
256
370
-1
  6
ByLayer
 10
-3.7070201433256695
 20
7.8883214003566557
 30
0.0
 11
-3.5069697850114943
 21
7.8155090245760075
 31
0.0
  0
ARC
  5
A8
100
AcDbEntity
  8
chans
 62
256
370
-1
  6
ByLayer
100
AcDbCircle
 10
-4.0199999999999978
 20
6.4059700933971451
 30
0.0
 40
1.5
100
AcDbArc
 50
359.9999999999999432
 51
69.9999999999999716
  0
LINE
  5
A9
100
AcDbEntity
100
AcDbLine
  8
chans
 62
256
370
-1
  6
ByLayer
 10
0.9500000000000006
 20
9.3049999999999997
 30
0.0
 11
0.9500000000000008
 21
8.8049999999999997
 31
0.0
  0
LINE
  5
AA
100
AcDbEntity
100
AcDbLine
  8
chans
 62
256
370
-1
  6
ByLayer
 10
-0.0199999999999962
 20
9.3049999999999997
 30
0.0
 11
0.9500000000000006
 21
9.3049999999999997
 31
0.0
  0
ARC
  5
AB
100
AcDbEntity
  8
chans
 62
256
370
-1
  6
ByLayer
100
AcDbCircle
 10
-0.0199999999999962
 20
7.8049999999999997
 30
0.0
 40
1.5
100
AcDbArc
 50
90.0
 51
180.0
  0
LINE
  5
AC
100
AcDbEntity
100
AcDbLine
  8
chans
 62
256
370
-1
  6
ByLayer
 10
-0.0199999999999996
 20
8.8049999999999997
 30
0.0
 11
0.9500000000000008
 21
8.8049999999999997
 31
0.0
  0
ARC
  5
AD
100
AcDbEntity
  8
chans
 62
256
370
-1
  6
ByLayer
100
AcDbCircle
 10
-0.0199999999999996
 20
7.8049999999999997
 30
0.0
 40
1.0
100
AcDbArc
 50
90.0
 51
179.999999999999801
  0
LINE
  5
AE
100
AcDbEntity
100
AcDbLine
  8
chans
 62
256
370
-1
  6
ByLayer
 10
0.0
 20
7.875
 30
0.0
 11
1.7303787975412475
 21
7.875
 31
0.0
  0
ARC
  5
AF
100
AcDbEntity
  8
chans
 62
256
370
-1
  6
ByLayer
100
AcDbCircle
 10
1.7303787975412475
 20
8.875
 30
0.0
 40
1.0
100
AcDbArc
 50
270.0
 51
315.0000000000000568
  0
LINE
  5
B0
100
AcDbEntity
100
AcDbLine
  8
chans
 62
256
370
-1
  6
ByLayer
 10
-0.0
 20
7.375
 30
0.0
 11
1.7303787975412455
 21
7.375
 31
0.0
  0
ARC
  5
B1
100
AcDbEntity
  8
chans
 62
256
370
-1
  6
ByLayer
100
AcDbCircle
 10
1.7303787975412457
 20
8.875
 30
0.0
 40
1.5
100
AcDbArc
 50
270.0
 51
315.0000000000000568
  0
ARC
  5
B2
100
AcDbEntity
  8
chans
 62
256
370
-1
  6
ByLayer
100
AcDbCircle
 10
14.0500000000000007
 20
8.1499999999999986
 30
0.0
 40
1.5
100
AcDbArc
 50
0.0
 51
90.0
  0
LINE
  5
B3
100
AcDbEntity
100
AcDbLine
  8
chans
 62
256
370
-1
  6
ByLayer
 10
2.4374855787277947
 20
8.1678932188134539
 30
0.0
 11
3.9802525316941604
 21
9.7106601717798213
 31
0.0
  0
ARC
  5
B4
100
AcDbEntity
  8
chans
 62
256
370
-1
  6
ByLayer
100
AcDbCircle
 10
5.0409127034739818
 20
8.6500000000000004
 30
0.0
 40
1.5
100
AcDbArc
 50
90.0
 51
135.0000000000000568
  0
LINE
  5
B5
100
AcDbEntity
100
AcDbLine
  8
chans
 62
256
370
-1
  6
ByLayer
 10
5.0409127034739827
 20
9.6500000000000004
 30
0.0
 11
14.0500000000000007
 21
9.6499999999999986
 31
0.0
  0
LINE
  5
B6
100
AcDbEntity
100
AcDbLine
  8
chans
 62
256
370
-1
  6
ByLayer
 10
2.7910389693210682
 20
7.814339828220179
 30
0.0
 11
4.3338059222874348
 21
9.3571067811865483
 31
0.0
  0
ARC
  5
B7
100
AcDbEntity
  8
chans
 62
256
370
-1
  6
ByLayer
100
AcDbCircle
 10
5.0409127034739827
 20
8.6500000000000004
 30
0.0
 40
1.0
100
AcDbArc
 50
90.0
 51
134.9999999999999432
  0
LINE
  5
B8
100
AcDbEntity
100
AcDbLine
  8
chans
 62
256
370
-1
  6
ByLayer
 10
5.0409127034739818
 20
10.1500000000000004
 30
0.0
 11
14.0500000000000025
 21
10.1499999999999986
 31
0.0
  0
ARC
  5
B9
100
AcDbEntity
  8
chans
 62
256
370
-1
  6
ByLayer
100
AcDbCircle
 10
14.0500000000000025
 20
8.1499999999999986
 30
0.0
 40
2.0
100
AcDbArc
 50
0.0
 51
90.0
  0
ARC
  5
BA
100
AcDbEntity
  8
chans
 62
256
370
-1
  6
ByLayer
100
AcDbCircle
 10
-0.5199999999999991
 20
-5.4445637897400019
 30
0.0
 40
3.0
100
AcDbArc
 50
163.1416012322617348
 51
180.0
  0
LINE
  5
BB
100
AcDbEntity
100
AcDbLine
  8
chans
 62
256
370
-1
  6
ByLayer
 10
-3.0199999999999991
 20
-1.255436210260001
 30
0.0
 11
-3.0199999999999982
 21
6.4059700933971442
 31
0.0
  0
ARC
  5
BC
100
AcDbEntity
  8
chans
 62
256
370
-1
  6
ByLayer
100
AcDbCircle
 10
-6.0199999999999996
 20
-1.2554362102600005
 30
0.0
 40
3.0
100
AcDbArc
 50
343.1416012322617348
 51
0.0
  0
LINE
  5
BD
100
AcDbEntity
100
AcDbLine
  8
chans
 62
256
370
-1
  6
ByLayer
 10
-1.0199999999999998
 20
-1.2554362102599961
 30
0.0
 11
-1.0199999999999996
 21
7.8050000000000033
 31
0.0
  0
ARC
  5
BE
100
AcDbEntity
  8
chans
 62
256
370
-1
  6
ByLayer
100
AcDbCircle
 10
1.9800000000000002
 20
-1.2554362102599961
 30
0.0
 40
3.0
100
AcDbArc
 50
180.0
 51
196.8583987677382652
  0
LINE
  5
BF
100
AcDbEntity
100
AcDbLine
  8
chans
 62
256
370
-1
  6
ByLayer
 10
-2.5199999999999991
 20
-1.1813422453033369
 30
0.0
 11
-2.5199999999999982
 21
6.4059700933971442
 31
0.0
  0
LINE
  5
C0
100
AcDbEntity
100
AcDbLine
  8
chans
 62
256
370
-1
  6
ByLayer
 10
-2.6704145844828426
 20
-2.1963681287933836
 30
0.0
 11
-3.39107321330042
 21
-4.5745416038913902
 31
0.0
  0
ARC
  5
C1
100
AcDbEntity
  8
chans
 62
256
370
-1
  6
ByLayer
100
AcDbCircle
 10
-6.0199999999999996
 20
-1.1813422453033364
 30
0.0
 40
3.5
100
AcDbArc
 50
343.1416012322617348
 51
0.0
  0
LINE
  5
C2
100
AcDbEntity
100
AcDbLine
  8
chans
 62
256
370
-1
  6
ByLayer
 10
-1.5199999999999976
 20
-1.1813422453033322
 30
0.0
 11
-1.5199999999999962
 21
7.8049999999999997
 31
0.0
  0
ARC
  5
C3
100
AcDbEntity
  8
chans
 62
256
370
-1
  6
ByLayer
100
AcDbCircle
 10
1.9800000000000024
 20
-1.1813422453033326
 30
0.0
 40
3.5
100
AcDbArc
 50
180.0
 51
196.8583987677382652
  0
LINE
  5
C4
100
AcDbEntity
100
AcDbLine
  8
chans
 62
256
370
-1
  6
ByLayer
 10
-0.8910732133004204
 20
-2.1254583961086078
 30
0.0
 11
-0.170414584482842
 21
-4.5036318712066192
 31
0.0
  0
ARC
  5
C5
100
AcDbEntity
  8
chans
 62
256
370
-1
  6
ByLayer
100
AcDbCircle
 10
-3.5199999999999996
 20
-5.5186577546966662
 30
0.0
 40
3.5
100
AcDbArc
 50
0.0000000000000509
 51
16.8583987677382652
  0
LINE
  5
C6
100
AcDbEntity
100
AcDbLine
  8
chans
 62
256
370
-1
  6
ByLayer
 10
-3.1489267866995787
 20
-2.1254583961086113
 30
0.0
 11
-3.8695854155171565
 21
-4.5036318712066228
 31
0.0
  0
ARC
  5
C7
100
AcDbEntity
  8
chans
 62
256
370
-1
  6
ByLayer
100
AcDbCircle
 10
-0.5199999999999988
 20
-5.5186577546966689
 30
0.0
 40
3.5
100
AcDbArc
 50
163.1416012322617348
 51
180.0000000000000284
  0
LINE
  5
C8
100
AcDbEntity
100
AcDbLine
  8
chans
 62
256
370
-1
  6
ByLayer
 10
-1.369585415517155
 20
-2.1963681287933801
 30
0.0
 11
-0.6489267866995777
 21
-4.5745416038913866
 31
0.0
  0
ARC
  5
C9
100
AcDbEntity
  8
chans
 62
256
370
-1
  6
ByLayer
100
AcDbCircle
 10
-3.5199999999999982
 20
-5.4445637897399983
 30
0.0
 40
3.0
100
AcDbArc
 50
0.0
 51
16.8583987677382652
  0
LINE
  5
CA
100
AcDbEntity
100
AcDbLine
  8
chans
 62
256
370
-1
  6
ByLayer
 10
-18.1899999999999942
 20
6.6500000000000021
 30
0.0
 11
-18.1899999999999977
 21
-7.7000000000000028
 31
0.0
  0
LINE
  5
CB
100
AcDbEntity
100
AcDbLine
  8
chans
 62
256
370
-1
  6
ByLayer
 10
-17.6899999999999977
 20
6.6499999999999959
 30
0.0
 11
-17.6899999999999977
 21
-7.700000000000002
 31
0.0
  0
LINE
  5
CC
100
AcDbEntity
100
AcDbLine
  8
chans
 62
256
370
-1
  6
ByLayer
 10
-18.1899999999999977
 20
-7.7000000000000028
 30
0.0
 11
-17.6899999999999977
 21
-7.700000000000002
 31
0.0
  0
LINE
  5
CD
100
AcDbEntity
100
AcDbLine
  8
chans
 62
256
370
-1
  6
ByLayer
 10
-16.1899999999999977
 20
4.6500000000000004
 30
0.0
 11
-16.1899999999999977
 21
-7.7000000000000028
 31
0.0
  0
LINE
  5
CE
100
AcDbEntity
100
AcDbLine
  8
chans
 62
256
370
-1
  6
ByLayer
 10
-15.6899999999999977
 20
4.6500000000000004
 30
0.0
 11
-15.6899999999999977
 21
-7.7000000000000028
 31
0.0
  0
LINE
  5
CF
100
AcDbEntity
100
AcDbLine
  8
chans
 62
256
370
-1
  6
ByLayer
 10
-16.1899999999999977
 20
-7.7000000000000028
 30
0.0
 11
-15.6899999999999977
 21
-7.7000000000000028
 31
0.0
  0
LINE
  5
D0
100
AcDbEntity
100
AcDbLine
  8
chans
 62
256
370
-1
  6
ByLayer
 10
-11.5899999999999999
 20
0.2680194846605501
 30
0.0
 11
-11.5900000000000016
 21
-7.7000000000000028
 31
0.0
  0
LINE
  5
D1
100
AcDbEntity
100
AcDbLine
  8
chans
 62
256
370
-1
  6
ByLayer
 10
-11.0899999999999999
 20
0.2680194846605515
 30
0.0
 11
-11.0900000000000016
 21
-7.7000000000000028
 31
0.0
  0
LINE
  5
D2
100
AcDbEntity
100
AcDbLine
  8
chans
 62
256
370
-1
  6
ByLayer
 10
-11.5900000000000016
 20
-7.7000000000000028
 30
0.0
 11
-11.0900000000000016
 21
-7.7000000000000028
 31
0.0
  0
LINE
  5
D3
100
AcDbEntity
100
AcDbLine
  8
chans
 62
256
370
-1
  6
ByLayer
 10
-9.3399999999999999
 20
0.1550000000000011
 30
0.0
 11
-9.3400000000000016
 21
-7.7000000000000028
 31
0.0
  0
LINE
  5
D4
100
AcDbEntity
100
AcDbLine
  8
chans
 62
256
370
-1
  6
ByLayer
 10
-8.8399999999999999
 20
0.1550000000000036
 30
0.0
 11
-8.8400000000000016
 21
-7.700000000000002
 31
0.0
  0
LINE
  5
D5
100
AcDbEntity
100
AcDbLine
  8
chans
 62
256
370
-1
  6
ByLayer
 10
-9.3400000000000016
 20
-7.7000000000000028
 30
0.0
 11
-8.8400000000000016
 21
-7.700000000000002
 31
0.0
  0
LINE
  5
D6
100
AcDbEntity
100
AcDbLine
  8
chans
 62
256
370
-1
  6
ByLayer
 10
-7.3399999999999999
 20
-7.7000000000000028
 30
0.0
 11
-7.3399999999999999
 21
-0.7749999999999986
 31
0.0
  0
LINE
  5
D7
100
AcDbEntity
100
AcDbLine
  8
chans
 62
256
370
-1
  6
ByLayer
 10
-6.8399999999999999
 20
-7.7000000000000011
 30
0.0
 11
-6.8399999999999999
 21
-0.7750000000000021
 31
0.0
  0
LINE
  5
D8
100
AcDbEntity
100
AcDbLine
  8
chans
 62
256
370
-1
  6
ByLayer
 10
-7.3399999999999999
 20
-7.7000000000000028
 30
0.0
 11
-6.8399999999999999
 21
-7.7000000000000011
 31
0.0
  0
LINE
  5
D9
100
AcDbEntity
100
AcDbLine
  8
chans
 62
256
370
-1
  6
ByLayer
 10
-4.0199999999999987
 20
-7.7000000000000028
 30
0.0
 11
-4.0199999999999987
 21
-5.5186577546966706
 31
0.0
  0
LINE
  5
DA
100
AcDbEntity
100
AcDbLine
  8
chans
 62
256
370
-1
  6
ByLayer
 10
-3.5199999999999991
 20
-7.7000000000000011
 30
0.0
 11
-3.5199999999999991
 21
-5.4445637897400019
 31
0.0
  0
LINE
  5
DB
100
AcDbEntity
100
AcDbLine
  8
chans
 62
256
370
-1
  6
ByLayer
 10
-4.0199999999999987
 20
-7.7000000000000028
 30
0.0
 11
-3.5199999999999991
 21
-7.7000000000000011
 31
0.0
  0
LINE
  5
DC
100
AcDbEntity
100
AcDbLine
  8
chans
 62
256
370
-1
  6
ByLayer
 10
-0.5199999999999987
 20
-7.7000000000000028
 30
0.0
 11
-0.5199999999999984
 21
-5.4445637897399983
 31
0.0
  0
LINE
  5
DD
100
AcDbEntity
100
AcDbLine
  8
chans
 62
256
370
-1
  6
ByLayer
 10
-0.0199999999999999
 20
-7.7000000000000028
 30
0.0
 11
-0.0199999999999998
 21
-5.5186577546966635
 31
0.0
  0
LINE
  5
DE
100
AcDbEntity
100
AcDbLine
  8
chans
 62
256
370
-1
  6
ByLayer
 10
-0.5199999999999987
 20
-7.7000000000000028
 30
0.0
 11
-0.0199999999999999
 21
-7.7000000000000028
 31
0.0
  0
LINE
  5
DF
100
AcDbEntity
100
AcDbLine
  8
chans
 62
256
370
-1
  6
ByLayer
 10
2.6999999999999997
 20
-7.7000000000000028
 30
0.0
 11
2.7000000000000002
 21
-0.7749999999999986
 31
0.0
  0
LINE
  5
E0
100
AcDbEntity
100
AcDbLine
  8
chans
 62
256
370
-1
  6
ByLayer
 10
3.1999999999999997
 20
-7.7000000000000028
 30
0.0
 11
3.2000000000000002
 21
-0.7749999999999986
 31
0.0
  0
LINE
  5
E1
100
AcDbEntity
100
AcDbLine
  8
chans
 62
256
370
-1
  6
ByLayer
 10
2.6999999999999997
 20
-7.7000000000000028
 30
0.0
 11
3.1999999999999997
 21
-7.7000000000000028
 31
0.0
  0
LINE
  5
E2
100
AcDbEntity
100
AcDbLine
  8
chans
 62
256
370
-1
  6
ByLayer
 10
4.7000000000000002
 20
0.1549999999999998
 30
0.0
 11
4.6999999999999984
 21
-7.7000000000000011
 31
0.0
  0
LINE
  5
E3
100
AcDbEntity
100
AcDbLine
  8
chans
 62
256
370
-1
  6
ByLayer
 10
5.2000000000000011
 20
0.1549999999999994
 30
0.0
 11
5.1999999999999993
 21
-7.7000000000000028
 31
0.0
  0
LINE
  5
E4
100
AcDbEntity
100
AcDbLine
  8
chans
 62
256
370
-1
  6
ByLayer
 10
4.6999999999999984
 20
-7.7000000000000011
 30
0.0
 11
5.1999999999999993
 21
-7.7000000000000028
 31
0.0
  0
LINE
  5
E5
100
AcDbEntity
100
AcDbLine
  8
chans
 62
256
370
-1
  6
ByLayer
 10
6.9500000000000011
 20
0.2680194846605355
 30
0.0
 11
6.9499999999999993
 21
-7.7000000000000028
 31
0.0
  0
LINE
  5
E6
100
AcDbEntity
100
AcDbLine
  8
chans
 62
256
370
-1
  6
ByLayer
 10
7.4500000000000011
 20
0.4751262658470821
 30
0.0
 11
7.4499999999999993
 21
-7.7000000000000046
 31
0.0
  0
LINE
  5
E7
100
AcDbEntity
100
AcDbLine
  8
chans
 62
256
370
-1
  6
ByLayer
 10
6.9499999999999993
 20
-7.7000000000000028
 30
0.0
 11
7.4499999999999993
 21
-7.7000000000000046
 31
0.0
  0
LINE
  5
E8
100
AcDbEntity
100
AcDbLine
  8
chans
 62
256
370
-1
  6
ByLayer
 10
11.5499999999999972
 20
4.6500000000000004
 30
0.0
 11
11.5499999999999972
 21
-7.7000000000000028
 31
0.0
  0
LINE
  5
E9
100
AcDbEntity
100
AcDbLine
  8
chans
 62
256
370
-1
  6
ByLayer
 10
12.0499999999999972
 20
4.6500000000000004
 30
0.0
 11
12.0499999999999972
 21
-7.7000000000000028
 31
0.0
  0
LINE
  5
EA
100
AcDbEntity
100
AcDbLine
  8
chans
 62
256
370
-1
  6
ByLayer
 10
11.5499999999999972
 20
-7.7000000000000028
 30
0.0
 11
12.0499999999999972
 21
-7.7000000000000028
 31
0.0
  0
LINE
  5
EB
100
AcDbEntity
100
AcDbLine
  8
chans
 62
256
370
-1
  6
ByLayer
 10
13.5499999999999989
 20
6.6499999999999986
 30
0.0
 11
13.5499999999999972
 21
-7.7000000000000028
 31
0.0
  0
LINE
  5
EC
100
AcDbEntity
100
AcDbLine
  8
chans
 62
256
370
-1
  6
ByLayer
 10
14.0499999999999989
 20
6.6500000000000004
 30
0.0
 11
14.0499999999999972
 21
-7.7000000000000028
 31
0.0
  0
LINE
  5
ED
100
AcDbEntity
100
AcDbLine
  8
chans
 62
256
370
-1
  6
ByLayer
 10
13.5499999999999972
 20
-7.7000000000000028
 30
0.0
 11
14.0499999999999972
 21
-7.7000000000000028
 31
0.0
  0
LINE
  5
EE
100
AcDbEntity
100
AcDbLine
  8
chans
 62
256
370
-1
  6
ByLayer
 10
15.5500000000000007
 20
8.1499999999999986
 30
0.0
 11
15.5499999999999972
 21
-7.7000000000000028
 31
0.0
  0
LINE
  5
EF
100
AcDbEntity
100
AcDbLine
  8
chans
 62
256
370
-1
  6
ByLayer
 10
16.0500000000000007
 20
8.1499999999999986
 30
0.0
 11
16.0499999999999972
 21
-7.7000000000000011
 31
0.0
  0
LINE
  5
F0
100
AcDbEntity
100
AcDbLine
  8
chans
 62
256
370
-1
  6
ByLayer
 10
15.5499999999999972
 20
-7.7000000000000028
 30
0.0
 11
16.0499999999999972
 21
-7.7000000000000011
 31
0.0
  0
ENDSEC
  0
SECTION
  2
OBJECTS
  0
DICTIONARY
  5
C
100
AcDbDictionary
280
0
281
1
  3
ACAD_GROUP
350
D
  3
ACAD_LAYOUT
350
1A
  3
ACAD_MLINESTYLE
350
17
  3
ACAD_PLOTSETTINGS
350
19
  3
ACAD_PLOTSTYLENAME
350
E
  3
AcDbVariableDictionary
350
F1
  0
DICTIONARY
  5
D
100
AcDbDictionary
280
0
281
1
  0
ACDBDICTIONARYWDFLT
  5
E
100
AcDbDictionary
281
1
  3
Normal
350
F
100
AcDbDictionaryWithDefault
340
F
  0
ACDBPLACEHOLDER
  5
F
  0
DICTIONARY
  5
17
100
AcDbDictionary
280
0
281
1
  3
Standard
350
18
  0
MLINESTYLE
  5
18
100
AcDbMlineStyle
  2
STANDARD
 70
0
  3

 62
256
 51
90.0
 52
90.0
 71
2
 49
0.5
 62
256
  6
BYLAYER
 49
-0.5
 62
256
  6
BYLAYER
  0
DICTIONARY
  5
19
100
AcDbDictionary
280
0
281
1
  0
DICTIONARY
  5
1A
100
AcDbDictionary
281
1
  3
Layout1
350
1E
  3
Layout2
350
26
  3
Model
350
22
  0
LAYOUT
  5
1E
100
AcDbPlotSettings
  1

  2
C:\Program Files\AutoCAD 2002\plotters\DWF ePlot (optimized for plotting).pc3
  4

  6

 40
0.0
 41
0.0
 42
0.0
 43
0.0
 44
0.0
 45
0.0
 46
0.0
 47
0.0
 48
0.0
 49
0.0
140
0.0
141
0.0
142
1.0
143
1.0
 70
688
 72
0
 73
0
 74
5
  7

 75
16
147
1.0
148
0.0
149
0.0
100
AcDbLayout
  1
Layout1
 70
1
 71
1
 10
0.0
 20
0.0
 11
420.0
 21
297.0
 12
0.0
 22
0.0
 32
0.0
 14
100000000000000000000.0
 24
100000000000000000000.0
 34
100000000000000000000.0
 15
-100000000000000000000.0
 25
-100000000000000000000.0
 35
-100000000000000000000.0
146
0.0
 13
0.0
 23
0.0
 33
0.0
 16
1.0
 26
0.0
 36
0.0
 17
0.0
 27
1.0
 37
0.0
 76
0
330
1B
  0
LAYOUT
  5
22
100
AcDbPlotSettings
  1

  2
C:\Program Files\AutoCAD 2002\plotters\DWF ePlot (optimized for plotting).pc3
  4

  6

 40
0.0
 41
0.0
 42
0.0
 43
0.0
 44
0.0
 45
0.0
 46
0.0
 47
0.0
 48
0.0
 49
0.0
140
0.0
141
0.0
142
1.0
143
1.0
 70
1712
 72
0
 73
0
 74
0
  7

 75
0
147
1.0
148
0.0
149
0.0
100
AcDbLayout
  1
Model
 70
1
 71
0
 10
0.0
 20
0.0
 11
12.0
 21
9.0
 12
0.0
 22
0.0
 32
0.0
 14
0.0
 24
0.0
 34
0.0
 15
0.0
 25
0.0
 35
0.0
146
0.0
 13
0.0
 23
0.0
 33
0.0
 16
1.0
 26
0.0
 36
0.0
 17
0.0
 27
1.0
 37
0.0
 76
0
330
1F
  0
LAYOUT
  5
26
100
AcDbPlotSettings
  1

  2
C:\Program Files\AutoCAD 2002\plotters\DWF ePlot (optimized for plotting).pc3
  4

  6

 40
0.0
 41
0.0
 42
0.0
 43
0.0
 44
0.0
 45
0.0
 46
0.0
 47
0.0
 48
0.0
 49
0.0
140
0.0
141
0.0
142
1.0
143
1.0
 70
688
 72
0
 73
0
 74
5
  7

 75
16
147
1.0
148
0.0
149
0.0
100
AcDbLayout
  1
Layout2
 70
1
 71
2
 10
0.0
 20
0.0
 11
12.0
 21
9.0
 12
0.0
 22
0.0
 32
0.0
 14
0.0
 24
0.0
 34
0.0
 15
0.0
 25
0.0
 35
0.0
146
0.0
 13
0.0
 23
0.0
 33
0.0
 16
1.0
 26
0.0
 36
0.0
 17
0.0
 27
1.0
 37
0.0
 76
0
330
23
  0
DICTIONARY
  5
F1
100
AcDbDictionary
281
1
  3
DIMASSOC
350
F3
  3
HIDETEXT
350
F2
  0
DICTIONARYVAR
  5
F2
100
DictionaryVariables
280
0
  1
2
  0
DICTIONARYVAR
  5
F3
100
DictionaryVariables
280
0
  1
1
  0
ENDSEC
  0
EOF
