  0
SECTION
  2
HEADER
  9
$ANGBASE
  50
0.0
  9
$ANGDIR
  70
  1
  9
$MEASUREMENT
  70
0
  0
ENDSEC
  0
SECTION
  2
TABLES
  0
TABLE
  2
LTYPE
  70
1
  0
LTYPE
  2
CONTINUOUS
  70
0
  3
Solid line
  72
65
  73
0
  40
0.0
  0
ENDTAB
  0
TABLE
  2
STYLE
  70
4
  0
STYLE
  2
KICAD
  70
0
  40
0
  41
1
  42
1
  50
0
  71
0
  3
isocp.shx
  0
STYLE
  2
KICADB
  70
0
  40
0
  41
1
  42
1
  50
0
  71
0
  3
isocp.shx
  0
STYLE
  2
KICADI
  70
0
  40
0
  41
1
  42
1
  50
15
  71
0
  3
isocp.shx
  0
STYLE
  2
KICADBI
  70
0
  40
0
  41
1
  42
1
  50
15
  71
0
  3
isocp.shx
  0
ENDTAB
  0
TABLE
  2
LAYER
  70
30
  0
LAYER
  2
BLACK
  70
0
  62
7
  6
CONTINUOUS
  0
LAYER
  2
GRAY1
  70
0
  62
251
  6
CONTINUOUS
  0
LAYER
  2
GRAY2
  70
0
  62
8
  6
CONTINUOUS
  0
LAYER
  2
GRAY3
  70
0
  62
9
  6
CONTINUOUS
  0
LAYER
  2
WHITE
  70
0
  62
7
  6
CONTINUOUS
  0
LAYER
  2
LYELLOW
  70
0
  62
51
  6
CONTINUOUS
  0
LAYER
  2
BLUE1
  70
0
  62
178
  6
CONTINUOUS
  0
LAYER
  2
GREEN1
  70
0
  62
98
  6
CONTINUOUS
  0
LAYER
  2
CYAN1
  70
0
  62
138
  6
CONTINUOUS
  0
LAYER
  2
RED1
  70
0
  62
18
  6
CONTINUOUS
  0
LAYER
  2
MAGENTA1
  70
0
  62
228
  6
CONTINUOUS
  0
LAYER
  2
BROWN1
  70
0
  62
58
  6
CONTINUOUS
  0
LAYER
  2
BLUE2
  70
0
  62
5
  6
CONTINUOUS
  0
LAYER
  2
GREEN2
  70
0
  62
3
  6
CONTINUOUS
  0
LAYER
  2
CYAN2
  70
0
  62
4
  6
CONTINUOUS
  0
LAYER
  2
RED2
  70
0
  62
1
  6
CONTINUOUS
  0
LAYER
  2
MAGENTA2
  70
0
  62
6
  6
CONTINUOUS
  0
LAYER
  2
BROWN2
  70
0
  62
54
  6
CONTINUOUS
  0
LAYER
  2
BLUE3
  70
0
  62
171
  6
CONTINUOUS
  0
LAYER
  2
GREEN3
  70
0
  62
91
  6
CONTINUOUS
  0
LAYER
  2
CYAN3
  70
0
  62
131
  6
CONTINUOUS
  0
LAYER
  2
RED3
  70
0
  62
11
  6
CONTINUOUS
  0
LAYER
  2
MAGENTA3
  70
0
  62
221
  6
CONTINUOUS
  0
LAYER
  2
YELLOW3
  70
0
  62
2
  6
CONTINUOUS
  0
LAYER
  2
BLUE4
  70
0
  62
5
  6
CONTINUOUS
  0
LAYER
  2
GREEN4
  70
0
  62
3
  6
CONTINUOUS
  0
LAYER
  2
CYAN4
  70
0
  62
4
  6
CONTINUOUS
  0
LAYER
  2
RED4
  70
0
  62
1
  6
CONTINUOUS
  0
LAYER
  2
MAGENTA4
  70
0
  62
6
  6
CONTINUOUS
  0
LAYER
  2
YELLOW4
  70
0
  62
2
  6
CONTINUOUS
  0
ENDTAB
  0
ENDSEC
  0
SECTION
  2
ENTITIES
0
LINE
8
Black
10
34.2857
20
-63.5492
11
34.2813
21
-63.5492
0
LINE
8
Black
10
34.2813
20
-63.5492
11
34.2772
21
-63.5477
0
LINE
8
Black
10
34.2772
20
-63.5477
11
34.2729
21
-63.547
0
LINE
8
Black
10
34.2729
20
-63.547
11
34.2691
21
-63.5448
0
LINE
8
Black
10
34.2691
20
-63.5448
11
34.265
21
-63.5433
0
LINE
8
Black
10
34.265
20
-63.5433
11
34.2616
21
-63.5405
0
LINE
8
Black
10
34.2616
20
-63.5405
11
34.2579
21
-63.5383
0
LINE
8
Black
10
34.2579
20
-63.5383
11
34.255
21
-63.5349
0
LINE
8
Black
10
34.255
20
-63.5349
11
34.2517
21
-63.5321
0
LINE
8
Black
10
34.2517
20
-63.5321
11
34.2495
21
-63.5283
0
LINE
8
Black
10
34.2495
20
-63.5283
11
34.2467
21
-63.525
0
LINE
8
Black
10
34.2467
20
-63.525
11
34.2452
21
-63.5209
0
LINE
8
Black
10
34.2452
20
-63.5209
11
34.243
21
-63.5171
0
LINE
8
Black
10
34.243
20
-63.5171
11
34.2423
21
-63.5128
0
LINE
8
Black
10
34.2423
20
-63.5128
11
34.2408
21
-63.5087
0
LINE
8
Black
10
34.2408
20
-63.5087
11
34.2408
21
-63.5043
0
LINE
8
Black
10
34.2408
20
-63.5043
11
34.24
21
-63.5
0
LINE
8
Black
10
34.24
20
-63.5
11
34.24
21
-52.07
0
LINE
8
Black
10
34.24
20
-52.07
11
34.2408
21
-52.0657
0
LINE
8
Black
10
34.2408
20
-52.0657
11
34.2408
21
-52.0613
0
LINE
8
Black
10
34.2408
20
-52.0613
11
34.2423
21
-52.0572
0
LINE
8
Black
10
34.2423
20
-52.0572
11
34.243
21
-52.0529
0
LINE
8
Black
10
34.243
20
-52.0529
11
34.2452
21
-52.0491
0
LINE
8
Black
10
34.2452
20
-52.0491
11
34.2467
21
-52.045
0
LINE
8
Black
10
34.2467
20
-52.045
11
34.2495
21
-52.0416
0
LINE
8
Black
10
34.2495
20
-52.0416
11
34.2517
21
-52.0379
0
LINE
8
Black
10
34.2517
20
-52.0379
11
34.255
21
-52.035
0
LINE
8
Black
10
34.255
20
-52.035
11
34.2579
21
-52.0317
0
LINE
8
Black
10
34.2579
20
-52.0317
11
34.2616
21
-52.0295
0
LINE
8
Black
10
34.2616
20
-52.0295
11
34.265
21
-52.0267
0
LINE
8
Black
10
34.265
20
-52.0267
11
34.2691
21
-52.0252
0
LINE
8
Black
10
34.2691
20
-52.0252
11
34.2729
21
-52.023
0
LINE
8
Black
10
34.2729
20
-52.023
11
34.2772
21
-52.0223
0
LINE
8
Black
10
34.2772
20
-52.0223
11
34.2813
21
-52.0208
0
LINE
8
Black
10
34.2813
20
-52.0208
11
34.2857
21
-52.0208
0
LINE
8
Black
10
34.2857
20
-52.0208
11
34.29
21
-52.02
0
LINE
8
Black
10
34.29
20
-52.02
11
38.05
21
-52.02
0
LINE
8
Black
10
38.05
20
-52.02
11
38.05
21
-33.02
0
LINE
8
Black
10
38.05
20
-33.02
11
38.0508
21
-33.0157
0
LINE
8
Black
10
38.0508
20
-33.0157
11
38.0508
21
-33.0113
0
LINE
8
Black
10
38.0508
20
-33.0113
11
38.0523
21
-33.0072
0
LINE
8
Black
10
38.0523
20
-33.0072
11
38.053
21
-33.0029
0
LINE
8
Black
10
38.053
20
-33.0029
11
38.0552
21
-32.9991
0
LINE
8
Black
10
38.0552
20
-32.9991
11
38.0567
21
-32.995
0
LINE
8
Black
10
38.0567
20
-32.995
11
38.0595
21
-32.9916
0
LINE
8
Black
10
38.0595
20
-32.9916
11
38.0617
21
-32.9879
0
LINE
8
Black
10
38.0617
20
-32.9879
11
38.065
21
-32.985
0
LINE
8
Black
10
38.065
20
-32.985
11
38.0679
21
-32.9817
0
LINE
8
Black
10
38.0679
20
-32.9817
11
38.0716
21
-32.9795
0
LINE
8
Black
10
38.0716
20
-32.9795
11
38.075
21
-32.9767
0
LINE
8
Black
10
38.075
20
-32.9767
11
38.0791
21
-32.9752
0
LINE
8
Black
10
38.0791
20
-32.9752
11
38.0829
21
-32.973
0
LINE
8
Black
10
38.0829
20
-32.973
11
38.0872
21
-32.9723
0
LINE
8
Black
10
38.0872
20
-32.9723
11
38.0913
21
-32.9708
0
LINE
8
Black
10
38.0913
20
-32.9708
11
38.0957
21
-32.9708
0
LINE
8
Black
10
38.0957
20
-32.9708
11
38.1
21
-32.97
0
LINE
8
Black
10
38.1
20
-32.97
11
54.61
21
-32.97
0
LINE
8
Black
10
54.61
20
-32.97
11
54.6143
21
-32.9708
0
LINE
8
Black
10
54.6143
20
-32.9708
11
54.6187
21
-32.9708
0
LINE
8
Black
10
54.6187
20
-32.9708
11
54.6228
21
-32.9723
0
LINE
8
Black
10
54.6228
20
-32.9723
11
54.6271
21
-32.973
0
LINE
8
Black
10
54.6271
20
-32.973
11
54.6309
21
-32.9752
0
LINE
8
Black
10
54.6309
20
-32.9752
11
54.635
21
-32.9767
0
LINE
8
Black
10
54.635
20
-32.9767
11
54.6383
21
-32.9795
0
LINE
8
Black
10
54.6383
20
-32.9795
11
54.6421
21
-32.9817
0
LINE
8
Black
10
54.6421
20
-32.9817
11
54.6449
21
-32.985
0
LINE
8
Black
10
54.6449
20
-32.985
11
54.6483
21
-32.9879
0
LINE
8
Black
10
54.6483
20
-32.9879
11
54.6505
21
-32.9916
0
LINE
8
Black
10
54.6505
20
-32.9916
11
54.6533
21
-32.995
0
LINE
8
Black
10
54.6533
20
-32.995
11
54.6548
21
-32.9991
0
LINE
8
Black
10
54.6548
20
-32.9991
11
54.657
21
-33.0029
0
LINE
8
Black
10
54.657
20
-33.0029
11
54.6577
21
-33.0072
0
LINE
8
Black
10
54.6577
20
-33.0072
11
54.6592
21
-33.0113
0
LINE
8
Black
10
54.6592
20
-33.0113
11
54.6592
21
-33.0157
0
LINE
8
Black
10
54.6592
20
-33.0157
11
54.66
21
-33.02
0
LINE
8
Black
10
54.66
20
-33.02
11
54.66
21
-52.02
0
LINE
8
Black
10
54.66
20
-52.02
11
58.42
21
-52.02
0
LINE
8
Black
10
58.42
20
-52.02
11
58.4243
21
-52.0208
0
LINE
8
Black
10
58.4243
20
-52.0208
11
58.4287
21
-52.0208
0
LINE
8
Black
10
58.4287
20
-52.0208
11
58.4328
21
-52.0223
0
LINE
8
Black
10
58.4328
20
-52.0223
11
58.4371
21
-52.023
0
LINE
8
Black
10
58.4371
20
-52.023
11
58.4409
21
-52.0252
0
LINE
8
Black
10
58.4409
20
-52.0252
11
58.445
21
-52.0267
0
LINE
8
Black
10
58.445
20
-52.0267
11
58.4483
21
-52.0295
0
LINE
8
Black
10
58.4483
20
-52.0295
11
58.4521
21
-52.0317
0
LINE
8
Black
10
58.4521
20
-52.0317
11
58.4549
21
-52.035
0
LINE
8
Black
10
58.4549
20
-52.035
11
58.4583
21
-52.0379
0
LINE
8
Black
10
58.4583
20
-52.0379
11
58.4605
21
-52.0416
0
LINE
8
Black
10
58.4605
20
-52.0416
11
58.4633
21
-52.045
0
LINE
8
Black
10
58.4633
20
-52.045
11
58.4648
21
-52.0491
0
LINE
8
Black
10
58.4648
20
-52.0491
11
58.467
21
-52.0529
0
LINE
8
Black
10
58.467
20
-52.0529
11
58.4677
21
-52.0572
0
LINE
8
Black
10
58.4677
20
-52.0572
11
58.4692
21
-52.0613
0
LINE
8
Black
10
58.4692
20
-52.0613
11
58.4692
21
-52.0657
0
LINE
8
Black
10
58.4692
20
-52.0657
11
58.47
21
-52.07
0
LINE
8
Black
10
58.47
20
-52.07
11
58.47
21
-63.5
0
LINE
8
Black
10
58.47
20
-63.5
11
58.4692
21
-63.5043
0
LINE
8
Black
10
58.4692
20
-63.5043
11
58.4692
21
-63.5087
0
LINE
8
Black
10
58.4692
20
-63.5087
11
58.4677
21
-63.5128
0
LINE
8
Black
10
58.4677
20
-63.5128
11
58.467
21
-63.5171
0
LINE
8
Black
10
58.467
20
-63.5171
11
58.4648
21
-63.5209
0
LINE
8
Black
10
58.4648
20
-63.5209
11
58.4633
21
-63.525
0
LINE
8
Black
10
58.4633
20
-63.525
11
58.4605
21
-63.5283
0
LINE
8
Black
10
58.4605
20
-63.5283
11
58.4583
21
-63.5321
0
LINE
8
Black
10
58.4583
20
-63.5321
11
58.4549
21
-63.5349
0
LINE
8
Black
10
58.4549
20
-63.5349
11
58.4521
21
-63.5383
0
LINE
8
Black
10
58.4521
20
-63.5383
11
58.4483
21
-63.5405
0
LINE
8
Black
10
58.4483
20
-63.5405
11
58.445
21
-63.5433
0
LINE
8
Black
10
58.445
20
-63.5433
11
58.4409
21
-63.5448
0
LINE
8
Black
10
58.4409
20
-63.5448
11
58.4371
21
-63.547
0
LINE
8
Black
10
58.4371
20
-63.547
11
58.4328
21
-63.5477
0
LINE
8
Black
10
58.4328
20
-63.5477
11
58.4287
21
-63.5492
0
LINE
8
Black
10
58.4287
20
-63.5492
11
58.4243
21
-63.5492
0
LINE
8
Black
10
58.4243
20
-63.5492
11
58.42
21
-63.55
0
LINE
8
Black
10
58.42
20
-63.55
11
34.29
21
-63.55
0
LINE
8
Black
10
34.29
20
-63.55
11
34.2857
21
-63.5492
0
LINE
8
Black
10
58.37
20
-52.12
11
54.61
21
-52.12
0
LINE
8
Black
10
54.61
20
-52.12
11
54.6057
21
-52.1192
0
LINE
8
Black
10
54.6057
20
-52.1192
11
54.6013
21
-52.1192
0
LINE
8
Black
10
54.6013
20
-52.1192
11
54.5972
21
-52.1177
0
LINE
8
Black
10
54.5972
20
-52.1177
11
54.5929
21
-52.117
0
LINE
8
Black
10
54.5929
20
-52.117
11
54.5891
21
-52.1148
0
LINE
8
Black
10
54.5891
20
-52.1148
11
54.585
21
-52.1133
0
LINE
8
Black
10
54.585
20
-52.1133
11
54.5816
21
-52.1105
0
LINE
8
Black
10
54.5816
20
-52.1105
11
54.5779
21
-52.1083
0
LINE
8
Black
10
54.5779
20
-52.1083
11
54.575
21
-52.1049
0
LINE
8
Black
10
54.575
20
-52.1049
11
54.5717
21
-52.1021
0
LINE
8
Black
10
54.5717
20
-52.1021
11
54.5695
21
-52.0983
0
LINE
8
Black
10
54.5695
20
-52.0983
11
54.5667
21
-52.095
0
LINE
8
Black
10
54.5667
20
-52.095
11
54.5652
21
-52.0909
0
LINE
8
Black
10
54.5652
20
-52.0909
11
54.563
21
-52.0871
0
LINE
8
Black
10
54.563
20
-52.0871
11
54.5623
21
-52.0828
0
LINE
8
Black
10
54.5623
20
-52.0828
11
54.5608
21
-52.0787
0
LINE
8
Black
10
54.5608
20
-52.0787
11
54.5608
21
-52.0743
0
LINE
8
Black
10
54.5608
20
-52.0743
11
54.56
21
-52.07
0
LINE
8
Black
10
54.56
20
-52.07
11
54.56
21
-33.07
0
LINE
8
Black
10
54.56
20
-33.07
11
38.15
21
-33.07
0
LINE
8
Black
10
38.15
20
-33.07
11
38.15
21
-52.07
0
LINE
8
Black
10
38.15
20
-52.07
11
38.1492
21
-52.0743
0
LINE
8
Black
10
38.1492
20
-52.0743
11
38.1492
21
-52.0787
0
LINE
8
Black
10
38.1492
20
-52.0787
11
38.1477
21
-52.0828
0
LINE
8
Black
10
38.1477
20
-52.0828
11
38.147
21
-52.0871
0
LINE
8
Black
10
38.147
20
-52.0871
11
38.1448
21
-52.0909
0
LINE
8
Black
10
38.1448
20
-52.0909
11
38.1433
21
-52.095
0
LINE
8
Black
10
38.1433
20
-52.095
11
38.1405
21
-52.0983
0
LINE
8
Black
10
38.1405
20
-52.0983
11
38.1383
21
-52.1021
0
LINE
8
Black
10
38.1383
20
-52.1021
11
38.1349
21
-52.1049
0
LINE
8
Black
10
38.1349
20
-52.1049
11
38.1321
21
-52.1083
0
LINE
8
Black
10
38.1321
20
-52.1083
11
38.1283
21
-52.1105
0
LINE
8
Black
10
38.1283
20
-52.1105
11
38.125
21
-52.1133
0
LINE
8
Black
10
38.125
20
-52.1133
11
38.1209
21
-52.1148
0
LINE
8
Black
10
38.1209
20
-52.1148
11
38.1171
21
-52.117
0
LINE
8
Black
10
38.1171
20
-52.117
11
38.1128
21
-52.1177
0
LINE
8
Black
10
38.1128
20
-52.1177
11
38.1087
21
-52.1192
0
LINE
8
Black
10
38.1087
20
-52.1192
11
38.1043
21
-52.1192
0
LINE
8
Black
10
38.1043
20
-52.1192
11
38.1
21
-52.12
0
LINE
8
Black
10
38.1
20
-52.12
11
34.34
21
-52.12
0
LINE
8
Black
10
34.34
20
-52.12
11
34.34
21
-63.45
0
LINE
8
Black
10
34.34
20
-63.45
11
58.37
21
-63.45
0
LINE
8
Black
10
58.37
20
-63.45
11
58.37
21
-52.12
0
CIRCLE
8
Black
10
39.37
20
-59.69
40
0.508
0
CIRCLE
8
Black
10
39.37
20
-57.15
40
0.508
0
CIRCLE
8
Black
10
41.91
20
-59.69
40
0.508
0
CIRCLE
8
Black
10
41.91
20
-57.15
40
0.508
0
CIRCLE
8
Black
10
44.45
20
-59.69
40
0.508
0
CIRCLE
8
Black
10
44.45
20
-57.15
40
0.508
0
CIRCLE
8
Black
10
46.99
20
-59.69
40
0.508
0
CIRCLE
8
Black
10
46.99
20
-57.15
40
0.508
0
CIRCLE
8
Black
10
49.53
20
-59.69
40
0.508
0
CIRCLE
8
Black
10
49.53
20
-57.15
40
0.508
0
CIRCLE
8
Black
10
52.07
20
-59.69
40
0.508
0
CIRCLE
8
Black
10
52.07
20
-57.15
40
0.508
0
CIRCLE
8
Black
10
54.61
20
-59.69
40
0.508
0
CIRCLE
8
Black
10
54.61
20
-57.15
40
0.508
0
LINE
8
Black
10
40.2336
20
-60.5536
11
38.5064
21
-60.5536
0
LINE
8
Black
10
38.5064
20
-60.5536
11
38.5064
21
-58.8264
0
LINE
8
Black
10
38.5064
20
-58.8264
11
40.2336
21
-58.8264
0
LINE
8
Black
10
40.2336
20
-58.8264
11
40.2336
21
-60.5536
0
LINE
8
Black
10
42.3418
20
-58.9388
11
42.5716
21
-59.1316
0
LINE
8
Black
10
42.5716
20
-59.1316
11
42.7215
21
-59.3913
0
LINE
8
Black
10
42.7215
20
-59.3913
11
42.7736
21
-59.6867
0
LINE
8
Black
10
42.7736
20
-59.6867
11
42.7736
21
-59.6933
0
LINE
8
Black
10
42.7736
20
-59.6933
11
42.7215
21
-59.9887
0
LINE
8
Black
10
42.7215
20
-59.9887
11
42.5716
21
-60.2484
0
LINE
8
Black
10
42.5716
20
-60.2484
11
42.3418
21
-60.4412
0
LINE
8
Black
10
42.3418
20
-60.4412
11
42.06
21
-60.5438
0
LINE
8
Black
10
42.06
20
-60.5438
11
41.76
21
-60.5438
0
LINE
8
Black
10
41.76
20
-60.5438
11
41.4782
21
-60.4412
0
LINE
8
Black
10
41.4782
20
-60.4412
11
41.2484
21
-60.2484
0
LINE
8
Black
10
41.2484
20
-60.2484
11
41.0985
21
-59.9887
0
LINE
8
Black
10
41.0985
20
-59.9887
11
41.0464
21
-59.6933
0
LINE
8
Black
10
41.0464
20
-59.6933
11
41.0464
21
-59.6867
0
LINE
8
Black
10
41.0464
20
-59.6867
11
41.0985
21
-59.3913
0
LINE
8
Black
10
41.0985
20
-59.3913
11
41.2484
21
-59.1316
0
LINE
8
Black
10
41.2484
20
-59.1316
11
41.4782
21
-58.9388
0
LINE
8
Black
10
41.4782
20
-58.9388
11
41.76
21
-58.8362
0
LINE
8
Black
10
41.76
20
-58.8362
11
42.06
21
-58.8362
0
LINE
8
Black
10
42.06
20
-58.8362
11
42.3418
21
-58.9388
0
LINE
8
Black
10
44.45
20
-40.12
11
43.7047
21
-40.12
0
LINE
8
Black
10
43.7047
20
-40.12
11
43.6924
21
-40.1257
0
LINE
8
Black
10
43.6924
20
-40.1257
11
43.6491
21
-40.1295
0
LINE
8
Black
10
43.6491
20
-40.1295
11
43.6136
21
-40.12
0
LINE
8
Black
10
43.6136
20
-40.12
11
42.35
21
-40.12
0
LINE
8
Black
10
42.35
20
-40.12
11
42.35
21
-39.87
0
LINE
8
Black
10
42.35
20
-39.87
11
41.5868
21
-39.87
0
LINE
8
Black
10
41.5868
20
-39.87
11
41.3634
21
-40.0934
0
LINE
8
Black
10
41.3634
20
-40.0934
11
41.3634
21
-40.0934
0
LINE
8
Black
10
41.3634
20
-40.0934
11
41.3634
21
-40.0934
0
LINE
8
Black
10
41.3634
20
-40.0934
11
40.1375
21
-41.3193
0
LINE
8
Black
10
40.1375
20
-41.3193
11
40.1375
21
-53.2957
0
LINE
8
Black
10
40.1375
20
-53.2957
11
40.7284
21
-53.8866
0
LINE
8
Black
10
40.7284
20
-53.8866
11
41.9984
21
-55.1566
0
LINE
8
Black
10
41.9984
20
-55.1566
11
42.0015
21
-55.1611
0
LINE
8
Black
10
42.0015
20
-55.1611
11
42.0058
21
-55.1647
0
LINE
8
Black
10
42.0058
20
-55.1647
11
42.0139
21
-55.1788
0
LINE
8
Black
10
42.0139
20
-55.1788
11
42.0233
21
-55.1922
0
LINE
8
Black
10
42.0233
20
-55.1922
11
42.0247
21
-55.1975
0
LINE
8
Black
10
42.0247
20
-55.1975
11
42.0275
21
-55.2022
0
LINE
8
Black
10
42.0275
20
-55.2022
11
42.0303
21
-55.2183
0
LINE
8
Black
10
42.0303
20
-55.2183
11
42.0345
21
-55.2341
0
LINE
8
Black
10
42.0345
20
-55.2341
11
42.034
21
-55.2396
0
LINE
8
Black
10
42.034
20
-55.2396
11
42.035
21
-55.245
0
LINE
8
Black
10
42.035
20
-55.245
11
42.035
21
-56.2962
0
LINE
8
Black
10
42.035
20
-56.2962
11
42.06
21
-56.2962
0
LINE
8
Black
10
42.06
20
-56.2962
11
42.3418
21
-56.3988
0
LINE
8
Black
10
42.3418
20
-56.3988
11
42.5716
21
-56.5916
0
LINE
8
Black
10
42.5716
20
-56.5916
11
42.7215
21
-56.8513
0
LINE
8
Black
10
42.7215
20
-56.8513
11
42.7736
21
-57.1467
0
LINE
8
Black
10
42.7736
20
-57.1467
11
42.7736
21
-57.1533
0
LINE
8
Black
10
42.7736
20
-57.1533
11
42.7215
21
-57.4487
0
LINE
8
Black
10
42.7215
20
-57.4487
11
42.5716
21
-57.7084
0
LINE
8
Black
10
42.5716
20
-57.7084
11
42.3418
21
-57.9012
0
LINE
8
Black
10
42.3418
20
-57.9012
11
42.06
21
-58.0038
0
LINE
8
Black
10
42.06
20
-58.0038
11
41.76
21
-58.0038
0
LINE
8
Black
10
41.76
20
-58.0038
11
41.4782
21
-57.9012
0
LINE
8
Black
10
41.4782
20
-57.9012
11
41.2484
21
-57.7084
0
LINE
8
Black
10
41.2484
20
-57.7084
11
41.0985
21
-57.4487
0
LINE
8
Black
10
41.0985
20
-57.4487
11
41.0464
21
-57.1533
0
LINE
8
Black
10
41.0464
20
-57.1533
11
41.0464
21
-57.1467
0
LINE
8
Black
10
41.0464
20
-57.1467
11
41.0985
21
-56.8513
0
LINE
8
Black
10
41.0985
20
-56.8513
11
41.2484
21
-56.5916
0
LINE
8
Black
10
41.2484
20
-56.5916
11
41.4782
21
-56.3988
0
LINE
8
Black
10
41.4782
20
-56.3988
11
41.76
21
-56.2962
0
LINE
8
Black
10
41.76
20
-56.2962
11
41.785
21
-56.2962
0
LINE
8
Black
10
41.785
20
-56.2962
11
41.785
21
-55.2968
0
LINE
8
Black
10
41.785
20
-55.2968
11
39.9241
21
-53.4359
0
LINE
8
Black
10
39.9241
20
-53.4359
11
39.921
21
-53.4314
0
LINE
8
Black
10
39.921
20
-53.4314
11
39.9167
21
-53.4278
0
LINE
8
Black
10
39.9167
20
-53.4278
11
39.9086
21
-53.4137
0
LINE
8
Black
10
39.9086
20
-53.4137
11
39.8992
21
-53.4003
0
LINE
8
Black
10
39.8992
20
-53.4003
11
39.8978
21
-53.395
0
LINE
8
Black
10
39.8978
20
-53.395
11
39.895
21
-53.3903
0
LINE
8
Black
10
39.895
20
-53.3903
11
39.8922
21
-53.3742
0
LINE
8
Black
10
39.8922
20
-53.3742
11
39.888
21
-53.3584
0
LINE
8
Black
10
39.888
20
-53.3584
11
39.8885
21
-53.3529
0
LINE
8
Black
10
39.8885
20
-53.3529
11
39.8875
21
-53.3475
0
LINE
8
Black
10
39.8875
20
-53.3475
11
39.8875
21
-41.2675
0
LINE
8
Black
10
39.8875
20
-41.2675
11
39.8885
21
-41.2621
0
LINE
8
Black
10
39.8885
20
-41.2621
11
39.888
21
-41.2566
0
LINE
8
Black
10
39.888
20
-41.2566
11
39.8922
21
-41.2408
0
LINE
8
Black
10
39.8922
20
-41.2408
11
39.895
21
-41.2247
0
LINE
8
Black
10
39.895
20
-41.2247
11
39.8978
21
-41.22
0
LINE
8
Black
10
39.8978
20
-41.22
11
39.8992
21
-41.2147
0
LINE
8
Black
10
39.8992
20
-41.2147
11
39.9086
21
-41.2013
0
LINE
8
Black
10
39.9086
20
-41.2013
11
39.9167
21
-41.1871
0
LINE
8
Black
10
39.9167
20
-41.1871
11
39.921
21
-41.1836
0
LINE
8
Black
10
39.921
20
-41.1836
11
39.9241
21
-41.1791
0
LINE
8
Black
10
39.9241
20
-41.1791
11
40.5516
21
-40.5516
0
LINE
8
Black
10
40.5516
20
-40.5516
11
41.1866
21
-39.9166
0
LINE
8
Black
10
41.1866
20
-39.9166
11
41.4466
21
-39.6566
0
LINE
8
Black
10
41.4466
20
-39.6566
11
41.4511
21
-39.6535
0
LINE
8
Black
10
41.4511
20
-39.6535
11
41.4547
21
-39.6492
0
LINE
8
Black
10
41.4547
20
-39.6492
11
41.4688
21
-39.6411
0
LINE
8
Black
10
41.4688
20
-39.6411
11
41.4822
21
-39.6317
0
LINE
8
Black
10
41.4822
20
-39.6317
11
41.4875
21
-39.6303
0
LINE
8
Black
10
41.4875
20
-39.6303
11
41.4922
21
-39.6275
0
LINE
8
Black
10
41.4922
20
-39.6275
11
41.5083
21
-39.6247
0
LINE
8
Black
10
41.5083
20
-39.6247
11
41.5241
21
-39.6205
0
LINE
8
Black
10
41.5241
20
-39.6205
11
41.5296
21
-39.621
0
LINE
8
Black
10
41.5296
20
-39.621
11
41.535
21
-39.62
0
LINE
8
Black
10
41.535
20
-39.62
11
42.35
21
-39.62
0
LINE
8
Black
10
42.35
20
-39.62
11
42.35
21
-39.37
0
LINE
8
Black
10
42.35
20
-39.37
11
44.45
21
-39.37
0
LINE
8
Black
10
44.45
20
-39.37
11
44.45
21
-40.12
0
LINE
8
Black
10
44.45
20
-42.92
11
42.35
21
-42.92
0
LINE
8
Black
10
42.35
20
-42.92
11
42.35
21
-42.67
0
LINE
8
Black
10
42.35
20
-42.67
11
41.9618
21
-42.67
0
LINE
8
Black
10
41.9618
20
-42.67
11
41.3634
21
-43.2684
0
LINE
8
Black
10
41.3634
20
-43.2684
11
41.3634
21
-43.2684
0
LINE
8
Black
10
41.3634
20
-43.2684
11
41.3634
21
-43.2684
0
LINE
8
Black
10
41.3634
20
-43.2684
11
40.765
21
-43.8668
0
LINE
8
Black
10
40.765
20
-43.8668
11
40.765
21
-52.6532
0
LINE
8
Black
10
40.765
20
-52.6532
11
43.2684
21
-55.1566
0
LINE
8
Black
10
43.2684
20
-55.1566
11
43.2684
21
-55.1566
0
LINE
8
Black
10
43.2684
20
-55.1566
11
44.408
21
-56.2962
0
LINE
8
Black
10
44.408
20
-56.2962
11
44.6
21
-56.2962
0
LINE
8
Black
10
44.6
20
-56.2962
11
44.8818
21
-56.3988
0
LINE
8
Black
10
44.8818
20
-56.3988
11
45.1116
21
-56.5916
0
LINE
8
Black
10
45.1116
20
-56.5916
11
45.2615
21
-56.8513
0
LINE
8
Black
10
45.2615
20
-56.8513
11
45.3136
21
-57.1467
0
LINE
8
Black
10
45.3136
20
-57.1467
11
45.3136
21
-57.1533
0
LINE
8
Black
10
45.3136
20
-57.1533
11
45.2615
21
-57.4487
0
LINE
8
Black
10
45.2615
20
-57.4487
11
45.1116
21
-57.7084
0
LINE
8
Black
10
45.1116
20
-57.7084
11
44.8818
21
-57.9012
0
LINE
8
Black
10
44.8818
20
-57.9012
11
44.6
21
-58.0038
0
LINE
8
Black
10
44.6
20
-58.0038
11
44.3
21
-58.0038
0
LINE
8
Black
10
44.3
20
-58.0038
11
44.0182
21
-57.9012
0
LINE
8
Black
10
44.0182
20
-57.9012
11
43.7884
21
-57.7084
0
LINE
8
Black
10
43.7884
20
-57.7084
11
43.6385
21
-57.4487
0
LINE
8
Black
10
43.6385
20
-57.4487
11
43.5864
21
-57.1533
0
LINE
8
Black
10
43.5864
20
-57.1533
11
43.5864
21
-57.1467
0
LINE
8
Black
10
43.5864
20
-57.1467
11
43.6385
21
-56.8513
0
LINE
8
Black
10
43.6385
20
-56.8513
11
43.7884
21
-56.5916
0
LINE
8
Black
10
43.7884
20
-56.5916
11
44.0182
21
-56.3988
0
LINE
8
Black
10
44.0182
20
-56.3988
11
44.12
21
-56.3618
0
LINE
8
Black
10
44.12
20
-56.3618
11
43.0916
21
-55.3334
0
LINE
8
Black
10
43.0916
20
-55.3334
11
43.0916
21
-55.3334
0
LINE
8
Black
10
43.0916
20
-55.3334
11
43.0916
21
-55.3334
0
LINE
8
Black
10
43.0916
20
-55.3334
11
40.5516
21
-52.7934
0
LINE
8
Black
10
40.5516
20
-52.7934
11
40.5485
21
-52.7889
0
LINE
8
Black
10
40.5485
20
-52.7889
11
40.5442
21
-52.7853
0
LINE
8
Black
10
40.5442
20
-52.7853
11
40.5361
21
-52.7712
0
LINE
8
Black
10
40.5361
20
-52.7712
11
40.5267
21
-52.7578
0
LINE
8
Black
10
40.5267
20
-52.7578
11
40.5253
21
-52.7525
0
LINE
8
Black
10
40.5253
20
-52.7525
11
40.5225
21
-52.7478
0
LINE
8
Black
10
40.5225
20
-52.7478
11
40.5197
21
-52.7317
0
LINE
8
Black
10
40.5197
20
-52.7317
11
40.5155
21
-52.7159
0
LINE
8
Black
10
40.5155
20
-52.7159
11
40.516
21
-52.7104
0
LINE
8
Black
10
40.516
20
-52.7104
11
40.515
21
-52.705
0
LINE
8
Black
10
40.515
20
-52.705
11
40.515
21
-43.815
0
LINE
8
Black
10
40.515
20
-43.815
11
40.516
21
-43.8096
0
LINE
8
Black
10
40.516
20
-43.8096
11
40.5155
21
-43.8041
0
LINE
8
Black
10
40.5155
20
-43.8041
11
40.5197
21
-43.7883
0
LINE
8
Black
10
40.5197
20
-43.7883
11
40.5225
21
-43.7722
0
LINE
8
Black
10
40.5225
20
-43.7722
11
40.5253
21
-43.7675
0
LINE
8
Black
10
40.5253
20
-43.7675
11
40.5267
21
-43.7622
0
LINE
8
Black
10
40.5267
20
-43.7622
11
40.5361
21
-43.7488
0
LINE
8
Black
10
40.5361
20
-43.7488
11
40.5442
21
-43.7347
0
LINE
8
Black
10
40.5442
20
-43.7347
11
40.5485
21
-43.7311
0
LINE
8
Black
10
40.5485
20
-43.7311
11
40.5516
21
-43.7266
0
LINE
8
Black
10
40.5516
20
-43.7266
11
41.1866
21
-43.0916
0
LINE
8
Black
10
41.1866
20
-43.0916
11
41.8216
21
-42.4566
0
LINE
8
Black
10
41.8216
20
-42.4566
11
41.8261
21
-42.4535
0
LINE
8
Black
10
41.8261
20
-42.4535
11
41.8297
21
-42.4492
0
LINE
8
Black
10
41.8297
20
-42.4492
11
41.8438
21
-42.4411
0
LINE
8
Black
10
41.8438
20
-42.4411
11
41.8572
21
-42.4317
0
LINE
8
Black
10
41.8572
20
-42.4317
11
41.8625
21
-42.4303
0
LINE
8
Black
10
41.8625
20
-42.4303
11
41.8672
21
-42.4275
0
LINE
8
Black
10
41.8672
20
-42.4275
11
41.8833
21
-42.4247
0
LINE
8
Black
10
41.8833
20
-42.4247
11
41.8991
21
-42.4205
0
LINE
8
Black
10
41.8991
20
-42.4205
11
41.9046
21
-42.421
0
LINE
8
Black
10
41.9046
20
-42.421
11
41.91
21
-42.42
0
LINE
8
Black
10
41.91
20
-42.42
11
42.35
21
-42.42
0
LINE
8
Black
10
42.35
20
-42.42
11
42.35
21
-42.17
0
LINE
8
Black
10
42.35
20
-42.17
11
44.45
21
-42.17
0
LINE
8
Black
10
44.45
20
-42.17
11
44.45
21
-42.92
0
LINE
8
Black
10
44.8818
20
-58.9388
11
45.1116
21
-59.1316
0
LINE
8
Black
10
45.1116
20
-59.1316
11
45.2615
21
-59.3913
0
LINE
8
Black
10
45.2615
20
-59.3913
11
45.3136
21
-59.6867
0
LINE
8
Black
10
45.3136
20
-59.6867
11
45.3136
21
-59.6933
0
LINE
8
Black
10
45.3136
20
-59.6933
11
45.2615
21
-59.9887
0
LINE
8
Black
10
45.2615
20
-59.9887
11
45.1116
21
-60.2484
0
LINE
8
Black
10
45.1116
20
-60.2484
11
44.8818
21
-60.4412
0
LINE
8
Black
10
44.8818
20
-60.4412
11
44.6
21
-60.5438
0
LINE
8
Black
10
44.6
20
-60.5438
11
44.3
21
-60.5438
0
LINE
8
Black
10
44.3
20
-60.5438
11
44.0182
21
-60.4412
0
LINE
8
Black
10
44.0182
20
-60.4412
11
43.7884
21
-60.2484
0
LINE
8
Black
10
43.7884
20
-60.2484
11
43.6385
21
-59.9887
0
LINE
8
Black
10
43.6385
20
-59.9887
11
43.5864
21
-59.6933
0
LINE
8
Black
10
43.5864
20
-59.6933
11
43.5864
21
-59.6867
0
LINE
8
Black
10
43.5864
20
-59.6867
11
43.6385
21
-59.3913
0
LINE
8
Black
10
43.6385
20
-59.3913
11
43.7884
21
-59.1316
0
LINE
8
Black
10
43.7884
20
-59.1316
11
44.0182
21
-58.9388
0
LINE
8
Black
10
44.0182
20
-58.9388
11
44.3
21
-58.8362
0
LINE
8
Black
10
44.3
20
-58.8362
11
44.6
21
-58.8362
0
LINE
8
Black
10
44.6
20
-58.8362
11
44.8818
21
-58.9388
0
LINE
8
Black
10
44.45
20
-43.82
11
44.58
21
-43.82
0
LINE
8
Black
10
44.58
20
-43.82
11
44.5854
21
-43.821
0
LINE
8
Black
10
44.5854
20
-43.821
11
44.5909
21
-43.8205
0
LINE
8
Black
10
44.5909
20
-43.8205
11
44.6067
21
-43.8247
0
LINE
8
Black
10
44.6067
20
-43.8247
11
44.6228
21
-43.8275
0
LINE
8
Black
10
44.6228
20
-43.8275
11
44.6275
21
-43.8303
0
LINE
8
Black
10
44.6275
20
-43.8303
11
44.6328
21
-43.8317
0
LINE
8
Black
10
44.6328
20
-43.8317
11
44.6462
21
-43.8411
0
LINE
8
Black
10
44.6462
20
-43.8411
11
44.6603
21
-43.8492
0
LINE
8
Black
10
44.6603
20
-43.8492
11
44.6639
21
-43.8535
0
LINE
8
Black
10
44.6639
20
-43.8535
11
44.6684
21
-43.8566
0
LINE
8
Black
10
44.6684
20
-43.8566
11
45.1734
21
-44.3616
0
LINE
8
Black
10
45.1734
20
-44.3616
11
45.1765
21
-44.3661
0
LINE
8
Black
10
45.1765
20
-44.3661
11
45.1808
21
-44.3697
0
LINE
8
Black
10
45.1808
20
-44.3697
11
45.1889
21
-44.3838
0
LINE
8
Black
10
45.1889
20
-44.3838
11
45.1983
21
-44.3972
0
LINE
8
Black
10
45.1983
20
-44.3972
11
45.1997
21
-44.4025
0
LINE
8
Black
10
45.1997
20
-44.4025
11
45.2025
21
-44.4072
0
LINE
8
Black
10
45.2025
20
-44.4072
11
45.2053
21
-44.4233
0
LINE
8
Black
10
45.2053
20
-44.4233
11
45.2095
21
-44.4391
0
LINE
8
Black
10
45.2095
20
-44.4391
11
45.209
21
-44.4446
0
LINE
8
Black
10
45.209
20
-44.4446
11
45.21
21
-44.45
0
LINE
8
Black
10
45.21
20
-44.45
11
45.21
21
-47.9897
0
LINE
8
Black
10
45.21
20
-47.9897
11
45.2786
21
-48.0293
0
LINE
8
Black
10
45.2786
20
-48.0293
11
45.3458
21
-48.1094
0
LINE
8
Black
10
45.3458
20
-48.1094
11
45.3816
21
-48.2077
0
LINE
8
Black
10
45.3816
20
-48.2077
11
45.3816
21
-48.3123
0
LINE
8
Black
10
45.3816
20
-48.3123
11
45.3458
21
-48.4106
0
LINE
8
Black
10
45.3458
20
-48.4106
11
45.2786
21
-48.4907
0
LINE
8
Black
10
45.2786
20
-48.4907
11
45.188
21
-48.543
0
LINE
8
Black
10
45.188
20
-48.543
11
45.085
21
-48.5611
0
LINE
8
Black
10
45.085
20
-48.5611
11
44.982
21
-48.543
0
LINE
8
Black
10
44.982
20
-48.543
11
44.8914
21
-48.4907
0
LINE
8
Black
10
44.8914
20
-48.4907
11
44.8242
21
-48.4106
0
LINE
8
Black
10
44.8242
20
-48.4106
11
44.7884
21
-48.3123
0
LINE
8
Black
10
44.7884
20
-48.3123
11
44.7884
21
-48.2077
0
LINE
8
Black
10
44.7884
20
-48.2077
11
44.8242
21
-48.1094
0
LINE
8
Black
10
44.8242
20
-48.1094
11
44.8914
21
-48.0293
0
LINE
8
Black
10
44.8914
20
-48.0293
11
44.96
21
-47.9897
0
LINE
8
Black
10
44.96
20
-47.9897
11
44.96
21
-44.5018
0
LINE
8
Black
10
44.96
20
-44.5018
11
44.5282
21
-44.07
0
LINE
8
Black
10
44.5282
20
-44.07
11
44.45
21
-44.07
0
LINE
8
Black
10
44.45
20
-44.07
11
44.45
21
-44.32
0
LINE
8
Black
10
44.45
20
-44.32
11
42.35
21
-44.32
0
LINE
8
Black
10
42.35
20
-44.32
11
42.35
21
-43.57
0
LINE
8
Black
10
42.35
20
-43.57
11
44.45
21
-43.57
0
LINE
8
Black
10
44.45
20
-43.57
11
44.45
21
-43.82
0
LINE
8
Black
10
44.45
20
-41.02
11
46.2035
21
-41.02
0
LINE
8
Black
10
46.2035
20
-41.02
11
46.252
21
-40.992
0
LINE
8
Black
10
46.252
20
-40.992
11
46.355
21
-40.9739
0
LINE
8
Black
10
46.355
20
-40.9739
11
46.458
21
-40.992
0
LINE
8
Black
10
46.458
20
-40.992
11
46.5486
21
-41.0443
0
LINE
8
Black
10
46.5486
20
-41.0443
11
46.6158
21
-41.1244
0
LINE
8
Black
10
46.6158
20
-41.1244
11
46.6516
21
-41.2227
0
LINE
8
Black
10
46.6516
20
-41.2227
11
46.6516
21
-41.3273
0
LINE
8
Black
10
46.6516
20
-41.3273
11
46.6158
21
-41.4256
0
LINE
8
Black
10
46.6158
20
-41.4256
11
46.5486
21
-41.5057
0
LINE
8
Black
10
46.5486
20
-41.5057
11
46.458
21
-41.558
0
LINE
8
Black
10
46.458
20
-41.558
11
46.355
21
-41.5761
0
LINE
8
Black
10
46.355
20
-41.5761
11
46.252
21
-41.558
0
LINE
8
Black
10
46.252
20
-41.558
11
46.1614
21
-41.5057
0
LINE
8
Black
10
46.1614
20
-41.5057
11
46.0942
21
-41.4256
0
LINE
8
Black
10
46.0942
20
-41.4256
11
46.0584
21
-41.3273
0
LINE
8
Black
10
46.0584
20
-41.3273
11
46.0584
21
-41.27
0
LINE
8
Black
10
46.0584
20
-41.27
11
44.45
21
-41.27
0
LINE
8
Black
10
44.45
20
-41.27
11
44.45
21
-41.52
0
LINE
8
Black
10
44.45
20
-41.52
11
42.35
21
-41.52
0
LINE
8
Black
10
42.35
20
-41.52
11
42.35
21
-40.77
0
LINE
8
Black
10
42.35
20
-40.77
11
44.45
21
-40.77
0
LINE
8
Black
10
44.45
20
-40.77
11
44.45
21
-41.02
0
LINE
8
Black
10
44.45
20
-45.72
11
42.35
21
-45.72
0
LINE
8
Black
10
42.35
20
-45.72
11
42.35
21
-45.47
0
LINE
8
Black
10
42.35
20
-45.47
11
42.3368
21
-45.47
0
LINE
8
Black
10
42.3368
20
-45.47
11
41.4
21
-46.4068
0
LINE
8
Black
10
41.4
20
-46.4068
11
41.4
21
-52.0182
0
LINE
8
Black
10
41.4
20
-52.0182
11
44.5018
21
-55.12
0
LINE
8
Black
10
44.5018
20
-55.12
11
45.085
21
-55.12
0
LINE
8
Black
10
45.085
20
-55.12
11
45.0904
21
-55.121
0
LINE
8
Black
10
45.0904
20
-55.121
11
45.0959
21
-55.1205
0
LINE
8
Black
10
45.0959
20
-55.1205
11
45.1117
21
-55.1247
0
LINE
8
Black
10
45.1117
20
-55.1247
11
45.1278
21
-55.1275
0
LINE
8
Black
10
45.1278
20
-55.1275
11
45.1325
21
-55.1303
0
LINE
8
Black
10
45.1325
20
-55.1303
11
45.1378
21
-55.1317
0
LINE
8
Black
10
45.1378
20
-55.1317
11
45.1512
21
-55.1411
0
LINE
8
Black
10
45.1512
20
-55.1411
11
45.1653
21
-55.1492
0
LINE
8
Black
10
45.1653
20
-55.1492
11
45.1689
21
-55.1535
0
LINE
8
Black
10
45.1689
20
-55.1535
11
45.1734
21
-55.1566
0
LINE
8
Black
10
45.1734
20
-55.1566
11
46.4806
21
-56.4639
0
LINE
8
Black
10
46.4806
20
-56.4639
11
46.5582
21
-56.3988
0
LINE
8
Black
10
46.5582
20
-56.3988
11
46.84
21
-56.2962
0
LINE
8
Black
10
46.84
20
-56.2962
11
47.14
21
-56.2962
0
LINE
8
Black
10
47.14
20
-56.2962
11
47.4218
21
-56.3988
0
LINE
8
Black
10
47.4218
20
-56.3988
11
47.6516
21
-56.5916
0
LINE
8
Black
10
47.6516
20
-56.5916
11
47.8015
21
-56.8513
0
LINE
8
Black
10
47.8015
20
-56.8513
11
47.8536
21
-57.1467
0
LINE
8
Black
10
47.8536
20
-57.1467
11
47.8536
21
-57.1533
0
LINE
8
Black
10
47.8536
20
-57.1533
11
47.8015
21
-57.4487
0
LINE
8
Black
10
47.8015
20
-57.4487
11
47.6516
21
-57.7084
0
LINE
8
Black
10
47.6516
20
-57.7084
11
47.4218
21
-57.9012
0
LINE
8
Black
10
47.4218
20
-57.9012
11
47.14
21
-58.0038
0
LINE
8
Black
10
47.14
20
-58.0038
11
46.84
21
-58.0038
0
LINE
8
Black
10
46.84
20
-58.0038
11
46.5582
21
-57.9012
0
LINE
8
Black
10
46.5582
20
-57.9012
11
46.3284
21
-57.7084
0
LINE
8
Black
10
46.3284
20
-57.7084
11
46.1785
21
-57.4487
0
LINE
8
Black
10
46.1785
20
-57.4487
11
46.1264
21
-57.1533
0
LINE
8
Black
10
46.1264
20
-57.1533
11
46.1264
21
-57.1467
0
LINE
8
Black
10
46.1264
20
-57.1467
11
46.1785
21
-56.8513
0
LINE
8
Black
10
46.1785
20
-56.8513
11
46.3015
21
-56.6383
0
LINE
8
Black
10
46.3015
20
-56.6383
11
45.0332
21
-55.37
0
LINE
8
Black
10
45.0332
20
-55.37
11
44.45
21
-55.37
0
LINE
8
Black
10
44.45
20
-55.37
11
44.4446
21
-55.369
0
LINE
8
Black
10
44.4446
20
-55.369
11
44.4391
21
-55.3695
0
LINE
8
Black
10
44.4391
20
-55.3695
11
44.4233
21
-55.3653
0
LINE
8
Black
10
44.4233
20
-55.3653
11
44.4072
21
-55.3625
0
LINE
8
Black
10
44.4072
20
-55.3625
11
44.4025
21
-55.3597
0
LINE
8
Black
10
44.4025
20
-55.3597
11
44.3972
21
-55.3583
0
LINE
8
Black
10
44.3972
20
-55.3583
11
44.3838
21
-55.3489
0
LINE
8
Black
10
44.3838
20
-55.3489
11
44.3697
21
-55.3408
0
LINE
8
Black
10
44.3697
20
-55.3408
11
44.3661
21
-55.3365
0
LINE
8
Black
10
44.3661
20
-55.3365
11
44.3616
21
-55.3334
0
LINE
8
Black
10
44.3616
20
-55.3334
11
41.1866
21
-52.1584
0
LINE
8
Black
10
41.1866
20
-52.1584
11
41.1835
21
-52.1539
0
LINE
8
Black
10
41.1835
20
-52.1539
11
41.1792
21
-52.1503
0
LINE
8
Black
10
41.1792
20
-52.1503
11
41.1711
21
-52.1362
0
LINE
8
Black
10
41.1711
20
-52.1362
11
41.1617
21
-52.1228
0
LINE
8
Black
10
41.1617
20
-52.1228
11
41.1603
21
-52.1175
0
LINE
8
Black
10
41.1603
20
-52.1175
11
41.1575
21
-52.1128
0
LINE
8
Black
10
41.1575
20
-52.1128
11
41.1547
21
-52.0967
0
LINE
8
Black
10
41.1547
20
-52.0967
11
41.1505
21
-52.0809
0
LINE
8
Black
10
41.1505
20
-52.0809
11
41.151
21
-52.0754
0
LINE
8
Black
10
41.151
20
-52.0754
11
41.15
21
-52.07
0
LINE
8
Black
10
41.15
20
-52.07
11
41.15
21
-46.355
0
LINE
8
Black
10
41.15
20
-46.355
11
41.151
21
-46.3496
0
LINE
8
Black
10
41.151
20
-46.3496
11
41.1505
21
-46.3441
0
LINE
8
Black
10
41.1505
20
-46.3441
11
41.1547
21
-46.3283
0
LINE
8
Black
10
41.1547
20
-46.3283
11
41.1575
21
-46.3122
0
LINE
8
Black
10
41.1575
20
-46.3122
11
41.1603
21
-46.3075
0
LINE
8
Black
10
41.1603
20
-46.3075
11
41.1617
21
-46.3022
0
LINE
8
Black
10
41.1617
20
-46.3022
11
41.1711
21
-46.2888
0
LINE
8
Black
10
41.1711
20
-46.2888
11
41.1792
21
-46.2747
0
LINE
8
Black
10
41.1792
20
-46.2747
11
41.1835
21
-46.2711
0
LINE
8
Black
10
41.1835
20
-46.2711
11
41.1866
21
-46.2666
0
LINE
8
Black
10
41.1866
20
-46.2666
11
42.1966
21
-45.2566
0
LINE
8
Black
10
42.1966
20
-45.2566
11
42.2011
21
-45.2535
0
LINE
8
Black
10
42.2011
20
-45.2535
11
42.2047
21
-45.2492
0
LINE
8
Black
10
42.2047
20
-45.2492
11
42.2188
21
-45.2411
0
LINE
8
Black
10
42.2188
20
-45.2411
11
42.2322
21
-45.2317
0
LINE
8
Black
10
42.2322
20
-45.2317
11
42.2375
21
-45.2303
0
LINE
8
Black
10
42.2375
20
-45.2303
11
42.2422
21
-45.2275
0
LINE
8
Black
10
42.2422
20
-45.2275
11
42.2583
21
-45.2247
0
LINE
8
Black
10
42.2583
20
-45.2247
11
42.2741
21
-45.2205
0
LINE
8
Black
10
42.2741
20
-45.2205
11
42.2796
21
-45.221
0
LINE
8
Black
10
42.2796
20
-45.221
11
42.285
21
-45.22
0
LINE
8
Black
10
42.285
20
-45.22
11
42.35
21
-45.22
0
LINE
8
Black
10
42.35
20
-45.22
11
42.35
21
-44.97
0
LINE
8
Black
10
42.35
20
-44.97
11
44.45
21
-44.97
0
LINE
8
Black
10
44.45
20
-44.97
11
44.45
21
-45.72
0
LINE
8
Black
10
47.4218
20
-58.9388
11
47.6516
21
-59.1316
0
LINE
8
Black
10
47.6516
20
-59.1316
11
47.8015
21
-59.3913
0
LINE
8
Black
10
47.8015
20
-59.3913
11
47.8536
21
-59.6867
0
LINE
8
Black
10
47.8536
20
-59.6867
11
47.8536
21
-59.6933
0
LINE
8
Black
10
47.8536
20
-59.6933
11
47.8015
21
-59.9887
0
LINE
8
Black
10
47.8015
20
-59.9887
11
47.6516
21
-60.2484
0
LINE
8
Black
10
47.6516
20
-60.2484
11
47.4218
21
-60.4412
0
LINE
8
Black
10
47.4218
20
-60.4412
11
47.14
21
-60.5438
0
LINE
8
Black
10
47.14
20
-60.5438
11
46.84
21
-60.5438
0
LINE
8
Black
10
46.84
20
-60.5438
11
46.5582
21
-60.4412
0
LINE
8
Black
10
46.5582
20
-60.4412
11
46.3284
21
-60.2484
0
LINE
8
Black
10
46.3284
20
-60.2484
11
46.1785
21
-59.9887
0
LINE
8
Black
10
46.1785
20
-59.9887
11
46.1264
21
-59.6933
0
LINE
8
Black
10
46.1264
20
-59.6933
11
46.1264
21
-59.6867
0
LINE
8
Black
10
46.1264
20
-59.6867
11
46.1785
21
-59.3913
0
LINE
8
Black
10
46.1785
20
-59.3913
11
46.3284
21
-59.1316
0
LINE
8
Black
10
46.3284
20
-59.1316
11
46.5582
21
-58.9388
0
LINE
8
Black
10
46.5582
20
-58.9388
11
46.84
21
-58.8362
0
LINE
8
Black
10
46.84
20
-58.8362
11
47.14
21
-58.8362
0
LINE
8
Black
10
47.14
20
-58.8362
11
47.4218
21
-58.9388
0
LINE
8
Black
10
50.36
20
-42.92
11
48.26
21
-42.92
0
LINE
8
Black
10
48.26
20
-42.92
11
48.26
21
-42.7218
0
LINE
8
Black
10
48.26
20
-42.7218
11
47.75
21
-43.2318
0
LINE
8
Black
10
47.75
20
-43.2318
11
47.75
21
-47.5732
0
LINE
8
Black
10
47.75
20
-47.5732
11
48.155
21
-47.9782
0
LINE
8
Black
10
48.155
20
-47.9782
11
48.157
21
-47.977
0
LINE
8
Black
10
48.157
20
-47.977
11
48.26
21
-47.9589
0
LINE
8
Black
10
48.26
20
-47.9589
11
48.363
21
-47.977
0
LINE
8
Black
10
48.363
20
-47.977
11
48.4536
21
-48.0293
0
LINE
8
Black
10
48.4536
20
-48.0293
11
48.5208
21
-48.1094
0
LINE
8
Black
10
48.5208
20
-48.1094
11
48.5566
21
-48.2077
0
LINE
8
Black
10
48.5566
20
-48.2077
11
48.5566
21
-48.3123
0
LINE
8
Black
10
48.5566
20
-48.3123
11
48.5208
21
-48.4106
0
LINE
8
Black
10
48.5208
20
-48.4106
11
48.4536
21
-48.4907
0
LINE
8
Black
10
48.4536
20
-48.4907
11
48.363
21
-48.543
0
LINE
8
Black
10
48.363
20
-48.543
11
48.26
21
-48.5611
0
LINE
8
Black
10
48.26
20
-48.5611
11
48.157
21
-48.543
0
LINE
8
Black
10
48.157
20
-48.543
11
48.0664
21
-48.4907
0
LINE
8
Black
10
48.0664
20
-48.4907
11
47.9992
21
-48.4106
0
LINE
8
Black
10
47.9992
20
-48.4106
11
47.9634
21
-48.3123
0
LINE
8
Black
10
47.9634
20
-48.3123
11
47.9634
21
-48.2077
0
LINE
8
Black
10
47.9634
20
-48.2077
11
47.9814
21
-48.1582
0
LINE
8
Black
10
47.9814
20
-48.1582
11
47.5366
21
-47.7134
0
LINE
8
Black
10
47.5366
20
-47.7134
11
47.5335
21
-47.7089
0
LINE
8
Black
10
47.5335
20
-47.7089
11
47.5292
21
-47.7053
0
LINE
8
Black
10
47.5292
20
-47.7053
11
47.5211
21
-47.6912
0
LINE
8
Black
10
47.5211
20
-47.6912
11
47.5117
21
-47.6778
0
LINE
8
Black
10
47.5117
20
-47.6778
11
47.5103
21
-47.6725
0
LINE
8
Black
10
47.5103
20
-47.6725
11
47.5075
21
-47.6678
0
LINE
8
Black
10
47.5075
20
-47.6678
11
47.5047
21
-47.6517
0
LINE
8
Black
10
47.5047
20
-47.6517
11
47.5005
21
-47.6359
0
LINE
8
Black
10
47.5005
20
-47.6359
11
47.501
21
-47.6304
0
LINE
8
Black
10
47.501
20
-47.6304
11
47.5
21
-47.625
0
LINE
8
Black
10
47.5
20
-47.625
11
47.5
21
-43.18
0
LINE
8
Black
10
47.5
20
-43.18
11
47.501
21
-43.1746
0
LINE
8
Black
10
47.501
20
-43.1746
11
47.5005
21
-43.1691
0
LINE
8
Black
10
47.5005
20
-43.1691
11
47.5047
21
-43.1533
0
LINE
8
Black
10
47.5047
20
-43.1533
11
47.5075
21
-43.1372
0
LINE
8
Black
10
47.5075
20
-43.1372
11
47.5103
21
-43.1325
0
LINE
8
Black
10
47.5103
20
-43.1325
11
47.5117
21
-43.1272
0
LINE
8
Black
10
47.5117
20
-43.1272
11
47.5211
21
-43.1138
0
LINE
8
Black
10
47.5211
20
-43.1138
11
47.5292
21
-43.0997
0
LINE
8
Black
10
47.5292
20
-43.0997
11
47.5335
21
-43.0961
0
LINE
8
Black
10
47.5335
20
-43.0961
11
47.5366
21
-43.0916
0
LINE
8
Black
10
47.5366
20
-43.0916
11
48.1716
21
-42.4566
0
LINE
8
Black
10
48.1716
20
-42.4566
11
48.1761
21
-42.4535
0
LINE
8
Black
10
48.1761
20
-42.4535
11
48.1797
21
-42.4492
0
LINE
8
Black
10
48.1797
20
-42.4492
11
48.1938
21
-42.4411
0
LINE
8
Black
10
48.1938
20
-42.4411
11
48.2072
21
-42.4317
0
LINE
8
Black
10
48.2072
20
-42.4317
11
48.2125
21
-42.4303
0
LINE
8
Black
10
48.2125
20
-42.4303
11
48.2172
21
-42.4275
0
LINE
8
Black
10
48.2172
20
-42.4275
11
48.2333
21
-42.4247
0
LINE
8
Black
10
48.2333
20
-42.4247
11
48.2491
21
-42.4205
0
LINE
8
Black
10
48.2491
20
-42.4205
11
48.2546
21
-42.421
0
LINE
8
Black
10
48.2546
20
-42.421
11
48.26
21
-42.42
0
LINE
8
Black
10
48.26
20
-42.42
11
48.26
21
-42.17
0
LINE
8
Black
10
48.26
20
-42.17
11
50.36
21
-42.17
0
LINE
8
Black
10
50.36
20
-42.17
11
50.36
21
-42.92
0
LINE
8
Black
10
50.36
20
-45.72
11
49.435
21
-45.72
0
LINE
8
Black
10
49.435
20
-45.72
11
49.435
21
-50.385
0
LINE
8
Black
10
49.435
20
-50.385
11
49.434
21
-50.3904
0
LINE
8
Black
10
49.434
20
-50.3904
11
49.4345
21
-50.3959
0
LINE
8
Black
10
49.4345
20
-50.3959
11
49.4303
21
-50.4117
0
LINE
8
Black
10
49.4303
20
-50.4117
11
49.4275
21
-50.4278
0
LINE
8
Black
10
49.4275
20
-50.4278
11
49.4247
21
-50.4325
0
LINE
8
Black
10
49.4247
20
-50.4325
11
49.4233
21
-50.4378
0
LINE
8
Black
10
49.4233
20
-50.4378
11
49.4139
21
-50.4512
0
LINE
8
Black
10
49.4139
20
-50.4512
11
49.4058
21
-50.4653
0
LINE
8
Black
10
49.4058
20
-50.4653
11
49.4015
21
-50.4689
0
LINE
8
Black
10
49.4015
20
-50.4689
11
49.3984
21
-50.4734
0
LINE
8
Black
10
49.3984
20
-50.4734
11
47.7134
21
-52.1584
0
LINE
8
Black
10
47.7134
20
-52.1584
11
47.7089
21
-52.1615
0
LINE
8
Black
10
47.7089
20
-52.1615
11
47.7053
21
-52.1658
0
LINE
8
Black
10
47.7053
20
-52.1658
11
47.6912
21
-52.1739
0
LINE
8
Black
10
47.6912
20
-52.1739
11
47.6778
21
-52.1833
0
LINE
8
Black
10
47.6778
20
-52.1833
11
47.6725
21
-52.1847
0
LINE
8
Black
10
47.6725
20
-52.1847
11
47.6678
21
-52.1875
0
LINE
8
Black
10
47.6678
20
-52.1875
11
47.6517
21
-52.1903
0
LINE
8
Black
10
47.6517
20
-52.1903
11
47.6359
21
-52.1945
0
LINE
8
Black
10
47.6359
20
-52.1945
11
47.6304
21
-52.194
0
LINE
8
Black
10
47.6304
20
-52.194
11
47.625
21
-52.195
0
LINE
8
Black
10
47.625
20
-52.195
11
44.0851
21
-52.195
0
LINE
8
Black
10
44.0851
20
-52.195
11
44.0758
21
-52.2206
0
LINE
8
Black
10
44.0758
20
-52.2206
11
44.0086
21
-52.3007
0
LINE
8
Black
10
44.0086
20
-52.3007
11
43.918
21
-52.353
0
LINE
8
Black
10
43.918
20
-52.353
11
43.815
21
-52.3711
0
LINE
8
Black
10
43.815
20
-52.3711
11
43.712
21
-52.353
0
LINE
8
Black
10
43.712
20
-52.353
11
43.6214
21
-52.3007
0
LINE
8
Black
10
43.6214
20
-52.3007
11
43.5542
21
-52.2206
0
LINE
8
Black
10
43.5542
20
-52.2206
11
43.5184
21
-52.1223
0
LINE
8
Black
10
43.5184
20
-52.1223
11
43.5184
21
-52.0177
0
LINE
8
Black
10
43.5184
20
-52.0177
11
43.5542
21
-51.9194
0
LINE
8
Black
10
43.5542
20
-51.9194
11
43.6214
21
-51.8393
0
LINE
8
Black
10
43.6214
20
-51.8393
11
43.712
21
-51.787
0
LINE
8
Black
10
43.712
20
-51.787
11
43.815
21
-51.7689
0
LINE
8
Black
10
43.815
20
-51.7689
11
43.918
21
-51.787
0
LINE
8
Black
10
43.918
20
-51.787
11
44.0086
21
-51.8393
0
LINE
8
Black
10
44.0086
20
-51.8393
11
44.0758
21
-51.9194
0
LINE
8
Black
10
44.0758
20
-51.9194
11
44.0851
21
-51.945
0
LINE
8
Black
10
44.0851
20
-51.945
11
47.5732
21
-51.945
0
LINE
8
Black
10
47.5732
20
-51.945
11
49.185
21
-50.3332
0
LINE
8
Black
10
49.185
20
-50.3332
11
49.185
21
-45.72
0
LINE
8
Black
10
49.185
20
-45.72
11
48.26
21
-45.72
0
LINE
8
Black
10
48.26
20
-45.72
11
48.26
21
-44.97
0
LINE
8
Black
10
48.26
20
-44.97
11
50.36
21
-44.97
0
LINE
8
Black
10
50.36
20
-44.97
11
50.36
21
-45.72
0
LINE
8
Black
10
50.36
20
-43.8402
11
50.3612
21
-43.8411
0
LINE
8
Black
10
50.3612
20
-43.8411
11
50.3753
21
-43.8492
0
LINE
8
Black
10
50.3753
20
-43.8492
11
50.3789
21
-43.8535
0
LINE
8
Black
10
50.3789
20
-43.8535
11
50.3834
21
-43.8566
0
LINE
8
Black
10
50.3834
20
-43.8566
11
51.5234
21
-44.9966
0
LINE
8
Black
10
51.5234
20
-44.9966
11
51.5265
21
-45.0011
0
LINE
8
Black
10
51.5265
20
-45.0011
11
51.5308
21
-45.0047
0
LINE
8
Black
10
51.5308
20
-45.0047
11
51.5389
21
-45.0188
0
LINE
8
Black
10
51.5389
20
-45.0188
11
51.5483
21
-45.0322
0
LINE
8
Black
10
51.5483
20
-45.0322
11
51.5497
21
-45.0375
0
LINE
8
Black
10
51.5497
20
-45.0375
11
51.5525
21
-45.0422
0
LINE
8
Black
10
51.5525
20
-45.0422
11
51.5553
21
-45.0583
0
LINE
8
Black
10
51.5553
20
-45.0583
11
51.5595
21
-45.0741
0
LINE
8
Black
10
51.5595
20
-45.0741
11
51.559
21
-45.0796
0
LINE
8
Black
10
51.559
20
-45.0796
11
51.56
21
-45.085
0
LINE
8
Black
10
51.56
20
-45.085
11
51.56
21
-55.245
0
LINE
8
Black
10
51.56
20
-55.245
11
51.559
21
-55.2504
0
LINE
8
Black
10
51.559
20
-55.2504
11
51.5595
21
-55.2559
0
LINE
8
Black
10
51.5595
20
-55.2559
11
51.5553
21
-55.2717
0
LINE
8
Black
10
51.5553
20
-55.2717
11
51.5525
21
-55.2878
0
LINE
8
Black
10
51.5525
20
-55.2878
11
51.5497
21
-55.2925
0
LINE
8
Black
10
51.5497
20
-55.2925
11
51.5483
21
-55.2978
0
LINE
8
Black
10
51.5483
20
-55.2978
11
51.5389
21
-55.3112
0
LINE
8
Black
10
51.5389
20
-55.3112
11
51.5308
21
-55.3253
0
LINE
8
Black
10
51.5308
20
-55.3253
11
51.5265
21
-55.3289
0
LINE
8
Black
10
51.5265
20
-55.3289
11
51.5234
21
-55.3334
0
LINE
8
Black
10
51.5234
20
-55.3334
11
50.2534
21
-56.6034
0
LINE
8
Black
10
50.2534
20
-56.6034
11
50.2534
21
-56.6034
0
LINE
8
Black
10
50.2534
20
-56.6034
11
50.2534
21
-56.6034
0
LINE
8
Black
10
50.2534
20
-56.6034
11
50.2185
21
-56.6383
0
LINE
8
Black
10
50.2185
20
-56.6383
11
50.3415
21
-56.8513
0
LINE
8
Black
10
50.3415
20
-56.8513
11
50.3936
21
-57.1467
0
LINE
8
Black
10
50.3936
20
-57.1467
11
50.3936
21
-57.1533
0
LINE
8
Black
10
50.3936
20
-57.1533
11
50.3415
21
-57.4487
0
LINE
8
Black
10
50.3415
20
-57.4487
11
50.1916
21
-57.7084
0
LINE
8
Black
10
50.1916
20
-57.7084
11
49.9618
21
-57.9012
0
LINE
8
Black
10
49.9618
20
-57.9012
11
49.68
21
-58.0038
0
LINE
8
Black
10
49.68
20
-58.0038
11
49.38
21
-58.0038
0
LINE
8
Black
10
49.38
20
-58.0038
11
49.0982
21
-57.9012
0
LINE
8
Black
10
49.0982
20
-57.9012
11
48.8684
21
-57.7084
0
LINE
8
Black
10
48.8684
20
-57.7084
11
48.7185
21
-57.4487
0
LINE
8
Black
10
48.7185
20
-57.4487
11
48.6664
21
-57.1533
0
LINE
8
Black
10
48.6664
20
-57.1533
11
48.6664
21
-57.1467
0
LINE
8
Black
10
48.6664
20
-57.1467
11
48.7185
21
-56.8513
0
LINE
8
Black
10
48.7185
20
-56.8513
11
48.8684
21
-56.5916
0
LINE
8
Black
10
48.8684
20
-56.5916
11
49.0982
21
-56.3988
0
LINE
8
Black
10
49.0982
20
-56.3988
11
49.38
21
-56.2962
0
LINE
8
Black
10
49.38
20
-56.2962
11
49.68
21
-56.2962
0
LINE
8
Black
10
49.68
20
-56.2962
11
49.9618
21
-56.3988
0
LINE
8
Black
10
49.9618
20
-56.3988
11
50.0393
21
-56.4639
0
LINE
8
Black
10
50.0393
20
-56.4639
11
50.0766
21
-56.4266
0
LINE
8
Black
10
50.0766
20
-56.4266
11
51.31
21
-55.1932
0
LINE
8
Black
10
51.31
20
-55.1932
11
51.31
21
-45.1368
0
LINE
8
Black
10
51.31
20
-45.1368
11
50.36
21
-44.1868
0
LINE
8
Black
10
50.36
20
-44.1868
11
50.36
21
-44.32
0
LINE
8
Black
10
50.36
20
-44.32
11
48.26
21
-44.32
0
LINE
8
Black
10
48.26
20
-44.32
11
48.26
21
-43.57
0
LINE
8
Black
10
48.26
20
-43.57
11
50.36
21
-43.57
0
LINE
8
Black
10
50.36
20
-43.57
11
50.36
21
-43.8402
0
LINE
8
Black
10
50.36
20
-39.62
11
51.175
21
-39.62
0
LINE
8
Black
10
51.175
20
-39.62
11
51.1804
21
-39.621
0
LINE
8
Black
10
51.1804
20
-39.621
11
51.1859
21
-39.6205
0
LINE
8
Black
10
51.1859
20
-39.6205
11
51.2017
21
-39.6247
0
LINE
8
Black
10
51.2017
20
-39.6247
11
51.2178
21
-39.6275
0
LINE
8
Black
10
51.2178
20
-39.6275
11
51.2225
21
-39.6303
0
LINE
8
Black
10
51.2225
20
-39.6303
11
51.2278
21
-39.6317
0
LINE
8
Black
10
51.2278
20
-39.6317
11
51.2412
21
-39.6411
0
LINE
8
Black
10
51.2412
20
-39.6411
11
51.2553
21
-39.6492
0
LINE
8
Black
10
51.2553
20
-39.6492
11
51.2589
21
-39.6535
0
LINE
8
Black
10
51.2589
20
-39.6535
11
51.2634
21
-39.6566
0
LINE
8
Black
10
51.2634
20
-39.6566
11
51.33
21
-39.7232
0
LINE
8
Black
10
51.33
20
-39.7232
11
51.332
21
-39.722
0
LINE
8
Black
10
51.332
20
-39.722
11
51.435
21
-39.7039
0
LINE
8
Black
10
51.435
20
-39.7039
11
51.538
21
-39.722
0
LINE
8
Black
10
51.538
20
-39.722
11
51.6286
21
-39.7743
0
LINE
8
Black
10
51.6286
20
-39.7743
11
51.6958
21
-39.8544
0
LINE
8
Black
10
51.6958
20
-39.8544
11
51.7316
21
-39.9527
0
LINE
8
Black
10
51.7316
20
-39.9527
11
51.7316
21
-40.0573
0
LINE
8
Black
10
51.7316
20
-40.0573
11
51.6958
21
-40.1556
0
LINE
8
Black
10
51.6958
20
-40.1556
11
51.6286
21
-40.2357
0
LINE
8
Black
10
51.6286
20
-40.2357
11
51.538
21
-40.288
0
LINE
8
Black
10
51.538
20
-40.288
11
51.435
21
-40.3061
0
LINE
8
Black
10
51.435
20
-40.3061
11
51.332
21
-40.288
0
LINE
8
Black
10
51.332
20
-40.288
11
51.2414
21
-40.2357
0
LINE
8
Black
10
51.2414
20
-40.2357
11
51.1742
21
-40.1556
0
LINE
8
Black
10
51.1742
20
-40.1556
11
51.1384
21
-40.0573
0
LINE
8
Black
10
51.1384
20
-40.0573
11
51.1384
21
-39.9527
0
LINE
8
Black
10
51.1384
20
-39.9527
11
51.1564
21
-39.9032
0
LINE
8
Black
10
51.1564
20
-39.9032
11
51.1232
21
-39.87
0
LINE
8
Black
10
51.1232
20
-39.87
11
50.36
21
-39.87
0
LINE
8
Black
10
50.36
20
-39.87
11
50.36
21
-40.12
0
LINE
8
Black
10
50.36
20
-40.12
11
48.26
21
-40.12
0
LINE
8
Black
10
48.26
20
-40.12
11
48.26
21
-39.37
0
LINE
8
Black
10
48.26
20
-39.37
11
50.36
21
-39.37
0
LINE
8
Black
10
50.36
20
-39.37
11
50.36
21
-39.62
0
LINE
8
Black
10
50.36
20
-41.02
11
50.67
21
-41.02
0
LINE
8
Black
10
50.67
20
-41.02
11
50.6761
21
-41.0211
0
LINE
8
Black
10
50.6761
20
-41.0211
11
50.6823
21
-41.0206
0
LINE
8
Black
10
50.6823
20
-41.0206
11
50.6974
21
-41.0248
0
LINE
8
Black
10
50.6974
20
-41.0248
11
50.7128
21
-41.0275
0
LINE
8
Black
10
50.7128
20
-41.0275
11
50.7181
21
-41.0306
0
LINE
8
Black
10
50.7181
20
-41.0306
11
50.7241
21
-41.0323
0
LINE
8
Black
10
50.7241
20
-41.0323
11
50.7368
21
-41.0414
0
LINE
8
Black
10
50.7368
20
-41.0414
11
50.7503
21
-41.0492
0
LINE
8
Black
10
50.7503
20
-41.0492
11
50.7543
21
-41.054
0
LINE
8
Black
10
50.7543
20
-41.054
11
50.7594
21
-41.0576
0
LINE
8
Black
10
50.7594
20
-41.0576
11
52.1261
21
-42.4559
0
LINE
8
Black
10
52.1261
20
-42.4559
11
52.1287
21
-42.4597
0
LINE
8
Black
10
52.1287
20
-42.4597
11
52.1322
21
-42.4626
0
LINE
8
Black
10
52.1322
20
-42.4626
11
52.1408
21
-42.4775
0
LINE
8
Black
10
52.1408
20
-42.4775
11
52.1506
21
-42.4917
0
LINE
8
Black
10
52.1506
20
-42.4917
11
52.1517
21
-42.4962
0
LINE
8
Black
10
52.1517
20
-42.4962
11
52.154
21
-42.5002
0
LINE
8
Black
10
52.154
20
-42.5002
11
52.157
21
-42.5171
0
LINE
8
Black
10
52.157
20
-42.5171
11
52.1613
21
-42.5338
0
LINE
8
Black
10
52.1613
20
-42.5338
11
52.1609
21
-42.5384
0
LINE
8
Black
10
52.1609
20
-42.5384
11
52.1617
21
-42.5429
0
LINE
8
Black
10
52.1617
20
-42.5429
11
52.195
21
-53.9746
0
LINE
8
Black
10
52.195
20
-53.9746
11
52.195
21
-53.9748
0
LINE
8
Black
10
52.195
20
-53.9748
11
52.195
21
-53.975
0
LINE
8
Black
10
52.195
20
-53.975
11
52.195
21
-56.2962
0
LINE
8
Black
10
52.195
20
-56.2962
11
52.22
21
-56.2962
0
LINE
8
Black
10
52.22
20
-56.2962
11
52.5018
21
-56.3988
0
LINE
8
Black
10
52.5018
20
-56.3988
11
52.7316
21
-56.5916
0
LINE
8
Black
10
52.7316
20
-56.5916
11
52.8815
21
-56.8513
0
LINE
8
Black
10
52.8815
20
-56.8513
11
52.9336
21
-57.1467
0
LINE
8
Black
10
52.9336
20
-57.1467
11
52.9336
21
-57.1533
0
LINE
8
Black
10
52.9336
20
-57.1533
11
52.8815
21
-57.4487
0
LINE
8
Black
10
52.8815
20
-57.4487
11
52.7316
21
-57.7084
0
LINE
8
Black
10
52.7316
20
-57.7084
11
52.5018
21
-57.9012
0
LINE
8
Black
10
52.5018
20
-57.9012
11
52.22
21
-58.0038
0
LINE
8
Black
10
52.22
20
-58.0038
11
51.92
21
-58.0038
0
LINE
8
Black
10
51.92
20
-58.0038
11
51.6382
21
-57.9012
0
LINE
8
Black
10
51.6382
20
-57.9012
11
51.4084
21
-57.7084
0
LINE
8
Black
10
51.4084
20
-57.7084
11
51.2585
21
-57.4487
0
LINE
8
Black
10
51.2585
20
-57.4487
11
51.2064
21
-57.1533
0
LINE
8
Black
10
51.2064
20
-57.1533
11
51.2064
21
-57.1467
0
LINE
8
Black
10
51.2064
20
-57.1467
11
51.2585
21
-56.8513
0
LINE
8
Black
10
51.2585
20
-56.8513
11
51.4084
21
-56.5916
0
LINE
8
Black
10
51.4084
20
-56.5916
11
51.6382
21
-56.3988
0
LINE
8
Black
10
51.6382
20
-56.3988
11
51.92
21
-56.2962
0
LINE
8
Black
10
51.92
20
-56.2962
11
51.945
21
-56.2962
0
LINE
8
Black
10
51.945
20
-56.2962
11
51.945
21
-53.975
0
LINE
8
Black
10
51.945
20
-53.975
11
51.9118
21
-42.5943
0
LINE
8
Black
10
51.9118
20
-42.5943
11
50.6174
21
-41.27
0
LINE
8
Black
10
50.6174
20
-41.27
11
50.36
21
-41.27
0
LINE
8
Black
10
50.36
20
-41.27
11
50.36
21
-41.52
0
LINE
8
Black
10
50.36
20
-41.52
11
48.26
21
-41.52
0
LINE
8
Black
10
48.26
20
-41.52
11
48.26
21
-40.77
0
LINE
8
Black
10
48.26
20
-40.77
11
50.36
21
-40.77
0
LINE
8
Black
10
50.36
20
-40.77
11
50.36
21
-41.02
0
LINE
8
Black
10
52.5018
20
-58.9388
11
52.7316
21
-59.1316
0
LINE
8
Black
10
52.7316
20
-59.1316
11
52.8815
21
-59.3913
0
LINE
8
Black
10
52.8815
20
-59.3913
11
52.9336
21
-59.6867
0
LINE
8
Black
10
52.9336
20
-59.6867
11
52.9336
21
-59.6933
0
LINE
8
Black
10
52.9336
20
-59.6933
11
52.8815
21
-59.9887
0
LINE
8
Black
10
52.8815
20
-59.9887
11
52.7316
21
-60.2484
0
LINE
8
Black
10
52.7316
20
-60.2484
11
52.5018
21
-60.4412
0
LINE
8
Black
10
52.5018
20
-60.4412
11
52.22
21
-60.5438
0
LINE
8
Black
10
52.22
20
-60.5438
11
51.92
21
-60.5438
0
LINE
8
Black
10
51.92
20
-60.5438
11
51.6382
21
-60.4412
0
LINE
8
Black
10
51.6382
20
-60.4412
11
51.4084
21
-60.2484
0
LINE
8
Black
10
51.4084
20
-60.2484
11
51.2585
21
-59.9887
0
LINE
8
Black
10
51.2585
20
-59.9887
11
51.2064
21
-59.6933
0
LINE
8
Black
10
51.2064
20
-59.6933
11
51.2064
21
-59.6867
0
LINE
8
Black
10
51.2064
20
-59.6867
11
51.2585
21
-59.3913
0
LINE
8
Black
10
51.2585
20
-59.3913
11
51.4084
21
-59.1316
0
LINE
8
Black
10
51.4084
20
-59.1316
11
51.6382
21
-58.9388
0
LINE
8
Black
10
51.6382
20
-58.9388
11
51.92
21
-58.8362
0
LINE
8
Black
10
51.92
20
-58.8362
11
52.22
21
-58.8362
0
LINE
8
Black
10
52.22
20
-58.8362
11
52.5018
21
-58.9388
0
LINE
8
Black
10
50.36
20
-38.22
11
51.68
21
-38.22
0
LINE
8
Black
10
51.68
20
-38.22
11
51.6854
21
-38.221
0
LINE
8
Black
10
51.6854
20
-38.221
11
51.6909
21
-38.2205
0
LINE
8
Black
10
51.6909
20
-38.2205
11
51.7067
21
-38.2247
0
LINE
8
Black
10
51.7067
20
-38.2247
11
51.7228
21
-38.2275
0
LINE
8
Black
10
51.7228
20
-38.2275
11
51.7275
21
-38.2303
0
LINE
8
Black
10
51.7275
20
-38.2303
11
51.7328
21
-38.2317
0
LINE
8
Black
10
51.7328
20
-38.2317
11
51.7462
21
-38.2411
0
LINE
8
Black
10
51.7462
20
-38.2411
11
51.7603
21
-38.2492
0
LINE
8
Black
10
51.7603
20
-38.2492
11
51.7639
21
-38.2535
0
LINE
8
Black
10
51.7639
20
-38.2535
11
51.7684
21
-38.2566
0
LINE
8
Black
10
51.7684
20
-38.2566
11
52.1584
21
-38.6466
0
LINE
8
Black
10
52.1584
20
-38.6466
11
52.1584
21
-38.6466
0
LINE
8
Black
10
52.1584
20
-38.6466
11
52.1584
21
-38.6466
0
LINE
8
Black
10
52.1584
20
-38.6466
11
52.7934
21
-39.2816
0
LINE
8
Black
10
52.7934
20
-39.2816
11
52.7965
21
-39.2861
0
LINE
8
Black
10
52.7965
20
-39.2861
11
52.8008
21
-39.2897
0
LINE
8
Black
10
52.8008
20
-39.2897
11
52.8089
21
-39.3038
0
LINE
8
Black
10
52.8089
20
-39.3038
11
52.8183
21
-39.3172
0
LINE
8
Black
10
52.8183
20
-39.3172
11
52.8197
21
-39.3225
0
LINE
8
Black
10
52.8197
20
-39.3225
11
52.8225
21
-39.3272
0
LINE
8
Black
10
52.8225
20
-39.3272
11
52.8253
21
-39.3433
0
LINE
8
Black
10
52.8253
20
-39.3433
11
52.8295
21
-39.3591
0
LINE
8
Black
10
52.8295
20
-39.3591
11
52.829
21
-39.3646
0
LINE
8
Black
10
52.829
20
-39.3646
11
52.83
21
-39.37
0
LINE
8
Black
10
52.83
20
-39.37
11
52.83
21
-55.1932
0
LINE
8
Black
10
52.83
20
-55.1932
11
54.1006
21
-56.4639
0
LINE
8
Black
10
54.1006
20
-56.4639
11
54.1782
21
-56.3988
0
LINE
8
Black
10
54.1782
20
-56.3988
11
54.46
21
-56.2962
0
LINE
8
Black
10
54.46
20
-56.2962
11
54.76
21
-56.2962
0
LINE
8
Black
10
54.76
20
-56.2962
11
55.0418
21
-56.3988
0
LINE
8
Black
10
55.0418
20
-56.3988
11
55.2716
21
-56.5916
0
LINE
8
Black
10
55.2716
20
-56.5916
11
55.4215
21
-56.8513
0
LINE
8
Black
10
55.4215
20
-56.8513
11
55.4736
21
-57.1467
0
LINE
8
Black
10
55.4736
20
-57.1467
11
55.4736
21
-57.1533
0
LINE
8
Black
10
55.4736
20
-57.1533
11
55.4215
21
-57.4487
0
LINE
8
Black
10
55.4215
20
-57.4487
11
55.2716
21
-57.7084
0
LINE
8
Black
10
55.2716
20
-57.7084
11
55.0418
21
-57.9012
0
LINE
8
Black
10
55.0418
20
-57.9012
11
54.76
21
-58.0038
0
LINE
8
Black
10
54.76
20
-58.0038
11
54.46
21
-58.0038
0
LINE
8
Black
10
54.46
20
-58.0038
11
54.1782
21
-57.9012
0
LINE
8
Black
10
54.1782
20
-57.9012
11
53.9484
21
-57.7084
0
LINE
8
Black
10
53.9484
20
-57.7084
11
53.7985
21
-57.4487
0
LINE
8
Black
10
53.7985
20
-57.4487
11
53.7464
21
-57.1533
0
LINE
8
Black
10
53.7464
20
-57.1533
11
53.7464
21
-57.1467
0
LINE
8
Black
10
53.7464
20
-57.1467
11
53.7985
21
-56.8513
0
LINE
8
Black
10
53.7985
20
-56.8513
11
53.9215
21
-56.6383
0
LINE
8
Black
10
53.9215
20
-56.6383
11
52.6166
21
-55.3334
0
LINE
8
Black
10
52.6166
20
-55.3334
11
52.6135
21
-55.3289
0
LINE
8
Black
10
52.6135
20
-55.3289
11
52.6092
21
-55.3253
0
LINE
8
Black
10
52.6092
20
-55.3253
11
52.6011
21
-55.3112
0
LINE
8
Black
10
52.6011
20
-55.3112
11
52.5917
21
-55.2978
0
LINE
8
Black
10
52.5917
20
-55.2978
11
52.5903
21
-55.2925
0
LINE
8
Black
10
52.5903
20
-55.2925
11
52.5875
21
-55.2878
0
LINE
8
Black
10
52.5875
20
-55.2878
11
52.5847
21
-55.2717
0
LINE
8
Black
10
52.5847
20
-55.2717
11
52.5805
21
-55.2559
0
LINE
8
Black
10
52.5805
20
-55.2559
11
52.581
21
-55.2504
0
LINE
8
Black
10
52.581
20
-55.2504
11
52.58
21
-55.245
0
LINE
8
Black
10
52.58
20
-55.245
11
52.58
21
-39.4218
0
LINE
8
Black
10
52.58
20
-39.4218
11
51.9816
21
-38.8234
0
LINE
8
Black
10
51.9816
20
-38.8234
11
51.9816
21
-38.8234
0
LINE
8
Black
10
51.9816
20
-38.8234
11
51.6282
21
-38.47
0
LINE
8
Black
10
51.6282
20
-38.47
11
50.36
21
-38.47
0
LINE
8
Black
10
50.36
20
-38.47
11
50.36
21
-38.72
0
LINE
8
Black
10
50.36
20
-38.72
11
48.26
21
-38.72
0
LINE
8
Black
10
48.26
20
-38.72
11
48.26
21
-37.97
0
LINE
8
Black
10
48.26
20
-37.97
11
50.36
21
-37.97
0
LINE
8
Black
10
50.36
20
-37.97
11
50.36
21
-38.22
0
LINE
8
Black
10
50.36
20
-36.82
11
51.55
21
-36.82
0
LINE
8
Black
10
51.55
20
-36.82
11
51.5554
21
-36.821
0
LINE
8
Black
10
51.5554
20
-36.821
11
51.5609
21
-36.8205
0
LINE
8
Black
10
51.5609
20
-36.8205
11
51.5767
21
-36.8247
0
LINE
8
Black
10
51.5767
20
-36.8247
11
51.5928
21
-36.8275
0
LINE
8
Black
10
51.5928
20
-36.8275
11
51.5975
21
-36.8303
0
LINE
8
Black
10
51.5975
20
-36.8303
11
51.6028
21
-36.8317
0
LINE
8
Black
10
51.6028
20
-36.8317
11
51.6162
21
-36.8411
0
LINE
8
Black
10
51.6162
20
-36.8411
11
51.6303
21
-36.8492
0
LINE
8
Black
10
51.6303
20
-36.8492
11
51.6339
21
-36.8535
0
LINE
8
Black
10
51.6339
20
-36.8535
11
51.6384
21
-36.8566
0
LINE
8
Black
10
51.6384
20
-36.8566
11
53.4284
21
-38.6466
0
LINE
8
Black
10
53.4284
20
-38.6466
11
53.4315
21
-38.6511
0
LINE
8
Black
10
53.4315
20
-38.6511
11
53.4358
21
-38.6547
0
LINE
8
Black
10
53.4358
20
-38.6547
11
53.4439
21
-38.6688
0
LINE
8
Black
10
53.4439
20
-38.6688
11
53.4533
21
-38.6822
0
LINE
8
Black
10
53.4533
20
-38.6822
11
53.4547
21
-38.6875
0
LINE
8
Black
10
53.4547
20
-38.6875
11
53.4575
21
-38.6922
0
LINE
8
Black
10
53.4575
20
-38.6922
11
53.4603
21
-38.7083
0
LINE
8
Black
10
53.4603
20
-38.7083
11
53.4645
21
-38.7241
0
LINE
8
Black
10
53.4645
20
-38.7241
11
53.464
21
-38.7296
0
LINE
8
Black
10
53.464
20
-38.7296
11
53.465
21
-38.735
0
LINE
8
Black
10
53.465
20
-38.735
11
53.465
21
-54.5582
0
LINE
8
Black
10
53.465
20
-54.5582
11
54.0268
21
-55.12
0
LINE
8
Black
10
54.0268
20
-55.12
11
55.245
21
-55.12
0
LINE
8
Black
10
55.245
20
-55.12
11
55.2504
21
-55.121
0
LINE
8
Black
10
55.2504
20
-55.121
11
55.2559
21
-55.1205
0
LINE
8
Black
10
55.2559
20
-55.1205
11
55.2717
21
-55.1247
0
LINE
8
Black
10
55.2717
20
-55.1247
11
55.2878
21
-55.1275
0
LINE
8
Black
10
55.2878
20
-55.1275
11
55.2925
21
-55.1303
0
LINE
8
Black
10
55.2925
20
-55.1303
11
55.2978
21
-55.1317
0
LINE
8
Black
10
55.2978
20
-55.1317
11
55.3112
21
-55.1411
0
LINE
8
Black
10
55.3112
20
-55.1411
11
55.3253
21
-55.1492
0
LINE
8
Black
10
55.3253
20
-55.1492
11
55.3289
21
-55.1535
0
LINE
8
Black
10
55.3289
20
-55.1535
11
55.3334
21
-55.1566
0
LINE
8
Black
10
55.3334
20
-55.1566
11
56.6034
21
-56.4266
0
LINE
8
Black
10
56.6034
20
-56.4266
11
56.6065
21
-56.4311
0
LINE
8
Black
10
56.6065
20
-56.4311
11
56.6108
21
-56.4347
0
LINE
8
Black
10
56.6108
20
-56.4347
11
56.6189
21
-56.4488
0
LINE
8
Black
10
56.6189
20
-56.4488
11
56.6283
21
-56.4622
0
LINE
8
Black
10
56.6283
20
-56.4622
11
56.6297
21
-56.4675
0
LINE
8
Black
10
56.6297
20
-56.4675
11
56.6325
21
-56.4722
0
LINE
8
Black
10
56.6325
20
-56.4722
11
56.6353
21
-56.4883
0
LINE
8
Black
10
56.6353
20
-56.4883
11
56.6395
21
-56.5041
0
LINE
8
Black
10
56.6395
20
-56.5041
11
56.639
21
-56.5096
0
LINE
8
Black
10
56.639
20
-56.5096
11
56.64
21
-56.515
0
LINE
8
Black
10
56.64
20
-56.515
11
56.64
21
-59.055
0
LINE
8
Black
10
56.64
20
-59.055
11
56.639
21
-59.0604
0
LINE
8
Black
10
56.639
20
-59.0604
11
56.6395
21
-59.0659
0
LINE
8
Black
10
56.6395
20
-59.0659
11
56.6353
21
-59.0817
0
LINE
8
Black
10
56.6353
20
-59.0817
11
56.6325
21
-59.0978
0
LINE
8
Black
10
56.6325
20
-59.0978
11
56.6297
21
-59.1025
0
LINE
8
Black
10
56.6297
20
-59.1025
11
56.6283
21
-59.1078
0
LINE
8
Black
10
56.6283
20
-59.1078
11
56.6189
21
-59.1212
0
LINE
8
Black
10
56.6189
20
-59.1212
11
56.6108
21
-59.1353
0
LINE
8
Black
10
56.6108
20
-59.1353
11
56.6065
21
-59.1389
0
LINE
8
Black
10
56.6065
20
-59.1389
11
56.6034
21
-59.1434
0
LINE
8
Black
10
56.6034
20
-59.1434
11
55.9684
21
-59.7784
0
LINE
8
Black
10
55.9684
20
-59.7784
11
55.9639
21
-59.7815
0
LINE
8
Black
10
55.9639
20
-59.7815
11
55.9603
21
-59.7858
0
LINE
8
Black
10
55.9603
20
-59.7858
11
55.9462
21
-59.7939
0
LINE
8
Black
10
55.9462
20
-59.7939
11
55.9328
21
-59.8033
0
LINE
8
Black
10
55.9328
20
-59.8033
11
55.9275
21
-59.8047
0
LINE
8
Black
10
55.9275
20
-59.8047
11
55.9228
21
-59.8075
0
LINE
8
Black
10
55.9228
20
-59.8075
11
55.9067
21
-59.8103
0
LINE
8
Black
10
55.9067
20
-59.8103
11
55.8909
21
-59.8145
0
LINE
8
Black
10
55.8909
20
-59.8145
11
55.8854
21
-59.814
0
LINE
8
Black
10
55.8854
20
-59.814
11
55.88
21
-59.815
0
LINE
8
Black
10
55.88
20
-59.815
11
55.4521
21
-59.815
0
LINE
8
Black
10
55.4521
20
-59.815
11
55.4215
21
-59.9887
0
LINE
8
Black
10
55.4215
20
-59.9887
11
55.2716
21
-60.2484
0
LINE
8
Black
10
55.2716
20
-60.2484
11
55.0418
21
-60.4412
0
LINE
8
Black
10
55.0418
20
-60.4412
11
54.76
21
-60.5438
0
LINE
8
Black
10
54.76
20
-60.5438
11
54.46
21
-60.5438
0
LINE
8
Black
10
54.46
20
-60.5438
11
54.1782
21
-60.4412
0
LINE
8
Black
10
54.1782
20
-60.4412
11
53.9484
21
-60.2484
0
LINE
8
Black
10
53.9484
20
-60.2484
11
53.7985
21
-59.9887
0
LINE
8
Black
10
53.7985
20
-59.9887
11
53.7464
21
-59.6933
0
LINE
8
Black
10
53.7464
20
-59.6933
11
53.7464
21
-59.6867
0
LINE
8
Black
10
53.7464
20
-59.6867
11
53.7985
21
-59.3913
0
LINE
8
Black
10
53.7985
20
-59.3913
11
53.9484
21
-59.1316
0
LINE
8
Black
10
53.9484
20
-59.1316
11
54.1782
21
-58.9388
0
LINE
8
Black
10
54.1782
20
-58.9388
11
54.46
21
-58.8362
0
LINE
8
Black
10
54.46
20
-58.8362
11
54.76
21
-58.8362
0
LINE
8
Black
10
54.76
20
-58.8362
11
55.0418
21
-58.9388
0
LINE
8
Black
10
55.0418
20
-58.9388
11
55.2716
21
-59.1316
0
LINE
8
Black
10
55.2716
20
-59.1316
11
55.4215
21
-59.3913
0
LINE
8
Black
10
55.4215
20
-59.3913
11
55.4521
21
-59.565
0
LINE
8
Black
10
55.4521
20
-59.565
11
55.8282
21
-59.565
0
LINE
8
Black
10
55.8282
20
-59.565
11
56.39
21
-59.0032
0
LINE
8
Black
10
56.39
20
-59.0032
11
56.39
21
-56.5668
0
LINE
8
Black
10
56.39
20
-56.5668
11
55.1932
21
-55.37
0
LINE
8
Black
10
55.1932
20
-55.37
11
53.975
21
-55.37
0
LINE
8
Black
10
53.975
20
-55.37
11
53.9696
21
-55.369
0
LINE
8
Black
10
53.9696
20
-55.369
11
53.9641
21
-55.3695
0
LINE
8
Black
10
53.9641
20
-55.3695
11
53.9483
21
-55.3653
0
LINE
8
Black
10
53.9483
20
-55.3653
11
53.9322
21
-55.3625
0
LINE
8
Black
10
53.9322
20
-55.3625
11
53.9275
21
-55.3597
0
LINE
8
Black
10
53.9275
20
-55.3597
11
53.9222
21
-55.3583
0
LINE
8
Black
10
53.9222
20
-55.3583
11
53.9088
21
-55.3489
0
LINE
8
Black
10
53.9088
20
-55.3489
11
53.8947
21
-55.3408
0
LINE
8
Black
10
53.8947
20
-55.3408
11
53.8911
21
-55.3365
0
LINE
8
Black
10
53.8911
20
-55.3365
11
53.8866
21
-55.3334
0
LINE
8
Black
10
53.8866
20
-55.3334
11
53.2516
21
-54.6984
0
LINE
8
Black
10
53.2516
20
-54.6984
11
53.2485
21
-54.6939
0
LINE
8
Black
10
53.2485
20
-54.6939
11
53.2442
21
-54.6903
0
LINE
8
Black
10
53.2442
20
-54.6903
11
53.2361
21
-54.6762
0
LINE
8
Black
10
53.2361
20
-54.6762
11
53.2267
21
-54.6628
0
LINE
8
Black
10
53.2267
20
-54.6628
11
53.2253
21
-54.6575
0
LINE
8
Black
10
53.2253
20
-54.6575
11
53.2225
21
-54.6528
0
LINE
8
Black
10
53.2225
20
-54.6528
11
53.2197
21
-54.6367
0
LINE
8
Black
10
53.2197
20
-54.6367
11
53.2155
21
-54.6209
0
LINE
8
Black
10
53.2155
20
-54.6209
11
53.216
21
-54.6154
0
LINE
8
Black
10
53.216
20
-54.6154
11
53.215
21
-54.61
0
LINE
8
Black
10
53.215
20
-54.61
11
53.215
21
-38.7868
0
LINE
8
Black
10
53.215
20
-38.7868
11
51.4982
21
-37.07
0
LINE
8
Black
10
51.4982
20
-37.07
11
50.36
21
-37.07
0
LINE
8
Black
10
50.36
20
-37.07
11
50.36
21
-37.32
0
LINE
8
Black
10
50.36
20
-37.32
11
48.26
21
-37.32
0
LINE
8
Black
10
48.26
20
-37.32
11
48.26
21
-36.57
0
LINE
8
Black
10
48.26
20
-36.57
11
50.36
21
-36.57
0
LINE
8
Black
10
50.36
20
-36.57
11
50.36
21
-36.82
0
LINE
8
Black
10
55.983
20
-54.327
11
56.0736
21
-54.3793
0
LINE
8
Black
10
56.0736
20
-54.3793
11
56.1408
21
-54.4594
0
LINE
8
Black
10
56.1408
20
-54.4594
11
56.1766
21
-54.5577
0
LINE
8
Black
10
56.1766
20
-54.5577
11
56.1766
21
-54.6623
0
LINE
8
Black
10
56.1766
20
-54.6623
11
56.1586
21
-54.7118
0
LINE
8
Black
10
56.1586
20
-54.7118
11
57.2384
21
-55.7916
0
LINE
8
Black
10
57.2384
20
-55.7916
11
57.2415
21
-55.7961
0
LINE
8
Black
10
57.2415
20
-55.7961
11
57.2458
21
-55.7997
0
LINE
8
Black
10
57.2458
20
-55.7997
11
57.2539
21
-55.8138
0
LINE
8
Black
10
57.2539
20
-55.8138
11
57.2633
21
-55.8272
0
LINE
8
Black
10
57.2633
20
-55.8272
11
57.2647
21
-55.8325
0
LINE
8
Black
10
57.2647
20
-55.8325
11
57.2675
21
-55.8372
0
LINE
8
Black
10
57.2675
20
-55.8372
11
57.2703
21
-55.8533
0
LINE
8
Black
10
57.2703
20
-55.8533
11
57.2745
21
-55.8691
0
LINE
8
Black
10
57.2745
20
-55.8691
11
57.274
21
-55.8746
0
LINE
8
Black
10
57.274
20
-55.8746
11
57.275
21
-55.88
0
LINE
8
Black
10
57.275
20
-55.88
11
57.275
21
-60.325
0
LINE
8
Black
10
57.275
20
-60.325
11
57.274
21
-60.3304
0
LINE
8
Black
10
57.274
20
-60.3304
11
57.2745
21
-60.3359
0
LINE
8
Black
10
57.2745
20
-60.3359
11
57.2703
21
-60.3517
0
LINE
8
Black
10
57.2703
20
-60.3517
11
57.2675
21
-60.3678
0
LINE
8
Black
10
57.2675
20
-60.3678
11
57.2647
21
-60.3725
0
LINE
8
Black
10
57.2647
20
-60.3725
11
57.2633
21
-60.3778
0
LINE
8
Black
10
57.2633
20
-60.3778
11
57.2539
21
-60.3912
0
LINE
8
Black
10
57.2539
20
-60.3912
11
57.2458
21
-60.4053
0
LINE
8
Black
10
57.2458
20
-60.4053
11
57.2415
21
-60.4089
0
LINE
8
Black
10
57.2415
20
-60.4089
11
57.2384
21
-60.4134
0
LINE
8
Black
10
57.2384
20
-60.4134
11
55.9684
21
-61.6834
0
LINE
8
Black
10
55.9684
20
-61.6834
11
55.9639
21
-61.6865
0
LINE
8
Black
10
55.9639
20
-61.6865
11
55.9603
21
-61.6908
0
LINE
8
Black
10
55.9603
20
-61.6908
11
55.9462
21
-61.6989
0
LINE
8
Black
10
55.9462
20
-61.6989
11
55.9328
21
-61.7083
0
LINE
8
Black
10
55.9328
20
-61.7083
11
55.9275
21
-61.7097
0
LINE
8
Black
10
55.9275
20
-61.7097
11
55.9228
21
-61.7125
0
LINE
8
Black
10
55.9228
20
-61.7125
11
55.9067
21
-61.7153
0
LINE
8
Black
10
55.9067
20
-61.7153
11
55.8909
21
-61.7195
0
LINE
8
Black
10
55.8909
20
-61.7195
11
55.8854
21
-61.719
0
LINE
8
Black
10
55.8854
20
-61.719
11
55.88
21
-61.72
0
LINE
8
Black
10
55.88
20
-61.72
11
50.165
21
-61.72
0
LINE
8
Black
10
50.165
20
-61.72
11
50.1596
21
-61.719
0
LINE
8
Black
10
50.1596
20
-61.719
11
50.1541
21
-61.7195
0
LINE
8
Black
10
50.1541
20
-61.7195
11
50.1383
21
-61.7153
0
LINE
8
Black
10
50.1383
20
-61.7153
11
50.1222
21
-61.7125
0
LINE
8
Black
10
50.1222
20
-61.7125
11
50.1175
21
-61.7097
0
LINE
8
Black
10
50.1175
20
-61.7097
11
50.1122
21
-61.7083
0
LINE
8
Black
10
50.1122
20
-61.7083
11
50.0988
21
-61.6989
0
LINE
8
Black
10
50.0988
20
-61.6989
11
50.0847
21
-61.6908
0
LINE
8
Black
10
50.0847
20
-61.6908
11
50.0811
21
-61.6865
0
LINE
8
Black
10
50.0811
20
-61.6865
11
50.0766
21
-61.6834
0
LINE
8
Black
10
50.0766
20
-61.6834
11
49.4416
21
-61.0484
0
LINE
8
Black
10
49.4416
20
-61.0484
11
49.4385
21
-61.0439
0
LINE
8
Black
10
49.4385
20
-61.0439
11
49.4342
21
-61.0403
0
LINE
8
Black
10
49.4342
20
-61.0403
11
49.4261
21
-61.0262
0
LINE
8
Black
10
49.4261
20
-61.0262
11
49.4167
21
-61.0128
0
LINE
8
Black
10
49.4167
20
-61.0128
11
49.4153
21
-61.0075
0
LINE
8
Black
10
49.4153
20
-61.0075
11
49.4125
21
-61.0028
0
LINE
8
Black
10
49.4125
20
-61.0028
11
49.4097
21
-60.9867
0
LINE
8
Black
10
49.4097
20
-60.9867
11
49.4055
21
-60.9709
0
LINE
8
Black
10
49.4055
20
-60.9709
11
49.406
21
-60.9654
0
LINE
8
Black
10
49.406
20
-60.9654
11
49.405
21
-60.96
0
LINE
8
Black
10
49.405
20
-60.96
11
49.405
21
-60.5438
0
LINE
8
Black
10
49.405
20
-60.5438
11
49.38
21
-60.5438
0
LINE
8
Black
10
49.38
20
-60.5438
11
49.0982
21
-60.4412
0
LINE
8
Black
10
49.0982
20
-60.4412
11
48.8684
21
-60.2484
0
LINE
8
Black
10
48.8684
20
-60.2484
11
48.7185
21
-59.9887
0
LINE
8
Black
10
48.7185
20
-59.9887
11
48.6664
21
-59.6933
0
LINE
8
Black
10
48.6664
20
-59.6933
11
48.6664
21
-59.6867
0
LINE
8
Black
10
48.6664
20
-59.6867
11
48.7185
21
-59.3913
0
LINE
8
Black
10
48.7185
20
-59.3913
11
48.8684
21
-59.1316
0
LINE
8
Black
10
48.8684
20
-59.1316
11
49.0982
21
-58.9388
0
LINE
8
Black
10
49.0982
20
-58.9388
11
49.38
21
-58.8362
0
LINE
8
Black
10
49.38
20
-58.8362
11
49.68
21
-58.8362
0
LINE
8
Black
10
49.68
20
-58.8362
11
49.9618
21
-58.9388
0
LINE
8
Black
10
49.9618
20
-58.9388
11
50.1916
21
-59.1316
0
LINE
8
Black
10
50.1916
20
-59.1316
11
50.3415
21
-59.3913
0
LINE
8
Black
10
50.3415
20
-59.3913
11
50.3936
21
-59.6867
0
LINE
8
Black
10
50.3936
20
-59.6867
11
50.3936
21
-59.6933
0
LINE
8
Black
10
50.3936
20
-59.6933
11
50.3415
21
-59.9887
0
LINE
8
Black
10
50.3415
20
-59.9887
11
50.1916
21
-60.2484
0
LINE
8
Black
10
50.1916
20
-60.2484
11
49.9618
21
-60.4412
0
LINE
8
Black
10
49.9618
20
-60.4412
11
49.68
21
-60.5438
0
LINE
8
Black
10
49.68
20
-60.5438
11
49.655
21
-60.5438
0
LINE
8
Black
10
49.655
20
-60.5438
11
49.655
21
-60.9082
0
LINE
8
Black
10
49.655
20
-60.9082
11
50.2168
21
-61.47
0
LINE
8
Black
10
50.2168
20
-61.47
11
55.8282
21
-61.47
0
LINE
8
Black
10
55.8282
20
-61.47
11
57.025
21
-60.2732
0
LINE
8
Black
10
57.025
20
-60.2732
11
57.025
21
-55.9318
0
LINE
8
Black
10
57.025
20
-55.9318
11
55.985
21
-54.8918
0
LINE
8
Black
10
55.985
20
-54.8918
11
55.983
21
-54.893
0
LINE
8
Black
10
55.983
20
-54.893
11
55.88
21
-54.9111
0
LINE
8
Black
10
55.88
20
-54.9111
11
55.777
21
-54.893
0
LINE
8
Black
10
55.777
20
-54.893
11
55.6864
21
-54.8407
0
LINE
8
Black
10
55.6864
20
-54.8407
11
55.6192
21
-54.7606
0
LINE
8
Black
10
55.6192
20
-54.7606
11
55.5834
21
-54.6623
0
LINE
8
Black
10
55.5834
20
-54.6623
11
55.5834
21
-54.5577
0
LINE
8
Black
10
55.5834
20
-54.5577
11
55.6192
21
-54.4594
0
LINE
8
Black
10
55.6192
20
-54.4594
11
55.6864
21
-54.3793
0
LINE
8
Black
10
55.6864
20
-54.3793
11
55.777
21
-54.327
0
LINE
8
Black
10
55.777
20
-54.327
11
55.88
21
-54.3089
0
LINE
8
Black
10
55.88
20
-54.3089
11
55.983
21
-54.327
0
LINE
8
Black
10
42.35
20
-38.399
11
41.9264
21
-38.399
0
LINE
8
Black
10
41.9264
20
-38.399
11
41.842
21
-38.4834
0
LINE
8
Black
10
41.842
20
-38.4834
11
41.842
21
-38.621
0
LINE
8
Black
10
41.842
20
-38.621
11
41.9193
21
-38.8078
0
LINE
8
Black
10
41.9193
20
-38.8078
11
41.9632
21
-38.8516
0
LINE
8
Black
10
41.9632
20
-38.8516
11
41.9752
21
-38.8688
0
LINE
8
Black
10
41.9752
20
-38.8688
11
41.9876
21
-38.8858
0
LINE
8
Black
10
41.9876
20
-38.8858
11
41.9879
21
-38.8869
0
LINE
8
Black
10
41.9879
20
-38.8869
11
41.9885
21
-38.8878
0
LINE
8
Black
10
41.9885
20
-38.8878
11
41.9939
21
-38.908
0
LINE
8
Black
10
41.9939
20
-38.908
11
41.9997
21
-38.9282
0
LINE
8
Black
10
41.9997
20
-38.9282
11
41.9996
21
-38.9293
0
LINE
8
Black
10
41.9996
20
-38.9293
11
41.9999
21
-38.9304
0
LINE
8
Black
10
41.9999
20
-38.9304
11
41.9981
21
-38.9513
0
LINE
8
Black
10
41.9981
20
-38.9513
11
41.9966
21
-38.9722
0
LINE
8
Black
10
41.9966
20
-38.9722
11
41.9962
21
-38.9732
0
LINE
8
Black
10
41.9962
20
-38.9732
11
41.9961
21
-38.9743
0
LINE
8
Black
10
41.9961
20
-38.9743
11
41.9872
21
-38.9933
0
LINE
8
Black
10
41.9872
20
-38.9933
11
41.9787
21
-39.0125
0
LINE
8
Black
10
41.9787
20
-39.0125
11
41.9493
21
-39.0561
0
LINE
8
Black
10
41.9493
20
-39.0561
11
41.937
21
-39.0688
0
LINE
8
Black
10
41.937
20
-39.0688
11
41.9256
21
-39.0823
0
LINE
8
Black
10
41.9256
20
-39.0823
11
41.9217
21
-39.0845
0
LINE
8
Black
10
41.9217
20
-39.0845
11
41.9186
21
-39.0878
0
LINE
8
Black
10
41.9186
20
-39.0878
11
41.9027
21
-39.0955
0
LINE
8
Black
10
41.9027
20
-39.0955
11
41.8874
21
-39.1043
0
LINE
8
Black
10
41.8874
20
-39.1043
11
41.883
21
-39.1051
0
LINE
8
Black
10
41.883
20
-39.1051
11
41.879
21
-39.1071
0
LINE
8
Black
10
41.879
20
-39.1071
11
41.8614
21
-39.1089
0
LINE
8
Black
10
41.8614
20
-39.1089
11
41.844
21
-39.112
0
LINE
8
Black
10
41.844
20
-39.112
11
41.5475
21
-39.112
0
LINE
8
Black
10
41.5475
20
-39.112
11
41.2937
21
-39.1625
0
LINE
8
Black
10
41.2937
20
-39.1625
11
41.0786
21
-39.3062
0
LINE
8
Black
10
41.0786
20
-39.3062
11
39.5737
21
-40.8111
0
LINE
8
Black
10
39.5737
20
-40.8111
11
39.43
21
-41.0262
0
LINE
8
Black
10
39.43
20
-41.0262
11
39.3795
21
-41.28
0
LINE
8
Black
10
39.3795
20
-41.28
11
39.3795
21
-53.335
0
LINE
8
Black
10
39.3795
20
-53.335
11
39.43
21
-53.5888
0
LINE
8
Black
10
39.43
20
-53.5888
11
39.5737
21
-53.8039
0
LINE
8
Black
10
39.5737
20
-53.8039
11
41.2398
21
-55.47
0
LINE
8
Black
10
41.2398
20
-55.47
11
41.243
21
-55.4746
0
LINE
8
Black
10
41.243
20
-55.4746
11
41.2473
21
-55.4782
0
LINE
8
Black
10
41.2473
20
-55.4782
11
41.2556
21
-55.4925
0
LINE
8
Black
10
41.2556
20
-55.4925
11
41.2651
21
-55.5061
0
LINE
8
Black
10
41.2651
20
-55.5061
11
41.2665
21
-55.5115
0
LINE
8
Black
10
41.2665
20
-55.5115
11
41.2693
21
-55.5164
0
LINE
8
Black
10
41.2693
20
-55.5164
11
41.2722
21
-55.5327
0
LINE
8
Black
10
41.2722
20
-55.5327
11
41.2765
21
-55.5487
0
LINE
8
Black
10
41.2765
20
-55.5487
11
41.276
21
-55.5543
0
LINE
8
Black
10
41.276
20
-55.5543
11
41.277
21
-55.5598
0
LINE
8
Black
10
41.277
20
-55.5598
11
41.277
21
-55.8607
0
LINE
8
Black
10
41.277
20
-55.8607
11
41.2739
21
-55.8784
0
LINE
8
Black
10
41.2739
20
-55.8784
11
41.2719
21
-55.8963
0
LINE
8
Black
10
41.2719
20
-55.8963
11
41.2701
21
-55.9
0
LINE
8
Black
10
41.2701
20
-55.9
11
41.2693
21
-55.9042
0
LINE
8
Black
10
41.2693
20
-55.9042
11
41.2604
21
-55.9197
0
LINE
8
Black
10
41.2604
20
-55.9197
11
41.2524
21
-55.9358
0
LINE
8
Black
10
41.2524
20
-55.9358
11
41.2494
21
-55.9387
0
LINE
8
Black
10
41.2494
20
-55.9387
11
41.2473
21
-55.9424
0
LINE
8
Black
10
41.2473
20
-55.9424
11
41.2335
21
-55.9539
0
LINE
8
Black
10
41.2335
20
-55.9539
11
41.2206
21
-55.9663
0
LINE
8
Black
10
41.2206
20
-55.9663
11
40.9419
21
-56.1525
0
LINE
8
Black
10
40.9419
20
-56.1525
11
40.7399
21
-56.4548
0
LINE
8
Black
10
40.7399
20
-56.4548
11
40.739
21
-56.4557
0
LINE
8
Black
10
40.739
20
-56.4557
11
40.7385
21
-56.4569
0
LINE
8
Black
10
40.7385
20
-56.4569
11
40.7239
21
-56.4716
0
LINE
8
Black
10
40.7239
20
-56.4716
11
40.7094
21
-56.4866
0
LINE
8
Black
10
40.7094
20
-56.4866
11
40.7083
21
-56.4872
0
LINE
8
Black
10
40.7083
20
-56.4872
11
40.7074
21
-56.4881
0
LINE
8
Black
10
40.7074
20
-56.4881
11
40.6886
21
-56.4969
0
LINE
8
Black
10
40.6886
20
-56.4969
11
40.6699
21
-56.5062
0
LINE
8
Black
10
40.6699
20
-56.5062
11
40.6686
21
-56.5063
0
LINE
8
Black
10
40.6686
20
-56.5063
11
40.6674
21
-56.5068
0
LINE
8
Black
10
40.6674
20
-56.5068
11
40.6468
21
-56.5087
0
LINE
8
Black
10
40.6468
20
-56.5087
11
40.626
21
-56.511
0
LINE
8
Black
10
40.626
20
-56.511
11
40.6248
21
-56.5107
0
LINE
8
Black
10
40.6248
20
-56.5107
11
40.6235
21
-56.5108
0
LINE
8
Black
10
40.6235
20
-56.5108
11
40.6034
21
-56.5054
0
LINE
8
Black
10
40.6034
20
-56.5054
11
40.5832
21
-56.5005
0
LINE
8
Black
10
40.5832
20
-56.5005
11
40.5821
21
-56.4998
0
LINE
8
Black
10
40.5821
20
-56.4998
11
40.5809
21
-56.4994
0
LINE
8
Black
10
40.5809
20
-56.4994
11
40.5638
21
-56.4875
0
LINE
8
Black
10
40.5638
20
-56.4875
11
40.5465
21
-56.476
0
LINE
8
Black
10
40.5465
20
-56.476
11
40.5458
21
-56.4749
0
LINE
8
Black
10
40.5458
20
-56.4749
11
40.5447
21
-56.4742
0
LINE
8
Black
10
40.5447
20
-56.4742
11
40.5327
21
-56.4572
0
LINE
8
Black
10
40.5327
20
-56.4572
11
40.5204
21
-56.4404
0
LINE
8
Black
10
40.5204
20
-56.4404
11
40.5201
21
-56.4392
0
LINE
8
Black
10
40.5201
20
-56.4392
11
40.5193
21
-56.4381
0
LINE
8
Black
10
40.5193
20
-56.4381
11
40.4725
21
-56.3383
0
LINE
8
Black
10
40.4725
20
-56.3383
11
40.0758
21
-55.9761
0
LINE
8
Black
10
40.0758
20
-55.9761
11
39.7352
21
-55.8351
0
LINE
8
Black
10
39.7352
20
-55.8351
11
39.624
21
-55.8931
0
LINE
8
Black
10
39.624
20
-55.8931
11
39.624
21
-56.3341
0
LINE
8
Black
10
39.624
20
-56.3341
11
39.8018
21
-56.3988
0
LINE
8
Black
10
39.8018
20
-56.3988
11
40.0316
21
-56.5916
0
LINE
8
Black
10
40.0316
20
-56.5916
11
40.1815
21
-56.8513
0
LINE
8
Black
10
40.1815
20
-56.8513
11
40.2336
21
-57.1467
0
LINE
8
Black
10
40.2336
20
-57.1467
11
40.2336
21
-57.1533
0
LINE
8
Black
10
40.2336
20
-57.1533
11
40.1815
21
-57.4487
0
LINE
8
Black
10
40.1815
20
-57.4487
11
40.0316
21
-57.7084
0
LINE
8
Black
10
40.0316
20
-57.7084
11
39.8018
21
-57.9012
0
LINE
8
Black
10
39.8018
20
-57.9012
11
39.52
21
-58.0038
0
LINE
8
Black
10
39.52
20
-58.0038
11
39.22
21
-58.0038
0
LINE
8
Black
10
39.22
20
-58.0038
11
39.116
21
-57.9659
0
LINE
8
Black
10
39.116
20
-57.9659
11
38.9382
21
-57.9012
0
LINE
8
Black
10
38.9382
20
-57.9012
11
38.7084
21
-57.7084
0
LINE
8
Black
10
38.7084
20
-57.7084
11
38.5585
21
-57.4487
0
LINE
8
Black
10
38.5585
20
-57.4487
11
38.5506
21
-57.404
0
LINE
8
Black
10
38.5506
20
-57.404
11
38.1127
21
-57.404
0
LINE
8
Black
10
38.1127
20
-57.404
11
38.0566
21
-57.5119
0
LINE
8
Black
10
38.0566
20
-57.5119
11
38.2675
21
-57.9617
0
LINE
8
Black
10
38.2675
20
-57.9617
11
38.4359
21
-58.1155
0
LINE
8
Black
10
38.4359
20
-58.1155
11
38.4404
21
-58.1213
0
LINE
8
Black
10
38.4404
20
-58.1213
11
38.4461
21
-58.126
0
LINE
8
Black
10
38.4461
20
-58.126
11
38.4538
21
-58.1387
0
LINE
8
Black
10
38.4538
20
-58.1387
11
38.4628
21
-58.1504
0
LINE
8
Black
10
38.4628
20
-58.1504
11
38.465
21
-58.1574
0
LINE
8
Black
10
38.465
20
-58.1574
11
38.4688
21
-58.1638
0
LINE
8
Black
10
38.4688
20
-58.1638
11
38.4717
21
-58.1783
0
LINE
8
Black
10
38.4717
20
-58.1783
11
38.4761
21
-58.1924
0
LINE
8
Black
10
38.4761
20
-58.1924
11
38.4758
21
-58.1998
0
LINE
8
Black
10
38.4758
20
-58.1998
11
38.4772
21
-58.2071
0
LINE
8
Black
10
38.4772
20
-58.2071
11
38.4749
21
-58.2217
0
LINE
8
Black
10
38.4749
20
-58.2217
11
38.4743
21
-58.2365
0
LINE
8
Black
10
38.4743
20
-58.2365
11
38.4715
21
-58.2433
0
LINE
8
Black
10
38.4715
20
-58.2433
11
38.4703
21
-58.2506
0
LINE
8
Black
10
38.4703
20
-58.2506
11
38.4631
21
-58.2636
0
LINE
8
Black
10
38.4631
20
-58.2636
11
38.4575
21
-58.2773
0
LINE
8
Black
10
38.4575
20
-58.2773
11
38.4525
21
-58.2827
0
LINE
8
Black
10
38.4525
20
-58.2827
11
38.4489
21
-58.2892
0
LINE
8
Black
10
38.4489
20
-58.2892
11
38.4378
21
-58.2989
0
LINE
8
Black
10
38.4378
20
-58.2989
11
38.4278
21
-58.3099
0
LINE
8
Black
10
38.4278
20
-58.3099
11
38.4212
21
-58.3133
0
LINE
8
Black
10
38.4212
20
-58.3133
11
38.4156
21
-58.3181
0
LINE
8
Black
10
38.4156
20
-58.3181
11
38.4018
21
-58.3234
0
LINE
8
Black
10
38.4018
20
-58.3234
11
38.3887
21
-58.3303
0
LINE
8
Black
10
38.3887
20
-58.3303
11
38.3814
21
-58.3313
0
LINE
8
Black
10
38.3814
20
-58.3313
11
38.3745
21
-58.3339
0
LINE
8
Black
10
38.3745
20
-58.3339
11
38.3131
21
-58.3458
0
LINE
8
Black
10
38.3131
20
-58.3458
11
38.1425
21
-58.4579
0
LINE
8
Black
10
38.1425
20
-58.4579
11
38.0285
21
-58.6267
0
LINE
8
Black
10
38.0285
20
-58.6267
11
37.986
21
-58.839
0
LINE
8
Black
10
37.986
20
-58.839
11
37.986
21
-60.5414
0
LINE
8
Black
10
37.986
20
-60.5414
11
38.0258
21
-60.7469
0
LINE
8
Black
10
38.0258
20
-60.7469
11
38.1379
21
-60.9175
0
LINE
8
Black
10
38.1379
20
-60.9175
11
38.3067
21
-61.0315
0
LINE
8
Black
10
38.3067
20
-61.0315
11
38.519
21
-61.074
0
LINE
8
Black
10
38.519
20
-61.074
11
40.2214
21
-61.074
0
LINE
8
Black
10
40.2214
20
-61.074
11
40.4269
21
-61.0342
0
LINE
8
Black
10
40.4269
20
-61.0342
11
40.5975
21
-60.9221
0
LINE
8
Black
10
40.5975
20
-60.9221
11
40.7115
21
-60.7533
0
LINE
8
Black
10
40.7115
20
-60.7533
11
40.7147
21
-60.7374
0
LINE
8
Black
10
40.7147
20
-60.7374
11
40.7207
21
-60.722
0
LINE
8
Black
10
40.7207
20
-60.722
11
40.7253
21
-60.7062
0
LINE
8
Black
10
40.7253
20
-60.7062
11
40.7286
21
-60.7016
0
LINE
8
Black
10
40.7286
20
-60.7016
11
40.7307
21
-60.6963
0
LINE
8
Black
10
40.7307
20
-60.6963
11
40.7416
21
-60.6839
0
LINE
8
Black
10
40.7416
20
-60.6839
11
40.7514
21
-60.6706
0
LINE
8
Black
10
40.7514
20
-60.6706
11
40.7561
21
-60.6674
0
LINE
8
Black
10
40.7561
20
-60.6674
11
40.7598
21
-60.6632
0
LINE
8
Black
10
40.7598
20
-60.6632
11
40.7743
21
-60.6553
0
LINE
8
Black
10
40.7743
20
-60.6553
11
40.788
21
-60.6461
0
LINE
8
Black
10
40.788
20
-60.6461
11
40.7936
21
-60.6447
0
LINE
8
Black
10
40.7936
20
-60.6447
11
40.7985
21
-60.642
0
LINE
8
Black
10
40.7985
20
-60.642
11
40.8148
21
-60.6395
0
LINE
8
Black
10
40.8148
20
-60.6395
11
40.8309
21
-60.6356
0
LINE
8
Black
10
40.8309
20
-60.6356
11
40.8365
21
-60.6362
0
LINE
8
Black
10
40.8365
20
-60.6362
11
40.8421
21
-60.6354
0
LINE
8
Black
10
40.8421
20
-60.6354
11
40.8583
21
-60.6386
0
LINE
8
Black
10
40.8583
20
-60.6386
11
40.8747
21
-60.6404
0
LINE
8
Black
10
40.8747
20
-60.6404
11
40.8798
21
-60.6429
0
LINE
8
Black
10
40.8798
20
-60.6429
11
40.8854
21
-60.644
0
LINE
8
Black
10
40.8854
20
-60.644
11
40.8995
21
-60.6526
0
LINE
8
Black
10
40.8995
20
-60.6526
11
40.9143
21
-60.6599
0
LINE
8
Black
10
40.9143
20
-60.6599
11
40.9182
21
-60.664
0
LINE
8
Black
10
40.9182
20
-60.664
11
40.9231
21
-60.667
0
LINE
8
Black
10
40.9231
20
-60.667
11
40.9334
21
-60.6799
0
LINE
8
Black
10
40.9334
20
-60.6799
11
40.9384
21
-60.6852
0
LINE
8
Black
10
40.9384
20
-60.6852
11
41.3861
21
-60.9843
0
LINE
8
Black
10
41.3861
20
-60.9843
11
41.91
21
-61.0885
0
LINE
8
Black
10
41.91
20
-61.0885
11
42.4339
21
-60.9843
0
LINE
8
Black
10
42.4339
20
-60.9843
11
42.8781
21
-60.6875
0
LINE
8
Black
10
42.8781
20
-60.6875
11
43.0744
21
-60.3937
0
LINE
8
Black
10
43.0744
20
-60.3937
11
43.084
21
-60.3837
0
LINE
8
Black
10
43.084
20
-60.3837
11
43.0922
21
-60.3725
0
LINE
8
Black
10
43.0922
20
-60.3725
11
43.0991
21
-60.3679
0
LINE
8
Black
10
43.0991
20
-60.3679
11
43.1049
21
-60.3618
0
LINE
8
Black
10
43.1049
20
-60.3618
11
43.1173
21
-60.3557
0
LINE
8
Black
10
43.1173
20
-60.3557
11
43.1289
21
-60.348
0
LINE
8
Black
10
43.1289
20
-60.348
11
43.137
21
-60.346
0
LINE
8
Black
10
43.137
20
-60.346
11
43.1445
21
-60.3423
0
LINE
8
Black
10
43.1445
20
-60.3423
11
43.1582
21
-60.3408
0
LINE
8
Black
10
43.1582
20
-60.3408
11
43.1717
21
-60.3375
0
LINE
8
Black
10
43.1717
20
-60.3375
11
43.18
21
-60.3384
0
LINE
8
Black
10
43.18
20
-60.3384
11
43.1883
21
-60.3375
0
LINE
8
Black
10
43.1883
20
-60.3375
11
43.2018
21
-60.3408
0
LINE
8
Black
10
43.2018
20
-60.3408
11
43.2155
21
-60.3423
0
LINE
8
Black
10
43.2155
20
-60.3423
11
43.223
21
-60.346
0
LINE
8
Black
10
43.223
20
-60.346
11
43.2311
21
-60.348
0
LINE
8
Black
10
43.2311
20
-60.348
11
43.2427
21
-60.3557
0
LINE
8
Black
10
43.2427
20
-60.3557
11
43.2551
21
-60.3618
0
LINE
8
Black
10
43.2551
20
-60.3618
11
43.2609
21
-60.3679
0
LINE
8
Black
10
43.2609
20
-60.3679
11
43.2678
21
-60.3725
0
LINE
8
Black
10
43.2678
20
-60.3725
11
43.276
21
-60.3837
0
LINE
8
Black
10
43.276
20
-60.3837
11
43.2856
21
-60.3937
0
LINE
8
Black
10
43.2856
20
-60.3937
11
43.4819
21
-60.6875
0
LINE
8
Black
10
43.4819
20
-60.6875
11
43.9261
21
-60.9843
0
LINE
8
Black
10
43.9261
20
-60.9843
11
44.45
21
-61.0885
0
LINE
8
Black
10
44.45
20
-61.0885
11
44.9739
21
-60.9843
0
LINE
8
Black
10
44.9739
20
-60.9843
11
45.4181
21
-60.6875
0
LINE
8
Black
10
45.4181
20
-60.6875
11
45.6144
21
-60.3937
0
LINE
8
Black
10
45.6144
20
-60.3937
11
45.624
21
-60.3837
0
LINE
8
Black
10
45.624
20
-60.3837
11
45.6322
21
-60.3725
0
LINE
8
Black
10
45.6322
20
-60.3725
11
45.6391
21
-60.3679
0
LINE
8
Black
10
45.6391
20
-60.3679
11
45.6449
21
-60.3618
0
LINE
8
Black
10
45.6449
20
-60.3618
11
45.6573
21
-60.3557
0
LINE
8
Black
10
45.6573
20
-60.3557
11
45.6689
21
-60.348
0
LINE
8
Black
10
45.6689
20
-60.348
11
45.677
21
-60.346
0
LINE
8
Black
10
45.677
20
-60.346
11
45.6845
21
-60.3423
0
LINE
8
Black
10
45.6845
20
-60.3423
11
45.6982
21
-60.3408
0
LINE
8
Black
10
45.6982
20
-60.3408
11
45.7117
21
-60.3375
0
LINE
8
Black
10
45.7117
20
-60.3375
11
45.72
21
-60.3384
0
LINE
8
Black
10
45.72
20
-60.3384
11
45.7283
21
-60.3375
0
LINE
8
Black
10
45.7283
20
-60.3375
11
45.7418
21
-60.3408
0
LINE
8
Black
10
45.7418
20
-60.3408
11
45.7555
21
-60.3423
0
LINE
8
Black
10
45.7555
20
-60.3423
11
45.763
21
-60.346
0
LINE
8
Black
10
45.763
20
-60.346
11
45.7711
21
-60.348
0
LINE
8
Black
10
45.7711
20
-60.348
11
45.7827
21
-60.3557
0
LINE
8
Black
10
45.7827
20
-60.3557
11
45.7951
21
-60.3618
0
LINE
8
Black
10
45.7951
20
-60.3618
11
45.8009
21
-60.3679
0
LINE
8
Black
10
45.8009
20
-60.3679
11
45.8078
21
-60.3725
0
LINE
8
Black
10
45.8078
20
-60.3725
11
45.816
21
-60.3837
0
LINE
8
Black
10
45.816
20
-60.3837
11
45.8256
21
-60.3937
0
LINE
8
Black
10
45.8256
20
-60.3937
11
46.0219
21
-60.6875
0
LINE
8
Black
10
46.0219
20
-60.6875
11
46.4661
21
-60.9843
0
LINE
8
Black
10
46.4661
20
-60.9843
11
46.99
21
-61.0885
0
LINE
8
Black
10
46.99
20
-61.0885
11
47.5139
21
-60.9843
0
LINE
8
Black
10
47.5139
20
-60.9843
11
47.9581
21
-60.6875
0
LINE
8
Black
10
47.9581
20
-60.6875
11
48.1544
21
-60.3937
0
LINE
8
Black
10
48.1544
20
-60.3937
11
48.164
21
-60.3837
0
LINE
8
Black
10
48.164
20
-60.3837
11
48.1722
21
-60.3725
0
LINE
8
Black
10
48.1722
20
-60.3725
11
48.1791
21
-60.3679
0
LINE
8
Black
10
48.1791
20
-60.3679
11
48.1849
21
-60.3618
0
LINE
8
Black
10
48.1849
20
-60.3618
11
48.1973
21
-60.3557
0
LINE
8
Black
10
48.1973
20
-60.3557
11
48.2089
21
-60.348
0
LINE
8
Black
10
48.2089
20
-60.348
11
48.217
21
-60.346
0
LINE
8
Black
10
48.217
20
-60.346
11
48.2245
21
-60.3423
0
LINE
8
Black
10
48.2245
20
-60.3423
11
48.2382
21
-60.3408
0
LINE
8
Black
10
48.2382
20
-60.3408
11
48.2517
21
-60.3375
0
LINE
8
Black
10
48.2517
20
-60.3375
11
48.26
21
-60.3384
0
LINE
8
Black
10
48.26
20
-60.3384
11
48.2683
21
-60.3375
0
LINE
8
Black
10
48.2683
20
-60.3375
11
48.2818
21
-60.3408
0
LINE
8
Black
10
48.2818
20
-60.3408
11
48.2955
21
-60.3423
0
LINE
8
Black
10
48.2955
20
-60.3423
11
48.303
21
-60.346
0
LINE
8
Black
10
48.303
20
-60.346
11
48.3111
21
-60.348
0
LINE
8
Black
10
48.3111
20
-60.348
11
48.3227
21
-60.3557
0
LINE
8
Black
10
48.3227
20
-60.3557
11
48.3351
21
-60.3618
0
LINE
8
Black
10
48.3351
20
-60.3618
11
48.3409
21
-60.3679
0
LINE
8
Black
10
48.3409
20
-60.3679
11
48.3478
21
-60.3725
0
LINE
8
Black
10
48.3478
20
-60.3725
11
48.356
21
-60.3837
0
LINE
8
Black
10
48.356
20
-60.3837
11
48.3656
21
-60.3937
0
LINE
8
Black
10
48.3656
20
-60.3937
11
48.5619
21
-60.6875
0
LINE
8
Black
10
48.5619
20
-60.6875
11
48.845
21
-60.8766
0
LINE
8
Black
10
48.845
20
-60.8766
11
48.849
21
-60.8805
0
LINE
8
Black
10
48.849
20
-60.8805
11
48.8539
21
-60.8832
0
LINE
8
Black
10
48.8539
20
-60.8832
11
48.8649
21
-60.8956
0
LINE
8
Black
10
48.8649
20
-60.8956
11
48.8768
21
-60.9071
0
LINE
8
Black
10
48.8768
20
-60.9071
11
48.8793
21
-60.9121
0
LINE
8
Black
10
48.8793
20
-60.9121
11
48.883
21
-60.9163
0
LINE
8
Black
10
48.883
20
-60.9163
11
48.889
21
-60.9318
0
LINE
8
Black
10
48.889
20
-60.9318
11
48.8963
21
-60.9467
0
LINE
8
Black
10
48.8963
20
-60.9467
11
48.897
21
-60.9522
0
LINE
8
Black
10
48.897
20
-60.9522
11
48.899
21
-60.9574
0
LINE
8
Black
10
48.899
20
-60.9574
11
48.9475
21
-61.2013
0
LINE
8
Black
10
48.9475
20
-61.2013
11
49.0912
21
-61.4164
0
LINE
8
Black
10
49.0912
20
-61.4164
11
49.7086
21
-62.0338
0
LINE
8
Black
10
49.7086
20
-62.0338
11
49.9237
21
-62.1775
0
LINE
8
Black
10
49.9237
20
-62.1775
11
50.1775
21
-62.228
0
LINE
8
Black
10
50.1775
20
-62.228
11
55.8675
21
-62.228
0
LINE
8
Black
10
55.8675
20
-62.228
11
56.1213
21
-62.1775
0
LINE
8
Black
10
56.1213
20
-62.1775
11
56.3364
21
-62.0338
0
LINE
8
Black
10
56.3364
20
-62.0338
11
57.5888
21
-60.7814
0
LINE
8
Black
10
57.5888
20
-60.7814
11
57.6294
21
-60.7206
0
LINE
8
Black
10
57.6294
20
-60.7206
11
57.6342
21
-60.7156
0
LINE
8
Black
10
57.6342
20
-60.7156
11
57.6377
21
-60.7095
0
LINE
8
Black
10
57.6377
20
-60.7095
11
57.6494
21
-60.6997
0
LINE
8
Black
10
57.6494
20
-60.6997
11
57.6599
21
-60.6887
0
LINE
8
Black
10
57.6599
20
-60.6887
11
57.6662
21
-60.6857
0
LINE
8
Black
10
57.6662
20
-60.6857
11
57.6715
21
-60.6812
0
LINE
8
Black
10
57.6715
20
-60.6812
11
57.6858
21
-60.676
0
LINE
8
Black
10
57.6858
20
-60.676
11
57.6995
21
-60.6692
0
LINE
8
Black
10
57.6995
20
-60.6692
11
57.7064
21
-60.6685
0
LINE
8
Black
10
57.7064
20
-60.6685
11
57.7129
21
-60.6661
0
LINE
8
Black
10
57.7129
20
-60.6661
11
57.7282
21
-60.6661
0
LINE
8
Black
10
57.7282
20
-60.6661
11
57.7433
21
-60.6644
0
LINE
8
Black
10
57.7433
20
-60.6644
11
57.7501
21
-60.6661
0
LINE
8
Black
10
57.7501
20
-60.6661
11
57.7571
21
-60.6661
0
LINE
8
Black
10
57.7571
20
-60.6661
11
57.7714
21
-60.6713
0
LINE
8
Black
10
57.7714
20
-60.6713
11
57.7861
21
-60.6749
0
LINE
8
Black
10
57.7861
20
-60.6749
11
57.7919
21
-60.6788
0
LINE
8
Black
10
57.7919
20
-60.6788
11
57.7985
21
-60.6812
0
LINE
8
Black
10
57.7985
20
-60.6812
11
57.8102
21
-60.691
0
LINE
8
Black
10
57.8102
20
-60.691
11
57.8228
21
-60.6994
0
LINE
8
Black
10
57.8228
20
-60.6994
11
57.8269
21
-60.705
0
LINE
8
Black
10
57.8269
20
-60.705
11
57.8323
21
-60.7095
0
LINE
8
Black
10
57.8323
20
-60.7095
11
57.8399
21
-60.7227
0
LINE
8
Black
10
57.8399
20
-60.7227
11
57.8489
21
-60.735
0
LINE
8
Black
10
57.8489
20
-60.735
11
57.8509
21
-60.7417
0
LINE
8
Black
10
57.8509
20
-60.7417
11
57.8543
21
-60.7477
0
LINE
8
Black
10
57.8543
20
-60.7477
11
57.857
21
-60.7627
0
LINE
8
Black
10
57.857
20
-60.7627
11
57.8612
21
-60.7773
0
LINE
8
Black
10
57.8612
20
-60.7773
11
57.8608
21
-60.7843
0
LINE
8
Black
10
57.8608
20
-60.7843
11
57.862
21
-60.7912
0
LINE
8
Black
10
57.862
20
-60.7912
11
57.862
21
-62.815
0
LINE
8
Black
10
57.862
20
-62.815
11
57.8601
21
-62.8259
0
LINE
8
Black
10
57.8601
20
-62.8259
11
57.8601
21
-62.8371
0
LINE
8
Black
10
57.8601
20
-62.8371
11
57.8563
21
-62.8475
0
LINE
8
Black
10
57.8563
20
-62.8475
11
57.8543
21
-62.8584
0
LINE
8
Black
10
57.8543
20
-62.8584
11
57.8488
21
-62.8681
0
LINE
8
Black
10
57.8488
20
-62.8681
11
57.845
21
-62.8785
0
LINE
8
Black
10
57.845
20
-62.8785
11
57.8378
21
-62.887
0
LINE
8
Black
10
57.8378
20
-62.887
11
57.8323
21
-62.8966
0
LINE
8
Black
10
57.8323
20
-62.8966
11
57.8238
21
-62.9038
0
LINE
8
Black
10
57.8238
20
-62.9038
11
57.8166
21
-62.9123
0
LINE
8
Black
10
57.8166
20
-62.9123
11
57.807
21
-62.9178
0
LINE
8
Black
10
57.807
20
-62.9178
11
57.7985
21
-62.925
0
LINE
8
Black
10
57.7985
20
-62.925
11
57.7881
21
-62.9288
0
LINE
8
Black
10
57.7881
20
-62.9288
11
57.7784
21
-62.9343
0
LINE
8
Black
10
57.7784
20
-62.9343
11
57.7675
21
-62.9363
0
LINE
8
Black
10
57.7675
20
-62.9363
11
57.7571
21
-62.9401
0
LINE
8
Black
10
57.7571
20
-62.9401
11
57.7459
21
-62.9401
0
LINE
8
Black
10
57.7459
20
-62.9401
11
57.735
21
-62.942
0
LINE
8
Black
10
57.735
20
-62.942
11
34.975
21
-62.942
0
LINE
8
Black
10
34.975
20
-62.942
11
34.9641
21
-62.9401
0
LINE
8
Black
10
34.9641
20
-62.9401
11
34.9529
21
-62.9401
0
LINE
8
Black
10
34.9529
20
-62.9401
11
34.9425
21
-62.9363
0
LINE
8
Black
10
34.9425
20
-62.9363
11
34.9316
21
-62.9343
0
LINE
8
Black
10
34.9316
20
-62.9343
11
34.9219
21
-62.9288
0
LINE
8
Black
10
34.9219
20
-62.9288
11
34.9115
21
-62.925
0
LINE
8
Black
10
34.9115
20
-62.925
11
34.903
21
-62.9178
0
LINE
8
Black
10
34.903
20
-62.9178
11
34.8934
21
-62.9123
0
LINE
8
Black
10
34.8934
20
-62.9123
11
34.8862
21
-62.9038
0
LINE
8
Black
10
34.8862
20
-62.9038
11
34.8777
21
-62.8966
0
LINE
8
Black
10
34.8777
20
-62.8966
11
34.8722
21
-62.887
0
LINE
8
Black
10
34.8722
20
-62.887
11
34.865
21
-62.8785
0
LINE
8
Black
10
34.865
20
-62.8785
11
34.8612
21
-62.8681
0
LINE
8
Black
10
34.8612
20
-62.8681
11
34.8557
21
-62.8584
0
LINE
8
Black
10
34.8557
20
-62.8584
11
34.8537
21
-62.8475
0
LINE
8
Black
10
34.8537
20
-62.8475
11
34.8499
21
-62.8371
0
LINE
8
Black
10
34.8499
20
-62.8371
11
34.8499
21
-62.8259
0
LINE
8
Black
10
34.8499
20
-62.8259
11
34.848
21
-62.815
0
LINE
8
Black
10
34.848
20
-62.815
11
34.848
21
-52.755
0
LINE
8
Black
10
34.848
20
-52.755
11
34.8499
21
-52.7441
0
LINE
8
Black
10
34.8499
20
-52.7441
11
34.8499
21
-52.7329
0
LINE
8
Black
10
34.8499
20
-52.7329
11
34.8537
21
-52.7225
0
LINE
8
Black
10
34.8537
20
-52.7225
11
34.8557
21
-52.7116
0
LINE
8
Black
10
34.8557
20
-52.7116
11
34.8612
21
-52.7019
0
LINE
8
Black
10
34.8612
20
-52.7019
11
34.865
21
-52.6915
0
LINE
8
Black
10
34.865
20
-52.6915
11
34.8722
21
-52.683
0
LINE
8
Black
10
34.8722
20
-52.683
11
34.8777
21
-52.6734
0
LINE
8
Black
10
34.8777
20
-52.6734
11
34.8862
21
-52.6662
0
LINE
8
Black
10
34.8862
20
-52.6662
11
34.8934
21
-52.6577
0
LINE
8
Black
10
34.8934
20
-52.6577
11
34.903
21
-52.6522
0
LINE
8
Black
10
34.903
20
-52.6522
11
34.9115
21
-52.645
0
LINE
8
Black
10
34.9115
20
-52.645
11
34.9219
21
-52.6412
0
LINE
8
Black
10
34.9219
20
-52.6412
11
34.9316
21
-52.6357
0
LINE
8
Black
10
34.9316
20
-52.6357
11
34.9425
21
-52.6337
0
LINE
8
Black
10
34.9425
20
-52.6337
11
34.9529
21
-52.6299
0
LINE
8
Black
10
34.9529
20
-52.6299
11
34.9641
21
-52.6299
0
LINE
8
Black
10
34.9641
20
-52.6299
11
34.975
21
-52.628
0
LINE
8
Black
10
34.975
20
-52.628
11
38.0875
21
-52.628
0
LINE
8
Black
10
38.0875
20
-52.628
11
38.3126
21
-52.5832
0
LINE
8
Black
10
38.3126
20
-52.5832
11
38.4928
21
-52.4628
0
LINE
8
Black
10
38.4928
20
-52.4628
11
38.6132
21
-52.2826
0
LINE
8
Black
10
38.6132
20
-52.2826
11
38.658
21
-52.0575
0
LINE
8
Black
10
38.658
20
-52.0575
11
38.658
21
-33.705
0
LINE
8
Black
10
38.658
20
-33.705
11
38.6599
21
-33.6941
0
LINE
8
Black
10
38.6599
20
-33.6941
11
38.6599
21
-33.6829
0
LINE
8
Black
10
38.6599
20
-33.6829
11
38.6637
21
-33.6725
0
LINE
8
Black
10
38.6637
20
-33.6725
11
38.6657
21
-33.6616
0
LINE
8
Black
10
38.6657
20
-33.6616
11
38.6712
21
-33.6519
0
LINE
8
Black
10
38.6712
20
-33.6519
11
38.675
21
-33.6415
0
LINE
8
Black
10
38.675
20
-33.6415
11
38.6822
21
-33.633
0
LINE
8
Black
10
38.6822
20
-33.633
11
38.6877
21
-33.6234
0
LINE
8
Black
10
38.6877
20
-33.6234
11
38.6962
21
-33.6162
0
LINE
8
Black
10
38.6962
20
-33.6162
11
38.7034
21
-33.6077
0
LINE
8
Black
10
38.7034
20
-33.6077
11
38.713
21
-33.6022
0
LINE
8
Black
10
38.713
20
-33.6022
11
38.7215
21
-33.595
0
LINE
8
Black
10
38.7215
20
-33.595
11
38.7319
21
-33.5912
0
LINE
8
Black
10
38.7319
20
-33.5912
11
38.7416
21
-33.5857
0
LINE
8
Black
10
38.7416
20
-33.5857
11
38.7525
21
-33.5837
0
LINE
8
Black
10
38.7525
20
-33.5837
11
38.7629
21
-33.5799
0
LINE
8
Black
10
38.7629
20
-33.5799
11
38.7741
21
-33.5799
0
LINE
8
Black
10
38.7741
20
-33.5799
11
38.785
21
-33.578
0
LINE
8
Black
10
38.785
20
-33.578
11
53.925
21
-33.578
0
LINE
8
Black
10
53.925
20
-33.578
11
53.9359
21
-33.5799
0
LINE
8
Black
10
53.9359
20
-33.5799
11
53.9471
21
-33.5799
0
LINE
8
Black
10
53.9471
20
-33.5799
11
53.9575
21
-33.5837
0
LINE
8
Black
10
53.9575
20
-33.5837
11
53.9684
21
-33.5857
0
LINE
8
Black
10
53.9684
20
-33.5857
11
53.9781
21
-33.5912
0
LINE
8
Black
10
53.9781
20
-33.5912
11
53.9885
21
-33.595
0
LINE
8
Black
10
53.9885
20
-33.595
11
53.997
21
-33.6022
0
LINE
8
Black
10
53.997
20
-33.6022
11
54.0066
21
-33.6077
0
LINE
8
Black
10
54.0066
20
-33.6077
11
54.0138
21
-33.6162
0
LINE
8
Black
10
54.0138
20
-33.6162
11
54.0223
21
-33.6234
0
LINE
8
Black
10
54.0223
20
-33.6234
11
54.0278
21
-33.633
0
LINE
8
Black
10
54.0278
20
-33.633
11
54.035
21
-33.6415
0
LINE
8
Black
10
54.035
20
-33.6415
11
54.0388
21
-33.6519
0
LINE
8
Black
10
54.0388
20
-33.6519
11
54.0443
21
-33.6616
0
LINE
8
Black
10
54.0443
20
-33.6616
11
54.0463
21
-33.6725
0
LINE
8
Black
10
54.0463
20
-33.6725
11
54.0501
21
-33.6829
0
LINE
8
Black
10
54.0501
20
-33.6829
11
54.0501
21
-33.6941
0
LINE
8
Black
10
54.0501
20
-33.6941
11
54.052
21
-33.705
0
LINE
8
Black
10
54.052
20
-33.705
11
54.052
21
-38.2688
0
LINE
8
Black
10
54.052
20
-38.2688
11
54.0508
21
-38.2757
0
LINE
8
Black
10
54.0508
20
-38.2757
11
54.0512
21
-38.2827
0
LINE
8
Black
10
54.0512
20
-38.2827
11
54.0501
21
-38.2867
0
LINE
8
Black
10
54.0501
20
-38.2867
11
54.0501
21
-38.2909
0
LINE
8
Black
10
54.0501
20
-38.2909
11
54.0463
21
-38.3013
0
LINE
8
Black
10
54.0463
20
-38.3013
11
54.0443
21
-38.3123
0
LINE
8
Black
10
54.0443
20
-38.3123
11
54.0409
21
-38.3183
0
LINE
8
Black
10
54.0409
20
-38.3183
11
54.0389
21
-38.325
0
LINE
8
Black
10
54.0389
20
-38.325
11
54.0364
21
-38.3284
0
LINE
8
Black
10
54.0364
20
-38.3284
11
54.035
21
-38.3323
0
LINE
8
Black
10
54.035
20
-38.3323
11
54.0278
21
-38.3408
0
LINE
8
Black
10
54.0278
20
-38.3408
11
54.0223
21
-38.3505
0
LINE
8
Black
10
54.0223
20
-38.3505
11
54.0169
21
-38.355
0
LINE
8
Black
10
54.0169
20
-38.355
11
54.0128
21
-38.3606
0
LINE
8
Black
10
54.0128
20
-38.3606
11
54.0093
21
-38.3629
0
LINE
8
Black
10
54.0093
20
-38.3629
11
54.0066
21
-38.3661
0
LINE
8
Black
10
54.0066
20
-38.3661
11
53.997
21
-38.3717
0
LINE
8
Black
10
53.997
20
-38.3717
11
53.9885
21
-38.3788
0
LINE
8
Black
10
53.9885
20
-38.3788
11
53.9819
21
-38.3812
0
LINE
8
Black
10
53.9819
20
-38.3812
11
53.9761
21
-38.3851
0
LINE
8
Black
10
53.9761
20
-38.3851
11
53.9721
21
-38.3861
0
LINE
8
Black
10
53.9721
20
-38.3861
11
53.9684
21
-38.3882
0
LINE
8
Black
10
53.9684
20
-38.3882
11
53.9575
21
-38.3901
0
LINE
8
Black
10
53.9575
20
-38.3901
11
53.9471
21
-38.3939
0
LINE
8
Black
10
53.9471
20
-38.3939
11
53.9401
21
-38.3939
0
LINE
8
Black
10
53.9401
20
-38.3939
11
53.9333
21
-38.3956
0
LINE
8
Black
10
53.9333
20
-38.3956
11
53.9291
21
-38.3951
0
LINE
8
Black
10
53.9291
20
-38.3951
11
53.925
21
-38.3958
0
LINE
8
Black
10
53.925
20
-38.3958
11
53.9141
21
-38.3939
0
LINE
8
Black
10
53.9141
20
-38.3939
11
53.9029
21
-38.3939
0
LINE
8
Black
10
53.9029
20
-38.3939
11
53.8964
21
-38.3915
0
LINE
8
Black
10
53.8964
20
-38.3915
11
53.8895
21
-38.3908
0
LINE
8
Black
10
53.8895
20
-38.3908
11
53.8857
21
-38.3889
0
LINE
8
Black
10
53.8857
20
-38.3889
11
53.8816
21
-38.3882
0
LINE
8
Black
10
53.8816
20
-38.3882
11
53.8719
21
-38.3826
0
LINE
8
Black
10
53.8719
20
-38.3826
11
53.8615
21
-38.3788
0
LINE
8
Black
10
53.8615
20
-38.3788
11
53.8562
21
-38.3743
0
LINE
8
Black
10
53.8562
20
-38.3743
11
53.8499
21
-38.3713
0
LINE
8
Black
10
53.8499
20
-38.3713
11
53.847
21
-38.3682
0
LINE
8
Black
10
53.847
20
-38.3682
11
53.8434
21
-38.3661
0
LINE
8
Black
10
53.8434
20
-38.3661
11
53.8362
21
-38.3576
0
LINE
8
Black
10
53.8362
20
-38.3576
11
53.8277
21
-38.3505
0
LINE
8
Black
10
53.8277
20
-38.3505
11
53.8242
21
-38.3444
0
LINE
8
Black
10
53.8242
20
-38.3444
11
53.8194
21
-38.3394
0
LINE
8
Black
10
53.8194
20
-38.3394
11
53.7788
21
-38.2786
0
LINE
8
Black
10
53.7788
20
-38.2786
11
52.0064
21
-36.5062
0
LINE
8
Black
10
52.0064
20
-36.5062
11
51.7913
21
-36.3625
0
LINE
8
Black
10
51.7913
20
-36.3625
11
51.5375
21
-36.312
0
LINE
8
Black
10
51.5375
20
-36.312
11
50.8666
21
-36.312
0
LINE
8
Black
10
50.8666
20
-36.312
11
50.8484
21
-36.3088
0
LINE
8
Black
10
50.8484
20
-36.3088
11
50.8301
21
-36.3066
0
LINE
8
Black
10
50.8301
20
-36.3066
11
50.8268
21
-36.305
0
LINE
8
Black
10
50.8268
20
-36.305
11
50.8232
21
-36.3043
0
LINE
8
Black
10
50.8232
20
-36.3043
11
50.8072
21
-36.2951
0
LINE
8
Black
10
50.8072
20
-36.2951
11
50.7907
21
-36.2868
0
LINE
8
Black
10
50.7907
20
-36.2868
11
50.7882
21
-36.2841
0
LINE
8
Black
10
50.7882
20
-36.2841
11
50.785
21
-36.2823
0
LINE
8
Black
10
50.785
20
-36.2823
11
50.7731
21
-36.2682
0
LINE
8
Black
10
50.7731
20
-36.2682
11
50.7605
21
-36.2547
0
LINE
8
Black
10
50.7605
20
-36.2547
11
50.7285
21
-36.2061
0
LINE
8
Black
10
50.7285
20
-36.2061
11
50.5597
21
-36.0921
0
LINE
8
Black
10
50.5597
20
-36.0921
11
50.3474
21
-36.0496
0
LINE
8
Black
10
50.3474
20
-36.0496
11
48.2722
21
-36.0496
0
LINE
8
Black
10
48.2722
20
-36.0496
11
48.0667
21
-36.0894
0
LINE
8
Black
10
48.0667
20
-36.0894
11
47.8961
21
-36.2015
0
LINE
8
Black
10
47.8961
20
-36.2015
11
47.7821
21
-36.3703
0
LINE
8
Black
10
47.7821
20
-36.3703
11
47.7396
21
-36.5826
0
LINE
8
Black
10
47.7396
20
-36.5826
11
47.7396
21
-37.3078
0
LINE
8
Black
10
47.7396
20
-37.3078
11
47.7794
21
-37.5133
0
LINE
8
Black
10
47.7794
20
-37.5133
11
47.8199
21
-37.5749
0
LINE
8
Black
10
47.8199
20
-37.5749
11
47.8231
21
-37.5824
0
LINE
8
Black
10
47.8231
20
-37.5824
11
47.8279
21
-37.589
0
LINE
8
Black
10
47.8279
20
-37.589
11
47.8318
21
-37.6025
0
LINE
8
Black
10
47.8318
20
-37.6025
11
47.8373
21
-37.6154
0
LINE
8
Black
10
47.8373
20
-37.6154
11
47.8378
21
-37.6236
0
LINE
8
Black
10
47.8378
20
-37.6236
11
47.84
21
-37.6314
0
LINE
8
Black
10
47.84
20
-37.6314
11
47.8391
21
-37.6454
0
LINE
8
Black
10
47.8391
20
-37.6454
11
47.8399
21
-37.6594
0
LINE
8
Black
10
47.8399
20
-37.6594
11
47.8375
21
-37.6673
0
LINE
8
Black
10
47.8375
20
-37.6673
11
47.837
21
-37.6754
0
LINE
8
Black
10
47.837
20
-37.6754
11
47.8312
21
-37.6882
0
LINE
8
Black
10
47.8312
20
-37.6882
11
47.8272
21
-37.7017
0
LINE
8
Black
10
47.8272
20
-37.7017
11
47.8223
21
-37.7082
0
LINE
8
Black
10
47.8223
20
-37.7082
11
47.819
21
-37.7157
0
LINE
8
Black
10
47.819
20
-37.7157
11
47.7821
21
-37.7703
0
LINE
8
Black
10
47.7821
20
-37.7703
11
47.7396
21
-37.9826
0
LINE
8
Black
10
47.7396
20
-37.9826
11
47.7396
21
-38.7078
0
LINE
8
Black
10
47.7396
20
-38.7078
11
47.7794
21
-38.9133
0
LINE
8
Black
10
47.7794
20
-38.9133
11
47.8199
21
-38.9749
0
LINE
8
Black
10
47.8199
20
-38.9749
11
47.8231
21
-38.9824
0
LINE
8
Black
10
47.8231
20
-38.9824
11
47.8279
21
-38.989
0
LINE
8
Black
10
47.8279
20
-38.989
11
47.8318
21
-39.0025
0
LINE
8
Black
10
47.8318
20
-39.0025
11
47.8373
21
-39.0154
0
LINE
8
Black
10
47.8373
20
-39.0154
11
47.8378
21
-39.0236
0
LINE
8
Black
10
47.8378
20
-39.0236
11
47.84
21
-39.0314
0
LINE
8
Black
10
47.84
20
-39.0314
11
47.8391
21
-39.0454
0
LINE
8
Black
10
47.8391
20
-39.0454
11
47.8399
21
-39.0594
0
LINE
8
Black
10
47.8399
20
-39.0594
11
47.8375
21
-39.0673
0
LINE
8
Black
10
47.8375
20
-39.0673
11
47.837
21
-39.0754
0
LINE
8
Black
10
47.837
20
-39.0754
11
47.8312
21
-39.0882
0
LINE
8
Black
10
47.8312
20
-39.0882
11
47.8272
21
-39.1017
0
LINE
8
Black
10
47.8272
20
-39.1017
11
47.8223
21
-39.1082
0
LINE
8
Black
10
47.8223
20
-39.1082
11
47.819
21
-39.1157
0
LINE
8
Black
10
47.819
20
-39.1157
11
47.7821
21
-39.1703
0
LINE
8
Black
10
47.7821
20
-39.1703
11
47.7396
21
-39.3826
0
LINE
8
Black
10
47.7396
20
-39.3826
11
47.7396
21
-40.1078
0
LINE
8
Black
10
47.7396
20
-40.1078
11
47.7794
21
-40.3133
0
LINE
8
Black
10
47.7794
20
-40.3133
11
47.8199
21
-40.3749
0
LINE
8
Black
10
47.8199
20
-40.3749
11
47.8231
21
-40.3824
0
LINE
8
Black
10
47.8231
20
-40.3824
11
47.8279
21
-40.389
0
LINE
8
Black
10
47.8279
20
-40.389
11
47.8318
21
-40.4025
0
LINE
8
Black
10
47.8318
20
-40.4025
11
47.8373
21
-40.4154
0
LINE
8
Black
10
47.8373
20
-40.4154
11
47.8378
21
-40.4236
0
LINE
8
Black
10
47.8378
20
-40.4236
11
47.84
21
-40.4314
0
LINE
8
Black
10
47.84
20
-40.4314
11
47.8391
21
-40.4454
0
LINE
8
Black
10
47.8391
20
-40.4454
11
47.8399
21
-40.4594
0
LINE
8
Black
10
47.8399
20
-40.4594
11
47.8375
21
-40.4673
0
LINE
8
Black
10
47.8375
20
-40.4673
11
47.837
21
-40.4754
0
LINE
8
Black
10
47.837
20
-40.4754
11
47.8312
21
-40.4882
0
LINE
8
Black
10
47.8312
20
-40.4882
11
47.8272
21
-40.5017
0
LINE
8
Black
10
47.8272
20
-40.5017
11
47.8223
21
-40.5082
0
LINE
8
Black
10
47.8223
20
-40.5082
11
47.819
21
-40.5157
0
LINE
8
Black
10
47.819
20
-40.5157
11
47.7821
21
-40.5703
0
LINE
8
Black
10
47.7821
20
-40.5703
11
47.7396
21
-40.7826
0
LINE
8
Black
10
47.7396
20
-40.7826
11
47.7396
21
-41.5078
0
LINE
8
Black
10
47.7396
20
-41.5078
11
47.7794
21
-41.7133
0
LINE
8
Black
10
47.7794
20
-41.7133
11
47.8199
21
-41.7749
0
LINE
8
Black
10
47.8199
20
-41.7749
11
47.8231
21
-41.7824
0
LINE
8
Black
10
47.8231
20
-41.7824
11
47.8279
21
-41.789
0
LINE
8
Black
10
47.8279
20
-41.789
11
47.8318
21
-41.8025
0
LINE
8
Black
10
47.8318
20
-41.8025
11
47.8373
21
-41.8154
0
LINE
8
Black
10
47.8373
20
-41.8154
11
47.8378
21
-41.8236
0
LINE
8
Black
10
47.8378
20
-41.8236
11
47.84
21
-41.8314
0
LINE
8
Black
10
47.84
20
-41.8314
11
47.8391
21
-41.8454
0
LINE
8
Black
10
47.8391
20
-41.8454
11
47.8399
21
-41.8594
0
LINE
8
Black
10
47.8399
20
-41.8594
11
47.8375
21
-41.8673
0
LINE
8
Black
10
47.8375
20
-41.8673
11
47.837
21
-41.8754
0
LINE
8
Black
10
47.837
20
-41.8754
11
47.8312
21
-41.8882
0
LINE
8
Black
10
47.8312
20
-41.8882
11
47.8272
21
-41.9017
0
LINE
8
Black
10
47.8272
20
-41.9017
11
47.8223
21
-41.9082
0
LINE
8
Black
10
47.8223
20
-41.9082
11
47.819
21
-41.9157
0
LINE
8
Black
10
47.819
20
-41.9157
11
47.7821
21
-41.9703
0
LINE
8
Black
10
47.7821
20
-41.9703
11
47.7502
21
-42.1295
0
LINE
8
Black
10
47.7502
20
-42.1295
11
47.7447
21
-42.1436
0
LINE
8
Black
10
47.7447
20
-42.1436
11
47.7408
21
-42.1582
0
LINE
8
Black
10
47.7408
20
-42.1582
11
47.7367
21
-42.164
0
LINE
8
Black
10
47.7367
20
-42.164
11
47.7342
21
-42.1706
0
LINE
8
Black
10
47.7342
20
-42.1706
11
47.7242
21
-42.1819
0
LINE
8
Black
10
47.7242
20
-42.1819
11
47.7155
21
-42.1943
0
LINE
8
Black
10
47.7155
20
-42.1943
11
47.1862
21
-42.7236
0
LINE
8
Black
10
47.1862
20
-42.7236
11
47.0425
21
-42.9387
0
LINE
8
Black
10
47.0425
20
-42.9387
11
46.992
21
-43.1925
0
LINE
8
Black
10
46.992
20
-43.1925
11
46.992
21
-47.6125
0
LINE
8
Black
10
46.992
20
-47.6125
11
47.0425
21
-47.8663
0
LINE
8
Black
10
47.0425
20
-47.8663
11
47.1862
21
-48.0814
0
LINE
8
Black
10
47.1862
20
-48.0814
11
47.4147
21
-48.3099
0
LINE
8
Black
10
47.4147
20
-48.3099
11
47.4179
21
-48.3145
0
LINE
8
Black
10
47.4179
20
-48.3145
11
47.4222
21
-48.3181
0
LINE
8
Black
10
47.4222
20
-48.3181
11
47.4305
21
-48.3325
0
LINE
8
Black
10
47.4305
20
-48.3325
11
47.44
21
-48.346
0
LINE
8
Black
10
47.44
20
-48.346
11
47.4414
21
-48.3515
0
LINE
8
Black
10
47.4414
20
-48.3515
11
47.4443
21
-48.3563
0
LINE
8
Black
10
47.4443
20
-48.3563
11
47.4471
21
-48.3726
0
LINE
8
Black
10
47.4471
20
-48.3726
11
47.4514
21
-48.3886
0
LINE
8
Black
10
47.4514
20
-48.3886
11
47.4509
21
-48.3942
0
LINE
8
Black
10
47.4509
20
-48.3942
11
47.4519
21
-48.3998
0
LINE
8
Black
10
47.4519
20
-48.3998
11
47.4519
21
-48.42
0
LINE
8
Black
10
47.4519
20
-48.42
11
47.5746
21
-48.7171
0
LINE
8
Black
10
47.5746
20
-48.7171
11
47.8017
21
-48.9446
0
LINE
8
Black
10
47.8017
20
-48.9446
11
48.0986
21
-49.0679
0
LINE
8
Black
10
48.0986
20
-49.0679
11
48.42
21
-49.0681
0
LINE
8
Black
10
48.42
20
-49.0681
11
48.5015
21
-49.0345
0
LINE
8
Black
10
48.5015
20
-49.0345
11
48.515
21
-49.0315
0
LINE
8
Black
10
48.515
20
-49.0315
11
48.5279
21
-49.0268
0
LINE
8
Black
10
48.5279
20
-49.0268
11
48.5364
21
-49.0268
0
LINE
8
Black
10
48.5364
20
-49.0268
11
48.5446
21
-49.025
0
LINE
8
Black
10
48.5446
20
-49.025
11
48.5583
21
-49.0268
0
LINE
8
Black
10
48.5583
20
-49.0268
11
48.5721
21
-49.0268
0
LINE
8
Black
10
48.5721
20
-49.0268
11
48.58
21
-49.0297
0
LINE
8
Black
10
48.58
20
-49.0297
11
48.5883
21
-49.0308
0
LINE
8
Black
10
48.5883
20
-49.0308
11
48.6005
21
-49.0371
0
LINE
8
Black
10
48.6005
20
-49.0371
11
48.6135
21
-49.0419
0
LINE
8
Black
10
48.6135
20
-49.0419
11
48.6199
21
-49.0473
0
LINE
8
Black
10
48.6199
20
-49.0473
11
48.6274
21
-49.0512
0
LINE
8
Black
10
48.6274
20
-49.0512
11
48.6367
21
-49.0613
0
LINE
8
Black
10
48.6367
20
-49.0613
11
48.6473
21
-49.0702
0
LINE
8
Black
10
48.6473
20
-49.0702
11
48.6515
21
-49.0775
0
LINE
8
Black
10
48.6515
20
-49.0775
11
48.6572
21
-49.0837
0
LINE
8
Black
10
48.6572
20
-49.0837
11
48.6624
21
-49.0965
0
LINE
8
Black
10
48.6624
20
-49.0965
11
48.6693
21
-49.1084
0
LINE
8
Black
10
48.6693
20
-49.1084
11
48.6708
21
-49.1167
0
LINE
8
Black
10
48.6708
20
-49.1167
11
48.674
21
-49.1245
0
LINE
8
Black
10
48.674
20
-49.1245
11
48.6746
21
-49.1382
0
LINE
8
Black
10
48.6746
20
-49.1382
11
48.677
21
-49.1518
0
LINE
8
Black
10
48.677
20
-49.1518
11
48.677
21
-50.0702
0
LINE
8
Black
10
48.677
20
-50.0702
11
48.676
21
-50.0757
0
LINE
8
Black
10
48.676
20
-50.0757
11
48.6765
21
-50.0813
0
LINE
8
Black
10
48.6765
20
-50.0813
11
48.6722
21
-50.0973
0
LINE
8
Black
10
48.6722
20
-50.0973
11
48.6693
21
-50.1136
0
LINE
8
Black
10
48.6693
20
-50.1136
11
48.6665
21
-50.1185
0
LINE
8
Black
10
48.6665
20
-50.1185
11
48.6651
21
-50.1239
0
LINE
8
Black
10
48.6651
20
-50.1239
11
48.6556
21
-50.1375
0
LINE
8
Black
10
48.6556
20
-50.1375
11
48.6473
21
-50.1518
0
LINE
8
Black
10
48.6473
20
-50.1518
11
48.643
21
-50.1554
0
LINE
8
Black
10
48.643
20
-50.1554
11
48.6398
21
-50.16
0
LINE
8
Black
10
48.6398
20
-50.16
11
47.4
21
-51.3998
0
LINE
8
Black
10
47.4
20
-51.3998
11
47.3954
21
-51.403
0
LINE
8
Black
10
47.3954
20
-51.403
11
47.3918
21
-51.4073
0
LINE
8
Black
10
47.3918
20
-51.4073
11
47.3775
21
-51.4156
0
LINE
8
Black
10
47.3775
20
-51.4156
11
47.3639
21
-51.4251
0
LINE
8
Black
10
47.3639
20
-51.4251
11
47.3585
21
-51.4265
0
LINE
8
Black
10
47.3585
20
-51.4265
11
47.3536
21
-51.4293
0
LINE
8
Black
10
47.3536
20
-51.4293
11
47.3373
21
-51.4322
0
LINE
8
Black
10
47.3373
20
-51.4322
11
47.3213
21
-51.4365
0
LINE
8
Black
10
47.3213
20
-51.4365
11
47.3157
21
-51.436
0
LINE
8
Black
10
47.3157
20
-51.436
11
47.3102
21
-51.437
0
LINE
8
Black
10
47.3102
20
-51.437
11
44.3775
21
-51.437
0
LINE
8
Black
10
44.3775
20
-51.437
11
44.3719
21
-51.436
0
LINE
8
Black
10
44.3719
20
-51.436
11
44.3663
21
-51.4365
0
LINE
8
Black
10
44.3663
20
-51.4365
11
44.3503
21
-51.4322
0
LINE
8
Black
10
44.3503
20
-51.4322
11
44.334
21
-51.4293
0
LINE
8
Black
10
44.334
20
-51.4293
11
44.3291
21
-51.4265
0
LINE
8
Black
10
44.3291
20
-51.4265
11
44.3237
21
-51.4251
0
LINE
8
Black
10
44.3237
20
-51.4251
11
44.3102
21
-51.4156
0
LINE
8
Black
10
44.3102
20
-51.4156
11
44.2958
21
-51.4073
0
LINE
8
Black
10
44.2958
20
-51.4073
11
44.2922
21
-51.403
0
LINE
8
Black
10
44.2922
20
-51.403
11
44.2876
21
-51.3997
0
LINE
8
Black
10
44.2876
20
-51.3997
11
44.2733
21
-51.3854
0
LINE
8
Black
10
44.2733
20
-51.3854
11
43.9764
21
-51.2621
0
LINE
8
Black
10
43.9764
20
-51.2621
11
43.655
21
-51.2619
0
LINE
8
Black
10
43.655
20
-51.2619
11
43.3579
21
-51.3846
0
LINE
8
Black
10
43.3579
20
-51.3846
11
43.1304
21
-51.6117
0
LINE
8
Black
10
43.1304
20
-51.6117
11
43.0071
21
-51.9086
0
LINE
8
Black
10
43.0071
20
-51.9086
11
43.0069
21
-52.23
0
LINE
8
Black
10
43.0069
20
-52.23
11
43.1296
21
-52.5271
0
LINE
8
Black
10
43.1296
20
-52.5271
11
43.3567
21
-52.7546
0
LINE
8
Black
10
43.3567
20
-52.7546
11
43.6536
21
-52.8779
0
LINE
8
Black
10
43.6536
20
-52.8779
11
43.975
21
-52.8781
0
LINE
8
Black
10
43.975
20
-52.8781
11
44.2721
21
-52.7554
0
LINE
8
Black
10
44.2721
20
-52.7554
11
44.2874
21
-52.7401
0
LINE
8
Black
10
44.2874
20
-52.7401
11
44.2919
21
-52.737
0
LINE
8
Black
10
44.2919
20
-52.737
11
44.2955
21
-52.7327
0
LINE
8
Black
10
44.2955
20
-52.7327
11
44.3099
21
-52.7244
0
LINE
8
Black
10
44.3099
20
-52.7244
11
44.3235
21
-52.7149
0
LINE
8
Black
10
44.3235
20
-52.7149
11
44.3289
21
-52.7134
0
LINE
8
Black
10
44.3289
20
-52.7134
11
44.3337
21
-52.7107
0
LINE
8
Black
10
44.3337
20
-52.7107
11
44.3501
21
-52.7078
0
LINE
8
Black
10
44.3501
20
-52.7078
11
44.3662
21
-52.7035
0
LINE
8
Black
10
44.3662
20
-52.7035
11
44.3717
21
-52.704
0
LINE
8
Black
10
44.3717
20
-52.704
11
44.3771
21
-52.703
0
LINE
8
Black
10
44.3771
20
-52.703
11
47.6125
21
-52.703
0
LINE
8
Black
10
47.6125
20
-52.703
11
47.8663
21
-52.6525
0
LINE
8
Black
10
47.8663
20
-52.6525
11
48.0814
21
-52.5088
0
LINE
8
Black
10
48.0814
20
-52.5088
11
49.7488
21
-50.8414
0
LINE
8
Black
10
49.7488
20
-50.8414
11
49.8925
21
-50.6263
0
LINE
8
Black
10
49.8925
20
-50.6263
11
49.943
21
-50.3725
0
LINE
8
Black
10
49.943
20
-50.3725
11
49.943
21
-46.3674
0
LINE
8
Black
10
49.943
20
-46.3674
11
49.9449
21
-46.3565
0
LINE
8
Black
10
49.9449
20
-46.3565
11
49.9449
21
-46.3454
0
LINE
8
Black
10
49.9449
20
-46.3454
11
49.9487
21
-46.3349
0
LINE
8
Black
10
49.9487
20
-46.3349
11
49.9507
21
-46.324
0
LINE
8
Black
10
49.9507
20
-46.324
11
49.9562
21
-46.3144
0
LINE
8
Black
10
49.9562
20
-46.3144
11
49.96
21
-46.3039
0
LINE
8
Black
10
49.96
20
-46.3039
11
49.9672
21
-46.2954
0
LINE
8
Black
10
49.9672
20
-46.2954
11
49.9727
21
-46.2858
0
LINE
8
Black
10
49.9727
20
-46.2858
11
49.9812
21
-46.2787
0
LINE
8
Black
10
49.9812
20
-46.2787
11
49.9884
21
-46.2702
0
LINE
8
Black
10
49.9884
20
-46.2702
11
49.998
21
-46.2646
0
LINE
8
Black
10
49.998
20
-46.2646
11
50.0065
21
-46.2575
0
LINE
8
Black
10
50.0065
20
-46.2575
11
50.0169
21
-46.2537
0
LINE
8
Black
10
50.0169
20
-46.2537
11
50.0266
21
-46.2481
0
LINE
8
Black
10
50.0266
20
-46.2481
11
50.0375
21
-46.2462
0
LINE
8
Black
10
50.0375
20
-46.2462
11
50.0479
21
-46.2424
0
LINE
8
Black
10
50.0479
20
-46.2424
11
50.0591
21
-46.2424
0
LINE
8
Black
10
50.0591
20
-46.2424
11
50.07
21
-46.2404
0
LINE
8
Black
10
50.07
20
-46.2404
11
50.3478
21
-46.2404
0
LINE
8
Black
10
50.3478
20
-46.2404
11
50.5533
21
-46.2006
0
LINE
8
Black
10
50.5533
20
-46.2006
11
50.6053
21
-46.1664
0
LINE
8
Black
10
50.6053
20
-46.1664
11
50.6087
21
-46.165
0
LINE
8
Black
10
50.6087
20
-46.165
11
50.6115
21
-46.1626
0
LINE
8
Black
10
50.6115
20
-46.1626
11
50.6288
21
-46.1563
0
LINE
8
Black
10
50.6288
20
-46.1563
11
50.6458
21
-46.149
0
LINE
8
Black
10
50.6458
20
-46.149
11
50.6495
21
-46.1488
0
LINE
8
Black
10
50.6495
20
-46.1488
11
50.6529
21
-46.1475
0
LINE
8
Black
10
50.6529
20
-46.1475
11
50.6714
21
-46.1475
0
LINE
8
Black
10
50.6714
20
-46.1475
11
50.6898
21
-46.1465
0
LINE
8
Black
10
50.6898
20
-46.1465
11
50.6934
21
-46.1475
0
LINE
8
Black
10
50.6934
20
-46.1475
11
50.6971
21
-46.1475
0
LINE
8
Black
10
50.6971
20
-46.1475
11
50.7144
21
-46.1538
0
LINE
8
Black
10
50.7144
20
-46.1538
11
50.7321
21
-46.1591
0
LINE
8
Black
10
50.7321
20
-46.1591
11
50.735
21
-46.1613
0
LINE
8
Black
10
50.735
20
-46.1613
11
50.7385
21
-46.1626
0
LINE
8
Black
10
50.7385
20
-46.1626
11
50.7526
21
-46.1745
0
LINE
8
Black
10
50.7526
20
-46.1745
11
50.7674
21
-46.1855
0
LINE
8
Black
10
50.7674
20
-46.1855
11
50.7695
21
-46.1886
0
LINE
8
Black
10
50.7695
20
-46.1886
11
50.7723
21
-46.191
0
LINE
8
Black
10
50.7723
20
-46.191
11
50.7815
21
-46.2069
0
LINE
8
Black
10
50.7815
20
-46.2069
11
50.7916
21
-46.2224
0
LINE
8
Black
10
50.7916
20
-46.2224
11
50.7925
21
-46.226
0
LINE
8
Black
10
50.7925
20
-46.226
11
50.7943
21
-46.2292
0
LINE
8
Black
10
50.7943
20
-46.2292
11
50.7975
21
-46.2473
0
LINE
8
Black
10
50.7975
20
-46.2473
11
50.8018
21
-46.2653
0
LINE
8
Black
10
50.8018
20
-46.2653
11
50.8014
21
-46.269
0
LINE
8
Black
10
50.8014
20
-46.269
11
50.802
21
-46.2726
0
LINE
8
Black
10
50.802
20
-46.2726
11
50.802
21
-54.9302
0
LINE
8
Black
10
50.802
20
-54.9302
11
50.801
21
-54.9357
0
LINE
8
Black
10
50.801
20
-54.9357
11
50.8015
21
-54.9413
0
LINE
8
Black
10
50.8015
20
-54.9413
11
50.7972
21
-54.9573
0
LINE
8
Black
10
50.7972
20
-54.9573
11
50.7943
21
-54.9736
0
LINE
8
Black
10
50.7943
20
-54.9736
11
50.7915
21
-54.9785
0
LINE
8
Black
10
50.7915
20
-54.9785
11
50.7901
21
-54.9839
0
LINE
8
Black
10
50.7901
20
-54.9839
11
50.7806
21
-54.9975
0
LINE
8
Black
10
50.7806
20
-54.9975
11
50.7723
21
-55.0118
0
LINE
8
Black
10
50.7723
20
-55.0118
11
50.768
21
-55.0154
0
LINE
8
Black
10
50.768
20
-55.0154
11
50.7648
21
-55.02
0
LINE
8
Black
10
50.7648
20
-55.02
11
49.9978
21
-55.787
0
LINE
8
Black
10
49.9978
20
-55.787
11
49.9831
21
-55.7973
0
LINE
8
Black
10
49.9831
20
-55.7973
11
49.9691
21
-55.8086
0
LINE
8
Black
10
49.9691
20
-55.8086
11
49.9651
21
-55.8099
0
LINE
8
Black
10
49.9651
20
-55.8099
11
49.9616
21
-55.8123
0
LINE
8
Black
10
49.9616
20
-55.8123
11
49.9443
21
-55.817
0
LINE
8
Black
10
49.9443
20
-55.817
11
49.9273
21
-55.8227
0
LINE
8
Black
10
49.9273
20
-55.8227
11
49.9231
21
-55.8227
0
LINE
8
Black
10
49.9231
20
-55.8227
11
49.919
21
-55.8237
0
LINE
8
Black
10
49.919
20
-55.8237
11
49.9012
21
-55.8222
0
LINE
8
Black
10
49.9012
20
-55.8222
11
49.8832
21
-55.8218
0
LINE
8
Black
10
49.8832
20
-55.8218
11
49.53
21
-55.7515
0
LINE
8
Black
10
49.53
20
-55.7515
11
49.0061
21
-55.8557
0
LINE
8
Black
10
49.0061
20
-55.8557
11
48.5619
21
-56.1525
0
LINE
8
Black
10
48.5619
20
-56.1525
11
48.3656
21
-56.4463
0
LINE
8
Black
10
48.3656
20
-56.4463
11
48.356
21
-56.4563
0
LINE
8
Black
10
48.356
20
-56.4563
11
48.3478
21
-56.4675
0
LINE
8
Black
10
48.3478
20
-56.4675
11
48.3409
21
-56.4721
0
LINE
8
Black
10
48.3409
20
-56.4721
11
48.3351
21
-56.4782
0
LINE
8
Black
10
48.3351
20
-56.4782
11
48.3227
21
-56.4843
0
LINE
8
Black
10
48.3227
20
-56.4843
11
48.3111
21
-56.492
0
LINE
8
Black
10
48.3111
20
-56.492
11
48.303
21
-56.494
0
LINE
8
Black
10
48.303
20
-56.494
11
48.2955
21
-56.4977
0
LINE
8
Black
10
48.2955
20
-56.4977
11
48.2818
21
-56.4992
0
LINE
8
Black
10
48.2818
20
-56.4992
11
48.2683
21
-56.5025
0
LINE
8
Black
10
48.2683
20
-56.5025
11
48.26
21
-56.5016
0
LINE
8
Black
10
48.26
20
-56.5016
11
48.2517
21
-56.5025
0
LINE
8
Black
10
48.2517
20
-56.5025
11
48.2382
21
-56.4992
0
LINE
8
Black
10
48.2382
20
-56.4992
11
48.2245
21
-56.4977
0
LINE
8
Black
10
48.2245
20
-56.4977
11
48.217
21
-56.494
0
LINE
8
Black
10
48.217
20
-56.494
11
48.2089
21
-56.492
0
LINE
8
Black
10
48.2089
20
-56.492
11
48.1973
21
-56.4843
0
LINE
8
Black
10
48.1973
20
-56.4843
11
48.1849
21
-56.4782
0
LINE
8
Black
10
48.1849
20
-56.4782
11
48.1791
21
-56.4721
0
LINE
8
Black
10
48.1791
20
-56.4721
11
48.1722
21
-56.4675
0
LINE
8
Black
10
48.1722
20
-56.4675
11
48.164
21
-56.4563
0
LINE
8
Black
10
48.164
20
-56.4563
11
48.1544
21
-56.4463
0
LINE
8
Black
10
48.1544
20
-56.4463
11
47.9581
21
-56.1525
0
LINE
8
Black
10
47.9581
20
-56.1525
11
47.5139
21
-55.8557
0
LINE
8
Black
10
47.5139
20
-55.8557
11
46.99
21
-55.7515
0
LINE
8
Black
10
46.99
20
-55.7515
11
46.6368
21
-55.8218
0
LINE
8
Black
10
46.6368
20
-55.8218
11
46.6188
21
-55.8222
0
LINE
8
Black
10
46.6188
20
-55.8222
11
46.601
21
-55.8237
0
LINE
8
Black
10
46.601
20
-55.8237
11
46.5969
21
-55.8227
0
LINE
8
Black
10
46.5969
20
-55.8227
11
46.5927
21
-55.8227
0
LINE
8
Black
10
46.5927
20
-55.8227
11
46.5757
21
-55.817
0
LINE
8
Black
10
46.5757
20
-55.817
11
46.5584
21
-55.8123
0
LINE
8
Black
10
46.5584
20
-55.8123
11
46.5549
21
-55.8099
0
LINE
8
Black
10
46.5549
20
-55.8099
11
46.5509
21
-55.8086
0
LINE
8
Black
10
46.5509
20
-55.8086
11
46.5369
21
-55.7973
0
LINE
8
Black
10
46.5369
20
-55.7973
11
46.5222
21
-55.787
0
LINE
8
Black
10
46.5222
20
-55.787
11
45.5414
21
-54.8062
0
LINE
8
Black
10
45.5414
20
-54.8062
11
45.3263
21
-54.6625
0
LINE
8
Black
10
45.3263
20
-54.6625
11
45.0725
21
-54.612
0
LINE
8
Black
10
45.0725
20
-54.612
11
44.7648
21
-54.612
0
LINE
8
Black
10
44.7648
20
-54.612
11
44.7593
21
-54.611
0
LINE
8
Black
10
44.7593
20
-54.611
11
44.7537
21
-54.6115
0
LINE
8
Black
10
44.7537
20
-54.6115
11
44.7377
21
-54.6072
0
LINE
8
Black
10
44.7377
20
-54.6072
11
44.7214
21
-54.6043
0
LINE
8
Black
10
44.7214
20
-54.6043
11
44.7165
21
-54.6015
0
LINE
8
Black
10
44.7165
20
-54.6015
11
44.7111
21
-54.6001
0
LINE
8
Black
10
44.7111
20
-54.6001
11
44.6975
21
-54.5906
0
LINE
8
Black
10
44.6975
20
-54.5906
11
44.6832
21
-54.5823
0
LINE
8
Black
10
44.6832
20
-54.5823
11
44.6796
21
-54.578
0
LINE
8
Black
10
44.6796
20
-54.578
11
44.675
21
-54.5748
0
LINE
8
Black
10
44.675
20
-54.5748
11
41.9452
21
-51.845
0
LINE
8
Black
10
41.9452
20
-51.845
11
41.942
21
-51.8404
0
LINE
8
Black
10
41.942
20
-51.8404
11
41.9377
21
-51.8368
0
LINE
8
Black
10
41.9377
20
-51.8368
11
41.9294
21
-51.8225
0
LINE
8
Black
10
41.9294
20
-51.8225
11
41.9199
21
-51.8089
0
LINE
8
Black
10
41.9199
20
-51.8089
11
41.9185
21
-51.8035
0
LINE
8
Black
10
41.9185
20
-51.8035
11
41.9157
21
-51.7986
0
LINE
8
Black
10
41.9157
20
-51.7986
11
41.9128
21
-51.7823
0
LINE
8
Black
10
41.9128
20
-51.7823
11
41.9085
21
-51.7663
0
LINE
8
Black
10
41.9085
20
-51.7663
11
41.909
21
-51.7607
0
LINE
8
Black
10
41.909
20
-51.7607
11
41.908
21
-51.7552
0
LINE
8
Black
10
41.908
20
-51.7552
11
41.908
21
-46.6698
0
LINE
8
Black
10
41.908
20
-46.6698
11
41.909
21
-46.6643
0
LINE
8
Black
10
41.909
20
-46.6643
11
41.9085
21
-46.6587
0
LINE
8
Black
10
41.9085
20
-46.6587
11
41.9128
21
-46.6427
0
LINE
8
Black
10
41.9128
20
-46.6427
11
41.9157
21
-46.6264
0
LINE
8
Black
10
41.9157
20
-46.6264
11
41.9185
21
-46.6215
0
LINE
8
Black
10
41.9185
20
-46.6215
11
41.9199
21
-46.6161
0
LINE
8
Black
10
41.9199
20
-46.6161
11
41.9294
21
-46.6025
0
LINE
8
Black
10
41.9294
20
-46.6025
11
41.9377
21
-46.5882
0
LINE
8
Black
10
41.9377
20
-46.5882
11
41.942
21
-46.5846
0
LINE
8
Black
10
41.942
20
-46.5846
11
41.9452
21
-46.58
0
LINE
8
Black
10
41.9452
20
-46.58
11
42.2497
21
-46.2755
0
LINE
8
Black
10
42.2497
20
-46.2755
11
42.2645
21
-46.2652
0
LINE
8
Black
10
42.2645
20
-46.2652
11
42.2786
21
-46.2539
0
LINE
8
Black
10
42.2786
20
-46.2539
11
42.2824
21
-46.2526
0
LINE
8
Black
10
42.2824
20
-46.2526
11
42.2858
21
-46.2502
0
LINE
8
Black
10
42.2858
20
-46.2502
11
42.3032
21
-46.2456
0
LINE
8
Black
10
42.3032
20
-46.2456
11
42.3203
21
-46.2398
0
LINE
8
Black
10
42.3203
20
-46.2398
11
42.3244
21
-46.2399
0
LINE
8
Black
10
42.3244
20
-46.2399
11
42.3284
21
-46.2388
0
LINE
8
Black
10
42.3284
20
-46.2388
11
42.3464
21
-46.2404
0
LINE
8
Black
10
42.3464
20
-46.2404
11
42.3498
21
-46.2405
0
LINE
8
Black
10
42.3498
20
-46.2405
11
42.35
21
-46.2404
0
LINE
8
Black
10
42.35
20
-46.2404
11
44.325
21
-46.2404
0
LINE
8
Black
10
44.325
20
-46.2404
11
44.3359
21
-46.2424
0
LINE
8
Black
10
44.3359
20
-46.2424
11
44.3471
21
-46.2424
0
LINE
8
Black
10
44.3471
20
-46.2424
11
44.3575
21
-46.2462
0
LINE
8
Black
10
44.3575
20
-46.2462
11
44.3684
21
-46.2481
0
LINE
8
Black
10
44.3684
20
-46.2481
11
44.3781
21
-46.2537
0
LINE
8
Black
10
44.3781
20
-46.2537
11
44.3885
21
-46.2575
0
LINE
8
Black
10
44.3885
20
-46.2575
11
44.397
21
-46.2646
0
LINE
8
Black
10
44.397
20
-46.2646
11
44.4066
21
-46.2702
0
LINE
8
Black
10
44.4066
20
-46.2702
11
44.4138
21
-46.2787
0
LINE
8
Black
10
44.4138
20
-46.2787
11
44.4223
21
-46.2858
0
LINE
8
Black
10
44.4223
20
-46.2858
11
44.4278
21
-46.2954
0
LINE
8
Black
10
44.4278
20
-46.2954
11
44.435
21
-46.3039
0
LINE
8
Black
10
44.435
20
-46.3039
11
44.4388
21
-46.3144
0
LINE
8
Black
10
44.4388
20
-46.3144
11
44.4443
21
-46.324
0
LINE
8
Black
10
44.4443
20
-46.324
11
44.4463
21
-46.3349
0
LINE
8
Black
10
44.4463
20
-46.3349
11
44.4501
21
-46.3454
0
LINE
8
Black
10
44.4501
20
-46.3454
11
44.4501
21
-46.3565
0
LINE
8
Black
10
44.4501
20
-46.3565
11
44.452
21
-46.3674
0
LINE
8
Black
10
44.452
20
-46.3674
11
44.452
21
-47.6975
0
LINE
8
Black
10
44.452
20
-47.6975
11
44.451
21
-47.7031
0
LINE
8
Black
10
44.451
20
-47.7031
11
44.4515
21
-47.7087
0
LINE
8
Black
10
44.4515
20
-47.7087
11
44.4472
21
-47.7247
0
LINE
8
Black
10
44.4472
20
-47.7247
11
44.4443
21
-47.741
0
LINE
8
Black
10
44.4443
20
-47.741
11
44.4415
21
-47.7459
0
LINE
8
Black
10
44.4415
20
-47.7459
11
44.4401
21
-47.7513
0
LINE
8
Black
10
44.4401
20
-47.7513
11
44.4306
21
-47.7648
0
LINE
8
Black
10
44.4306
20
-47.7648
11
44.4223
21
-47.7792
0
LINE
8
Black
10
44.4223
20
-47.7792
11
44.418
21
-47.7828
0
LINE
8
Black
10
44.418
20
-47.7828
11
44.4147
21
-47.7874
0
LINE
8
Black
10
44.4147
20
-47.7874
11
44.4004
21
-47.8017
0
LINE
8
Black
10
44.4004
20
-47.8017
11
44.2771
21
-48.0986
0
LINE
8
Black
10
44.2771
20
-48.0986
11
44.2769
21
-48.42
0
LINE
8
Black
10
44.2769
20
-48.42
11
44.3996
21
-48.7171
0
LINE
8
Black
10
44.3996
20
-48.7171
11
44.6267
21
-48.9446
0
LINE
8
Black
10
44.6267
20
-48.9446
11
44.9236
21
-49.0679
0
LINE
8
Black
10
44.9236
20
-49.0679
11
45.245
21
-49.0681
0
LINE
8
Black
10
45.245
20
-49.0681
11
45.5421
21
-48.9454
0
LINE
8
Black
10
45.5421
20
-48.9454
11
45.7696
21
-48.7183
0
LINE
8
Black
10
45.7696
20
-48.7183
11
45.8929
21
-48.4214
0
LINE
8
Black
10
45.8929
20
-48.4214
11
45.8931
21
-48.1
0
LINE
8
Black
10
45.8931
20
-48.1
11
45.7704
21
-47.8029
0
LINE
8
Black
10
45.7704
20
-47.8029
11
45.7551
21
-47.7876
0
LINE
8
Black
10
45.7551
20
-47.7876
11
45.752
21
-47.7831
0
LINE
8
Black
10
45.752
20
-47.7831
11
45.7477
21
-47.7795
0
LINE
8
Black
10
45.7477
20
-47.7795
11
45.7394
21
-47.7651
0
LINE
8
Black
10
45.7394
20
-47.7651
11
45.7299
21
-47.7515
0
LINE
8
Black
10
45.7299
20
-47.7515
11
45.7284
21
-47.7461
0
LINE
8
Black
10
45.7284
20
-47.7461
11
45.7257
21
-47.7413
0
LINE
8
Black
10
45.7257
20
-47.7413
11
45.7228
21
-47.7249
0
LINE
8
Black
10
45.7228
20
-47.7249
11
45.7185
21
-47.7088
0
LINE
8
Black
10
45.7185
20
-47.7088
11
45.719
21
-47.7033
0
LINE
8
Black
10
45.719
20
-47.7033
11
45.718
21
-47.6979
0
LINE
8
Black
10
45.718
20
-47.6979
11
45.718
21
-44.4625
0
LINE
8
Black
10
45.718
20
-44.4625
11
45.6675
21
-44.2087
0
LINE
8
Black
10
45.6675
20
-44.2087
11
45.5238
21
-43.9936
0
LINE
8
Black
10
45.5238
20
-43.9936
11
45.0364
21
-43.5062
0
LINE
8
Black
10
45.0364
20
-43.5062
11
44.9877
21
-43.4737
0
LINE
8
Black
10
44.9877
20
-43.4737
11
44.9835
21
-43.4696
0
LINE
8
Black
10
44.9835
20
-43.4696
11
44.9783
21
-43.4668
0
LINE
8
Black
10
44.9783
20
-43.4668
11
44.9676
21
-43.4544
0
LINE
8
Black
10
44.9676
20
-43.4544
11
44.9558
21
-43.4432
0
LINE
8
Black
10
44.9558
20
-43.4432
11
44.9532
21
-43.4379
0
LINE
8
Black
10
44.9532
20
-43.4379
11
44.9494
21
-43.4335
0
LINE
8
Black
10
44.9494
20
-43.4335
11
44.9435
21
-43.4182
0
LINE
8
Black
10
44.9435
20
-43.4182
11
44.9363
21
-43.4036
0
LINE
8
Black
10
44.9363
20
-43.4036
11
44.9357
21
-43.3978
0
LINE
8
Black
10
44.9357
20
-43.3978
11
44.9336
21
-43.3923
0
LINE
8
Black
10
44.9336
20
-43.3923
11
44.9306
21
-43.3767
0
LINE
8
Black
10
44.9306
20
-43.3767
11
44.8901
21
-43.3151
0
LINE
8
Black
10
44.8901
20
-43.3151
11
44.8869
21
-43.3076
0
LINE
8
Black
10
44.8869
20
-43.3076
11
44.8821
21
-43.301
0
LINE
8
Black
10
44.8821
20
-43.301
11
44.8782
21
-43.2875
0
LINE
8
Black
10
44.8782
20
-43.2875
11
44.8727
21
-43.2746
0
LINE
8
Black
10
44.8727
20
-43.2746
11
44.8722
21
-43.2664
0
LINE
8
Black
10
44.8722
20
-43.2664
11
44.87
21
-43.2586
0
LINE
8
Black
10
44.87
20
-43.2586
11
44.8709
21
-43.2446
0
LINE
8
Black
10
44.8709
20
-43.2446
11
44.8701
21
-43.2306
0
LINE
8
Black
10
44.8701
20
-43.2306
11
44.8725
21
-43.2227
0
LINE
8
Black
10
44.8725
20
-43.2227
11
44.873
21
-43.2146
0
LINE
8
Black
10
44.873
20
-43.2146
11
44.8788
21
-43.2018
0
LINE
8
Black
10
44.8788
20
-43.2018
11
44.8828
21
-43.1883
0
LINE
8
Black
10
44.8828
20
-43.1883
11
44.8877
21
-43.1818
0
LINE
8
Black
10
44.8877
20
-43.1818
11
44.891
21
-43.1743
0
LINE
8
Black
10
44.891
20
-43.1743
11
44.9279
21
-43.1197
0
LINE
8
Black
10
44.9279
20
-43.1197
11
44.9704
21
-42.9074
0
LINE
8
Black
10
44.9704
20
-42.9074
11
44.9704
21
-42.1822
0
LINE
8
Black
10
44.9704
20
-42.1822
11
44.9306
21
-41.9767
0
LINE
8
Black
10
44.9306
20
-41.9767
11
44.9293
21
-41.9747
0
LINE
8
Black
10
44.9293
20
-41.9747
11
44.9278
21
-41.9713
0
LINE
8
Black
10
44.9278
20
-41.9713
11
44.9254
21
-41.9685
0
LINE
8
Black
10
44.9254
20
-41.9685
11
44.9191
21
-41.9512
0
LINE
8
Black
10
44.9191
20
-41.9512
11
44.9118
21
-41.9342
0
LINE
8
Black
10
44.9118
20
-41.9342
11
44.9116
21
-41.9305
0
LINE
8
Black
10
44.9116
20
-41.9305
11
44.9104
21
-41.9271
0
LINE
8
Black
10
44.9104
20
-41.9271
11
44.9104
21
-41.9086
0
LINE
8
Black
10
44.9104
20
-41.9086
11
44.9093
21
-41.8902
0
LINE
8
Black
10
44.9093
20
-41.8902
11
44.9104
21
-41.8866
0
LINE
8
Black
10
44.9104
20
-41.8866
11
44.9104
21
-41.8829
0
LINE
8
Black
10
44.9104
20
-41.8829
11
44.9167
21
-41.8656
0
LINE
8
Black
10
44.9167
20
-41.8656
11
44.922
21
-41.8479
0
LINE
8
Black
10
44.922
20
-41.8479
11
44.9242
21
-41.845
0
LINE
8
Black
10
44.9242
20
-41.845
11
44.9254
21
-41.8415
0
LINE
8
Black
10
44.9254
20
-41.8415
11
44.9373
21
-41.8274
0
LINE
8
Black
10
44.9373
20
-41.8274
11
44.9483
21
-41.8126
0
LINE
8
Black
10
44.9483
20
-41.8126
11
44.9514
21
-41.8105
0
LINE
8
Black
10
44.9514
20
-41.8105
11
44.9538
21
-41.8077
0
LINE
8
Black
10
44.9538
20
-41.8077
11
44.9698
21
-41.7985
0
LINE
8
Black
10
44.9698
20
-41.7985
11
44.9852
21
-41.7884
0
LINE
8
Black
10
44.9852
20
-41.7884
11
44.9888
21
-41.7875
0
LINE
8
Black
10
44.9888
20
-41.7875
11
44.992
21
-41.7857
0
LINE
8
Black
10
44.992
20
-41.7857
11
45.0102
21
-41.7825
0
LINE
8
Black
10
45.0102
20
-41.7825
11
45.0281
21
-41.7782
0
LINE
8
Black
10
45.0281
20
-41.7782
11
45.0318
21
-41.7786
0
LINE
8
Black
10
45.0318
20
-41.7786
11
45.0354
21
-41.778
0
LINE
8
Black
10
45.0354
20
-41.778
11
45.6628
21
-41.778
0
LINE
8
Black
10
45.6628
20
-41.778
11
45.6683
21
-41.779
0
LINE
8
Black
10
45.6683
20
-41.779
11
45.6739
21
-41.7785
0
LINE
8
Black
10
45.6739
20
-41.7785
11
45.6899
21
-41.7828
0
LINE
8
Black
10
45.6899
20
-41.7828
11
45.7062
21
-41.7857
0
LINE
8
Black
10
45.7062
20
-41.7857
11
45.7111
21
-41.7885
0
LINE
8
Black
10
45.7111
20
-41.7885
11
45.7165
21
-41.7899
0
LINE
8
Black
10
45.7165
20
-41.7899
11
45.7301
21
-41.7994
0
LINE
8
Black
10
45.7301
20
-41.7994
11
45.7444
21
-41.8077
0
LINE
8
Black
10
45.7444
20
-41.8077
11
45.748
21
-41.812
0
LINE
8
Black
10
45.748
20
-41.812
11
45.7526
21
-41.8153
0
LINE
8
Black
10
45.7526
20
-41.8153
11
45.8967
21
-41.9596
0
LINE
8
Black
10
45.8967
20
-41.9596
11
46.1936
21
-42.0829
0
LINE
8
Black
10
46.1936
20
-42.0829
11
46.515
21
-42.0831
0
LINE
8
Black
10
46.515
20
-42.0831
11
46.8121
21
-41.9604
0
LINE
8
Black
10
46.8121
20
-41.9604
11
47.0396
21
-41.7333
0
LINE
8
Black
10
47.0396
20
-41.7333
11
47.1629
21
-41.4364
0
LINE
8
Black
10
47.1629
20
-41.4364
11
47.1631
21
-41.115
0
LINE
8
Black
10
47.1631
20
-41.115
11
47.0404
21
-40.8179
0
LINE
8
Black
10
47.0404
20
-40.8179
11
46.8133
21
-40.5904
0
LINE
8
Black
10
46.8133
20
-40.5904
11
46.5164
21
-40.4671
0
LINE
8
Black
10
46.5164
20
-40.4671
11
46.195
21
-40.4669
0
LINE
8
Black
10
46.195
20
-40.4669
11
46.109
21
-40.5024
0
LINE
8
Black
10
46.109
20
-40.5024
11
46.1063
21
-40.503
0
LINE
8
Black
10
46.1063
20
-40.503
11
46.104
21
-40.5043
0
LINE
8
Black
10
46.104
20
-40.5043
11
46.0849
21
-40.5077
0
LINE
8
Black
10
46.0849
20
-40.5077
11
46.066
21
-40.5119
0
LINE
8
Black
10
46.066
20
-40.5119
11
46.0632
21
-40.5115
0
LINE
8
Black
10
46.0632
20
-40.5115
11
46.0605
21
-40.512
0
LINE
8
Black
10
46.0605
20
-40.512
11
45.037
21
-40.512
0
LINE
8
Black
10
45.037
20
-40.512
11
45.0326
21
-40.5112
0
LINE
8
Black
10
45.0326
20
-40.5112
11
45.0281
21
-40.5117
0
LINE
8
Black
10
45.0281
20
-40.5117
11
45.011
21
-40.5074
0
LINE
8
Black
10
45.011
20
-40.5074
11
44.9936
21
-40.5043
0
LINE
8
Black
10
44.9936
20
-40.5043
11
44.9897
21
-40.5021
0
LINE
8
Black
10
44.9897
20
-40.5021
11
44.9853
21
-40.501
0
LINE
8
Black
10
44.9853
20
-40.501
11
44.9707
21
-40.4911
0
LINE
8
Black
10
44.9707
20
-40.4911
11
44.9554
21
-40.4823
0
LINE
8
Black
10
44.9554
20
-40.4823
11
44.9525
21
-40.4788
0
LINE
8
Black
10
44.9525
20
-40.4788
11
44.9488
21
-40.4763
0
LINE
8
Black
10
44.9488
20
-40.4763
11
44.9384
21
-40.462
0
LINE
8
Black
10
44.9384
20
-40.462
11
44.927
21
-40.4485
0
LINE
8
Black
10
44.927
20
-40.4485
11
44.9255
21
-40.4443
0
LINE
8
Black
10
44.9255
20
-40.4443
11
44.9228
21
-40.4406
0
LINE
8
Black
10
44.9228
20
-40.4406
11
44.918
21
-40.4237
0
LINE
8
Black
10
44.918
20
-40.4237
11
44.9119
21
-40.4071
0
LINE
8
Black
10
44.9119
20
-40.4071
11
44.9119
21
-40.4026
0
LINE
8
Black
10
44.9119
20
-40.4026
11
44.9107
21
-40.3982
0
LINE
8
Black
10
44.9107
20
-40.3982
11
44.9119
21
-40.3806
0
LINE
8
Black
10
44.9119
20
-40.3806
11
44.9119
21
-40.3629
0
LINE
8
Black
10
44.9119
20
-40.3629
11
44.9135
21
-40.3587
0
LINE
8
Black
10
44.9135
20
-40.3587
11
44.9138
21
-40.3542
0
LINE
8
Black
10
44.9138
20
-40.3542
11
44.921
21
-40.3381
0
LINE
8
Black
10
44.921
20
-40.3381
11
44.927
21
-40.3215
0
LINE
8
Black
10
44.927
20
-40.3215
11
44.9277
21
-40.3207
0
LINE
8
Black
10
44.9277
20
-40.3207
11
44.9704
21
-40.1074
0
LINE
8
Black
10
44.9704
20
-40.1074
11
44.9704
21
-39.3822
0
LINE
8
Black
10
44.9704
20
-39.3822
11
44.9306
21
-39.1767
0
LINE
8
Black
10
44.9306
20
-39.1767
11
44.8213
21
-39.0103
0
LINE
8
Black
10
44.8213
20
-39.0103
11
44.8133
21
-38.9918
0
LINE
8
Black
10
44.8133
20
-38.9918
11
44.8048
21
-38.9735
0
LINE
8
Black
10
44.8048
20
-38.9735
11
44.8046
21
-38.9716
0
LINE
8
Black
10
44.8046
20
-38.9716
11
44.8038
21
-38.9698
0
LINE
8
Black
10
44.8038
20
-38.9698
11
44.8027
21
-38.9496
0
LINE
8
Black
10
44.8027
20
-38.9496
11
44.8009
21
-38.9295
0
LINE
8
Black
10
44.8009
20
-38.9295
11
44.8014
21
-38.9277
0
LINE
8
Black
10
44.8014
20
-38.9277
11
44.8013
21
-38.9258
0
LINE
8
Black
10
44.8013
20
-38.9258
11
44.8071
21
-38.9064
0
LINE
8
Black
10
44.8071
20
-38.9064
11
44.8123
21
-38.8869
0
LINE
8
Black
10
44.8123
20
-38.8869
11
44.8134
21
-38.8854
0
LINE
8
Black
10
44.8134
20
-38.8854
11
44.814
21
-38.8835
0
LINE
8
Black
10
44.814
20
-38.8835
11
44.8261
21
-38.8673
0
LINE
8
Black
10
44.8261
20
-38.8673
11
44.8376
21
-38.8508
0
LINE
8
Black
10
44.8376
20
-38.8508
11
44.8807
21
-38.8078
0
LINE
8
Black
10
44.8807
20
-38.8078
11
44.958
21
-38.621
0
LINE
8
Black
10
44.958
20
-38.621
11
44.958
21
-38.4834
0
LINE
8
Black
10
44.958
20
-38.4834
11
44.8736
21
-38.399
0
LINE
8
Black
10
44.8736
20
-38.399
11
44.45
21
-38.399
0
LINE
8
Black
10
44.45
20
-38.399
11
44.45
21
-38.52
0
LINE
8
Black
10
44.45
20
-38.52
11
42.35
21
-38.52
0
LINE
8
Black
10
42.35
20
-38.52
11
42.35
21
-38.399
0
LINE
8
Black
10
38.6642
20
-55.9761
11
38.2675
21
-56.3383
0
LINE
8
Black
10
38.2675
20
-56.3383
11
38.0566
21
-56.7881
0
LINE
8
Black
10
38.0566
20
-56.7881
11
38.1127
21
-56.896
0
LINE
8
Black
10
38.1127
20
-56.896
11
38.5506
21
-56.896
0
LINE
8
Black
10
38.5506
20
-56.896
11
38.5585
21
-56.8513
0
LINE
8
Black
10
38.5585
20
-56.8513
11
38.7084
21
-56.5916
0
LINE
8
Black
10
38.7084
20
-56.5916
11
38.9382
21
-56.3988
0
LINE
8
Black
10
38.9382
20
-56.3988
11
39.116
21
-56.3341
0
LINE
8
Black
10
39.116
20
-56.3341
11
39.116
21
-55.8931
0
LINE
8
Black
10
39.116
20
-55.8931
11
39.0048
21
-55.8351
0
LINE
8
Black
10
39.0048
20
-55.8351
11
38.6642
21
-55.9761
0
LINE
8
Black
10
42.249
20
-37.262
11
42.0622
21
-37.3393
0
LINE
8
Black
10
42.0622
20
-37.3393
11
41.9193
21
-37.4822
0
LINE
8
Black
10
41.9193
20
-37.4822
11
41.842
21
-37.669
0
LINE
8
Black
10
41.842
20
-37.669
11
41.842
21
-37.8066
0
LINE
8
Black
10
41.842
20
-37.8066
11
41.9264
21
-37.891
0
LINE
8
Black
10
41.9264
20
-37.891
11
42.35
21
-37.891
0
LINE
8
Black
10
42.35
20
-37.891
11
42.35
21
-37.77
0
LINE
8
Black
10
42.35
20
-37.77
11
43.146
21
-37.77
0
LINE
8
Black
10
43.146
20
-37.77
11
43.146
21
-37.3464
0
LINE
8
Black
10
43.146
20
-37.3464
11
43.0616
21
-37.262
0
LINE
8
Black
10
43.0616
20
-37.262
11
42.249
21
-37.262
0
LINE
8
Black
10
43.7384
20
-37.262
11
43.654
21
-37.3464
0
LINE
8
Black
10
43.654
20
-37.3464
11
43.654
21
-37.77
0
LINE
8
Black
10
43.654
20
-37.77
11
44.45
21
-37.77
0
LINE
8
Black
10
44.45
20
-37.77
11
44.45
21
-37.891
0
LINE
8
Black
10
44.45
20
-37.891
11
44.8736
21
-37.891
0
LINE
8
Black
10
44.8736
20
-37.891
11
44.958
21
-37.8066
0
LINE
8
Black
10
44.958
20
-37.8066
11
44.958
21
-37.669
0
LINE
8
Black
10
44.958
20
-37.669
11
44.8807
21
-37.4822
0
LINE
8
Black
10
44.8807
20
-37.4822
11
44.7378
21
-37.3393
0
LINE
8
Black
10
44.7378
20
-37.3393
11
44.551
21
-37.262
0
LINE
8
Black
10
44.551
20
-37.262
11
43.7384
21
-37.262
0
CIRCLE
8
Black
10
39.37
20
-59.69
40
0.508
0
CIRCLE
8
Black
10
39.37
20
-57.15
40
0.508
0
CIRCLE
8
Black
10
41.91
20
-59.69
40
0.508
0
CIRCLE
8
Black
10
41.91
20
-57.15
40
0.508
0
CIRCLE
8
Black
10
44.45
20
-59.69
40
0.508
0
CIRCLE
8
Black
10
44.45
20
-57.15
40
0.508
0
CIRCLE
8
Black
10
46.99
20
-59.69
40
0.508
0
CIRCLE
8
Black
10
46.99
20
-57.15
40
0.508
0
CIRCLE
8
Black
10
49.53
20
-59.69
40
0.508
0
CIRCLE
8
Black
10
49.53
20
-57.15
40
0.508
0
CIRCLE
8
Black
10
52.07
20
-59.69
40
0.508
0
CIRCLE
8
Black
10
52.07
20
-57.15
40
0.508
0
CIRCLE
8
Black
10
54.61
20
-59.69
40
0.508
0
CIRCLE
8
Black
10
54.61
20
-57.15
40
0.508
0
CIRCLE
8
Black
10
46.355
20
-41.275
40
0.2
0
CIRCLE
8
Black
10
45.085
20
-48.26
40
0.2
0
CIRCLE
8
Black
10
43.815
20
-52.07
40
0.2
0
CIRCLE
8
Black
10
48.26
20
-48.26
40
0.2
0
CIRCLE
8
Black
10
55.88
20
-54.61
40
0.2
0
CIRCLE
8
Black
10
51.435
20
-40.005
40
0.2
  0
ENDSEC
  0
EOF
