999
dxflib 2.2.0.0
  0
SECTION
  2
HEADER
  9
$ACADVER
  1
AC1015
  9
$HANDSEED
  5
FFFF
  9
$DIMASZ
 40
2.5
  9
$PLIMMIN
 10
0.0
 20
0.0
  9
$DIMEXE
 40
1.25
  9
$DIMGAP
 40
0.625
  9
$PLIMMAX
 10
210.0
 20
297.0
  9
$EXTMIN
 10
0.0
 20
0.0
 30
0.0
  9
$EXTMAX
 10
0.0
 20
0.0
 30
0.0
  9
$INSUNITS
 70
4
  9
$DIMSTYLE
  2
Standard
  9
$DIMEXO
 40
0.625
  9
$INSBASE
 10
0.0
 20
0.0
 30
0.0
  9
$DIMTXT
 40
2.5
  0
ENDSEC
  0
SECTION
  2
TABLES
  0
TABLE
  2
VPORT
  5
8
100
AcDbSymbolTable
 70
1
  0
VPORT
  5
30
100
AcDbSymbolTableRecord
100
AcDbViewportTableRecord
  2
*Active
 70
0
 10
0.0
 20
0.0
 11
1.0
 21
1.0
 12
286.3055555555554861
 22
148.5
 13
0.0
 23
0.0
 14
10.0
 24
10.0
 15
10.0
 25
10.0
 16
0.0
 26
0.0
 36
1.0
 17
0.0
 27
0.0
 37
0.0
 40
297.0
 41
1.92798353909465
 42
50.0
 43
0.0
 44
0.0
 50
0.0
 51
0.0
 71
0
 72
100
 73
1
 74
3
 75
1
 76
1
 77
0
 78
0
281
0
 65
1
110
0.0
120
0.0
130
0.0
111
1.0
121
0.0
131
0.0
112
0.0
122
1.0
132
0.0
 79
0
146
0.0
  0
ENDTAB
  0
TABLE
  2
LTYPE
  5
5
100
AcDbSymbolTable
 70
21
  0
LTYPE
  5
14
100
AcDbSymbolTableRecord
100
AcDbLinetypeTableRecord
  2
ByBlock
 70
0
  3

 72
65
 73
0
 40
0.0
  0
LTYPE
  5
15
100
AcDbSymbolTableRecord
100
AcDbLinetypeTableRecord
  2
ByLayer
 70
0
  3

 72
65
 73
0
 40
0.0
  0
LTYPE
  5
16
100
AcDbSymbolTableRecord
100
AcDbLinetypeTableRecord
  2
CONTINUOUS
 70
0
  3
Solid line
 72
65
 73
0
 40
0.0
  0
LTYPE
  5
31
100
AcDbSymbolTableRecord
100
AcDbLinetypeTableRecord
  2
DOT
 70
0
  3
Dot . . . . . . . . . . . . . . . . . . . . . .
 72
65
 73
2
 40
6.3499999999999996
 49
0.0
 74
0
 49
-6.3499999999999996
 74
0
  0
LTYPE
  5
32
100
AcDbSymbolTableRecord
100
AcDbLinetypeTableRecord
  2
DOT2
 70
0
  3
Dot (.5x) .....................................
 72
65
 73
2
 40
3.1749999999999998
 49
0.0
 74
0
 49
-3.1749999999999998
 74
0
  0
LTYPE
  5
33
100
AcDbSymbolTableRecord
100
AcDbLinetypeTableRecord
  2
DOTX2
 70
0
  3
Dot (2x) .  .  .  .  .  .  .  .  .  .  .  .  .
 72
65
 73
2
 40
12.6999999999999993
 49
0.0
 74
0
 49
-12.6999999999999993
 74
0
  0
LTYPE
  5
34
100
AcDbSymbolTableRecord
100
AcDbLinetypeTableRecord
  2
DASHED
 70
0
  3
Dashed __ __ __ __ __ __ __ __ __ __ __ __ __ _
 72
65
 73
2
 40
19.0500000000000007
 49
12.6999999999999993
 74
0
 49
-6.3499999999999996
 74
0
  0
LTYPE
  5
35
100
AcDbSymbolTableRecord
100
AcDbLinetypeTableRecord
  2
DASHED2
 70
0
  3
Dashed (.5x) _ _ _ _ _ _ _ _ _ _ _ _ _ _ _ _ _
 72
65
 73
2
 40
9.5250000000000004
 49
6.3499999999999996
 74
0
 49
-3.1749999999999998
 74
0
  0
LTYPE
  5
36
100
AcDbSymbolTableRecord
100
AcDbLinetypeTableRecord
  2
DASHEDX2
 70
0
  3
Dashed (2x) ____  ____  ____  ____  ____  ___
 72
65
 73
2
 40
38.1000000000000014
 49
25.3999999999999986
 74
0
 49
-12.6999999999999993
 74
0
  0
LTYPE
  5
37
100
AcDbSymbolTableRecord
100
AcDbLinetypeTableRecord
  2
DASHDOT
 70
0
  3
Dash dot __ . __ . __ . __ . __ . __ . __ . __
 72
65
 73
4
 40
25.3999999999999986
 49
12.6999999999999993
 74
0
 49
-6.3499999999999996
 74
0
 49
0.0
 74
0
 49
-6.3499999999999996
 74
0
  0
LTYPE
  5
38
100
AcDbSymbolTableRecord
100
AcDbLinetypeTableRecord
  2
DASHDOT2
 70
0
  3
Dash dot (.5x) _._._._._._._._._._._._._._._.
 72
65
 73
4
 40
12.6999999999999993
 49
6.3499999999999996
 74
0
 49
-3.1749999999999998
 74
0
 49
0.0
 74
0
 49
-3.1749999999999998
 74
0
  0
LTYPE
  5
39
100
AcDbSymbolTableRecord
100
AcDbLinetypeTableRecord
  2
DASHDOTX2
 70
0
  3
Dash dot (2x) ____  .  ____  .  ____  .  ___
 72
65
 73
4
 40
50.7999999999999972
 49
25.3999999999999986
 74
0
 49
-12.6999999999999993
 74
0
 49
0.0
 74
0
 49
-12.6999999999999993
 74
0
  0
LTYPE
  5
3A
100
AcDbSymbolTableRecord
100
AcDbLinetypeTableRecord
  2
DIVIDE
 70
0
  3
Divide ____ . . ____ . . ____ . . ____ . . ____
 72
65
 73
6
 40
31.75
 49
12.6999999999999993
 74
0
 49
-6.3499999999999996
 74
0
 49
0.0
 74
0
 49
-6.3499999999999996
 74
0
 49
0.0
 74
0
 49
-6.3499999999999996
 74
0
  0
LTYPE
  5
3B
100
AcDbSymbolTableRecord
100
AcDbLinetypeTableRecord
  2
DIVIDE2
 70
0
  3
Divide (.5x) __..__..__..__..__..__..__..__.._
 72
65
 73
6
 40
15.875
 49
6.3499999999999996
 74
0
 49
-3.1749999999999998
 74
0
 49
0.0
 74
0
 49
-3.1749999999999998
 74
0
 49
0.0
 74
0
 49
-3.1749999999999998
 74
0
  0
LTYPE
  5
3C
100
AcDbSymbolTableRecord
100
AcDbLinetypeTableRecord
  2
DIVIDEX2
 70
0
  3
Divide (2x) ________  .  .  ________  .  .  _
 72
65
 73
6
 40
63.5
 49
25.3999999999999986
 74
0
 49
-12.6999999999999993
 74
0
 49
0.0
 74
0
 49
-12.6999999999999993
 74
0
 49
0.0
 74
0
 49
-12.6999999999999993
 74
0
  0
LTYPE
  5
3D
100
AcDbSymbolTableRecord
100
AcDbLinetypeTableRecord
  2
CENTER
 70
0
  3
Center ____ _ ____ _ ____ _ ____ _ ____ _ ____
 72
65
 73
4
 40
50.7999999999999972
 49
31.75
 74
0
 49
-6.3499999999999996
 74
0
 49
6.3499999999999996
 74
0
 49
-6.3499999999999996
 74
0
  0
LTYPE
  5
3E
100
AcDbSymbolTableRecord
100
AcDbLinetypeTableRecord
  2
CENTER2
 70
0
  3
Center (.5x) ___ _ ___ _ ___ _ ___ _ ___ _ ___
 72
65
 73
4
 40
28.5749999999999993
 49
19.0500000000000007
 74
0
 49
-3.1749999999999998
 74
0
 49
3.1749999999999998
 74
0
 49
-3.1749999999999998
 74
0
  0
LTYPE
  5
3F
100
AcDbSymbolTableRecord
100
AcDbLinetypeTableRecord
  2
CENTERX2
 70
0
  3
Center (2x) ________  __  ________  __  _____
 72
65
 73
4
 40
101.5999999999999943
 49
63.5
 74
0
 49
-12.6999999999999993
 74
0
 49
12.6999999999999993
 74
0
 49
-12.6999999999999993
 74
0
  0
LTYPE
  5
40
100
AcDbSymbolTableRecord
100
AcDbLinetypeTableRecord
  2
BORDER
 70
0
  3
Border __ __ . __ __ . __ __ . __ __ . __ __ .
 72
65
 73
6
 40
44.4500000000000028
 49
12.6999999999999993
 74
0
 49
-6.3499999999999996
 74
0
 49
12.6999999999999993
 74
0
 49
-6.3499999999999996
 74
0
 49
0.0
 74
0
 49
-6.3499999999999996
 74
0
  0
LTYPE
  5
41
100
AcDbSymbolTableRecord
100
AcDbLinetypeTableRecord
  2
BORDER2
 70
0
  3
Border (.5x) __.__.__.__.__.__.__.__.__.__.__.
 72
65
 73
6
 40
22.2250000000000014
 49
6.3499999999999996
 74
0
 49
-3.1749999999999998
 74
0
 49
6.3499999999999996
 74
0
 49
-3.1749999999999998
 74
0
 49
0.0
 74
0
 49
-3.1749999999999998
 74
0
  0
LTYPE
  5
42
100
AcDbSymbolTableRecord
100
AcDbLinetypeTableRecord
  2
BORDERX2
 70
0
  3
Border (2x) ____  ____  .  ____  ____  .  ___
 72
65
 73
6
 40
88.9000000000000057
 49
25.3999999999999986
 74
0
 49
-12.6999999999999993
 74
0
 49
25.3999999999999986
 74
0
 49
-12.6999999999999993
 74
0
 49
0.0
 74
0
 49
-12.6999999999999993
 74
0
  0
ENDTAB
  0
TABLE
  2
LAYER
  5
2
100
AcDbSymbolTable
 70
2
  0
LAYER
  5
10
100
AcDbSymbolTableRecord
100
AcDbLayerTableRecord
  2
0
 70
0
 62
7
  6
CONTINUOUS
390
F
  0
LAYER
  5
43
100
AcDbSymbolTableRecord
100
AcDbLayerTableRecord
  2
dimensions
 70
0
 62
7
  6
CONTINUOUS
370
0
390
F
  0
ENDTAB
  0
TABLE
  2
STYLE
  5
3
100
AcDbSymbolTable
 70
1
  0
STYLE
  5
11
100
AcDbSymbolTableRecord
100
AcDbTextStyleTableRecord
  2
Standard
 70
0
 40
0.0
 41
0.75
 50
0.0
 71
0
 42
2.5
  3
txt
  4

  0
ENDTAB
  0
TABLE
  2
VIEW
  5
6
100
AcDbSymbolTable
 70
0
  0
ENDTAB
  0
TABLE
  2
UCS
  5
7
100
AcDbSymbolTable
 70
0
  0
ENDTAB
  0
TABLE
  2
APPID
  5
9
100
AcDbSymbolTable
 70
1
  0
APPID
  5
12
100
AcDbSymbolTableRecord
100
AcDbRegAppTableRecord
  2
ACAD
 70
0
  0
ENDTAB
  0
TABLE
  2
DIMSTYLE
  5
A
100
AcDbSymbolTable
 70
1
100
AcDbDimStyleTable
 71
0
  0
DIMSTYLE
105
27
100
AcDbSymbolTableRecord
100
AcDbDimStyleTableRecord
  2
Standard
 41
2.5
 42
0.625
 43
3.75
 44
1.25
 70
0
 73
0
 74
0
 77
1
 78
8
140
2.5
141
2.5
143
0.03937007874016
147
0.625
171
3
172
1
271
2
272
2
274
3
278
44
283
0
284
8
340
11
  0
ENDTAB
  0
TABLE
  2
BLOCK_RECORD
  5
1
100
AcDbSymbolTable
 70
1
  0
BLOCK_RECORD
  5
1F
100
AcDbSymbolTableRecord
100
AcDbBlockTableRecord
  2
*Model_Space
340
22
  0
BLOCK_RECORD
  5
1B
100
AcDbSymbolTableRecord
100
AcDbBlockTableRecord
  2
*Paper_Space
340
1E
  0
BLOCK_RECORD
  5
23
100
AcDbSymbolTableRecord
100
AcDbBlockTableRecord
  2
*Paper_Space0
340
26
  0
BLOCK_RECORD
  5
44
100
AcDbSymbolTableRecord
100
AcDbBlockTableRecord
  2
SHAPE
340
0
  0
ENDTAB
  0
ENDSEC
  0
SECTION
  2
BLOCKS
  0
BLOCK
  5
20
100
AcDbEntity
  8
0
100
AcDbBlockBegin
  2
*Model_Space
 70
0
 10
0.0
 20
0.0
 30
0.0
  3
*Model_Space
  1

  0
ENDBLK
  5
21
100
AcDbEntity
  8
0
100
AcDbBlockEnd
  0
BLOCK
  5
1C
100
AcDbEntity
 67
1
  8
0
100
AcDbBlockBegin
  2
*Paper_Space
 70
0
 10
0.0
 20
0.0
 30
0.0
  3
*Paper_Space
  1

  0
ENDBLK
  5
1D
100
AcDbEntity
 67
1
  8
0
100
AcDbBlockEnd
  0
BLOCK
  5
24
100
AcDbEntity
  8
0
100
AcDbBlockBegin
  2
*Paper_Space0
 70
0
 10
0.0
 20
0.0
 30
0.0
  3
*Paper_Space0
  1

  0
ENDBLK
  5
25
100
AcDbEntity
  8
0
100
AcDbBlockEnd
  0
BLOCK
  5
45
100
AcDbEntity
  8
0
100
AcDbBlockBegin
  2
SHAPE
 70
0
 10
0.0
 20
0.0
 30
0.0
  3
SHAPE
  1

  0
LWPOLYLINE
  5
46
  8
0
 62
0
370
-1
  6
ByLayer
100
AcDbEntity
100
AcDbPolyline
 90
24
 70
1
 10
16.5469399870999965
 20
18.5963008785999975
 42
-0.4142135623729996
 10
18.0673664307999999
 20
14.6354545763999973
 10
14.9749999999999996
 20
7.68988585456
 10
14.9749999999999996
 20
-4.2788765982300001
 42
-0.4142135623730001
 10
12.9749999999999996
 20
-6.278876598230001
 10
-12.9749999999999996
 20
-6.2788765982300001
 42
-0.4142135623730001
 10
-14.9749999999999979
 20
-4.2788765982300001
 10
-14.9749999999999996
 20
7.68988585456
 10
-18.0673664307999999
 20
14.6354545764000008
 42
-0.4142135623729996
 10
-16.5469399870999965
 20
18.5963008785999975
 10
-7.7455313778099999
 20
22.5149404625000003
 10
-7.2950189388700002
 20
23.3392218966000016
 42
0.125703876454
 10
-7.0500000000000007
 20
24.2984098213999999
 10
-7.0499999999999998
 20
26.0
 42
-0.4142135623730003
 10
-5.049999999999998
 20
28.0
 10
-4.97493718553
 20
28.0
 42
0.3851703882150004
 10
-2.9849623113199986
 20
29.8000000000000007
 42
-0.904534033732999
 10
2.9849623113199999
 20
29.8000000000000007
 42
0.3851703882150002
 10
4.9749371855300009
 20
27.9999999999999964
 10
5.0499999999999998
 20
28.0
 42
-0.4142135623730003
 10
7.0500000000000007
 20
26.0
 10
7.0499999999999998
 20
24.2984098213999999
 42
0.125703876454
 10
7.2950189388700002
 20
23.3392218966000016
 10
7.7455313778199999
 20
22.5149404625000003
  0
CIRCLE
  5
47
100
AcDbEntity
100
AcDbCircle
  8
0
 62
0
370
-1
  6
ByLayer
 10
15.0
 20
16.0
 30
0.0
 40
1.7
  0
LWPOLYLINE
  5
48
  8
0
 62
0
370
-1
  6
ByLayer
100
AcDbEntity
100
AcDbPolyline
 90
18
 70
1
 10
-5.0499999999999998
 20
24.6999999999999993
 10
-5.0499999999999998
 20
23.5320773878999994
 42
-0.1257038764550001
 10
-5.1725094694300013
 20
23.0524834255000002
 10
-5.7477461002499997
 20
22.0
 10
-2.25
 20
22.0
 42
-0.4142135623729993
 10
-1.2500000000000002
 20
21.0
 10
-1.25
 20
19.043827244300001
 42
-0.3563939586929994
 10
-2.0500000000000007
 20
18.0640313472000038
 42
9.8989794855699724
 10
2.0499999999999998
 20
18.0640313472000003
 42
-0.3563939586929987
 10
1.2500000000000002
 20
19.043827244300001
 10
1.25
 20
21.0
 42
-0.4142135623729996
 10
2.2500000000000004
 20
22.0
 10
5.7477461002499997
 20
22.0
 10
5.1725094694299996
 20
23.0524834255000002
 42
-0.125703876455
 10
5.0499999999999989
 20
23.5320773878999994
 10
5.0499999999999998
 20
24.6999999999999993
 42
0.4142135623730001
 10
3.0499999999999998
 20
26.6999999999999993
 10
-3.0499999999999998
 20
26.6999999999999993
 42
0.4142135623730003
  0
CIRCLE
  5
49
100
AcDbEntity
100
AcDbCircle
  8
0
 62
0
370
-1
  6
ByLayer
 10
0.0000000000000032
 20
29.5
 30
0.0
 40
1.75
  0
CIRCLE
  5
4A
100
AcDbEntity
100
AcDbCircle
  8
0
 62
0
370
-1
  6
ByLayer
 10
12.1750000000000007
 20
-3.4788765982299998
 30
0.0
 40
1.75
  0
CIRCLE
  5
4B
100
AcDbEntity
100
AcDbCircle
  8
0
 62
0
370
-1
  6
ByLayer
 10
-12.1750000000000007
 20
-3.4788765982299998
 30
0.0
 40
1.75
  0
CIRCLE
  5
4C
100
AcDbEntity
100
AcDbCircle
  8
0
 62
0
370
-1
  6
ByLayer
 10
-15.0
 20
16.0
 30
0.0
 40
1.7
  0
ENDBLK
  5
4D
100
AcDbEntity
  8
0
100
AcDbBlockEnd
  0
ENDSEC
  0
SECTION
  2
ENTITIES
  0
INSERT
  5
4E
100
AcDbEntity
100
AcDbBlockReference
  8
0
 62
256
370
18
  6
ByLayer
  2
SHAPE
 10
0.0
 20
0.0
 30
0.0
  0
DIMENSION
  5
4F
100
AcDbEntity
  8
dimensions
 62
250
370
-1
  6
ByLayer
100
AcDbDimension
 10
15.0000000000000071
 20
39.1758586323706197
 30
0.0
 11
0.000000000000001
 21
41.0508586323706197
 31
0.0
 70
0
 71
5
 72
0
 41
1.0
 42
0.0
  1

  3
Standard
100
AcDbAlignedDimension
 13
-15.0000000000000036
 23
15.9999999999999964
 33
0.0
 14
15.0000000000000053
 24
15.9999999999999929
 34
0.0
 50
0.0
100
AcDbRotatedDimension
  0
LINE
  5
50
100
AcDbEntity
100
AcDbLine
  8
dimensions
 62
250
370
-1
  6
CENTERX2
 10
-25.0000000000000036
 20
15.9999999999999964
 30
0.0
 11
25.0000000000000071
 21
15.9999999999999929
 31
0.0
  0
LINE
  5
51
100
AcDbEntity
100
AcDbLine
  8
dimensions
 62
250
370
-1
  6
CENTERX2
 10
-15.0
 20
16.0
 30
0.0
 11
-15.0
 21
12.0
 31
0.0
  0
LINE
  5
52
100
AcDbEntity
100
AcDbLine
  8
dimensions
 62
250
370
-1
  6
CENTERX2
 10
15.0
 20
16.0
 30
0.0
 11
15.0
 21
12.0
 31
0.0
  0
DIMENSION
  5
53
100
AcDbEntity
  8
dimensions
 62
250
370
-1
  6
CONTINUOUS
100
AcDbDimension
 10
14.9749999999999979
 20
-11.887846757409017
 30
0.0
 11
0.0000000000000001
 21
-10.012846757409017
 31
0.0
 70
0
 71
5
 72
0
 41
1.0
 42
0.0
  1
30
  3
Standard
100
AcDbAlignedDimension
 13
-14.9749999999999996
 23
-4.2788765982296706
 33
0.0
 14
14.9749999999999979
 24
-4.278876598229675
 34
0.0
 50
0.0
100
AcDbRotatedDimension
  0
DIMENSION
  5
54
100
AcDbEntity
  8
dimensions
 62
250
370
-1
  6
CONTINUOUS
100
AcDbDimension
 10
18.3232559237898514
 20
-18.9999999999999929
 30
0.0
 11
0.000000000000009
 21
-17.1249999999999929
 31
0.0
 70
0
 71
5
 72
0
 41
1.0
 42
0.0
  1
36.6
  3
Standard
100
AcDbAlignedDimension
 13
-18.3232559237898407
 23
15.9999999999999964
 33
0.0
 14
18.3232559237898549
 24
15.9999999999999929
 34
0.0
 50
0.0
100
AcDbRotatedDimension
  0
DIMENSION
  5
55
100
AcDbEntity
  8
dimensions
 62
250
370
-1
  6
CONTINUOUS
100
AcDbDimension
 10
-32.9617569182704599
 20
32.4999999999992681
 30
0.0
 11
-34.8367569182704599
 21
13.1105617008846309
 31
0.0
 70
0
 71
5
 72
0
 41
1.0
 42
0.0
  1
39
  3
Standard
100
AcDbAlignedDimension
 13
-12.974999999999671
 23
-6.2788765982299983
 33
0.0
 14
0.000000000000002
 24
32.499999999999261
 34
0.0
 50
90.0
100
AcDbRotatedDimension
  0
DIMENSION
  5
56
100
AcDbEntity
  8
dimensions
 62
250
370
-1
  6
CONTINUOUS
100
AcDbDimension
 10
-26.0
 20
15.9999999999999964
 30
0.0
 11
-27.875
 21
4.8605617008849986
 31
0.0
 70
0
 71
5
 72
0
 41
1.0
 42
0.0
  1
22.3
  3
Standard
100
AcDbAlignedDimension
 13
-12.974999999999671
 23
-6.2788765982299983
 33
0.0
 14
-18.3232559237898407
 24
15.9999999999999964
 34
0.0
 50
90.0
100
AcDbRotatedDimension
  0
LEADER
  5
57
  8
dimensions
 62
250
370
-1
  6
ByLayer
100
AcDbEntity
100
AcDbLeader
  3
Standard
 71
1
 72
0
 73
3
 74
0
 75
0
 40
1.0
 41
10.0
 76
2
 10
-13.5365710714523804
 20
16.9579022213799036
 10
23.2799271723329397
 20
28.7094309537396626
  0
LEADER
  5
58
  8
dimensions
 62
250
370
-1
  6
ByLayer
100
AcDbEntity
100
AcDbLeader
  3
Standard
 71
1
 72
0
 73
3
 74
0
 75
0
 40
1.0
 41
10.0
 76
2
 10
16.0653810518335938
 20
17.3297860420242031
 10
23.3543039364618004
 20
28.8581844819973838
  0
MTEXT
  5
59
100
AcDbEntity
100
AcDbMText
  8
dimensions
 62
250
370
-1
  6
ByLayer
 10
18.5198142680859483
 20
31.3869944623785955
 30
0.0
 40
1.75
 41
100.0
 71
1
 72
0
  1
M3 thru
  7
standard
 50
0.0
 73
1
 44
1.0
  0
ENDSEC
  0
SECTION
  2
OBJECTS
  0
DICTIONARY
  5
C
100
AcDbDictionary
280
0
281
1
  3
ACAD_GROUP
350
D
  3
ACAD_LAYOUT
350
1A
  3
ACAD_MLINESTYLE
350
17
  3
ACAD_PLOTSETTINGS
350
19
  3
ACAD_PLOTSTYLENAME
350
E
  3
AcDbVariableDictionary
350
5A
  0
DICTIONARY
  5
D
100
AcDbDictionary
280
0
281
1
  0
ACDBDICTIONARYWDFLT
  5
E
100
AcDbDictionary
281
1
  3
Normal
350
F
100
AcDbDictionaryWithDefault
340
F
  0
ACDBPLACEHOLDER
  5
F
  0
DICTIONARY
  5
17
100
AcDbDictionary
280
0
281
1
  3
Standard
350
18
  0
MLINESTYLE
  5
18
100
AcDbMlineStyle
  2
STANDARD
 70
0
  3

 62
256
 51
90.0
 52
90.0
 71
2
 49
0.5
 62
256
  6
BYLAYER
 49
-0.5
 62
256
  6
BYLAYER
  0
DICTIONARY
  5
19
100
AcDbDictionary
280
0
281
1
  0
DICTIONARY
  5
1A
100
AcDbDictionary
281
1
  3
Layout1
350
1E
  3
Layout2
350
26
  3
Model
350
22
  0
LAYOUT
  5
1E
100
AcDbPlotSettings
  1

  2
C:\Program Files\AutoCAD 2002\plotters\DWF ePlot (optimized for plotting).pc3
  4

  6

 40
0.0
 41
0.0
 42
0.0
 43
0.0
 44
0.0
 45
0.0
 46
0.0
 47
0.0
 48
0.0
 49
0.0
140
0.0
141
0.0
142
1.0
143
1.0
 70
688
 72
0
 73
0
 74
5
  7

 75
16
147
1.0
148
0.0
149
0.0
100
AcDbLayout
  1
Layout1
 70
1
 71
1
 10
0.0
 20
0.0
 11
420.0
 21
297.0
 12
0.0
 22
0.0
 32
0.0
 14
100000000000000000000.0
 24
100000000000000000000.0
 34
100000000000000000000.0
 15
-100000000000000000000.0
 25
-100000000000000000000.0
 35
-100000000000000000000.0
146
0.0
 13
0.0
 23
0.0
 33
0.0
 16
1.0
 26
0.0
 36
0.0
 17
0.0
 27
1.0
 37
0.0
 76
0
330
1B
  0
LAYOUT
  5
22
100
AcDbPlotSettings
  1

  2
C:\Program Files\AutoCAD 2002\plotters\DWF ePlot (optimized for plotting).pc3
  4

  6

 40
0.0
 41
0.0
 42
0.0
 43
0.0
 44
0.0
 45
0.0
 46
0.0
 47
0.0
 48
0.0
 49
0.0
140
0.0
141
0.0
142
1.0
143
1.0
 70
1712
 72
0
 73
0
 74
0
  7

 75
0
147
1.0
148
0.0
149
0.0
100
AcDbLayout
  1
Model
 70
1
 71
0
 10
0.0
 20
0.0
 11
12.0
 21
9.0
 12
0.0
 22
0.0
 32
0.0
 14
0.0
 24
0.0
 34
0.0
 15
0.0
 25
0.0
 35
0.0
146
0.0
 13
0.0
 23
0.0
 33
0.0
 16
1.0
 26
0.0
 36
0.0
 17
0.0
 27
1.0
 37
0.0
 76
0
330
1F
  0
LAYOUT
  5
26
100
AcDbPlotSettings
  1

  2
C:\Program Files\AutoCAD 2002\plotters\DWF ePlot (optimized for plotting).pc3
  4

  6

 40
0.0
 41
0.0
 42
0.0
 43
0.0
 44
0.0
 45
0.0
 46
0.0
 47
0.0
 48
0.0
 49
0.0
140
0.0
141
0.0
142
1.0
143
1.0
 70
688
 72
0
 73
0
 74
5
  7

 75
16
147
1.0
148
0.0
149
0.0
100
AcDbLayout
  1
Layout2
 70
1
 71
2
 10
0.0
 20
0.0
 11
12.0
 21
9.0
 12
0.0
 22
0.0
 32
0.0
 14
0.0
 24
0.0
 34
0.0
 15
0.0
 25
0.0
 35
0.0
146
0.0
 13
0.0
 23
0.0
 33
0.0
 16
1.0
 26
0.0
 36
0.0
 17
0.0
 27
1.0
 37
0.0
 76
0
330
23
  0
DICTIONARY
  5
5A
100
AcDbDictionary
281
1
  3
DIMASSOC
350
5C
  3
HIDETEXT
350
5B
  0
DICTIONARYVAR
  5
5B
100
DictionaryVariables
280
0
  1
2
  0
DICTIONARYVAR
  5
5C
100
DictionaryVariables
280
0
  1
1
  0
ENDSEC
  0
EOF
