999
dxflib 3.3.4.0
  0
SECTION
  2
HEADER
  9
$ACADVER
  1
AC1015
  9
$HANDSEED
  5
FFFF
  9
$AUNITS
 70
0
  9
$AUPREC
 70
2
  9
$DIMADEC
 70
2
  9
$DIMASZ
 40
2.5
  9
$DIMAUNIT
 70
0
  9
$DIMAZIN
 70
0
  9
$DIMDEC
 70
4
  9
$DIMEXE
 40
1.25
  9
$DIMEXO
 40
0.625
  9
$DIMGAP
 40
0.625
  9
$DIMLUNIT
 70
2
  9
$DIMTSZ
 40
0.0
  9
$DIMTXT
 40
2.5
  9
$DIMZIN
 70
0
  9
$DWGCODEPAGE
  3
ANSI_1252
  9
$INSUNITS
 70
4
  9
$LTSCALE
 40
1.0
  9
$LUNITS
 70
2
  9
$LUPREC
 70
4
  9
$PINSBASE
 10
106.7007599999999883
 20
34.1735100000003627
 30
0.0
  9
$PLIMMAX
 10
297.0
 20
210.0
  9
$PLIMMIN
 10
0.0
 20
0.0
  9
$SPLINESEGS
 70
8
  0
ENDSEC
  0
SECTION
  2
TABLES
  0
TABLE
  2
VPORT
  5
8
100
AcDbSymbolTable
 70
1
  0
VPORT
  5
30
100
AcDbSymbolTableRecord
100
AcDbViewportTableRecord
  2
*Active
 70
0
 10
0.0
 20
0.0
 11
1.0
 21
1.0
 12
286.3055555555554861
 22
148.5
 13
0.0
 23
0.0
 14
10.0
 24
10.0
 15
10.0
 25
10.0
 16
0.0
 26
0.0
 36
1.0
 17
0.0
 27
0.0
 37
0.0
 40
297.0
 41
1.92798353909465
 42
50.0
 43
0.0
 44
0.0
 50
0.0
 51
0.0
 71
0
 72
100
 73
1
 74
3
 75
1
 76
1
 77
0
 78
0
281
0
 65
1
110
0.0
120
0.0
130
0.0
111
1.0
121
0.0
131
0.0
112
0.0
122
1.0
132
0.0
 79
0
146
0.0
  0
ENDTAB
  0
TABLE
  2
LTYPE
  5
5
100
AcDbSymbolTable
 70
21
  0
LTYPE
  5
16
100
AcDbSymbolTableRecord
100
AcDbLinetypeTableRecord
  2
CONTINUOUS
 70
0
  3
Solid line
 72
65
 73
0
 40
0.0
  0
LTYPE
  5
31
100
AcDbSymbolTableRecord
100
AcDbLinetypeTableRecord
  2
CENTER2
 70
0
  3
Center (.5x) ___ _ ___ _ ___ _ ___ _ ___ _ ___
 72
65
 73
4
 40
28.5749999999999993
 49
19.0500000000000007
 74
0
 49
-3.1749999999999998
 74
0
 49
3.1749999999999998
 74
0
 49
-3.1749999999999998
 74
0
  0
LTYPE
  5
32
100
AcDbSymbolTableRecord
100
AcDbLinetypeTableRecord
  2
DIVIDEX2
 70
0
  3
Divide (2x) ________  .  .  ________  .  .  _
 72
65
 73
6
 40
63.5
 49
25.3999999999999986
 74
0
 49
-12.6999999999999993
 74
0
 49
0.0
 74
0
 49
-12.6999999999999993
 74
0
 49
0.0
 74
0
 49
-12.6999999999999993
 74
0
  0
LTYPE
  5
33
100
AcDbSymbolTableRecord
100
AcDbLinetypeTableRecord
  2
DOT2
 70
0
  3
Dot (.5x) .....................................
 72
65
 73
2
 40
3.1749999999999998
 49
0.0
 74
0
 49
-3.1749999999999998
 74
0
  0
LTYPE
  5
34
100
AcDbSymbolTableRecord
100
AcDbLinetypeTableRecord
  2
DASHDOT2
 70
0
  3
Dash dot (.5x) _._._._._._._._._._._._._._._.
 72
65
 73
4
 40
12.6999999999999993
 49
6.3499999999999996
 74
0
 49
-3.1749999999999998
 74
0
 49
0.0
 74
0
 49
-3.1749999999999998
 74
0
  0
LTYPE
  5
35
100
AcDbSymbolTableRecord
100
AcDbLinetypeTableRecord
  2
DIVIDE
 70
0
  3
Divide ____ . . ____ . . ____ . . ____ . . ____
 72
65
 73
6
 40
31.75
 49
12.6999999999999993
 74
0
 49
-6.3499999999999996
 74
0
 49
0.0
 74
0
 49
-6.3499999999999996
 74
0
 49
0.0
 74
0
 49
-6.3499999999999996
 74
0
  0
LTYPE
  5
36
100
AcDbSymbolTableRecord
100
AcDbLinetypeTableRecord
  2
DASHDOT
 70
0
  3
Dash dot __ . __ . __ . __ . __ . __ . __ . __
 72
65
 73
4
 40
25.3999999999999986
 49
12.6999999999999993
 74
0
 49
-6.3499999999999996
 74
0
 49
0.0
 74
0
 49
-6.3499999999999996
 74
0
  0
LTYPE
  5
37
100
AcDbSymbolTableRecord
100
AcDbLinetypeTableRecord
  2
BORDER
 70
0
  3
Border __ __ . __ __ . __ __ . __ __ . __ __ .
 72
65
 73
6
 40
44.4500000000000028
 49
12.6999999999999993
 74
0
 49
-6.3499999999999996
 74
0
 49
12.6999999999999993
 74
0
 49
-6.3499999999999996
 74
0
 49
0.0
 74
0
 49
-6.3499999999999996
 74
0
  0
LTYPE
  5
38
100
AcDbSymbolTableRecord
100
AcDbLinetypeTableRecord
  2
DASHDOTX2
 70
0
  3
Dash dot (2x) ____  .  ____  .  ____  .  ___
 72
65
 73
4
 40
50.7999999999999972
 49
25.3999999999999986
 74
0
 49
-12.6999999999999993
 74
0
 49
0.0
 74
0
 49
-12.6999999999999993
 74
0
  0
LTYPE
  5
39
100
AcDbSymbolTableRecord
100
AcDbLinetypeTableRecord
  2
CENTERX2
 70
0
  3
Center (2x) ________  __  ________  __  _____
 72
65
 73
4
 40
101.5999999999999943
 49
63.5
 74
0
 49
-12.6999999999999993
 74
0
 49
12.6999999999999993
 74
0
 49
-12.6999999999999993
 74
0
  0
LTYPE
  5
3A
100
AcDbSymbolTableRecord
100
AcDbLinetypeTableRecord
  2
BORDER2
 70
0
  3
Border (.5x) __.__.__.__.__.__.__.__.__.__.__.
 72
65
 73
6
 40
22.2250000000000014
 49
6.3499999999999996
 74
0
 49
-3.1749999999999998
 74
0
 49
6.3499999999999996
 74
0
 49
-3.1749999999999998
 74
0
 49
0.0
 74
0
 49
-3.1749999999999998
 74
0
  0
LTYPE
  5
3B
100
AcDbSymbolTableRecord
100
AcDbLinetypeTableRecord
  2
BORDERX2
 70
0
  3
Border (2x) ____  ____  .  ____  ____  .  ___
 72
65
 73
6
 40
88.9000000000000057
 49
25.3999999999999986
 74
0
 49
-12.6999999999999993
 74
0
 49
25.3999999999999986
 74
0
 49
-12.6999999999999993
 74
0
 49
0.0
 74
0
 49
-12.6999999999999993
 74
0
  0
LTYPE
  5
14
100
AcDbSymbolTableRecord
100
AcDbLinetypeTableRecord
  2
BYBLOCK
 70
0
  3

 72
65
 73
0
 40
0.0
  0
LTYPE
  5
15
100
AcDbSymbolTableRecord
100
AcDbLinetypeTableRecord
  2
BYLAYER
 70
0
  3

 72
65
 73
0
 40
0.0
  0
LTYPE
  5
3C
100
AcDbSymbolTableRecord
100
AcDbLinetypeTableRecord
  2
DASHED2
 70
0
  3
Dashed (.5x) _ _ _ _ _ _ _ _ _ _ _ _ _ _ _ _ _
 72
65
 73
2
 40
9.5250000000000004
 49
6.3499999999999996
 74
0
 49
-3.1749999999999998
 74
0
  0
LTYPE
  5
3D
100
AcDbSymbolTableRecord
100
AcDbLinetypeTableRecord
  2
CENTER
 70
0
  3
Center ____ _ ____ _ ____ _ ____ _ ____ _ ____
 72
65
 73
4
 40
50.7999999999999972
 49
31.75
 74
0
 49
-6.3499999999999996
 74
0
 49
6.3499999999999996
 74
0
 49
-6.3499999999999996
 74
0
  0
LTYPE
  5
3E
100
AcDbSymbolTableRecord
100
AcDbLinetypeTableRecord
  2
DIVIDE2
 70
0
  3
Divide (.5x) __..__..__..__..__..__..__..__.._
 72
65
 73
6
 40
15.875
 49
6.3499999999999996
 74
0
 49
-3.1749999999999998
 74
0
 49
0.0
 74
0
 49
-3.1749999999999998
 74
0
 49
0.0
 74
0
 49
-3.1749999999999998
 74
0
  0
LTYPE
  5
3F
100
AcDbSymbolTableRecord
100
AcDbLinetypeTableRecord
  2
DASHED
 70
0
  3
Dashed __ __ __ __ __ __ __ __ __ __ __ __ __ _
 72
65
 73
2
 40
19.0500000000000007
 49
12.6999999999999993
 74
0
 49
-6.3499999999999996
 74
0
  0
LTYPE
  5
40
100
AcDbSymbolTableRecord
100
AcDbLinetypeTableRecord
  2
DOTX2
 70
0
  3
Dot (2x) .  .  .  .  .  .  .  .  .  .  .  .  .
 72
65
 73
2
 40
12.6999999999999993
 49
0.0
 74
0
 49
-12.6999999999999993
 74
0
  0
LTYPE
  5
41
100
AcDbSymbolTableRecord
100
AcDbLinetypeTableRecord
  2
DASHEDX2
 70
0
  3
Dashed (2x) ____  ____  ____  ____  ____  ___
 72
65
 73
2
 40
38.1000000000000014
 49
25.3999999999999986
 74
0
 49
-12.6999999999999993
 74
0
  0
LTYPE
  5
42
100
AcDbSymbolTableRecord
100
AcDbLinetypeTableRecord
  2
DOT
 70
0
  3
Dot . . . . . . . . . . . . . . . . . . . . . .
 72
65
 73
2
 40
6.3499999999999996
 49
0.0
 74
0
 49
-6.3499999999999996
 74
0
  0
ENDTAB
  0
TABLE
  2
LAYER
  5
2
100
AcDbSymbolTable
 70
8
  0
LAYER
  5
43
100
AcDbSymbolTableRecord
100
AcDbLayerTableRecord
  2
centres
 70
0
 62
7
420
16777215
  6
CONTINUOUS
370
0
390
F
  0
LAYER
  5
44
100
AcDbSymbolTableRecord
100
AcDbLayerTableRecord
  2
silicone
 70
4
 62
7
420
16777215
  6
CONTINUOUS
370
0
390
F
  0
LAYER
  5
45
100
AcDbSymbolTableRecord
100
AcDbLayerTableRecord
  2
main hatch
 70
0
 62
7
420
16777215
  6
CONTINUOUS
370
0
390
F
  0
LAYER
  5
46
100
AcDbSymbolTableRecord
100
AcDbLayerTableRecord
  2
insert
 70
1
 62
-7
420
16777215
  6
CONTINUOUS
370
0
390
F
  0
LAYER
  5
47
100
AcDbSymbolTableRecord
100
AcDbLayerTableRecord
  2
main dims
 70
1
 62
-7
420
16777215
  6
CONTINUOUS
370
0
390
F
  0
LAYER
  5
48
100
AcDbSymbolTableRecord
100
AcDbLayerTableRecord
  2
insert dims
 70
1
 62
-1
420
16711680
  6
CONTINUOUS
370
25
390
F
  0
LAYER
  5
49
100
AcDbSymbolTableRecord
100
AcDbLayerTableRecord
  2
insert hatch
 70
1
 62
-7
420
16777215
  6
CONTINUOUS
370
0
390
F
  0
LAYER
  5
10
100
AcDbSymbolTableRecord
100
AcDbLayerTableRecord
  2
0
 70
0
 62
7
420
16777215
  6
CONTINUOUS
370
0
390
F
  0
ENDTAB
  0
TABLE
  2
STYLE
  5
3
100
AcDbSymbolTable
 70
8
  0
STYLE
  5
4A
100
AcDbSymbolTableRecord
100
AcDbTextStyleTableRecord
  2
Standard
 70
0
 40
0.0
 41
1.0
 50
0.0
 71
0
 42
2.5
  3

  4

1001
ACAD
1000
txt
1071
0
  0
STYLE
  5
4B
100
AcDbSymbolTableRecord
100
AcDbTextStyleTableRecord
  2
textstyle0
 70
0
 40
0.0
 41
1.0
 50
0.0
 71
0
 42
3.0
  3

  4

1001
ACAD
1000
iso
1071
0
  0
STYLE
  5
4C
100
AcDbSymbolTableRecord
100
AcDbTextStyleTableRecord
  2
textstyle1
 70
0
 40
0.0
 41
1.0
 50
0.0
 71
0
 42
3.0
  3

  4

1001
ACAD
1000
iso
1071
0
  0
STYLE
  5
4D
100
AcDbSymbolTableRecord
100
AcDbTextStyleTableRecord
  2
textstyle2
 70
0
 40
0.0
 41
1.0
 50
0.0
 71
0
 42
2.0
  3

  4

1001
ACAD
1000
iso
1071
0
  0
STYLE
  5
4E
100
AcDbSymbolTableRecord
100
AcDbTextStyleTableRecord
  2
textstyle3
 70
0
 40
0.0
 41
1.0
 50
0.0
 71
0
 42
3.0
  3

  4

1001
ACAD
1000
iso
1071
0
  0
STYLE
  5
4F
100
AcDbSymbolTableRecord
100
AcDbTextStyleTableRecord
  2
textstyle4
 70
0
 40
0.0
 41
1.0
 50
0.0
 71
0
 42
3.0
  3

  4

1001
ACAD
1000
iso
1071
0
  0
STYLE
  5
50
100
AcDbSymbolTableRecord
100
AcDbTextStyleTableRecord
  2
textstyle5
 70
0
 40
0.0
 41
1.0
 50
0.0
 71
0
 42
1.5
  3

  4

1001
ACAD
1000
iso
1071
0
  0
STYLE
  5
51
100
AcDbSymbolTableRecord
100
AcDbTextStyleTableRecord
  2
textstyle6
 70
0
 40
0.0
 41
1.0
 50
0.0
 71
0
 42
2.0
  3

  4

1001
ACAD
1000
normallatin1
1071
0
  0
ENDTAB
  0
TABLE
  2
VIEW
  5
6
100
AcDbSymbolTable
 70
0
  0
ENDTAB
  0
TABLE
  2
UCS
  5
7
100
AcDbSymbolTable
 70
0
  0
ENDTAB
  0
TABLE
  2
APPID
  5
9
100
AcDbSymbolTable
 70
1
  0
APPID
  5
12
100
AcDbSymbolTableRecord
100
AcDbRegAppTableRecord
  2
ACAD
 70
0
  0
APPID
  5
52
100
AcDbSymbolTableRecord
100
AcDbRegAppTableRecord
  2
QCAD
 70
0
  0
ENDTAB
  0
TABLE
  2
DIMSTYLE
  5
A
100
AcDbSymbolTable
 70
1
100
AcDbDimStyleTable
 71
0
  0
DIMSTYLE
105
27
100
AcDbSymbolTableRecord
100
AcDbDimStyleTableRecord
  2
Standard
 41
2.5
 42
0.625
 43
3.75
 44
1.25
 70
0
 73
0
 74
0
 77
1
 78
8
140
2.5
141
2.5
143
0.03937007874016
147
0.625
171
3
172
1
271
2
272
2
274
3
278
44
283
0
284
8
340
4A
  0
ENDTAB
  0
TABLE
  2
BLOCK_RECORD
  5
1
100
AcDbSymbolTable
 70
1
  0
BLOCK_RECORD
  5
1F
100
AcDbSymbolTableRecord
100
AcDbBlockTableRecord
  2
*Model_Space
340
22
  0
BLOCK_RECORD
  5
1B
100
AcDbSymbolTableRecord
100
AcDbBlockTableRecord
  2
*Paper_Space
340
1E
  0
BLOCK_RECORD
  5
23
100
AcDbSymbolTableRecord
100
AcDbBlockTableRecord
  2
*Paper_Space0
340
26
  0
ENDTAB
  0
ENDSEC
  0
SECTION
  2
BLOCKS
  0
BLOCK
  5
20
100
AcDbEntity
  8
0
100
AcDbBlockBegin
  2
*Model_Space
 70
0
 10
0.0
 20
0.0
 30
0.0
  3
*Model_Space
  1

  0
ENDBLK
  5
21
100
AcDbEntity
  8
0
100
AcDbBlockEnd
  0
BLOCK
  5
1C
100
AcDbEntity
 67
1
  8
0
100
AcDbBlockBegin
  2
*Paper_Space
 70
0
 10
0.0
 20
0.0
 30
0.0
  3
*Paper_Space
  1

  0
ENDBLK
  5
1D
100
AcDbEntity
 67
1
  8
0
100
AcDbBlockEnd
  0
BLOCK
  5
24
100
AcDbEntity
  8
0
100
AcDbBlockBegin
  2
*Paper_Space0
 70
0
 10
0.0
 20
0.0
 30
0.0
  3
*Paper_Space0
  1

  0
ENDBLK
  5
25
100
AcDbEntity
  8
0
100
AcDbBlockEnd
  0
ENDSEC
  0
SECTION
  2
ENTITIES
  0
HATCH
  5
53
  8
main hatch
 62
256
370
-1
  6
BYLAYER
100
AcDbEntity
100
AcDbHatch
 10
0.0
 20
0.0
 30
0.0
210
0.0
220
0.0
230
1.0
  2
ANSI31
 70
0
 71
0
 91
1
 92
1
 93
13
 72
1
 10
17.5
 20
3.329273579153698
 11
23.0
 21
6.2536754532918319
 72
1
 10
23.0
 20
6.2536754532918319
 11
23.0
 21
7.0
 72
1
 10
23.0
 20
7.0
 11
43.0
 21
7.0
 72
1
 10
43.0
 20
7.0
 11
43.0
 21
20.0
 72
1
 10
43.0
 20
20.0
 11
44.0
 21
20.0
 72
1
 10
44.0
 20
20.0
 11
44.0
 21
4.0
 72
1
 10
44.0
 20
4.0
 11
46.5
 21
2.5
 72
1
 10
46.5
 20
2.5
 11
49.0
 21
4.0
 72
1
 10
49.0
 20
4.0
 11
49.0
 21
20.0
 72
1
 10
49.0
 20
20.0
 11
50.0
 21
20.0
 72
1
 10
50.0
 20
20.0
 11
50.0
 21
0.0
 72
1
 10
50.0
 20
0.0
 11
17.5
 21
0.0
 72
1
 10
17.5
 20
-0.0000000000000004
 11
17.5
 21
3.329273579153698
 97
0
 75
0
 76
1
 52
0.0
 41
0.445421594448219
 77
0
 78
1
 53
45.0
 43
0.0
 44
0.0
 45
-0.0883883476483184
 46
0.0883883476483185
 79
0
 98
0
1001
ACAD
1010
0.0
1020
0.0
1030
0
  0
HATCH
  5
54
  8
main hatch
 62
256
370
-1
  6
BYLAYER
100
AcDbEntity
100
AcDbHatch
 10
0.0
 20
0.0
 30
0.0
210
0.0
220
0.0
230
1.0
  2
ANSI31
 70
0
 71
0
 91
1
 92
1
 93
11
 72
1
 10
7.0
 20
6.2536754532918302
 11
12.5
 21
3.3292735791536949
 72
1
 10
12.5
 20
3.3292735791536949
 11
12.5
 21
-0.0000000000000004
 72
1
 10
12.5
 20
0.0
 11
0.0
 21
0.0
 72
1
 10
0.0
 20
0.0
 11
0.0
 21
20.0
 72
1
 10
0.0
 20
20.0
 11
1.0
 21
20.0
 72
1
 10
1.0
 20
20.0
 11
1.0
 21
4.0
 72
1
 10
1.0
 20
4.0
 11
3.5
 21
2.5
 72
1
 10
3.5
 20
2.5
 11
6.0
 21
4.0
 72
1
 10
6.0
 20
4.0
 11
6.0
 21
20.0
 72
1
 10
6.0
 20
20.0
 11
7.0
 21
20.0
 72
1
 10
7.0
 20
20.0
 11
7.0
 21
6.2536754532918302
 97
0
 75
0
 76
1
 52
0.0
 41
0.445421594448219
 77
0
 78
1
 53
45.0
 43
0.0
 44
0.0
 45
-0.0883883476483184
 46
0.0883883476483185
 79
0
 98
0
1001
ACAD
1010
0.0
1020
0.0
1030
0
  0
HATCH
  5
55
  8
silicone
 62
5
420
255
370
-1
  6
CONTINUOUS
100
AcDbEntity
100
AcDbHatch
 10
0.0
 20
0.0
 30
0.0
210
0.0
220
0.0
230
1.0
  2
ANSI31
 70
0
 71
0
 91
1
 92
1
 93
6
 72
1
 10
21.0
 20
14.0
 11
21.0
 21
21.0
 72
1
 10
21.0
 20
21.0
 11
25.0
 21
21.0
 72
1
 10
25.0
 20
21.0
 11
25.0
 21
12.5
 72
1
 10
25.0
 20
12.5
 11
19.0
 21
12.5
 72
1
 10
19.0
 20
12.5
 11
19.0
 21
14.0
 72
1
 10
19.0
 20
14.0
 11
21.0
 21
14.0
 97
0
 75
0
 76
1
 52
0.0
 41
0.2227107972241095
 77
0
 78
1
 53
45.0
 43
0.0
 44
0.0
 45
-0.0883883476483184
 46
0.0883883476483185
 79
0
 98
0
1001
ACAD
1010
0.0
1020
0.0
1030
0
  0
HATCH
  5
56
  8
silicone
 62
5
420
255
370
-1
  6
CONTINUOUS
100
AcDbEntity
100
AcDbHatch
 10
0.0
 20
0.0
 30
0.0
210
0.0
220
0.0
230
1.0
  2
ANSI31
 70
0
 71
0
 91
1
 92
1
 93
21
 72
1
 10
17.5
 20
3.329273579153698
 11
23.0
 21
6.2536754532918319
 72
1
 10
23.0
 20
6.2536754532918319
 11
23.0
 21
7.0
 72
1
 10
23.0
 20
7.0
 11
43.0
 21
7.0
 72
1
 10
43.0
 20
7.0
 11
43.0
 21
20.0
 72
1
 10
43.0
 20
20.0
 11
43.0
 21
21.0
 72
1
 10
43.0
 20
21.0
 11
42.75
 21
21.0
 72
1
 10
42.75
 20
21.0
 11
41.25
 21
21.0
 72
1
 10
41.25
 20
21.0
 11
41.0
 21
21.0
 72
1
 10
41.0
 20
21.0
 11
41.0
 21
11.75
 72
1
 10
41.0
 20
11.75
 11
41.0
 21
9.0
 72
1
 10
41.0
 20
9.0
 11
36.0
 21
9.0
 72
1
 10
36.0
 20
9.0
 11
30.0
 21
9.0
 72
1
 10
30.0
 20
9.0
 11
25.0
 21
9.0
 72
1
 10
25.0
 20
9.0
 11
25.0
 21
11.0
 72
1
 10
25.0
 20
11.0
 11
19.0
 21
11.0
 72
1
 10
19.0
 20
11.0
 11
19.0
 21
7.0
 72
1
 10
19.0
 20
7.0
 11
16.5
 21
4.5
 72
1
 10
16.5
 20
4.5
 11
16.0
 21
4.5
 72
1
 10
16.0
 20
4.5
 11
16.0
 21
-0.0000000000000003
 72
1
 10
16.0
 20
0.0
 11
17.5
 21
0.0
 72
1
 10
17.5
 20
-0.0000000000000004
 11
17.5
 21
3.329273579153698
 97
0
 75
0
 76
1
 52
0.0
 41
0.2227107972241095
 77
0
 78
1
 53
45.0
 43
0.0
 44
0.0
 45
-0.0883883476483184
 46
0.0883883476483185
 79
0
 98
0
1001
ACAD
1010
0.0
1020
0.0
1030
0
  0
HATCH
  5
57
  8
silicone
 62
5
420
255
370
-1
  6
CONTINUOUS
100
AcDbEntity
100
AcDbHatch
 10
0.0
 20
0.0
 30
0.0
210
0.0
220
0.0
230
1.0
  2
ANSI31
 70
0
 71
0
 91
1
 92
1
 93
15
 72
1
 10
7.0
 20
6.2536754532918302
 11
12.5
 21
3.3292735791536949
 72
1
 10
12.5
 20
3.3292735791536949
 11
12.5
 21
-0.0000000000000004
 72
1
 10
12.5
 20
0.0
 11
14.0
 21
0.0
 72
1
 10
14.0
 20
0.0000000000000001
 11
14.0
 21
4.5
 72
1
 10
14.0
 20
4.5
 11
13.5
 21
4.5
 72
1
 10
13.5
 20
4.5
 11
11.0
 21
7.0
 72
1
 10
11.0
 20
7.0
 11
11.0
 21
11.75
 72
1
 10
11.0
 20
11.75
 11
11.0
 21
14.0
 72
1
 10
11.0
 20
14.0
 11
9.0
 21
14.0
 72
1
 10
9.0
 20
14.0
 11
9.0
 21
21.0
 72
1
 10
9.0
 20
21.0
 11
8.75
 21
21.0
 72
1
 10
8.75
 20
21.0
 11
7.25
 21
21.0
 72
1
 10
7.25
 20
21.0
 11
7.0
 21
21.0
 72
1
 10
7.0
 20
21.0
 11
7.0
 21
20.0
 72
1
 10
7.0
 20
20.0
 11
7.0
 21
6.2536754532918302
 97
0
 75
0
 76
1
 52
0.0
 41
0.2227107972241095
 77
0
 78
1
 53
45.0
 43
0.0
 44
0.0
 45
-0.0883883476483184
 46
0.0883883476483185
 79
0
 98
0
1001
ACAD
1010
0.0
1020
0.0
1030
0
  0
HATCH
  5
58
  8
insert hatch
 62
1
420
16711680
370
-1
  6
CONTINUOUS
100
AcDbEntity
100
AcDbHatch
 10
0.0
 20
0.0
 30
0.0
210
0.0
220
0.0
230
1.0
  2
ANSI31
 70
0
 71
0
 91
1
 92
1
 93
8
 72
1
 10
25.0
 20
11.0
 11
27.0
 21
11.0
 72
1
 10
27.0
 20
11.0
 11
27.0
 21
11.75
 72
1
 10
27.0
 20
11.75
 11
31.4999999999999964
 21
11.75
 72
1
 10
31.4999999999999964
 20
11.75
 11
31.4999999999999964
 21
11.0
 72
1
 10
31.5
 20
11.0
 11
30.0
 21
11.0
 72
1
 10
30.0
 20
11.0
 11
30.0
 21
9.0
 72
1
 10
30.0
 20
9.0
 11
25.0
 21
9.0
 72
1
 10
25.0
 20
9.0
 11
25.0
 21
11.0
 97
0
 75
0
 76
1
 52
90.0
 41
0.445421594448219
 77
0
 78
1
 53
45.0
 43
0.0
 44
0.0
 45
-0.0883883476483184
 46
0.0883883476483185
 79
0
 98
0
1001
ACAD
1010
0.0
1020
0.0
1030
0
  0
HATCH
  5
59
  8
insert hatch
 62
1
420
16711680
370
-1
  6
CONTINUOUS
100
AcDbEntity
100
AcDbHatch
 10
0.0
 20
0.0
 30
0.0
210
0.0
220
0.0
230
1.0
  2
ANSI31
 70
0
 71
0
 91
1
 92
1
 93
6
 72
1
 10
36.0
 20
11.0
 11
36.0
 21
9.0
 72
1
 10
36.0
 20
9.0
 11
41.0
 21
9.0
 72
1
 10
41.0
 20
9.0
 11
41.0
 21
11.75
 72
1
 10
41.0
 20
11.75
 11
34.5
 21
11.75
 72
1
 10
34.5
 20
11.75
 11
34.5
 21
11.0
 72
1
 10
34.5
 20
11.0
 11
36.0
 21
11.0
 97
0
 75
0
 76
1
 52
90.0
 41
0.445421594448219
 77
0
 78
1
 53
45.0
 43
0.0
 44
0.0
 45
-0.0883883476483184
 46
0.0883883476483185
 79
0
 98
0
1001
ACAD
1010
0.0
1020
0.0
1030
0
  0
HATCH
  5
5A
  8
insert hatch
 62
1
420
16711680
370
-1
  6
CONTINUOUS
100
AcDbEntity
100
AcDbHatch
 10
0.0
 20
0.0
 30
0.0
210
0.0
220
0.0
230
1.0
  2
ANSI31
 70
0
 71
0
 91
1
 92
1
 93
8
 72
1
 10
11.0
 20
7.0
 11
13.5
 21
4.5
 72
1
 10
13.5
 20
4.5
 11
13.5
 21
7.0
 72
1
 10
13.5
 20
7.0
 11
12.0
 21
7.0
 72
1
 10
12.0
 20
7.0
 11
12.0
 21
9.0
 72
1
 10
12.0
 20
9.0
 11
13.5
 21
9.0
 72
1
 10
13.5
 20
9.0
 11
13.5
 21
11.75
 72
1
 10
13.5
 20
11.75
 11
11.0
 21
11.75
 72
1
 10
11.0
 20
11.75
 11
11.0
 21
7.0
 97
0
 75
0
 76
1
 52
90.0
 41
0.445421594448219
 77
0
 78
1
 53
45.0
 43
0.0
 44
0.0
 45
-0.0883883476483184
 46
0.0883883476483185
 79
0
 98
0
1001
ACAD
1010
0.0
1020
0.0
1030
0
  0
HATCH
  5
5B
  8
insert hatch
 62
1
420
16711680
370
-1
  6
CONTINUOUS
100
AcDbEntity
100
AcDbHatch
 10
0.0
 20
0.0
 30
0.0
210
0.0
220
0.0
230
1.0
  2
ANSI31
 70
0
 71
0
 91
1
 92
1
 93
10
 72
1
 10
16.5
 20
4.5
 11
19.0
 21
7.0
 72
1
 10
19.0
 20
7.0
 11
19.0
 21
11.0
 72
1
 10
19.0
 20
11.0
 11
17.0
 21
11.0
 72
1
 10
17.0
 20
11.0
 11
17.0
 21
11.75
 72
1
 10
17.0
 20
11.75
 11
16.5
 21
11.7500000000000018
 72
1
 10
16.5
 20
11.7500000000000018
 11
16.5
 21
9.0
 72
1
 10
16.5
 20
9.0
 11
18.0
 21
9.0
 72
1
 10
18.0
 20
9.0
 11
18.0
 21
7.0
 72
1
 10
18.0
 20
7.0
 11
16.5
 21
7.0
 72
1
 10
16.5
 20
7.0
 11
16.5
 21
4.5
 97
0
 75
0
 76
1
 52
90.0
 41
0.445421594448219
 77
0
 78
1
 53
45.0
 43
0.0
 44
0.0
 45
-0.0883883476483184
 46
0.0883883476483185
 79
0
 98
0
1001
ACAD
1010
0.0
1020
0.0
1030
0
  0
HATCH
  5
5C
  8
insert hatch
 62
1
420
16711680
370
-1
  6
CONTINUOUS
100
AcDbEntity
100
AcDbHatch
 10
0.0
 20
0.0
 30
0.0
210
0.0
220
0.0
230
1.0
  2
ANSI31
 70
0
 71
0
 91
1
 92
1
 93
8
 72
1
 10
53.0
 20
23.0
 11
53.0
 21
17.0
 72
1
 10
53.0
 20
17.0
 11
50.0
 21
17.0
 72
1
 10
50.0
 20
17.0
 11
50.0
 21
20.0
 72
1
 10
50.0
 20
20.0
 11
43.0
 21
20.0
 72
1
 10
43.0
 20
20.0
 11
43.0
 21
21.0
 72
1
 10
43.0
 20
21.0
 11
42.75
 21
21.0
 72
1
 10
42.75
 20
21.0
 11
42.75
 21
23.0
 72
1
 10
42.75
 20
23.0
 11
53.0
 21
23.0
 97
0
 75
0
 76
1
 52
0.0
 41
0.445421594448219
 77
0
 78
1
 53
45.0
 43
0.0
 44
0.0
 45
-0.0883883476483184
 46
0.0883883476483185
 79
0
 98
0
1001
ACAD
1010
0.0
1020
0.0
1030
0
  0
HATCH
  5
5D
  8
insert hatch
 62
1
420
16711680
370
-1
  6
CONTINUOUS
100
AcDbEntity
100
AcDbHatch
 10
0.0
 20
0.0
 30
0.0
210
0.0
220
0.0
230
1.0
  2
ANSI31
 70
0
 71
0
 91
1
 92
1
 93
6
 72
1
 10
41.25
 20
21.0
 11
41.25
 21
23.0
 72
1
 10
41.25
 20
23.0
 11
34.5
 21
23.0
 72
1
 10
34.5
 20
23.0
 11
34.5
 21
11.75
 72
1
 10
34.5
 20
11.75
 11
41.0
 21
11.75
 72
1
 10
41.0
 20
11.75
 11
41.0
 21
21.0
 72
1
 10
41.0
 20
21.0
 11
41.25
 21
21.0
 97
0
 75
0
 76
1
 52
0.0
 41
0.445421594448219
 77
0
 78
1
 53
45.0
 43
0.0
 44
0.0
 45
-0.0883883476483184
 46
0.0883883476483185
 79
0
 98
0
1001
ACAD
1010
0.0
1020
0.0
1030
0
  0
HATCH
  5
5E
  8
insert hatch
 62
1
420
16711680
370
-1
  6
CONTINUOUS
100
AcDbEntity
100
AcDbHatch
 10
0.0
 20
0.0
 30
0.0
210
0.0
220
0.0
230
1.0
  2
ANSI31
 70
0
 71
0
 91
1
 92
1
 93
14
 72
1
 10
21.0
 20
14.0
 11
21.0
 21
21.0
 72
1
 10
21.0
 20
21.0
 11
25.0
 21
21.0
 72
1
 10
25.0
 20
21.0
 11
25.0
 21
12.5
 72
1
 10
25.0
 20
12.5
 11
27.0
 21
12.5
 72
1
 10
27.0
 20
12.5
 11
27.0
 21
11.75
 72
1
 10
27.0
 20
11.75
 11
31.4999999999999964
 21
11.75
 72
1
 10
31.4999999999999964
 20
11.75
 11
31.4999999999999964
 21
23.0
 72
1
 10
31.4999999999999929
 20
23.0
 11
16.5
 21
23.0
 72
1
 10
16.5
 20
23.0
 11
16.5
 21
11.7500000000000018
 72
1
 10
16.5
 20
11.7500000000000018
 11
17.0
 21
11.75
 72
1
 10
17.0
 20
11.75
 11
17.0
 21
12.5
 72
1
 10
17.0
 20
12.5
 11
19.0
 21
12.5
 72
1
 10
19.0
 20
12.5
 11
19.0
 21
14.0
 72
1
 10
19.0
 20
14.0
 11
21.0
 21
14.0
 97
0
 75
0
 76
1
 52
0.0
 41
0.445421594448219
 77
0
 78
1
 53
45.0
 43
0.0
 44
0.0
 45
-0.0883883476483184
 46
0.0883883476483185
 79
0
 98
0
1001
ACAD
1010
0.0
1020
0.0
1030
0
  0
HATCH
  5
5F
  8
insert hatch
 62
1
420
16711680
370
-1
  6
CONTINUOUS
100
AcDbEntity
100
AcDbHatch
 10
0.0
 20
0.0
 30
0.0
210
0.0
220
0.0
230
1.0
  2
ANSI31
 70
0
 71
0
 91
1
 92
1
 93
8
 72
1
 10
9.0
 20
21.0
 11
9.0
 21
14.0
 72
1
 10
9.0
 20
14.0
 11
11.0
 21
14.0
 72
1
 10
11.0
 20
14.0
 11
11.0
 21
11.75
 72
1
 10
11.0
 20
11.75
 11
13.5
 21
11.75
 72
1
 10
13.5
 20
11.75
 11
13.5
 21
23.0
 72
1
 10
13.5
 20
23.0
 11
8.75
 21
23.0
 72
1
 10
8.75
 20
23.0
 11
8.75
 21
21.0
 72
1
 10
8.75
 20
21.0
 11
9.0
 21
21.0
 97
0
 75
0
 76
1
 52
0.0
 41
0.445421594448219
 77
0
 78
1
 53
45.0
 43
0.0
 44
0.0
 45
-0.0883883476483184
 46
0.0883883476483185
 79
0
 98
0
1001
ACAD
1010
0.0
1020
0.0
1030
0
  0
HATCH
  5
60
  8
insert hatch
 62
1
420
16711680
370
-1
  6
CONTINUOUS
100
AcDbEntity
100
AcDbHatch
 10
0.0
 20
0.0
 30
0.0
210
0.0
220
0.0
230
1.0
  2
ANSI31
 70
0
 71
0
 91
1
 92
1
 93
8
 72
1
 10
7.0
 20
21.0
 11
7.0
 21
20.0
 72
1
 10
7.0
 20
20.0
 11
0.0
 21
20.0
 72
1
 10
0.0
 20
20.0
 11
0.0
 21
17.0
 72
1
 10
0.0
 20
17.0
 11
-3.0
 21
17.0
 72
1
 10
-3.0
 20
17.0
 11
-3.0
 21
23.0
 72
1
 10
-3.0
 20
23.0
 11
7.25
 21
23.0
 72
1
 10
7.25
 20
23.0
 11
7.25
 21
21.0
 72
1
 10
7.25
 20
21.0
 11
7.0
 21
21.0
 97
0
 75
0
 76
1
 52
0.0
 41
0.445421594448219
 77
0
 78
1
 53
45.0
 43
0.0
 44
0.0
 45
-0.0883883476483184
 46
0.0883883476483185
 79
0
 98
0
1001
ACAD
1010
0.0
1020
0.0
1030
0
  0
LINE
  5
61
100
AcDbEntity
100
AcDbLine
  8
0
 62
256
370
-1
  6
BYLAYER
 10
7.0
 20
6.2536754532918302
 30
0.0
 11
12.5
 21
3.3292735791536949
 31
0.0
  0
LINE
  5
62
100
AcDbEntity
100
AcDbLine
  8
0
 62
256
370
-1
  6
BYLAYER
 10
17.5
 20
3.329273579153698
 30
0.0
 11
23.0
 21
6.2536754532918319
 31
0.0
  0
LINE
  5
63
100
AcDbEntity
100
AcDbLine
  8
0
 62
256
370
-1
  6
BYLAYER
 10
23.0
 20
6.2536754532918319
 30
0.0
 11
23.0
 21
7.0
 31
0.0
  0
LINE
  5
64
100
AcDbEntity
100
AcDbLine
  8
0
 62
256
370
-1
  6
BYLAYER
 10
23.0
 20
7.0
 30
0.0
 11
43.0
 21
7.0
 31
0.0
  0
LINE
  5
65
100
AcDbEntity
100
AcDbLine
  8
0
 62
256
370
-1
  6
BYLAYER
 10
12.5
 20
-0.0000000000000004
 30
0.0
 11
12.5
 21
3.3292735791536949
 31
0.0
  0
LINE
  5
66
100
AcDbEntity
100
AcDbLine
  8
0
 62
256
370
-1
  6
BYLAYER
 10
17.5
 20
-0.0000000000000004
 30
0.0
 11
17.5
 21
3.329273579153698
 31
0.0
  0
LINE
  5
67
100
AcDbEntity
100
AcDbLine
  8
0
 62
256
370
-1
  6
BYLAYER
 10
50.0
 20
20.0
 30
0.0
 11
50.0
 21
0.0
 31
0.0
  0
LINE
  5
68
100
AcDbEntity
100
AcDbLine
  8
0
 62
256
370
-1
  6
BYLAYER
 10
0.0
 20
20.0
 30
0.0
 11
0.0
 21
0.0
 31
0.0
  0
LINE
  5
69
100
AcDbEntity
100
AcDbLine
  8
0
 62
256
370
-1
  6
BYLAYER
 10
7.0
 20
6.2536754532918302
 30
0.0
 11
7.0
 21
20.0
 31
0.0
  0
LINE
  5
6A
100
AcDbEntity
100
AcDbLine
  8
0
 62
256
370
-1
  6
BYLAYER
 10
43.0
 20
7.0
 30
0.0
 11
43.0
 21
20.0
 31
0.0
  0
LINE
  5
6B
100
AcDbEntity
100
AcDbLine
  8
0
 62
256
370
-1
  6
BYLAYER
 10
12.5
 20
3.3292735791536949
 30
0.0
 11
17.5
 21
3.329273579153698
 31
0.0
  0
LINE
  5
6C
100
AcDbEntity
100
AcDbLine
  8
0
 62
256
370
-1
  6
BYLAYER
 10
23.0
 20
6.2536754532918319
 30
0.0
 11
7.0
 21
6.2536754532918302
 31
0.0
  0
LINE
  5
6D
100
AcDbEntity
100
AcDbLine
  8
0
 62
256
370
-1
  6
BYLAYER
 10
13.0
 20
-0.0000000000000006
 30
0.0
 11
13.0
 21
3.3292735791536949
 31
0.0
  0
LINE
  5
6E
100
AcDbEntity
100
AcDbLine
  8
0
 62
256
370
-1
  6
BYLAYER
 10
17.0
 20
-0.0000000000000004
 30
0.0
 11
17.0
 21
3.329273579153698
 31
0.0
  0
CIRCLE
  5
6F
100
AcDbEntity
100
AcDbCircle
  8
0
 62
256
370
-1
  6
BYLAYER
 10
15.0
 20
44.0
 30
0.0
 40
8.0
  0
LINE
  5
70
100
AcDbEntity
100
AcDbLine
  8
0
 62
256
370
-1
  6
BYLAYER
 10
15.0
 20
52.0
 30
0.0
 11
35.0
 21
52.0
 31
0.0
  0
LINE
  5
71
100
AcDbEntity
100
AcDbLine
  8
0
 62
256
370
-1
  6
BYLAYER
 10
15.0
 20
36.0
 30
0.0
 11
35.0
 21
36.0
 31
0.0
  0
ARC
  5
72
100
AcDbEntity
  8
0
 62
256
370
-1
  6
BYLAYER
100
AcDbCircle
 10
35.0
 20
44.0
 30
0.0
 40
8.0
100
AcDbArc
 50
270.0
 51
90.0
  0
CIRCLE
  5
73
100
AcDbEntity
100
AcDbCircle
  8
0
 62
256
370
-1
  6
BYLAYER
 10
15.0
 20
44.0
 30
0.0
 40
2.5
  0
ARC
  5
74
100
AcDbEntity
  8
0
 62
256
370
-1
  6
BYLAYER
100
AcDbCircle
 10
15.0
 20
44.0
 30
0.0
 40
2.0
100
AcDbArc
 50
270.0
 51
206.5650511770779758
  0
LINE
  5
75
100
AcDbEntity
100
AcDbLine
  8
0
 62
256
370
-1
  6
BYLAYER
 10
3.5
 20
44.0
 30
0.0
 11
3.5
 21
44.0
 31
0.0
  0
LINE
  5
76
100
AcDbEntity
100
AcDbLine
  8
insert
 62
1
420
16711680
370
-1
  6
BYLAYER
 10
7.0
 20
21.0
 30
0.0
 11
7.0
 21
20.0
 31
0.0
  0
LINE
  5
77
100
AcDbEntity
100
AcDbLine
  8
insert
 62
1
420
16711680
370
-1
  6
BYLAYER
 10
7.0
 20
20.0
 30
0.0
 11
0.0
 21
20.0
 31
0.0
  0
LINE
  5
78
100
AcDbEntity
100
AcDbLine
  8
insert
 62
1
420
16711680
370
-1
  6
BYLAYER
 10
0.0
 20
20.0
 30
0.0
 11
0.0
 21
17.0
 31
0.0
  0
LINE
  5
79
100
AcDbEntity
100
AcDbLine
  8
insert
 62
1
420
16711680
370
-1
  6
BYLAYER
 10
0.0
 20
17.0
 30
0.0
 11
-3.0
 21
17.0
 31
0.0
  0
LINE
  5
7A
100
AcDbEntity
100
AcDbLine
  8
insert
 62
1
420
16711680
370
-1
  6
BYLAYER
 10
-3.0
 20
17.0
 30
0.0
 11
-3.0
 21
23.0
 31
0.0
  0
LINE
  5
7B
100
AcDbEntity
100
AcDbLine
  8
insert
 62
1
420
16711680
370
-1
  6
BYLAYER
 10
53.0
 20
23.0
 30
0.0
 11
53.0
 21
17.0
 31
0.0
  0
LINE
  5
7C
100
AcDbEntity
100
AcDbLine
  8
insert
 62
1
420
16711680
370
-1
  6
BYLAYER
 10
53.0
 20
17.0
 30
0.0
 11
50.0
 21
17.0
 31
0.0
  0
LINE
  5
7D
100
AcDbEntity
100
AcDbLine
  8
insert
 62
1
420
16711680
370
-1
  6
BYLAYER
 10
50.0
 20
17.0
 30
0.0
 11
50.0
 21
20.0
 31
0.0
  0
LINE
  5
7E
100
AcDbEntity
100
AcDbLine
  8
insert
 62
1
420
16711680
370
-1
  6
BYLAYER
 10
50.0
 20
20.0
 30
0.0
 11
43.0
 21
20.0
 31
0.0
  0
LINE
  5
7F
100
AcDbEntity
100
AcDbLine
  8
insert
 62
1
420
16711680
370
-1
  6
BYLAYER
 10
43.0
 20
20.0
 30
0.0
 11
43.0
 21
21.0
 31
0.0
  0
LINE
  5
80
100
AcDbEntity
100
AcDbLine
  8
insert
 62
1
420
16711680
370
-1
  6
BYLAYER
 10
9.0
 20
21.0
 30
0.0
 11
9.0
 21
14.0
 31
0.0
  0
LINE
  5
81
100
AcDbEntity
100
AcDbLine
  8
insert
 62
1
420
16711680
370
-1
  6
BYLAYER
 10
25.0
 20
11.0
 30
0.0
 11
19.0
 21
11.0
 31
0.0
  0
LINE
  5
82
100
AcDbEntity
100
AcDbLine
  8
insert
 62
1
420
16711680
370
-1
  6
BYLAYER
 10
21.0
 20
14.0
 30
0.0
 11
21.0
 21
21.0
 31
0.0
  0
LINE
  5
83
100
AcDbEntity
100
AcDbLine
  8
insert
 62
1
420
16711680
370
-1
  6
BYLAYER
 10
25.0
 20
21.0
 30
0.0
 11
21.0
 21
21.0
 31
0.0
  0
LINE
  5
84
100
AcDbEntity
100
AcDbLine
  8
insert
 62
1
420
16711680
370
-1
  6
BYLAYER
 10
11.0
 20
7.0
 30
0.0
 11
13.5
 21
4.5
 31
0.0
  0
LINE
  5
85
100
AcDbEntity
100
AcDbLine
  8
insert
 62
1
420
16711680
370
-1
  6
BYLAYER
 10
16.5
 20
4.5
 30
0.0
 11
19.0
 21
7.0
 31
0.0
  0
LINE
  5
86
100
AcDbEntity
100
AcDbLine
  8
insert
 62
1
420
16711680
370
-1
  6
BYLAYER
 10
19.0
 20
11.0
 30
0.0
 11
17.0
 21
11.0
 31
0.0
  0
LINE
  5
87
100
AcDbEntity
100
AcDbLine
  8
insert
 62
1
420
16711680
370
-1
  6
BYLAYER
 10
25.0
 20
11.0
 30
0.0
 11
27.0
 21
11.0
 31
0.0
  0
LINE
  5
88
100
AcDbEntity
100
AcDbLine
  8
insert
 62
1
420
16711680
370
-1
  6
BYLAYER
 10
7.25
 20
21.0
 30
0.0
 11
7.25
 21
23.0
 31
0.0
  0
LINE
  5
89
100
AcDbEntity
100
AcDbLine
  8
insert
 62
1
420
16711680
370
-1
  6
BYLAYER
 10
8.75
 20
21.0
 30
0.0
 11
8.75
 21
23.0
 31
0.0
  0
LINE
  5
8A
100
AcDbEntity
100
AcDbLine
  8
insert
 62
1
420
16711680
370
-1
  6
BYLAYER
 10
42.75
 20
21.0
 30
0.0
 11
42.75
 21
23.0
 31
0.0
  0
LINE
  5
8B
100
AcDbEntity
100
AcDbLine
  8
insert
 62
1
420
16711680
370
-1
  6
BYLAYER
 10
41.25
 20
21.0
 30
0.0
 11
41.25
 21
23.0
 31
0.0
  0
LINE
  5
8C
100
AcDbEntity
100
AcDbLine
  8
insert
 62
1
420
16711680
370
-1
  6
BYLAYER
 10
18.0
 20
9.0
 30
0.0
 11
18.0
 21
7.0
 31
0.0
  0
LINE
  5
8D
100
AcDbEntity
100
AcDbLine
  8
insert
 62
1
420
16711680
370
-1
  6
BYLAYER
 10
12.0
 20
7.0
 30
0.0
 11
12.0
 21
9.0
 31
0.0
  0
ARC
  5
8E
100
AcDbEntity
  8
insert
 62
1
420
16711680
370
-1
  6
BYLAYER
100
AcDbCircle
 10
12.8043245831894783
 20
8.4917569284346879
 30
0.0
 40
1.5
100
AcDbArc
 50
237.5735584355097956
 51
297.6315278259170896
  0
ARC
  5
8F
100
AcDbEntity
  8
insert
 62
1
420
16711680
370
-1
  6
BYLAYER
100
AcDbCircle
 10
14.9828381407460203
 20
10.0033785806167792
 30
0.0
 40
3.0
100
AcDbArc
 50
240.3777569242243999
 51
300.3792003983831478
  0
ARC
  5
90
100
AcDbEntity
  8
insert
 62
1
420
16711680
370
-1
  6
BYLAYER
100
AcDbCircle
 10
17.2502706190191581
 20
8.5362163887929849
 30
0.0
 40
1.5
100
AcDbArc
 50
239.9880632752318377
 51
299.9880647108366816
  0
LINE
  5
91
100
AcDbEntity
100
AcDbLine
  8
insert
 62
1
420
16711680
370
-1
  6
BYLAYER
 10
36.0
 20
11.0
 30
0.0
 11
36.0
 21
9.0
 31
0.0
  0
LINE
  5
92
100
AcDbEntity
100
AcDbLine
  8
insert
 62
1
420
16711680
370
-1
  6
BYLAYER
 10
36.0
 20
9.0
 30
0.0
 11
30.0
 21
9.0
 31
0.0
  0
LINE
  5
93
100
AcDbEntity
100
AcDbLine
  8
insert
 62
1
420
16711680
370
-1
  6
BYLAYER
 10
30.0
 20
9.0
 30
0.0
 11
30.0
 21
11.0
 31
0.0
  0
ARC
  5
94
100
AcDbEntity
  8
insert
 62
1
420
16711680
370
-1
  6
BYLAYER
100
AcDbCircle
 10
30.8043245831894765
 20
10.4917569284346879
 30
0.0
 40
1.5
100
AcDbArc
 50
237.5735584355097956
 51
297.6315278259170896
  0
ARC
  5
95
100
AcDbEntity
  8
insert
 62
1
420
16711680
370
-1
  6
BYLAYER
100
AcDbCircle
 10
32.9828381407460185
 20
12.0033785806167792
 30
0.0
 40
3.0
100
AcDbArc
 50
240.3777569242243999
 51
300.3792003983831478
  0
ARC
  5
96
100
AcDbEntity
  8
insert
 62
1
420
16711680
370
-1
  6
BYLAYER
100
AcDbCircle
 10
35.2502706190191617
 20
10.5362163887929849
 30
0.0
 40
1.5
100
AcDbArc
 50
239.9880632752318377
 51
299.9880647108366816
  0
LINE
  5
97
100
AcDbEntity
100
AcDbLine
  8
insert
 62
1
420
16711680
370
-1
  6
BYLAYER
 10
34.5
 20
11.0
 30
0.0
 11
34.5
 21
11.0
 31
0.0
  0
LINE
  5
98
100
AcDbEntity
100
AcDbLine
  8
insert
 62
1
420
16711680
370
-1
  6
BYLAYER
 10
34.5
 20
11.0
 30
0.0
 11
34.5
 21
9.0
 31
0.0
  0
LINE
  5
99
100
AcDbEntity
100
AcDbLine
  8
insert
 62
1
420
16711680
370
-1
  6
BYLAYER
 10
12.0
 20
23.0
 30
0.0
 11
12.0
 21
26.0
 31
0.0
  0
LINE
  5
9A
100
AcDbEntity
100
AcDbLine
  8
insert
 62
1
420
16711680
370
-1
  6
BYLAYER
 10
12.0
 20
26.0
 30
0.0
 11
18.0
 21
26.0
 31
0.0
  0
LINE
  5
9B
100
AcDbEntity
100
AcDbLine
  8
insert
 62
1
420
16711680
370
-1
  6
BYLAYER
 10
18.0
 20
26.0
 30
0.0
 11
18.0
 21
23.0
 31
0.0
  0
LINE
  5
9C
100
AcDbEntity
100
AcDbLine
  8
insert
 62
1
420
16711680
370
-1
  6
BYLAYER
 10
30.0
 20
23.0
 30
0.0
 11
30.0
 21
26.0
 31
0.0
  0
LINE
  5
9D
100
AcDbEntity
100
AcDbLine
  8
insert
 62
1
420
16711680
370
-1
  6
BYLAYER
 10
30.0
 20
26.0
 30
0.0
 11
36.0
 21
26.0
 31
0.0
  0
LINE
  5
9E
100
AcDbEntity
100
AcDbLine
  8
insert
 62
1
420
16711680
370
-1
  6
BYLAYER
 10
36.0
 20
26.0
 30
0.0
 11
36.0
 21
23.0
 31
0.0
  0
LINE
  5
9F
100
AcDbEntity
100
AcDbLine
  8
insert
 62
1
420
16711680
370
-1
  6
BYLAYER
 10
13.5
 20
0.0000000000000002
 30
0.0
 11
16.5
 21
-0.0000000000000004
 31
0.0
  0
LINE
  5
A0
100
AcDbEntity
100
AcDbLine
  8
insert
 62
1
420
16711680
370
-1
  6
BYLAYER
 10
19.0
 20
14.0
 30
0.0
 11
19.0
 21
12.5
 31
0.0
  0
LINE
  5
A1
100
AcDbEntity
100
AcDbLine
  8
insert
 62
1
420
16711680
370
-1
  6
BYLAYER
 10
19.0
 20
11.0
 30
0.0
 11
19.0
 21
7.0
 31
0.0
  0
LINE
  5
A2
100
AcDbEntity
100
AcDbLine
  8
insert
 62
1
420
16711680
370
-1
  6
BYLAYER
 10
25.0
 20
12.5
 30
0.0
 11
25.0
 21
21.0
 31
0.0
  0
LINE
  5
A3
100
AcDbEntity
100
AcDbLine
  8
insert
 62
1
420
16711680
370
-1
  6
BYLAYER
 10
25.0
 20
9.0
 30
0.0
 11
25.0
 21
11.0
 31
0.0
  0
LINE
  5
A4
100
AcDbEntity
100
AcDbLine
  8
insert
 62
1
420
16711680
370
-1
  6
BYLAYER
 10
21.0
 20
14.0
 30
0.0
 11
19.0
 21
14.0
 31
0.0
  0
LINE
  5
A5
100
AcDbEntity
100
AcDbLine
  8
insert
 62
1
420
16711680
370
-1
  6
BYLAYER
 10
11.0
 20
11.75
 30
0.0
 11
13.5
 21
11.75
 31
0.0
  0
LINE
  5
A6
100
AcDbEntity
100
AcDbLine
  8
insert
 62
1
420
16711680
370
-1
  6
BYLAYER
 10
16.5
 20
11.7500000000000018
 30
0.0
 11
17.0
 21
11.75
 31
0.0
  0
LINE
  5
A7
100
AcDbEntity
100
AcDbLine
  8
insert
 62
1
420
16711680
370
-1
  6
BYLAYER
 10
27.0
 20
11.75
 30
0.0
 11
31.4999999999999964
 21
11.75
 31
0.0
  0
LINE
  5
A8
100
AcDbEntity
100
AcDbLine
  8
insert
 62
1
420
16711680
370
-1
  6
BYLAYER
 10
34.5
 20
11.75
 30
0.0
 11
41.0
 21
11.75
 31
0.0
  0
LINE
  5
A9
100
AcDbEntity
100
AcDbLine
  8
insert
 62
1
420
16711680
370
-1
  6
BYLAYER
 10
14.0
 20
9.0
 30
0.0
 11
14.0
 21
23.0
 31
0.0
  0
LINE
  5
AA
100
AcDbEntity
100
AcDbLine
  8
insert
 62
1
420
16711680
370
-1
  6
BYLAYER
 10
16.0
 20
9.0
 30
0.0
 11
16.0
 21
23.0
 31
0.0
  0
LINE
  5
AB
100
AcDbEntity
100
AcDbLine
  8
insert
 62
1
420
16711680
370
-1
  6
BYLAYER
 10
13.5
 20
7.0
 30
0.0
 11
13.5
 21
9.0
 31
0.0
  0
LINE
  5
AC
100
AcDbEntity
100
AcDbLine
  8
insert
 62
1
420
16711680
370
-1
  6
BYLAYER
 10
31.9999999999999964
 20
11.0
 30
0.0
 11
31.9999999999999964
 21
23.0
 31
0.0
  0
LINE
  5
AD
100
AcDbEntity
100
AcDbLine
  8
insert
 62
1
420
16711680
370
-1
  6
BYLAYER
 10
34.0
 20
11.0
 30
0.0
 11
34.0
 21
23.0
 31
0.0
  0
CIRCLE
  5
AE
100
AcDbEntity
100
AcDbCircle
  8
insert
 62
1
420
16711680
370
-1
  6
BYLAYER
 10
15.0
 20
44.0
 30
0.0
 40
1.5
  0
CIRCLE
  5
AF
100
AcDbEntity
100
AcDbCircle
  8
insert
 62
1
420
16711680
370
-1
  6
BYLAYER
 10
33.0
 20
44.0
 30
0.0
 40
1.5
  0
CIRCLE
  5
B0
100
AcDbEntity
100
AcDbCircle
  8
insert
 62
1
420
16711680
370
-1
  6
BYLAYER
 10
8.0
 20
44.0
 30
0.0
 40
0.75
  0
CIRCLE
  5
B1
100
AcDbEntity
100
AcDbCircle
  8
insert
 62
1
420
16711680
370
-1
  6
BYLAYER
 10
23.0
 20
49.0
 30
0.0
 40
0.75
  0
CIRCLE
  5
B2
100
AcDbEntity
100
AcDbCircle
  8
insert
 62
1
420
16711680
370
-1
  6
BYLAYER
 10
42.0
 20
44.0
 30
0.0
 40
0.75
  0
LINE
  5
B3
100
AcDbEntity
100
AcDbLine
  8
centres
 62
256
370
-1
  6
CENTERX2
 10
3.5
 20
56.0
 30
0.0
 11
3.5
 21
32.0
 31
0.0
  0
LINE
  5
B4
100
AcDbEntity
100
AcDbLine
  8
centres
 62
256
370
-1
  6
CENTERX2
 10
15.0
 20
56.0
 30
0.0
 11
15.0
 21
32.0
 31
0.0
  0
LINE
  5
B5
100
AcDbEntity
100
AcDbLine
  8
centres
 62
256
370
-1
  6
CENTERX2
 10
35.0
 20
55.5
 30
0.0
 11
35.0
 21
32.0
 31
0.0
  0
LINE
  5
B6
100
AcDbEntity
100
AcDbLine
  8
centres
 62
256
370
-1
  6
CENTERX2
 10
15.0
 20
21.5
 30
0.0
 11
15.0
 21
-1.5
 31
0.0
  0
LINE
  5
B7
100
AcDbEntity
100
AcDbLine
  8
centres
 62
256
370
-1
  6
CENTERX2
 10
35.0
 20
21.5
 30
0.0
 11
35.0
 21
5.0
 31
0.0
  0
LINE
  5
B8
100
AcDbEntity
100
AcDbLine
  8
0
 62
256
370
-1
  6
BYLAYER
 10
7.0
 20
20.0
 30
0.0
 11
43.0
 21
20.0
 31
0.0
  0
LINE
  5
B9
100
AcDbEntity
100
AcDbLine
  8
0
 62
256
370
-1
  6
BYLAYER
 10
45.0
 20
20.0
 30
0.0
 11
48.0
 21
20.0
 31
0.0
  0
LINE
  5
BA
100
AcDbEntity
100
AcDbLine
  8
0
 62
256
370
-1
  6
BYLAYER
 10
2.0
 20
20.0
 30
0.0
 11
5.0
 21
20.0
 31
0.0
  0
LINE
  5
BB
100
AcDbEntity
100
AcDbLine
  8
0
 62
256
370
-1
  6
BYLAYER
 10
0.0
 20
0.0
 30
0.0
 11
12.5
 21
0.0
 31
0.0
  0
LINE
  5
BC
100
AcDbEntity
100
AcDbLine
  8
0
 62
256
370
-1
  6
BYLAYER
 10
17.5
 20
0.0
 30
0.0
 11
50.0
 21
0.0
 31
0.0
  0
LINE
  5
BD
100
AcDbEntity
100
AcDbLine
  8
insert
 62
1
420
16711680
370
-1
  6
BYLAYER
 10
-3.0
 20
23.0
 30
0.0
 11
7.25
 21
23.0
 31
0.0
  0
LINE
  5
BE
100
AcDbEntity
100
AcDbLine
  8
insert
 62
1
420
16711680
370
-1
  6
BYLAYER
 10
7.25
 20
21.0
 30
0.0
 11
7.0
 21
21.0
 31
0.0
  0
LINE
  5
BF
100
AcDbEntity
100
AcDbLine
  8
insert
 62
1
420
16711680
370
-1
  6
BYLAYER
 10
9.0
 20
21.0
 30
0.0
 11
8.75
 21
21.0
 31
0.0
  0
LINE
  5
C0
100
AcDbEntity
100
AcDbLine
  8
insert
 62
1
420
16711680
370
-1
  6
BYLAYER
 10
8.75
 20
21.0
 30
0.0
 11
7.25
 21
21.0
 31
0.0
  0
LINE
  5
C1
100
AcDbEntity
100
AcDbLine
  8
insert
 62
1
420
16711680
370
-1
  6
BYLAYER
 10
7.25
 20
23.0
 30
0.0
 11
8.75
 21
23.0
 31
0.0
  0
LINE
  5
C2
100
AcDbEntity
100
AcDbLine
  8
insert
 62
1
420
16711680
370
-1
  6
BYLAYER
 10
8.75
 20
23.0
 30
0.0
 11
13.5
 21
23.0
 31
0.0
  0
LINE
  5
C3
100
AcDbEntity
100
AcDbLine
  8
insert
 62
1
420
16711680
370
-1
  6
BYLAYER
 10
13.5
 20
23.0
 30
0.0
 11
16.5
 21
23.0
 31
0.0
  0
LINE
  5
C4
100
AcDbEntity
100
AcDbLine
  8
insert
 62
1
420
16711680
370
-1
  6
BYLAYER
 10
16.5
 20
23.0
 30
0.0
 11
31.4999999999999929
 21
23.0
 31
0.0
  0
LINE
  5
C5
100
AcDbEntity
100
AcDbLine
  8
insert
 62
1
420
16711680
370
-1
  6
BYLAYER
 10
31.4999999999999929
 20
23.0
 30
0.0
 11
34.5
 21
23.0
 31
0.0
  0
LINE
  5
C6
100
AcDbEntity
100
AcDbLine
  8
insert
 62
1
420
16711680
370
-1
  6
BYLAYER
 10
34.5
 20
23.0
 30
0.0
 11
41.25
 21
23.0
 31
0.0
  0
LINE
  5
C7
100
AcDbEntity
100
AcDbLine
  8
insert
 62
1
420
16711680
370
-1
  6
BYLAYER
 10
41.25
 20
21.0
 30
0.0
 11
41.0
 21
21.0
 31
0.0
  0
LINE
  5
C8
100
AcDbEntity
100
AcDbLine
  8
insert
 62
1
420
16711680
370
-1
  6
BYLAYER
 10
41.25
 20
23.0
 30
0.0
 11
42.75
 21
23.0
 31
0.0
  0
LINE
  5
C9
100
AcDbEntity
100
AcDbLine
  8
insert
 62
1
420
16711680
370
-1
  6
BYLAYER
 10
42.75
 20
23.0
 30
0.0
 11
53.0
 21
23.0
 31
0.0
  0
LINE
  5
CA
100
AcDbEntity
100
AcDbLine
  8
insert
 62
1
420
16711680
370
-1
  6
BYLAYER
 10
41.0
 20
9.0
 30
0.0
 11
41.0
 21
11.75
 31
0.0
  0
LINE
  5
CB
100
AcDbEntity
100
AcDbLine
  8
insert
 62
1
420
16711680
370
-1
  6
BYLAYER
 10
41.0
 20
11.75
 30
0.0
 11
41.0
 21
21.0
 31
0.0
  0
LINE
  5
CC
100
AcDbEntity
100
AcDbLine
  8
insert
 62
1
420
16711680
370
-1
  6
BYLAYER
 10
41.0
 20
9.0
 30
0.0
 11
36.0
 21
9.0
 31
0.0
  0
LINE
  5
CD
100
AcDbEntity
100
AcDbLine
  8
insert
 62
1
420
16711680
370
-1
  6
BYLAYER
 10
36.0
 20
9.0
 30
0.0
 11
30.0
 21
9.0
 31
0.0
  0
LINE
  5
CE
100
AcDbEntity
100
AcDbLine
  8
insert
 62
1
420
16711680
370
-1
  6
BYLAYER
 10
30.0
 20
9.0
 30
0.0
 11
25.0
 21
9.0
 31
0.0
  0
LINE
  5
CF
100
AcDbEntity
100
AcDbLine
  8
insert
 62
1
420
16711680
370
-1
  6
BYLAYER
 10
13.5
 20
9.0
 30
0.0
 11
13.5
 21
11.75
 31
0.0
  0
LINE
  5
D0
100
AcDbEntity
100
AcDbLine
  8
insert
 62
1
420
16711680
370
-1
  6
BYLAYER
 10
13.5
 20
11.75
 30
0.0
 11
13.5
 21
23.0
 31
0.0
  0
LINE
  5
D1
100
AcDbEntity
100
AcDbLine
  8
insert
 62
1
420
16711680
370
-1
  6
BYLAYER
 10
16.5
 20
9.0
 30
0.0
 11
16.5
 21
11.7500000000000018
 31
0.0
  0
LINE
  5
D2
100
AcDbEntity
100
AcDbLine
  8
insert
 62
1
420
16711680
370
-1
  6
BYLAYER
 10
16.5
 20
11.7500000000000018
 30
0.0
 11
16.5
 21
23.0
 31
0.0
  0
LINE
  5
D3
100
AcDbEntity
100
AcDbLine
  8
insert
 62
1
420
16711680
370
-1
  6
BYLAYER
 10
17.0
 20
11.0
 30
0.0
 11
17.0
 21
11.75
 31
0.0
  0
LINE
  5
D4
100
AcDbEntity
100
AcDbLine
  8
insert
 62
1
420
16711680
370
-1
  6
BYLAYER
 10
17.0
 20
11.75
 30
0.0
 11
17.0
 21
12.5
 31
0.0
  0
LINE
  5
D5
100
AcDbEntity
100
AcDbLine
  8
insert
 62
1
420
16711680
370
-1
  6
BYLAYER
 10
27.0
 20
11.0
 30
0.0
 11
27.0
 21
11.75
 31
0.0
  0
LINE
  5
D6
100
AcDbEntity
100
AcDbLine
  8
insert
 62
1
420
16711680
370
-1
  6
BYLAYER
 10
27.0
 20
11.75
 30
0.0
 11
27.0
 21
12.5
 31
0.0
  0
LINE
  5
D7
100
AcDbEntity
100
AcDbLine
  8
insert
 62
1
420
16711680
370
-1
  6
BYLAYER
 10
31.4999999999999964
 20
11.75
 30
0.0
 11
31.4999999999999964
 21
23.0
 31
0.0
  0
LINE
  5
D8
100
AcDbEntity
100
AcDbLine
  8
insert
 62
1
420
16711680
370
-1
  6
BYLAYER
 10
34.5
 20
11.75
 30
0.0
 11
34.5
 21
23.0
 31
0.0
  0
LINE
  5
D9
100
AcDbEntity
100
AcDbLine
  8
insert
 62
1
420
16711680
370
-1
  6
CONTINUOUS
 10
11.0
 20
14.0
 30
0.0
 11
9.0
 21
14.0
 31
0.0
  0
LINE
  5
DA
100
AcDbEntity
100
AcDbLine
  8
insert
 62
1
420
16711680
370
-1
  6
BYLAYER
 10
11.0
 20
14.0
 30
0.0
 11
11.0
 21
11.75
 31
0.0
  0
LINE
  5
DB
100
AcDbEntity
100
AcDbLine
  8
insert
 62
1
420
16711680
370
-1
  6
BYLAYER
 10
11.0
 20
11.75
 30
0.0
 11
11.0
 21
7.0
 31
0.0
  0
LINE
  5
DC
100
AcDbEntity
100
AcDbLine
  8
insert
 62
1
420
16711680
370
-1
  6
BYLAYER
 10
27.0
 20
12.5
 30
0.0
 11
25.0
 21
12.5
 31
0.0
  0
LINE
  5
DD
100
AcDbEntity
100
AcDbLine
  8
insert
 62
1
420
16711680
370
-1
  6
BYLAYER
 10
25.0
 20
12.5
 30
0.0
 11
19.0
 21
12.5
 31
0.0
  0
LINE
  5
DE
100
AcDbEntity
100
AcDbLine
  8
insert
 62
1
420
16711680
370
-1
  6
BYLAYER
 10
19.0
 20
12.5
 30
0.0
 11
17.0
 21
12.5
 31
0.0
  0
LINE
  5
DF
100
AcDbEntity
100
AcDbLine
  8
insert
 62
1
420
16711680
370
-1
  6
BYLAYER
 10
43.0
 20
21.0
 30
0.0
 11
42.75
 21
21.0
 31
0.0
  0
LINE
  5
E0
100
AcDbEntity
100
AcDbLine
  8
insert
 62
1
420
16711680
370
-1
  6
BYLAYER
 10
42.75
 20
21.0
 30
0.0
 11
41.25
 21
21.0
 31
0.0
  0
LINE
  5
E1
100
AcDbEntity
100
AcDbLine
  8
insert
 62
1
420
16711680
370
-1
  6
BYLAYER
 10
31.4999999999999964
 20
9.0
 30
0.0
 11
31.4999999999999964
 21
11.0
 31
0.0
  0
LINE
  5
E2
100
AcDbEntity
100
AcDbLine
  8
insert
 62
1
420
16711680
370
-1
  6
BYLAYER
 10
31.4999999999999964
 20
11.0
 30
0.0
 11
31.4999999999999964
 21
11.75
 31
0.0
  0
LINE
  5
E3
100
AcDbEntity
100
AcDbLine
  8
insert
 62
1
420
16711680
370
-1
  6
BYLAYER
 10
34.5
 20
9.4152866400503292
 30
0.0
 11
34.5
 21
11.0
 31
0.0
  0
LINE
  5
E4
100
AcDbEntity
100
AcDbLine
  8
insert
 62
1
420
16711680
370
-1
  6
BYLAYER
 10
34.5
 20
11.0
 30
0.0
 11
34.5
 21
11.75
 31
0.0
  0
LINE
  5
E5
100
AcDbEntity
100
AcDbLine
  8
insert
 62
1
420
16711680
370
-1
  6
CONTINUOUS
 10
30.0
 20
11.0
 30
0.0
 11
31.5
 21
11.0
 31
0.0
  0
LINE
  5
E6
100
AcDbEntity
100
AcDbLine
  8
insert
 62
1
420
16711680
370
-1
  6
CONTINUOUS
 10
31.5
 20
11.0
 30
0.0
 11
31.5
 21
11.0
 31
0.0
  0
LINE
  5
E7
100
AcDbEntity
100
AcDbLine
  8
insert
 62
1
420
16711680
370
-1
  6
CONTINUOUS
 10
31.5
 20
11.0
 30
0.0
 11
34.5
 21
11.0
 31
0.0
  0
LINE
  5
E8
100
AcDbEntity
100
AcDbLine
  8
insert
 62
1
420
16711680
370
-1
  6
CONTINUOUS
 10
34.5
 20
11.0
 30
0.0
 11
34.5
 21
11.0
 31
0.0
  0
LINE
  5
E9
100
AcDbEntity
100
AcDbLine
  8
insert
 62
1
420
16711680
370
-1
  6
CONTINUOUS
 10
34.5
 20
11.0
 30
0.0
 11
36.0
 21
11.0
 31
0.0
  0
LINE
  5
EA
100
AcDbEntity
100
AcDbLine
  8
insert
 62
1
420
16711680
370
-1
  6
BYLAYER
 10
12.0
 20
9.0
 30
0.0
 11
13.5
 21
9.0
 31
0.0
  0
LINE
  5
EB
100
AcDbEntity
100
AcDbLine
  8
insert
 62
1
420
16711680
370
-1
  6
BYLAYER
 10
13.5
 20
9.0
 30
0.0
 11
16.5
 21
9.0
 31
0.0
  0
LINE
  5
EC
100
AcDbEntity
100
AcDbLine
  8
insert
 62
1
420
16711680
370
-1
  6
BYLAYER
 10
16.5
 20
9.0
 30
0.0
 11
18.0
 21
9.0
 31
0.0
  0
LINE
  5
ED
100
AcDbEntity
100
AcDbLine
  8
insert
 62
1
420
16711680
370
-1
  6
BYLAYER
 10
13.5
 20
7.0
 30
0.0
 11
12.0
 21
7.0
 31
0.0
  0
LINE
  5
EE
100
AcDbEntity
100
AcDbLine
  8
insert
 62
1
420
16711680
370
-1
  6
BYLAYER
 10
18.0
 20
7.0
 30
0.0
 11
16.5
 21
7.0
 31
0.0
  0
LINE
  5
EF
100
AcDbEntity
100
AcDbLine
  8
insert
 62
1
420
16711680
370
-1
  6
BYLAYER
 10
16.5
 20
7.0
 30
0.0
 11
13.5
 21
7.0
 31
0.0
  0
LINE
  5
F0
100
AcDbEntity
100
AcDbLine
  8
insert
 62
1
420
16711680
370
-1
  6
BYLAYER
 10
13.5
 20
0.0000000000000002
 30
0.0
 11
13.5
 21
4.5
 31
0.0
  0
LINE
  5
F1
100
AcDbEntity
100
AcDbLine
  8
insert
 62
1
420
16711680
370
-1
  6
BYLAYER
 10
13.5
 20
4.5
 30
0.0
 11
13.5
 21
7.0
 31
0.0
  0
LINE
  5
F2
100
AcDbEntity
100
AcDbLine
  8
insert
 62
1
420
16711680
370
-1
  6
BYLAYER
 10
16.5
 20
-0.0000000000000004
 30
0.0
 11
16.5
 21
4.5
 31
0.0
  0
LINE
  5
F3
100
AcDbEntity
100
AcDbLine
  8
insert
 62
1
420
16711680
370
-1
  6
BYLAYER
 10
16.5
 20
4.5
 30
0.0
 11
16.5
 21
7.0
 31
0.0
  0
LINE
  5
F4
100
AcDbEntity
100
AcDbLine
  8
insert
 62
1
420
16711680
370
-1
  6
BYLAYER
 10
16.5
 20
7.0
 30
0.0
 11
16.5
 21
9.0
 31
0.0
  0
LINE
  5
F5
100
AcDbEntity
100
AcDbLine
  8
0
 62
256
370
-1
  6
BYLAYER
 10
12.5
 20
0.0
 30
0.0
 11
14.0
 21
0.0
 31
0.0
  0
LINE
  5
F6
100
AcDbEntity
100
AcDbLine
  8
0
 62
256
370
-1
  6
BYLAYER
 10
14.0
 20
0.0
 30
0.0
 11
16.0
 21
0.0
 31
0.0
  0
LINE
  5
F7
100
AcDbEntity
100
AcDbLine
  8
0
 62
256
370
-1
  6
BYLAYER
 10
16.0
 20
0.0
 30
0.0
 11
17.5
 21
0.0
 31
0.0
  0
LINE
  5
F8
100
AcDbEntity
100
AcDbLine
  8
insert
 62
1
420
16711680
370
-1
  6
BYLAYER
 10
14.0
 20
0.0000000000000001
 30
0.0
 11
14.0
 21
4.5
 31
0.0
  0
LINE
  5
F9
100
AcDbEntity
100
AcDbLine
  8
insert
 62
1
420
16711680
370
-1
  6
BYLAYER
 10
14.0
 20
4.5
 30
0.0
 11
14.0
 21
7.0
 31
0.0
  0
LINE
  5
FA
100
AcDbEntity
100
AcDbLine
  8
insert
 62
1
420
16711680
370
-1
  6
BYLAYER
 10
16.0
 20
-0.0000000000000003
 30
0.0
 11
16.0
 21
4.5
 31
0.0
  0
LINE
  5
FB
100
AcDbEntity
100
AcDbLine
  8
insert
 62
1
420
16711680
370
-1
  6
BYLAYER
 10
16.0
 20
4.5
 30
0.0
 11
16.0
 21
7.1810777901128695
 31
0.0
  0
LINE
  5
FC
100
AcDbEntity
100
AcDbLine
  8
silicone
 62
5
420
255
370
-1
  6
CONTINUOUS
 10
7.0
 20
21.0
 30
0.0
 11
9.0
 21
21.0
 31
0.0
  0
LINE
  5
FD
100
AcDbEntity
100
AcDbLine
  8
silicone
 62
5
420
255
370
-1
  6
CONTINUOUS
 10
9.0
 20
21.0
 30
0.0
 11
8.9999991999999853
 21
14.0
 31
0.0
  0
LINE
  5
FE
100
AcDbEntity
100
AcDbLine
  8
silicone
 62
5
420
255
370
-1
  6
CONTINUOUS
 10
8.9999991999999853
 20
14.0
 30
0.0
 11
10.9999999999999982
 21
14.0
 31
0.0
  0
LINE
  5
FF
100
AcDbEntity
100
AcDbLine
  8
silicone
 62
5
420
255
370
-1
  6
CONTINUOUS
 10
10.9999999999999982
 20
14.0
 30
0.0
 11
10.9999995760869602
 21
7.0000004239130398
 31
0.0
  0
LINE
  5
100
100
AcDbEntity
100
AcDbLine
  8
silicone
 62
5
420
255
370
-1
  6
CONTINUOUS
 10
10.9999995760869602
 20
7.0000004239130398
 30
0.0
 11
13.5
 21
4.4999995548780491
 31
0.0
  0
LINE
  5
101
100
AcDbEntity
100
AcDbLine
  8
silicone
 62
5
420
255
370
-1
  6
CONTINUOUS
 10
13.5
 20
4.4999995548780491
 30
0.0
 11
14.0
 21
4.5
 31
0.0
  0
LINE
  5
102
100
AcDbEntity
100
AcDbLine
  8
silicone
 62
5
420
255
370
-1
  6
CONTINUOUS
 10
14.0
 20
4.5
 30
0.0
 11
14.0
 21
0.0000000000000001
 31
0.0
  0
LINE
  5
103
100
AcDbEntity
100
AcDbLine
  8
silicone
 62
5
420
255
370
-1
  6
CONTINUOUS
 10
14.0
 20
0.0000000000000001
 30
0.0
 11
12.5
 21
0.0
 31
0.0
  0
LINE
  5
104
100
AcDbEntity
100
AcDbLine
  8
silicone
 62
5
420
255
370
-1
  6
CONTINUOUS
 10
12.5
 20
0.0
 30
0.0
 11
12.5
 21
3.329273579153694
 31
0.0
  0
LINE
  5
105
100
AcDbEntity
100
AcDbLine
  8
silicone
 62
5
420
255
370
-1
  6
CONTINUOUS
 10
12.5
 20
3.329273579153694
 30
0.0
 11
7.0
 21
6.2536754532918302
 31
0.0
  0
LINE
  5
106
100
AcDbEntity
100
AcDbLine
  8
silicone
 62
5
420
255
370
-1
  6
CONTINUOUS
 10
7.0
 20
6.2536754532918302
 30
0.0
 11
7.0
 21
21.0
 31
0.0
  0
LINE
  5
107
100
AcDbEntity
100
AcDbLine
  8
silicone
 62
5
420
255
370
-1
  6
CONTINUOUS
 10
15.9999994999999942
 20
0.0
 30
0.0
 11
16.0
 21
4.5
 31
0.0
  0
LINE
  5
108
100
AcDbEntity
100
AcDbLine
  8
silicone
 62
5
420
255
370
-1
  6
CONTINUOUS
 10
16.0
 20
4.5
 30
0.0
 11
16.5
 21
4.5
 31
0.0
  0
LINE
  5
109
100
AcDbEntity
100
AcDbLine
  8
silicone
 62
5
420
255
370
-1
  6
CONTINUOUS
 10
16.5
 20
4.5
 30
0.0
 11
19.0
 21
7.0
 31
0.0
  0
LINE
  5
10A
100
AcDbEntity
100
AcDbLine
  8
silicone
 62
5
420
255
370
-1
  6
CONTINUOUS
 10
19.0
 20
7.0
 30
0.0
 11
19.0
 21
11.0
 31
0.0
  0
LINE
  5
10B
100
AcDbEntity
100
AcDbLine
  8
silicone
 62
5
420
255
370
-1
  6
CONTINUOUS
 10
19.0
 20
11.0
 30
0.0
 11
24.9999975694444174
 21
11.0
 31
0.0
  0
LINE
  5
10C
100
AcDbEntity
100
AcDbLine
  8
silicone
 62
5
420
255
370
-1
  6
CONTINUOUS
 10
24.9999975694444174
 20
11.0
 30
0.0
 11
24.9999996323529388
 21
9.0
 31
0.0
  0
LINE
  5
10D
100
AcDbEntity
100
AcDbLine
  8
silicone
 62
5
420
255
370
-1
  6
CONTINUOUS
 10
24.9999996323529388
 20
9.0
 30
0.0
 11
41.0
 21
8.9999972500007104
 31
0.0
  0
LINE
  5
10E
100
AcDbEntity
100
AcDbLine
  8
silicone
 62
5
420
255
370
-1
  6
CONTINUOUS
 10
41.0
 20
8.9999972500007104
 30
0.0
 11
41.0
 21
21.0
 31
0.0
  0
LINE
  5
10F
100
AcDbEntity
100
AcDbLine
  8
silicone
 62
5
420
255
370
-1
  6
CONTINUOUS
 10
41.0
 20
21.0
 30
0.0
 11
42.9999998750000074
 21
21.0
 31
0.0
  0
LINE
  5
110
100
AcDbEntity
100
AcDbLine
  8
silicone
 62
5
420
255
370
-1
  6
CONTINUOUS
 10
42.9999998750000074
 20
21.0
 30
0.0
 11
43.0
 21
7.0
 31
0.0
  0
LINE
  5
111
100
AcDbEntity
100
AcDbLine
  8
silicone
 62
5
420
255
370
-1
  6
CONTINUOUS
 10
43.0
 20
7.0
 30
0.0
 11
22.9999996029411733
 21
7.0
 31
0.0
  0
LINE
  5
112
100
AcDbEntity
100
AcDbLine
  8
silicone
 62
5
420
255
370
-1
  6
CONTINUOUS
 10
22.9999996029411733
 20
7.0
 30
0.0
 11
23.0
 21
6.2536754532918319
 31
0.0
  0
LINE
  5
113
100
AcDbEntity
100
AcDbLine
  8
silicone
 62
5
420
255
370
-1
  6
CONTINUOUS
 10
23.0
 20
6.2536754532918319
 30
0.0
 11
17.5
 21
3.329273579153698
 31
0.0
  0
LINE
  5
114
100
AcDbEntity
100
AcDbLine
  8
silicone
 62
5
420
255
370
-1
  6
CONTINUOUS
 10
17.5
 20
3.329273579153698
 30
0.0
 11
17.5
 21
0.0
 31
0.0
  0
LINE
  5
115
100
AcDbEntity
100
AcDbLine
  8
silicone
 62
5
420
255
370
-1
  6
CONTINUOUS
 10
17.5
 20
0.0
 30
0.0
 11
15.9999994999999942
 21
0.0
 31
0.0
  0
LINE
  5
116
100
AcDbEntity
100
AcDbLine
  8
silicone
 62
5
420
255
370
-1
  6
CONTINUOUS
 10
25.0
 20
12.5
 30
0.0
 11
25.0
 21
21.0
 31
0.0
  0
LINE
  5
117
100
AcDbEntity
100
AcDbLine
  8
silicone
 62
5
420
255
370
-1
  6
CONTINUOUS
 10
25.0
 20
21.0
 30
0.0
 11
21.0
 21
21.0
 31
0.0
  0
LINE
  5
118
100
AcDbEntity
100
AcDbLine
  8
silicone
 62
5
420
255
370
-1
  6
CONTINUOUS
 10
21.0
 20
21.0
 30
0.0
 11
20.9999986511627696
 21
14.0
 31
0.0
  0
LINE
  5
119
100
AcDbEntity
100
AcDbLine
  8
silicone
 62
5
420
255
370
-1
  6
CONTINUOUS
 10
20.9999986511627696
 20
14.0
 30
0.0
 11
19.0
 21
14.0
 31
0.0
  0
LINE
  5
11A
100
AcDbEntity
100
AcDbLine
  8
silicone
 62
5
420
255
370
-1
  6
CONTINUOUS
 10
19.0
 20
14.0
 30
0.0
 11
19.0
 21
12.5
 31
0.0
  0
LINE
  5
11B
100
AcDbEntity
100
AcDbLine
  8
silicone
 62
5
420
255
370
-1
  6
CONTINUOUS
 10
19.0
 20
12.5
 30
0.0
 11
25.0
 21
12.5
 31
0.0
  0
LINE
  5
11C
100
AcDbEntity
100
AcDbLine
  8
silicone
 62
5
420
255
370
-1
  6
CONTINUOUS
 10
9.0
 20
21.0
 30
0.0
 11
21.0
 21
21.0
 31
0.0
  0
LINE
  5
11D
100
AcDbEntity
100
AcDbLine
  8
silicone
 62
5
420
255
370
-1
  6
CONTINUOUS
 10
25.0
 20
21.0
 30
0.0
 11
41.0
 21
21.0
 31
0.0
  0
LINE
  5
11E
100
AcDbEntity
100
AcDbLine
  8
silicone
 62
5
420
255
370
-1
  6
CONTINUOUS
 10
25.0
 20
12.5
 30
0.0
 11
25.0
 21
11.0
 31
0.0
  0
LINE
  5
11F
100
AcDbEntity
100
AcDbLine
  8
silicone
 62
5
420
255
370
-1
  6
CONTINUOUS
 10
19.0
 20
12.5
 30
0.0
 11
19.0
 21
11.0
 31
0.0
  0
LINE
  5
120
100
AcDbEntity
100
AcDbLine
  8
silicone
 62
5
420
255
370
-1
  6
CONTINUOUS
 10
19.0
 20
7.0
 30
0.0
 11
11.0
 21
7.0
 31
0.0
  0
LINE
  5
121
100
AcDbEntity
100
AcDbLine
  8
silicone
 62
5
420
255
370
-1
  6
CONTINUOUS
 10
19.0
 20
14.0
 30
0.0
 11
11.0
 21
14.0
 31
0.0
  0
DIMENSION
  5
122
100
AcDbEntity
  8
main dims
 62
0
370
-1
  6
CONTINUOUS
100
AcDbDimension
 10
3.5
 20
57.5
 30
0.0
 11
8.9861111111111107
 21
59.375
 31
0.0
 70
0
 71
8
 72
1
 41
1.0
 42
0.0
  1

  3
Standard
100
AcDbAlignedDimension
 13
0.0
 23
54.5
 33
0.0
 14
3.5
 24
54.5
 34
0.0
 50
0.0
100
AcDbRotatedDimension
1001
ACAD
1000
DSTYLE
1002
{
1070
144
1040
1
1002
}
  0
DIMENSION
  5
123
100
AcDbEntity
  8
main dims
 62
0
370
-1
  6
CONTINUOUS
100
AcDbDimension
 10
15.0
 20
61.5
 30
0.0
 11
7.5
 21
63.375
 31
0.0
 70
0
 71
8
 72
1
 41
1.0
 42
0.0
  1

  3
Standard
100
AcDbAlignedDimension
 13
0.0
 23
55.0
 33
0.0
 14
15.0
 24
55.0
 34
0.0
 50
0.0
100
AcDbRotatedDimension
1001
ACAD
1000
DSTYLE
1002
{
1070
144
1040
1
1002
}
  0
DIMENSION
  5
124
100
AcDbEntity
  8
main dims
 62
0
370
-1
  6
CONTINUOUS
100
AcDbDimension
 10
35.0
 20
66.0
 30
0.0
 11
17.5
 21
67.875
 31
0.0
 70
0
 71
8
 72
1
 41
1.0
 42
0.0
  1

  3
Standard
100
AcDbAlignedDimension
 13
0.0
 23
55.0
 33
0.0
 14
35.0
 24
55.0
 34
0.0
 50
0.0
100
AcDbRotatedDimension
1001
ACAD
1000
DSTYLE
1002
{
1070
144
1040
1
1002
}
  0
DIMENSION
  5
125
100
AcDbEntity
  8
main dims
 62
0
370
-1
  6
CONTINUOUS
100
AcDbDimension
 10
46.5
 20
71.0
 30
0.0
 11
23.25
 21
72.875
 31
0.0
 70
0
 71
8
 72
1
 41
1.0
 42
0.0
  1

  3
Standard
100
AcDbAlignedDimension
 13
0.0
 23
54.5
 33
0.0
 14
46.5
 24
54.5
 34
0.0
 50
0.0
100
AcDbRotatedDimension
1001
ACAD
1000
DSTYLE
1002
{
1070
144
1040
1
1002
}
  0
DIMENSION
  5
126
100
AcDbEntity
  8
main dims
 62
0
370
-1
  6
CONTINUOUS
100
AcDbDimension
 10
50.0
 20
76.0
 30
0.0
 11
25.0
 21
77.875
 31
0.0
 70
0
 71
8
 72
1
 41
1.0
 42
0.0
  1

  3
Standard
100
AcDbAlignedDimension
 13
0.0
 23
54.5
 33
0.0
 14
50.0
 24
54.5
 34
0.0
 50
0.0
100
AcDbRotatedDimension
1001
ACAD
1000
DSTYLE
1002
{
1070
144
1040
1
1002
}
  0
DIMENSION
  5
127
100
AcDbEntity
  8
main dims
 62
0
370
-1
  6
CONTINUOUS
100
AcDbDimension
 10
20.6568542494923832
 20
49.6568542494923761
 30
0.0
 11
13.6741747852752233
 21
45.3258252147247802
 31
0.0
 70
3
 71
8
 72
1
 41
1.0
 42
0.0
  1

  3
Standard
100
AcDbDiametricDimension
 15
9.3431457505076185
 25
38.3431457505076168
 35
0.0
 40
0.0
1001
ACAD
1000
DSTYLE
1002
{
1070
144
1040
1
1002
}
  0
LEADER
  5
128
  8
main dims
 62
0
370
-1
  6
CENTERX2
100
AcDbEntity
100
AcDbLeader
  3
Standard
 71
1
 72
0
 73
3
 74
0
 75
0
 40
1.0
 41
10.0
 76
3
 10
-32.5
 20
38.0
 10
-32.5
 20
44.0
 10
-23.5
 20
44.0
  0
MTEXT
  5
129
100
AcDbEntity
100
AcDbMText
  8
main dims
 62
0
370
-1
  6
CENTERX2
 10
-33.5
 20
37.0
 30
0.0
 40
3.0
 41
100.0
 71
1
 72
5
  1
A
  7
textstyle0
 50
0.0
 73
1
 44
1.0
  0
MTEXT
  5
12A
100
AcDbEntity
100
AcDbMText
  8
main dims
 62
0
370
-1
  6
CENTERX2
 10
7.5
 20
-7.5
 30
0.0
 40
3.0
 41
100.0
 71
1
 72
5
  1
Section AA
  7
textstyle1
 50
0.0
 73
1
 44
1.0
  0
LEADER
  5
12B
  8
main dims
 62
0
370
-1
  6
CENTERX2
100
AcDbEntity
100
AcDbLeader
  3
Standard
 71
1
 72
0
 73
3
 74
0
 75
0
 40
1.0
 41
10.0
 76
2
 10
13.0
 20
2.5
 10
30.0
 20
25.5
  0
MTEXT
  5
12C
100
AcDbEntity
100
AcDbMText
  8
main dims
 62
0
370
-1
  6
CENTERX2
 10
31.0
 20
27.0
 30
0.0
 40
2.0
 41
100.0
 71
1
 72
5
  1
D&T M5
  7
textstyle2
 50
0.0
 73
1
 44
1.0
  0
LINE
  5
12D
100
AcDbEntity
100
AcDbLine
  8
centres
 62
256
370
-1
  6
CENTERX2
 10
46.5
 20
32.0
 30
0.0
 11
46.5
 21
55.5
 31
0.0
  0
LINE
  5
12E
100
AcDbEntity
100
AcDbLine
  8
0
 62
256
370
-1
  6
BYLAYER
 10
1.0
 20
20.0
 30
0.0
 11
1.0
 21
4.0
 31
0.0
  0
LINE
  5
12F
100
AcDbEntity
100
AcDbLine
  8
0
 62
256
370
-1
  6
BYLAYER
 10
1.0
 20
4.0
 30
0.0
 11
6.0
 21
4.0
 31
0.0
  0
LINE
  5
130
100
AcDbEntity
100
AcDbLine
  8
0
 62
256
370
-1
  6
BYLAYER
 10
6.0
 20
4.0
 30
0.0
 11
6.0
 21
20.0
 31
0.0
  0
LINE
  5
131
100
AcDbEntity
100
AcDbLine
  8
0
 62
256
370
-1
  6
BYLAYER
 10
1.0
 20
4.0
 30
0.0
 11
3.5
 21
2.5
 31
0.0
  0
LINE
  5
132
100
AcDbEntity
100
AcDbLine
  8
0
 62
256
370
-1
  6
BYLAYER
 10
3.5
 20
2.5
 30
0.0
 11
6.0
 21
4.0
 31
0.0
  0
LINE
  5
133
100
AcDbEntity
100
AcDbLine
  8
0
 62
256
370
-1
  6
BYLAYER
 10
44.0
 20
20.0
 30
0.0
 11
44.0
 21
4.0
 31
0.0
  0
LINE
  5
134
100
AcDbEntity
100
AcDbLine
  8
0
 62
256
370
-1
  6
BYLAYER
 10
44.0
 20
4.0
 30
0.0
 11
49.0
 21
4.0
 31
0.0
  0
LINE
  5
135
100
AcDbEntity
100
AcDbLine
  8
0
 62
256
370
-1
  6
BYLAYER
 10
49.0
 20
4.0
 30
0.0
 11
49.0
 21
20.0
 31
0.0
  0
LINE
  5
136
100
AcDbEntity
100
AcDbLine
  8
0
 62
256
370
-1
  6
BYLAYER
 10
46.5
 20
2.5
 30
0.0
 11
44.0
 21
4.0
 31
0.0
  0
LINE
  5
137
100
AcDbEntity
100
AcDbLine
  8
0
 62
256
370
-1
  6
BYLAYER
 10
49.0
 20
4.0
 30
0.0
 11
46.5
 21
2.5
 31
0.0
  0
LINE
  5
138
100
AcDbEntity
100
AcDbLine
  8
0
 62
256
370
-1
  6
BYLAYER
 10
0.0
 20
20.0
 30
0.0
 11
1.0
 21
20.0
 31
0.0
  0
LINE
  5
139
100
AcDbEntity
100
AcDbLine
  8
0
 62
256
370
-1
  6
BYLAYER
 10
1.0
 20
20.0
 30
0.0
 11
2.0
 21
20.0
 31
0.0
  0
LINE
  5
13A
100
AcDbEntity
100
AcDbLine
  8
0
 62
256
370
-1
  6
BYLAYER
 10
5.0
 20
20.0
 30
0.0
 11
6.0
 21
20.0
 31
0.0
  0
LINE
  5
13B
100
AcDbEntity
100
AcDbLine
  8
0
 62
256
370
-1
  6
BYLAYER
 10
6.0
 20
20.0
 30
0.0
 11
7.0
 21
20.0
 31
0.0
  0
LINE
  5
13C
100
AcDbEntity
100
AcDbLine
  8
0
 62
256
370
-1
  6
BYLAYER
 10
43.0
 20
20.0
 30
0.0
 11
44.0
 21
20.0
 31
0.0
  0
LINE
  5
13D
100
AcDbEntity
100
AcDbLine
  8
0
 62
256
370
-1
  6
BYLAYER
 10
44.0
 20
20.0
 30
0.0
 11
45.0
 21
20.0
 31
0.0
  0
LINE
  5
13E
100
AcDbEntity
100
AcDbLine
  8
0
 62
256
370
-1
  6
BYLAYER
 10
48.0
 20
20.0
 30
0.0
 11
49.0
 21
20.0
 31
0.0
  0
LINE
  5
13F
100
AcDbEntity
100
AcDbLine
  8
0
 62
256
370
-1
  6
BYLAYER
 10
49.0
 20
20.0
 30
0.0
 11
50.0
 21
20.0
 31
0.0
  0
CIRCLE
  5
140
100
AcDbEntity
100
AcDbCircle
  8
0
 62
256
370
-1
  6
BYLAYER
 10
3.5
 20
44.0
 30
0.0
 40
2.5
  0
CIRCLE
  5
141
100
AcDbEntity
100
AcDbCircle
  8
0
 62
256
370
-1
  6
BYLAYER
 10
46.5
 20
44.0
 30
0.0
 40
2.5
  0
CIRCLE
  5
142
100
AcDbEntity
100
AcDbCircle
  8
insert
 62
1
420
16711680
370
-1
  6
BYLAYER
 10
23.0
 20
38.0
 30
0.0
 40
0.75
  0
CIRCLE
  5
143
100
AcDbEntity
100
AcDbCircle
  8
insert
 62
1
420
16711680
370
-1
  6
BYLAYER
 10
23.0
 20
40.0
 30
0.0
 40
0.75
  0
LINE
  5
144
100
AcDbEntity
100
AcDbLine
  8
centres
 62
256
370
-1
  6
CENTERX2
 10
54.5
 20
44.0
 30
0.0
 11
-2.0
 21
44.0
 31
0.0
  0
CIRCLE
  5
145
100
AcDbEntity
100
AcDbCircle
  8
0
 62
256
370
-1
  6
BYLAYER
 10
3.5
 20
51.0
 30
0.0
 40
1.5
  0
ARC
  5
146
100
AcDbEntity
  8
0
 62
256
370
-1
  6
BYLAYER
100
AcDbCircle
 10
3.5
 20
51.0
 30
0.0
 40
1.2438530420669265
100
AcDbArc
 50
337.7180920524253338
 51
251.0729750707165806
  0
LINE
  5
147
100
AcDbEntity
100
AcDbLine
  8
centres
 62
256
370
-1
  6
CENTERX2
 10
-2.0
 20
51.0
 30
0.0
 11
7.0
 21
51.0
 31
0.0
  0
CIRCLE
  5
148
100
AcDbEntity
100
AcDbCircle
  8
0
 62
256
370
-1
  6
BYLAYER
 10
3.5
 20
37.0
 30
0.0
 40
1.5
  0
ARC
  5
149
100
AcDbEntity
  8
0
 62
256
370
-1
  6
BYLAYER
100
AcDbCircle
 10
3.5
 20
37.0
 30
0.0
 40
1.2342702611091299
100
AcDbArc
 50
240.954472699629207
 51
140.9439056343941843
  0
LINE
  5
14A
100
AcDbEntity
100
AcDbLine
  8
centres
 62
256
370
-1
  6
CENTERX2
 10
7.0
 20
37.0
 30
0.0
 11
-2.0
 21
37.0
 31
0.0
  0
CIRCLE
  5
14B
100
AcDbEntity
100
AcDbCircle
  8
0
 62
256
370
-1
  6
BYLAYER
 10
46.5
 20
37.0
 30
0.0
 40
1.5
  0
ARC
  5
14C
100
AcDbEntity
  8
0
 62
256
370
-1
  6
BYLAYER
100
AcDbCircle
 10
46.5
 20
37.0
 30
0.0
 40
1.233273800264292
100
AcDbArc
 50
250.191785241269173
 51
135.5439309327912838
  0
LINE
  5
14D
100
AcDbEntity
100
AcDbLine
  8
centres
 62
256
370
-1
  6
CENTERX2
 10
43.5
 20
37.0
 30
0.0
 11
51.5
 21
37.0
 31
0.0
  0
CIRCLE
  5
14E
100
AcDbEntity
100
AcDbCircle
  8
0
 62
256
370
-1
  6
BYLAYER
 10
46.5
 20
51.0
 30
0.0
 40
1.5
  0
ARC
  5
14F
100
AcDbEntity
  8
0
 62
256
370
-1
  6
BYLAYER
100
AcDbCircle
 10
46.5
 20
51.0
 30
0.0
 40
1.2651249381960168
100
AcDbArc
 50
273.4040119619681377
 51
183.6182637509249105
  0
LINE
  5
150
100
AcDbEntity
100
AcDbLine
  8
centres
 62
256
370
-1
  6
CENTERX2
 10
43.5
 20
51.0
 30
0.0
 11
52.0
 21
51.0
 31
0.0
  0
LINE
  5
151
100
AcDbEntity
100
AcDbLine
  8
0
 62
256
370
-1
  6
BYLAYER
 10
0.0
 20
54.0
 30
0.0
 11
0.0
 21
34.0
 31
0.0
  0
LINE
  5
152
100
AcDbEntity
100
AcDbLine
  8
0
 62
256
370
-1
  6
BYLAYER
 10
0.0
 20
34.0
 30
0.0
 11
50.0
 21
34.0
 31
0.0
  0
LINE
  5
153
100
AcDbEntity
100
AcDbLine
  8
0
 62
256
370
-1
  6
BYLAYER
 10
50.0
 20
34.0
 30
0.0
 11
50.0
 21
54.0
 31
0.0
  0
LINE
  5
154
100
AcDbEntity
100
AcDbLine
  8
0
 62
256
370
-1
  6
BYLAYER
 10
0.0
 20
54.0
 30
0.0
 11
50.0
 21
54.0
 31
0.0
  0
DIMENSION
  5
155
100
AcDbEntity
  8
main dims
 62
256
370
-1
  6
BYLAYER
100
AcDbDimension
 10
-4.0
 20
37.0
 30
0.0
 11
-5.875
 21
42.4861111111111143
 31
0.0
 70
0
 71
8
 72
1
 41
1.0
 42
0.0
  1

  3
Standard
100
AcDbAlignedDimension
 13
-1.0
 23
34.0
 33
0.0
 14
-1.0
 24
37.0
 34
0.0
 50
90.0
100
AcDbRotatedDimension
1001
ACAD
1000
DSTYLE
1002
{
1070
144
1040
1
1002
}
  0
DIMENSION
  5
156
100
AcDbEntity
  8
main dims
 62
256
370
-1
  6
BYLAYER
100
AcDbDimension
 10
-9.5
 20
44.0
 30
0.0
 11
-11.375
 21
50.1805555555555571
 31
0.0
 70
0
 71
8
 72
1
 41
1.0
 42
0.0
  1

  3
Standard
100
AcDbAlignedDimension
 13
-1.0
 23
34.0
 33
0.0
 14
-1.0
 24
44.0
 34
0.0
 50
90.0
100
AcDbRotatedDimension
1001
ACAD
1000
DSTYLE
1002
{
1070
144
1040
1
1002
}
  0
DIMENSION
  5
157
100
AcDbEntity
  8
main dims
 62
256
370
-1
  6
BYLAYER
100
AcDbDimension
 10
-15.0
 20
51.0
 30
0.0
 11
-16.875
 21
42.5
 31
0.0
 70
0
 71
8
 72
1
 41
1.0
 42
0.0
  1

  3
Standard
100
AcDbAlignedDimension
 13
-1.0
 23
34.0
 33
0.0
 14
-1.0
 24
51.0
 34
0.0
 50
90.0
100
AcDbRotatedDimension
1001
ACAD
1000
DSTYLE
1002
{
1070
144
1040
1
1002
}
  0
DIMENSION
  5
158
100
AcDbEntity
  8
main dims
 62
256
370
-1
  6
BYLAYER
100
AcDbDimension
 10
-20.0
 20
54.0
 30
0.0
 11
-21.875
 21
44.0
 31
0.0
 70
0
 71
8
 72
1
 41
1.0
 42
0.0
  1

  3
Standard
100
AcDbAlignedDimension
 13
-1.0
 23
34.0
 33
0.0
 14
-1.0
 24
54.0
 34
0.0
 50
90.0
100
AcDbRotatedDimension
1001
ACAD
1000
DSTYLE
1002
{
1070
144
1040
1
1002
}
  0
DIMENSION
  5
159
100
AcDbEntity
  8
main dims
 62
256
370
-1
  6
BYLAYER
100
AcDbDimension
 10
44.2302403660197356
 20
45.0479461837106783
 30
0.0
 11
54.5365806907755228
 21
42.3547138608538631
 31
0.0
 70
3
 71
8
 72
1
 41
1.0
 42
0.0
  1

  3
Standard
100
AcDbDiametricDimension
 15
48.7697596339802644
 25
42.9520538162893217
 35
0.0
 40
0.0
1001
ACAD
1000
DSTYLE
1002
{
1070
144
1040
1
1002
}
  0
LEADER
  5
15A
  8
main dims
 62
256
370
-1
  6
BYLAYER
100
AcDbEntity
100
AcDbLeader
  3
Standard
 71
1
 72
0
 73
3
 74
0
 75
0
 40
1.0
 41
10.0
 76
2
 10
47.8873734533185313
 20
51.8191788526436312
 10
61.7999156355458155
 20
59.4811586051745991
  0
LINE
  5
15B
100
AcDbEntity
100
AcDbLine
  8
centres
 62
256
370
-1
  6
CENTERX2
 10
46.5
 20
1.5
 30
0.0
 11
46.5
 21
21.5
 31
0.0
  0
LINE
  5
15C
100
AcDbEntity
100
AcDbLine
  8
centres
 62
256
370
-1
  6
CENTERX2
 10
3.5
 20
1.5
 30
0.0
 11
3.5
 21
21.5
 31
0.0
  0
LEADER
  5
15D
  8
main dims
 62
0
370
-1
  6
CENTERX2
100
AcDbEntity
100
AcDbLeader
  3
Standard
 71
1
 72
0
 73
3
 74
0
 75
0
 40
1.0
 41
10.0
 76
3
 10
67.3543307086613936
 20
38.0
 10
67.3543307086613936
 20
44.0
 10
56.3543307086613865
 20
44.0
  0
MTEXT
  5
15E
100
AcDbEntity
100
AcDbMText
  8
main dims
 62
0
370
-1
  6
CENTERX2
 10
66.3543307086613936
 20
37.0
 30
0.0
 40
3.0
 41
100.0
 71
1
 72
5
  1
A
  7
textstyle3
 50
0.0
 73
1
 44
1.0
  0
DIMENSION
  5
15F
100
AcDbEntity
  8
main dims
 62
256
370
-1
  6
BYLAYER
100
AcDbDimension
 10
-3.5
 20
2.5000000000000009
 30
0.0
 11
-5.375
 21
7.9861111111111107
 31
0.0
 70
0
 71
8
 72
1
 41
1.0
 42
0.0
  1

  3
Standard
100
AcDbAlignedDimension
 13
-1.0
 23
0.0
 33
0.0
 14
3.5
 24
2.5
 34
0.0
 50
90.0
100
AcDbRotatedDimension
1001
ACAD
1000
DSTYLE
1002
{
1070
144
1040
1
1002
}
  0
DIMENSION
  5
160
100
AcDbEntity
  8
main dims
 62
256
370
-1
  6
BYLAYER
100
AcDbDimension
 10
-8.5
 20
3.5000000000000027
 30
0.0
 11
-10.3749999999999982
 21
8.9861111111111107
 31
0.0
 70
0
 71
8
 72
1
 41
1.0
 42
0.0
  1

  3
Standard
100
AcDbAlignedDimension
 13
-1.0
 23
0.0
 33
0.0
 14
11.5
 24
3.5
 34
0.0
 50
90.0
100
AcDbRotatedDimension
1001
ACAD
1000
DSTYLE
1002
{
1070
144
1040
1
1002
}
  0
DIMENSION
  5
161
100
AcDbEntity
  8
main dims
 62
256
370
-1
  6
BYLAYER
100
AcDbDimension
 10
54.5
 20
6.9999999999999982
 30
0.0
 11
52.625
 21
12.4861111111111107
 31
0.0
 70
0
 71
8
 72
1
 41
1.0
 42
0.0
  1

  3
Standard
100
AcDbAlignedDimension
 13
50.5
 23
0.0
 33
0.0
 14
43.0
 24
7.0
 34
0.0
 50
90.0
100
AcDbRotatedDimension
1001
ACAD
1000
DSTYLE
1002
{
1070
144
1040
1
1002
}
  0
DIMENSION
  5
162
100
AcDbEntity
  8
main dims
 62
256
370
-1
  6
BYLAYER
100
AcDbDimension
 10
-13.5
 20
20.0
 30
0.0
 11
-15.375
 21
10.0
 31
0.0
 70
0
 71
8
 72
1
 41
1.0
 42
0.0
  1

  3
Standard
100
AcDbAlignedDimension
 13
-1.0
 23
0.0
 33
0.0
 14
-1.0
 24
20.0
 34
0.0
 50
90.0
100
AcDbRotatedDimension
1001
ACAD
1000
DSTYLE
1002
{
1070
144
1040
1
1002
}
  0
LINE
  5
163
100
AcDbEntity
100
AcDbLine
  8
main dims
 62
256
370
-1
  6
BYLAYER
 10
59.0
 20
28.5
 30
0.0
 11
91.5
 21
28.5
 31
0.0
  0
LINE
  5
164
100
AcDbEntity
100
AcDbLine
  8
main dims
 62
256
370
-1
  6
BYLAYER
 10
91.5
 20
28.5
 30
0.0
 11
91.5
 21
-1.5
 31
0.0
  0
LINE
  5
165
100
AcDbEntity
100
AcDbLine
  8
main dims
 62
256
370
-1
  6
BYLAYER
 10
91.5
 20
-1.5
 30
0.0
 11
59.0
 21
-1.5
 31
0.0
  0
LINE
  5
166
100
AcDbEntity
100
AcDbLine
  8
main dims
 62
256
370
-1
  6
BYLAYER
 10
59.0
 20
-1.5
 30
0.0
 11
59.0
 21
28.5
 31
0.0
  0
LINE
  5
167
100
AcDbEntity
100
AcDbLine
  8
main dims
 62
256
370
-1
  6
BYLAYER
 10
59.0
 20
10.5
 30
0.0
 11
91.5
 21
10.5
 31
0.0
  0
LINE
  5
168
100
AcDbEntity
100
AcDbLine
  8
insert
 62
1
420
16711680
370
-1
  6
BYLAYER
 10
-3.0
 20
57.5
 30
0.0
 11
-3.0
 21
30.5
 31
0.0
  0
LINE
  5
169
100
AcDbEntity
100
AcDbLine
  8
insert
 62
1
420
16711680
370
-1
  6
BYLAYER
 10
53.0
 20
30.5
 30
0.0
 11
-3.0
 21
30.5
 31
0.0
  0
LINE
  5
16A
100
AcDbEntity
100
AcDbLine
  8
insert
 62
1
420
16711680
370
-1
  6
BYLAYER
 10
-3.0
 20
57.5
 30
0.0
 11
53.0
 21
57.5
 31
0.0
  0
LINE
  5
16B
100
AcDbEntity
100
AcDbLine
  8
insert
 62
1
420
16711680
370
-1
  6
BYLAYER
 10
53.0
 20
30.5
 30
0.0
 11
53.0
 21
57.5
 31
0.0
  0
CIRCLE
  5
16C
100
AcDbEntity
100
AcDbCircle
  8
insert
 62
1
420
16711680
370
-1
  6
BYLAYER
 10
3.5
 20
51.0
 30
0.0
 40
1.5
  0
CIRCLE
  5
16D
100
AcDbEntity
100
AcDbCircle
  8
insert
 62
1
420
16711680
370
-1
  6
BYLAYER
 10
46.5
 20
51.0
 30
0.0
 40
1.5
  0
CIRCLE
  5
16E
100
AcDbEntity
100
AcDbCircle
  8
insert
 62
1
420
16711680
370
-1
  6
BYLAYER
 10
3.5
 20
37.0
 30
0.0
 40
1.5
  0
CIRCLE
  5
16F
100
AcDbEntity
100
AcDbCircle
  8
insert
 62
1
420
16711680
370
-1
  6
BYLAYER
 10
46.5
 20
37.0
 30
0.0
 40
1.5
  0
LINE
  5
170
100
AcDbEntity
100
AcDbLine
  8
silicone
 62
1
420
16711680
370
-1
  6
BYLAYER
 10
13.5
 20
4.5
 30
0.0
 11
14.0
 21
4.5
 31
0.0
  0
LINE
  5
171
100
AcDbEntity
100
AcDbLine
  8
silicone
 62
1
420
16711680
370
-1
  6
BYLAYER
 10
16.0
 20
4.5
 30
0.0
 11
16.5
 21
4.5
 31
0.0
  0
MTEXT
  5
172
100
AcDbEntity
100
AcDbMText
  8
main dims
 62
256
370
-1
  6
BYLAYER
 10
60.4893138357707798
 20
27.2201912260968513
 30
0.0
 40
3.0
 41
100.0
 71
1
 72
5
  1
Inkjet Block\P20x20 Al bar\PRepRapPro Ltd\P\PLicence: GPL\PDrawn: Adrian
  7
textstyle4
 50
0.0
 73
1
 44
1.0
  0
MTEXT
  5
173
100
AcDbEntity
100
AcDbMText
  8
main dims
 62
256
370
-1
  6
BYLAYER
 10
57.2632170978630057
 20
61.1950224971881056
 30
0.0
 40
1.5
 41
100.0
 71
1
 72
5
  1
D&T M3 through hole
  7
textstyle5
 50
0.0
 73
1
 44
1.0
  0
MTEXT
  5
174
100
AcDbEntity
100
AcDbMText
  8
main dims
 62
256
370
-1
  6
BYLAYER
 10
-57.2506151574805529
 20
26.9303465973004492
 30
0.0
 40
2.0
 41
100.0
 71
1
 72
5
  1
Cone angles not critical - \Pas drilled\P.\P16mm hole drilled, then \Pslot-cut to one side leaving\Psmall lip.\P\P4 x M3 D&T through holes \Pin corners.
  7
textstyle6
 50
0.0
 73
1
 44
1.0
  0
DIMENSION
  5
175
100
AcDbEntity
  8
insert dims
 62
256
370
-1
  6
BYLAYER
100
AcDbDimension
 10
-6.7523881484132851
 20
56.8979470337775979
 30
0.0
 11
-8.6273881484132851
 21
44.0
 31
0.0
 70
0
 71
8
 72
2
 41
1.0
 42
0.0
  1

  3
Standard
100
AcDbAlignedDimension
 13
-3.0
 23
30.5
 33
0.0
 14
-3.0
 24
57.5
 34
0.0
 50
90.0
100
AcDbRotatedDimension
1001
ACAD
1000
DSTYLE
1002
{
1070
144
1040
1
1002
}
  0
DIMENSION
  5
176
100
AcDbEntity
  8
insert dims
 62
256
370
-1
  6
BYLAYER
100
AcDbDimension
 10
2.4641434760670151
 20
61.4614724012387086
 30
0.0
 11
25.0
 21
63.3364724012387086
 31
0.0
 70
0
 71
8
 72
2
 41
1.0
 42
0.0
  1

  3
Standard
100
AcDbAlignedDimension
 13
53.0
 23
57.5
 33
0.0
 14
-3.0
 24
57.5
 34
0.0
 50
0.0
100
AcDbRotatedDimension
1001
ACAD
1000
DSTYLE
1002
{
1070
144
1040
1
1002
}
  0
DIMENSION
  5
177
100
AcDbEntity
  8
insert dims
 62
256
370
-1
  6
BYLAYER
100
AcDbDimension
 10
-7.0
 20
17.0
 30
0.0
 11
-8.8749999999999982
 21
28.4861111111111107
 31
0.0
 70
0
 71
8
 72
2
 41
1.0
 42
0.0
  1

  3
Standard
100
AcDbAlignedDimension
 13
-3.0
 23
23.0
 33
0.0
 14
-3.0
 24
17.0
 34
0.0
 50
90.0
100
AcDbRotatedDimension
1001
ACAD
1000
DSTYLE
1002
{
1070
144
1040
1
1002
}
  0
DIMENSION
  5
178
100
AcDbEntity
  8
insert dims
 62
256
370
-1
  6
BYLAYER
100
AcDbDimension
 10
-14.0
 20
12.0
 30
0.0
 11
-15.875
 21
17.375
 31
0.0
 70
0
 71
8
 72
2
 41
1.0
 42
0.0
  1

  3
Standard
100
AcDbAlignedDimension
 13
-3.0
 23
23.0
 33
0.0
 14
11.0
 24
11.75
 34
0.0
 50
90.0
100
AcDbRotatedDimension
1001
ACAD
1000
DSTYLE
1002
{
1070
144
1040
1
1002
}
  0
DIMENSION
  5
179
100
AcDbEntity
  8
insert dims
 62
256
370
-1
  6
BYLAYER
100
AcDbDimension
 10
-11.0
 20
15.0
 30
0.0
 11
-12.8749999999999964
 21
28.4861111111111107
 31
0.0
 70
0
 71
8
 72
2
 41
1.0
 42
0.0
  1

  3
Standard
100
AcDbAlignedDimension
 13
-3.0
 23
23.0
 33
0.0
 14
9.0
 24
14.0
 34
0.0
 50
90.0
100
AcDbRotatedDimension
1001
ACAD
1000
DSTYLE
1002
{
1070
144
1040
1
1002
}
  0
DIMENSION
  5
17A
100
AcDbEntity
  8
insert dims
 62
256
370
-1
  6
BYLAYER
100
AcDbDimension
 10
59.0
 20
20.0
 30
0.0
 11
57.125
 21
28.4861111111111107
 31
0.0
 70
0
 71
8
 72
2
 41
1.0
 42
0.0
  1

  3
Standard
100
AcDbAlignedDimension
 13
53.0
 23
23.0
 33
0.0
 14
50.0
 24
20.0
 34
0.0
 50
90.0
100
AcDbRotatedDimension
1001
ACAD
1000
DSTYLE
1002
{
1070
144
1040
1
1002
}
  0
DIMENSION
  5
17B
100
AcDbEntity
  8
insert dims
 62
256
370
-1
  6
BYLAYER
100
AcDbDimension
 10
9.0678331254519122
 20
66.5093555907156855
 30
0.0
 11
13.4861111111111107
 21
68.3843555907156855
 31
0.0
 70
0
 71
8
 72
2
 41
1.0
 42
0.0
  1

  3
Standard
100
AcDbAlignedDimension
 13
0.0
 23
54.0
 33
0.0
 14
8.0
 24
44.0
 34
0.0
 50
0.0
100
AcDbRotatedDimension
1001
ACAD
1000
DSTYLE
1002
{
1070
144
1040
1
1002
}
  0
ENDSEC
  0
SECTION
  2
OBJECTS
  0
DICTIONARY
  5
C
100
AcDbDictionary
280
0
281
1
  3
ACAD_GROUP
350
D
  3
ACAD_LAYOUT
350
1A
  3
ACAD_MLINESTYLE
350
17
  3
ACAD_PLOTSETTINGS
350
19
  3
ACAD_PLOTSTYLENAME
350
E
  3
AcDbVariableDictionary
350
17C
  3
QCAD_OBJECTS
350
17D
  0
DICTIONARY
  5
D
100
AcDbDictionary
280
0
281
1
  0
ACDBDICTIONARYWDFLT
  5
E
100
AcDbDictionary
281
1
  3
Normal
350
F
100
AcDbDictionaryWithDefault
340
F
  0
ACDBPLACEHOLDER
  5
F
  0
DICTIONARY
  5
17
100
AcDbDictionary
280
0
281
1
  3
Standard
350
18
  0
MLINESTYLE
  5
18
100
AcDbMlineStyle
  2
STANDARD
 70
0
  3

 62
256
 51
90.0
 52
90.0
 71
2
 49
0.5
 62
256
  6
BYLAYER
 49
-0.5
 62
256
  6
BYLAYER
  0
DICTIONARY
  5
19
100
AcDbDictionary
280
0
281
1
  0
DICTIONARY
  5
1A
100
AcDbDictionary
281
1
  3
Layout1
350
1E
  3
Layout2
350
26
  3
Model
350
22
  0
LAYOUT
  5
1E
100
AcDbPlotSettings
  1

  2
none_device
  4

  6

 40
0.0
 41
0.0
 42
0.0
 43
0.0
 44
0.0
 45
0.0
 46
0.0
 47
0.0
 48
0.0
 49
0.0
140
0.0
141
0.0
142
1.0
143
1.0
 70
688
 72
0
 73
0
 74
5
  7

 75
16
147
1.0
148
0.0
149
0.0
100
AcDbLayout
  1
Layout1
 70
1
 71
1
 10
0.0
 20
0.0
 11
420.0
 21
297.0
 12
0.0
 22
0.0
 32
0.0
 14
100000000000000000000.0
 24
100000000000000000000.0
 34
100000000000000000000.0
 15
-100000000000000000000.0
 25
-100000000000000000000.0
 35
-100000000000000000000.0
146
0.0
 13
0.0
 23
0.0
 33
0.0
 16
1.0
 26
0.0
 36
0.0
 17
0.0
 27
1.0
 37
0.0
 76
0
330
1B
  0
LAYOUT
  5
22
100
AcDbPlotSettings
  1

  2
none_device
  4

  6

 40
0.0
 41
0.0
 42
0.0
 43
0.0
 44
0.0
 45
0.0
 46
0.0
 47
0.0
 48
0.0
 49
0.0
140
0.0
141
0.0
142
1.0
143
1.0
 70
1712
 72
0
 73
0
 74
0
  7

 75
0
147
1.0
148
0.0
149
0.0
100
AcDbLayout
  1
Model
 70
1
 71
0
 10
0.0
 20
0.0
 11
12.0
 21
9.0
 12
0.0
 22
0.0
 32
0.0
 14
0.0
 24
0.0
 34
0.0
 15
0.0
 25
0.0
 35
0.0
146
0.0
 13
0.0
 23
0.0
 33
0.0
 16
1.0
 26
0.0
 36
0.0
 17
0.0
 27
1.0
 37
0.0
 76
0
330
1F
  0
LAYOUT
  5
26
100
AcDbPlotSettings
  1

  2
none_device
  4

  6

 40
0.0
 41
0.0
 42
0.0
 43
0.0
 44
0.0
 45
0.0
 46
0.0
 47
0.0
 48
0.0
 49
0.0
140
0.0
141
0.0
142
1.0
143
1.0
 70
688
 72
0
 73
0
 74
5
  7

 75
16
147
1.0
148
0.0
149
0.0
100
AcDbLayout
  1
Layout2
 70
1
 71
2
 10
0.0
 20
0.0
 11
12.0
 21
9.0
 12
0.0
 22
0.0
 32
0.0
 14
0.0
 24
0.0
 34
0.0
 15
0.0
 25
0.0
 35
0.0
146
0.0
 13
0.0
 23
0.0
 33
0.0
 16
1.0
 26
0.0
 36
0.0
 17
0.0
 27
1.0
 37
0.0
 76
0
330
23
  0
DICTIONARY
  5
17C
100
AcDbDictionary
281
1
  3
DIMASSOC
350
17F
  3
HIDETEXT
350
17E
  0
DICTIONARYVAR
  5
17E
100
DictionaryVariables
280
0
  1
2
  0
DICTIONARYVAR
  5
17F
100
DictionaryVariables
280
0
  1
1
  0
DICTIONARY
  5
17D
100
AcDbDictionary
281
1
  3
Grid/DisplayGrid00
350
180
  3
Grid/DisplayGrid01
350
181
  3
Grid/DisplayGrid02
350
182
  3
Grid/DisplayGrid03
350
183
  3
Grid/GridSpacingX00
350
184
  3
Grid/GridSpacingX01
350
185
  3
Grid/GridSpacingX02
350
186
  3
Grid/GridSpacingX03
350
187
  3
Grid/GridSpacingY00
350
188
  3
Grid/GridSpacingY01
350
189
  3
Grid/GridSpacingY02
350
18A
  3
Grid/GridSpacingY03
350
18B
  3
Grid/IsometricGrid00
350
18C
  3
Grid/IsometricGrid01
350
18D
  3
Grid/IsometricGrid02
350
18E
  3
Grid/IsometricGrid03
350
18F
  3
Grid/IsometricProjection00
350
190
  3
Grid/IsometricProjection01
350
191
  3
Grid/IsometricProjection02
350
192
  3
Grid/IsometricProjection03
350
193
  3
Grid/MetaGridSpacingX00
350
194
  3
Grid/MetaGridSpacingX01
350
195
  3
Grid/MetaGridSpacingX02
350
196
  3
Grid/MetaGridSpacingX03
350
197
  3
Grid/MetaGridSpacingY00
350
198
  3
Grid/MetaGridSpacingY01
350
199
  3
Grid/MetaGridSpacingY02
350
19A
  3
Grid/MetaGridSpacingY03
350
19B
  3
MultiPageSettings/Columns
350
19C
  3
MultiPageSettings/GlueMarginsBottom
350
19D
  3
MultiPageSettings/GlueMarginsLeft
350
19E
  3
MultiPageSettings/GlueMarginsRight
350
19F
  3
MultiPageSettings/GlueMarginsTop
350
1A0
  3
MultiPageSettings/PrintCropMarks
350
1A1
  3
MultiPageSettings/Rows
350
1A2
  3
PageSettings/OffsetX
350
1A3
  3
PageSettings/OffsetY
350
1A4
  3
PageSettings/PageOrientation
350
1A5
  3
PageSettings/PaperHeight
350
1A6
  3
PageSettings/PaperWidth
350
1A7
  3
PageSettings/Scale
350
1A8
  3
PageSettings/ShowPaperBorders
350
1A9
  3
UnitSettings/PaperUnit
350
1AA
  0
XRECORD
  5
180
330
17D
100
AcDbXrecord
280
1
290
1
  0
XRECORD
  5
181
330
17D
100
AcDbXrecord
280
1
290
1
  0
XRECORD
  5
182
330
17D
100
AcDbXrecord
280
1
290
1
  0
XRECORD
  5
183
330
17D
100
AcDbXrecord
280
1
290
1
  0
XRECORD
  5
184
330
17D
100
AcDbXrecord
280
1
1000
auto
  0
XRECORD
  5
185
330
17D
100
AcDbXrecord
280
1
1000
auto
  0
XRECORD
  5
186
330
17D
100
AcDbXrecord
280
1
1000
auto
  0
XRECORD
  5
187
330
17D
100
AcDbXrecord
280
1
1000
auto
  0
XRECORD
  5
188
330
17D
100
AcDbXrecord
280
1
1000
auto
  0
XRECORD
  5
189
330
17D
100
AcDbXrecord
280
1
1000
auto
  0
XRECORD
  5
18A
330
17D
100
AcDbXrecord
280
1
1000
auto
  0
XRECORD
  5
18B
330
17D
100
AcDbXrecord
280
1
1000
auto
  0
XRECORD
  5
18C
330
17D
100
AcDbXrecord
280
1
290
0
  0
XRECORD
  5
18D
330
17D
100
AcDbXrecord
280
1
290
0
  0
XRECORD
  5
18E
330
17D
100
AcDbXrecord
280
1
290
0
  0
XRECORD
  5
18F
330
17D
100
AcDbXrecord
280
1
290
0
  0
XRECORD
  5
190
330
17D
100
AcDbXrecord
280
1
 90
0
  0
XRECORD
  5
191
330
17D
100
AcDbXrecord
280
1
 90
0
  0
XRECORD
  5
192
330
17D
100
AcDbXrecord
280
1
 90
0
  0
XRECORD
  5
193
330
17D
100
AcDbXrecord
280
1
 90
0
  0
XRECORD
  5
194
330
17D
100
AcDbXrecord
280
1
1000
auto
  0
XRECORD
  5
195
330
17D
100
AcDbXrecord
280
1
1000
auto
  0
XRECORD
  5
196
330
17D
100
AcDbXrecord
280
1
1000
auto
  0
XRECORD
  5
197
330
17D
100
AcDbXrecord
280
1
1000
auto
  0
XRECORD
  5
198
330
17D
100
AcDbXrecord
280
1
1000
auto
  0
XRECORD
  5
199
330
17D
100
AcDbXrecord
280
1
1000
auto
  0
XRECORD
  5
19A
330
17D
100
AcDbXrecord
280
1
1000
auto
  0
XRECORD
  5
19B
330
17D
100
AcDbXrecord
280
1
1000
auto
  0
XRECORD
  5
19C
330
17D
100
AcDbXrecord
280
1
 90
1
  0
XRECORD
  5
19D
330
17D
100
AcDbXrecord
280
1
 40
10.0
  0
XRECORD
  5
19E
330
17D
100
AcDbXrecord
280
1
 40
10.0
  0
XRECORD
  5
19F
330
17D
100
AcDbXrecord
280
1
 40
10.0
  0
XRECORD
  5
1A0
330
17D
100
AcDbXrecord
280
1
 40
10.0
  0
XRECORD
  5
1A1
330
17D
100
AcDbXrecord
280
1
290
0
  0
XRECORD
  5
1A2
330
17D
100
AcDbXrecord
280
1
 90
1
  0
XRECORD
  5
1A3
330
17D
100
AcDbXrecord
280
1
 40
0.0
  0
XRECORD
  5
1A4
330
17D
100
AcDbXrecord
280
1
 40
0.0
  0
XRECORD
  5
1A5
330
17D
100
AcDbXrecord
280
1
1000
Portrait
  0
XRECORD
  5
1A6
330
17D
100
AcDbXrecord
280
1
 40
297.0
  0
XRECORD
  5
1A7
330
17D
100
AcDbXrecord
280
1
 40
210.0
  0
XRECORD
  5
1A8
330
17D
100
AcDbXrecord
280
1
1000
1:1
  0
XRECORD
  5
1A9
330
17D
100
AcDbXrecord
280
1
290
1
  0
XRECORD
  5
1AA
330
17D
100
AcDbXrecord
280
1
 90
4
  0
ENDSEC
  0
EOF
