M48
;DRILL file {KiCad 0.201506122246+5743~23~ubuntu14.04.1-product} date Mon 13 Jul 2015 16:56:05 BST
;FORMAT={-:-/ absolute / inch / decimal}
FMAT,2
INCH,TZ
T1C0.016
T2C0.040
T3C0.098
%
G90
G05
M72
T1
X4.15Y-2.
X4.35Y-3.6
X4.35Y-3.9
X4.425Y-2.
X4.425Y-4.25
X4.425Y-4.475
X4.45Y-2.675
X4.5Y-2.7
X4.6Y-1.2
X4.6Y-4.4
X4.625Y-1.5
X4.625Y-2.3
X4.675Y-2.08
X4.675Y-2.875
X4.675Y-4.075
X4.725Y-2.05
X4.725Y-2.225
X4.8Y-2.85
X4.8Y-4.05
X4.825Y-2.55
X4.825Y-2.6
X4.85Y-3.975
X4.9Y-4.35
X4.925Y-2.05
X4.925Y-2.8
X4.925Y-2.9
X4.925Y-2.975
X4.975Y-2.05
X5.025Y-2.
X5.025Y-2.125
X5.025Y-2.45
X5.025Y-2.8
X5.075Y-2.175
X5.1Y-1.565
X5.1Y-2.4
X5.15Y-1.2
X5.15Y-2.325
X5.15Y-2.375
X5.15Y-4.05
X5.15Y-4.15
X5.175Y-3.425
X5.2Y-2.175
X5.25Y-1.375
X5.25Y-1.575
X5.25Y-3.5
X5.25Y-3.65
X5.25Y-3.75
X5.25Y-4.15
X5.25Y-4.25
T2
X4.Y-1.25
X4.Y-1.35
X4.Y-1.45
X4.Y-1.55
X4.Y-1.65
X4.Y-1.75
X4.Y-1.85
X4.Y-2.1
X4.Y-2.2
X4.Y-2.3
X4.Y-2.4
X4.Y-2.5
X4.Y-2.6
X4.Y-2.7
X4.Y-2.8
X4.Y-2.9
X4.Y-3.
X4.Y-3.1
X4.Y-3.2
X4.Y-3.3
X4.Y-3.4
X4.Y-3.5
X4.Y-3.6
X4.Y-3.7
X4.Y-3.8
X4.Y-3.9
X4.Y-4.
X4.Y-4.1
X4.Y-4.2
X4.Y-4.3
X4.Y-4.4
X4.Y-4.5
X4.1Y-1.25
X4.1Y-1.35
X4.1Y-1.45
X4.1Y-1.55
X4.1Y-1.65
X4.1Y-1.75
X4.1Y-1.85
X4.1Y-2.1
X4.1Y-2.2
X4.1Y-2.3
X4.1Y-2.4
X4.1Y-2.5
X4.1Y-2.6
X4.1Y-2.7
X4.1Y-2.8
X4.1Y-2.9
X4.1Y-3.
X4.1Y-3.1
X4.1Y-3.2
X4.1Y-3.3
X4.1Y-3.4
X4.1Y-3.5
X4.1Y-3.6
X4.1Y-3.7
X4.1Y-3.8
X4.1Y-3.9
X4.1Y-4.
X4.1Y-4.1
X4.1Y-4.2
X4.1Y-4.3
X4.1Y-4.4
X4.1Y-4.5
X4.225Y-4.
X4.225Y-4.1
X4.225Y-4.2
X4.725Y-1.2
X4.725Y-1.3
X4.825Y-1.2
X4.825Y-1.3
X4.925Y-1.2
X4.925Y-1.3
X5.025Y-1.2
X5.025Y-1.3
T3
X4.775Y-3.3
X4.775Y-4.3
T0
M30
