G04 #@! TF.FileFunction,Soldermask,Bot*
%FSLAX46Y46*%
G04 Gerber Fmt 4.6, Leading zero omitted, Abs format (unit mm)*
G04 Created by KiCad (PCBNEW 0.201506122246+5743~23~ubuntu14.04.1-product) date Mon 13 Jul 2015 16:56:03 BST*
%MOMM*%
G01*
G04 APERTURE LIST*
%ADD10C,0.100000*%
%ADD11C,3.500000*%
%ADD12R,1.727200X1.727200*%
%ADD13O,1.727200X1.727200*%
%ADD14R,2.032000X1.727200*%
%ADD15O,2.032000X1.727200*%
G04 APERTURE END LIST*
D10*
D11*
X121285000Y-83820000D03*
D12*
X104140000Y-46990000D03*
D13*
X101600000Y-46990000D03*
X104140000Y-44450000D03*
X101600000Y-44450000D03*
X104140000Y-41910000D03*
X101600000Y-41910000D03*
X104140000Y-39370000D03*
X101600000Y-39370000D03*
X104140000Y-36830000D03*
X101600000Y-36830000D03*
X104140000Y-34290000D03*
X101600000Y-34290000D03*
X104140000Y-31750000D03*
X101600000Y-31750000D03*
D12*
X104140000Y-114300000D03*
D13*
X101600000Y-114300000D03*
X104140000Y-111760000D03*
X101600000Y-111760000D03*
X104140000Y-109220000D03*
X101600000Y-109220000D03*
X104140000Y-106680000D03*
X101600000Y-106680000D03*
X104140000Y-104140000D03*
X101600000Y-104140000D03*
X104140000Y-101600000D03*
X101600000Y-101600000D03*
X104140000Y-99060000D03*
X101600000Y-99060000D03*
X104140000Y-96520000D03*
X101600000Y-96520000D03*
X104140000Y-93980000D03*
X101600000Y-93980000D03*
X104140000Y-91440000D03*
X101600000Y-91440000D03*
X104140000Y-88900000D03*
X101600000Y-88900000D03*
X104140000Y-86360000D03*
X101600000Y-86360000D03*
X104140000Y-83820000D03*
X101600000Y-83820000D03*
X104140000Y-81280000D03*
X101600000Y-81280000D03*
X104140000Y-78740000D03*
X101600000Y-78740000D03*
X104140000Y-76200000D03*
X101600000Y-76200000D03*
X104140000Y-73660000D03*
X101600000Y-73660000D03*
X104140000Y-71120000D03*
X101600000Y-71120000D03*
X104140000Y-68580000D03*
X101600000Y-68580000D03*
X104140000Y-66040000D03*
X101600000Y-66040000D03*
X104140000Y-63500000D03*
X101600000Y-63500000D03*
X104140000Y-60960000D03*
X101600000Y-60960000D03*
X104140000Y-58420000D03*
X101600000Y-58420000D03*
X104140000Y-55880000D03*
X101600000Y-55880000D03*
X104140000Y-53340000D03*
X101600000Y-53340000D03*
D11*
X121285000Y-109220000D03*
D12*
X127635000Y-30480000D03*
D13*
X127635000Y-33020000D03*
X125095000Y-30480000D03*
X125095000Y-33020000D03*
X122555000Y-30480000D03*
X122555000Y-33020000D03*
X120015000Y-30480000D03*
X120015000Y-33020000D03*
D14*
X107315000Y-106680000D03*
D15*
X107315000Y-104140000D03*
X107315000Y-101600000D03*
M02*
